G04 (created by PCBNEW-RS274X (2011-05-25)-stable) date Sat 09 Jun 2012 10:58:35 AM MDT*
G01*
G70*
G90*
%MOIN*%
G04 Gerber Fmt 3.4, Leading zero omitted, Abs format*
%FSLAX34Y34*%
G04 APERTURE LIST*
%ADD10C,0.006000*%
%ADD11C,0.012000*%
%ADD12C,0.010000*%
%ADD13C,0.015000*%
%ADD14C,0.018000*%
%ADD15C,0.007500*%
%ADD16C,0.008000*%
%ADD17C,0.003000*%
%ADD18C,0.005000*%
%ADD19C,0.002600*%
%ADD20C,0.019700*%
%ADD21C,0.010700*%
%ADD22C,0.003500*%
%ADD23C,0.011300*%
%ADD24R,0.075000X0.075000*%
%ADD25C,0.075000*%
%ADD26C,0.079100*%
%ADD27R,0.080000X0.080000*%
%ADD28C,0.080000*%
%ADD29C,0.086000*%
%ADD30R,0.095000X0.095000*%
%ADD31C,0.095000*%
%ADD32O,0.110000X0.082000*%
%ADD33R,0.110000X0.082000*%
%ADD34O,0.082000X0.110000*%
%ADD35R,0.082000X0.110000*%
%ADD36C,0.090000*%
%ADD37R,0.090000X0.090000*%
%ADD38R,0.075100X0.098700*%
%ADD39O,0.176000X0.098000*%
%ADD40R,0.085000X0.085000*%
%ADD41C,0.085000*%
%ADD42C,0.067200*%
%ADD43R,0.050000X0.040000*%
%ADD44R,0.140000X0.140000*%
%ADD45C,0.140000*%
%ADD46O,0.098000X0.176000*%
%ADD47O,0.118400X0.090900*%
%ADD48C,0.320000*%
G04 APERTURE END LIST*
G54D10*
G54D11*
X78086Y-69248D02*
X78057Y-69286D01*
X77971Y-69324D01*
X77914Y-69324D01*
X77829Y-69286D01*
X77771Y-69210D01*
X77743Y-69133D01*
X77714Y-68981D01*
X77714Y-68867D01*
X77743Y-68714D01*
X77771Y-68638D01*
X77829Y-68562D01*
X77914Y-68524D01*
X77971Y-68524D01*
X78057Y-68562D01*
X78086Y-68600D01*
X78343Y-69324D02*
X78343Y-68524D01*
X78343Y-68905D02*
X78686Y-68905D01*
X78686Y-69324D02*
X78686Y-68524D01*
X79058Y-68867D02*
X79000Y-68829D01*
X78972Y-68790D01*
X78943Y-68714D01*
X78943Y-68676D01*
X78972Y-68600D01*
X79000Y-68562D01*
X79058Y-68524D01*
X79172Y-68524D01*
X79229Y-68562D01*
X79258Y-68600D01*
X79286Y-68676D01*
X79286Y-68714D01*
X79258Y-68790D01*
X79229Y-68829D01*
X79172Y-68867D01*
X79058Y-68867D01*
X79000Y-68905D01*
X78972Y-68943D01*
X78943Y-69019D01*
X78943Y-69171D01*
X78972Y-69248D01*
X79000Y-69286D01*
X79058Y-69324D01*
X79172Y-69324D01*
X79229Y-69286D01*
X79258Y-69248D01*
X79286Y-69171D01*
X79286Y-69019D01*
X79258Y-68943D01*
X79229Y-68905D01*
X79172Y-68867D01*
X74086Y-69248D02*
X74057Y-69286D01*
X73971Y-69324D01*
X73914Y-69324D01*
X73829Y-69286D01*
X73771Y-69210D01*
X73743Y-69133D01*
X73714Y-68981D01*
X73714Y-68867D01*
X73743Y-68714D01*
X73771Y-68638D01*
X73829Y-68562D01*
X73914Y-68524D01*
X73971Y-68524D01*
X74057Y-68562D01*
X74086Y-68600D01*
X74343Y-69324D02*
X74343Y-68524D01*
X74343Y-68905D02*
X74686Y-68905D01*
X74686Y-69324D02*
X74686Y-68524D01*
X74915Y-68524D02*
X75315Y-68524D01*
X75058Y-69324D01*
X65086Y-69248D02*
X65057Y-69286D01*
X64971Y-69324D01*
X64914Y-69324D01*
X64829Y-69286D01*
X64771Y-69210D01*
X64743Y-69133D01*
X64714Y-68981D01*
X64714Y-68867D01*
X64743Y-68714D01*
X64771Y-68638D01*
X64829Y-68562D01*
X64914Y-68524D01*
X64971Y-68524D01*
X65057Y-68562D01*
X65086Y-68600D01*
X65343Y-69324D02*
X65343Y-68524D01*
X65343Y-68905D02*
X65686Y-68905D01*
X65686Y-69324D02*
X65686Y-68524D01*
X66229Y-68524D02*
X66115Y-68524D01*
X66058Y-68562D01*
X66029Y-68600D01*
X65972Y-68714D01*
X65943Y-68867D01*
X65943Y-69171D01*
X65972Y-69248D01*
X66000Y-69286D01*
X66058Y-69324D01*
X66172Y-69324D01*
X66229Y-69286D01*
X66258Y-69248D01*
X66286Y-69171D01*
X66286Y-68981D01*
X66258Y-68905D01*
X66229Y-68867D01*
X66172Y-68829D01*
X66058Y-68829D01*
X66000Y-68867D01*
X65972Y-68905D01*
X65943Y-68981D01*
X61086Y-69248D02*
X61057Y-69286D01*
X60971Y-69324D01*
X60914Y-69324D01*
X60829Y-69286D01*
X60771Y-69210D01*
X60743Y-69133D01*
X60714Y-68981D01*
X60714Y-68867D01*
X60743Y-68714D01*
X60771Y-68638D01*
X60829Y-68562D01*
X60914Y-68524D01*
X60971Y-68524D01*
X61057Y-68562D01*
X61086Y-68600D01*
X61343Y-69324D02*
X61343Y-68524D01*
X61343Y-68905D02*
X61686Y-68905D01*
X61686Y-69324D02*
X61686Y-68524D01*
X62258Y-68524D02*
X61972Y-68524D01*
X61943Y-68905D01*
X61972Y-68867D01*
X62029Y-68829D01*
X62172Y-68829D01*
X62229Y-68867D01*
X62258Y-68905D01*
X62286Y-68981D01*
X62286Y-69171D01*
X62258Y-69248D01*
X62229Y-69286D01*
X62172Y-69324D01*
X62029Y-69324D01*
X61972Y-69286D01*
X61943Y-69248D01*
X52086Y-69248D02*
X52057Y-69286D01*
X51971Y-69324D01*
X51914Y-69324D01*
X51829Y-69286D01*
X51771Y-69210D01*
X51743Y-69133D01*
X51714Y-68981D01*
X51714Y-68867D01*
X51743Y-68714D01*
X51771Y-68638D01*
X51829Y-68562D01*
X51914Y-68524D01*
X51971Y-68524D01*
X52057Y-68562D01*
X52086Y-68600D01*
X52343Y-69324D02*
X52343Y-68524D01*
X52343Y-68905D02*
X52686Y-68905D01*
X52686Y-69324D02*
X52686Y-68524D01*
X53229Y-68790D02*
X53229Y-69324D01*
X53086Y-68486D02*
X52943Y-69057D01*
X53315Y-69057D01*
X48086Y-69248D02*
X48057Y-69286D01*
X47971Y-69324D01*
X47914Y-69324D01*
X47829Y-69286D01*
X47771Y-69210D01*
X47743Y-69133D01*
X47714Y-68981D01*
X47714Y-68867D01*
X47743Y-68714D01*
X47771Y-68638D01*
X47829Y-68562D01*
X47914Y-68524D01*
X47971Y-68524D01*
X48057Y-68562D01*
X48086Y-68600D01*
X48343Y-69324D02*
X48343Y-68524D01*
X48343Y-68905D02*
X48686Y-68905D01*
X48686Y-69324D02*
X48686Y-68524D01*
X48915Y-68524D02*
X49286Y-68524D01*
X49086Y-68829D01*
X49172Y-68829D01*
X49229Y-68867D01*
X49258Y-68905D01*
X49286Y-68981D01*
X49286Y-69171D01*
X49258Y-69248D01*
X49229Y-69286D01*
X49172Y-69324D01*
X49000Y-69324D01*
X48943Y-69286D01*
X48915Y-69248D01*
X39086Y-69248D02*
X39057Y-69286D01*
X38971Y-69324D01*
X38914Y-69324D01*
X38829Y-69286D01*
X38771Y-69210D01*
X38743Y-69133D01*
X38714Y-68981D01*
X38714Y-68867D01*
X38743Y-68714D01*
X38771Y-68638D01*
X38829Y-68562D01*
X38914Y-68524D01*
X38971Y-68524D01*
X39057Y-68562D01*
X39086Y-68600D01*
X39343Y-69324D02*
X39343Y-68524D01*
X39343Y-68905D02*
X39686Y-68905D01*
X39686Y-69324D02*
X39686Y-68524D01*
X39943Y-68600D02*
X39972Y-68562D01*
X40029Y-68524D01*
X40172Y-68524D01*
X40229Y-68562D01*
X40258Y-68600D01*
X40286Y-68676D01*
X40286Y-68752D01*
X40258Y-68867D01*
X39915Y-69324D01*
X40286Y-69324D01*
X35086Y-69248D02*
X35057Y-69286D01*
X34971Y-69324D01*
X34914Y-69324D01*
X34829Y-69286D01*
X34771Y-69210D01*
X34743Y-69133D01*
X34714Y-68981D01*
X34714Y-68867D01*
X34743Y-68714D01*
X34771Y-68638D01*
X34829Y-68562D01*
X34914Y-68524D01*
X34971Y-68524D01*
X35057Y-68562D01*
X35086Y-68600D01*
X35343Y-69324D02*
X35343Y-68524D01*
X35343Y-68905D02*
X35686Y-68905D01*
X35686Y-69324D02*
X35686Y-68524D01*
X36286Y-69324D02*
X35943Y-69324D01*
X36115Y-69324D02*
X36115Y-68524D01*
X36058Y-68638D01*
X36000Y-68714D01*
X35943Y-68752D01*
G54D12*
X88643Y-41120D02*
X88643Y-40891D01*
X89243Y-41006D02*
X88643Y-41006D01*
X88643Y-40815D02*
X88643Y-40586D01*
X89243Y-40701D02*
X88643Y-40701D01*
X89243Y-40262D02*
X89243Y-40453D01*
X88643Y-40453D01*
X89214Y-39843D02*
X89243Y-39805D01*
X89243Y-39729D01*
X89214Y-39690D01*
X89157Y-39671D01*
X89129Y-39671D01*
X89071Y-39690D01*
X89043Y-39729D01*
X89043Y-39786D01*
X89014Y-39824D01*
X88957Y-39843D01*
X88929Y-39843D01*
X88871Y-39824D01*
X88843Y-39786D01*
X88843Y-39729D01*
X88871Y-39690D01*
X89214Y-39347D02*
X89243Y-39385D01*
X89243Y-39462D01*
X89214Y-39500D01*
X89157Y-39519D01*
X88929Y-39519D01*
X88871Y-39500D01*
X88843Y-39462D01*
X88843Y-39385D01*
X88871Y-39347D01*
X88929Y-39328D01*
X88986Y-39328D01*
X89043Y-39519D01*
X89243Y-39157D02*
X88843Y-39157D01*
X88957Y-39157D02*
X88900Y-39138D01*
X88871Y-39119D01*
X88843Y-39081D01*
X88843Y-39042D01*
X89243Y-38909D02*
X88843Y-38909D01*
X88643Y-38909D02*
X88671Y-38928D01*
X88700Y-38909D01*
X88671Y-38890D01*
X88643Y-38909D01*
X88700Y-38909D01*
X89243Y-38547D02*
X88929Y-38547D01*
X88871Y-38566D01*
X88843Y-38604D01*
X88843Y-38681D01*
X88871Y-38719D01*
X89214Y-38547D02*
X89243Y-38585D01*
X89243Y-38681D01*
X89214Y-38719D01*
X89157Y-38738D01*
X89100Y-38738D01*
X89043Y-38719D01*
X89014Y-38681D01*
X89014Y-38585D01*
X88986Y-38547D01*
X89243Y-38300D02*
X89214Y-38338D01*
X89157Y-38357D01*
X88643Y-38357D01*
X88614Y-37556D02*
X89386Y-37899D01*
X89243Y-37118D02*
X88643Y-37118D01*
X88643Y-36965D01*
X88671Y-36927D01*
X88700Y-36908D01*
X88757Y-36889D01*
X88843Y-36889D01*
X88900Y-36908D01*
X88929Y-36927D01*
X88957Y-36965D01*
X88957Y-37118D01*
X89243Y-36718D02*
X88843Y-36718D01*
X88957Y-36718D02*
X88900Y-36699D01*
X88871Y-36680D01*
X88843Y-36642D01*
X88843Y-36603D01*
X89243Y-36413D02*
X89214Y-36451D01*
X89186Y-36470D01*
X89129Y-36489D01*
X88957Y-36489D01*
X88900Y-36470D01*
X88871Y-36451D01*
X88843Y-36413D01*
X88843Y-36355D01*
X88871Y-36317D01*
X88900Y-36298D01*
X88957Y-36279D01*
X89129Y-36279D01*
X89186Y-36298D01*
X89214Y-36317D01*
X89243Y-36355D01*
X89243Y-36413D01*
X88843Y-35936D02*
X89329Y-35936D01*
X89386Y-35955D01*
X89414Y-35974D01*
X89443Y-36013D01*
X89443Y-36070D01*
X89414Y-36108D01*
X89214Y-35936D02*
X89243Y-35974D01*
X89243Y-36051D01*
X89214Y-36089D01*
X89186Y-36108D01*
X89129Y-36127D01*
X88957Y-36127D01*
X88900Y-36108D01*
X88871Y-36089D01*
X88843Y-36051D01*
X88843Y-35974D01*
X88871Y-35936D01*
G54D11*
X86629Y-46324D02*
X86429Y-45943D01*
X86286Y-46324D02*
X86286Y-45524D01*
X86514Y-45524D01*
X86572Y-45562D01*
X86600Y-45600D01*
X86629Y-45676D01*
X86629Y-45790D01*
X86600Y-45867D01*
X86572Y-45905D01*
X86514Y-45943D01*
X86286Y-45943D01*
X86886Y-45905D02*
X87086Y-45905D01*
X87172Y-46324D02*
X86886Y-46324D01*
X86886Y-45524D01*
X87172Y-45524D01*
X87400Y-46286D02*
X87486Y-46324D01*
X87629Y-46324D01*
X87686Y-46286D01*
X87715Y-46248D01*
X87743Y-46171D01*
X87743Y-46095D01*
X87715Y-46019D01*
X87686Y-45981D01*
X87629Y-45943D01*
X87515Y-45905D01*
X87457Y-45867D01*
X87429Y-45829D01*
X87400Y-45752D01*
X87400Y-45676D01*
X87429Y-45600D01*
X87457Y-45562D01*
X87515Y-45524D01*
X87657Y-45524D01*
X87743Y-45562D01*
X88000Y-45905D02*
X88200Y-45905D01*
X88286Y-46324D02*
X88000Y-46324D01*
X88000Y-45524D01*
X88286Y-45524D01*
X88457Y-45524D02*
X88800Y-45524D01*
X88629Y-46324D02*
X88629Y-45524D01*
G54D13*
X86643Y-34243D02*
X86376Y-33957D01*
X86185Y-34243D02*
X86185Y-33643D01*
X86490Y-33643D01*
X86566Y-33671D01*
X86605Y-33700D01*
X86643Y-33757D01*
X86643Y-33843D01*
X86605Y-33900D01*
X86566Y-33929D01*
X86490Y-33957D01*
X86185Y-33957D01*
X86985Y-33929D02*
X87252Y-33929D01*
X87366Y-34243D02*
X86985Y-34243D01*
X86985Y-33643D01*
X87366Y-33643D01*
X88167Y-34186D02*
X88129Y-34214D01*
X88014Y-34243D01*
X87938Y-34243D01*
X87824Y-34214D01*
X87748Y-34157D01*
X87709Y-34100D01*
X87671Y-33986D01*
X87671Y-33900D01*
X87709Y-33786D01*
X87748Y-33729D01*
X87824Y-33671D01*
X87938Y-33643D01*
X88014Y-33643D01*
X88129Y-33671D01*
X88167Y-33700D01*
X88395Y-33643D02*
X88662Y-34243D01*
X88929Y-33643D01*
X86738Y-26243D02*
X86357Y-26243D01*
X86357Y-25643D01*
X87005Y-26243D02*
X87005Y-25643D01*
X87386Y-26243D02*
X87386Y-25643D01*
X87844Y-26243D01*
X87844Y-25643D01*
X88224Y-26243D02*
X88224Y-25643D01*
X88682Y-26243D02*
X88339Y-25900D01*
X88682Y-25643D02*
X88224Y-25986D01*
G54D14*
X74315Y-22619D02*
X74886Y-22619D01*
X74200Y-22905D02*
X74600Y-21905D01*
X75000Y-22905D01*
X75401Y-22905D02*
X75401Y-21905D01*
X76086Y-22905D01*
X76086Y-21905D01*
X76486Y-21905D02*
X77172Y-21905D01*
X76829Y-22905D02*
X76829Y-21905D01*
X77572Y-22381D02*
X77972Y-22381D01*
X78143Y-22905D02*
X77572Y-22905D01*
X77572Y-21905D01*
X78143Y-21905D01*
X78658Y-22905D02*
X78658Y-21905D01*
X79343Y-22905D01*
X79343Y-21905D01*
X79915Y-22905D02*
X79915Y-21905D01*
X80600Y-22905D01*
X80600Y-21905D01*
X81115Y-22619D02*
X81686Y-22619D01*
X81000Y-22905D02*
X81400Y-21905D01*
X81800Y-22905D01*
X75286Y-23818D02*
X75286Y-24485D01*
X75000Y-23437D02*
X74715Y-24151D01*
X75457Y-24151D01*
X75800Y-23485D02*
X76543Y-23485D01*
X76143Y-23866D01*
X76315Y-23866D01*
X76429Y-23913D01*
X76486Y-23961D01*
X76543Y-24056D01*
X76543Y-24294D01*
X76486Y-24390D01*
X76429Y-24437D01*
X76315Y-24485D01*
X75972Y-24485D01*
X75858Y-24437D01*
X75800Y-24390D01*
X76943Y-23485D02*
X77686Y-23485D01*
X77286Y-23866D01*
X77458Y-23866D01*
X77572Y-23913D01*
X77629Y-23961D01*
X77686Y-24056D01*
X77686Y-24294D01*
X77629Y-24390D01*
X77572Y-24437D01*
X77458Y-24485D01*
X77115Y-24485D01*
X77001Y-24437D01*
X76943Y-24390D01*
X78201Y-24485D02*
X78201Y-23485D01*
X78601Y-24199D01*
X79001Y-23485D01*
X79001Y-24485D01*
X79572Y-24485D02*
X79572Y-23485D01*
X79572Y-23961D02*
X80257Y-23961D01*
X80257Y-24485D02*
X80257Y-23485D01*
X80714Y-23818D02*
X81343Y-23818D01*
X80714Y-24485D01*
X81343Y-24485D01*
X46115Y-21405D02*
X46115Y-20405D01*
X46686Y-21405D02*
X46686Y-20405D01*
X47371Y-21405D01*
X47371Y-20405D01*
X47943Y-21405D02*
X47943Y-20405D01*
X48228Y-20405D01*
X48400Y-20452D01*
X48514Y-20548D01*
X48571Y-20643D01*
X48628Y-20833D01*
X48628Y-20976D01*
X48571Y-21167D01*
X48514Y-21262D01*
X48400Y-21357D01*
X48228Y-21405D01*
X47943Y-21405D01*
X49143Y-21405D02*
X49143Y-20405D01*
X50399Y-21310D02*
X50342Y-21357D01*
X50171Y-21405D01*
X50057Y-21405D01*
X49885Y-21357D01*
X49771Y-21262D01*
X49714Y-21167D01*
X49657Y-20976D01*
X49657Y-20833D01*
X49714Y-20643D01*
X49771Y-20548D01*
X49885Y-20452D01*
X50057Y-20405D01*
X50171Y-20405D01*
X50342Y-20452D01*
X50399Y-20500D01*
X50857Y-21119D02*
X51428Y-21119D01*
X50742Y-21405D02*
X51142Y-20405D01*
X51542Y-21405D01*
X51771Y-20405D02*
X52457Y-20405D01*
X52114Y-21405D02*
X52114Y-20405D01*
X53085Y-20405D02*
X53314Y-20405D01*
X53428Y-20452D01*
X53542Y-20548D01*
X53600Y-20738D01*
X53600Y-21071D01*
X53542Y-21262D01*
X53428Y-21357D01*
X53314Y-21405D01*
X53085Y-21405D01*
X52971Y-21357D01*
X52857Y-21262D01*
X52800Y-21071D01*
X52800Y-20738D01*
X52857Y-20548D01*
X52971Y-20452D01*
X53085Y-20405D01*
X54799Y-21405D02*
X54399Y-20929D01*
X54114Y-21405D02*
X54114Y-20405D01*
X54571Y-20405D01*
X54685Y-20452D01*
X54742Y-20500D01*
X54799Y-20595D01*
X54799Y-20738D01*
X54742Y-20833D01*
X54685Y-20881D01*
X54571Y-20929D01*
X54114Y-20929D01*
X55257Y-21357D02*
X55428Y-21405D01*
X55714Y-21405D01*
X55828Y-21357D01*
X55885Y-21310D01*
X55942Y-21214D01*
X55942Y-21119D01*
X55885Y-21024D01*
X55828Y-20976D01*
X55714Y-20929D01*
X55485Y-20881D01*
X55371Y-20833D01*
X55314Y-20786D01*
X55257Y-20690D01*
X55257Y-20595D01*
X55314Y-20500D01*
X55371Y-20452D01*
X55485Y-20405D01*
X55771Y-20405D01*
X55942Y-20452D01*
X32887Y-40857D02*
X33058Y-40905D01*
X33344Y-40905D01*
X33458Y-40857D01*
X33515Y-40810D01*
X33572Y-40714D01*
X33572Y-40619D01*
X33515Y-40524D01*
X33458Y-40476D01*
X33344Y-40429D01*
X33115Y-40381D01*
X33001Y-40333D01*
X32944Y-40286D01*
X32887Y-40190D01*
X32887Y-40095D01*
X32944Y-40000D01*
X33001Y-39952D01*
X33115Y-39905D01*
X33401Y-39905D01*
X33572Y-39952D01*
X33972Y-39905D02*
X34258Y-40905D01*
X34487Y-40190D01*
X34715Y-40905D01*
X35001Y-39905D01*
X35458Y-40905D02*
X35458Y-39905D01*
X35857Y-39905D02*
X36543Y-39905D01*
X36200Y-40905D02*
X36200Y-39905D01*
X37628Y-40810D02*
X37571Y-40857D01*
X37400Y-40905D01*
X37286Y-40905D01*
X37114Y-40857D01*
X37000Y-40762D01*
X36943Y-40667D01*
X36886Y-40476D01*
X36886Y-40333D01*
X36943Y-40143D01*
X37000Y-40048D01*
X37114Y-39952D01*
X37286Y-39905D01*
X37400Y-39905D01*
X37571Y-39952D01*
X37628Y-40000D01*
X38143Y-40905D02*
X38143Y-39905D01*
X38143Y-40381D02*
X38828Y-40381D01*
X38828Y-40905D02*
X38828Y-39905D01*
X39400Y-40381D02*
X39800Y-40381D01*
X39971Y-40905D02*
X39400Y-40905D01*
X39400Y-39905D01*
X39971Y-39905D01*
X40429Y-40857D02*
X40600Y-40905D01*
X40886Y-40905D01*
X41000Y-40857D01*
X41057Y-40810D01*
X41114Y-40714D01*
X41114Y-40619D01*
X41057Y-40524D01*
X41000Y-40476D01*
X40886Y-40429D01*
X40657Y-40381D01*
X40543Y-40333D01*
X40486Y-40286D01*
X40429Y-40190D01*
X40429Y-40095D01*
X40486Y-40000D01*
X40543Y-39952D01*
X40657Y-39905D01*
X40943Y-39905D01*
X41114Y-39952D01*
G54D11*
X33672Y-32524D02*
X33786Y-32524D01*
X33844Y-32562D01*
X33901Y-32638D01*
X33929Y-32790D01*
X33929Y-33057D01*
X33901Y-33210D01*
X33844Y-33286D01*
X33786Y-33324D01*
X33672Y-33324D01*
X33615Y-33286D01*
X33558Y-33210D01*
X33529Y-33057D01*
X33529Y-32790D01*
X33558Y-32638D01*
X33615Y-32562D01*
X33672Y-32524D01*
X34187Y-32790D02*
X34187Y-33590D01*
X34187Y-32829D02*
X34244Y-32790D01*
X34358Y-32790D01*
X34415Y-32829D01*
X34444Y-32867D01*
X34473Y-32943D01*
X34473Y-33171D01*
X34444Y-33248D01*
X34415Y-33286D01*
X34358Y-33324D01*
X34244Y-33324D01*
X34187Y-33286D01*
X34958Y-33286D02*
X34901Y-33324D01*
X34787Y-33324D01*
X34730Y-33286D01*
X34701Y-33210D01*
X34701Y-32905D01*
X34730Y-32829D01*
X34787Y-32790D01*
X34901Y-32790D01*
X34958Y-32829D01*
X34987Y-32905D01*
X34987Y-32981D01*
X34701Y-33057D01*
X35244Y-32790D02*
X35244Y-33324D01*
X35244Y-32867D02*
X35272Y-32829D01*
X35330Y-32790D01*
X35415Y-32790D01*
X35472Y-32829D01*
X35501Y-32905D01*
X35501Y-33324D01*
X36073Y-33324D02*
X35787Y-33324D01*
X35787Y-32524D01*
X36530Y-33324D02*
X36530Y-32905D01*
X36501Y-32829D01*
X36444Y-32790D01*
X36330Y-32790D01*
X36273Y-32829D01*
X36530Y-33286D02*
X36473Y-33324D01*
X36330Y-33324D01*
X36273Y-33286D01*
X36244Y-33210D01*
X36244Y-33133D01*
X36273Y-33057D01*
X36330Y-33019D01*
X36473Y-33019D01*
X36530Y-32981D01*
X37073Y-32790D02*
X37073Y-33324D01*
X36816Y-32790D02*
X36816Y-33210D01*
X36844Y-33286D01*
X36902Y-33324D01*
X36987Y-33324D01*
X37044Y-33286D01*
X37073Y-33248D01*
X37359Y-32790D02*
X37359Y-33324D01*
X37359Y-32867D02*
X37387Y-32829D01*
X37445Y-32790D01*
X37530Y-32790D01*
X37587Y-32829D01*
X37616Y-32905D01*
X37616Y-33324D01*
X38159Y-33286D02*
X38102Y-33324D01*
X37988Y-33324D01*
X37930Y-33286D01*
X37902Y-33248D01*
X37873Y-33171D01*
X37873Y-32943D01*
X37902Y-32867D01*
X37930Y-32829D01*
X37988Y-32790D01*
X38102Y-32790D01*
X38159Y-32829D01*
X38416Y-33324D02*
X38416Y-32524D01*
X38673Y-33324D02*
X38673Y-32905D01*
X38644Y-32829D01*
X38587Y-32790D01*
X38502Y-32790D01*
X38444Y-32829D01*
X38416Y-32867D01*
X39187Y-33286D02*
X39130Y-33324D01*
X39016Y-33324D01*
X38959Y-33286D01*
X38930Y-33210D01*
X38930Y-32905D01*
X38959Y-32829D01*
X39016Y-32790D01*
X39130Y-32790D01*
X39187Y-32829D01*
X39216Y-32905D01*
X39216Y-32981D01*
X38930Y-33057D01*
X39473Y-33324D02*
X39473Y-32790D01*
X39473Y-32943D02*
X39501Y-32867D01*
X39530Y-32829D01*
X39587Y-32790D01*
X39644Y-32790D01*
X40415Y-32524D02*
X40472Y-32524D01*
X40529Y-32562D01*
X40558Y-32600D01*
X40587Y-32676D01*
X40615Y-32829D01*
X40615Y-33019D01*
X40587Y-33171D01*
X40558Y-33248D01*
X40529Y-33286D01*
X40472Y-33324D01*
X40415Y-33324D01*
X40358Y-33286D01*
X40329Y-33248D01*
X40301Y-33171D01*
X40272Y-33019D01*
X40272Y-32829D01*
X40301Y-32676D01*
X40329Y-32600D01*
X40358Y-32562D01*
X40415Y-32524D01*
X40872Y-33248D02*
X40900Y-33286D01*
X40872Y-33324D01*
X40843Y-33286D01*
X40872Y-33248D01*
X40872Y-33324D01*
X41472Y-33324D02*
X41129Y-33324D01*
X41301Y-33324D02*
X41301Y-32524D01*
X41244Y-32638D01*
X41186Y-32714D01*
X41129Y-32752D01*
X33173Y-34145D02*
X33259Y-34183D01*
X33287Y-34221D01*
X33316Y-34297D01*
X33316Y-34411D01*
X33287Y-34488D01*
X33259Y-34526D01*
X33201Y-34564D01*
X32973Y-34564D01*
X32973Y-33764D01*
X33173Y-33764D01*
X33230Y-33802D01*
X33259Y-33840D01*
X33287Y-33916D01*
X33287Y-33992D01*
X33259Y-34069D01*
X33230Y-34107D01*
X33173Y-34145D01*
X32973Y-34145D01*
X33573Y-34564D02*
X33573Y-33764D01*
X34173Y-33802D02*
X34116Y-33764D01*
X34030Y-33764D01*
X33945Y-33802D01*
X33887Y-33878D01*
X33859Y-33954D01*
X33830Y-34107D01*
X33830Y-34221D01*
X33859Y-34373D01*
X33887Y-34450D01*
X33945Y-34526D01*
X34030Y-34564D01*
X34087Y-34564D01*
X34173Y-34526D01*
X34202Y-34488D01*
X34202Y-34221D01*
X34087Y-34221D01*
X35259Y-34488D02*
X35230Y-34526D01*
X35144Y-34564D01*
X35087Y-34564D01*
X35002Y-34526D01*
X34944Y-34450D01*
X34916Y-34373D01*
X34887Y-34221D01*
X34887Y-34107D01*
X34916Y-33954D01*
X34944Y-33878D01*
X35002Y-33802D01*
X35087Y-33764D01*
X35144Y-33764D01*
X35230Y-33802D01*
X35259Y-33840D01*
X35602Y-34564D02*
X35544Y-34526D01*
X35516Y-34488D01*
X35487Y-34411D01*
X35487Y-34183D01*
X35516Y-34107D01*
X35544Y-34069D01*
X35602Y-34030D01*
X35687Y-34030D01*
X35744Y-34069D01*
X35773Y-34107D01*
X35802Y-34183D01*
X35802Y-34411D01*
X35773Y-34488D01*
X35744Y-34526D01*
X35687Y-34564D01*
X35602Y-34564D01*
X36059Y-34564D02*
X36059Y-34030D01*
X36059Y-34183D02*
X36087Y-34107D01*
X36116Y-34069D01*
X36173Y-34030D01*
X36230Y-34030D01*
X36658Y-34526D02*
X36601Y-34564D01*
X36487Y-34564D01*
X36430Y-34526D01*
X36401Y-34450D01*
X36401Y-34145D01*
X36430Y-34069D01*
X36487Y-34030D01*
X36601Y-34030D01*
X36658Y-34069D01*
X36687Y-34145D01*
X36687Y-34221D01*
X36401Y-34297D01*
X37401Y-34564D02*
X37401Y-33764D01*
X37401Y-34069D02*
X37458Y-34030D01*
X37572Y-34030D01*
X37629Y-34069D01*
X37658Y-34107D01*
X37687Y-34183D01*
X37687Y-34411D01*
X37658Y-34488D01*
X37629Y-34526D01*
X37572Y-34564D01*
X37458Y-34564D01*
X37401Y-34526D01*
X38030Y-34564D02*
X37972Y-34526D01*
X37944Y-34488D01*
X37915Y-34411D01*
X37915Y-34183D01*
X37944Y-34107D01*
X37972Y-34069D01*
X38030Y-34030D01*
X38115Y-34030D01*
X38172Y-34069D01*
X38201Y-34107D01*
X38230Y-34183D01*
X38230Y-34411D01*
X38201Y-34488D01*
X38172Y-34526D01*
X38115Y-34564D01*
X38030Y-34564D01*
X38744Y-34564D02*
X38744Y-34145D01*
X38715Y-34069D01*
X38658Y-34030D01*
X38544Y-34030D01*
X38487Y-34069D01*
X38744Y-34526D02*
X38687Y-34564D01*
X38544Y-34564D01*
X38487Y-34526D01*
X38458Y-34450D01*
X38458Y-34373D01*
X38487Y-34297D01*
X38544Y-34259D01*
X38687Y-34259D01*
X38744Y-34221D01*
X39030Y-34564D02*
X39030Y-34030D01*
X39030Y-34183D02*
X39058Y-34107D01*
X39087Y-34069D01*
X39144Y-34030D01*
X39201Y-34030D01*
X39658Y-34564D02*
X39658Y-33764D01*
X39658Y-34526D02*
X39601Y-34564D01*
X39487Y-34564D01*
X39429Y-34526D01*
X39401Y-34488D01*
X39372Y-34411D01*
X39372Y-34183D01*
X39401Y-34107D01*
X39429Y-34069D01*
X39487Y-34030D01*
X39601Y-34030D01*
X39658Y-34069D01*
X40401Y-34564D02*
X40401Y-34030D01*
X40401Y-34183D02*
X40429Y-34107D01*
X40458Y-34069D01*
X40515Y-34030D01*
X40572Y-34030D01*
X41000Y-34526D02*
X40943Y-34564D01*
X40829Y-34564D01*
X40772Y-34526D01*
X40743Y-34450D01*
X40743Y-34145D01*
X40772Y-34069D01*
X40829Y-34030D01*
X40943Y-34030D01*
X41000Y-34069D01*
X41029Y-34145D01*
X41029Y-34221D01*
X40743Y-34297D01*
X41229Y-34030D02*
X41372Y-34564D01*
X41514Y-34030D01*
X41857Y-33764D02*
X41914Y-33764D01*
X41971Y-33802D01*
X42000Y-33840D01*
X42029Y-33916D01*
X42057Y-34069D01*
X42057Y-34259D01*
X42029Y-34411D01*
X42000Y-34488D01*
X41971Y-34526D01*
X41914Y-34564D01*
X41857Y-34564D01*
X41800Y-34526D01*
X41771Y-34488D01*
X41743Y-34411D01*
X41714Y-34259D01*
X41714Y-34069D01*
X41743Y-33916D01*
X41771Y-33840D01*
X41800Y-33802D01*
X41857Y-33764D01*
X30771Y-35728D02*
X30742Y-35766D01*
X30656Y-35804D01*
X30599Y-35804D01*
X30514Y-35766D01*
X30456Y-35690D01*
X30428Y-35613D01*
X30399Y-35461D01*
X30399Y-35347D01*
X30428Y-35194D01*
X30456Y-35118D01*
X30514Y-35042D01*
X30599Y-35004D01*
X30656Y-35004D01*
X30742Y-35042D01*
X30771Y-35080D01*
X31028Y-35804D02*
X31028Y-35270D01*
X31028Y-35423D02*
X31056Y-35347D01*
X31085Y-35309D01*
X31142Y-35270D01*
X31199Y-35270D01*
X31627Y-35766D02*
X31570Y-35804D01*
X31456Y-35804D01*
X31399Y-35766D01*
X31370Y-35690D01*
X31370Y-35385D01*
X31399Y-35309D01*
X31456Y-35270D01*
X31570Y-35270D01*
X31627Y-35309D01*
X31656Y-35385D01*
X31656Y-35461D01*
X31370Y-35537D01*
X32170Y-35804D02*
X32170Y-35385D01*
X32141Y-35309D01*
X32084Y-35270D01*
X31970Y-35270D01*
X31913Y-35309D01*
X32170Y-35766D02*
X32113Y-35804D01*
X31970Y-35804D01*
X31913Y-35766D01*
X31884Y-35690D01*
X31884Y-35613D01*
X31913Y-35537D01*
X31970Y-35499D01*
X32113Y-35499D01*
X32170Y-35461D01*
X32370Y-35270D02*
X32599Y-35270D01*
X32456Y-35004D02*
X32456Y-35690D01*
X32484Y-35766D01*
X32542Y-35804D01*
X32599Y-35804D01*
X32799Y-35804D02*
X32799Y-35270D01*
X32799Y-35004D02*
X32770Y-35042D01*
X32799Y-35080D01*
X32827Y-35042D01*
X32799Y-35004D01*
X32799Y-35080D01*
X33028Y-35270D02*
X33171Y-35804D01*
X33313Y-35270D01*
X33770Y-35766D02*
X33713Y-35804D01*
X33599Y-35804D01*
X33542Y-35766D01*
X33513Y-35690D01*
X33513Y-35385D01*
X33542Y-35309D01*
X33599Y-35270D01*
X33713Y-35270D01*
X33770Y-35309D01*
X33799Y-35385D01*
X33799Y-35461D01*
X33513Y-35537D01*
X34856Y-35728D02*
X34827Y-35766D01*
X34741Y-35804D01*
X34684Y-35804D01*
X34599Y-35766D01*
X34541Y-35690D01*
X34513Y-35613D01*
X34484Y-35461D01*
X34484Y-35347D01*
X34513Y-35194D01*
X34541Y-35118D01*
X34599Y-35042D01*
X34684Y-35004D01*
X34741Y-35004D01*
X34827Y-35042D01*
X34856Y-35080D01*
X35199Y-35804D02*
X35141Y-35766D01*
X35113Y-35728D01*
X35084Y-35651D01*
X35084Y-35423D01*
X35113Y-35347D01*
X35141Y-35309D01*
X35199Y-35270D01*
X35284Y-35270D01*
X35341Y-35309D01*
X35370Y-35347D01*
X35399Y-35423D01*
X35399Y-35651D01*
X35370Y-35728D01*
X35341Y-35766D01*
X35284Y-35804D01*
X35199Y-35804D01*
X35656Y-35804D02*
X35656Y-35270D01*
X35656Y-35347D02*
X35684Y-35309D01*
X35742Y-35270D01*
X35827Y-35270D01*
X35884Y-35309D01*
X35913Y-35385D01*
X35913Y-35804D01*
X35913Y-35385D02*
X35942Y-35309D01*
X35999Y-35270D01*
X36084Y-35270D01*
X36142Y-35309D01*
X36170Y-35385D01*
X36170Y-35804D01*
X36456Y-35804D02*
X36456Y-35270D01*
X36456Y-35347D02*
X36484Y-35309D01*
X36542Y-35270D01*
X36627Y-35270D01*
X36684Y-35309D01*
X36713Y-35385D01*
X36713Y-35804D01*
X36713Y-35385D02*
X36742Y-35309D01*
X36799Y-35270D01*
X36884Y-35270D01*
X36942Y-35309D01*
X36970Y-35385D01*
X36970Y-35804D01*
X37342Y-35804D02*
X37284Y-35766D01*
X37256Y-35728D01*
X37227Y-35651D01*
X37227Y-35423D01*
X37256Y-35347D01*
X37284Y-35309D01*
X37342Y-35270D01*
X37427Y-35270D01*
X37484Y-35309D01*
X37513Y-35347D01*
X37542Y-35423D01*
X37542Y-35651D01*
X37513Y-35728D01*
X37484Y-35766D01*
X37427Y-35804D01*
X37342Y-35804D01*
X37799Y-35270D02*
X37799Y-35804D01*
X37799Y-35347D02*
X37827Y-35309D01*
X37885Y-35270D01*
X37970Y-35270D01*
X38027Y-35309D01*
X38056Y-35385D01*
X38056Y-35804D01*
X38313Y-35766D02*
X38370Y-35804D01*
X38485Y-35804D01*
X38542Y-35766D01*
X38570Y-35690D01*
X38570Y-35651D01*
X38542Y-35575D01*
X38485Y-35537D01*
X38399Y-35537D01*
X38342Y-35499D01*
X38313Y-35423D01*
X38313Y-35385D01*
X38342Y-35309D01*
X38399Y-35270D01*
X38485Y-35270D01*
X38542Y-35309D01*
X39542Y-35804D02*
X39542Y-35385D01*
X39513Y-35309D01*
X39456Y-35270D01*
X39342Y-35270D01*
X39285Y-35309D01*
X39542Y-35766D02*
X39485Y-35804D01*
X39342Y-35804D01*
X39285Y-35766D01*
X39256Y-35690D01*
X39256Y-35613D01*
X39285Y-35537D01*
X39342Y-35499D01*
X39485Y-35499D01*
X39542Y-35461D01*
X39828Y-35270D02*
X39828Y-35804D01*
X39828Y-35347D02*
X39856Y-35309D01*
X39914Y-35270D01*
X39999Y-35270D01*
X40056Y-35309D01*
X40085Y-35385D01*
X40085Y-35804D01*
X40628Y-35804D02*
X40628Y-35004D01*
X40628Y-35766D02*
X40571Y-35804D01*
X40457Y-35804D01*
X40399Y-35766D01*
X40371Y-35728D01*
X40342Y-35651D01*
X40342Y-35423D01*
X40371Y-35347D01*
X40399Y-35309D01*
X40457Y-35270D01*
X40571Y-35270D01*
X40628Y-35309D01*
X41314Y-35270D02*
X41428Y-35804D01*
X41542Y-35423D01*
X41657Y-35804D01*
X41771Y-35270D01*
X42000Y-35804D02*
X42000Y-35004D01*
X42257Y-35804D02*
X42257Y-35385D01*
X42228Y-35309D01*
X42171Y-35270D01*
X42086Y-35270D01*
X42028Y-35309D01*
X42000Y-35347D01*
X42800Y-35804D02*
X42800Y-35385D01*
X42771Y-35309D01*
X42714Y-35270D01*
X42600Y-35270D01*
X42543Y-35309D01*
X42800Y-35766D02*
X42743Y-35804D01*
X42600Y-35804D01*
X42543Y-35766D01*
X42514Y-35690D01*
X42514Y-35613D01*
X42543Y-35537D01*
X42600Y-35499D01*
X42743Y-35499D01*
X42800Y-35461D01*
X43000Y-35270D02*
X43229Y-35270D01*
X43086Y-35004D02*
X43086Y-35690D01*
X43114Y-35766D01*
X43172Y-35804D01*
X43229Y-35804D01*
X43429Y-35270D02*
X43429Y-35804D01*
X43429Y-35347D02*
X43457Y-35309D01*
X43515Y-35270D01*
X43600Y-35270D01*
X43657Y-35309D01*
X43686Y-35385D01*
X43686Y-35804D01*
X44058Y-35804D02*
X44000Y-35766D01*
X43972Y-35728D01*
X43943Y-35651D01*
X43943Y-35423D01*
X43972Y-35347D01*
X44000Y-35309D01*
X44058Y-35270D01*
X44143Y-35270D01*
X44200Y-35309D01*
X44229Y-35347D01*
X44258Y-35423D01*
X44258Y-35651D01*
X44229Y-35728D01*
X44200Y-35766D01*
X44143Y-35804D01*
X44058Y-35804D01*
X44429Y-35270D02*
X44658Y-35270D01*
X44515Y-35004D02*
X44515Y-35690D01*
X44543Y-35766D01*
X44601Y-35804D01*
X44658Y-35804D01*
X59000Y-23000D02*
X51000Y-23000D01*
X51000Y-23000D02*
X51000Y-22000D01*
X51000Y-22000D02*
X59000Y-22000D01*
X59000Y-22000D02*
X59000Y-23000D01*
X58000Y-22000D02*
X58000Y-23000D01*
X51000Y-23000D02*
X43000Y-23000D01*
X43000Y-23000D02*
X43000Y-22000D01*
X43000Y-22000D02*
X51000Y-22000D01*
X51000Y-22000D02*
X51000Y-23000D01*
X50000Y-22000D02*
X50000Y-23000D01*
G54D15*
X87750Y-62000D02*
X88500Y-62000D01*
X78500Y-62000D02*
X79250Y-62000D01*
X87750Y-61000D02*
X87750Y-63000D01*
X87750Y-63000D02*
X79250Y-63000D01*
X79250Y-63000D02*
X79250Y-61000D01*
X79250Y-61000D02*
X87750Y-61000D01*
G54D10*
X69100Y-35300D02*
X69100Y-34300D01*
X69100Y-34300D02*
X72100Y-34300D01*
X72100Y-34300D02*
X72100Y-35300D01*
X72100Y-35300D02*
X69100Y-35300D01*
X70100Y-34300D02*
X70100Y-35300D01*
X69100Y-36900D02*
X69100Y-35900D01*
X69100Y-35900D02*
X72100Y-35900D01*
X72100Y-35900D02*
X72100Y-36900D01*
X72100Y-36900D02*
X69100Y-36900D01*
X70100Y-35900D02*
X70100Y-36900D01*
X69100Y-33700D02*
X69100Y-32700D01*
X69100Y-32700D02*
X72100Y-32700D01*
X72100Y-32700D02*
X72100Y-33700D01*
X72100Y-33700D02*
X69100Y-33700D01*
X70100Y-32700D02*
X70100Y-33700D01*
G54D11*
X37000Y-68000D02*
X37000Y-67000D01*
X37000Y-67000D02*
X43000Y-67000D01*
X43000Y-67000D02*
X43000Y-68000D01*
X43000Y-68000D02*
X37000Y-68000D01*
X38000Y-68000D02*
X38000Y-67000D01*
X47500Y-68000D02*
X47500Y-67000D01*
X47500Y-67000D02*
X53500Y-67000D01*
X53500Y-67000D02*
X53500Y-68000D01*
X53500Y-68000D02*
X47500Y-68000D01*
X48500Y-68000D02*
X48500Y-67000D01*
G54D16*
X89120Y-28750D02*
X89120Y-27250D01*
G54D17*
X88807Y-28000D02*
X88793Y-28137D01*
X88753Y-28269D01*
X88688Y-28391D01*
X88601Y-28498D01*
X88495Y-28586D01*
X88373Y-28651D01*
X88242Y-28692D01*
X88104Y-28706D01*
X87968Y-28694D01*
X87836Y-28655D01*
X87713Y-28591D01*
X87606Y-28505D01*
X87517Y-28399D01*
X87451Y-28278D01*
X87409Y-28146D01*
X87394Y-28009D01*
X87405Y-27873D01*
X87443Y-27740D01*
X87506Y-27618D01*
X87592Y-27509D01*
X87697Y-27420D01*
X87817Y-27353D01*
X87949Y-27310D01*
X88086Y-27294D01*
X88222Y-27304D01*
X88355Y-27341D01*
X88478Y-27404D01*
X88587Y-27489D01*
X88677Y-27593D01*
X88745Y-27713D01*
X88789Y-27844D01*
X88806Y-27981D01*
X88807Y-28000D01*
G54D12*
X89099Y-27250D02*
X89030Y-27166D01*
X88954Y-27088D01*
X88871Y-27017D01*
X88782Y-26953D01*
X88688Y-26898D01*
X88590Y-26851D01*
X88488Y-26812D01*
X88383Y-26783D01*
X88276Y-26763D01*
X88167Y-26752D01*
X88059Y-26751D01*
X87950Y-26760D01*
X87843Y-26777D01*
X87737Y-26804D01*
X87634Y-26841D01*
X87535Y-26886D01*
X87440Y-26939D01*
X87350Y-27001D01*
X87266Y-27070D01*
X87188Y-27146D01*
X87117Y-27229D01*
X87053Y-27318D01*
X86998Y-27412D01*
X86951Y-27510D01*
X86912Y-27612D01*
X86883Y-27717D01*
X86863Y-27824D01*
X86852Y-27933D01*
X86851Y-28041D01*
X86860Y-28150D01*
X86877Y-28257D01*
X86904Y-28363D01*
X86941Y-28466D01*
X86986Y-28565D01*
X87039Y-28660D01*
X87101Y-28750D01*
X87170Y-28834D01*
X87246Y-28912D01*
X87329Y-28983D01*
X87418Y-29047D01*
X87512Y-29102D01*
X87610Y-29149D01*
X87712Y-29188D01*
X87817Y-29217D01*
X87924Y-29237D01*
X88033Y-29248D01*
X88141Y-29249D01*
X88250Y-29240D01*
X88357Y-29223D01*
X88463Y-29196D01*
X88566Y-29159D01*
X88665Y-29114D01*
X88760Y-29061D01*
X88850Y-28999D01*
X88934Y-28930D01*
X89012Y-28854D01*
X89083Y-28771D01*
X89099Y-28750D01*
G54D10*
X88100Y-27550D02*
X88061Y-27552D01*
X88022Y-27557D01*
X87984Y-27566D01*
X87947Y-27578D01*
X87910Y-27593D01*
X87876Y-27611D01*
X87842Y-27632D01*
X87811Y-27656D01*
X87782Y-27682D01*
X87756Y-27711D01*
X87732Y-27742D01*
X87711Y-27776D01*
X87693Y-27810D01*
X87678Y-27847D01*
X87666Y-27884D01*
X87657Y-27922D01*
X87652Y-27961D01*
X87650Y-28000D01*
X88100Y-28450D02*
X88139Y-28448D01*
X88178Y-28443D01*
X88216Y-28434D01*
X88253Y-28422D01*
X88290Y-28407D01*
X88325Y-28389D01*
X88358Y-28368D01*
X88389Y-28344D01*
X88418Y-28318D01*
X88444Y-28289D01*
X88468Y-28258D01*
X88489Y-28224D01*
X88507Y-28190D01*
X88522Y-28153D01*
X88534Y-28116D01*
X88543Y-28078D01*
X88548Y-28039D01*
X88550Y-28000D01*
X88100Y-27350D02*
X88044Y-27353D01*
X87988Y-27360D01*
X87932Y-27373D01*
X87878Y-27390D01*
X87826Y-27411D01*
X87776Y-27438D01*
X87728Y-27468D01*
X87683Y-27503D01*
X87641Y-27541D01*
X87603Y-27583D01*
X87568Y-27628D01*
X87538Y-27676D01*
X87511Y-27726D01*
X87490Y-27778D01*
X87473Y-27832D01*
X87460Y-27888D01*
X87453Y-27944D01*
X87450Y-28000D01*
X88100Y-28650D02*
X88156Y-28647D01*
X88212Y-28640D01*
X88268Y-28627D01*
X88322Y-28610D01*
X88374Y-28589D01*
X88425Y-28562D01*
X88472Y-28532D01*
X88517Y-28497D01*
X88559Y-28459D01*
X88597Y-28417D01*
X88632Y-28372D01*
X88662Y-28324D01*
X88689Y-28274D01*
X88710Y-28222D01*
X88727Y-28168D01*
X88740Y-28112D01*
X88747Y-28056D01*
X88750Y-28000D01*
X88100Y-27150D02*
X88026Y-27154D01*
X87953Y-27163D01*
X87881Y-27179D01*
X87810Y-27202D01*
X87741Y-27230D01*
X87676Y-27264D01*
X87613Y-27304D01*
X87554Y-27349D01*
X87499Y-27399D01*
X87449Y-27454D01*
X87404Y-27513D01*
X87364Y-27576D01*
X87330Y-27641D01*
X87302Y-27710D01*
X87279Y-27781D01*
X87263Y-27853D01*
X87254Y-27926D01*
X87250Y-28000D01*
X88100Y-28850D02*
X88174Y-28846D01*
X88247Y-28837D01*
X88319Y-28821D01*
X88390Y-28798D01*
X88459Y-28770D01*
X88525Y-28736D01*
X88587Y-28696D01*
X88646Y-28651D01*
X88701Y-28601D01*
X88751Y-28546D01*
X88796Y-28487D01*
X88836Y-28424D01*
X88870Y-28359D01*
X88898Y-28290D01*
X88921Y-28219D01*
X88937Y-28147D01*
X88946Y-28074D01*
X88950Y-28000D01*
G54D16*
X86880Y-31250D02*
X86880Y-32750D01*
G54D17*
X88607Y-32000D02*
X88593Y-32137D01*
X88553Y-32269D01*
X88488Y-32391D01*
X88401Y-32498D01*
X88295Y-32586D01*
X88173Y-32651D01*
X88042Y-32692D01*
X87904Y-32706D01*
X87768Y-32694D01*
X87636Y-32655D01*
X87513Y-32591D01*
X87406Y-32505D01*
X87317Y-32399D01*
X87251Y-32278D01*
X87209Y-32146D01*
X87194Y-32009D01*
X87205Y-31873D01*
X87243Y-31740D01*
X87306Y-31618D01*
X87392Y-31509D01*
X87497Y-31420D01*
X87617Y-31353D01*
X87749Y-31310D01*
X87886Y-31294D01*
X88022Y-31304D01*
X88155Y-31341D01*
X88278Y-31404D01*
X88387Y-31489D01*
X88477Y-31593D01*
X88545Y-31713D01*
X88589Y-31844D01*
X88606Y-31981D01*
X88607Y-32000D01*
G54D12*
X86901Y-32750D02*
X86970Y-32834D01*
X87046Y-32912D01*
X87129Y-32983D01*
X87218Y-33047D01*
X87312Y-33102D01*
X87410Y-33149D01*
X87512Y-33188D01*
X87617Y-33217D01*
X87724Y-33237D01*
X87833Y-33248D01*
X87941Y-33249D01*
X88050Y-33240D01*
X88157Y-33223D01*
X88263Y-33196D01*
X88366Y-33159D01*
X88465Y-33114D01*
X88560Y-33061D01*
X88650Y-32999D01*
X88734Y-32930D01*
X88812Y-32854D01*
X88883Y-32771D01*
X88947Y-32682D01*
X89002Y-32588D01*
X89049Y-32490D01*
X89088Y-32388D01*
X89117Y-32283D01*
X89137Y-32176D01*
X89148Y-32067D01*
X89149Y-31959D01*
X89140Y-31850D01*
X89123Y-31743D01*
X89096Y-31637D01*
X89059Y-31534D01*
X89014Y-31435D01*
X88961Y-31340D01*
X88899Y-31250D01*
X88830Y-31166D01*
X88754Y-31088D01*
X88671Y-31017D01*
X88582Y-30953D01*
X88488Y-30898D01*
X88390Y-30851D01*
X88288Y-30812D01*
X88183Y-30783D01*
X88076Y-30763D01*
X87967Y-30752D01*
X87859Y-30751D01*
X87750Y-30760D01*
X87643Y-30777D01*
X87537Y-30804D01*
X87434Y-30841D01*
X87335Y-30886D01*
X87240Y-30939D01*
X87150Y-31001D01*
X87066Y-31070D01*
X86988Y-31146D01*
X86917Y-31229D01*
X86901Y-31250D01*
G54D10*
X87900Y-32450D02*
X87939Y-32448D01*
X87978Y-32443D01*
X88016Y-32434D01*
X88053Y-32422D01*
X88090Y-32407D01*
X88125Y-32389D01*
X88158Y-32368D01*
X88189Y-32344D01*
X88218Y-32318D01*
X88244Y-32289D01*
X88268Y-32258D01*
X88289Y-32224D01*
X88307Y-32190D01*
X88322Y-32153D01*
X88334Y-32116D01*
X88343Y-32078D01*
X88348Y-32039D01*
X88350Y-32000D01*
X87900Y-31550D02*
X87861Y-31552D01*
X87822Y-31557D01*
X87784Y-31566D01*
X87747Y-31578D01*
X87710Y-31593D01*
X87676Y-31611D01*
X87642Y-31632D01*
X87611Y-31656D01*
X87582Y-31682D01*
X87556Y-31711D01*
X87532Y-31742D01*
X87511Y-31776D01*
X87493Y-31810D01*
X87478Y-31847D01*
X87466Y-31884D01*
X87457Y-31922D01*
X87452Y-31961D01*
X87450Y-32000D01*
X87900Y-32650D02*
X87956Y-32647D01*
X88012Y-32640D01*
X88068Y-32627D01*
X88122Y-32610D01*
X88174Y-32589D01*
X88225Y-32562D01*
X88272Y-32532D01*
X88317Y-32497D01*
X88359Y-32459D01*
X88397Y-32417D01*
X88432Y-32372D01*
X88462Y-32324D01*
X88489Y-32274D01*
X88510Y-32222D01*
X88527Y-32168D01*
X88540Y-32112D01*
X88547Y-32056D01*
X88550Y-32000D01*
X87900Y-31350D02*
X87844Y-31353D01*
X87788Y-31360D01*
X87732Y-31373D01*
X87678Y-31390D01*
X87626Y-31411D01*
X87576Y-31438D01*
X87528Y-31468D01*
X87483Y-31503D01*
X87441Y-31541D01*
X87403Y-31583D01*
X87368Y-31628D01*
X87338Y-31676D01*
X87311Y-31726D01*
X87290Y-31778D01*
X87273Y-31832D01*
X87260Y-31888D01*
X87253Y-31944D01*
X87250Y-32000D01*
X87900Y-32850D02*
X87974Y-32846D01*
X88047Y-32837D01*
X88119Y-32821D01*
X88190Y-32798D01*
X88259Y-32770D01*
X88325Y-32736D01*
X88387Y-32696D01*
X88446Y-32651D01*
X88501Y-32601D01*
X88551Y-32546D01*
X88596Y-32487D01*
X88636Y-32424D01*
X88670Y-32359D01*
X88698Y-32290D01*
X88721Y-32219D01*
X88737Y-32147D01*
X88746Y-32074D01*
X88750Y-32000D01*
X87900Y-31150D02*
X87826Y-31154D01*
X87753Y-31163D01*
X87681Y-31179D01*
X87610Y-31202D01*
X87541Y-31230D01*
X87476Y-31264D01*
X87413Y-31304D01*
X87354Y-31349D01*
X87299Y-31399D01*
X87249Y-31454D01*
X87204Y-31513D01*
X87164Y-31576D01*
X87130Y-31641D01*
X87102Y-31710D01*
X87079Y-31781D01*
X87063Y-31853D01*
X87054Y-31926D01*
X87050Y-32000D01*
G54D13*
X75000Y-48500D02*
X74971Y-48791D01*
X74886Y-49071D01*
X74749Y-49330D01*
X74564Y-49556D01*
X74338Y-49743D01*
X74081Y-49882D01*
X73801Y-49969D01*
X73510Y-49999D01*
X73219Y-49973D01*
X72939Y-49890D01*
X72679Y-49755D01*
X72451Y-49571D01*
X72263Y-49347D01*
X72122Y-49090D01*
X72033Y-48811D01*
X72001Y-48520D01*
X72025Y-48230D01*
X72106Y-47948D01*
X72240Y-47688D01*
X72421Y-47459D01*
X72644Y-47269D01*
X72900Y-47126D01*
X73178Y-47035D01*
X73469Y-47001D01*
X73760Y-47023D01*
X74042Y-47102D01*
X74303Y-47234D01*
X74534Y-47414D01*
X74725Y-47636D01*
X74870Y-47890D01*
X74962Y-48168D01*
X74999Y-48459D01*
X75000Y-48500D01*
X84000Y-50500D02*
X83971Y-50791D01*
X83886Y-51071D01*
X83749Y-51330D01*
X83564Y-51556D01*
X83338Y-51743D01*
X83081Y-51882D01*
X82801Y-51969D01*
X82510Y-51999D01*
X82219Y-51973D01*
X81939Y-51890D01*
X81679Y-51755D01*
X81451Y-51571D01*
X81263Y-51347D01*
X81122Y-51090D01*
X81033Y-50811D01*
X81001Y-50520D01*
X81025Y-50230D01*
X81106Y-49948D01*
X81240Y-49688D01*
X81421Y-49459D01*
X81644Y-49269D01*
X81900Y-49126D01*
X82178Y-49035D01*
X82469Y-49001D01*
X82760Y-49023D01*
X83042Y-49102D01*
X83303Y-49234D01*
X83534Y-49414D01*
X83725Y-49636D01*
X83870Y-49890D01*
X83962Y-50168D01*
X83999Y-50459D01*
X84000Y-50500D01*
X53500Y-35000D02*
X53500Y-50000D01*
X53500Y-50000D02*
X51500Y-50000D01*
X51500Y-50000D02*
X51500Y-35000D01*
X51500Y-35000D02*
X53500Y-35000D01*
X53000Y-35000D02*
X53000Y-35500D01*
X53000Y-35500D02*
X52000Y-35500D01*
X52000Y-35500D02*
X52000Y-35000D01*
X32500Y-56500D02*
X47500Y-56500D01*
X47500Y-56500D02*
X47500Y-58500D01*
X47500Y-58500D02*
X32500Y-58500D01*
X32500Y-58500D02*
X32500Y-56500D01*
X32500Y-57000D02*
X33000Y-57000D01*
X33000Y-57000D02*
X33000Y-58000D01*
X33000Y-58000D02*
X32500Y-58000D01*
X51000Y-61000D02*
X51500Y-61000D01*
X51500Y-61000D02*
X51500Y-62000D01*
X51500Y-62000D02*
X51000Y-62000D01*
X51000Y-60500D02*
X61000Y-60500D01*
X61000Y-60500D02*
X61000Y-62500D01*
X61000Y-62500D02*
X51000Y-62500D01*
X51000Y-62500D02*
X51000Y-60500D01*
G54D11*
X85000Y-53500D02*
X88000Y-53500D01*
X88000Y-53500D02*
X88000Y-54500D01*
X88000Y-54500D02*
X85000Y-54500D01*
X85000Y-54500D02*
X85000Y-53500D01*
X87750Y-53500D02*
X87750Y-54500D01*
X87500Y-54500D02*
X87500Y-53500D01*
X85000Y-54000D02*
X84500Y-54000D01*
X88000Y-54000D02*
X88500Y-54000D01*
X88500Y-64500D02*
X88200Y-64500D01*
X88200Y-64500D02*
X88200Y-64100D01*
X88200Y-64100D02*
X85800Y-64100D01*
X85800Y-64100D02*
X85800Y-64500D01*
X85800Y-64500D02*
X85500Y-64500D01*
X85800Y-64500D02*
X85800Y-64900D01*
X85800Y-64900D02*
X88200Y-64900D01*
X88200Y-64900D02*
X88200Y-64500D01*
X88000Y-64100D02*
X88000Y-64900D01*
X87900Y-64900D02*
X87900Y-64100D01*
X76400Y-34900D02*
X73600Y-34900D01*
X73600Y-34900D02*
X73600Y-34100D01*
X73600Y-34100D02*
X76400Y-34100D01*
X76400Y-34100D02*
X76400Y-34900D01*
X76400Y-34700D02*
X76200Y-34900D01*
X76900Y-59400D02*
X74100Y-59400D01*
X74100Y-59400D02*
X74100Y-58600D01*
X74100Y-58600D02*
X76900Y-58600D01*
X76900Y-58600D02*
X76900Y-59400D01*
X76900Y-59200D02*
X76700Y-59400D01*
X66600Y-22100D02*
X69400Y-22100D01*
X69400Y-22100D02*
X69400Y-22900D01*
X69400Y-22900D02*
X66600Y-22900D01*
X66600Y-22900D02*
X66600Y-22100D01*
X66600Y-22300D02*
X66800Y-22100D01*
X85980Y-35500D02*
X84000Y-35500D01*
X84000Y-35500D02*
X84000Y-34500D01*
X84000Y-34500D02*
X86000Y-34500D01*
X86000Y-34500D02*
X86000Y-35500D01*
X86000Y-35250D02*
X85750Y-35500D01*
X71100Y-51100D02*
X73900Y-51100D01*
X73900Y-51100D02*
X73900Y-51900D01*
X73900Y-51900D02*
X71100Y-51900D01*
X71100Y-51900D02*
X71100Y-51100D01*
X71100Y-51300D02*
X71300Y-51100D01*
X85980Y-33500D02*
X84000Y-33500D01*
X84000Y-33500D02*
X84000Y-32500D01*
X84000Y-32500D02*
X86000Y-32500D01*
X86000Y-32500D02*
X86000Y-33500D01*
X86000Y-33250D02*
X85750Y-33500D01*
X60500Y-68000D02*
X60500Y-67000D01*
X60500Y-67000D02*
X66500Y-67000D01*
X66500Y-67000D02*
X66500Y-68000D01*
X66500Y-68000D02*
X60500Y-68000D01*
X61500Y-68000D02*
X61500Y-67000D01*
X70250Y-48500D02*
X70216Y-48839D01*
X70117Y-49166D01*
X69957Y-49468D01*
X69741Y-49733D01*
X69478Y-49950D01*
X69178Y-50113D01*
X68851Y-50214D01*
X68512Y-50249D01*
X68173Y-50219D01*
X67845Y-50122D01*
X67542Y-49964D01*
X67276Y-49750D01*
X67057Y-49488D01*
X66892Y-49189D01*
X66789Y-48863D01*
X66751Y-48524D01*
X66779Y-48185D01*
X66873Y-47856D01*
X67030Y-47553D01*
X67242Y-47285D01*
X67502Y-47063D01*
X67800Y-46897D01*
X68125Y-46791D01*
X68464Y-46751D01*
X68803Y-46777D01*
X69132Y-46869D01*
X69437Y-47023D01*
X69706Y-47233D01*
X69930Y-47492D01*
X70098Y-47789D01*
X70206Y-48113D01*
X70249Y-48452D01*
X70250Y-48500D01*
X83600Y-42900D02*
X83600Y-40100D01*
X83600Y-40100D02*
X84400Y-40100D01*
X84400Y-40100D02*
X84400Y-42900D01*
X84400Y-42900D02*
X83600Y-42900D01*
X83800Y-42900D02*
X83600Y-42700D01*
X68500Y-53500D02*
X68500Y-54000D01*
X68500Y-54000D02*
X68000Y-54000D01*
X68000Y-54000D02*
X68000Y-58000D01*
X68000Y-58000D02*
X68500Y-58000D01*
X68500Y-58000D02*
X68500Y-58500D01*
X68500Y-58000D02*
X69000Y-58000D01*
X69000Y-58000D02*
X69000Y-54000D01*
X69000Y-54000D02*
X68500Y-54000D01*
X68000Y-54500D02*
X69000Y-54500D01*
X68000Y-54400D02*
X69000Y-54400D01*
X77000Y-63500D02*
X74000Y-63500D01*
X74000Y-63500D02*
X74000Y-62500D01*
X74000Y-62500D02*
X77000Y-62500D01*
X77000Y-62500D02*
X77000Y-63500D01*
X74250Y-63500D02*
X74250Y-62500D01*
X74500Y-62500D02*
X74500Y-63500D01*
X77000Y-63000D02*
X77500Y-63000D01*
X74000Y-63000D02*
X73500Y-63000D01*
X79000Y-57500D02*
X79000Y-57800D01*
X79000Y-57800D02*
X78600Y-57800D01*
X78600Y-57800D02*
X78600Y-60200D01*
X78600Y-60200D02*
X79000Y-60200D01*
X79000Y-60200D02*
X79000Y-60500D01*
X79000Y-60200D02*
X79400Y-60200D01*
X79400Y-60200D02*
X79400Y-57800D01*
X79400Y-57800D02*
X79000Y-57800D01*
X78600Y-58000D02*
X79400Y-58000D01*
X79400Y-58100D02*
X78600Y-58100D01*
X80000Y-52500D02*
X79700Y-52500D01*
X79700Y-52500D02*
X79700Y-52100D01*
X79700Y-52100D02*
X77300Y-52100D01*
X77300Y-52100D02*
X77300Y-52500D01*
X77300Y-52500D02*
X77000Y-52500D01*
X77300Y-52500D02*
X77300Y-52900D01*
X77300Y-52900D02*
X79700Y-52900D01*
X79700Y-52900D02*
X79700Y-52500D01*
X79500Y-52100D02*
X79500Y-52900D01*
X79400Y-52900D02*
X79400Y-52100D01*
X73500Y-68000D02*
X73500Y-67000D01*
X73500Y-67000D02*
X79500Y-67000D01*
X79500Y-67000D02*
X79500Y-68000D01*
X79500Y-68000D02*
X73500Y-68000D01*
X74500Y-68000D02*
X74500Y-67000D01*
X41000Y-42500D02*
X33000Y-42500D01*
X33000Y-42500D02*
X33000Y-41500D01*
X33000Y-41500D02*
X41000Y-41500D01*
X41000Y-41500D02*
X41000Y-42500D01*
X40000Y-41500D02*
X40000Y-42500D01*
G54D13*
X69508Y-29980D02*
X65492Y-29980D01*
X65492Y-29980D02*
X65492Y-28169D01*
X65492Y-28169D02*
X69508Y-28169D01*
X69508Y-28169D02*
X69508Y-29980D01*
X64331Y-30630D02*
X64331Y-24370D01*
X64331Y-24370D02*
X70669Y-24350D01*
X70669Y-24350D02*
X70669Y-30630D01*
X70669Y-30630D02*
X64331Y-30630D01*
X78000Y-43500D02*
X78000Y-28500D01*
X78000Y-28500D02*
X80000Y-28500D01*
X80000Y-28500D02*
X80000Y-43500D01*
X80000Y-43500D02*
X78000Y-43500D01*
X78500Y-43500D02*
X78500Y-43000D01*
X78500Y-43000D02*
X79500Y-43000D01*
X79500Y-43000D02*
X79500Y-43500D01*
G54D16*
X75500Y-31000D02*
X72500Y-31000D01*
X72500Y-29000D02*
X75500Y-29000D01*
X75500Y-29000D02*
X75500Y-31000D01*
X72500Y-31000D02*
X72500Y-29000D01*
G54D18*
X88500Y-43500D02*
X88480Y-43694D01*
X88424Y-43881D01*
X88332Y-44053D01*
X88209Y-44204D01*
X88059Y-44329D01*
X87887Y-44421D01*
X87701Y-44479D01*
X87506Y-44499D01*
X87313Y-44482D01*
X87126Y-44427D01*
X86953Y-44336D01*
X86801Y-44214D01*
X86675Y-44064D01*
X86581Y-43893D01*
X86522Y-43707D01*
X86501Y-43513D01*
X86517Y-43320D01*
X86571Y-43132D01*
X86660Y-42959D01*
X86781Y-42806D01*
X86930Y-42679D01*
X87100Y-42584D01*
X87286Y-42524D01*
X87480Y-42501D01*
X87673Y-42516D01*
X87861Y-42568D01*
X88035Y-42656D01*
X88189Y-42776D01*
X88317Y-42924D01*
X88413Y-43094D01*
X88475Y-43279D01*
X88499Y-43473D01*
X88500Y-43500D01*
X86000Y-42000D02*
X89000Y-42000D01*
X89000Y-42000D02*
X89000Y-45000D01*
X89000Y-45000D02*
X86000Y-45000D01*
X86000Y-42000D02*
X86000Y-45000D01*
G54D19*
X88500Y-59490D02*
X88500Y-58490D01*
X88500Y-58490D02*
X87400Y-58490D01*
X87400Y-59490D02*
X87400Y-58490D01*
X88500Y-59490D02*
X87400Y-59490D01*
X88500Y-57520D02*
X88500Y-56520D01*
X88500Y-56520D02*
X87400Y-56520D01*
X87400Y-57520D02*
X87400Y-56520D01*
X88500Y-57520D02*
X87400Y-57520D01*
G54D10*
X85050Y-56000D02*
X86250Y-56000D01*
X85050Y-56000D02*
X85050Y-60000D01*
X85050Y-56000D02*
X85050Y-55800D01*
X85050Y-55800D02*
X86950Y-55800D01*
X86950Y-55800D02*
X86850Y-56000D01*
X89650Y-55800D02*
X89550Y-56000D01*
X89550Y-56000D02*
X89950Y-56000D01*
X89000Y-55800D02*
X89100Y-56000D01*
X89100Y-56000D02*
X89550Y-56000D01*
X89000Y-55800D02*
X89650Y-55800D01*
X89950Y-57820D02*
X89200Y-57820D01*
X87400Y-56220D02*
X89200Y-56220D01*
X89950Y-57820D02*
X89950Y-56220D01*
X89950Y-56220D02*
X89950Y-56000D01*
X89950Y-58190D02*
X89200Y-58190D01*
X89950Y-58190D02*
X89950Y-57820D01*
X87400Y-59790D02*
X89200Y-59790D01*
X89950Y-60000D02*
X89950Y-59790D01*
X89950Y-59790D02*
X89950Y-58190D01*
X89200Y-57820D02*
X89200Y-56220D01*
X89200Y-57820D02*
X87400Y-57820D01*
X89200Y-56220D02*
X89950Y-56220D01*
X89200Y-58190D02*
X89200Y-59790D01*
X89200Y-58190D02*
X87400Y-58190D01*
X89200Y-59790D02*
X89950Y-59790D01*
X88950Y-56370D02*
X87700Y-56370D01*
X88950Y-56370D02*
X88950Y-57670D01*
X88950Y-57670D02*
X87700Y-57670D01*
X88950Y-58340D02*
X87700Y-58340D01*
X88950Y-58340D02*
X88950Y-59640D01*
X88950Y-59640D02*
X87700Y-59640D01*
X87700Y-59640D02*
X87700Y-59490D01*
X87700Y-58340D02*
X87700Y-58490D01*
X87700Y-57670D02*
X87700Y-57520D01*
X87700Y-56370D02*
X87700Y-56520D01*
X89950Y-60000D02*
X87250Y-60000D01*
X87250Y-60000D02*
X86250Y-60000D01*
X86850Y-56000D02*
X87250Y-56000D01*
X87250Y-56000D02*
X89100Y-56000D01*
X86250Y-60000D02*
X86250Y-56000D01*
X86250Y-60000D02*
X85050Y-60000D01*
X86250Y-56000D02*
X86850Y-56000D01*
X86150Y-57820D02*
X85150Y-57820D01*
X85150Y-57820D02*
X85150Y-56220D01*
X85150Y-56220D02*
X86150Y-56220D01*
X86150Y-56220D02*
X86150Y-57820D01*
X86150Y-58190D02*
X85150Y-58190D01*
X86150Y-58190D02*
X86150Y-59790D01*
X86150Y-59790D02*
X85150Y-59790D01*
X85150Y-58190D02*
X85150Y-59790D01*
X85750Y-57660D02*
X85500Y-56460D01*
X85800Y-57610D02*
X85550Y-56410D01*
X85750Y-59630D02*
X85500Y-58429D01*
X85800Y-59580D02*
X85550Y-58380D01*
X87400Y-59790D02*
X87400Y-59640D01*
X87400Y-58190D02*
X87400Y-58340D01*
X87400Y-58340D02*
X87400Y-59640D01*
X87250Y-60000D02*
X87250Y-59640D01*
X87250Y-59640D02*
X87250Y-58340D01*
X87250Y-58340D02*
X87250Y-57670D01*
X87250Y-56000D02*
X87250Y-56370D01*
X87250Y-56370D02*
X87250Y-57670D01*
X87400Y-56220D02*
X87400Y-56370D01*
X87400Y-57820D02*
X87400Y-57670D01*
X87400Y-57670D02*
X87400Y-56370D01*
X85891Y-56443D02*
X85875Y-56426D01*
X85857Y-56410D01*
X85838Y-56397D01*
X85818Y-56385D01*
X85797Y-56375D01*
X85775Y-56366D01*
X85753Y-56360D01*
X85730Y-56355D01*
X85706Y-56353D01*
X85684Y-56353D01*
X85661Y-56354D01*
X85638Y-56358D01*
X85615Y-56364D01*
X85593Y-56371D01*
X85572Y-56381D01*
X85551Y-56392D01*
X85532Y-56405D01*
X85514Y-56420D01*
X85512Y-56422D01*
X85859Y-57600D02*
X85908Y-57532D01*
X85952Y-57461D01*
X85989Y-57385D01*
X86019Y-57307D01*
X86042Y-57227D01*
X86058Y-57145D01*
X86067Y-57061D01*
X86069Y-56979D01*
X86064Y-56895D01*
X86051Y-56812D01*
X86031Y-56731D01*
X86004Y-56652D01*
X85970Y-56575D01*
X85930Y-56502D01*
X85883Y-56432D01*
X85878Y-56425D01*
X85510Y-56421D02*
X85459Y-56470D01*
X85412Y-56522D01*
X85370Y-56579D01*
X85333Y-56639D01*
X85301Y-56702D01*
X85276Y-56768D01*
X85256Y-56836D01*
X85241Y-56905D01*
X85233Y-56975D01*
X85232Y-57045D01*
X85236Y-57115D01*
X85246Y-57185D01*
X85263Y-57253D01*
X85285Y-57320D01*
X85313Y-57385D01*
X85347Y-57447D01*
X85386Y-57506D01*
X85430Y-57561D01*
X85479Y-57612D01*
X85531Y-57659D01*
X85511Y-57639D02*
X85527Y-57652D01*
X85543Y-57664D01*
X85561Y-57674D01*
X85579Y-57683D01*
X85598Y-57691D01*
X85618Y-57696D01*
X85637Y-57700D01*
X85658Y-57702D01*
X85677Y-57702D01*
X85697Y-57701D01*
X85717Y-57698D01*
X85737Y-57693D01*
X85756Y-57686D01*
X85775Y-57678D01*
X85793Y-57668D01*
X85809Y-57657D01*
X85825Y-57644D01*
X85840Y-57630D01*
X85853Y-57614D01*
X85865Y-57598D01*
X85874Y-57583D01*
X85892Y-58412D02*
X85876Y-58395D01*
X85858Y-58380D01*
X85839Y-58366D01*
X85819Y-58354D01*
X85798Y-58344D01*
X85776Y-58335D01*
X85753Y-58329D01*
X85730Y-58324D01*
X85707Y-58322D01*
X85684Y-58322D01*
X85661Y-58323D01*
X85638Y-58327D01*
X85615Y-58333D01*
X85593Y-58340D01*
X85571Y-58350D01*
X85551Y-58361D01*
X85531Y-58374D01*
X85513Y-58389D01*
X85512Y-58391D01*
X85859Y-59569D02*
X85908Y-59501D01*
X85952Y-59430D01*
X85989Y-59354D01*
X86019Y-59276D01*
X86042Y-59196D01*
X86058Y-59114D01*
X86067Y-59030D01*
X86069Y-58948D01*
X86064Y-58864D01*
X86051Y-58781D01*
X86031Y-58700D01*
X86004Y-58621D01*
X85970Y-58544D01*
X85930Y-58471D01*
X85883Y-58401D01*
X85878Y-58394D01*
X85507Y-58388D02*
X85456Y-58437D01*
X85409Y-58490D01*
X85367Y-58547D01*
X85330Y-58608D01*
X85299Y-58671D01*
X85273Y-58737D01*
X85253Y-58805D01*
X85239Y-58874D01*
X85231Y-58944D01*
X85230Y-59014D01*
X85234Y-59085D01*
X85245Y-59155D01*
X85261Y-59223D01*
X85284Y-59290D01*
X85312Y-59355D01*
X85346Y-59417D01*
X85385Y-59476D01*
X85429Y-59532D01*
X85478Y-59583D01*
X85531Y-59630D01*
X85512Y-59609D02*
X85527Y-59623D01*
X85544Y-59634D01*
X85561Y-59645D01*
X85580Y-59654D01*
X85599Y-59661D01*
X85618Y-59666D01*
X85638Y-59670D01*
X85658Y-59672D01*
X85678Y-59672D01*
X85698Y-59671D01*
X85718Y-59668D01*
X85738Y-59663D01*
X85757Y-59656D01*
X85776Y-59647D01*
X85793Y-59638D01*
X85810Y-59626D01*
X85826Y-59613D01*
X85840Y-59599D01*
X85854Y-59584D01*
X85865Y-59567D01*
X85874Y-59552D01*
G54D16*
X72600Y-60000D02*
X72569Y-60310D01*
X72479Y-60609D01*
X72332Y-60885D01*
X72135Y-61127D01*
X71894Y-61326D01*
X71620Y-61474D01*
X71321Y-61567D01*
X71011Y-61599D01*
X70701Y-61571D01*
X70401Y-61483D01*
X70124Y-61338D01*
X69881Y-61143D01*
X69680Y-60903D01*
X69530Y-60630D01*
X69435Y-60332D01*
X69401Y-60022D01*
X69427Y-59712D01*
X69513Y-59412D01*
X69656Y-59134D01*
X69850Y-58889D01*
X70087Y-58687D01*
X70360Y-58534D01*
X70657Y-58438D01*
X70967Y-58401D01*
X71277Y-58425D01*
X71578Y-58509D01*
X71857Y-58650D01*
X72103Y-58842D01*
X72307Y-59078D01*
X72461Y-59350D01*
X72560Y-59646D01*
X72599Y-59956D01*
X72600Y-60000D01*
G54D11*
X66750Y-54500D02*
X66716Y-54839D01*
X66617Y-55166D01*
X66457Y-55468D01*
X66241Y-55733D01*
X65978Y-55950D01*
X65678Y-56113D01*
X65351Y-56214D01*
X65012Y-56249D01*
X64673Y-56219D01*
X64345Y-56122D01*
X64042Y-55964D01*
X63776Y-55750D01*
X63557Y-55488D01*
X63392Y-55189D01*
X63289Y-54863D01*
X63251Y-54524D01*
X63279Y-54185D01*
X63373Y-53856D01*
X63530Y-53553D01*
X63742Y-53285D01*
X64002Y-53063D01*
X64300Y-52897D01*
X64625Y-52791D01*
X64964Y-52751D01*
X65303Y-52777D01*
X65632Y-52869D01*
X65937Y-53023D01*
X66206Y-53233D01*
X66430Y-53492D01*
X66598Y-53789D01*
X66706Y-54113D01*
X66749Y-54452D01*
X66750Y-54500D01*
X66400Y-51900D02*
X63600Y-51900D01*
X63600Y-51900D02*
X63600Y-51100D01*
X63600Y-51100D02*
X66400Y-51100D01*
X66400Y-51100D02*
X66400Y-51900D01*
X66400Y-51700D02*
X66200Y-51900D01*
X79750Y-48500D02*
X79716Y-48839D01*
X79617Y-49166D01*
X79457Y-49468D01*
X79241Y-49733D01*
X78978Y-49950D01*
X78678Y-50113D01*
X78351Y-50214D01*
X78012Y-50249D01*
X77673Y-50219D01*
X77345Y-50122D01*
X77042Y-49964D01*
X76776Y-49750D01*
X76557Y-49488D01*
X76392Y-49189D01*
X76289Y-48863D01*
X76251Y-48524D01*
X76279Y-48185D01*
X76373Y-47856D01*
X76530Y-47553D01*
X76742Y-47285D01*
X77002Y-47063D01*
X77300Y-46897D01*
X77625Y-46791D01*
X77964Y-46751D01*
X78303Y-46777D01*
X78632Y-46869D01*
X78937Y-47023D01*
X79206Y-47233D01*
X79430Y-47492D01*
X79598Y-47789D01*
X79706Y-48113D01*
X79749Y-48452D01*
X79750Y-48500D01*
G54D16*
X74600Y-56000D02*
X74569Y-56310D01*
X74479Y-56609D01*
X74332Y-56885D01*
X74135Y-57127D01*
X73894Y-57326D01*
X73620Y-57474D01*
X73321Y-57567D01*
X73011Y-57599D01*
X72701Y-57571D01*
X72401Y-57483D01*
X72124Y-57338D01*
X71881Y-57143D01*
X71680Y-56903D01*
X71530Y-56630D01*
X71435Y-56332D01*
X71401Y-56022D01*
X71427Y-55712D01*
X71513Y-55412D01*
X71656Y-55134D01*
X71850Y-54889D01*
X72087Y-54687D01*
X72360Y-54534D01*
X72657Y-54438D01*
X72967Y-54401D01*
X73277Y-54425D01*
X73578Y-54509D01*
X73857Y-54650D01*
X74103Y-54842D01*
X74307Y-55078D01*
X74461Y-55350D01*
X74560Y-55646D01*
X74599Y-55956D01*
X74600Y-56000D01*
G54D11*
X75600Y-57400D02*
X75600Y-54600D01*
X75600Y-54600D02*
X76400Y-54600D01*
X76400Y-54600D02*
X76400Y-57400D01*
X76400Y-57400D02*
X75600Y-57400D01*
X75800Y-57400D02*
X75600Y-57200D01*
X73600Y-35100D02*
X76400Y-35100D01*
X76400Y-35100D02*
X76400Y-35900D01*
X76400Y-35900D02*
X73600Y-35900D01*
X73600Y-35900D02*
X73600Y-35100D01*
X73600Y-35300D02*
X73800Y-35100D01*
X69000Y-62000D02*
X68800Y-62000D01*
X66000Y-62000D02*
X66200Y-62000D01*
X66200Y-62000D02*
X66200Y-62400D01*
X66200Y-62400D02*
X68800Y-62400D01*
X68800Y-62400D02*
X68800Y-61600D01*
X68800Y-61600D02*
X66200Y-61600D01*
X66200Y-61600D02*
X66200Y-62000D01*
X68800Y-62200D02*
X68600Y-62400D01*
X64500Y-61000D02*
X64700Y-61000D01*
X67500Y-61000D02*
X67300Y-61000D01*
X67300Y-61000D02*
X67300Y-60600D01*
X67300Y-60600D02*
X64700Y-60600D01*
X64700Y-60600D02*
X64700Y-61400D01*
X64700Y-61400D02*
X67300Y-61400D01*
X67300Y-61400D02*
X67300Y-61000D01*
X64700Y-60800D02*
X64900Y-60600D01*
X88000Y-49500D02*
X88000Y-49700D01*
X88000Y-52500D02*
X88000Y-52300D01*
X88000Y-52300D02*
X88400Y-52300D01*
X88400Y-52300D02*
X88400Y-49700D01*
X88400Y-49700D02*
X87600Y-49700D01*
X87600Y-49700D02*
X87600Y-52300D01*
X87600Y-52300D02*
X88000Y-52300D01*
X88200Y-49700D02*
X88400Y-49900D01*
X86000Y-52500D02*
X86000Y-52300D01*
X86000Y-49500D02*
X86000Y-49700D01*
X86000Y-49700D02*
X85600Y-49700D01*
X85600Y-49700D02*
X85600Y-52300D01*
X85600Y-52300D02*
X86400Y-52300D01*
X86400Y-52300D02*
X86400Y-49700D01*
X86400Y-49700D02*
X86000Y-49700D01*
X85800Y-52300D02*
X85600Y-52100D01*
X44500Y-54500D02*
X44700Y-54500D01*
X47500Y-54500D02*
X47300Y-54500D01*
X47300Y-54500D02*
X47300Y-54100D01*
X47300Y-54100D02*
X44700Y-54100D01*
X44700Y-54100D02*
X44700Y-54900D01*
X44700Y-54900D02*
X47300Y-54900D01*
X47300Y-54900D02*
X47300Y-54500D01*
X44700Y-54300D02*
X44900Y-54100D01*
X78000Y-27500D02*
X77800Y-27500D01*
X75000Y-27500D02*
X75200Y-27500D01*
X75200Y-27500D02*
X75200Y-27900D01*
X75200Y-27900D02*
X77800Y-27900D01*
X77800Y-27900D02*
X77800Y-27100D01*
X77800Y-27100D02*
X75200Y-27100D01*
X75200Y-27100D02*
X75200Y-27500D01*
X77800Y-27700D02*
X77600Y-27900D01*
G54D20*
X66900Y-42500D02*
X66854Y-42966D01*
X66718Y-43414D01*
X66499Y-43828D01*
X66202Y-44191D01*
X65842Y-44489D01*
X65430Y-44712D01*
X64982Y-44850D01*
X64516Y-44899D01*
X64051Y-44857D01*
X63601Y-44725D01*
X63186Y-44508D01*
X62821Y-44214D01*
X62520Y-43855D01*
X62295Y-43445D01*
X62153Y-42998D01*
X62101Y-42533D01*
X62140Y-42067D01*
X62269Y-41617D01*
X62483Y-41200D01*
X62774Y-40833D01*
X63131Y-40530D01*
X63540Y-40301D01*
X63985Y-40156D01*
X64450Y-40101D01*
X64916Y-40137D01*
X65367Y-40263D01*
X65785Y-40474D01*
X66155Y-40762D01*
X66461Y-41117D01*
X66692Y-41524D01*
X66840Y-41969D01*
X66899Y-42433D01*
X66900Y-42500D01*
G54D11*
X67000Y-59000D02*
X65500Y-57500D01*
X65500Y-57500D02*
X65000Y-57500D01*
X65000Y-57500D02*
X64500Y-58000D01*
X64500Y-58000D02*
X64500Y-59000D01*
X64500Y-59000D02*
X65500Y-60000D01*
X65500Y-60000D02*
X66500Y-60000D01*
X66500Y-60000D02*
X67000Y-59500D01*
X67000Y-59500D02*
X67000Y-59000D01*
G54D18*
X75850Y-61100D02*
X75150Y-61100D01*
X75150Y-61100D02*
X75150Y-59900D01*
X75150Y-59900D02*
X75850Y-59900D01*
X75850Y-59900D02*
X75850Y-61100D01*
G54D10*
X83000Y-31250D02*
X83500Y-31750D01*
X83500Y-36250D02*
X83000Y-36750D01*
X82000Y-36750D02*
X81500Y-36250D01*
X82000Y-31250D02*
X81500Y-31750D01*
X83500Y-31750D02*
X83500Y-36250D01*
X83000Y-31250D02*
X82000Y-31250D01*
X81500Y-31750D02*
X81500Y-36250D01*
X82000Y-36750D02*
X83000Y-36750D01*
G54D13*
X52500Y-31500D02*
X53000Y-31500D01*
X53000Y-31500D02*
X53000Y-32500D01*
X53000Y-32500D02*
X52500Y-32500D01*
X52500Y-31000D02*
X62500Y-31000D01*
X62500Y-31000D02*
X62500Y-33000D01*
X62500Y-33000D02*
X52500Y-33000D01*
X52500Y-33000D02*
X52500Y-31000D01*
X42500Y-31500D02*
X43000Y-31500D01*
X43000Y-31500D02*
X43000Y-32500D01*
X43000Y-32500D02*
X42500Y-32500D01*
X42500Y-31000D02*
X52500Y-31000D01*
X52500Y-31000D02*
X52500Y-33000D01*
X52500Y-33000D02*
X42500Y-33000D01*
X42500Y-33000D02*
X42500Y-31000D01*
X32500Y-51500D02*
X33000Y-51500D01*
X33000Y-51500D02*
X33000Y-52500D01*
X33000Y-52500D02*
X32500Y-52500D01*
X32500Y-51000D02*
X42500Y-51000D01*
X42500Y-51000D02*
X42500Y-53000D01*
X42500Y-53000D02*
X32500Y-53000D01*
X32500Y-53000D02*
X32500Y-51000D01*
X41500Y-63000D02*
X41000Y-63000D01*
X41000Y-63000D02*
X41000Y-62000D01*
X41000Y-62000D02*
X41500Y-62000D01*
X41500Y-63500D02*
X31500Y-63500D01*
X31500Y-63500D02*
X31500Y-61500D01*
X31500Y-61500D02*
X41500Y-61500D01*
X41500Y-61500D02*
X41500Y-63500D01*
G54D11*
X85500Y-31500D02*
X85500Y-31300D01*
X85500Y-28500D02*
X85500Y-28700D01*
X85500Y-28700D02*
X85100Y-28700D01*
X85100Y-28700D02*
X85100Y-31300D01*
X85100Y-31300D02*
X85900Y-31300D01*
X85900Y-31300D02*
X85900Y-28700D01*
X85900Y-28700D02*
X85500Y-28700D01*
X85300Y-31300D02*
X85100Y-31100D01*
X86000Y-27500D02*
X85800Y-27500D01*
X83000Y-27500D02*
X83200Y-27500D01*
X83200Y-27500D02*
X83200Y-27900D01*
X83200Y-27900D02*
X85800Y-27900D01*
X85800Y-27900D02*
X85800Y-27100D01*
X85800Y-27100D02*
X83200Y-27100D01*
X83200Y-27100D02*
X83200Y-27500D01*
X85800Y-27700D02*
X85600Y-27900D01*
G54D13*
X32500Y-46000D02*
X32500Y-46000D01*
X32500Y-46000D02*
X33000Y-46000D01*
X33000Y-46000D02*
X33000Y-47000D01*
X33000Y-47000D02*
X32500Y-47000D01*
X32500Y-45500D02*
X41500Y-45500D01*
X41500Y-45500D02*
X41500Y-47500D01*
X41500Y-47500D02*
X32500Y-47500D01*
X32500Y-47500D02*
X32500Y-45500D01*
X83500Y-23500D02*
X84500Y-23500D01*
X72000Y-22000D02*
X72500Y-21500D01*
X72500Y-21500D02*
X83000Y-21500D01*
X83000Y-21500D02*
X83500Y-22000D01*
X83500Y-22000D02*
X83500Y-25000D01*
X83500Y-25000D02*
X83000Y-25500D01*
X83000Y-25500D02*
X72500Y-25500D01*
X72500Y-25500D02*
X72000Y-25000D01*
X72000Y-25000D02*
X72000Y-22000D01*
X73500Y-25500D02*
X73500Y-21500D01*
X72000Y-23000D02*
X71500Y-23000D01*
X71500Y-23000D02*
X71500Y-24000D01*
X71500Y-24000D02*
X72000Y-24000D01*
X71500Y-23500D02*
X70500Y-23500D01*
X73000Y-25500D02*
X73000Y-21500D01*
G54D11*
X55500Y-47000D02*
X55500Y-47200D01*
X55500Y-50000D02*
X55500Y-49800D01*
X55500Y-49800D02*
X55900Y-49800D01*
X55900Y-49800D02*
X55900Y-47200D01*
X55900Y-47200D02*
X55100Y-47200D01*
X55100Y-47200D02*
X55100Y-49800D01*
X55100Y-49800D02*
X55500Y-49800D01*
X55700Y-47200D02*
X55900Y-47400D01*
G54D19*
X43510Y-68500D02*
X44510Y-68500D01*
X44510Y-68500D02*
X44510Y-67400D01*
X43510Y-67400D02*
X44510Y-67400D01*
X43510Y-68500D02*
X43510Y-67400D01*
X45480Y-68500D02*
X46480Y-68500D01*
X46480Y-68500D02*
X46480Y-67400D01*
X45480Y-67400D02*
X46480Y-67400D01*
X45480Y-68500D02*
X45480Y-67400D01*
G54D10*
X47000Y-65050D02*
X47000Y-66250D01*
X47000Y-65050D02*
X43000Y-65050D01*
X47000Y-65050D02*
X47200Y-65050D01*
X47200Y-65050D02*
X47200Y-66950D01*
X47200Y-66950D02*
X47000Y-66850D01*
X47200Y-69650D02*
X47000Y-69550D01*
X47000Y-69550D02*
X47000Y-69950D01*
X47200Y-69000D02*
X47000Y-69100D01*
X47000Y-69100D02*
X47000Y-69550D01*
X47200Y-69000D02*
X47200Y-69650D01*
X45180Y-69950D02*
X45180Y-69200D01*
X46780Y-67400D02*
X46780Y-69200D01*
X45180Y-69950D02*
X46780Y-69950D01*
X46780Y-69950D02*
X47000Y-69950D01*
X44810Y-69950D02*
X44810Y-69200D01*
X44810Y-69950D02*
X45180Y-69950D01*
X43210Y-67400D02*
X43210Y-69200D01*
X43000Y-69950D02*
X43210Y-69950D01*
X43210Y-69950D02*
X44810Y-69950D01*
X45180Y-69200D02*
X46780Y-69200D01*
X45180Y-69200D02*
X45180Y-67400D01*
X46780Y-69200D02*
X46780Y-69950D01*
X44810Y-69200D02*
X43210Y-69200D01*
X44810Y-69200D02*
X44810Y-67400D01*
X43210Y-69200D02*
X43210Y-69950D01*
X46630Y-68950D02*
X46630Y-67700D01*
X46630Y-68950D02*
X45330Y-68950D01*
X45330Y-68950D02*
X45330Y-67700D01*
X44660Y-68950D02*
X44660Y-67700D01*
X44660Y-68950D02*
X43360Y-68950D01*
X43360Y-68950D02*
X43360Y-67700D01*
X43360Y-67700D02*
X43510Y-67700D01*
X44660Y-67700D02*
X44510Y-67700D01*
X45330Y-67700D02*
X45480Y-67700D01*
X46630Y-67700D02*
X46480Y-67700D01*
X43000Y-69950D02*
X43000Y-67250D01*
X43000Y-67250D02*
X43000Y-66250D01*
X47000Y-66850D02*
X47000Y-67250D01*
X47000Y-67250D02*
X47000Y-69100D01*
X43000Y-66250D02*
X47000Y-66250D01*
X43000Y-66250D02*
X43000Y-65050D01*
X47000Y-66250D02*
X47000Y-66850D01*
X45180Y-66150D02*
X45180Y-65150D01*
X45180Y-65150D02*
X46780Y-65150D01*
X46780Y-65150D02*
X46780Y-66150D01*
X46780Y-66150D02*
X45180Y-66150D01*
X44810Y-66150D02*
X44810Y-65150D01*
X44810Y-66150D02*
X43210Y-66150D01*
X43210Y-66150D02*
X43210Y-65150D01*
X44810Y-65150D02*
X43210Y-65150D01*
X45340Y-65750D02*
X46540Y-65500D01*
X45390Y-65800D02*
X46590Y-65550D01*
X43370Y-65750D02*
X44571Y-65500D01*
X43420Y-65800D02*
X44620Y-65550D01*
X43210Y-67400D02*
X43360Y-67400D01*
X44810Y-67400D02*
X44660Y-67400D01*
X44660Y-67400D02*
X43360Y-67400D01*
X43000Y-67250D02*
X43360Y-67250D01*
X43360Y-67250D02*
X44660Y-67250D01*
X44660Y-67250D02*
X45330Y-67250D01*
X47000Y-67250D02*
X46630Y-67250D01*
X46630Y-67250D02*
X45330Y-67250D01*
X46780Y-67400D02*
X46630Y-67400D01*
X45180Y-67400D02*
X45330Y-67400D01*
X45330Y-67400D02*
X46630Y-67400D01*
X46557Y-65891D02*
X46574Y-65875D01*
X46590Y-65857D01*
X46603Y-65838D01*
X46615Y-65818D01*
X46625Y-65797D01*
X46634Y-65775D01*
X46640Y-65753D01*
X46645Y-65730D01*
X46647Y-65706D01*
X46647Y-65684D01*
X46646Y-65661D01*
X46642Y-65638D01*
X46636Y-65615D01*
X46629Y-65593D01*
X46619Y-65572D01*
X46608Y-65551D01*
X46595Y-65532D01*
X46580Y-65514D01*
X46578Y-65512D01*
X45400Y-65859D02*
X45468Y-65908D01*
X45539Y-65952D01*
X45615Y-65989D01*
X45693Y-66019D01*
X45773Y-66042D01*
X45855Y-66058D01*
X45939Y-66067D01*
X46021Y-66069D01*
X46105Y-66064D01*
X46188Y-66051D01*
X46269Y-66031D01*
X46348Y-66004D01*
X46425Y-65970D01*
X46498Y-65930D01*
X46568Y-65883D01*
X46575Y-65878D01*
X46579Y-65510D02*
X46530Y-65459D01*
X46478Y-65412D01*
X46421Y-65370D01*
X46361Y-65333D01*
X46298Y-65301D01*
X46232Y-65276D01*
X46164Y-65256D01*
X46095Y-65241D01*
X46025Y-65233D01*
X45955Y-65232D01*
X45885Y-65236D01*
X45815Y-65246D01*
X45747Y-65263D01*
X45680Y-65285D01*
X45615Y-65313D01*
X45553Y-65347D01*
X45494Y-65386D01*
X45439Y-65430D01*
X45388Y-65479D01*
X45341Y-65531D01*
X45361Y-65511D02*
X45348Y-65527D01*
X45336Y-65543D01*
X45326Y-65561D01*
X45317Y-65579D01*
X45309Y-65598D01*
X45304Y-65618D01*
X45300Y-65637D01*
X45298Y-65658D01*
X45298Y-65677D01*
X45299Y-65697D01*
X45302Y-65717D01*
X45307Y-65737D01*
X45314Y-65756D01*
X45322Y-65775D01*
X45332Y-65793D01*
X45343Y-65809D01*
X45356Y-65825D01*
X45370Y-65840D01*
X45386Y-65853D01*
X45402Y-65865D01*
X45417Y-65874D01*
X44588Y-65892D02*
X44605Y-65876D01*
X44620Y-65858D01*
X44634Y-65839D01*
X44646Y-65819D01*
X44656Y-65798D01*
X44665Y-65776D01*
X44671Y-65753D01*
X44676Y-65730D01*
X44678Y-65707D01*
X44678Y-65684D01*
X44677Y-65661D01*
X44673Y-65638D01*
X44667Y-65615D01*
X44660Y-65593D01*
X44650Y-65571D01*
X44639Y-65551D01*
X44626Y-65531D01*
X44611Y-65513D01*
X44609Y-65512D01*
X43431Y-65859D02*
X43499Y-65908D01*
X43570Y-65952D01*
X43646Y-65989D01*
X43724Y-66019D01*
X43804Y-66042D01*
X43886Y-66058D01*
X43970Y-66067D01*
X44052Y-66069D01*
X44136Y-66064D01*
X44219Y-66051D01*
X44300Y-66031D01*
X44379Y-66004D01*
X44456Y-65970D01*
X44529Y-65930D01*
X44599Y-65883D01*
X44606Y-65878D01*
X44612Y-65507D02*
X44563Y-65456D01*
X44510Y-65409D01*
X44453Y-65367D01*
X44392Y-65330D01*
X44329Y-65299D01*
X44263Y-65273D01*
X44195Y-65253D01*
X44126Y-65239D01*
X44056Y-65231D01*
X43986Y-65230D01*
X43915Y-65234D01*
X43845Y-65245D01*
X43777Y-65261D01*
X43710Y-65284D01*
X43645Y-65312D01*
X43583Y-65346D01*
X43524Y-65385D01*
X43468Y-65429D01*
X43417Y-65478D01*
X43370Y-65531D01*
X43391Y-65512D02*
X43377Y-65527D01*
X43366Y-65544D01*
X43355Y-65561D01*
X43346Y-65580D01*
X43339Y-65599D01*
X43334Y-65618D01*
X43330Y-65638D01*
X43328Y-65658D01*
X43328Y-65678D01*
X43329Y-65698D01*
X43332Y-65718D01*
X43337Y-65738D01*
X43344Y-65757D01*
X43353Y-65776D01*
X43362Y-65793D01*
X43374Y-65810D01*
X43387Y-65826D01*
X43401Y-65840D01*
X43416Y-65854D01*
X43433Y-65865D01*
X43448Y-65874D01*
G54D19*
X80510Y-68500D02*
X81510Y-68500D01*
X81510Y-68500D02*
X81510Y-67400D01*
X80510Y-67400D02*
X81510Y-67400D01*
X80510Y-68500D02*
X80510Y-67400D01*
X82480Y-68500D02*
X83480Y-68500D01*
X83480Y-68500D02*
X83480Y-67400D01*
X82480Y-67400D02*
X83480Y-67400D01*
X82480Y-68500D02*
X82480Y-67400D01*
G54D10*
X84000Y-65050D02*
X84000Y-66250D01*
X84000Y-65050D02*
X80000Y-65050D01*
X84000Y-65050D02*
X84200Y-65050D01*
X84200Y-65050D02*
X84200Y-66950D01*
X84200Y-66950D02*
X84000Y-66850D01*
X84200Y-69650D02*
X84000Y-69550D01*
X84000Y-69550D02*
X84000Y-69950D01*
X84200Y-69000D02*
X84000Y-69100D01*
X84000Y-69100D02*
X84000Y-69550D01*
X84200Y-69000D02*
X84200Y-69650D01*
X82180Y-69950D02*
X82180Y-69200D01*
X83780Y-67400D02*
X83780Y-69200D01*
X82180Y-69950D02*
X83780Y-69950D01*
X83780Y-69950D02*
X84000Y-69950D01*
X81810Y-69950D02*
X81810Y-69200D01*
X81810Y-69950D02*
X82180Y-69950D01*
X80210Y-67400D02*
X80210Y-69200D01*
X80000Y-69950D02*
X80210Y-69950D01*
X80210Y-69950D02*
X81810Y-69950D01*
X82180Y-69200D02*
X83780Y-69200D01*
X82180Y-69200D02*
X82180Y-67400D01*
X83780Y-69200D02*
X83780Y-69950D01*
X81810Y-69200D02*
X80210Y-69200D01*
X81810Y-69200D02*
X81810Y-67400D01*
X80210Y-69200D02*
X80210Y-69950D01*
X83630Y-68950D02*
X83630Y-67700D01*
X83630Y-68950D02*
X82330Y-68950D01*
X82330Y-68950D02*
X82330Y-67700D01*
X81660Y-68950D02*
X81660Y-67700D01*
X81660Y-68950D02*
X80360Y-68950D01*
X80360Y-68950D02*
X80360Y-67700D01*
X80360Y-67700D02*
X80510Y-67700D01*
X81660Y-67700D02*
X81510Y-67700D01*
X82330Y-67700D02*
X82480Y-67700D01*
X83630Y-67700D02*
X83480Y-67700D01*
X80000Y-69950D02*
X80000Y-67250D01*
X80000Y-67250D02*
X80000Y-66250D01*
X84000Y-66850D02*
X84000Y-67250D01*
X84000Y-67250D02*
X84000Y-69100D01*
X80000Y-66250D02*
X84000Y-66250D01*
X80000Y-66250D02*
X80000Y-65050D01*
X84000Y-66250D02*
X84000Y-66850D01*
X82180Y-66150D02*
X82180Y-65150D01*
X82180Y-65150D02*
X83780Y-65150D01*
X83780Y-65150D02*
X83780Y-66150D01*
X83780Y-66150D02*
X82180Y-66150D01*
X81810Y-66150D02*
X81810Y-65150D01*
X81810Y-66150D02*
X80210Y-66150D01*
X80210Y-66150D02*
X80210Y-65150D01*
X81810Y-65150D02*
X80210Y-65150D01*
X82340Y-65750D02*
X83540Y-65500D01*
X82390Y-65800D02*
X83590Y-65550D01*
X80370Y-65750D02*
X81571Y-65500D01*
X80420Y-65800D02*
X81620Y-65550D01*
X80210Y-67400D02*
X80360Y-67400D01*
X81810Y-67400D02*
X81660Y-67400D01*
X81660Y-67400D02*
X80360Y-67400D01*
X80000Y-67250D02*
X80360Y-67250D01*
X80360Y-67250D02*
X81660Y-67250D01*
X81660Y-67250D02*
X82330Y-67250D01*
X84000Y-67250D02*
X83630Y-67250D01*
X83630Y-67250D02*
X82330Y-67250D01*
X83780Y-67400D02*
X83630Y-67400D01*
X82180Y-67400D02*
X82330Y-67400D01*
X82330Y-67400D02*
X83630Y-67400D01*
X83557Y-65891D02*
X83574Y-65875D01*
X83590Y-65857D01*
X83603Y-65838D01*
X83615Y-65818D01*
X83625Y-65797D01*
X83634Y-65775D01*
X83640Y-65753D01*
X83645Y-65730D01*
X83647Y-65706D01*
X83647Y-65684D01*
X83646Y-65661D01*
X83642Y-65638D01*
X83636Y-65615D01*
X83629Y-65593D01*
X83619Y-65572D01*
X83608Y-65551D01*
X83595Y-65532D01*
X83580Y-65514D01*
X83578Y-65512D01*
X82400Y-65859D02*
X82468Y-65908D01*
X82539Y-65952D01*
X82615Y-65989D01*
X82693Y-66019D01*
X82773Y-66042D01*
X82855Y-66058D01*
X82939Y-66067D01*
X83021Y-66069D01*
X83105Y-66064D01*
X83188Y-66051D01*
X83269Y-66031D01*
X83348Y-66004D01*
X83425Y-65970D01*
X83498Y-65930D01*
X83568Y-65883D01*
X83575Y-65878D01*
X83579Y-65510D02*
X83530Y-65459D01*
X83478Y-65412D01*
X83421Y-65370D01*
X83361Y-65333D01*
X83298Y-65301D01*
X83232Y-65276D01*
X83164Y-65256D01*
X83095Y-65241D01*
X83025Y-65233D01*
X82955Y-65232D01*
X82885Y-65236D01*
X82815Y-65246D01*
X82747Y-65263D01*
X82680Y-65285D01*
X82615Y-65313D01*
X82553Y-65347D01*
X82494Y-65386D01*
X82439Y-65430D01*
X82388Y-65479D01*
X82341Y-65531D01*
X82361Y-65511D02*
X82348Y-65527D01*
X82336Y-65543D01*
X82326Y-65561D01*
X82317Y-65579D01*
X82309Y-65598D01*
X82304Y-65618D01*
X82300Y-65637D01*
X82298Y-65658D01*
X82298Y-65677D01*
X82299Y-65697D01*
X82302Y-65717D01*
X82307Y-65737D01*
X82314Y-65756D01*
X82322Y-65775D01*
X82332Y-65793D01*
X82343Y-65809D01*
X82356Y-65825D01*
X82370Y-65840D01*
X82386Y-65853D01*
X82402Y-65865D01*
X82417Y-65874D01*
X81588Y-65892D02*
X81605Y-65876D01*
X81620Y-65858D01*
X81634Y-65839D01*
X81646Y-65819D01*
X81656Y-65798D01*
X81665Y-65776D01*
X81671Y-65753D01*
X81676Y-65730D01*
X81678Y-65707D01*
X81678Y-65684D01*
X81677Y-65661D01*
X81673Y-65638D01*
X81667Y-65615D01*
X81660Y-65593D01*
X81650Y-65571D01*
X81639Y-65551D01*
X81626Y-65531D01*
X81611Y-65513D01*
X81609Y-65512D01*
X80431Y-65859D02*
X80499Y-65908D01*
X80570Y-65952D01*
X80646Y-65989D01*
X80724Y-66019D01*
X80804Y-66042D01*
X80886Y-66058D01*
X80970Y-66067D01*
X81052Y-66069D01*
X81136Y-66064D01*
X81219Y-66051D01*
X81300Y-66031D01*
X81379Y-66004D01*
X81456Y-65970D01*
X81529Y-65930D01*
X81599Y-65883D01*
X81606Y-65878D01*
X81612Y-65507D02*
X81563Y-65456D01*
X81510Y-65409D01*
X81453Y-65367D01*
X81392Y-65330D01*
X81329Y-65299D01*
X81263Y-65273D01*
X81195Y-65253D01*
X81126Y-65239D01*
X81056Y-65231D01*
X80986Y-65230D01*
X80915Y-65234D01*
X80845Y-65245D01*
X80777Y-65261D01*
X80710Y-65284D01*
X80645Y-65312D01*
X80583Y-65346D01*
X80524Y-65385D01*
X80468Y-65429D01*
X80417Y-65478D01*
X80370Y-65531D01*
X80391Y-65512D02*
X80377Y-65527D01*
X80366Y-65544D01*
X80355Y-65561D01*
X80346Y-65580D01*
X80339Y-65599D01*
X80334Y-65618D01*
X80330Y-65638D01*
X80328Y-65658D01*
X80328Y-65678D01*
X80329Y-65698D01*
X80332Y-65718D01*
X80337Y-65738D01*
X80344Y-65757D01*
X80353Y-65776D01*
X80362Y-65793D01*
X80374Y-65810D01*
X80387Y-65826D01*
X80401Y-65840D01*
X80416Y-65854D01*
X80433Y-65865D01*
X80448Y-65874D01*
G54D19*
X54510Y-68500D02*
X55510Y-68500D01*
X55510Y-68500D02*
X55510Y-67400D01*
X54510Y-67400D02*
X55510Y-67400D01*
X54510Y-68500D02*
X54510Y-67400D01*
X56480Y-68500D02*
X57480Y-68500D01*
X57480Y-68500D02*
X57480Y-67400D01*
X56480Y-67400D02*
X57480Y-67400D01*
X56480Y-68500D02*
X56480Y-67400D01*
G54D10*
X58000Y-65050D02*
X58000Y-66250D01*
X58000Y-65050D02*
X54000Y-65050D01*
X58000Y-65050D02*
X58200Y-65050D01*
X58200Y-65050D02*
X58200Y-66950D01*
X58200Y-66950D02*
X58000Y-66850D01*
X58200Y-69650D02*
X58000Y-69550D01*
X58000Y-69550D02*
X58000Y-69950D01*
X58200Y-69000D02*
X58000Y-69100D01*
X58000Y-69100D02*
X58000Y-69550D01*
X58200Y-69000D02*
X58200Y-69650D01*
X56180Y-69950D02*
X56180Y-69200D01*
X57780Y-67400D02*
X57780Y-69200D01*
X56180Y-69950D02*
X57780Y-69950D01*
X57780Y-69950D02*
X58000Y-69950D01*
X55810Y-69950D02*
X55810Y-69200D01*
X55810Y-69950D02*
X56180Y-69950D01*
X54210Y-67400D02*
X54210Y-69200D01*
X54000Y-69950D02*
X54210Y-69950D01*
X54210Y-69950D02*
X55810Y-69950D01*
X56180Y-69200D02*
X57780Y-69200D01*
X56180Y-69200D02*
X56180Y-67400D01*
X57780Y-69200D02*
X57780Y-69950D01*
X55810Y-69200D02*
X54210Y-69200D01*
X55810Y-69200D02*
X55810Y-67400D01*
X54210Y-69200D02*
X54210Y-69950D01*
X57630Y-68950D02*
X57630Y-67700D01*
X57630Y-68950D02*
X56330Y-68950D01*
X56330Y-68950D02*
X56330Y-67700D01*
X55660Y-68950D02*
X55660Y-67700D01*
X55660Y-68950D02*
X54360Y-68950D01*
X54360Y-68950D02*
X54360Y-67700D01*
X54360Y-67700D02*
X54510Y-67700D01*
X55660Y-67700D02*
X55510Y-67700D01*
X56330Y-67700D02*
X56480Y-67700D01*
X57630Y-67700D02*
X57480Y-67700D01*
X54000Y-69950D02*
X54000Y-67250D01*
X54000Y-67250D02*
X54000Y-66250D01*
X58000Y-66850D02*
X58000Y-67250D01*
X58000Y-67250D02*
X58000Y-69100D01*
X54000Y-66250D02*
X58000Y-66250D01*
X54000Y-66250D02*
X54000Y-65050D01*
X58000Y-66250D02*
X58000Y-66850D01*
X56180Y-66150D02*
X56180Y-65150D01*
X56180Y-65150D02*
X57780Y-65150D01*
X57780Y-65150D02*
X57780Y-66150D01*
X57780Y-66150D02*
X56180Y-66150D01*
X55810Y-66150D02*
X55810Y-65150D01*
X55810Y-66150D02*
X54210Y-66150D01*
X54210Y-66150D02*
X54210Y-65150D01*
X55810Y-65150D02*
X54210Y-65150D01*
X56340Y-65750D02*
X57540Y-65500D01*
X56390Y-65800D02*
X57590Y-65550D01*
X54370Y-65750D02*
X55571Y-65500D01*
X54420Y-65800D02*
X55620Y-65550D01*
X54210Y-67400D02*
X54360Y-67400D01*
X55810Y-67400D02*
X55660Y-67400D01*
X55660Y-67400D02*
X54360Y-67400D01*
X54000Y-67250D02*
X54360Y-67250D01*
X54360Y-67250D02*
X55660Y-67250D01*
X55660Y-67250D02*
X56330Y-67250D01*
X58000Y-67250D02*
X57630Y-67250D01*
X57630Y-67250D02*
X56330Y-67250D01*
X57780Y-67400D02*
X57630Y-67400D01*
X56180Y-67400D02*
X56330Y-67400D01*
X56330Y-67400D02*
X57630Y-67400D01*
X57557Y-65891D02*
X57574Y-65875D01*
X57590Y-65857D01*
X57603Y-65838D01*
X57615Y-65818D01*
X57625Y-65797D01*
X57634Y-65775D01*
X57640Y-65753D01*
X57645Y-65730D01*
X57647Y-65706D01*
X57647Y-65684D01*
X57646Y-65661D01*
X57642Y-65638D01*
X57636Y-65615D01*
X57629Y-65593D01*
X57619Y-65572D01*
X57608Y-65551D01*
X57595Y-65532D01*
X57580Y-65514D01*
X57578Y-65512D01*
X56400Y-65859D02*
X56468Y-65908D01*
X56539Y-65952D01*
X56615Y-65989D01*
X56693Y-66019D01*
X56773Y-66042D01*
X56855Y-66058D01*
X56939Y-66067D01*
X57021Y-66069D01*
X57105Y-66064D01*
X57188Y-66051D01*
X57269Y-66031D01*
X57348Y-66004D01*
X57425Y-65970D01*
X57498Y-65930D01*
X57568Y-65883D01*
X57575Y-65878D01*
X57579Y-65510D02*
X57530Y-65459D01*
X57478Y-65412D01*
X57421Y-65370D01*
X57361Y-65333D01*
X57298Y-65301D01*
X57232Y-65276D01*
X57164Y-65256D01*
X57095Y-65241D01*
X57025Y-65233D01*
X56955Y-65232D01*
X56885Y-65236D01*
X56815Y-65246D01*
X56747Y-65263D01*
X56680Y-65285D01*
X56615Y-65313D01*
X56553Y-65347D01*
X56494Y-65386D01*
X56439Y-65430D01*
X56388Y-65479D01*
X56341Y-65531D01*
X56361Y-65511D02*
X56348Y-65527D01*
X56336Y-65543D01*
X56326Y-65561D01*
X56317Y-65579D01*
X56309Y-65598D01*
X56304Y-65618D01*
X56300Y-65637D01*
X56298Y-65658D01*
X56298Y-65677D01*
X56299Y-65697D01*
X56302Y-65717D01*
X56307Y-65737D01*
X56314Y-65756D01*
X56322Y-65775D01*
X56332Y-65793D01*
X56343Y-65809D01*
X56356Y-65825D01*
X56370Y-65840D01*
X56386Y-65853D01*
X56402Y-65865D01*
X56417Y-65874D01*
X55588Y-65892D02*
X55605Y-65876D01*
X55620Y-65858D01*
X55634Y-65839D01*
X55646Y-65819D01*
X55656Y-65798D01*
X55665Y-65776D01*
X55671Y-65753D01*
X55676Y-65730D01*
X55678Y-65707D01*
X55678Y-65684D01*
X55677Y-65661D01*
X55673Y-65638D01*
X55667Y-65615D01*
X55660Y-65593D01*
X55650Y-65571D01*
X55639Y-65551D01*
X55626Y-65531D01*
X55611Y-65513D01*
X55609Y-65512D01*
X54431Y-65859D02*
X54499Y-65908D01*
X54570Y-65952D01*
X54646Y-65989D01*
X54724Y-66019D01*
X54804Y-66042D01*
X54886Y-66058D01*
X54970Y-66067D01*
X55052Y-66069D01*
X55136Y-66064D01*
X55219Y-66051D01*
X55300Y-66031D01*
X55379Y-66004D01*
X55456Y-65970D01*
X55529Y-65930D01*
X55599Y-65883D01*
X55606Y-65878D01*
X55612Y-65507D02*
X55563Y-65456D01*
X55510Y-65409D01*
X55453Y-65367D01*
X55392Y-65330D01*
X55329Y-65299D01*
X55263Y-65273D01*
X55195Y-65253D01*
X55126Y-65239D01*
X55056Y-65231D01*
X54986Y-65230D01*
X54915Y-65234D01*
X54845Y-65245D01*
X54777Y-65261D01*
X54710Y-65284D01*
X54645Y-65312D01*
X54583Y-65346D01*
X54524Y-65385D01*
X54468Y-65429D01*
X54417Y-65478D01*
X54370Y-65531D01*
X54391Y-65512D02*
X54377Y-65527D01*
X54366Y-65544D01*
X54355Y-65561D01*
X54346Y-65580D01*
X54339Y-65599D01*
X54334Y-65618D01*
X54330Y-65638D01*
X54328Y-65658D01*
X54328Y-65678D01*
X54329Y-65698D01*
X54332Y-65718D01*
X54337Y-65738D01*
X54344Y-65757D01*
X54353Y-65776D01*
X54362Y-65793D01*
X54374Y-65810D01*
X54387Y-65826D01*
X54401Y-65840D01*
X54416Y-65854D01*
X54433Y-65865D01*
X54448Y-65874D01*
G54D19*
X67510Y-68500D02*
X68510Y-68500D01*
X68510Y-68500D02*
X68510Y-67400D01*
X67510Y-67400D02*
X68510Y-67400D01*
X67510Y-68500D02*
X67510Y-67400D01*
X69480Y-68500D02*
X70480Y-68500D01*
X70480Y-68500D02*
X70480Y-67400D01*
X69480Y-67400D02*
X70480Y-67400D01*
X69480Y-68500D02*
X69480Y-67400D01*
G54D10*
X71000Y-65050D02*
X71000Y-66250D01*
X71000Y-65050D02*
X67000Y-65050D01*
X71000Y-65050D02*
X71200Y-65050D01*
X71200Y-65050D02*
X71200Y-66950D01*
X71200Y-66950D02*
X71000Y-66850D01*
X71200Y-69650D02*
X71000Y-69550D01*
X71000Y-69550D02*
X71000Y-69950D01*
X71200Y-69000D02*
X71000Y-69100D01*
X71000Y-69100D02*
X71000Y-69550D01*
X71200Y-69000D02*
X71200Y-69650D01*
X69180Y-69950D02*
X69180Y-69200D01*
X70780Y-67400D02*
X70780Y-69200D01*
X69180Y-69950D02*
X70780Y-69950D01*
X70780Y-69950D02*
X71000Y-69950D01*
X68810Y-69950D02*
X68810Y-69200D01*
X68810Y-69950D02*
X69180Y-69950D01*
X67210Y-67400D02*
X67210Y-69200D01*
X67000Y-69950D02*
X67210Y-69950D01*
X67210Y-69950D02*
X68810Y-69950D01*
X69180Y-69200D02*
X70780Y-69200D01*
X69180Y-69200D02*
X69180Y-67400D01*
X70780Y-69200D02*
X70780Y-69950D01*
X68810Y-69200D02*
X67210Y-69200D01*
X68810Y-69200D02*
X68810Y-67400D01*
X67210Y-69200D02*
X67210Y-69950D01*
X70630Y-68950D02*
X70630Y-67700D01*
X70630Y-68950D02*
X69330Y-68950D01*
X69330Y-68950D02*
X69330Y-67700D01*
X68660Y-68950D02*
X68660Y-67700D01*
X68660Y-68950D02*
X67360Y-68950D01*
X67360Y-68950D02*
X67360Y-67700D01*
X67360Y-67700D02*
X67510Y-67700D01*
X68660Y-67700D02*
X68510Y-67700D01*
X69330Y-67700D02*
X69480Y-67700D01*
X70630Y-67700D02*
X70480Y-67700D01*
X67000Y-69950D02*
X67000Y-67250D01*
X67000Y-67250D02*
X67000Y-66250D01*
X71000Y-66850D02*
X71000Y-67250D01*
X71000Y-67250D02*
X71000Y-69100D01*
X67000Y-66250D02*
X71000Y-66250D01*
X67000Y-66250D02*
X67000Y-65050D01*
X71000Y-66250D02*
X71000Y-66850D01*
X69180Y-66150D02*
X69180Y-65150D01*
X69180Y-65150D02*
X70780Y-65150D01*
X70780Y-65150D02*
X70780Y-66150D01*
X70780Y-66150D02*
X69180Y-66150D01*
X68810Y-66150D02*
X68810Y-65150D01*
X68810Y-66150D02*
X67210Y-66150D01*
X67210Y-66150D02*
X67210Y-65150D01*
X68810Y-65150D02*
X67210Y-65150D01*
X69340Y-65750D02*
X70540Y-65500D01*
X69390Y-65800D02*
X70590Y-65550D01*
X67370Y-65750D02*
X68571Y-65500D01*
X67420Y-65800D02*
X68620Y-65550D01*
X67210Y-67400D02*
X67360Y-67400D01*
X68810Y-67400D02*
X68660Y-67400D01*
X68660Y-67400D02*
X67360Y-67400D01*
X67000Y-67250D02*
X67360Y-67250D01*
X67360Y-67250D02*
X68660Y-67250D01*
X68660Y-67250D02*
X69330Y-67250D01*
X71000Y-67250D02*
X70630Y-67250D01*
X70630Y-67250D02*
X69330Y-67250D01*
X70780Y-67400D02*
X70630Y-67400D01*
X69180Y-67400D02*
X69330Y-67400D01*
X69330Y-67400D02*
X70630Y-67400D01*
X70557Y-65891D02*
X70574Y-65875D01*
X70590Y-65857D01*
X70603Y-65838D01*
X70615Y-65818D01*
X70625Y-65797D01*
X70634Y-65775D01*
X70640Y-65753D01*
X70645Y-65730D01*
X70647Y-65706D01*
X70647Y-65684D01*
X70646Y-65661D01*
X70642Y-65638D01*
X70636Y-65615D01*
X70629Y-65593D01*
X70619Y-65572D01*
X70608Y-65551D01*
X70595Y-65532D01*
X70580Y-65514D01*
X70578Y-65512D01*
X69400Y-65859D02*
X69468Y-65908D01*
X69539Y-65952D01*
X69615Y-65989D01*
X69693Y-66019D01*
X69773Y-66042D01*
X69855Y-66058D01*
X69939Y-66067D01*
X70021Y-66069D01*
X70105Y-66064D01*
X70188Y-66051D01*
X70269Y-66031D01*
X70348Y-66004D01*
X70425Y-65970D01*
X70498Y-65930D01*
X70568Y-65883D01*
X70575Y-65878D01*
X70579Y-65510D02*
X70530Y-65459D01*
X70478Y-65412D01*
X70421Y-65370D01*
X70361Y-65333D01*
X70298Y-65301D01*
X70232Y-65276D01*
X70164Y-65256D01*
X70095Y-65241D01*
X70025Y-65233D01*
X69955Y-65232D01*
X69885Y-65236D01*
X69815Y-65246D01*
X69747Y-65263D01*
X69680Y-65285D01*
X69615Y-65313D01*
X69553Y-65347D01*
X69494Y-65386D01*
X69439Y-65430D01*
X69388Y-65479D01*
X69341Y-65531D01*
X69361Y-65511D02*
X69348Y-65527D01*
X69336Y-65543D01*
X69326Y-65561D01*
X69317Y-65579D01*
X69309Y-65598D01*
X69304Y-65618D01*
X69300Y-65637D01*
X69298Y-65658D01*
X69298Y-65677D01*
X69299Y-65697D01*
X69302Y-65717D01*
X69307Y-65737D01*
X69314Y-65756D01*
X69322Y-65775D01*
X69332Y-65793D01*
X69343Y-65809D01*
X69356Y-65825D01*
X69370Y-65840D01*
X69386Y-65853D01*
X69402Y-65865D01*
X69417Y-65874D01*
X68588Y-65892D02*
X68605Y-65876D01*
X68620Y-65858D01*
X68634Y-65839D01*
X68646Y-65819D01*
X68656Y-65798D01*
X68665Y-65776D01*
X68671Y-65753D01*
X68676Y-65730D01*
X68678Y-65707D01*
X68678Y-65684D01*
X68677Y-65661D01*
X68673Y-65638D01*
X68667Y-65615D01*
X68660Y-65593D01*
X68650Y-65571D01*
X68639Y-65551D01*
X68626Y-65531D01*
X68611Y-65513D01*
X68609Y-65512D01*
X67431Y-65859D02*
X67499Y-65908D01*
X67570Y-65952D01*
X67646Y-65989D01*
X67724Y-66019D01*
X67804Y-66042D01*
X67886Y-66058D01*
X67970Y-66067D01*
X68052Y-66069D01*
X68136Y-66064D01*
X68219Y-66051D01*
X68300Y-66031D01*
X68379Y-66004D01*
X68456Y-65970D01*
X68529Y-65930D01*
X68599Y-65883D01*
X68606Y-65878D01*
X68612Y-65507D02*
X68563Y-65456D01*
X68510Y-65409D01*
X68453Y-65367D01*
X68392Y-65330D01*
X68329Y-65299D01*
X68263Y-65273D01*
X68195Y-65253D01*
X68126Y-65239D01*
X68056Y-65231D01*
X67986Y-65230D01*
X67915Y-65234D01*
X67845Y-65245D01*
X67777Y-65261D01*
X67710Y-65284D01*
X67645Y-65312D01*
X67583Y-65346D01*
X67524Y-65385D01*
X67468Y-65429D01*
X67417Y-65478D01*
X67370Y-65531D01*
X67391Y-65512D02*
X67377Y-65527D01*
X67366Y-65544D01*
X67355Y-65561D01*
X67346Y-65580D01*
X67339Y-65599D01*
X67334Y-65618D01*
X67330Y-65638D01*
X67328Y-65658D01*
X67328Y-65678D01*
X67329Y-65698D01*
X67332Y-65718D01*
X67337Y-65738D01*
X67344Y-65757D01*
X67353Y-65776D01*
X67362Y-65793D01*
X67374Y-65810D01*
X67387Y-65826D01*
X67401Y-65840D01*
X67416Y-65854D01*
X67433Y-65865D01*
X67448Y-65874D01*
G54D13*
X51500Y-27500D02*
X51500Y-27500D01*
X51500Y-27500D02*
X51000Y-27500D01*
X51000Y-27500D02*
X51000Y-26500D01*
X51000Y-26500D02*
X51500Y-26500D01*
X51500Y-28000D02*
X42500Y-28000D01*
X42500Y-28000D02*
X42500Y-26000D01*
X42500Y-26000D02*
X51500Y-26000D01*
X51500Y-26000D02*
X51500Y-28000D01*
X50500Y-26500D02*
X50500Y-26500D01*
X50500Y-26500D02*
X51000Y-26500D01*
X51000Y-26500D02*
X51000Y-27500D01*
X51000Y-27500D02*
X50500Y-27500D01*
X50500Y-26000D02*
X59500Y-26000D01*
X59500Y-26000D02*
X59500Y-28000D01*
X59500Y-28000D02*
X50500Y-28000D01*
X50500Y-28000D02*
X50500Y-26000D01*
G54D11*
X88500Y-41500D02*
X87500Y-41500D01*
X87500Y-41500D02*
X87500Y-35500D01*
X87500Y-35500D02*
X88500Y-35500D01*
X88500Y-35500D02*
X88500Y-41500D01*
X88500Y-40500D02*
X87500Y-40500D01*
G54D13*
X81300Y-56800D02*
X81300Y-57600D01*
X81300Y-55300D02*
X81300Y-55700D01*
X81300Y-53400D02*
X81300Y-54150D01*
X83200Y-54900D02*
X82750Y-54900D01*
X83200Y-56100D02*
X82750Y-56100D01*
X82750Y-57600D02*
X81300Y-57600D01*
X81300Y-53400D02*
X82750Y-53400D01*
X83200Y-57600D02*
X82750Y-57600D01*
X82750Y-57600D02*
X82750Y-53400D01*
X82750Y-53400D02*
X83200Y-53400D01*
X83200Y-55500D02*
X83200Y-53400D01*
X83200Y-55500D02*
X83200Y-57600D01*
X33400Y-22500D02*
X33382Y-22674D01*
X33332Y-22842D01*
X33249Y-22998D01*
X33138Y-23134D01*
X33003Y-23246D01*
X32848Y-23329D01*
X32680Y-23381D01*
X32506Y-23399D01*
X32332Y-23384D01*
X32163Y-23334D01*
X32008Y-23253D01*
X31871Y-23143D01*
X31758Y-23008D01*
X31673Y-22854D01*
X31620Y-22687D01*
X31601Y-22512D01*
X31615Y-22338D01*
X31664Y-22169D01*
X31744Y-22013D01*
X31853Y-21875D01*
X31987Y-21761D01*
X32140Y-21676D01*
X32307Y-21621D01*
X32482Y-21601D01*
X32656Y-21614D01*
X32825Y-21661D01*
X32982Y-21741D01*
X33120Y-21849D01*
X33235Y-21982D01*
X33322Y-22134D01*
X33377Y-22301D01*
X33399Y-22475D01*
X33400Y-22500D01*
X88400Y-22500D02*
X88382Y-22674D01*
X88332Y-22842D01*
X88249Y-22998D01*
X88138Y-23134D01*
X88003Y-23246D01*
X87848Y-23329D01*
X87680Y-23381D01*
X87506Y-23399D01*
X87332Y-23384D01*
X87163Y-23334D01*
X87008Y-23253D01*
X86871Y-23143D01*
X86758Y-23008D01*
X86673Y-22854D01*
X86620Y-22687D01*
X86601Y-22512D01*
X86615Y-22338D01*
X86664Y-22169D01*
X86744Y-22013D01*
X86853Y-21875D01*
X86987Y-21761D01*
X87140Y-21676D01*
X87307Y-21621D01*
X87482Y-21601D01*
X87656Y-21614D01*
X87825Y-21661D01*
X87982Y-21741D01*
X88120Y-21849D01*
X88235Y-21982D01*
X88322Y-22134D01*
X88377Y-22301D01*
X88399Y-22475D01*
X88400Y-22500D01*
X33400Y-67500D02*
X33382Y-67674D01*
X33332Y-67842D01*
X33249Y-67998D01*
X33138Y-68134D01*
X33003Y-68246D01*
X32848Y-68329D01*
X32680Y-68381D01*
X32506Y-68399D01*
X32332Y-68384D01*
X32163Y-68334D01*
X32008Y-68253D01*
X31871Y-68143D01*
X31758Y-68008D01*
X31673Y-67854D01*
X31620Y-67687D01*
X31601Y-67512D01*
X31615Y-67338D01*
X31664Y-67169D01*
X31744Y-67013D01*
X31853Y-66875D01*
X31987Y-66761D01*
X32140Y-66676D01*
X32307Y-66621D01*
X32482Y-66601D01*
X32656Y-66614D01*
X32825Y-66661D01*
X32982Y-66741D01*
X33120Y-66849D01*
X33235Y-66982D01*
X33322Y-67134D01*
X33377Y-67301D01*
X33399Y-67475D01*
X33400Y-67500D01*
X88400Y-67500D02*
X88382Y-67674D01*
X88332Y-67842D01*
X88249Y-67998D01*
X88138Y-68134D01*
X88003Y-68246D01*
X87848Y-68329D01*
X87680Y-68381D01*
X87506Y-68399D01*
X87332Y-68384D01*
X87163Y-68334D01*
X87008Y-68253D01*
X86871Y-68143D01*
X86758Y-68008D01*
X86673Y-67854D01*
X86620Y-67687D01*
X86601Y-67512D01*
X86615Y-67338D01*
X86664Y-67169D01*
X86744Y-67013D01*
X86853Y-66875D01*
X86987Y-66761D01*
X87140Y-66676D01*
X87307Y-66621D01*
X87482Y-66601D01*
X87656Y-66614D01*
X87825Y-66661D01*
X87982Y-66741D01*
X88120Y-66849D01*
X88235Y-66982D01*
X88322Y-67134D01*
X88377Y-67301D01*
X88399Y-67475D01*
X88400Y-67500D01*
G54D21*
X56980Y-23775D02*
X56980Y-23094D01*
X57143Y-23094D01*
X57184Y-23127D01*
X57204Y-23159D01*
X57224Y-23224D01*
X57224Y-23321D01*
X57204Y-23386D01*
X57184Y-23418D01*
X57143Y-23451D01*
X56980Y-23451D01*
X57632Y-23775D02*
X57388Y-23775D01*
X57510Y-23775D02*
X57510Y-23094D01*
X57469Y-23191D01*
X57428Y-23256D01*
X57388Y-23289D01*
X58040Y-23775D02*
X57796Y-23775D01*
X57918Y-23775D02*
X57918Y-23094D01*
X57877Y-23191D01*
X57836Y-23256D01*
X57796Y-23289D01*
G54D12*
X52153Y-23686D02*
X52134Y-23714D01*
X52077Y-23743D01*
X52039Y-23743D01*
X51981Y-23714D01*
X51943Y-23657D01*
X51924Y-23600D01*
X51905Y-23486D01*
X51905Y-23400D01*
X51924Y-23286D01*
X51943Y-23229D01*
X51981Y-23171D01*
X52039Y-23143D01*
X52077Y-23143D01*
X52134Y-23171D01*
X52153Y-23200D01*
X52400Y-23143D02*
X52477Y-23143D01*
X52515Y-23171D01*
X52553Y-23229D01*
X52572Y-23343D01*
X52572Y-23543D01*
X52553Y-23657D01*
X52515Y-23714D01*
X52477Y-23743D01*
X52400Y-23743D01*
X52362Y-23714D01*
X52324Y-23657D01*
X52305Y-23543D01*
X52305Y-23343D01*
X52324Y-23229D01*
X52362Y-23171D01*
X52400Y-23143D01*
X52743Y-23743D02*
X52743Y-23143D01*
X52972Y-23743D01*
X52972Y-23143D01*
X53162Y-23743D02*
X53162Y-23143D01*
X53391Y-23743D01*
X53391Y-23143D01*
X53486Y-23800D02*
X53791Y-23800D01*
X53943Y-23400D02*
X53905Y-23371D01*
X53886Y-23343D01*
X53867Y-23286D01*
X53867Y-23257D01*
X53886Y-23200D01*
X53905Y-23171D01*
X53943Y-23143D01*
X54020Y-23143D01*
X54058Y-23171D01*
X54077Y-23200D01*
X54096Y-23257D01*
X54096Y-23286D01*
X54077Y-23343D01*
X54058Y-23371D01*
X54020Y-23400D01*
X53943Y-23400D01*
X53905Y-23429D01*
X53886Y-23457D01*
X53867Y-23514D01*
X53867Y-23629D01*
X53886Y-23686D01*
X53905Y-23714D01*
X53943Y-23743D01*
X54020Y-23743D01*
X54058Y-23714D01*
X54077Y-23686D01*
X54096Y-23629D01*
X54096Y-23514D01*
X54077Y-23457D01*
X54058Y-23429D01*
X54020Y-23400D01*
G54D21*
X48980Y-23775D02*
X48980Y-23094D01*
X49143Y-23094D01*
X49184Y-23127D01*
X49204Y-23159D01*
X49224Y-23224D01*
X49224Y-23321D01*
X49204Y-23386D01*
X49184Y-23418D01*
X49143Y-23451D01*
X48980Y-23451D01*
X49632Y-23775D02*
X49388Y-23775D01*
X49510Y-23775D02*
X49510Y-23094D01*
X49469Y-23191D01*
X49428Y-23256D01*
X49388Y-23289D01*
X49897Y-23094D02*
X49938Y-23094D01*
X49979Y-23127D01*
X49999Y-23159D01*
X50020Y-23224D01*
X50040Y-23354D01*
X50040Y-23516D01*
X50020Y-23645D01*
X49999Y-23710D01*
X49979Y-23743D01*
X49938Y-23775D01*
X49897Y-23775D01*
X49857Y-23743D01*
X49836Y-23710D01*
X49816Y-23645D01*
X49796Y-23516D01*
X49796Y-23354D01*
X49816Y-23224D01*
X49836Y-23159D01*
X49857Y-23127D01*
X49897Y-23094D01*
G54D12*
X44153Y-23686D02*
X44134Y-23714D01*
X44077Y-23743D01*
X44039Y-23743D01*
X43981Y-23714D01*
X43943Y-23657D01*
X43924Y-23600D01*
X43905Y-23486D01*
X43905Y-23400D01*
X43924Y-23286D01*
X43943Y-23229D01*
X43981Y-23171D01*
X44039Y-23143D01*
X44077Y-23143D01*
X44134Y-23171D01*
X44153Y-23200D01*
X44400Y-23143D02*
X44477Y-23143D01*
X44515Y-23171D01*
X44553Y-23229D01*
X44572Y-23343D01*
X44572Y-23543D01*
X44553Y-23657D01*
X44515Y-23714D01*
X44477Y-23743D01*
X44400Y-23743D01*
X44362Y-23714D01*
X44324Y-23657D01*
X44305Y-23543D01*
X44305Y-23343D01*
X44324Y-23229D01*
X44362Y-23171D01*
X44400Y-23143D01*
X44743Y-23743D02*
X44743Y-23143D01*
X44972Y-23743D01*
X44972Y-23143D01*
X45162Y-23743D02*
X45162Y-23143D01*
X45391Y-23743D01*
X45391Y-23143D01*
X45486Y-23800D02*
X45791Y-23800D01*
X45943Y-23400D02*
X45905Y-23371D01*
X45886Y-23343D01*
X45867Y-23286D01*
X45867Y-23257D01*
X45886Y-23200D01*
X45905Y-23171D01*
X45943Y-23143D01*
X46020Y-23143D01*
X46058Y-23171D01*
X46077Y-23200D01*
X46096Y-23257D01*
X46096Y-23286D01*
X46077Y-23343D01*
X46058Y-23371D01*
X46020Y-23400D01*
X45943Y-23400D01*
X45905Y-23429D01*
X45886Y-23457D01*
X45867Y-23514D01*
X45867Y-23629D01*
X45886Y-23686D01*
X45905Y-23714D01*
X45943Y-23743D01*
X46020Y-23743D01*
X46058Y-23714D01*
X46077Y-23686D01*
X46096Y-23629D01*
X46096Y-23514D01*
X46077Y-23457D01*
X46058Y-23429D01*
X46020Y-23400D01*
G54D11*
X81943Y-63743D02*
X81743Y-63457D01*
X81600Y-63743D02*
X81600Y-63143D01*
X81828Y-63143D01*
X81886Y-63171D01*
X81914Y-63200D01*
X81943Y-63257D01*
X81943Y-63343D01*
X81914Y-63400D01*
X81886Y-63429D01*
X81828Y-63457D01*
X81600Y-63457D01*
X82171Y-63714D02*
X82257Y-63743D01*
X82400Y-63743D01*
X82457Y-63714D01*
X82486Y-63686D01*
X82514Y-63629D01*
X82514Y-63571D01*
X82486Y-63514D01*
X82457Y-63486D01*
X82400Y-63457D01*
X82286Y-63429D01*
X82228Y-63400D01*
X82200Y-63371D01*
X82171Y-63314D01*
X82171Y-63257D01*
X82200Y-63200D01*
X82228Y-63171D01*
X82286Y-63143D01*
X82428Y-63143D01*
X82514Y-63171D01*
X82771Y-63743D02*
X82771Y-63143D01*
X82771Y-63429D02*
X83114Y-63429D01*
X83114Y-63743D02*
X83114Y-63143D01*
X83400Y-63143D02*
X83400Y-63629D01*
X83428Y-63686D01*
X83457Y-63714D01*
X83514Y-63743D01*
X83628Y-63743D01*
X83686Y-63714D01*
X83714Y-63686D01*
X83743Y-63629D01*
X83743Y-63143D01*
X84029Y-63743D02*
X84029Y-63143D01*
X84372Y-63743D01*
X84372Y-63143D01*
X84572Y-63143D02*
X84915Y-63143D01*
X84744Y-63743D02*
X84744Y-63143D01*
X85429Y-63743D02*
X85086Y-63743D01*
X85258Y-63743D02*
X85258Y-63143D01*
X85201Y-63229D01*
X85143Y-63286D01*
X85086Y-63314D01*
X82472Y-60143D02*
X82529Y-60143D01*
X82586Y-60171D01*
X82615Y-60200D01*
X82644Y-60257D01*
X82672Y-60371D01*
X82672Y-60514D01*
X82644Y-60629D01*
X82615Y-60686D01*
X82586Y-60714D01*
X82529Y-60743D01*
X82472Y-60743D01*
X82415Y-60714D01*
X82386Y-60686D01*
X82358Y-60629D01*
X82329Y-60514D01*
X82329Y-60371D01*
X82358Y-60257D01*
X82386Y-60200D01*
X82415Y-60171D01*
X82472Y-60143D01*
X82929Y-60686D02*
X82957Y-60714D01*
X82929Y-60743D01*
X82900Y-60714D01*
X82929Y-60686D01*
X82929Y-60743D01*
X83329Y-60143D02*
X83386Y-60143D01*
X83443Y-60171D01*
X83472Y-60200D01*
X83501Y-60257D01*
X83529Y-60371D01*
X83529Y-60514D01*
X83501Y-60629D01*
X83472Y-60686D01*
X83443Y-60714D01*
X83386Y-60743D01*
X83329Y-60743D01*
X83272Y-60714D01*
X83243Y-60686D01*
X83215Y-60629D01*
X83186Y-60514D01*
X83186Y-60371D01*
X83215Y-60257D01*
X83243Y-60200D01*
X83272Y-60171D01*
X83329Y-60143D01*
X83900Y-60143D02*
X83957Y-60143D01*
X84014Y-60171D01*
X84043Y-60200D01*
X84072Y-60257D01*
X84100Y-60371D01*
X84100Y-60514D01*
X84072Y-60629D01*
X84043Y-60686D01*
X84014Y-60714D01*
X83957Y-60743D01*
X83900Y-60743D01*
X83843Y-60714D01*
X83814Y-60686D01*
X83786Y-60629D01*
X83757Y-60514D01*
X83757Y-60371D01*
X83786Y-60257D01*
X83814Y-60200D01*
X83843Y-60171D01*
X83900Y-60143D01*
X84643Y-60143D02*
X84357Y-60143D01*
X84328Y-60429D01*
X84357Y-60400D01*
X84414Y-60371D01*
X84557Y-60371D01*
X84614Y-60400D01*
X84643Y-60429D01*
X84671Y-60486D01*
X84671Y-60629D01*
X84643Y-60686D01*
X84614Y-60714D01*
X84557Y-60743D01*
X84414Y-60743D01*
X84357Y-60714D01*
X84328Y-60686D01*
G54D10*
X70405Y-34112D02*
X70405Y-33712D01*
X70634Y-34112D02*
X70462Y-33883D01*
X70634Y-33712D02*
X70405Y-33940D01*
X70786Y-33750D02*
X70805Y-33731D01*
X70843Y-33712D01*
X70939Y-33712D01*
X70977Y-33731D01*
X70996Y-33750D01*
X71015Y-33788D01*
X71015Y-33826D01*
X70996Y-33883D01*
X70767Y-34112D01*
X71015Y-34112D01*
X70405Y-35712D02*
X70405Y-35312D01*
X70634Y-35712D02*
X70462Y-35483D01*
X70634Y-35312D02*
X70405Y-35540D01*
X71015Y-35712D02*
X70786Y-35712D01*
X70900Y-35712D02*
X70900Y-35312D01*
X70862Y-35369D01*
X70824Y-35407D01*
X70786Y-35426D01*
X70405Y-32512D02*
X70405Y-32112D01*
X70634Y-32512D02*
X70462Y-32283D01*
X70634Y-32112D02*
X70405Y-32340D01*
X70767Y-32112D02*
X71015Y-32112D01*
X70881Y-32264D01*
X70939Y-32264D01*
X70977Y-32283D01*
X70996Y-32302D01*
X71015Y-32340D01*
X71015Y-32436D01*
X70996Y-32474D01*
X70977Y-32493D01*
X70939Y-32512D01*
X70824Y-32512D01*
X70786Y-32493D01*
X70767Y-32474D01*
G54D16*
X39705Y-66812D02*
X39705Y-66412D01*
X39858Y-66412D01*
X39896Y-66431D01*
X39915Y-66450D01*
X39934Y-66488D01*
X39934Y-66545D01*
X39915Y-66583D01*
X39896Y-66602D01*
X39858Y-66621D01*
X39705Y-66621D01*
X40315Y-66812D02*
X40086Y-66812D01*
X40200Y-66812D02*
X40200Y-66412D01*
X40162Y-66469D01*
X40124Y-66507D01*
X40086Y-66526D01*
X50205Y-66812D02*
X50205Y-66412D01*
X50358Y-66412D01*
X50396Y-66431D01*
X50415Y-66450D01*
X50434Y-66488D01*
X50434Y-66545D01*
X50415Y-66583D01*
X50396Y-66602D01*
X50358Y-66621D01*
X50205Y-66621D01*
X50586Y-66450D02*
X50605Y-66431D01*
X50643Y-66412D01*
X50739Y-66412D01*
X50777Y-66431D01*
X50796Y-66450D01*
X50815Y-66488D01*
X50815Y-66526D01*
X50796Y-66583D01*
X50567Y-66812D01*
X50815Y-66812D01*
G54D22*
X87778Y-26621D02*
X87778Y-26321D01*
X87850Y-26321D01*
X87893Y-26336D01*
X87921Y-26364D01*
X87936Y-26393D01*
X87950Y-26450D01*
X87950Y-26493D01*
X87936Y-26550D01*
X87921Y-26579D01*
X87893Y-26607D01*
X87850Y-26621D01*
X87778Y-26621D01*
X88050Y-26321D02*
X88250Y-26321D01*
X88121Y-26621D01*
X87807Y-29621D02*
X87664Y-29621D01*
X87664Y-29321D01*
X87907Y-29464D02*
X88007Y-29464D01*
X88050Y-29621D02*
X87907Y-29621D01*
X87907Y-29321D01*
X88050Y-29321D01*
X88178Y-29621D02*
X88178Y-29321D01*
X88250Y-29321D01*
X88293Y-29336D01*
X88321Y-29364D01*
X88336Y-29393D01*
X88350Y-29450D01*
X88350Y-29493D01*
X88336Y-29550D01*
X88321Y-29579D01*
X88293Y-29607D01*
X88250Y-29621D01*
X88178Y-29621D01*
X87778Y-33621D02*
X87778Y-33321D01*
X87850Y-33321D01*
X87893Y-33336D01*
X87921Y-33364D01*
X87936Y-33393D01*
X87950Y-33450D01*
X87950Y-33493D01*
X87936Y-33550D01*
X87921Y-33579D01*
X87893Y-33607D01*
X87850Y-33621D01*
X87778Y-33621D01*
X88121Y-33450D02*
X88093Y-33436D01*
X88078Y-33421D01*
X88064Y-33393D01*
X88064Y-33379D01*
X88078Y-33350D01*
X88093Y-33336D01*
X88121Y-33321D01*
X88178Y-33321D01*
X88207Y-33336D01*
X88221Y-33350D01*
X88236Y-33379D01*
X88236Y-33393D01*
X88221Y-33421D01*
X88207Y-33436D01*
X88178Y-33450D01*
X88121Y-33450D01*
X88093Y-33464D01*
X88078Y-33479D01*
X88064Y-33507D01*
X88064Y-33564D01*
X88078Y-33593D01*
X88093Y-33607D01*
X88121Y-33621D01*
X88178Y-33621D01*
X88207Y-33607D01*
X88221Y-33593D01*
X88236Y-33564D01*
X88236Y-33507D01*
X88221Y-33479D01*
X88207Y-33464D01*
X88178Y-33450D01*
X87807Y-30621D02*
X87664Y-30621D01*
X87664Y-30321D01*
X87907Y-30464D02*
X88007Y-30464D01*
X88050Y-30621D02*
X87907Y-30621D01*
X87907Y-30321D01*
X88050Y-30321D01*
X88178Y-30621D02*
X88178Y-30321D01*
X88250Y-30321D01*
X88293Y-30336D01*
X88321Y-30364D01*
X88336Y-30393D01*
X88350Y-30450D01*
X88350Y-30493D01*
X88336Y-30550D01*
X88321Y-30579D01*
X88293Y-30607D01*
X88250Y-30621D01*
X88178Y-30621D01*
G54D16*
X74543Y-48399D02*
X74543Y-48685D01*
X73943Y-48685D01*
X74543Y-47885D02*
X74543Y-48228D01*
X74543Y-48056D02*
X73943Y-48056D01*
X74029Y-48113D01*
X74086Y-48171D01*
X74114Y-48228D01*
X72450Y-49269D02*
X72426Y-49245D01*
X72402Y-49197D01*
X72402Y-49078D01*
X72426Y-49031D01*
X72450Y-49007D01*
X72498Y-48983D01*
X72545Y-48983D01*
X72617Y-49007D01*
X72902Y-49293D01*
X72902Y-48983D01*
X72402Y-48674D02*
X72402Y-48626D01*
X72426Y-48578D01*
X72450Y-48555D01*
X72498Y-48531D01*
X72593Y-48507D01*
X72712Y-48507D01*
X72807Y-48531D01*
X72855Y-48555D01*
X72879Y-48578D01*
X72902Y-48626D01*
X72902Y-48674D01*
X72879Y-48721D01*
X72855Y-48745D01*
X72807Y-48769D01*
X72712Y-48793D01*
X72593Y-48793D01*
X72498Y-48769D01*
X72450Y-48745D01*
X72426Y-48721D01*
X72402Y-48674D01*
X72569Y-48079D02*
X72902Y-48079D01*
X72569Y-48293D02*
X72831Y-48293D01*
X72879Y-48269D01*
X72902Y-48222D01*
X72902Y-48150D01*
X72879Y-48102D01*
X72855Y-48079D01*
X72902Y-47841D02*
X72402Y-47841D01*
X72640Y-47841D02*
X72640Y-47555D01*
X72902Y-47555D02*
X72402Y-47555D01*
X83543Y-50399D02*
X83543Y-50685D01*
X82943Y-50685D01*
X83000Y-50228D02*
X82971Y-50199D01*
X82943Y-50142D01*
X82943Y-49999D01*
X82971Y-49942D01*
X83000Y-49913D01*
X83057Y-49885D01*
X83114Y-49885D01*
X83200Y-49913D01*
X83543Y-50256D01*
X83543Y-49885D01*
X81902Y-51221D02*
X81902Y-51507D01*
X81902Y-51364D02*
X81402Y-51364D01*
X81474Y-51412D01*
X81521Y-51459D01*
X81545Y-51507D01*
X81402Y-50769D02*
X81402Y-51007D01*
X81640Y-51031D01*
X81617Y-51007D01*
X81593Y-50959D01*
X81593Y-50840D01*
X81617Y-50793D01*
X81640Y-50769D01*
X81688Y-50745D01*
X81807Y-50745D01*
X81855Y-50769D01*
X81879Y-50793D01*
X81902Y-50840D01*
X81902Y-50959D01*
X81879Y-51007D01*
X81855Y-51031D01*
X81402Y-50436D02*
X81402Y-50388D01*
X81426Y-50340D01*
X81450Y-50317D01*
X81498Y-50293D01*
X81593Y-50269D01*
X81712Y-50269D01*
X81807Y-50293D01*
X81855Y-50317D01*
X81879Y-50340D01*
X81902Y-50388D01*
X81902Y-50436D01*
X81879Y-50483D01*
X81855Y-50507D01*
X81807Y-50531D01*
X81712Y-50555D01*
X81593Y-50555D01*
X81498Y-50531D01*
X81450Y-50507D01*
X81426Y-50483D01*
X81402Y-50436D01*
X81569Y-49841D02*
X81902Y-49841D01*
X81569Y-50055D02*
X81831Y-50055D01*
X81879Y-50031D01*
X81902Y-49984D01*
X81902Y-49912D01*
X81879Y-49864D01*
X81855Y-49841D01*
X81902Y-49603D02*
X81402Y-49603D01*
X81640Y-49603D02*
X81640Y-49317D01*
X81902Y-49317D02*
X81402Y-49317D01*
G54D23*
X52143Y-38557D02*
X52629Y-38557D01*
X52686Y-38535D01*
X52714Y-38514D01*
X52743Y-38471D01*
X52743Y-38385D01*
X52714Y-38343D01*
X52686Y-38321D01*
X52629Y-38300D01*
X52143Y-38300D01*
X52743Y-37850D02*
X52743Y-38107D01*
X52743Y-37979D02*
X52143Y-37979D01*
X52229Y-38022D01*
X52286Y-38064D01*
X52314Y-38107D01*
X52143Y-37571D02*
X52143Y-37528D01*
X52171Y-37485D01*
X52200Y-37464D01*
X52257Y-37443D01*
X52371Y-37421D01*
X52514Y-37421D01*
X52629Y-37443D01*
X52686Y-37464D01*
X52714Y-37485D01*
X52743Y-37528D01*
X52743Y-37571D01*
X52714Y-37614D01*
X52686Y-37635D01*
X52629Y-37657D01*
X52514Y-37678D01*
X52371Y-37678D01*
X52257Y-37657D01*
X52200Y-37635D01*
X52171Y-37614D01*
X52143Y-37571D01*
X52743Y-46922D02*
X52143Y-46922D01*
X52571Y-46772D01*
X52143Y-46622D01*
X52743Y-46622D01*
X52686Y-46151D02*
X52714Y-46172D01*
X52743Y-46236D01*
X52743Y-46279D01*
X52714Y-46344D01*
X52657Y-46386D01*
X52600Y-46408D01*
X52486Y-46429D01*
X52400Y-46429D01*
X52286Y-46408D01*
X52229Y-46386D01*
X52171Y-46344D01*
X52143Y-46279D01*
X52143Y-46236D01*
X52171Y-46172D01*
X52200Y-46151D01*
X52743Y-45958D02*
X52143Y-45958D01*
X52143Y-45786D01*
X52171Y-45744D01*
X52200Y-45722D01*
X52257Y-45701D01*
X52343Y-45701D01*
X52400Y-45722D01*
X52429Y-45744D01*
X52457Y-45786D01*
X52457Y-45958D01*
X52200Y-45529D02*
X52171Y-45508D01*
X52143Y-45465D01*
X52143Y-45358D01*
X52171Y-45315D01*
X52200Y-45294D01*
X52257Y-45272D01*
X52314Y-45272D01*
X52400Y-45294D01*
X52743Y-45551D01*
X52743Y-45272D01*
X52143Y-45122D02*
X52143Y-44843D01*
X52371Y-44993D01*
X52371Y-44929D01*
X52400Y-44886D01*
X52429Y-44865D01*
X52486Y-44843D01*
X52629Y-44843D01*
X52686Y-44865D01*
X52714Y-44886D01*
X52743Y-44929D01*
X52743Y-45057D01*
X52714Y-45100D01*
X52686Y-45122D01*
X52714Y-44671D02*
X52743Y-44607D01*
X52743Y-44500D01*
X52714Y-44457D01*
X52686Y-44436D01*
X52629Y-44414D01*
X52571Y-44414D01*
X52514Y-44436D01*
X52486Y-44457D01*
X52457Y-44500D01*
X52429Y-44586D01*
X52400Y-44628D01*
X52371Y-44650D01*
X52314Y-44671D01*
X52257Y-44671D01*
X52200Y-44650D01*
X52171Y-44628D01*
X52143Y-44586D01*
X52143Y-44478D01*
X52171Y-44414D01*
X52743Y-43985D02*
X52743Y-44242D01*
X52743Y-44114D02*
X52143Y-44114D01*
X52229Y-44157D01*
X52286Y-44199D01*
X52314Y-44242D01*
X52143Y-43835D02*
X52143Y-43535D01*
X52743Y-43728D01*
X35157Y-57143D02*
X35157Y-57629D01*
X35179Y-57686D01*
X35200Y-57714D01*
X35243Y-57743D01*
X35329Y-57743D01*
X35371Y-57714D01*
X35393Y-57686D01*
X35414Y-57629D01*
X35414Y-57143D01*
X35585Y-57143D02*
X35885Y-57143D01*
X35692Y-57743D01*
X41078Y-57743D02*
X41078Y-57143D01*
X41228Y-57571D01*
X41378Y-57143D01*
X41378Y-57743D01*
X41849Y-57686D02*
X41828Y-57714D01*
X41764Y-57743D01*
X41721Y-57743D01*
X41656Y-57714D01*
X41614Y-57657D01*
X41592Y-57600D01*
X41571Y-57486D01*
X41571Y-57400D01*
X41592Y-57286D01*
X41614Y-57229D01*
X41656Y-57171D01*
X41721Y-57143D01*
X41764Y-57143D01*
X41828Y-57171D01*
X41849Y-57200D01*
X42042Y-57743D02*
X42042Y-57143D01*
X42214Y-57143D01*
X42256Y-57171D01*
X42278Y-57200D01*
X42299Y-57257D01*
X42299Y-57343D01*
X42278Y-57400D01*
X42256Y-57429D01*
X42214Y-57457D01*
X42042Y-57457D01*
X42471Y-57200D02*
X42492Y-57171D01*
X42535Y-57143D01*
X42642Y-57143D01*
X42685Y-57171D01*
X42706Y-57200D01*
X42728Y-57257D01*
X42728Y-57314D01*
X42706Y-57400D01*
X42449Y-57743D01*
X42728Y-57743D01*
X42878Y-57143D02*
X43157Y-57143D01*
X43007Y-57371D01*
X43071Y-57371D01*
X43114Y-57400D01*
X43135Y-57429D01*
X43157Y-57486D01*
X43157Y-57629D01*
X43135Y-57686D01*
X43114Y-57714D01*
X43071Y-57743D01*
X42943Y-57743D01*
X42900Y-57714D01*
X42878Y-57686D01*
X43329Y-57714D02*
X43393Y-57743D01*
X43500Y-57743D01*
X43543Y-57714D01*
X43564Y-57686D01*
X43586Y-57629D01*
X43586Y-57571D01*
X43564Y-57514D01*
X43543Y-57486D01*
X43500Y-57457D01*
X43414Y-57429D01*
X43372Y-57400D01*
X43350Y-57371D01*
X43329Y-57314D01*
X43329Y-57257D01*
X43350Y-57200D01*
X43372Y-57171D01*
X43414Y-57143D01*
X43522Y-57143D01*
X43586Y-57171D01*
X44015Y-57743D02*
X43758Y-57743D01*
X43886Y-57743D02*
X43886Y-57143D01*
X43843Y-57229D01*
X43801Y-57286D01*
X43758Y-57314D01*
X44165Y-57143D02*
X44465Y-57143D01*
X44272Y-57743D01*
X52657Y-60583D02*
X52657Y-61150D01*
X52679Y-61217D01*
X52700Y-61250D01*
X52743Y-61283D01*
X52829Y-61283D01*
X52871Y-61250D01*
X52893Y-61217D01*
X52914Y-61150D01*
X52914Y-60583D01*
X53321Y-60817D02*
X53321Y-61283D01*
X53214Y-60550D02*
X53107Y-61050D01*
X53385Y-61050D01*
X55042Y-62283D02*
X55042Y-61583D01*
X55192Y-62083D01*
X55342Y-61583D01*
X55342Y-62283D01*
X55813Y-62217D02*
X55792Y-62250D01*
X55728Y-62283D01*
X55685Y-62283D01*
X55620Y-62250D01*
X55578Y-62183D01*
X55556Y-62117D01*
X55535Y-61983D01*
X55535Y-61883D01*
X55556Y-61750D01*
X55578Y-61683D01*
X55620Y-61617D01*
X55685Y-61583D01*
X55728Y-61583D01*
X55792Y-61617D01*
X55813Y-61650D01*
X56006Y-62283D02*
X56006Y-61583D01*
X56178Y-61583D01*
X56220Y-61617D01*
X56242Y-61650D01*
X56263Y-61717D01*
X56263Y-61817D01*
X56242Y-61883D01*
X56220Y-61917D01*
X56178Y-61950D01*
X56006Y-61950D01*
X56413Y-61583D02*
X56692Y-61583D01*
X56542Y-61850D01*
X56606Y-61850D01*
X56649Y-61883D01*
X56670Y-61917D01*
X56692Y-61983D01*
X56692Y-62150D01*
X56670Y-62217D01*
X56649Y-62250D01*
X56606Y-62283D01*
X56478Y-62283D01*
X56435Y-62250D01*
X56413Y-62217D01*
X56864Y-61650D02*
X56885Y-61617D01*
X56928Y-61583D01*
X57035Y-61583D01*
X57078Y-61617D01*
X57099Y-61650D01*
X57121Y-61717D01*
X57121Y-61783D01*
X57099Y-61883D01*
X56842Y-62283D01*
X57121Y-62283D01*
X57400Y-61583D02*
X57443Y-61583D01*
X57486Y-61617D01*
X57507Y-61650D01*
X57528Y-61717D01*
X57550Y-61850D01*
X57550Y-62017D01*
X57528Y-62150D01*
X57507Y-62217D01*
X57486Y-62250D01*
X57443Y-62283D01*
X57400Y-62283D01*
X57357Y-62250D01*
X57336Y-62217D01*
X57314Y-62150D01*
X57293Y-62017D01*
X57293Y-61850D01*
X57314Y-61717D01*
X57336Y-61650D01*
X57357Y-61617D01*
X57400Y-61583D01*
X57807Y-61883D02*
X57765Y-61850D01*
X57743Y-61817D01*
X57722Y-61750D01*
X57722Y-61717D01*
X57743Y-61650D01*
X57765Y-61617D01*
X57807Y-61583D01*
X57893Y-61583D01*
X57936Y-61617D01*
X57957Y-61650D01*
X57979Y-61717D01*
X57979Y-61750D01*
X57957Y-61817D01*
X57936Y-61850D01*
X57893Y-61883D01*
X57807Y-61883D01*
X57765Y-61917D01*
X57743Y-61950D01*
X57722Y-62017D01*
X57722Y-62150D01*
X57743Y-62217D01*
X57765Y-62250D01*
X57807Y-62283D01*
X57893Y-62283D01*
X57936Y-62250D01*
X57957Y-62217D01*
X57979Y-62150D01*
X57979Y-62017D01*
X57957Y-61950D01*
X57936Y-61917D01*
X57893Y-61883D01*
G54D16*
X86205Y-54202D02*
X86205Y-53702D01*
X86300Y-53702D01*
X86358Y-53726D01*
X86396Y-53774D01*
X86415Y-53821D01*
X86434Y-53917D01*
X86434Y-53988D01*
X86415Y-54083D01*
X86396Y-54131D01*
X86358Y-54179D01*
X86300Y-54202D01*
X86205Y-54202D01*
X86567Y-53702D02*
X86815Y-53702D01*
X86681Y-53893D01*
X86739Y-53893D01*
X86777Y-53917D01*
X86796Y-53940D01*
X86815Y-53988D01*
X86815Y-54107D01*
X86796Y-54155D01*
X86777Y-54179D01*
X86739Y-54202D01*
X86624Y-54202D01*
X86586Y-54179D01*
X86567Y-54155D01*
X86705Y-64662D02*
X86705Y-64262D01*
X86800Y-64262D01*
X86858Y-64281D01*
X86896Y-64319D01*
X86915Y-64357D01*
X86934Y-64433D01*
X86934Y-64490D01*
X86915Y-64567D01*
X86896Y-64605D01*
X86858Y-64643D01*
X86800Y-64662D01*
X86705Y-64662D01*
X87296Y-64262D02*
X87105Y-64262D01*
X87086Y-64452D01*
X87105Y-64433D01*
X87143Y-64414D01*
X87239Y-64414D01*
X87277Y-64433D01*
X87296Y-64452D01*
X87315Y-64490D01*
X87315Y-64586D01*
X87296Y-64624D01*
X87277Y-64643D01*
X87239Y-64662D01*
X87143Y-64662D01*
X87105Y-64643D01*
X87086Y-64624D01*
X74743Y-34624D02*
X74724Y-34643D01*
X74667Y-34662D01*
X74629Y-34662D01*
X74571Y-34643D01*
X74533Y-34605D01*
X74514Y-34567D01*
X74495Y-34490D01*
X74495Y-34433D01*
X74514Y-34357D01*
X74533Y-34319D01*
X74571Y-34281D01*
X74629Y-34262D01*
X74667Y-34262D01*
X74724Y-34281D01*
X74743Y-34300D01*
X75124Y-34662D02*
X74895Y-34662D01*
X75009Y-34662D02*
X75009Y-34262D01*
X74971Y-34319D01*
X74933Y-34357D01*
X74895Y-34376D01*
X75505Y-34662D02*
X75276Y-34662D01*
X75390Y-34662D02*
X75390Y-34262D01*
X75352Y-34319D01*
X75314Y-34357D01*
X75276Y-34376D01*
X75434Y-59124D02*
X75415Y-59143D01*
X75358Y-59162D01*
X75320Y-59162D01*
X75262Y-59143D01*
X75224Y-59105D01*
X75205Y-59067D01*
X75186Y-58990D01*
X75186Y-58933D01*
X75205Y-58857D01*
X75224Y-58819D01*
X75262Y-58781D01*
X75320Y-58762D01*
X75358Y-58762D01*
X75415Y-58781D01*
X75434Y-58800D01*
X75624Y-59162D02*
X75700Y-59162D01*
X75739Y-59143D01*
X75758Y-59124D01*
X75796Y-59067D01*
X75815Y-58990D01*
X75815Y-58838D01*
X75796Y-58800D01*
X75777Y-58781D01*
X75739Y-58762D01*
X75662Y-58762D01*
X75624Y-58781D01*
X75605Y-58800D01*
X75586Y-58838D01*
X75586Y-58933D01*
X75605Y-58971D01*
X75624Y-58990D01*
X75662Y-59010D01*
X75739Y-59010D01*
X75777Y-58990D01*
X75796Y-58971D01*
X75815Y-58933D01*
X67743Y-22624D02*
X67724Y-22643D01*
X67667Y-22662D01*
X67629Y-22662D01*
X67571Y-22643D01*
X67533Y-22605D01*
X67514Y-22567D01*
X67495Y-22490D01*
X67495Y-22433D01*
X67514Y-22357D01*
X67533Y-22319D01*
X67571Y-22281D01*
X67629Y-22262D01*
X67667Y-22262D01*
X67724Y-22281D01*
X67743Y-22300D01*
X68124Y-22662D02*
X67895Y-22662D01*
X68009Y-22662D02*
X68009Y-22262D01*
X67971Y-22319D01*
X67933Y-22357D01*
X67895Y-22376D01*
X68371Y-22262D02*
X68410Y-22262D01*
X68448Y-22281D01*
X68467Y-22300D01*
X68486Y-22338D01*
X68505Y-22414D01*
X68505Y-22510D01*
X68486Y-22586D01*
X68467Y-22624D01*
X68448Y-22643D01*
X68410Y-22662D01*
X68371Y-22662D01*
X68333Y-22643D01*
X68314Y-22624D01*
X68295Y-22586D01*
X68276Y-22510D01*
X68276Y-22414D01*
X68295Y-22338D01*
X68314Y-22300D01*
X68333Y-22281D01*
X68371Y-22262D01*
X84643Y-36024D02*
X84624Y-36043D01*
X84567Y-36062D01*
X84529Y-36062D01*
X84471Y-36043D01*
X84433Y-36005D01*
X84414Y-35967D01*
X84395Y-35890D01*
X84395Y-35833D01*
X84414Y-35757D01*
X84433Y-35719D01*
X84471Y-35681D01*
X84529Y-35662D01*
X84567Y-35662D01*
X84624Y-35681D01*
X84643Y-35700D01*
X85024Y-36062D02*
X84795Y-36062D01*
X84909Y-36062D02*
X84909Y-35662D01*
X84871Y-35719D01*
X84833Y-35757D01*
X84795Y-35776D01*
X85176Y-35700D02*
X85195Y-35681D01*
X85233Y-35662D01*
X85329Y-35662D01*
X85367Y-35681D01*
X85386Y-35700D01*
X85405Y-35738D01*
X85405Y-35776D01*
X85386Y-35833D01*
X85157Y-36062D01*
X85405Y-36062D01*
X72434Y-51624D02*
X72415Y-51643D01*
X72358Y-51662D01*
X72320Y-51662D01*
X72262Y-51643D01*
X72224Y-51605D01*
X72205Y-51567D01*
X72186Y-51490D01*
X72186Y-51433D01*
X72205Y-51357D01*
X72224Y-51319D01*
X72262Y-51281D01*
X72320Y-51262D01*
X72358Y-51262D01*
X72415Y-51281D01*
X72434Y-51300D01*
X72796Y-51262D02*
X72605Y-51262D01*
X72586Y-51452D01*
X72605Y-51433D01*
X72643Y-51414D01*
X72739Y-51414D01*
X72777Y-51433D01*
X72796Y-51452D01*
X72815Y-51490D01*
X72815Y-51586D01*
X72796Y-51624D01*
X72777Y-51643D01*
X72739Y-51662D01*
X72643Y-51662D01*
X72605Y-51643D01*
X72586Y-51624D01*
X84643Y-34024D02*
X84624Y-34043D01*
X84567Y-34062D01*
X84529Y-34062D01*
X84471Y-34043D01*
X84433Y-34005D01*
X84414Y-33967D01*
X84395Y-33890D01*
X84395Y-33833D01*
X84414Y-33757D01*
X84433Y-33719D01*
X84471Y-33681D01*
X84529Y-33662D01*
X84567Y-33662D01*
X84624Y-33681D01*
X84643Y-33700D01*
X85024Y-34062D02*
X84795Y-34062D01*
X84909Y-34062D02*
X84909Y-33662D01*
X84871Y-33719D01*
X84833Y-33757D01*
X84795Y-33776D01*
X85367Y-33795D02*
X85367Y-34062D01*
X85271Y-33643D02*
X85176Y-33929D01*
X85424Y-33929D01*
X63205Y-66812D02*
X63205Y-66412D01*
X63358Y-66412D01*
X63396Y-66431D01*
X63415Y-66450D01*
X63434Y-66488D01*
X63434Y-66545D01*
X63415Y-66583D01*
X63396Y-66602D01*
X63358Y-66621D01*
X63205Y-66621D01*
X63777Y-66412D02*
X63700Y-66412D01*
X63662Y-66431D01*
X63643Y-66450D01*
X63605Y-66507D01*
X63586Y-66583D01*
X63586Y-66736D01*
X63605Y-66774D01*
X63624Y-66793D01*
X63662Y-66812D01*
X63739Y-66812D01*
X63777Y-66793D01*
X63796Y-66774D01*
X63815Y-66736D01*
X63815Y-66640D01*
X63796Y-66602D01*
X63777Y-66583D01*
X63739Y-66564D01*
X63662Y-66564D01*
X63624Y-66583D01*
X63605Y-66602D01*
X63586Y-66640D01*
X67624Y-48566D02*
X67643Y-48585D01*
X67662Y-48642D01*
X67662Y-48680D01*
X67643Y-48738D01*
X67605Y-48776D01*
X67567Y-48795D01*
X67490Y-48814D01*
X67433Y-48814D01*
X67357Y-48795D01*
X67319Y-48776D01*
X67281Y-48738D01*
X67262Y-48680D01*
X67262Y-48642D01*
X67281Y-48585D01*
X67300Y-48566D01*
X67395Y-48223D02*
X67662Y-48223D01*
X67243Y-48319D02*
X67529Y-48414D01*
X67529Y-48166D01*
X69262Y-49557D02*
X69262Y-49309D01*
X69414Y-49443D01*
X69414Y-49385D01*
X69433Y-49347D01*
X69452Y-49328D01*
X69490Y-49309D01*
X69586Y-49309D01*
X69624Y-49328D01*
X69643Y-49347D01*
X69662Y-49385D01*
X69662Y-49500D01*
X69643Y-49538D01*
X69624Y-49557D01*
X69262Y-49176D02*
X69262Y-48928D01*
X69414Y-49062D01*
X69414Y-49004D01*
X69433Y-48966D01*
X69452Y-48947D01*
X69490Y-48928D01*
X69586Y-48928D01*
X69624Y-48947D01*
X69643Y-48966D01*
X69662Y-49004D01*
X69662Y-49119D01*
X69643Y-49157D01*
X69624Y-49176D01*
X69262Y-48681D02*
X69262Y-48642D01*
X69281Y-48604D01*
X69300Y-48585D01*
X69338Y-48566D01*
X69414Y-48547D01*
X69510Y-48547D01*
X69586Y-48566D01*
X69624Y-48585D01*
X69643Y-48604D01*
X69662Y-48642D01*
X69662Y-48681D01*
X69643Y-48719D01*
X69624Y-48738D01*
X69586Y-48757D01*
X69510Y-48776D01*
X69414Y-48776D01*
X69338Y-48757D01*
X69300Y-48738D01*
X69281Y-48719D01*
X69262Y-48681D01*
X69262Y-48300D02*
X69262Y-48261D01*
X69281Y-48223D01*
X69300Y-48204D01*
X69338Y-48185D01*
X69414Y-48166D01*
X69510Y-48166D01*
X69586Y-48185D01*
X69624Y-48204D01*
X69643Y-48223D01*
X69662Y-48261D01*
X69662Y-48300D01*
X69643Y-48338D01*
X69624Y-48357D01*
X69586Y-48376D01*
X69510Y-48395D01*
X69414Y-48395D01*
X69338Y-48376D01*
X69300Y-48357D01*
X69281Y-48338D01*
X69262Y-48300D01*
X69395Y-47823D02*
X69662Y-47823D01*
X69395Y-47995D02*
X69605Y-47995D01*
X69643Y-47976D01*
X69662Y-47938D01*
X69662Y-47880D01*
X69643Y-47842D01*
X69624Y-47823D01*
X69452Y-47499D02*
X69452Y-47633D01*
X69662Y-47633D02*
X69262Y-47633D01*
X69262Y-47442D01*
X84124Y-41757D02*
X84143Y-41776D01*
X84162Y-41833D01*
X84162Y-41871D01*
X84143Y-41929D01*
X84105Y-41967D01*
X84067Y-41986D01*
X83990Y-42005D01*
X83933Y-42005D01*
X83857Y-41986D01*
X83819Y-41967D01*
X83781Y-41929D01*
X83762Y-41871D01*
X83762Y-41833D01*
X83781Y-41776D01*
X83800Y-41757D01*
X84162Y-41376D02*
X84162Y-41605D01*
X84162Y-41491D02*
X83762Y-41491D01*
X83819Y-41529D01*
X83857Y-41567D01*
X83876Y-41605D01*
X83762Y-41014D02*
X83762Y-41205D01*
X83952Y-41224D01*
X83933Y-41205D01*
X83914Y-41167D01*
X83914Y-41071D01*
X83933Y-41033D01*
X83952Y-41014D01*
X83990Y-40995D01*
X84086Y-40995D01*
X84124Y-41014D01*
X84143Y-41033D01*
X84162Y-41071D01*
X84162Y-41167D01*
X84143Y-41205D01*
X84124Y-41224D01*
G54D12*
X68743Y-56295D02*
X68143Y-56295D01*
X68143Y-56200D01*
X68171Y-56142D01*
X68229Y-56104D01*
X68286Y-56085D01*
X68400Y-56066D01*
X68486Y-56066D01*
X68600Y-56085D01*
X68657Y-56104D01*
X68714Y-56142D01*
X68743Y-56200D01*
X68743Y-56295D01*
X68743Y-55685D02*
X68743Y-55914D01*
X68743Y-55800D02*
X68143Y-55800D01*
X68229Y-55838D01*
X68286Y-55876D01*
X68314Y-55914D01*
G54D16*
X75205Y-63202D02*
X75205Y-62702D01*
X75300Y-62702D01*
X75358Y-62726D01*
X75396Y-62774D01*
X75415Y-62821D01*
X75434Y-62917D01*
X75434Y-62988D01*
X75415Y-63083D01*
X75396Y-63131D01*
X75358Y-63179D01*
X75300Y-63202D01*
X75205Y-63202D01*
X75586Y-62750D02*
X75605Y-62726D01*
X75643Y-62702D01*
X75739Y-62702D01*
X75777Y-62726D01*
X75796Y-62750D01*
X75815Y-62798D01*
X75815Y-62845D01*
X75796Y-62917D01*
X75567Y-63202D01*
X75815Y-63202D01*
X79162Y-59295D02*
X78762Y-59295D01*
X78762Y-59200D01*
X78781Y-59142D01*
X78819Y-59104D01*
X78857Y-59085D01*
X78933Y-59066D01*
X78990Y-59066D01*
X79067Y-59085D01*
X79105Y-59104D01*
X79143Y-59142D01*
X79162Y-59200D01*
X79162Y-59295D01*
X78895Y-58723D02*
X79162Y-58723D01*
X78743Y-58819D02*
X79029Y-58914D01*
X79029Y-58666D01*
X78205Y-52662D02*
X78205Y-52262D01*
X78300Y-52262D01*
X78358Y-52281D01*
X78396Y-52319D01*
X78415Y-52357D01*
X78434Y-52433D01*
X78434Y-52490D01*
X78415Y-52567D01*
X78396Y-52605D01*
X78358Y-52643D01*
X78300Y-52662D01*
X78205Y-52662D01*
X78777Y-52262D02*
X78700Y-52262D01*
X78662Y-52281D01*
X78643Y-52300D01*
X78605Y-52357D01*
X78586Y-52433D01*
X78586Y-52586D01*
X78605Y-52624D01*
X78624Y-52643D01*
X78662Y-52662D01*
X78739Y-52662D01*
X78777Y-52643D01*
X78796Y-52624D01*
X78815Y-52586D01*
X78815Y-52490D01*
X78796Y-52452D01*
X78777Y-52433D01*
X78739Y-52414D01*
X78662Y-52414D01*
X78624Y-52433D01*
X78605Y-52452D01*
X78586Y-52490D01*
X76205Y-66812D02*
X76205Y-66412D01*
X76358Y-66412D01*
X76396Y-66431D01*
X76415Y-66450D01*
X76434Y-66488D01*
X76434Y-66545D01*
X76415Y-66583D01*
X76396Y-66602D01*
X76358Y-66621D01*
X76205Y-66621D01*
X76796Y-66412D02*
X76605Y-66412D01*
X76586Y-66602D01*
X76605Y-66583D01*
X76643Y-66564D01*
X76739Y-66564D01*
X76777Y-66583D01*
X76796Y-66602D01*
X76815Y-66640D01*
X76815Y-66736D01*
X76796Y-66774D01*
X76777Y-66793D01*
X76739Y-66812D01*
X76643Y-66812D01*
X76605Y-66793D01*
X76586Y-66774D01*
G54D21*
X39184Y-43275D02*
X39184Y-42594D01*
X39347Y-42594D01*
X39388Y-42627D01*
X39408Y-42659D01*
X39428Y-42724D01*
X39428Y-42821D01*
X39408Y-42886D01*
X39388Y-42918D01*
X39347Y-42951D01*
X39184Y-42951D01*
X39632Y-43275D02*
X39714Y-43275D01*
X39755Y-43243D01*
X39775Y-43210D01*
X39816Y-43113D01*
X39836Y-42983D01*
X39836Y-42724D01*
X39816Y-42659D01*
X39795Y-42627D01*
X39755Y-42594D01*
X39673Y-42594D01*
X39632Y-42627D01*
X39612Y-42659D01*
X39592Y-42724D01*
X39592Y-42886D01*
X39612Y-42951D01*
X39632Y-42983D01*
X39673Y-43016D01*
X39755Y-43016D01*
X39795Y-42983D01*
X39816Y-42951D01*
X39836Y-42886D01*
G54D12*
X34153Y-43186D02*
X34134Y-43214D01*
X34077Y-43243D01*
X34039Y-43243D01*
X33981Y-43214D01*
X33943Y-43157D01*
X33924Y-43100D01*
X33905Y-42986D01*
X33905Y-42900D01*
X33924Y-42786D01*
X33943Y-42729D01*
X33981Y-42671D01*
X34039Y-42643D01*
X34077Y-42643D01*
X34134Y-42671D01*
X34153Y-42700D01*
X34400Y-42643D02*
X34477Y-42643D01*
X34515Y-42671D01*
X34553Y-42729D01*
X34572Y-42843D01*
X34572Y-43043D01*
X34553Y-43157D01*
X34515Y-43214D01*
X34477Y-43243D01*
X34400Y-43243D01*
X34362Y-43214D01*
X34324Y-43157D01*
X34305Y-43043D01*
X34305Y-42843D01*
X34324Y-42729D01*
X34362Y-42671D01*
X34400Y-42643D01*
X34743Y-43243D02*
X34743Y-42643D01*
X34972Y-43243D01*
X34972Y-42643D01*
X35162Y-43243D02*
X35162Y-42643D01*
X35391Y-43243D01*
X35391Y-42643D01*
X35486Y-43300D02*
X35791Y-43300D01*
X35943Y-42900D02*
X35905Y-42871D01*
X35886Y-42843D01*
X35867Y-42786D01*
X35867Y-42757D01*
X35886Y-42700D01*
X35905Y-42671D01*
X35943Y-42643D01*
X36020Y-42643D01*
X36058Y-42671D01*
X36077Y-42700D01*
X36096Y-42757D01*
X36096Y-42786D01*
X36077Y-42843D01*
X36058Y-42871D01*
X36020Y-42900D01*
X35943Y-42900D01*
X35905Y-42929D01*
X35886Y-42957D01*
X35867Y-43014D01*
X35867Y-43129D01*
X35886Y-43186D01*
X35905Y-43214D01*
X35943Y-43243D01*
X36020Y-43243D01*
X36058Y-43214D01*
X36077Y-43186D01*
X36096Y-43129D01*
X36096Y-43014D01*
X36077Y-42957D01*
X36058Y-42929D01*
X36020Y-42900D01*
G54D11*
X67349Y-28085D02*
X66749Y-28085D01*
X67292Y-27456D02*
X67320Y-27485D01*
X67349Y-27571D01*
X67349Y-27628D01*
X67320Y-27713D01*
X67263Y-27771D01*
X67206Y-27799D01*
X67092Y-27828D01*
X67006Y-27828D01*
X66892Y-27799D01*
X66835Y-27771D01*
X66777Y-27713D01*
X66749Y-27628D01*
X66749Y-27571D01*
X66777Y-27485D01*
X66806Y-27456D01*
X67349Y-26885D02*
X67349Y-27228D01*
X67349Y-27056D02*
X66749Y-27056D01*
X66835Y-27113D01*
X66892Y-27171D01*
X66920Y-27228D01*
G54D23*
X79243Y-40939D02*
X78643Y-40939D01*
X79186Y-40468D02*
X79214Y-40489D01*
X79243Y-40553D01*
X79243Y-40596D01*
X79214Y-40661D01*
X79157Y-40703D01*
X79100Y-40725D01*
X78986Y-40746D01*
X78900Y-40746D01*
X78786Y-40725D01*
X78729Y-40703D01*
X78671Y-40661D01*
X78643Y-40596D01*
X78643Y-40553D01*
X78671Y-40489D01*
X78700Y-40468D01*
X78700Y-40296D02*
X78671Y-40275D01*
X78643Y-40232D01*
X78643Y-40125D01*
X78671Y-40082D01*
X78700Y-40061D01*
X78757Y-40039D01*
X78814Y-40039D01*
X78900Y-40061D01*
X79243Y-40318D01*
X79243Y-40039D01*
X79071Y-36014D02*
X79071Y-35800D01*
X79243Y-36057D02*
X78643Y-35907D01*
X79243Y-35757D01*
X78643Y-35671D02*
X78643Y-35414D01*
X79243Y-35543D02*
X78643Y-35543D01*
X79243Y-35264D02*
X78643Y-35264D01*
X79071Y-35114D01*
X78643Y-34964D01*
X79243Y-34964D01*
X78929Y-34750D02*
X78929Y-34600D01*
X79243Y-34536D02*
X79243Y-34750D01*
X78643Y-34750D01*
X78643Y-34536D01*
X78671Y-34107D02*
X78643Y-34150D01*
X78643Y-34214D01*
X78671Y-34279D01*
X78729Y-34321D01*
X78786Y-34343D01*
X78900Y-34364D01*
X78986Y-34364D01*
X79100Y-34343D01*
X79157Y-34321D01*
X79214Y-34279D01*
X79243Y-34214D01*
X79243Y-34171D01*
X79214Y-34107D01*
X79186Y-34086D01*
X78986Y-34086D01*
X78986Y-34171D01*
X79071Y-33914D02*
X79071Y-33700D01*
X79243Y-33957D02*
X78643Y-33807D01*
X79243Y-33657D01*
X78643Y-33550D02*
X78643Y-33271D01*
X78871Y-33421D01*
X78871Y-33357D01*
X78900Y-33314D01*
X78929Y-33293D01*
X78986Y-33271D01*
X79129Y-33271D01*
X79186Y-33293D01*
X79214Y-33314D01*
X79243Y-33357D01*
X79243Y-33485D01*
X79214Y-33528D01*
X79186Y-33550D01*
X78700Y-33099D02*
X78671Y-33078D01*
X78643Y-33035D01*
X78643Y-32928D01*
X78671Y-32885D01*
X78700Y-32864D01*
X78757Y-32842D01*
X78814Y-32842D01*
X78900Y-32864D01*
X79243Y-33121D01*
X79243Y-32842D01*
X78900Y-32585D02*
X78871Y-32627D01*
X78843Y-32649D01*
X78786Y-32670D01*
X78757Y-32670D01*
X78700Y-32649D01*
X78671Y-32627D01*
X78643Y-32585D01*
X78643Y-32499D01*
X78671Y-32456D01*
X78700Y-32435D01*
X78757Y-32413D01*
X78786Y-32413D01*
X78843Y-32435D01*
X78871Y-32456D01*
X78900Y-32499D01*
X78900Y-32585D01*
X78929Y-32627D01*
X78957Y-32649D01*
X79014Y-32670D01*
X79129Y-32670D01*
X79186Y-32649D01*
X79214Y-32627D01*
X79243Y-32585D01*
X79243Y-32499D01*
X79214Y-32456D01*
X79186Y-32435D01*
X79129Y-32413D01*
X79014Y-32413D01*
X78957Y-32435D01*
X78929Y-32456D01*
X78900Y-32499D01*
X79243Y-32220D02*
X78643Y-32220D01*
X78643Y-32048D01*
X78671Y-32006D01*
X78700Y-31984D01*
X78757Y-31963D01*
X78843Y-31963D01*
X78900Y-31984D01*
X78929Y-32006D01*
X78957Y-32048D01*
X78957Y-32220D01*
X79014Y-31770D02*
X79014Y-31427D01*
X79243Y-31213D02*
X78643Y-31213D01*
X78643Y-31041D01*
X78671Y-30999D01*
X78700Y-30977D01*
X78757Y-30956D01*
X78843Y-30956D01*
X78900Y-30977D01*
X78929Y-30999D01*
X78957Y-31041D01*
X78957Y-31213D01*
X78643Y-30763D02*
X79129Y-30763D01*
X79186Y-30741D01*
X79214Y-30720D01*
X79243Y-30677D01*
X79243Y-30591D01*
X79214Y-30549D01*
X79186Y-30527D01*
X79129Y-30506D01*
X78643Y-30506D01*
G54D16*
X73514Y-28662D02*
X73514Y-28262D01*
X73667Y-28262D01*
X73705Y-28281D01*
X73724Y-28300D01*
X73743Y-28338D01*
X73743Y-28395D01*
X73724Y-28433D01*
X73705Y-28452D01*
X73667Y-28471D01*
X73514Y-28471D01*
X74124Y-28662D02*
X73895Y-28662D01*
X74009Y-28662D02*
X74009Y-28262D01*
X73971Y-28319D01*
X73933Y-28357D01*
X73895Y-28376D01*
X74486Y-28262D02*
X74295Y-28262D01*
X74276Y-28452D01*
X74295Y-28433D01*
X74333Y-28414D01*
X74429Y-28414D01*
X74467Y-28433D01*
X74486Y-28452D01*
X74505Y-28490D01*
X74505Y-28586D01*
X74486Y-28624D01*
X74467Y-28643D01*
X74429Y-28662D01*
X74333Y-28662D01*
X74295Y-28643D01*
X74276Y-28624D01*
X86967Y-43343D02*
X87024Y-43362D01*
X87120Y-43362D01*
X87158Y-43343D01*
X87177Y-43324D01*
X87196Y-43286D01*
X87196Y-43248D01*
X87177Y-43210D01*
X87158Y-43190D01*
X87120Y-43171D01*
X87043Y-43152D01*
X87005Y-43133D01*
X86986Y-43114D01*
X86967Y-43076D01*
X86967Y-43038D01*
X86986Y-43000D01*
X87005Y-42981D01*
X87043Y-42962D01*
X87139Y-42962D01*
X87196Y-42981D01*
X87329Y-42962D02*
X87424Y-43362D01*
X87501Y-43076D01*
X87577Y-43362D01*
X87672Y-42962D01*
X88034Y-43362D02*
X87805Y-43362D01*
X87919Y-43362D02*
X87919Y-42962D01*
X87881Y-43019D01*
X87843Y-43057D01*
X87805Y-43076D01*
X86195Y-44043D02*
X86252Y-44062D01*
X86348Y-44062D01*
X86386Y-44043D01*
X86405Y-44024D01*
X86424Y-43986D01*
X86424Y-43948D01*
X86405Y-43910D01*
X86386Y-43890D01*
X86348Y-43871D01*
X86271Y-43852D01*
X86233Y-43833D01*
X86214Y-43814D01*
X86195Y-43776D01*
X86195Y-43738D01*
X86214Y-43700D01*
X86233Y-43681D01*
X86271Y-43662D01*
X86367Y-43662D01*
X86424Y-43681D01*
X86557Y-43662D02*
X86652Y-44062D01*
X86729Y-43776D01*
X86805Y-44062D01*
X86900Y-43662D01*
X86957Y-44100D02*
X87262Y-44100D01*
X87357Y-44062D02*
X87357Y-43662D01*
X87510Y-43662D01*
X87548Y-43681D01*
X87567Y-43700D01*
X87586Y-43738D01*
X87586Y-43795D01*
X87567Y-43833D01*
X87548Y-43852D01*
X87510Y-43871D01*
X87357Y-43871D01*
X87757Y-43662D02*
X87757Y-43986D01*
X87776Y-44024D01*
X87795Y-44043D01*
X87833Y-44062D01*
X87910Y-44062D01*
X87948Y-44043D01*
X87967Y-44024D01*
X87986Y-43986D01*
X87986Y-43662D01*
X88157Y-44043D02*
X88214Y-44062D01*
X88310Y-44062D01*
X88348Y-44043D01*
X88367Y-44024D01*
X88386Y-43986D01*
X88386Y-43948D01*
X88367Y-43910D01*
X88348Y-43890D01*
X88310Y-43871D01*
X88233Y-43852D01*
X88195Y-43833D01*
X88176Y-43814D01*
X88157Y-43776D01*
X88157Y-43738D01*
X88176Y-43700D01*
X88195Y-43681D01*
X88233Y-43662D01*
X88329Y-43662D01*
X88386Y-43681D01*
X88557Y-44062D02*
X88557Y-43662D01*
X88557Y-43852D02*
X88786Y-43852D01*
X88786Y-44062D02*
X88786Y-43662D01*
G54D22*
X84667Y-60300D02*
X84700Y-60200D01*
X84733Y-60167D01*
X84800Y-60133D01*
X84900Y-60133D01*
X84967Y-60167D01*
X85000Y-60200D01*
X85033Y-60267D01*
X85033Y-60533D01*
X84333Y-60533D01*
X84333Y-60300D01*
X84367Y-60233D01*
X84400Y-60200D01*
X84467Y-60167D01*
X84533Y-60167D01*
X84600Y-60200D01*
X84633Y-60233D01*
X84667Y-60300D01*
X84667Y-60533D01*
X84333Y-59933D02*
X84333Y-59533D01*
X85033Y-59733D02*
X84333Y-59733D01*
X85033Y-58934D02*
X85033Y-59334D01*
X85033Y-59134D02*
X84333Y-59134D01*
X84433Y-59200D01*
X84500Y-59267D01*
X84533Y-59334D01*
X90467Y-59649D02*
X90500Y-59549D01*
X90533Y-59516D01*
X90600Y-59482D01*
X90700Y-59482D01*
X90767Y-59516D01*
X90800Y-59549D01*
X90833Y-59616D01*
X90833Y-59882D01*
X90133Y-59882D01*
X90133Y-59649D01*
X90167Y-59582D01*
X90200Y-59549D01*
X90267Y-59516D01*
X90333Y-59516D01*
X90400Y-59549D01*
X90433Y-59582D01*
X90467Y-59649D01*
X90467Y-59882D01*
X90633Y-59216D02*
X90633Y-58882D01*
X90833Y-59282D02*
X90133Y-59049D01*
X90833Y-58816D01*
X90133Y-58682D02*
X90133Y-58282D01*
X90833Y-58482D02*
X90133Y-58482D01*
X90133Y-58149D02*
X90133Y-57749D01*
X90833Y-57949D02*
X90133Y-57949D01*
X90467Y-57516D02*
X90467Y-57283D01*
X90833Y-57183D02*
X90833Y-57516D01*
X90133Y-57516D01*
X90133Y-57183D01*
X90833Y-56483D02*
X90500Y-56717D01*
X90833Y-56883D02*
X90133Y-56883D01*
X90133Y-56617D01*
X90167Y-56550D01*
X90200Y-56517D01*
X90267Y-56483D01*
X90367Y-56483D01*
X90433Y-56517D01*
X90467Y-56550D01*
X90500Y-56617D01*
X90500Y-56883D01*
X90500Y-56050D02*
X90833Y-56050D01*
X90133Y-56283D02*
X90500Y-56050D01*
X90133Y-55817D01*
G54D16*
X70942Y-60924D02*
X70926Y-60943D01*
X70876Y-60962D01*
X70842Y-60962D01*
X70792Y-60943D01*
X70759Y-60905D01*
X70742Y-60867D01*
X70726Y-60790D01*
X70726Y-60733D01*
X70742Y-60657D01*
X70759Y-60619D01*
X70792Y-60581D01*
X70842Y-60562D01*
X70876Y-60562D01*
X70926Y-60581D01*
X70942Y-60600D01*
X71276Y-60962D02*
X71076Y-60962D01*
X71176Y-60962D02*
X71176Y-60562D01*
X71142Y-60619D01*
X71109Y-60657D01*
X71076Y-60676D01*
X70425Y-59196D02*
X70425Y-59463D01*
X70342Y-59044D02*
X70259Y-59330D01*
X70475Y-59330D01*
X70575Y-59063D02*
X70808Y-59063D01*
X70658Y-59463D01*
X71008Y-59063D02*
X71041Y-59063D01*
X71075Y-59082D01*
X71091Y-59101D01*
X71108Y-59139D01*
X71125Y-59215D01*
X71125Y-59311D01*
X71108Y-59387D01*
X71091Y-59425D01*
X71075Y-59444D01*
X71041Y-59463D01*
X71008Y-59463D01*
X70975Y-59444D01*
X70958Y-59425D01*
X70941Y-59387D01*
X70925Y-59311D01*
X70925Y-59215D01*
X70941Y-59139D01*
X70958Y-59101D01*
X70975Y-59082D01*
X71008Y-59063D01*
X71424Y-59196D02*
X71424Y-59463D01*
X71274Y-59196D02*
X71274Y-59406D01*
X71291Y-59444D01*
X71324Y-59463D01*
X71374Y-59463D01*
X71408Y-59444D01*
X71424Y-59425D01*
X71708Y-59253D02*
X71591Y-59253D01*
X71591Y-59463D02*
X71591Y-59063D01*
X71758Y-59063D01*
X69573Y-60014D02*
X70030Y-60014D01*
X69801Y-60243D02*
X69801Y-59786D01*
X64934Y-55624D02*
X64915Y-55643D01*
X64858Y-55662D01*
X64820Y-55662D01*
X64762Y-55643D01*
X64724Y-55605D01*
X64705Y-55567D01*
X64686Y-55490D01*
X64686Y-55433D01*
X64705Y-55357D01*
X64724Y-55319D01*
X64762Y-55281D01*
X64820Y-55262D01*
X64858Y-55262D01*
X64915Y-55281D01*
X64934Y-55300D01*
X65086Y-55300D02*
X65105Y-55281D01*
X65143Y-55262D01*
X65239Y-55262D01*
X65277Y-55281D01*
X65296Y-55300D01*
X65315Y-55338D01*
X65315Y-55376D01*
X65296Y-55433D01*
X65067Y-55662D01*
X65315Y-55662D01*
X63943Y-53262D02*
X64191Y-53262D01*
X64057Y-53414D01*
X64115Y-53414D01*
X64153Y-53433D01*
X64172Y-53452D01*
X64191Y-53490D01*
X64191Y-53586D01*
X64172Y-53624D01*
X64153Y-53643D01*
X64115Y-53662D01*
X64000Y-53662D01*
X63962Y-53643D01*
X63943Y-53624D01*
X64324Y-53262D02*
X64572Y-53262D01*
X64438Y-53414D01*
X64496Y-53414D01*
X64534Y-53433D01*
X64553Y-53452D01*
X64572Y-53490D01*
X64572Y-53586D01*
X64553Y-53624D01*
X64534Y-53643D01*
X64496Y-53662D01*
X64381Y-53662D01*
X64343Y-53643D01*
X64324Y-53624D01*
X64819Y-53262D02*
X64858Y-53262D01*
X64896Y-53281D01*
X64915Y-53300D01*
X64934Y-53338D01*
X64953Y-53414D01*
X64953Y-53510D01*
X64934Y-53586D01*
X64915Y-53624D01*
X64896Y-53643D01*
X64858Y-53662D01*
X64819Y-53662D01*
X64781Y-53643D01*
X64762Y-53624D01*
X64743Y-53586D01*
X64724Y-53510D01*
X64724Y-53414D01*
X64743Y-53338D01*
X64762Y-53300D01*
X64781Y-53281D01*
X64819Y-53262D01*
X65200Y-53262D02*
X65239Y-53262D01*
X65277Y-53281D01*
X65296Y-53300D01*
X65315Y-53338D01*
X65334Y-53414D01*
X65334Y-53510D01*
X65315Y-53586D01*
X65296Y-53624D01*
X65277Y-53643D01*
X65239Y-53662D01*
X65200Y-53662D01*
X65162Y-53643D01*
X65143Y-53624D01*
X65124Y-53586D01*
X65105Y-53510D01*
X65105Y-53414D01*
X65124Y-53338D01*
X65143Y-53300D01*
X65162Y-53281D01*
X65200Y-53262D01*
X65677Y-53395D02*
X65677Y-53662D01*
X65505Y-53395D02*
X65505Y-53605D01*
X65524Y-53643D01*
X65562Y-53662D01*
X65620Y-53662D01*
X65658Y-53643D01*
X65677Y-53624D01*
X66001Y-53452D02*
X65867Y-53452D01*
X65867Y-53662D02*
X65867Y-53262D01*
X66058Y-53262D01*
X64934Y-51624D02*
X64915Y-51643D01*
X64858Y-51662D01*
X64820Y-51662D01*
X64762Y-51643D01*
X64724Y-51605D01*
X64705Y-51567D01*
X64686Y-51490D01*
X64686Y-51433D01*
X64705Y-51357D01*
X64724Y-51319D01*
X64762Y-51281D01*
X64820Y-51262D01*
X64858Y-51262D01*
X64915Y-51281D01*
X64934Y-51300D01*
X65067Y-51262D02*
X65315Y-51262D01*
X65181Y-51414D01*
X65239Y-51414D01*
X65277Y-51433D01*
X65296Y-51452D01*
X65315Y-51490D01*
X65315Y-51586D01*
X65296Y-51624D01*
X65277Y-51643D01*
X65239Y-51662D01*
X65124Y-51662D01*
X65086Y-51643D01*
X65067Y-51624D01*
X79124Y-48566D02*
X79143Y-48585D01*
X79162Y-48642D01*
X79162Y-48680D01*
X79143Y-48738D01*
X79105Y-48776D01*
X79067Y-48795D01*
X78990Y-48814D01*
X78933Y-48814D01*
X78857Y-48795D01*
X78819Y-48776D01*
X78781Y-48738D01*
X78762Y-48680D01*
X78762Y-48642D01*
X78781Y-48585D01*
X78800Y-48566D01*
X78762Y-48223D02*
X78762Y-48300D01*
X78781Y-48338D01*
X78800Y-48357D01*
X78857Y-48395D01*
X78933Y-48414D01*
X79086Y-48414D01*
X79124Y-48395D01*
X79143Y-48376D01*
X79162Y-48338D01*
X79162Y-48261D01*
X79143Y-48223D01*
X79124Y-48204D01*
X79086Y-48185D01*
X78990Y-48185D01*
X78952Y-48204D01*
X78933Y-48223D01*
X78914Y-48261D01*
X78914Y-48338D01*
X78933Y-48376D01*
X78952Y-48395D01*
X78990Y-48414D01*
X76762Y-49557D02*
X76762Y-49309D01*
X76914Y-49443D01*
X76914Y-49385D01*
X76933Y-49347D01*
X76952Y-49328D01*
X76990Y-49309D01*
X77086Y-49309D01*
X77124Y-49328D01*
X77143Y-49347D01*
X77162Y-49385D01*
X77162Y-49500D01*
X77143Y-49538D01*
X77124Y-49557D01*
X76762Y-49176D02*
X76762Y-48928D01*
X76914Y-49062D01*
X76914Y-49004D01*
X76933Y-48966D01*
X76952Y-48947D01*
X76990Y-48928D01*
X77086Y-48928D01*
X77124Y-48947D01*
X77143Y-48966D01*
X77162Y-49004D01*
X77162Y-49119D01*
X77143Y-49157D01*
X77124Y-49176D01*
X76762Y-48681D02*
X76762Y-48642D01*
X76781Y-48604D01*
X76800Y-48585D01*
X76838Y-48566D01*
X76914Y-48547D01*
X77010Y-48547D01*
X77086Y-48566D01*
X77124Y-48585D01*
X77143Y-48604D01*
X77162Y-48642D01*
X77162Y-48681D01*
X77143Y-48719D01*
X77124Y-48738D01*
X77086Y-48757D01*
X77010Y-48776D01*
X76914Y-48776D01*
X76838Y-48757D01*
X76800Y-48738D01*
X76781Y-48719D01*
X76762Y-48681D01*
X76762Y-48300D02*
X76762Y-48261D01*
X76781Y-48223D01*
X76800Y-48204D01*
X76838Y-48185D01*
X76914Y-48166D01*
X77010Y-48166D01*
X77086Y-48185D01*
X77124Y-48204D01*
X77143Y-48223D01*
X77162Y-48261D01*
X77162Y-48300D01*
X77143Y-48338D01*
X77124Y-48357D01*
X77086Y-48376D01*
X77010Y-48395D01*
X76914Y-48395D01*
X76838Y-48376D01*
X76800Y-48357D01*
X76781Y-48338D01*
X76762Y-48300D01*
X76895Y-47823D02*
X77162Y-47823D01*
X76895Y-47995D02*
X77105Y-47995D01*
X77143Y-47976D01*
X77162Y-47938D01*
X77162Y-47880D01*
X77143Y-47842D01*
X77124Y-47823D01*
X76952Y-47499D02*
X76952Y-47633D01*
X77162Y-47633D02*
X76762Y-47633D01*
X76762Y-47442D01*
X72324Y-56058D02*
X72343Y-56074D01*
X72362Y-56124D01*
X72362Y-56158D01*
X72343Y-56208D01*
X72305Y-56241D01*
X72267Y-56258D01*
X72190Y-56274D01*
X72133Y-56274D01*
X72057Y-56258D01*
X72019Y-56241D01*
X71981Y-56208D01*
X71962Y-56158D01*
X71962Y-56124D01*
X71981Y-56074D01*
X72000Y-56058D01*
X71962Y-55941D02*
X71962Y-55708D01*
X72362Y-55858D01*
X73594Y-56575D02*
X73861Y-56575D01*
X73442Y-56658D02*
X73728Y-56741D01*
X73728Y-56525D01*
X73461Y-56425D02*
X73461Y-56192D01*
X73861Y-56342D01*
X73461Y-55992D02*
X73461Y-55959D01*
X73480Y-55925D01*
X73499Y-55909D01*
X73537Y-55892D01*
X73613Y-55875D01*
X73709Y-55875D01*
X73785Y-55892D01*
X73823Y-55909D01*
X73842Y-55925D01*
X73861Y-55959D01*
X73861Y-55992D01*
X73842Y-56025D01*
X73823Y-56042D01*
X73785Y-56059D01*
X73709Y-56075D01*
X73613Y-56075D01*
X73537Y-56059D01*
X73499Y-56042D01*
X73480Y-56025D01*
X73461Y-55992D01*
X73594Y-55576D02*
X73861Y-55576D01*
X73594Y-55726D02*
X73804Y-55726D01*
X73842Y-55709D01*
X73861Y-55676D01*
X73861Y-55626D01*
X73842Y-55592D01*
X73823Y-55576D01*
X73651Y-55292D02*
X73651Y-55409D01*
X73861Y-55409D02*
X73461Y-55409D01*
X73461Y-55242D01*
X73014Y-55029D02*
X73014Y-54572D01*
X73243Y-54801D02*
X72786Y-54801D01*
X76124Y-56066D02*
X76143Y-56085D01*
X76162Y-56142D01*
X76162Y-56180D01*
X76143Y-56238D01*
X76105Y-56276D01*
X76067Y-56295D01*
X75990Y-56314D01*
X75933Y-56314D01*
X75857Y-56295D01*
X75819Y-56276D01*
X75781Y-56238D01*
X75762Y-56180D01*
X75762Y-56142D01*
X75781Y-56085D01*
X75800Y-56066D01*
X75933Y-55838D02*
X75914Y-55876D01*
X75895Y-55895D01*
X75857Y-55914D01*
X75838Y-55914D01*
X75800Y-55895D01*
X75781Y-55876D01*
X75762Y-55838D01*
X75762Y-55761D01*
X75781Y-55723D01*
X75800Y-55704D01*
X75838Y-55685D01*
X75857Y-55685D01*
X75895Y-55704D01*
X75914Y-55723D01*
X75933Y-55761D01*
X75933Y-55838D01*
X75952Y-55876D01*
X75971Y-55895D01*
X76010Y-55914D01*
X76086Y-55914D01*
X76124Y-55895D01*
X76143Y-55876D01*
X76162Y-55838D01*
X76162Y-55761D01*
X76143Y-55723D01*
X76124Y-55704D01*
X76086Y-55685D01*
X76010Y-55685D01*
X75971Y-55704D01*
X75952Y-55723D01*
X75933Y-55761D01*
X74743Y-35624D02*
X74724Y-35643D01*
X74667Y-35662D01*
X74629Y-35662D01*
X74571Y-35643D01*
X74533Y-35605D01*
X74514Y-35567D01*
X74495Y-35490D01*
X74495Y-35433D01*
X74514Y-35357D01*
X74533Y-35319D01*
X74571Y-35281D01*
X74629Y-35262D01*
X74667Y-35262D01*
X74724Y-35281D01*
X74743Y-35300D01*
X75124Y-35662D02*
X74895Y-35662D01*
X75009Y-35662D02*
X75009Y-35262D01*
X74971Y-35319D01*
X74933Y-35357D01*
X74895Y-35376D01*
X75257Y-35262D02*
X75505Y-35262D01*
X75371Y-35414D01*
X75429Y-35414D01*
X75467Y-35433D01*
X75486Y-35452D01*
X75505Y-35490D01*
X75505Y-35586D01*
X75486Y-35624D01*
X75467Y-35643D01*
X75429Y-35662D01*
X75314Y-35662D01*
X75276Y-35643D01*
X75257Y-35624D01*
X67417Y-62223D02*
X67250Y-61961D01*
X67131Y-62223D02*
X67131Y-61673D01*
X67322Y-61673D01*
X67369Y-61699D01*
X67393Y-61725D01*
X67417Y-61777D01*
X67417Y-61856D01*
X67393Y-61908D01*
X67369Y-61935D01*
X67322Y-61961D01*
X67131Y-61961D01*
X67893Y-62223D02*
X67607Y-62223D01*
X67750Y-62223D02*
X67750Y-61673D01*
X67702Y-61751D01*
X67655Y-61804D01*
X67607Y-61830D01*
X65917Y-61223D02*
X65750Y-60961D01*
X65631Y-61223D02*
X65631Y-60673D01*
X65822Y-60673D01*
X65869Y-60699D01*
X65893Y-60725D01*
X65917Y-60777D01*
X65917Y-60856D01*
X65893Y-60908D01*
X65869Y-60935D01*
X65822Y-60961D01*
X65631Y-60961D01*
X66107Y-60725D02*
X66131Y-60699D01*
X66179Y-60673D01*
X66298Y-60673D01*
X66345Y-60699D01*
X66369Y-60725D01*
X66393Y-60777D01*
X66393Y-60830D01*
X66369Y-60908D01*
X66083Y-61223D01*
X66393Y-61223D01*
X88223Y-51083D02*
X87961Y-51250D01*
X88223Y-51369D02*
X87673Y-51369D01*
X87673Y-51178D01*
X87699Y-51131D01*
X87725Y-51107D01*
X87777Y-51083D01*
X87856Y-51083D01*
X87908Y-51107D01*
X87935Y-51131D01*
X87961Y-51178D01*
X87961Y-51369D01*
X87673Y-50917D02*
X87673Y-50607D01*
X87882Y-50774D01*
X87882Y-50702D01*
X87908Y-50655D01*
X87935Y-50631D01*
X87987Y-50607D01*
X88118Y-50607D01*
X88170Y-50631D01*
X88196Y-50655D01*
X88223Y-50702D01*
X88223Y-50845D01*
X88196Y-50893D01*
X88170Y-50917D01*
X86223Y-51083D02*
X85961Y-51250D01*
X86223Y-51369D02*
X85673Y-51369D01*
X85673Y-51178D01*
X85699Y-51131D01*
X85725Y-51107D01*
X85777Y-51083D01*
X85856Y-51083D01*
X85908Y-51107D01*
X85935Y-51131D01*
X85961Y-51178D01*
X85961Y-51369D01*
X85856Y-50655D02*
X86223Y-50655D01*
X85646Y-50774D02*
X86039Y-50893D01*
X86039Y-50583D01*
X45917Y-54723D02*
X45750Y-54461D01*
X45631Y-54723D02*
X45631Y-54173D01*
X45822Y-54173D01*
X45869Y-54199D01*
X45893Y-54225D01*
X45917Y-54277D01*
X45917Y-54356D01*
X45893Y-54408D01*
X45869Y-54435D01*
X45822Y-54461D01*
X45631Y-54461D01*
X46369Y-54173D02*
X46131Y-54173D01*
X46107Y-54435D01*
X46131Y-54408D01*
X46179Y-54382D01*
X46298Y-54382D01*
X46345Y-54408D01*
X46369Y-54435D01*
X46393Y-54487D01*
X46393Y-54618D01*
X46369Y-54670D01*
X46345Y-54696D01*
X46298Y-54723D01*
X46179Y-54723D01*
X46131Y-54696D01*
X46107Y-54670D01*
X76417Y-27723D02*
X76250Y-27461D01*
X76131Y-27723D02*
X76131Y-27173D01*
X76322Y-27173D01*
X76369Y-27199D01*
X76393Y-27225D01*
X76417Y-27277D01*
X76417Y-27356D01*
X76393Y-27408D01*
X76369Y-27435D01*
X76322Y-27461D01*
X76131Y-27461D01*
X76583Y-27173D02*
X76917Y-27173D01*
X76702Y-27723D01*
G54D11*
X61714Y-43257D02*
X61743Y-43171D01*
X61743Y-43028D01*
X61714Y-42971D01*
X61686Y-42942D01*
X61629Y-42914D01*
X61571Y-42914D01*
X61514Y-42942D01*
X61486Y-42971D01*
X61457Y-43028D01*
X61429Y-43142D01*
X61400Y-43200D01*
X61371Y-43228D01*
X61314Y-43257D01*
X61257Y-43257D01*
X61200Y-43228D01*
X61171Y-43200D01*
X61143Y-43142D01*
X61143Y-43000D01*
X61171Y-42914D01*
X61743Y-42657D02*
X61143Y-42657D01*
X61143Y-42429D01*
X61171Y-42371D01*
X61200Y-42343D01*
X61257Y-42314D01*
X61343Y-42314D01*
X61400Y-42343D01*
X61429Y-42371D01*
X61457Y-42429D01*
X61457Y-42657D01*
X61743Y-41743D02*
X61743Y-42086D01*
X61743Y-41914D02*
X61143Y-41914D01*
X61229Y-41971D01*
X61286Y-42029D01*
X61314Y-42086D01*
X67714Y-44371D02*
X67743Y-44285D01*
X67743Y-44142D01*
X67714Y-44085D01*
X67686Y-44056D01*
X67629Y-44028D01*
X67571Y-44028D01*
X67514Y-44056D01*
X67486Y-44085D01*
X67457Y-44142D01*
X67429Y-44256D01*
X67400Y-44314D01*
X67371Y-44342D01*
X67314Y-44371D01*
X67257Y-44371D01*
X67200Y-44342D01*
X67171Y-44314D01*
X67143Y-44256D01*
X67143Y-44114D01*
X67171Y-44028D01*
X67743Y-43771D02*
X67143Y-43771D01*
X67143Y-43543D01*
X67171Y-43485D01*
X67200Y-43457D01*
X67257Y-43428D01*
X67343Y-43428D01*
X67400Y-43457D01*
X67429Y-43485D01*
X67457Y-43543D01*
X67457Y-43771D01*
X67429Y-43171D02*
X67429Y-42971D01*
X67743Y-42885D02*
X67743Y-43171D01*
X67143Y-43171D01*
X67143Y-42885D01*
X67571Y-42657D02*
X67571Y-42371D01*
X67743Y-42714D02*
X67143Y-42514D01*
X67743Y-42314D01*
X67743Y-42114D02*
X67143Y-42114D01*
X67743Y-41771D02*
X67400Y-42028D01*
X67143Y-41771D02*
X67486Y-42114D01*
X67429Y-41514D02*
X67429Y-41314D01*
X67743Y-41228D02*
X67743Y-41514D01*
X67143Y-41514D01*
X67143Y-41228D01*
X67743Y-40628D02*
X67457Y-40828D01*
X67743Y-40971D02*
X67143Y-40971D01*
X67143Y-40743D01*
X67171Y-40685D01*
X67200Y-40657D01*
X67257Y-40628D01*
X67343Y-40628D01*
X67400Y-40657D01*
X67429Y-40685D01*
X67457Y-40743D01*
X67457Y-40971D01*
G54D16*
X67262Y-59305D02*
X67586Y-59305D01*
X67624Y-59286D01*
X67643Y-59267D01*
X67662Y-59229D01*
X67662Y-59152D01*
X67643Y-59114D01*
X67624Y-59095D01*
X67586Y-59076D01*
X67262Y-59076D01*
X67662Y-58676D02*
X67662Y-58905D01*
X67662Y-58791D02*
X67262Y-58791D01*
X67319Y-58829D01*
X67357Y-58867D01*
X67376Y-58905D01*
X64162Y-60466D02*
X64162Y-60657D01*
X63762Y-60657D01*
X64162Y-60333D02*
X63762Y-60333D01*
X63762Y-60180D01*
X63781Y-60142D01*
X63800Y-60123D01*
X63838Y-60104D01*
X63895Y-60104D01*
X63933Y-60123D01*
X63952Y-60142D01*
X63971Y-60180D01*
X63971Y-60333D01*
X63800Y-59952D02*
X63781Y-59933D01*
X63762Y-59895D01*
X63762Y-59799D01*
X63781Y-59761D01*
X63800Y-59742D01*
X63838Y-59723D01*
X63876Y-59723D01*
X63933Y-59742D01*
X64162Y-59971D01*
X64162Y-59723D01*
X64162Y-59533D02*
X64162Y-59457D01*
X64143Y-59418D01*
X64124Y-59399D01*
X64067Y-59361D01*
X63990Y-59342D01*
X63838Y-59342D01*
X63800Y-59361D01*
X63781Y-59380D01*
X63762Y-59418D01*
X63762Y-59495D01*
X63781Y-59533D01*
X63800Y-59552D01*
X63838Y-59571D01*
X63933Y-59571D01*
X63971Y-59552D01*
X63990Y-59533D01*
X64010Y-59495D01*
X64010Y-59418D01*
X63990Y-59380D01*
X63971Y-59361D01*
X63933Y-59342D01*
X63762Y-58980D02*
X63762Y-59171D01*
X63952Y-59190D01*
X63933Y-59171D01*
X63914Y-59133D01*
X63914Y-59037D01*
X63933Y-58999D01*
X63952Y-58980D01*
X63990Y-58961D01*
X64086Y-58961D01*
X64124Y-58980D01*
X64143Y-58999D01*
X64162Y-59037D01*
X64162Y-59133D01*
X64143Y-59171D01*
X64124Y-59190D01*
X63762Y-58714D02*
X63762Y-58675D01*
X63781Y-58637D01*
X63800Y-58618D01*
X63838Y-58599D01*
X63914Y-58580D01*
X64010Y-58580D01*
X64086Y-58599D01*
X64124Y-58618D01*
X64143Y-58637D01*
X64162Y-58675D01*
X64162Y-58714D01*
X64143Y-58752D01*
X64124Y-58771D01*
X64086Y-58790D01*
X64010Y-58809D01*
X63914Y-58809D01*
X63838Y-58790D01*
X63800Y-58771D01*
X63781Y-58752D01*
X63762Y-58714D01*
X64010Y-58409D02*
X64010Y-58104D01*
X63762Y-57952D02*
X63762Y-57704D01*
X63914Y-57838D01*
X63914Y-57780D01*
X63933Y-57742D01*
X63952Y-57723D01*
X63990Y-57704D01*
X64086Y-57704D01*
X64124Y-57723D01*
X64143Y-57742D01*
X64162Y-57780D01*
X64162Y-57895D01*
X64143Y-57933D01*
X64124Y-57952D01*
X63762Y-57457D02*
X63762Y-57418D01*
X63781Y-57380D01*
X63800Y-57361D01*
X63838Y-57342D01*
X63914Y-57323D01*
X64010Y-57323D01*
X64086Y-57342D01*
X64124Y-57361D01*
X64143Y-57380D01*
X64162Y-57418D01*
X64162Y-57457D01*
X64143Y-57495D01*
X64124Y-57514D01*
X64086Y-57533D01*
X64010Y-57552D01*
X63914Y-57552D01*
X63838Y-57533D01*
X63800Y-57514D01*
X63781Y-57495D01*
X63762Y-57457D01*
G54D18*
X75471Y-60690D02*
X75714Y-60690D01*
X75743Y-60679D01*
X75757Y-60667D01*
X75771Y-60643D01*
X75771Y-60595D01*
X75757Y-60571D01*
X75743Y-60560D01*
X75714Y-60548D01*
X75471Y-60548D01*
X75471Y-60452D02*
X75471Y-60298D01*
X75586Y-60381D01*
X75586Y-60345D01*
X75600Y-60321D01*
X75614Y-60309D01*
X75643Y-60298D01*
X75714Y-60298D01*
X75743Y-60309D01*
X75757Y-60321D01*
X75771Y-60345D01*
X75771Y-60417D01*
X75757Y-60440D01*
X75743Y-60452D01*
G54D10*
X82932Y-34355D02*
X83382Y-34021D01*
X82932Y-34021D02*
X83382Y-34355D01*
X83382Y-33569D02*
X83382Y-33855D01*
X83382Y-33712D02*
X82932Y-33712D01*
X82996Y-33760D01*
X83039Y-33807D01*
X83061Y-33855D01*
X81775Y-34798D02*
X81754Y-34845D01*
X81732Y-34869D01*
X81689Y-34893D01*
X81668Y-34893D01*
X81625Y-34869D01*
X81604Y-34845D01*
X81582Y-34798D01*
X81582Y-34702D01*
X81604Y-34655D01*
X81625Y-34631D01*
X81668Y-34607D01*
X81689Y-34607D01*
X81732Y-34631D01*
X81754Y-34655D01*
X81775Y-34702D01*
X81775Y-34798D01*
X81796Y-34845D01*
X81818Y-34869D01*
X81861Y-34893D01*
X81946Y-34893D01*
X81989Y-34869D01*
X82011Y-34845D01*
X82032Y-34798D01*
X82032Y-34702D01*
X82011Y-34655D01*
X81989Y-34631D01*
X81946Y-34607D01*
X81861Y-34607D01*
X81818Y-34631D01*
X81796Y-34655D01*
X81775Y-34702D01*
X82032Y-34393D02*
X81582Y-34393D01*
X81904Y-34226D01*
X81582Y-34060D01*
X82032Y-34060D01*
X82032Y-33822D02*
X81582Y-33822D01*
X81796Y-33822D02*
X81796Y-33536D01*
X82032Y-33536D02*
X81582Y-33536D01*
X81732Y-33346D02*
X81732Y-33084D01*
X82032Y-33346D01*
X82032Y-33084D01*
G54D23*
X54157Y-31083D02*
X54157Y-31650D01*
X54179Y-31717D01*
X54200Y-31750D01*
X54243Y-31783D01*
X54329Y-31783D01*
X54371Y-31750D01*
X54393Y-31717D01*
X54414Y-31650D01*
X54414Y-31083D01*
X54650Y-31783D02*
X54735Y-31783D01*
X54778Y-31750D01*
X54800Y-31717D01*
X54842Y-31617D01*
X54864Y-31483D01*
X54864Y-31217D01*
X54842Y-31150D01*
X54821Y-31117D01*
X54778Y-31083D01*
X54692Y-31083D01*
X54650Y-31117D01*
X54628Y-31150D01*
X54607Y-31217D01*
X54607Y-31383D01*
X54628Y-31450D01*
X54650Y-31483D01*
X54692Y-31517D01*
X54778Y-31517D01*
X54821Y-31483D01*
X54842Y-31450D01*
X54864Y-31383D01*
X56503Y-31983D02*
X56503Y-32550D01*
X56525Y-32617D01*
X56546Y-32650D01*
X56589Y-32683D01*
X56675Y-32683D01*
X56717Y-32650D01*
X56739Y-32617D01*
X56760Y-32550D01*
X56760Y-31983D01*
X57188Y-32683D02*
X56974Y-32683D01*
X56974Y-31983D01*
X57338Y-32683D02*
X57338Y-31983D01*
X57595Y-32683D01*
X57595Y-31983D01*
X57788Y-32050D02*
X57809Y-32017D01*
X57852Y-31983D01*
X57959Y-31983D01*
X58002Y-32017D01*
X58023Y-32050D01*
X58045Y-32117D01*
X58045Y-32183D01*
X58023Y-32283D01*
X57766Y-32683D01*
X58045Y-32683D01*
X58302Y-32283D02*
X58260Y-32250D01*
X58238Y-32217D01*
X58217Y-32150D01*
X58217Y-32117D01*
X58238Y-32050D01*
X58260Y-32017D01*
X58302Y-31983D01*
X58388Y-31983D01*
X58431Y-32017D01*
X58452Y-32050D01*
X58474Y-32117D01*
X58474Y-32150D01*
X58452Y-32217D01*
X58431Y-32250D01*
X58388Y-32283D01*
X58302Y-32283D01*
X58260Y-32317D01*
X58238Y-32350D01*
X58217Y-32417D01*
X58217Y-32550D01*
X58238Y-32617D01*
X58260Y-32650D01*
X58302Y-32683D01*
X58388Y-32683D01*
X58431Y-32650D01*
X58452Y-32617D01*
X58474Y-32550D01*
X58474Y-32417D01*
X58452Y-32350D01*
X58431Y-32317D01*
X58388Y-32283D01*
X58753Y-31983D02*
X58796Y-31983D01*
X58839Y-32017D01*
X58860Y-32050D01*
X58881Y-32117D01*
X58903Y-32250D01*
X58903Y-32417D01*
X58881Y-32550D01*
X58860Y-32617D01*
X58839Y-32650D01*
X58796Y-32683D01*
X58753Y-32683D01*
X58710Y-32650D01*
X58689Y-32617D01*
X58667Y-32550D01*
X58646Y-32417D01*
X58646Y-32250D01*
X58667Y-32117D01*
X58689Y-32050D01*
X58710Y-32017D01*
X58753Y-31983D01*
X59053Y-31983D02*
X59332Y-31983D01*
X59182Y-32250D01*
X59246Y-32250D01*
X59289Y-32283D01*
X59310Y-32317D01*
X59332Y-32383D01*
X59332Y-32550D01*
X59310Y-32617D01*
X59289Y-32650D01*
X59246Y-32683D01*
X59118Y-32683D01*
X59075Y-32650D01*
X59053Y-32617D01*
X59504Y-32483D02*
X59718Y-32483D01*
X59461Y-32683D02*
X59611Y-31983D01*
X59761Y-32683D01*
X44157Y-31083D02*
X44157Y-31650D01*
X44179Y-31717D01*
X44200Y-31750D01*
X44243Y-31783D01*
X44329Y-31783D01*
X44371Y-31750D01*
X44393Y-31717D01*
X44414Y-31650D01*
X44414Y-31083D01*
X44692Y-31383D02*
X44650Y-31350D01*
X44628Y-31317D01*
X44607Y-31250D01*
X44607Y-31217D01*
X44628Y-31150D01*
X44650Y-31117D01*
X44692Y-31083D01*
X44778Y-31083D01*
X44821Y-31117D01*
X44842Y-31150D01*
X44864Y-31217D01*
X44864Y-31250D01*
X44842Y-31317D01*
X44821Y-31350D01*
X44778Y-31383D01*
X44692Y-31383D01*
X44650Y-31417D01*
X44628Y-31450D01*
X44607Y-31517D01*
X44607Y-31650D01*
X44628Y-31717D01*
X44650Y-31750D01*
X44692Y-31783D01*
X44778Y-31783D01*
X44821Y-31750D01*
X44842Y-31717D01*
X44864Y-31650D01*
X44864Y-31517D01*
X44842Y-31450D01*
X44821Y-31417D01*
X44778Y-31383D01*
X46503Y-31983D02*
X46503Y-32550D01*
X46525Y-32617D01*
X46546Y-32650D01*
X46589Y-32683D01*
X46675Y-32683D01*
X46717Y-32650D01*
X46739Y-32617D01*
X46760Y-32550D01*
X46760Y-31983D01*
X47188Y-32683D02*
X46974Y-32683D01*
X46974Y-31983D01*
X47338Y-32683D02*
X47338Y-31983D01*
X47595Y-32683D01*
X47595Y-31983D01*
X47788Y-32050D02*
X47809Y-32017D01*
X47852Y-31983D01*
X47959Y-31983D01*
X48002Y-32017D01*
X48023Y-32050D01*
X48045Y-32117D01*
X48045Y-32183D01*
X48023Y-32283D01*
X47766Y-32683D01*
X48045Y-32683D01*
X48302Y-32283D02*
X48260Y-32250D01*
X48238Y-32217D01*
X48217Y-32150D01*
X48217Y-32117D01*
X48238Y-32050D01*
X48260Y-32017D01*
X48302Y-31983D01*
X48388Y-31983D01*
X48431Y-32017D01*
X48452Y-32050D01*
X48474Y-32117D01*
X48474Y-32150D01*
X48452Y-32217D01*
X48431Y-32250D01*
X48388Y-32283D01*
X48302Y-32283D01*
X48260Y-32317D01*
X48238Y-32350D01*
X48217Y-32417D01*
X48217Y-32550D01*
X48238Y-32617D01*
X48260Y-32650D01*
X48302Y-32683D01*
X48388Y-32683D01*
X48431Y-32650D01*
X48452Y-32617D01*
X48474Y-32550D01*
X48474Y-32417D01*
X48452Y-32350D01*
X48431Y-32317D01*
X48388Y-32283D01*
X48753Y-31983D02*
X48796Y-31983D01*
X48839Y-32017D01*
X48860Y-32050D01*
X48881Y-32117D01*
X48903Y-32250D01*
X48903Y-32417D01*
X48881Y-32550D01*
X48860Y-32617D01*
X48839Y-32650D01*
X48796Y-32683D01*
X48753Y-32683D01*
X48710Y-32650D01*
X48689Y-32617D01*
X48667Y-32550D01*
X48646Y-32417D01*
X48646Y-32250D01*
X48667Y-32117D01*
X48689Y-32050D01*
X48710Y-32017D01*
X48753Y-31983D01*
X49053Y-31983D02*
X49332Y-31983D01*
X49182Y-32250D01*
X49246Y-32250D01*
X49289Y-32283D01*
X49310Y-32317D01*
X49332Y-32383D01*
X49332Y-32550D01*
X49310Y-32617D01*
X49289Y-32650D01*
X49246Y-32683D01*
X49118Y-32683D01*
X49075Y-32650D01*
X49053Y-32617D01*
X49504Y-32483D02*
X49718Y-32483D01*
X49461Y-32683D02*
X49611Y-31983D01*
X49761Y-32683D01*
X34157Y-51083D02*
X34157Y-51650D01*
X34179Y-51717D01*
X34200Y-51750D01*
X34243Y-51783D01*
X34329Y-51783D01*
X34371Y-51750D01*
X34393Y-51717D01*
X34414Y-51650D01*
X34414Y-51083D01*
X34821Y-51083D02*
X34735Y-51083D01*
X34692Y-51117D01*
X34671Y-51150D01*
X34628Y-51250D01*
X34607Y-51383D01*
X34607Y-51650D01*
X34628Y-51717D01*
X34650Y-51750D01*
X34692Y-51783D01*
X34778Y-51783D01*
X34821Y-51750D01*
X34842Y-51717D01*
X34864Y-51650D01*
X34864Y-51483D01*
X34842Y-51417D01*
X34821Y-51383D01*
X34778Y-51350D01*
X34692Y-51350D01*
X34650Y-51383D01*
X34628Y-51417D01*
X34607Y-51483D01*
X36503Y-51983D02*
X36503Y-52550D01*
X36525Y-52617D01*
X36546Y-52650D01*
X36589Y-52683D01*
X36675Y-52683D01*
X36717Y-52650D01*
X36739Y-52617D01*
X36760Y-52550D01*
X36760Y-51983D01*
X37188Y-52683D02*
X36974Y-52683D01*
X36974Y-51983D01*
X37338Y-52683D02*
X37338Y-51983D01*
X37595Y-52683D01*
X37595Y-51983D01*
X37788Y-52050D02*
X37809Y-52017D01*
X37852Y-51983D01*
X37959Y-51983D01*
X38002Y-52017D01*
X38023Y-52050D01*
X38045Y-52117D01*
X38045Y-52183D01*
X38023Y-52283D01*
X37766Y-52683D01*
X38045Y-52683D01*
X38302Y-52283D02*
X38260Y-52250D01*
X38238Y-52217D01*
X38217Y-52150D01*
X38217Y-52117D01*
X38238Y-52050D01*
X38260Y-52017D01*
X38302Y-51983D01*
X38388Y-51983D01*
X38431Y-52017D01*
X38452Y-52050D01*
X38474Y-52117D01*
X38474Y-52150D01*
X38452Y-52217D01*
X38431Y-52250D01*
X38388Y-52283D01*
X38302Y-52283D01*
X38260Y-52317D01*
X38238Y-52350D01*
X38217Y-52417D01*
X38217Y-52550D01*
X38238Y-52617D01*
X38260Y-52650D01*
X38302Y-52683D01*
X38388Y-52683D01*
X38431Y-52650D01*
X38452Y-52617D01*
X38474Y-52550D01*
X38474Y-52417D01*
X38452Y-52350D01*
X38431Y-52317D01*
X38388Y-52283D01*
X38753Y-51983D02*
X38796Y-51983D01*
X38839Y-52017D01*
X38860Y-52050D01*
X38881Y-52117D01*
X38903Y-52250D01*
X38903Y-52417D01*
X38881Y-52550D01*
X38860Y-52617D01*
X38839Y-52650D01*
X38796Y-52683D01*
X38753Y-52683D01*
X38710Y-52650D01*
X38689Y-52617D01*
X38667Y-52550D01*
X38646Y-52417D01*
X38646Y-52250D01*
X38667Y-52117D01*
X38689Y-52050D01*
X38710Y-52017D01*
X38753Y-51983D01*
X39053Y-51983D02*
X39332Y-51983D01*
X39182Y-52250D01*
X39246Y-52250D01*
X39289Y-52283D01*
X39310Y-52317D01*
X39332Y-52383D01*
X39332Y-52550D01*
X39310Y-52617D01*
X39289Y-52650D01*
X39246Y-52683D01*
X39118Y-52683D01*
X39075Y-52650D01*
X39053Y-52617D01*
X39504Y-52483D02*
X39718Y-52483D01*
X39461Y-52683D02*
X39611Y-51983D01*
X39761Y-52683D01*
X39157Y-62583D02*
X39157Y-63150D01*
X39179Y-63217D01*
X39200Y-63250D01*
X39243Y-63283D01*
X39329Y-63283D01*
X39371Y-63250D01*
X39393Y-63217D01*
X39414Y-63150D01*
X39414Y-62583D01*
X39842Y-62583D02*
X39628Y-62583D01*
X39607Y-62917D01*
X39628Y-62883D01*
X39671Y-62850D01*
X39778Y-62850D01*
X39821Y-62883D01*
X39842Y-62917D01*
X39864Y-62983D01*
X39864Y-63150D01*
X39842Y-63217D01*
X39821Y-63250D01*
X39778Y-63283D01*
X39671Y-63283D01*
X39628Y-63250D01*
X39607Y-63217D01*
X34303Y-61683D02*
X34303Y-62250D01*
X34325Y-62317D01*
X34346Y-62350D01*
X34389Y-62383D01*
X34475Y-62383D01*
X34517Y-62350D01*
X34539Y-62317D01*
X34560Y-62250D01*
X34560Y-61683D01*
X34988Y-62383D02*
X34774Y-62383D01*
X34774Y-61683D01*
X35138Y-62383D02*
X35138Y-61683D01*
X35395Y-62383D01*
X35395Y-61683D01*
X35588Y-61750D02*
X35609Y-61717D01*
X35652Y-61683D01*
X35759Y-61683D01*
X35802Y-61717D01*
X35823Y-61750D01*
X35845Y-61817D01*
X35845Y-61883D01*
X35823Y-61983D01*
X35566Y-62383D01*
X35845Y-62383D01*
X36102Y-61983D02*
X36060Y-61950D01*
X36038Y-61917D01*
X36017Y-61850D01*
X36017Y-61817D01*
X36038Y-61750D01*
X36060Y-61717D01*
X36102Y-61683D01*
X36188Y-61683D01*
X36231Y-61717D01*
X36252Y-61750D01*
X36274Y-61817D01*
X36274Y-61850D01*
X36252Y-61917D01*
X36231Y-61950D01*
X36188Y-61983D01*
X36102Y-61983D01*
X36060Y-62017D01*
X36038Y-62050D01*
X36017Y-62117D01*
X36017Y-62250D01*
X36038Y-62317D01*
X36060Y-62350D01*
X36102Y-62383D01*
X36188Y-62383D01*
X36231Y-62350D01*
X36252Y-62317D01*
X36274Y-62250D01*
X36274Y-62117D01*
X36252Y-62050D01*
X36231Y-62017D01*
X36188Y-61983D01*
X36553Y-61683D02*
X36596Y-61683D01*
X36639Y-61717D01*
X36660Y-61750D01*
X36681Y-61817D01*
X36703Y-61950D01*
X36703Y-62117D01*
X36681Y-62250D01*
X36660Y-62317D01*
X36639Y-62350D01*
X36596Y-62383D01*
X36553Y-62383D01*
X36510Y-62350D01*
X36489Y-62317D01*
X36467Y-62250D01*
X36446Y-62117D01*
X36446Y-61950D01*
X36467Y-61817D01*
X36489Y-61750D01*
X36510Y-61717D01*
X36553Y-61683D01*
X36853Y-61683D02*
X37132Y-61683D01*
X36982Y-61950D01*
X37046Y-61950D01*
X37089Y-61983D01*
X37110Y-62017D01*
X37132Y-62083D01*
X37132Y-62250D01*
X37110Y-62317D01*
X37089Y-62350D01*
X37046Y-62383D01*
X36918Y-62383D01*
X36875Y-62350D01*
X36853Y-62317D01*
X37304Y-62183D02*
X37518Y-62183D01*
X37261Y-62383D02*
X37411Y-61683D01*
X37561Y-62383D01*
G54D16*
X85723Y-30083D02*
X85461Y-30250D01*
X85723Y-30369D02*
X85173Y-30369D01*
X85173Y-30178D01*
X85199Y-30131D01*
X85225Y-30107D01*
X85277Y-30083D01*
X85356Y-30083D01*
X85408Y-30107D01*
X85435Y-30131D01*
X85461Y-30178D01*
X85461Y-30369D01*
X85723Y-29845D02*
X85723Y-29750D01*
X85696Y-29702D01*
X85670Y-29678D01*
X85592Y-29631D01*
X85487Y-29607D01*
X85277Y-29607D01*
X85225Y-29631D01*
X85199Y-29655D01*
X85173Y-29702D01*
X85173Y-29798D01*
X85199Y-29845D01*
X85225Y-29869D01*
X85277Y-29893D01*
X85408Y-29893D01*
X85461Y-29869D01*
X85487Y-29845D01*
X85513Y-29798D01*
X85513Y-29702D01*
X85487Y-29655D01*
X85461Y-29631D01*
X85408Y-29607D01*
X84417Y-27723D02*
X84250Y-27461D01*
X84131Y-27723D02*
X84131Y-27173D01*
X84322Y-27173D01*
X84369Y-27199D01*
X84393Y-27225D01*
X84417Y-27277D01*
X84417Y-27356D01*
X84393Y-27408D01*
X84369Y-27435D01*
X84322Y-27461D01*
X84131Y-27461D01*
X84702Y-27408D02*
X84655Y-27382D01*
X84631Y-27356D01*
X84607Y-27304D01*
X84607Y-27277D01*
X84631Y-27225D01*
X84655Y-27199D01*
X84702Y-27173D01*
X84798Y-27173D01*
X84845Y-27199D01*
X84869Y-27225D01*
X84893Y-27277D01*
X84893Y-27304D01*
X84869Y-27356D01*
X84845Y-27382D01*
X84798Y-27408D01*
X84702Y-27408D01*
X84655Y-27435D01*
X84631Y-27461D01*
X84607Y-27513D01*
X84607Y-27618D01*
X84631Y-27670D01*
X84655Y-27696D01*
X84702Y-27723D01*
X84798Y-27723D01*
X84845Y-27696D01*
X84869Y-27670D01*
X84893Y-27618D01*
X84893Y-27513D01*
X84869Y-27461D01*
X84845Y-27435D01*
X84798Y-27408D01*
G54D23*
X33953Y-46243D02*
X33953Y-45643D01*
X34125Y-45643D01*
X34167Y-45671D01*
X34189Y-45700D01*
X34210Y-45757D01*
X34210Y-45843D01*
X34189Y-45900D01*
X34167Y-45929D01*
X34125Y-45957D01*
X33953Y-45957D01*
X34639Y-46243D02*
X34382Y-46243D01*
X34510Y-46243D02*
X34510Y-45643D01*
X34467Y-45729D01*
X34425Y-45786D01*
X34382Y-45814D01*
X34811Y-45700D02*
X34832Y-45671D01*
X34875Y-45643D01*
X34982Y-45643D01*
X35025Y-45671D01*
X35046Y-45700D01*
X35068Y-45757D01*
X35068Y-45814D01*
X35046Y-45900D01*
X34789Y-46243D01*
X35068Y-46243D01*
X36618Y-47186D02*
X36597Y-47214D01*
X36533Y-47243D01*
X36490Y-47243D01*
X36425Y-47214D01*
X36383Y-47157D01*
X36361Y-47100D01*
X36340Y-46986D01*
X36340Y-46900D01*
X36361Y-46786D01*
X36383Y-46729D01*
X36425Y-46671D01*
X36490Y-46643D01*
X36533Y-46643D01*
X36597Y-46671D01*
X36618Y-46700D01*
X36897Y-46643D02*
X36983Y-46643D01*
X37025Y-46671D01*
X37068Y-46729D01*
X37090Y-46843D01*
X37090Y-47043D01*
X37068Y-47157D01*
X37025Y-47214D01*
X36983Y-47243D01*
X36897Y-47243D01*
X36854Y-47214D01*
X36811Y-47157D01*
X36790Y-47043D01*
X36790Y-46843D01*
X36811Y-46729D01*
X36854Y-46671D01*
X36897Y-46643D01*
X37282Y-47243D02*
X37282Y-46643D01*
X37539Y-47243D01*
X37539Y-46643D01*
X37753Y-47243D02*
X37753Y-46643D01*
X38010Y-47243D01*
X38010Y-46643D01*
X38117Y-47300D02*
X38460Y-47300D01*
X38546Y-46700D02*
X38567Y-46671D01*
X38610Y-46643D01*
X38717Y-46643D01*
X38760Y-46671D01*
X38781Y-46700D01*
X38803Y-46757D01*
X38803Y-46814D01*
X38781Y-46900D01*
X38524Y-47243D01*
X38803Y-47243D01*
X38953Y-46643D02*
X39253Y-47243D01*
X39253Y-46643D02*
X38953Y-47243D01*
X39489Y-46900D02*
X39447Y-46871D01*
X39425Y-46843D01*
X39404Y-46786D01*
X39404Y-46757D01*
X39425Y-46700D01*
X39447Y-46671D01*
X39489Y-46643D01*
X39575Y-46643D01*
X39618Y-46671D01*
X39639Y-46700D01*
X39661Y-46757D01*
X39661Y-46786D01*
X39639Y-46843D01*
X39618Y-46871D01*
X39575Y-46900D01*
X39489Y-46900D01*
X39447Y-46929D01*
X39425Y-46957D01*
X39404Y-47014D01*
X39404Y-47129D01*
X39425Y-47186D01*
X39447Y-47214D01*
X39489Y-47243D01*
X39575Y-47243D01*
X39618Y-47214D01*
X39639Y-47186D01*
X39661Y-47129D01*
X39661Y-47014D01*
X39639Y-46957D01*
X39618Y-46929D01*
X39575Y-46900D01*
G54D11*
X73586Y-22621D02*
X73867Y-22621D01*
X73529Y-22911D02*
X73726Y-21895D01*
X73923Y-22911D01*
X74121Y-22234D02*
X74121Y-22911D01*
X74121Y-22331D02*
X74149Y-22282D01*
X74205Y-22234D01*
X74290Y-22234D01*
X74346Y-22282D01*
X74374Y-22379D01*
X74374Y-22911D01*
X74571Y-22234D02*
X74796Y-22234D01*
X74656Y-21895D02*
X74656Y-22766D01*
X74684Y-22863D01*
X74740Y-22911D01*
X74796Y-22911D01*
X75219Y-22863D02*
X75163Y-22911D01*
X75050Y-22911D01*
X74994Y-22863D01*
X74966Y-22766D01*
X74966Y-22379D01*
X74994Y-22282D01*
X75050Y-22234D01*
X75163Y-22234D01*
X75219Y-22282D01*
X75247Y-22379D01*
X75247Y-22476D01*
X74966Y-22573D01*
X75501Y-22234D02*
X75501Y-22911D01*
X75501Y-22331D02*
X75529Y-22282D01*
X75585Y-22234D01*
X75670Y-22234D01*
X75726Y-22282D01*
X75754Y-22379D01*
X75754Y-22911D01*
X76036Y-22234D02*
X76036Y-22911D01*
X76036Y-22331D02*
X76064Y-22282D01*
X76120Y-22234D01*
X76205Y-22234D01*
X76261Y-22282D01*
X76289Y-22379D01*
X76289Y-22911D01*
X76824Y-22911D02*
X76824Y-22379D01*
X76796Y-22282D01*
X76740Y-22234D01*
X76627Y-22234D01*
X76571Y-22282D01*
X76824Y-22863D02*
X76768Y-22911D01*
X76627Y-22911D01*
X76571Y-22863D01*
X76543Y-22766D01*
X76543Y-22669D01*
X76571Y-22573D01*
X76627Y-22524D01*
X76768Y-22524D01*
X76824Y-22476D01*
X77415Y-22911D02*
X77078Y-22911D01*
X77246Y-22911D02*
X77246Y-21895D01*
X77190Y-22040D01*
X77134Y-22137D01*
X77078Y-22186D01*
X76604Y-24911D02*
X76550Y-24974D01*
X76388Y-25037D01*
X76280Y-25037D01*
X76119Y-24974D01*
X76011Y-24848D01*
X75957Y-24721D01*
X75903Y-24468D01*
X75903Y-24278D01*
X75957Y-24025D01*
X76011Y-23898D01*
X76119Y-23772D01*
X76280Y-23708D01*
X76388Y-23708D01*
X76550Y-23772D01*
X76604Y-23835D01*
X77304Y-23708D02*
X77519Y-23708D01*
X77627Y-23772D01*
X77735Y-23898D01*
X77788Y-24151D01*
X77788Y-24594D01*
X77735Y-24848D01*
X77627Y-24974D01*
X77519Y-25037D01*
X77304Y-25037D01*
X77196Y-24974D01*
X77088Y-24848D01*
X77034Y-24594D01*
X77034Y-24151D01*
X77088Y-23898D01*
X77196Y-23772D01*
X77304Y-23708D01*
X78273Y-25037D02*
X78273Y-23708D01*
X78920Y-25037D01*
X78920Y-23708D01*
X79458Y-25037D02*
X79458Y-23708D01*
X80105Y-25037D01*
X80105Y-23708D01*
X80374Y-25164D02*
X81236Y-25164D01*
X82098Y-25037D02*
X81451Y-25037D01*
X81775Y-25037D02*
X81775Y-23708D01*
X81667Y-23898D01*
X81559Y-24025D01*
X81451Y-24088D01*
G54D16*
X55723Y-48583D02*
X55461Y-48750D01*
X55723Y-48869D02*
X55173Y-48869D01*
X55173Y-48678D01*
X55199Y-48631D01*
X55225Y-48607D01*
X55277Y-48583D01*
X55356Y-48583D01*
X55408Y-48607D01*
X55435Y-48631D01*
X55461Y-48678D01*
X55461Y-48869D01*
X55173Y-48155D02*
X55173Y-48250D01*
X55199Y-48298D01*
X55225Y-48321D01*
X55304Y-48369D01*
X55408Y-48393D01*
X55618Y-48393D01*
X55670Y-48369D01*
X55696Y-48345D01*
X55723Y-48298D01*
X55723Y-48202D01*
X55696Y-48155D01*
X55670Y-48131D01*
X55618Y-48107D01*
X55487Y-48107D01*
X55435Y-48131D01*
X55408Y-48155D01*
X55382Y-48202D01*
X55382Y-48298D01*
X55408Y-48345D01*
X55435Y-48369D01*
X55487Y-48393D01*
G54D22*
X42734Y-65033D02*
X42734Y-64333D01*
X43000Y-64333D01*
X43067Y-64367D01*
X43100Y-64400D01*
X43134Y-64467D01*
X43134Y-64567D01*
X43100Y-64633D01*
X43067Y-64667D01*
X43000Y-64700D01*
X42734Y-64700D01*
X43367Y-64333D02*
X43800Y-64333D01*
X43567Y-64600D01*
X43667Y-64600D01*
X43734Y-64633D01*
X43767Y-64667D01*
X43800Y-64733D01*
X43800Y-64900D01*
X43767Y-64967D01*
X43734Y-65000D01*
X43667Y-65033D01*
X43467Y-65033D01*
X43400Y-65000D01*
X43367Y-64967D01*
X43618Y-70767D02*
X43584Y-70800D01*
X43484Y-70833D01*
X43418Y-70833D01*
X43318Y-70800D01*
X43251Y-70733D01*
X43218Y-70667D01*
X43184Y-70533D01*
X43184Y-70433D01*
X43218Y-70300D01*
X43251Y-70233D01*
X43318Y-70167D01*
X43418Y-70133D01*
X43484Y-70133D01*
X43584Y-70167D01*
X43618Y-70200D01*
X44051Y-70133D02*
X44184Y-70133D01*
X44251Y-70167D01*
X44318Y-70233D01*
X44351Y-70367D01*
X44351Y-70600D01*
X44318Y-70733D01*
X44251Y-70800D01*
X44184Y-70833D01*
X44051Y-70833D01*
X43984Y-70800D01*
X43918Y-70733D01*
X43884Y-70600D01*
X43884Y-70367D01*
X43918Y-70233D01*
X43984Y-70167D01*
X44051Y-70133D01*
X44651Y-70833D02*
X44651Y-70133D01*
X45051Y-70833D01*
X45051Y-70133D01*
X45384Y-70833D02*
X45384Y-70133D01*
X45784Y-70833D01*
X45784Y-70133D01*
X45950Y-70900D02*
X46483Y-70900D01*
X46616Y-70200D02*
X46650Y-70167D01*
X46716Y-70133D01*
X46883Y-70133D01*
X46950Y-70167D01*
X46983Y-70200D01*
X47016Y-70267D01*
X47016Y-70333D01*
X46983Y-70433D01*
X46583Y-70833D01*
X47016Y-70833D01*
X79734Y-65033D02*
X79734Y-64333D01*
X80000Y-64333D01*
X80067Y-64367D01*
X80100Y-64400D01*
X80134Y-64467D01*
X80134Y-64567D01*
X80100Y-64633D01*
X80067Y-64667D01*
X80000Y-64700D01*
X79734Y-64700D01*
X80734Y-64567D02*
X80734Y-65033D01*
X80567Y-64300D02*
X80400Y-64800D01*
X80834Y-64800D01*
X80618Y-70767D02*
X80584Y-70800D01*
X80484Y-70833D01*
X80418Y-70833D01*
X80318Y-70800D01*
X80251Y-70733D01*
X80218Y-70667D01*
X80184Y-70533D01*
X80184Y-70433D01*
X80218Y-70300D01*
X80251Y-70233D01*
X80318Y-70167D01*
X80418Y-70133D01*
X80484Y-70133D01*
X80584Y-70167D01*
X80618Y-70200D01*
X81051Y-70133D02*
X81184Y-70133D01*
X81251Y-70167D01*
X81318Y-70233D01*
X81351Y-70367D01*
X81351Y-70600D01*
X81318Y-70733D01*
X81251Y-70800D01*
X81184Y-70833D01*
X81051Y-70833D01*
X80984Y-70800D01*
X80918Y-70733D01*
X80884Y-70600D01*
X80884Y-70367D01*
X80918Y-70233D01*
X80984Y-70167D01*
X81051Y-70133D01*
X81651Y-70833D02*
X81651Y-70133D01*
X82051Y-70833D01*
X82051Y-70133D01*
X82384Y-70833D02*
X82384Y-70133D01*
X82784Y-70833D01*
X82784Y-70133D01*
X82950Y-70900D02*
X83483Y-70900D01*
X83616Y-70200D02*
X83650Y-70167D01*
X83716Y-70133D01*
X83883Y-70133D01*
X83950Y-70167D01*
X83983Y-70200D01*
X84016Y-70267D01*
X84016Y-70333D01*
X83983Y-70433D01*
X83583Y-70833D01*
X84016Y-70833D01*
X53734Y-65033D02*
X53734Y-64333D01*
X54000Y-64333D01*
X54067Y-64367D01*
X54100Y-64400D01*
X54134Y-64467D01*
X54134Y-64567D01*
X54100Y-64633D01*
X54067Y-64667D01*
X54000Y-64700D01*
X53734Y-64700D01*
X54367Y-64333D02*
X54834Y-64333D01*
X54534Y-65033D01*
X54618Y-70767D02*
X54584Y-70800D01*
X54484Y-70833D01*
X54418Y-70833D01*
X54318Y-70800D01*
X54251Y-70733D01*
X54218Y-70667D01*
X54184Y-70533D01*
X54184Y-70433D01*
X54218Y-70300D01*
X54251Y-70233D01*
X54318Y-70167D01*
X54418Y-70133D01*
X54484Y-70133D01*
X54584Y-70167D01*
X54618Y-70200D01*
X55051Y-70133D02*
X55184Y-70133D01*
X55251Y-70167D01*
X55318Y-70233D01*
X55351Y-70367D01*
X55351Y-70600D01*
X55318Y-70733D01*
X55251Y-70800D01*
X55184Y-70833D01*
X55051Y-70833D01*
X54984Y-70800D01*
X54918Y-70733D01*
X54884Y-70600D01*
X54884Y-70367D01*
X54918Y-70233D01*
X54984Y-70167D01*
X55051Y-70133D01*
X55651Y-70833D02*
X55651Y-70133D01*
X56051Y-70833D01*
X56051Y-70133D01*
X56384Y-70833D02*
X56384Y-70133D01*
X56784Y-70833D01*
X56784Y-70133D01*
X56950Y-70900D02*
X57483Y-70900D01*
X57616Y-70200D02*
X57650Y-70167D01*
X57716Y-70133D01*
X57883Y-70133D01*
X57950Y-70167D01*
X57983Y-70200D01*
X58016Y-70267D01*
X58016Y-70333D01*
X57983Y-70433D01*
X57583Y-70833D01*
X58016Y-70833D01*
X66734Y-65033D02*
X66734Y-64333D01*
X67000Y-64333D01*
X67067Y-64367D01*
X67100Y-64400D01*
X67134Y-64467D01*
X67134Y-64567D01*
X67100Y-64633D01*
X67067Y-64667D01*
X67000Y-64700D01*
X66734Y-64700D01*
X67534Y-64633D02*
X67467Y-64600D01*
X67434Y-64567D01*
X67400Y-64500D01*
X67400Y-64467D01*
X67434Y-64400D01*
X67467Y-64367D01*
X67534Y-64333D01*
X67667Y-64333D01*
X67734Y-64367D01*
X67767Y-64400D01*
X67800Y-64467D01*
X67800Y-64500D01*
X67767Y-64567D01*
X67734Y-64600D01*
X67667Y-64633D01*
X67534Y-64633D01*
X67467Y-64667D01*
X67434Y-64700D01*
X67400Y-64767D01*
X67400Y-64900D01*
X67434Y-64967D01*
X67467Y-65000D01*
X67534Y-65033D01*
X67667Y-65033D01*
X67734Y-65000D01*
X67767Y-64967D01*
X67800Y-64900D01*
X67800Y-64767D01*
X67767Y-64700D01*
X67734Y-64667D01*
X67667Y-64633D01*
X67618Y-70767D02*
X67584Y-70800D01*
X67484Y-70833D01*
X67418Y-70833D01*
X67318Y-70800D01*
X67251Y-70733D01*
X67218Y-70667D01*
X67184Y-70533D01*
X67184Y-70433D01*
X67218Y-70300D01*
X67251Y-70233D01*
X67318Y-70167D01*
X67418Y-70133D01*
X67484Y-70133D01*
X67584Y-70167D01*
X67618Y-70200D01*
X68051Y-70133D02*
X68184Y-70133D01*
X68251Y-70167D01*
X68318Y-70233D01*
X68351Y-70367D01*
X68351Y-70600D01*
X68318Y-70733D01*
X68251Y-70800D01*
X68184Y-70833D01*
X68051Y-70833D01*
X67984Y-70800D01*
X67918Y-70733D01*
X67884Y-70600D01*
X67884Y-70367D01*
X67918Y-70233D01*
X67984Y-70167D01*
X68051Y-70133D01*
X68651Y-70833D02*
X68651Y-70133D01*
X69051Y-70833D01*
X69051Y-70133D01*
X69384Y-70833D02*
X69384Y-70133D01*
X69784Y-70833D01*
X69784Y-70133D01*
X69950Y-70900D02*
X70483Y-70900D01*
X70616Y-70200D02*
X70650Y-70167D01*
X70716Y-70133D01*
X70883Y-70133D01*
X70950Y-70167D01*
X70983Y-70200D01*
X71016Y-70267D01*
X71016Y-70333D01*
X70983Y-70433D01*
X70583Y-70833D01*
X71016Y-70833D01*
G54D23*
X48953Y-27743D02*
X48953Y-27143D01*
X49125Y-27143D01*
X49167Y-27171D01*
X49189Y-27200D01*
X49210Y-27257D01*
X49210Y-27343D01*
X49189Y-27400D01*
X49167Y-27429D01*
X49125Y-27457D01*
X48953Y-27457D01*
X49639Y-27743D02*
X49382Y-27743D01*
X49510Y-27743D02*
X49510Y-27143D01*
X49467Y-27229D01*
X49425Y-27286D01*
X49382Y-27314D01*
X49789Y-27143D02*
X50068Y-27143D01*
X49918Y-27371D01*
X49982Y-27371D01*
X50025Y-27400D01*
X50046Y-27429D01*
X50068Y-27486D01*
X50068Y-27629D01*
X50046Y-27686D01*
X50025Y-27714D01*
X49982Y-27743D01*
X49854Y-27743D01*
X49811Y-27714D01*
X49789Y-27686D01*
X45118Y-26686D02*
X45097Y-26714D01*
X45033Y-26743D01*
X44990Y-26743D01*
X44925Y-26714D01*
X44883Y-26657D01*
X44861Y-26600D01*
X44840Y-26486D01*
X44840Y-26400D01*
X44861Y-26286D01*
X44883Y-26229D01*
X44925Y-26171D01*
X44990Y-26143D01*
X45033Y-26143D01*
X45097Y-26171D01*
X45118Y-26200D01*
X45397Y-26143D02*
X45483Y-26143D01*
X45525Y-26171D01*
X45568Y-26229D01*
X45590Y-26343D01*
X45590Y-26543D01*
X45568Y-26657D01*
X45525Y-26714D01*
X45483Y-26743D01*
X45397Y-26743D01*
X45354Y-26714D01*
X45311Y-26657D01*
X45290Y-26543D01*
X45290Y-26343D01*
X45311Y-26229D01*
X45354Y-26171D01*
X45397Y-26143D01*
X45782Y-26743D02*
X45782Y-26143D01*
X46039Y-26743D01*
X46039Y-26143D01*
X46253Y-26743D02*
X46253Y-26143D01*
X46510Y-26743D01*
X46510Y-26143D01*
X46617Y-26800D02*
X46960Y-26800D01*
X47046Y-26200D02*
X47067Y-26171D01*
X47110Y-26143D01*
X47217Y-26143D01*
X47260Y-26171D01*
X47281Y-26200D01*
X47303Y-26257D01*
X47303Y-26314D01*
X47281Y-26400D01*
X47024Y-26743D01*
X47303Y-26743D01*
X47453Y-26143D02*
X47753Y-26743D01*
X47753Y-26143D02*
X47453Y-26743D01*
X47989Y-26400D02*
X47947Y-26371D01*
X47925Y-26343D01*
X47904Y-26286D01*
X47904Y-26257D01*
X47925Y-26200D01*
X47947Y-26171D01*
X47989Y-26143D01*
X48075Y-26143D01*
X48118Y-26171D01*
X48139Y-26200D01*
X48161Y-26257D01*
X48161Y-26286D01*
X48139Y-26343D01*
X48118Y-26371D01*
X48075Y-26400D01*
X47989Y-26400D01*
X47947Y-26429D01*
X47925Y-26457D01*
X47904Y-26514D01*
X47904Y-26629D01*
X47925Y-26686D01*
X47947Y-26714D01*
X47989Y-26743D01*
X48075Y-26743D01*
X48118Y-26714D01*
X48139Y-26686D01*
X48161Y-26629D01*
X48161Y-26514D01*
X48139Y-26457D01*
X48118Y-26429D01*
X48075Y-26400D01*
X51953Y-26743D02*
X51953Y-26143D01*
X52125Y-26143D01*
X52167Y-26171D01*
X52189Y-26200D01*
X52210Y-26257D01*
X52210Y-26343D01*
X52189Y-26400D01*
X52167Y-26429D01*
X52125Y-26457D01*
X51953Y-26457D01*
X52639Y-26743D02*
X52382Y-26743D01*
X52510Y-26743D02*
X52510Y-26143D01*
X52467Y-26229D01*
X52425Y-26286D01*
X52382Y-26314D01*
X53025Y-26343D02*
X53025Y-26743D01*
X52918Y-26114D02*
X52811Y-26543D01*
X53089Y-26543D01*
X54118Y-27686D02*
X54097Y-27714D01*
X54033Y-27743D01*
X53990Y-27743D01*
X53925Y-27714D01*
X53883Y-27657D01*
X53861Y-27600D01*
X53840Y-27486D01*
X53840Y-27400D01*
X53861Y-27286D01*
X53883Y-27229D01*
X53925Y-27171D01*
X53990Y-27143D01*
X54033Y-27143D01*
X54097Y-27171D01*
X54118Y-27200D01*
X54397Y-27143D02*
X54483Y-27143D01*
X54525Y-27171D01*
X54568Y-27229D01*
X54590Y-27343D01*
X54590Y-27543D01*
X54568Y-27657D01*
X54525Y-27714D01*
X54483Y-27743D01*
X54397Y-27743D01*
X54354Y-27714D01*
X54311Y-27657D01*
X54290Y-27543D01*
X54290Y-27343D01*
X54311Y-27229D01*
X54354Y-27171D01*
X54397Y-27143D01*
X54782Y-27743D02*
X54782Y-27143D01*
X55039Y-27743D01*
X55039Y-27143D01*
X55253Y-27743D02*
X55253Y-27143D01*
X55510Y-27743D01*
X55510Y-27143D01*
X55617Y-27800D02*
X55960Y-27800D01*
X56046Y-27200D02*
X56067Y-27171D01*
X56110Y-27143D01*
X56217Y-27143D01*
X56260Y-27171D01*
X56281Y-27200D01*
X56303Y-27257D01*
X56303Y-27314D01*
X56281Y-27400D01*
X56024Y-27743D01*
X56303Y-27743D01*
X56453Y-27143D02*
X56753Y-27743D01*
X56753Y-27143D02*
X56453Y-27743D01*
X56989Y-27400D02*
X56947Y-27371D01*
X56925Y-27343D01*
X56904Y-27286D01*
X56904Y-27257D01*
X56925Y-27200D01*
X56947Y-27171D01*
X56989Y-27143D01*
X57075Y-27143D01*
X57118Y-27171D01*
X57139Y-27200D01*
X57161Y-27257D01*
X57161Y-27286D01*
X57139Y-27343D01*
X57118Y-27371D01*
X57075Y-27400D01*
X56989Y-27400D01*
X56947Y-27429D01*
X56925Y-27457D01*
X56904Y-27514D01*
X56904Y-27629D01*
X56925Y-27686D01*
X56947Y-27714D01*
X56989Y-27743D01*
X57075Y-27743D01*
X57118Y-27714D01*
X57139Y-27686D01*
X57161Y-27629D01*
X57161Y-27514D01*
X57139Y-27457D01*
X57118Y-27429D01*
X57075Y-27400D01*
G54D16*
X87312Y-38986D02*
X86912Y-38986D01*
X86912Y-38833D01*
X86931Y-38795D01*
X86950Y-38776D01*
X86988Y-38757D01*
X87045Y-38757D01*
X87083Y-38776D01*
X87102Y-38795D01*
X87121Y-38833D01*
X87121Y-38986D01*
X87312Y-38376D02*
X87312Y-38605D01*
X87312Y-38491D02*
X86912Y-38491D01*
X86969Y-38529D01*
X87007Y-38567D01*
X87026Y-38605D01*
X86912Y-38033D02*
X86912Y-38110D01*
X86931Y-38148D01*
X86950Y-38167D01*
X87007Y-38205D01*
X87083Y-38224D01*
X87236Y-38224D01*
X87274Y-38205D01*
X87293Y-38186D01*
X87312Y-38148D01*
X87312Y-38071D01*
X87293Y-38033D01*
X87274Y-38014D01*
X87236Y-37995D01*
X87140Y-37995D01*
X87102Y-38014D01*
X87083Y-38033D01*
X87064Y-38071D01*
X87064Y-38148D01*
X87083Y-38186D01*
X87102Y-38205D01*
X87140Y-38224D01*
G54D11*
X83643Y-55957D02*
X84129Y-55957D01*
X84186Y-55929D01*
X84214Y-55900D01*
X84243Y-55843D01*
X84243Y-55729D01*
X84214Y-55671D01*
X84186Y-55643D01*
X84129Y-55614D01*
X83643Y-55614D01*
X83700Y-55357D02*
X83671Y-55328D01*
X83643Y-55271D01*
X83643Y-55128D01*
X83671Y-55071D01*
X83700Y-55042D01*
X83757Y-55014D01*
X83814Y-55014D01*
X83900Y-55042D01*
X84243Y-55385D01*
X84243Y-55014D01*
X79243Y-57299D02*
X79243Y-57585D01*
X78643Y-57585D01*
X79243Y-57099D02*
X78643Y-57099D01*
X79071Y-56899D01*
X78643Y-56699D01*
X79243Y-56699D01*
X78700Y-56442D02*
X78671Y-56413D01*
X78643Y-56356D01*
X78643Y-56213D01*
X78671Y-56156D01*
X78700Y-56127D01*
X78757Y-56099D01*
X78814Y-56099D01*
X78900Y-56127D01*
X79243Y-56470D01*
X79243Y-56099D01*
X78643Y-55556D02*
X78643Y-55842D01*
X78929Y-55871D01*
X78900Y-55842D01*
X78871Y-55785D01*
X78871Y-55642D01*
X78900Y-55585D01*
X78929Y-55556D01*
X78986Y-55528D01*
X79129Y-55528D01*
X79186Y-55556D01*
X79214Y-55585D01*
X79243Y-55642D01*
X79243Y-55785D01*
X79214Y-55842D01*
X79186Y-55871D01*
X78643Y-55328D02*
X78643Y-54928D01*
X79243Y-55185D01*
X78643Y-54443D02*
X78643Y-54557D01*
X78671Y-54614D01*
X78700Y-54643D01*
X78786Y-54700D01*
X78900Y-54729D01*
X79129Y-54729D01*
X79186Y-54700D01*
X79214Y-54672D01*
X79243Y-54614D01*
X79243Y-54500D01*
X79214Y-54443D01*
X79186Y-54414D01*
X79129Y-54386D01*
X78986Y-54386D01*
X78929Y-54414D01*
X78900Y-54443D01*
X78871Y-54500D01*
X78871Y-54614D01*
X78900Y-54672D01*
X78929Y-54700D01*
X78986Y-54729D01*
X80743Y-52828D02*
X80743Y-53171D01*
X80743Y-52999D02*
X80143Y-52999D01*
X80229Y-53056D01*
X80286Y-53114D01*
X80314Y-53171D01*
G54D12*
X32014Y-21462D02*
X32014Y-21062D01*
X32167Y-21062D01*
X32205Y-21081D01*
X32224Y-21100D01*
X32243Y-21138D01*
X32243Y-21195D01*
X32224Y-21233D01*
X32205Y-21252D01*
X32167Y-21271D01*
X32014Y-21271D01*
X32624Y-21462D02*
X32395Y-21462D01*
X32509Y-21462D02*
X32509Y-21062D01*
X32471Y-21119D01*
X32433Y-21157D01*
X32395Y-21176D01*
X32757Y-21062D02*
X33024Y-21062D01*
X32852Y-21462D01*
X87014Y-21462D02*
X87014Y-21062D01*
X87167Y-21062D01*
X87205Y-21081D01*
X87224Y-21100D01*
X87243Y-21138D01*
X87243Y-21195D01*
X87224Y-21233D01*
X87205Y-21252D01*
X87167Y-21271D01*
X87014Y-21271D01*
X87624Y-21462D02*
X87395Y-21462D01*
X87509Y-21462D02*
X87509Y-21062D01*
X87471Y-21119D01*
X87433Y-21157D01*
X87395Y-21176D01*
X87852Y-21233D02*
X87814Y-21214D01*
X87795Y-21195D01*
X87776Y-21157D01*
X87776Y-21138D01*
X87795Y-21100D01*
X87814Y-21081D01*
X87852Y-21062D01*
X87929Y-21062D01*
X87967Y-21081D01*
X87986Y-21100D01*
X88005Y-21138D01*
X88005Y-21157D01*
X87986Y-21195D01*
X87967Y-21214D01*
X87929Y-21233D01*
X87852Y-21233D01*
X87814Y-21252D01*
X87795Y-21271D01*
X87776Y-21310D01*
X87776Y-21386D01*
X87795Y-21424D01*
X87814Y-21443D01*
X87852Y-21462D01*
X87929Y-21462D01*
X87967Y-21443D01*
X87986Y-21424D01*
X88005Y-21386D01*
X88005Y-21310D01*
X87986Y-21271D01*
X87967Y-21252D01*
X87929Y-21233D01*
X32014Y-66462D02*
X32014Y-66062D01*
X32167Y-66062D01*
X32205Y-66081D01*
X32224Y-66100D01*
X32243Y-66138D01*
X32243Y-66195D01*
X32224Y-66233D01*
X32205Y-66252D01*
X32167Y-66271D01*
X32014Y-66271D01*
X32624Y-66462D02*
X32395Y-66462D01*
X32509Y-66462D02*
X32509Y-66062D01*
X32471Y-66119D01*
X32433Y-66157D01*
X32395Y-66176D01*
X32814Y-66462D02*
X32890Y-66462D01*
X32929Y-66443D01*
X32948Y-66424D01*
X32986Y-66367D01*
X33005Y-66290D01*
X33005Y-66138D01*
X32986Y-66100D01*
X32967Y-66081D01*
X32929Y-66062D01*
X32852Y-66062D01*
X32814Y-66081D01*
X32795Y-66100D01*
X32776Y-66138D01*
X32776Y-66233D01*
X32795Y-66271D01*
X32814Y-66290D01*
X32852Y-66310D01*
X32929Y-66310D01*
X32967Y-66290D01*
X32986Y-66271D01*
X33005Y-66233D01*
X87014Y-66462D02*
X87014Y-66062D01*
X87167Y-66062D01*
X87205Y-66081D01*
X87224Y-66100D01*
X87243Y-66138D01*
X87243Y-66195D01*
X87224Y-66233D01*
X87205Y-66252D01*
X87167Y-66271D01*
X87014Y-66271D01*
X87395Y-66100D02*
X87414Y-66081D01*
X87452Y-66062D01*
X87548Y-66062D01*
X87586Y-66081D01*
X87605Y-66100D01*
X87624Y-66138D01*
X87624Y-66176D01*
X87605Y-66233D01*
X87376Y-66462D01*
X87624Y-66462D01*
X87871Y-66062D02*
X87910Y-66062D01*
X87948Y-66081D01*
X87967Y-66100D01*
X87986Y-66138D01*
X88005Y-66214D01*
X88005Y-66310D01*
X87986Y-66386D01*
X87967Y-66424D01*
X87948Y-66443D01*
X87910Y-66462D01*
X87871Y-66462D01*
X87833Y-66443D01*
X87814Y-66424D01*
X87795Y-66386D01*
X87776Y-66310D01*
X87776Y-66214D01*
X87795Y-66138D01*
X87814Y-66100D01*
X87833Y-66081D01*
X87871Y-66062D01*
%LPC*%
G54D24*
X58500Y-22500D03*
G54D25*
X57500Y-22500D03*
X56500Y-22500D03*
X55500Y-22500D03*
X54500Y-22500D03*
X53500Y-22500D03*
X52500Y-22500D03*
X51500Y-22500D03*
G54D24*
X50500Y-22500D03*
G54D25*
X49500Y-22500D03*
X48500Y-22500D03*
X47500Y-22500D03*
X46500Y-22500D03*
X45500Y-22500D03*
X44500Y-22500D03*
X43500Y-22500D03*
G54D26*
X88500Y-62000D03*
X78500Y-62000D03*
G54D27*
X69600Y-34800D03*
G54D28*
X70600Y-34800D03*
X71600Y-34800D03*
G54D27*
X69600Y-36400D03*
G54D28*
X70600Y-36400D03*
X71600Y-36400D03*
G54D27*
X69600Y-33200D03*
G54D28*
X70600Y-33200D03*
X71600Y-33200D03*
G54D27*
X37500Y-67500D03*
G54D28*
X38500Y-67500D03*
X39500Y-67500D03*
X40500Y-67500D03*
X41500Y-67500D03*
X42500Y-67500D03*
G54D27*
X48000Y-67500D03*
G54D28*
X49000Y-67500D03*
X50000Y-67500D03*
X51000Y-67500D03*
X52000Y-67500D03*
X53000Y-67500D03*
G54D29*
X87500Y-28000D03*
X88500Y-28000D03*
X88500Y-32000D03*
X87500Y-32000D03*
G54D30*
X73500Y-49500D03*
G54D31*
X73500Y-47500D03*
G54D30*
X82500Y-51500D03*
G54D31*
X82500Y-49500D03*
G54D32*
X51000Y-37000D03*
X51000Y-38000D03*
X51000Y-39000D03*
X51000Y-40000D03*
X51000Y-41000D03*
X51000Y-42000D03*
X51000Y-43000D03*
X51000Y-44000D03*
X51000Y-45000D03*
X51000Y-46000D03*
X51000Y-47000D03*
X51000Y-48000D03*
X51000Y-49000D03*
G54D33*
X51000Y-36000D03*
G54D32*
X54000Y-49000D03*
X54000Y-48000D03*
X54000Y-47000D03*
X54000Y-46000D03*
X54000Y-45000D03*
X54000Y-44000D03*
X54000Y-43000D03*
X54000Y-42000D03*
X54000Y-41000D03*
X54000Y-40000D03*
X54000Y-39000D03*
X54000Y-38000D03*
X54000Y-37000D03*
X54000Y-36000D03*
G54D34*
X34500Y-59000D03*
X35500Y-59000D03*
X36500Y-59000D03*
X37500Y-59000D03*
X38500Y-59000D03*
X39500Y-59000D03*
X40500Y-59000D03*
X41500Y-59000D03*
X42500Y-59000D03*
X43500Y-59000D03*
X44500Y-59000D03*
X45500Y-59000D03*
X46500Y-59000D03*
G54D35*
X33500Y-59000D03*
G54D34*
X46500Y-56000D03*
X45500Y-56000D03*
X44500Y-56000D03*
X43500Y-56000D03*
X42500Y-56000D03*
X41500Y-56000D03*
X40500Y-56000D03*
X39500Y-56000D03*
X38500Y-56000D03*
X37500Y-56000D03*
X36500Y-56000D03*
X35500Y-56000D03*
X34500Y-56000D03*
X33500Y-56000D03*
G54D35*
X52000Y-63000D03*
G54D34*
X53000Y-63000D03*
X54000Y-63000D03*
X55000Y-63000D03*
X56000Y-63000D03*
X57000Y-63000D03*
X58000Y-63000D03*
X59000Y-63000D03*
X60000Y-63000D03*
X60000Y-60000D03*
X59000Y-60000D03*
X58000Y-60000D03*
X57000Y-60000D03*
X56000Y-60000D03*
X55000Y-60000D03*
X54000Y-60000D03*
X53000Y-60000D03*
X52000Y-60000D03*
G54D36*
X84500Y-54000D03*
G54D37*
X88500Y-54000D03*
G54D24*
X88500Y-64500D03*
G54D25*
X85500Y-64500D03*
X76000Y-34500D03*
X74000Y-34500D03*
X76500Y-59000D03*
X74500Y-59000D03*
X67000Y-22500D03*
X69000Y-22500D03*
X85500Y-35000D03*
X84500Y-35000D03*
X71500Y-51500D03*
X73500Y-51500D03*
X85500Y-33000D03*
X84500Y-33000D03*
G54D27*
X61000Y-67500D03*
G54D28*
X62000Y-67500D03*
X63000Y-67500D03*
X64000Y-67500D03*
X65000Y-67500D03*
X66000Y-67500D03*
G54D37*
X68500Y-47500D03*
G54D36*
X68500Y-49500D03*
G54D25*
X84000Y-42500D03*
X84000Y-40500D03*
G54D36*
X68500Y-58500D03*
G54D37*
X68500Y-53500D03*
G54D36*
X77500Y-63000D03*
G54D37*
X73500Y-63000D03*
G54D24*
X79000Y-57500D03*
G54D25*
X79000Y-60500D03*
G54D24*
X80000Y-52500D03*
G54D25*
X77000Y-52500D03*
G54D27*
X74000Y-67500D03*
G54D28*
X75000Y-67500D03*
X76000Y-67500D03*
X77000Y-67500D03*
X78000Y-67500D03*
X79000Y-67500D03*
G54D24*
X40500Y-42000D03*
G54D25*
X39500Y-42000D03*
X38500Y-42000D03*
X37500Y-42000D03*
X36500Y-42000D03*
X35500Y-42000D03*
X34500Y-42000D03*
X33500Y-42000D03*
G54D38*
X65157Y-30630D03*
X65945Y-30641D03*
X66732Y-30641D03*
X67500Y-30641D03*
X68268Y-30641D03*
X69055Y-30641D03*
X69843Y-30641D03*
X69843Y-24381D03*
X69055Y-24381D03*
X68268Y-24381D03*
X67500Y-24381D03*
X66732Y-24381D03*
X65945Y-24381D03*
X65157Y-24381D03*
G54D32*
X80500Y-41500D03*
X80500Y-40500D03*
X80500Y-39500D03*
X80500Y-38500D03*
X80500Y-37500D03*
X80500Y-36500D03*
X80500Y-35500D03*
X80500Y-34500D03*
X80500Y-33500D03*
X80500Y-32500D03*
X80500Y-31500D03*
X80500Y-30500D03*
X80500Y-29500D03*
G54D33*
X80500Y-42500D03*
G54D32*
X77500Y-29500D03*
X77500Y-30500D03*
X77500Y-31500D03*
X77500Y-32500D03*
X77500Y-33500D03*
X77500Y-34500D03*
X77500Y-35500D03*
X77500Y-36500D03*
X77500Y-37500D03*
X77500Y-38500D03*
X77500Y-39500D03*
X77500Y-40500D03*
X77500Y-41500D03*
X77500Y-42500D03*
G54D27*
X73000Y-30500D03*
G54D28*
X73000Y-29500D03*
X74000Y-30500D03*
X74000Y-29500D03*
X75000Y-30500D03*
X75000Y-29500D03*
G54D25*
X89000Y-42500D03*
X89000Y-44500D03*
X86000Y-42500D03*
X86000Y-44500D03*
G54D39*
X87500Y-58990D03*
X87500Y-57020D03*
G54D40*
X70500Y-60000D03*
G54D41*
X71500Y-60000D03*
G54D37*
X64000Y-54500D03*
G54D36*
X66000Y-54500D03*
G54D25*
X66000Y-51500D03*
X64000Y-51500D03*
G54D37*
X78000Y-49500D03*
G54D36*
X78000Y-47500D03*
G54D40*
X73000Y-55500D03*
G54D41*
X73000Y-56500D03*
G54D25*
X76000Y-57000D03*
X76000Y-55000D03*
X74000Y-35500D03*
X76000Y-35500D03*
G54D41*
X69000Y-62000D03*
X66000Y-62000D03*
X64500Y-61000D03*
X67500Y-61000D03*
X88000Y-49500D03*
X88000Y-52500D03*
X86000Y-52500D03*
X86000Y-49500D03*
X44500Y-54500D03*
X47500Y-54500D03*
X78000Y-27500D03*
X75000Y-27500D03*
G54D42*
X64500Y-44000D03*
X64500Y-41000D03*
G54D24*
X66500Y-59000D03*
G54D25*
X65500Y-59000D03*
X65500Y-58000D03*
G54D43*
X75000Y-60125D03*
X75000Y-60875D03*
X76000Y-60125D03*
X75000Y-60500D03*
X76000Y-60875D03*
G54D36*
X82500Y-33000D03*
X82500Y-35000D03*
G54D35*
X53500Y-33500D03*
G54D34*
X54500Y-33500D03*
X55500Y-33500D03*
X56500Y-33500D03*
X57500Y-33500D03*
X58500Y-33500D03*
X59500Y-33500D03*
X60500Y-33500D03*
X61500Y-33500D03*
X61500Y-30500D03*
X60500Y-30500D03*
X59500Y-30500D03*
X58500Y-30500D03*
X57500Y-30500D03*
X56500Y-30500D03*
X55500Y-30500D03*
X54500Y-30500D03*
X53500Y-30500D03*
G54D35*
X43500Y-33500D03*
G54D34*
X44500Y-33500D03*
X45500Y-33500D03*
X46500Y-33500D03*
X47500Y-33500D03*
X48500Y-33500D03*
X49500Y-33500D03*
X50500Y-33500D03*
X51500Y-33500D03*
X51500Y-30500D03*
X50500Y-30500D03*
X49500Y-30500D03*
X48500Y-30500D03*
X47500Y-30500D03*
X46500Y-30500D03*
X45500Y-30500D03*
X44500Y-30500D03*
X43500Y-30500D03*
G54D35*
X33500Y-53500D03*
G54D34*
X34500Y-53500D03*
X35500Y-53500D03*
X36500Y-53500D03*
X37500Y-53500D03*
X38500Y-53500D03*
X39500Y-53500D03*
X40500Y-53500D03*
X41500Y-53500D03*
X41500Y-50500D03*
X40500Y-50500D03*
X39500Y-50500D03*
X38500Y-50500D03*
X37500Y-50500D03*
X36500Y-50500D03*
X35500Y-50500D03*
X34500Y-50500D03*
X33500Y-50500D03*
G54D35*
X40500Y-61000D03*
G54D34*
X39500Y-61000D03*
X38500Y-61000D03*
X37500Y-61000D03*
X36500Y-61000D03*
X35500Y-61000D03*
X34500Y-61000D03*
X33500Y-61000D03*
X32500Y-61000D03*
X32500Y-64000D03*
X33500Y-64000D03*
X34500Y-64000D03*
X35500Y-64000D03*
X36500Y-64000D03*
X37500Y-64000D03*
X38500Y-64000D03*
X39500Y-64000D03*
X40500Y-64000D03*
G54D41*
X85500Y-31500D03*
X85500Y-28500D03*
X86000Y-27500D03*
X83000Y-27500D03*
G54D24*
X33500Y-48000D03*
G54D25*
X34500Y-48000D03*
X35500Y-48000D03*
X36500Y-48000D03*
X37500Y-48000D03*
X38500Y-48000D03*
X39500Y-48000D03*
X40500Y-48000D03*
X40500Y-45000D03*
X39500Y-45000D03*
X38500Y-45000D03*
X37500Y-45000D03*
X36500Y-45000D03*
X35500Y-45000D03*
X34500Y-45000D03*
X33500Y-45000D03*
G54D44*
X70500Y-23500D03*
G54D45*
X84500Y-23500D03*
G54D41*
X55500Y-47000D03*
X55500Y-50000D03*
G54D46*
X44010Y-67500D03*
X45980Y-67500D03*
X81010Y-67500D03*
X82980Y-67500D03*
X55010Y-67500D03*
X56980Y-67500D03*
X68010Y-67500D03*
X69980Y-67500D03*
G54D35*
X50500Y-25500D03*
G54D34*
X49500Y-25500D03*
X48500Y-25500D03*
X47500Y-25500D03*
X46500Y-25500D03*
X45500Y-25500D03*
X44500Y-25500D03*
X43500Y-25500D03*
X43500Y-28500D03*
X44500Y-28500D03*
X45500Y-28500D03*
X46500Y-28500D03*
X47500Y-28500D03*
X48500Y-28500D03*
X49500Y-28500D03*
X50500Y-28500D03*
G54D35*
X51500Y-28500D03*
G54D34*
X52500Y-28500D03*
X53500Y-28500D03*
X54500Y-28500D03*
X55500Y-28500D03*
X56500Y-28500D03*
X57500Y-28500D03*
X58500Y-28500D03*
X58500Y-25500D03*
X57500Y-25500D03*
X56500Y-25500D03*
X55500Y-25500D03*
X54500Y-25500D03*
X53500Y-25500D03*
X52500Y-25500D03*
X51500Y-25500D03*
G54D27*
X88000Y-41000D03*
G54D28*
X88000Y-40000D03*
X88000Y-39000D03*
X88000Y-38000D03*
X88000Y-37000D03*
X88000Y-36000D03*
G54D47*
X80504Y-55500D03*
X80504Y-54122D03*
X80504Y-56878D03*
X81685Y-56209D03*
X81685Y-54791D03*
G54D48*
X32500Y-22500D03*
X87500Y-22500D03*
X32500Y-67500D03*
X87500Y-67500D03*
M02*
