G04 (created by PCBNEW-RS274X (2011-05-25)-stable) date Mon 18 Jun 2012 11:26:01 PM MDT*
G01*
G70*
G90*
%MOIN*%
G04 Gerber Fmt 3.4, Leading zero omitted, Abs format*
%FSLAX34Y34*%
G04 APERTURE LIST*
%ADD10C,0.006000*%
%ADD11C,0.015000*%
%ADD12C,0.085000*%
%ADD13R,0.080000X0.080000*%
%ADD14C,0.080000*%
%ADD15R,0.085000X0.140000*%
%ADD16R,0.260000X0.260000*%
%ADD17R,0.075000X0.075000*%
%ADD18C,0.075000*%
%ADD19C,0.320000*%
%ADD20O,0.110000X0.082000*%
%ADD21R,0.110000X0.082000*%
%ADD22O,0.082000X0.110000*%
%ADD23R,0.082000X0.110000*%
%ADD24C,0.090000*%
%ADD25R,0.090000X0.090000*%
%ADD26R,0.085000X0.085000*%
%ADD27R,0.140000X0.140000*%
%ADD28C,0.140000*%
%ADD29O,0.118400X0.090900*%
%ADD30R,0.147600X0.147600*%
%ADD31C,0.147600*%
%ADD32C,0.010000*%
G04 APERTURE END LIST*
G54D10*
G54D11*
X68250Y-04750D02*
X68250Y-77000D01*
X08250Y-04750D02*
X68250Y-04750D01*
X08250Y-77000D02*
X08250Y-04750D01*
X68250Y-77000D02*
X08250Y-77000D01*
G54D12*
X52750Y-13500D03*
X52750Y-16500D03*
X63000Y-10500D03*
X66000Y-10500D03*
X57500Y-12250D03*
X57500Y-09250D03*
X62000Y-16500D03*
X62000Y-13500D03*
X54250Y-16500D03*
X54250Y-13500D03*
X60500Y-13500D03*
X60500Y-16500D03*
X59250Y-12500D03*
X59250Y-15500D03*
X51500Y-12500D03*
X51500Y-15500D03*
X58500Y-08000D03*
X58500Y-11000D03*
G54D13*
X55500Y-06250D03*
G54D14*
X56500Y-06250D03*
X57500Y-06250D03*
X58500Y-06250D03*
X59500Y-06250D03*
X60500Y-06250D03*
G54D15*
X65350Y-13750D03*
G54D16*
X66250Y-16250D03*
G54D15*
X67150Y-13750D03*
X55600Y-13750D03*
G54D16*
X56500Y-16250D03*
G54D15*
X57400Y-13750D03*
G54D17*
X52750Y-12500D03*
G54D18*
X52750Y-09500D03*
G54D19*
X66500Y-20250D03*
X52500Y-06750D03*
X52500Y-20250D03*
G54D18*
X56250Y-08250D03*
X57250Y-08250D03*
X56250Y-11500D03*
X56250Y-12500D03*
X63250Y-12000D03*
X63250Y-13000D03*
G54D17*
X60500Y-12500D03*
G54D18*
X60500Y-09500D03*
G54D17*
X39000Y-12500D03*
G54D18*
X39000Y-09500D03*
X41750Y-12000D03*
X41750Y-13000D03*
X34750Y-11500D03*
X34750Y-12500D03*
X34750Y-08250D03*
X35750Y-08250D03*
G54D19*
X31000Y-20250D03*
X31000Y-06750D03*
X45000Y-20250D03*
G54D17*
X31250Y-12500D03*
G54D18*
X31250Y-09500D03*
G54D15*
X34100Y-13750D03*
G54D16*
X35000Y-16250D03*
G54D15*
X35900Y-13750D03*
X43850Y-13750D03*
G54D16*
X44750Y-16250D03*
G54D15*
X45650Y-13750D03*
G54D13*
X34000Y-06250D03*
G54D14*
X35000Y-06250D03*
X36000Y-06250D03*
X37000Y-06250D03*
X38000Y-06250D03*
X39000Y-06250D03*
G54D12*
X37000Y-08000D03*
X37000Y-11000D03*
X30000Y-12500D03*
X30000Y-15500D03*
X37750Y-12500D03*
X37750Y-15500D03*
X39000Y-13500D03*
X39000Y-16500D03*
X32750Y-16500D03*
X32750Y-13500D03*
X40500Y-16500D03*
X40500Y-13500D03*
X36000Y-12250D03*
X36000Y-09250D03*
X41500Y-10500D03*
X44500Y-10500D03*
X31250Y-13500D03*
X31250Y-16500D03*
G54D13*
X45000Y-35250D03*
G54D14*
X46000Y-35250D03*
X47000Y-35250D03*
G54D13*
X45000Y-36750D03*
G54D14*
X46000Y-36750D03*
X47000Y-36750D03*
G54D13*
X45000Y-33750D03*
G54D14*
X46000Y-33750D03*
X47000Y-33750D03*
G54D13*
X14000Y-72000D03*
G54D14*
X15000Y-72000D03*
X16000Y-72000D03*
X17000Y-72000D03*
X18000Y-72000D03*
X19000Y-72000D03*
G54D13*
X26500Y-72000D03*
G54D14*
X27500Y-72000D03*
X28500Y-72000D03*
X29500Y-72000D03*
X30500Y-72000D03*
X31500Y-72000D03*
G54D20*
X29250Y-45000D03*
X29250Y-46000D03*
X29250Y-47000D03*
X29250Y-48000D03*
X29250Y-49000D03*
X29250Y-50000D03*
X29250Y-51000D03*
X29250Y-52000D03*
X29250Y-53000D03*
X29250Y-54000D03*
X29250Y-55000D03*
X29250Y-56000D03*
X29250Y-57000D03*
G54D21*
X29250Y-44000D03*
G54D20*
X32250Y-57000D03*
X32250Y-56000D03*
X32250Y-55000D03*
X32250Y-54000D03*
X32250Y-53000D03*
X32250Y-52000D03*
X32250Y-51000D03*
X32250Y-50000D03*
X32250Y-49000D03*
X32250Y-48000D03*
X32250Y-47000D03*
X32250Y-46000D03*
X32250Y-45000D03*
X32250Y-44000D03*
G54D22*
X14250Y-60500D03*
X15250Y-60500D03*
X16250Y-60500D03*
X17250Y-60500D03*
X18250Y-60500D03*
X19250Y-60500D03*
X20250Y-60500D03*
X21250Y-60500D03*
X22250Y-60500D03*
X23250Y-60500D03*
X24250Y-60500D03*
X25250Y-60500D03*
X26250Y-60500D03*
G54D23*
X13250Y-60500D03*
G54D22*
X26250Y-57500D03*
X25250Y-57500D03*
X24250Y-57500D03*
X23250Y-57500D03*
X22250Y-57500D03*
X21250Y-57500D03*
X20250Y-57500D03*
X19250Y-57500D03*
X18250Y-57500D03*
X17250Y-57500D03*
X16250Y-57500D03*
X15250Y-57500D03*
X14250Y-57500D03*
X13250Y-57500D03*
G54D23*
X29750Y-63000D03*
G54D22*
X30750Y-63000D03*
X31750Y-63000D03*
X32750Y-63000D03*
X33750Y-63000D03*
X34750Y-63000D03*
X35750Y-63000D03*
X36750Y-63000D03*
X37750Y-63000D03*
X37750Y-60000D03*
X36750Y-60000D03*
X35750Y-60000D03*
X34750Y-60000D03*
X33750Y-60000D03*
X32750Y-60000D03*
X31750Y-60000D03*
X30750Y-60000D03*
X29750Y-60000D03*
G54D24*
X62750Y-58500D03*
G54D25*
X66750Y-58500D03*
G54D17*
X65750Y-65000D03*
G54D18*
X62750Y-65000D03*
X49000Y-39000D03*
X47000Y-39000D03*
X54750Y-63500D03*
X52750Y-63500D03*
X35250Y-30250D03*
X35250Y-28250D03*
X57000Y-39000D03*
X57000Y-40000D03*
X49850Y-57600D03*
X51850Y-57600D03*
X57000Y-38000D03*
X57000Y-37000D03*
G54D13*
X39000Y-72000D03*
G54D14*
X40000Y-72000D03*
X41000Y-72000D03*
X42000Y-72000D03*
X43000Y-72000D03*
X44000Y-72000D03*
G54D25*
X46750Y-52000D03*
G54D24*
X46750Y-54000D03*
G54D18*
X63000Y-47000D03*
X63000Y-45000D03*
G54D24*
X46750Y-63000D03*
G54D25*
X46750Y-58000D03*
G54D24*
X55750Y-67500D03*
G54D25*
X51750Y-67500D03*
G54D17*
X57250Y-62000D03*
G54D18*
X57250Y-65000D03*
G54D17*
X57850Y-57000D03*
G54D18*
X54850Y-57000D03*
G54D13*
X52500Y-72000D03*
G54D14*
X53500Y-72000D03*
X54500Y-72000D03*
X55500Y-72000D03*
X56500Y-72000D03*
X57500Y-72000D03*
G54D20*
X53500Y-46000D03*
X53500Y-45000D03*
X53500Y-44000D03*
X53500Y-43000D03*
X53500Y-42000D03*
X53500Y-41000D03*
X53500Y-40000D03*
X53500Y-39000D03*
X53500Y-38000D03*
X53500Y-37000D03*
X53500Y-36000D03*
X53500Y-35000D03*
X53500Y-34000D03*
G54D21*
X53500Y-47000D03*
G54D20*
X50500Y-34000D03*
X50500Y-35000D03*
X50500Y-36000D03*
X50500Y-37000D03*
X50500Y-38000D03*
X50500Y-39000D03*
X50500Y-40000D03*
X50500Y-41000D03*
X50500Y-42000D03*
X50500Y-43000D03*
X50500Y-44000D03*
X50500Y-45000D03*
X50500Y-46000D03*
X50500Y-47000D03*
G54D13*
X48750Y-28750D03*
G54D14*
X48750Y-27750D03*
X49750Y-28750D03*
X49750Y-27750D03*
X50750Y-28750D03*
X50750Y-27750D03*
G54D18*
X67000Y-47000D03*
X67000Y-49000D03*
X64000Y-47000D03*
X64000Y-49000D03*
G54D26*
X48750Y-64500D03*
G54D12*
X49750Y-64500D03*
G54D25*
X42250Y-59000D03*
G54D24*
X44250Y-59000D03*
G54D18*
X44250Y-56000D03*
X42250Y-56000D03*
G54D25*
X56250Y-54000D03*
G54D24*
X56250Y-52000D03*
G54D26*
X51250Y-60000D03*
G54D12*
X51250Y-61000D03*
G54D18*
X54250Y-61500D03*
X54250Y-59500D03*
X47000Y-40000D03*
X49000Y-40000D03*
G54D12*
X47250Y-66500D03*
X44250Y-66500D03*
X44250Y-65500D03*
X47250Y-65500D03*
X66250Y-54000D03*
X66250Y-57000D03*
X64250Y-57000D03*
X64250Y-54000D03*
X25250Y-56000D03*
X25250Y-53000D03*
X50500Y-26000D03*
X53500Y-26000D03*
G54D17*
X44750Y-63500D03*
G54D18*
X43750Y-63500D03*
X43750Y-62500D03*
G54D24*
X55250Y-37500D03*
X55250Y-39500D03*
G54D23*
X23750Y-41500D03*
G54D22*
X24750Y-41500D03*
X25750Y-41500D03*
X26750Y-41500D03*
X27750Y-41500D03*
X28750Y-41500D03*
X29750Y-41500D03*
X30750Y-41500D03*
X31750Y-41500D03*
X31750Y-38500D03*
X30750Y-38500D03*
X29750Y-38500D03*
X28750Y-38500D03*
X27750Y-38500D03*
X26750Y-38500D03*
X25750Y-38500D03*
X24750Y-38500D03*
X23750Y-38500D03*
G54D23*
X13750Y-41500D03*
G54D22*
X14750Y-41500D03*
X15750Y-41500D03*
X16750Y-41500D03*
X17750Y-41500D03*
X18750Y-41500D03*
X19750Y-41500D03*
X20750Y-41500D03*
X21750Y-41500D03*
X21750Y-38500D03*
X20750Y-38500D03*
X19750Y-38500D03*
X18750Y-38500D03*
X17750Y-38500D03*
X16750Y-38500D03*
X15750Y-38500D03*
X14750Y-38500D03*
X13750Y-38500D03*
G54D23*
X13250Y-56000D03*
G54D22*
X14250Y-56000D03*
X15250Y-56000D03*
X16250Y-56000D03*
X17250Y-56000D03*
X18250Y-56000D03*
X19250Y-56000D03*
X20250Y-56000D03*
X21250Y-56000D03*
X21250Y-53000D03*
X20250Y-53000D03*
X19250Y-53000D03*
X18250Y-53000D03*
X17250Y-53000D03*
X16250Y-53000D03*
X15250Y-53000D03*
X14250Y-53000D03*
X13250Y-53000D03*
G54D23*
X21250Y-63000D03*
G54D22*
X20250Y-63000D03*
X19250Y-63000D03*
X18250Y-63000D03*
X17250Y-63000D03*
X16250Y-63000D03*
X15250Y-63000D03*
X14250Y-63000D03*
X13250Y-63000D03*
X13250Y-66000D03*
X14250Y-66000D03*
X15250Y-66000D03*
X16250Y-66000D03*
X17250Y-66000D03*
X18250Y-66000D03*
X19250Y-66000D03*
X20250Y-66000D03*
X21250Y-66000D03*
G54D12*
X63750Y-33250D03*
X60750Y-33250D03*
X63750Y-31500D03*
X60750Y-31500D03*
G54D27*
X36250Y-27000D03*
G54D28*
X22250Y-27000D03*
G54D12*
X33750Y-56000D03*
X36750Y-56000D03*
G54D23*
X21750Y-34000D03*
G54D22*
X20750Y-34000D03*
X19750Y-34000D03*
X18750Y-34000D03*
X17750Y-34000D03*
X16750Y-34000D03*
X15750Y-34000D03*
X14750Y-34000D03*
X14750Y-37000D03*
X15750Y-37000D03*
X16750Y-37000D03*
X17750Y-37000D03*
X18750Y-37000D03*
X19750Y-37000D03*
X20750Y-37000D03*
X21750Y-37000D03*
G54D23*
X22750Y-37000D03*
G54D22*
X23750Y-37000D03*
X24750Y-37000D03*
X25750Y-37000D03*
X26750Y-37000D03*
X27750Y-37000D03*
X28750Y-37000D03*
X29750Y-37000D03*
X29750Y-34000D03*
X28750Y-34000D03*
X27750Y-34000D03*
X26750Y-34000D03*
X25750Y-34000D03*
X24750Y-34000D03*
X23750Y-34000D03*
X22750Y-34000D03*
G54D13*
X66250Y-45500D03*
G54D14*
X66250Y-44500D03*
X66250Y-43500D03*
X66250Y-42500D03*
X66250Y-41500D03*
X66250Y-40500D03*
G54D29*
X58754Y-60000D03*
X58754Y-58622D03*
X58754Y-61378D03*
X59935Y-60709D03*
X59935Y-59291D03*
G54D19*
X10750Y-27000D03*
X65750Y-27000D03*
X10750Y-72000D03*
X65750Y-72000D03*
G54D17*
X29750Y-64500D03*
G54D18*
X30750Y-64500D03*
X31750Y-64500D03*
X32750Y-64500D03*
X33750Y-64500D03*
X34750Y-64500D03*
X35750Y-64500D03*
X36750Y-64500D03*
X37750Y-64500D03*
G54D12*
X61250Y-41250D03*
X61250Y-38250D03*
X61250Y-43000D03*
X61250Y-46000D03*
X33750Y-54000D03*
X36750Y-54000D03*
X23250Y-56000D03*
X23250Y-53000D03*
G54D13*
X31750Y-66000D03*
G54D14*
X30750Y-66000D03*
X29750Y-66000D03*
G54D13*
X34250Y-39000D03*
G54D14*
X34250Y-40000D03*
X34250Y-41000D03*
G54D13*
X11250Y-39000D03*
G54D14*
X11250Y-40000D03*
X11250Y-41000D03*
G54D13*
X10750Y-53500D03*
G54D14*
X10750Y-54500D03*
X10750Y-55500D03*
G54D13*
X10750Y-63500D03*
G54D14*
X10750Y-64500D03*
X10750Y-65500D03*
G54D23*
X13250Y-51500D03*
G54D22*
X14250Y-51500D03*
X15250Y-51500D03*
X16250Y-51500D03*
X17250Y-51500D03*
X18250Y-51500D03*
X19250Y-51500D03*
X20250Y-51500D03*
X20250Y-48500D03*
X19250Y-48500D03*
X18250Y-48500D03*
X17250Y-48500D03*
X16250Y-48500D03*
X15250Y-48500D03*
X14250Y-48500D03*
X13250Y-48500D03*
G54D13*
X21750Y-31000D03*
G54D14*
X20750Y-31000D03*
X19750Y-31000D03*
X18750Y-31000D03*
X17750Y-31000D03*
G54D13*
X31750Y-31000D03*
G54D14*
X30750Y-31000D03*
X29750Y-31000D03*
X28750Y-31000D03*
X27750Y-31000D03*
G54D13*
X36750Y-66000D03*
G54D14*
X35750Y-66000D03*
X34750Y-66000D03*
X33750Y-66000D03*
X32750Y-66000D03*
G54D13*
X20250Y-45500D03*
G54D14*
X19250Y-45500D03*
X18250Y-45500D03*
X17250Y-45500D03*
X16250Y-45500D03*
G54D17*
X59500Y-42750D03*
G54D18*
X59500Y-41750D03*
X58500Y-41750D03*
G54D17*
X60500Y-37250D03*
G54D18*
X60500Y-36250D03*
X59500Y-36250D03*
G54D13*
X55500Y-27750D03*
G54D14*
X55500Y-28750D03*
G54D13*
X53250Y-27750D03*
G54D14*
X53250Y-28750D03*
G54D13*
X16750Y-31000D03*
G54D14*
X15750Y-31000D03*
X14750Y-31000D03*
X13750Y-31000D03*
X12750Y-31000D03*
G54D13*
X26750Y-31000D03*
G54D14*
X25750Y-31000D03*
X24750Y-31000D03*
X23750Y-31000D03*
X22750Y-31000D03*
G54D13*
X15250Y-45500D03*
G54D14*
X14250Y-45500D03*
X13250Y-45500D03*
X12250Y-45500D03*
X11250Y-45500D03*
G54D12*
X57250Y-26250D03*
X60250Y-26250D03*
G54D13*
X46750Y-44000D03*
G54D14*
X47750Y-44000D03*
X48750Y-44000D03*
G54D13*
X58750Y-29750D03*
G54D14*
X58750Y-28750D03*
X58750Y-27750D03*
G54D15*
X62100Y-66750D03*
G54D16*
X63000Y-69250D03*
G54D15*
X63900Y-66750D03*
G54D24*
X58550Y-66600D03*
X65550Y-66600D03*
G54D30*
X50250Y-55000D03*
G54D31*
X52250Y-53000D03*
G54D30*
X59750Y-55300D03*
G54D31*
X61750Y-53300D03*
G54D12*
X10250Y-13500D03*
X10250Y-16500D03*
X20500Y-10500D03*
X23500Y-10500D03*
X15000Y-12250D03*
X15000Y-09250D03*
X19500Y-16500D03*
X19500Y-13500D03*
X11750Y-16500D03*
X11750Y-13500D03*
X18000Y-13500D03*
X18000Y-16500D03*
X16750Y-12500D03*
X16750Y-15500D03*
X09000Y-12500D03*
X09000Y-15500D03*
X16000Y-08000D03*
X16000Y-11000D03*
G54D13*
X13000Y-06250D03*
G54D14*
X14000Y-06250D03*
X15000Y-06250D03*
X16000Y-06250D03*
X17000Y-06250D03*
X18000Y-06250D03*
G54D15*
X22850Y-13750D03*
G54D16*
X23750Y-16250D03*
G54D15*
X24650Y-13750D03*
X13100Y-13750D03*
G54D16*
X14000Y-16250D03*
G54D15*
X14900Y-13750D03*
G54D17*
X10250Y-12500D03*
G54D18*
X10250Y-09500D03*
G54D19*
X24000Y-20250D03*
X10000Y-06750D03*
X10000Y-20250D03*
G54D18*
X13750Y-08250D03*
X14750Y-08250D03*
X13750Y-11500D03*
X13750Y-12500D03*
X20750Y-12000D03*
X20750Y-13000D03*
G54D17*
X18000Y-12500D03*
G54D18*
X18000Y-09500D03*
G54D10*
G36*
X63750Y-77000D02*
X63750Y-68000D01*
X61500Y-68000D01*
X60500Y-69000D01*
X60500Y-73000D01*
X50500Y-73000D01*
X49000Y-71500D01*
X47500Y-71500D01*
X47500Y-73250D01*
X37500Y-73250D01*
X36250Y-72000D01*
X35000Y-72000D01*
X35000Y-73250D01*
X25250Y-73250D01*
X23750Y-71750D01*
X22500Y-71750D01*
X22500Y-77000D01*
X63750Y-77000D01*
X63750Y-77000D01*
G37*
G54D32*
X63750Y-77000D02*
X63750Y-68000D01*
X61500Y-68000D01*
X60500Y-69000D01*
X60500Y-73000D01*
X50500Y-73000D01*
X49000Y-71500D01*
X47500Y-71500D01*
X47500Y-73250D01*
X37500Y-73250D01*
X36250Y-72000D01*
X35000Y-72000D01*
X35000Y-73250D01*
X25250Y-73250D01*
X23750Y-71750D01*
X22500Y-71750D01*
X22500Y-77000D01*
X63750Y-77000D01*
G54D10*
G36*
X20250Y-20500D02*
X23000Y-18000D01*
X25250Y-18000D01*
X25250Y-15250D01*
X21000Y-15250D01*
X19000Y-18500D01*
X19000Y-20500D01*
X20250Y-20500D01*
X20250Y-20500D01*
G37*
G54D32*
X20250Y-20500D02*
X23000Y-18000D01*
X25250Y-18000D01*
X25250Y-15250D01*
X21000Y-15250D01*
X19000Y-18500D01*
X19000Y-20500D01*
X20250Y-20500D01*
G54D10*
G36*
X15500Y-20500D02*
X15500Y-15250D01*
X12500Y-15250D01*
X12500Y-17750D01*
X14000Y-18250D01*
X14000Y-20500D01*
X15500Y-20500D01*
X15500Y-20500D01*
G37*
G54D32*
X15500Y-20500D02*
X15500Y-15250D01*
X12500Y-15250D01*
X12500Y-17750D01*
X14000Y-18250D01*
X14000Y-20500D01*
X15500Y-20500D01*
G54D10*
G36*
X41250Y-20500D02*
X44000Y-18000D01*
X46250Y-18000D01*
X46250Y-15250D01*
X42000Y-15250D01*
X40000Y-18500D01*
X40000Y-20500D01*
X41250Y-20500D01*
X41250Y-20500D01*
G37*
G54D32*
X41250Y-20500D02*
X44000Y-18000D01*
X46250Y-18000D01*
X46250Y-15250D01*
X42000Y-15250D01*
X40000Y-18500D01*
X40000Y-20500D01*
X41250Y-20500D01*
G54D10*
G36*
X36500Y-20500D02*
X36500Y-15250D01*
X33500Y-15250D01*
X33500Y-17750D01*
X35000Y-18250D01*
X35000Y-20500D01*
X36500Y-20500D01*
X36500Y-20500D01*
G37*
G54D32*
X36500Y-20500D02*
X36500Y-15250D01*
X33500Y-15250D01*
X33500Y-17750D01*
X35000Y-18250D01*
X35000Y-20500D01*
X36500Y-20500D01*
G54D10*
G36*
X62750Y-20500D02*
X65500Y-18000D01*
X67750Y-18000D01*
X67750Y-15250D01*
X63500Y-15250D01*
X61500Y-18500D01*
X61500Y-20500D01*
X62750Y-20500D01*
X62750Y-20500D01*
G37*
G54D32*
X62750Y-20500D02*
X65500Y-18000D01*
X67750Y-18000D01*
X67750Y-15250D01*
X63500Y-15250D01*
X61500Y-18500D01*
X61500Y-20500D01*
X62750Y-20500D01*
G54D10*
G36*
X58000Y-20500D02*
X58000Y-15250D01*
X55000Y-15250D01*
X55000Y-17750D01*
X56500Y-18250D01*
X56500Y-20500D01*
X58000Y-20500D01*
X58000Y-20500D01*
G37*
G54D32*
X58000Y-20500D02*
X58000Y-15250D01*
X55000Y-15250D01*
X55000Y-17750D01*
X56500Y-18250D01*
X56500Y-20500D01*
X58000Y-20500D01*
M02*
