G04 (created by PCBNEW-RS274X (2011-05-25)-stable) date Sat 11 Aug 2012 11:46:33 PM MDT*
G01*
G70*
G90*
%MOIN*%
G04 Gerber Fmt 3.4, Leading zero omitted, Abs format*
%FSLAX34Y34*%
G04 APERTURE LIST*
%ADD10C,0.006000*%
%ADD11C,0.015000*%
%ADD12C,0.045000*%
%ADD13C,0.100000*%
%ADD14R,0.020000X0.030000*%
%ADD15R,0.060000X0.080000*%
%ADD16R,0.080000X0.060000*%
%ADD17R,0.055000X0.035000*%
%ADD18R,0.035000X0.055000*%
%ADD19R,0.055000X0.055000*%
%ADD20C,0.055000*%
%ADD21C,0.035000*%
%ADD22C,0.008000*%
%ADD23C,0.010000*%
G04 APERTURE END LIST*
G54D10*
G54D11*
X22900Y-18800D02*
X22900Y-18700D01*
X22700Y-18800D02*
X22900Y-18800D01*
X22900Y-09000D02*
X22900Y-09100D01*
X22800Y-09000D02*
X22900Y-09000D01*
X05700Y-09000D02*
X05700Y-09200D01*
X22900Y-09100D02*
X22900Y-18700D01*
X05700Y-09000D02*
X22800Y-09000D01*
X05700Y-18800D02*
X05700Y-09200D01*
X22700Y-18800D02*
X05700Y-18800D01*
G54D12*
X06800Y-12100D03*
G54D13*
X21700Y-11040D03*
X06800Y-11040D03*
G54D14*
X18625Y-13740D03*
X19375Y-13740D03*
X18625Y-12740D03*
X19000Y-13740D03*
X19375Y-12740D03*
G54D15*
X19050Y-11940D03*
X20350Y-11940D03*
G54D16*
X19500Y-14890D03*
X19500Y-16190D03*
G54D17*
X18500Y-14365D03*
X18500Y-15115D03*
G54D18*
X20125Y-12940D03*
X20875Y-12940D03*
G54D17*
X20500Y-14515D03*
X20500Y-13765D03*
G54D18*
X15325Y-15740D03*
X16075Y-15740D03*
G54D19*
X20300Y-17900D03*
G54D20*
X19300Y-17900D03*
X18300Y-17900D03*
X17300Y-17900D03*
X16300Y-17900D03*
X15300Y-17900D03*
X14300Y-17900D03*
G54D19*
X14300Y-09900D03*
G54D20*
X15300Y-09900D03*
X16300Y-09900D03*
X17300Y-09900D03*
X18300Y-09900D03*
X19300Y-09900D03*
X20300Y-09900D03*
G54D21*
X09000Y-10340D03*
X14800Y-14640D03*
X06800Y-13100D03*
X19000Y-13240D03*
X19700Y-11940D03*
X19100Y-11140D03*
X18300Y-11540D03*
X17300Y-16340D03*
X14400Y-16240D03*
X13600Y-16240D03*
X13500Y-15140D03*
X12800Y-15840D03*
X11300Y-16140D03*
X12600Y-14740D03*
X11600Y-14440D03*
X10100Y-15940D03*
X08000Y-16340D03*
X08000Y-13040D03*
X09600Y-11940D03*
X15500Y-11540D03*
X16700Y-12140D03*
X21200Y-14140D03*
X20200Y-16240D03*
X18700Y-16240D03*
X18500Y-15640D03*
X10100Y-16540D03*
X16900Y-14340D03*
X15900Y-15140D03*
X14400Y-12240D03*
X17100Y-15540D03*
X19900Y-13740D03*
X15800Y-14640D03*
X14700Y-11840D03*
X17900Y-14440D03*
G54D22*
X18625Y-12740D02*
X17125Y-11240D01*
X14200Y-11240D02*
X16800Y-11240D01*
X13300Y-10340D02*
X14200Y-11240D01*
X09000Y-10340D02*
X13300Y-10340D01*
X17125Y-11240D02*
X16800Y-11240D01*
X19050Y-11940D02*
X18625Y-12365D01*
X18625Y-12365D02*
X18625Y-12740D01*
X18625Y-12740D02*
X18500Y-12740D01*
X17900Y-13915D02*
X16075Y-15740D01*
X17900Y-13340D02*
X17900Y-13915D01*
X18500Y-12740D02*
X17900Y-13340D01*
X16075Y-15740D02*
X14975Y-14640D01*
X14975Y-14640D02*
X14800Y-14640D01*
X06800Y-12100D02*
X06800Y-13100D01*
X19000Y-13740D02*
X19000Y-13240D01*
X20350Y-11940D02*
X19700Y-11940D01*
X20350Y-11940D02*
X20350Y-11390D01*
X19000Y-11140D02*
X19100Y-11140D01*
X20100Y-11140D02*
X19000Y-11140D01*
X20350Y-11390D02*
X20100Y-11140D01*
X14500Y-16340D02*
X17300Y-16340D01*
X14400Y-16240D02*
X14500Y-16340D01*
X13600Y-15240D02*
X13600Y-16240D01*
X13500Y-15140D02*
X13600Y-15240D01*
X11600Y-15840D02*
X12800Y-15840D01*
X11300Y-16140D02*
X11600Y-15840D01*
X11900Y-14740D02*
X12600Y-14740D01*
X11600Y-14440D02*
X11900Y-14740D01*
X08400Y-15940D02*
X10100Y-15940D01*
X08000Y-16340D02*
X08400Y-15940D01*
X08500Y-13040D02*
X08000Y-13040D01*
X09600Y-11940D02*
X08500Y-13040D01*
X16100Y-11540D02*
X15500Y-11540D01*
X16700Y-12140D02*
X16100Y-11540D01*
X19000Y-13740D02*
X19000Y-14040D01*
X19100Y-14140D02*
X21200Y-14140D01*
X19000Y-14040D02*
X19100Y-14140D01*
X19500Y-16190D02*
X20150Y-16190D01*
X20150Y-16190D02*
X20200Y-16240D01*
X19500Y-16190D02*
X18750Y-16190D01*
X18750Y-16190D02*
X18700Y-16240D01*
X18500Y-15115D02*
X18500Y-15640D01*
X19375Y-12740D02*
X19925Y-12740D01*
X19925Y-12740D02*
X20125Y-12940D01*
X16300Y-17900D02*
X14940Y-16540D01*
X14900Y-16540D02*
X10100Y-16540D01*
X14940Y-16540D02*
X14900Y-16540D01*
X16700Y-14340D02*
X16900Y-14340D01*
X15900Y-15140D02*
X16700Y-14340D01*
X15325Y-15740D02*
X14700Y-15740D01*
X14400Y-15440D02*
X14400Y-12240D01*
X14700Y-15740D02*
X14400Y-15440D01*
X20300Y-17900D02*
X20300Y-17540D01*
X20300Y-17040D02*
X20100Y-16840D01*
X20100Y-16840D02*
X18400Y-16840D01*
X18400Y-16840D02*
X17100Y-15540D01*
X20300Y-17540D02*
X20300Y-17040D01*
X19375Y-13740D02*
X19900Y-13740D01*
X19900Y-13740D02*
X20475Y-13740D01*
X20475Y-13740D02*
X20500Y-13765D01*
X14700Y-13640D02*
X15800Y-14640D01*
X14700Y-11840D02*
X14700Y-13640D01*
X17975Y-14365D02*
X17900Y-14440D01*
X17975Y-14365D02*
X18500Y-14365D01*
X20500Y-14515D02*
X20125Y-14890D01*
X20125Y-14890D02*
X19500Y-14890D01*
X18500Y-14365D02*
X19025Y-14890D01*
X19025Y-14890D02*
X19500Y-14890D01*
X18625Y-13740D02*
X18625Y-14240D01*
X18625Y-14240D02*
X18500Y-14365D01*
G54D10*
G36*
X18152Y-12677D02*
X17697Y-13133D01*
X17695Y-13135D01*
X17688Y-13142D01*
X17661Y-13176D01*
X17633Y-13226D01*
X17632Y-13228D01*
X17632Y-13229D01*
X17630Y-13233D01*
X17616Y-13280D01*
X17610Y-13336D01*
X17610Y-13339D01*
X17610Y-13340D01*
X17610Y-13795D01*
X17272Y-14132D01*
X17231Y-14070D01*
X17172Y-14011D01*
X17103Y-13964D01*
X17026Y-13932D01*
X16944Y-13915D01*
X16861Y-13915D01*
X16779Y-13930D01*
X16702Y-13962D01*
X16632Y-14007D01*
X16573Y-14066D01*
X16557Y-14088D01*
X16541Y-14097D01*
X16498Y-14132D01*
X16496Y-14134D01*
X16495Y-14135D01*
X16181Y-14448D01*
X16177Y-14439D01*
X16131Y-14370D01*
X16072Y-14311D01*
X16003Y-14264D01*
X15926Y-14232D01*
X15844Y-14215D01*
X15762Y-14215D01*
X14990Y-13512D01*
X14990Y-12150D01*
X15024Y-12119D01*
X15071Y-12051D01*
X15105Y-11974D01*
X15124Y-11893D01*
X15125Y-11798D01*
X15109Y-11716D01*
X15077Y-11639D01*
X15031Y-11570D01*
X14991Y-11530D01*
X16796Y-11530D01*
X16800Y-11530D01*
X17005Y-11530D01*
X18152Y-12677D01*
X18152Y-12677D01*
G37*
G54D23*
X18152Y-12677D02*
X17697Y-13133D01*
X17695Y-13135D01*
X17688Y-13142D01*
X17661Y-13176D01*
X17633Y-13226D01*
X17632Y-13228D01*
X17632Y-13229D01*
X17630Y-13233D01*
X17616Y-13280D01*
X17610Y-13336D01*
X17610Y-13339D01*
X17610Y-13340D01*
X17610Y-13795D01*
X17272Y-14132D01*
X17231Y-14070D01*
X17172Y-14011D01*
X17103Y-13964D01*
X17026Y-13932D01*
X16944Y-13915D01*
X16861Y-13915D01*
X16779Y-13930D01*
X16702Y-13962D01*
X16632Y-14007D01*
X16573Y-14066D01*
X16557Y-14088D01*
X16541Y-14097D01*
X16498Y-14132D01*
X16496Y-14134D01*
X16495Y-14135D01*
X16181Y-14448D01*
X16177Y-14439D01*
X16131Y-14370D01*
X16072Y-14311D01*
X16003Y-14264D01*
X15926Y-14232D01*
X15844Y-14215D01*
X15762Y-14215D01*
X14990Y-13512D01*
X14990Y-12150D01*
X15024Y-12119D01*
X15071Y-12051D01*
X15105Y-11974D01*
X15124Y-11893D01*
X15125Y-11798D01*
X15109Y-11716D01*
X15077Y-11639D01*
X15031Y-11570D01*
X14991Y-11530D01*
X16796Y-11530D01*
X16800Y-11530D01*
X17005Y-11530D01*
X18152Y-12677D01*
G54D10*
G36*
X19737Y-13347D02*
X19702Y-13362D01*
X19639Y-13401D01*
X19635Y-13397D01*
X19595Y-13369D01*
X19550Y-13350D01*
X19502Y-13340D01*
X19453Y-13340D01*
X19251Y-13340D01*
X19203Y-13349D01*
X19187Y-13355D01*
X19172Y-13349D01*
X19124Y-13340D01*
X19112Y-13340D01*
X19050Y-13402D01*
X19050Y-13479D01*
X19035Y-13515D01*
X19025Y-13563D01*
X19025Y-13612D01*
X19025Y-13790D01*
X18975Y-13790D01*
X18975Y-13566D01*
X18966Y-13518D01*
X18950Y-13480D01*
X18950Y-13402D01*
X18888Y-13340D01*
X18876Y-13340D01*
X18828Y-13349D01*
X18812Y-13355D01*
X18800Y-13350D01*
X18752Y-13340D01*
X18703Y-13340D01*
X18501Y-13340D01*
X18453Y-13349D01*
X18408Y-13368D01*
X18367Y-13395D01*
X18332Y-13430D01*
X18304Y-13470D01*
X18285Y-13515D01*
X18275Y-13563D01*
X18275Y-13612D01*
X18275Y-13914D01*
X18279Y-13940D01*
X18201Y-13940D01*
X18187Y-13942D01*
X18190Y-13919D01*
X18190Y-13915D01*
X18190Y-13460D01*
X18510Y-13140D01*
X18547Y-13140D01*
X18749Y-13140D01*
X18797Y-13131D01*
X18842Y-13112D01*
X18883Y-13085D01*
X18918Y-13050D01*
X18946Y-13010D01*
X18965Y-12965D01*
X18975Y-12917D01*
X18975Y-12868D01*
X18975Y-12590D01*
X19025Y-12590D01*
X19025Y-12612D01*
X19025Y-12914D01*
X19034Y-12962D01*
X19053Y-13007D01*
X19080Y-13048D01*
X19115Y-13083D01*
X19155Y-13111D01*
X19200Y-13130D01*
X19248Y-13140D01*
X19297Y-13140D01*
X19499Y-13140D01*
X19547Y-13131D01*
X19592Y-13112D01*
X19633Y-13085D01*
X19668Y-13050D01*
X19682Y-13030D01*
X19700Y-13030D01*
X19700Y-13239D01*
X19709Y-13287D01*
X19728Y-13332D01*
X19737Y-13347D01*
X19737Y-13347D01*
G37*
G54D23*
X19737Y-13347D02*
X19702Y-13362D01*
X19639Y-13401D01*
X19635Y-13397D01*
X19595Y-13369D01*
X19550Y-13350D01*
X19502Y-13340D01*
X19453Y-13340D01*
X19251Y-13340D01*
X19203Y-13349D01*
X19187Y-13355D01*
X19172Y-13349D01*
X19124Y-13340D01*
X19112Y-13340D01*
X19050Y-13402D01*
X19050Y-13479D01*
X19035Y-13515D01*
X19025Y-13563D01*
X19025Y-13612D01*
X19025Y-13790D01*
X18975Y-13790D01*
X18975Y-13566D01*
X18966Y-13518D01*
X18950Y-13480D01*
X18950Y-13402D01*
X18888Y-13340D01*
X18876Y-13340D01*
X18828Y-13349D01*
X18812Y-13355D01*
X18800Y-13350D01*
X18752Y-13340D01*
X18703Y-13340D01*
X18501Y-13340D01*
X18453Y-13349D01*
X18408Y-13368D01*
X18367Y-13395D01*
X18332Y-13430D01*
X18304Y-13470D01*
X18285Y-13515D01*
X18275Y-13563D01*
X18275Y-13612D01*
X18275Y-13914D01*
X18279Y-13940D01*
X18201Y-13940D01*
X18187Y-13942D01*
X18190Y-13919D01*
X18190Y-13915D01*
X18190Y-13460D01*
X18510Y-13140D01*
X18547Y-13140D01*
X18749Y-13140D01*
X18797Y-13131D01*
X18842Y-13112D01*
X18883Y-13085D01*
X18918Y-13050D01*
X18946Y-13010D01*
X18965Y-12965D01*
X18975Y-12917D01*
X18975Y-12868D01*
X18975Y-12590D01*
X19025Y-12590D01*
X19025Y-12612D01*
X19025Y-12914D01*
X19034Y-12962D01*
X19053Y-13007D01*
X19080Y-13048D01*
X19115Y-13083D01*
X19155Y-13111D01*
X19200Y-13130D01*
X19248Y-13140D01*
X19297Y-13140D01*
X19499Y-13140D01*
X19547Y-13131D01*
X19592Y-13112D01*
X19633Y-13085D01*
X19668Y-13050D01*
X19682Y-13030D01*
X19700Y-13030D01*
X19700Y-13239D01*
X19709Y-13287D01*
X19728Y-13332D01*
X19737Y-13347D01*
G54D10*
G36*
X20074Y-14139D02*
X20067Y-14145D01*
X20032Y-14180D01*
X20004Y-14220D01*
X19985Y-14265D01*
X19975Y-14313D01*
X19975Y-14350D01*
X19927Y-14340D01*
X19878Y-14340D01*
X19076Y-14340D01*
X19028Y-14349D01*
X19025Y-14350D01*
X19025Y-14166D01*
X19020Y-14140D01*
X19100Y-14140D01*
X19100Y-14128D01*
X19112Y-14140D01*
X19124Y-14140D01*
X19172Y-14131D01*
X19187Y-14124D01*
X19200Y-14130D01*
X19248Y-14140D01*
X19297Y-14140D01*
X19499Y-14140D01*
X19547Y-14131D01*
X19592Y-14112D01*
X19633Y-14085D01*
X19640Y-14077D01*
X19692Y-14113D01*
X19768Y-14146D01*
X19850Y-14164D01*
X19933Y-14166D01*
X20015Y-14151D01*
X20064Y-14132D01*
X20065Y-14133D01*
X20074Y-14139D01*
X20074Y-14139D01*
G37*
G54D23*
X20074Y-14139D02*
X20067Y-14145D01*
X20032Y-14180D01*
X20004Y-14220D01*
X19985Y-14265D01*
X19975Y-14313D01*
X19975Y-14350D01*
X19927Y-14340D01*
X19878Y-14340D01*
X19076Y-14340D01*
X19028Y-14349D01*
X19025Y-14350D01*
X19025Y-14166D01*
X19020Y-14140D01*
X19100Y-14140D01*
X19100Y-14128D01*
X19112Y-14140D01*
X19124Y-14140D01*
X19172Y-14131D01*
X19187Y-14124D01*
X19200Y-14130D01*
X19248Y-14140D01*
X19297Y-14140D01*
X19499Y-14140D01*
X19547Y-14131D01*
X19592Y-14112D01*
X19633Y-14085D01*
X19640Y-14077D01*
X19692Y-14113D01*
X19768Y-14146D01*
X19850Y-14164D01*
X19933Y-14166D01*
X20015Y-14151D01*
X20064Y-14132D01*
X20065Y-14133D01*
X20074Y-14139D01*
G54D10*
G36*
X22550Y-18237D02*
X22546Y-18279D01*
X22535Y-18317D01*
X22516Y-18351D01*
X22491Y-18381D01*
X22461Y-18406D01*
X22449Y-18412D01*
X22449Y-10967D01*
X22421Y-10823D01*
X22365Y-10687D01*
X22283Y-10565D01*
X22180Y-10460D01*
X22058Y-10378D01*
X21923Y-10321D01*
X21779Y-10292D01*
X21632Y-10291D01*
X21488Y-10318D01*
X21352Y-10373D01*
X21229Y-10453D01*
X21124Y-10556D01*
X21041Y-10677D01*
X20983Y-10812D01*
X20952Y-10956D01*
X20950Y-11103D01*
X20976Y-11247D01*
X21030Y-11384D01*
X21110Y-11507D01*
X21212Y-11613D01*
X21332Y-11697D01*
X21467Y-11756D01*
X21610Y-11787D01*
X21757Y-11790D01*
X21902Y-11765D01*
X22039Y-11712D01*
X22163Y-11633D01*
X22269Y-11532D01*
X22354Y-11412D01*
X22414Y-11278D01*
X22447Y-11135D01*
X22449Y-10967D01*
X22449Y-18412D01*
X22427Y-18425D01*
X22389Y-18436D01*
X22347Y-18440D01*
X21300Y-18440D01*
X21300Y-13242D01*
X21300Y-13193D01*
X21300Y-13052D01*
X21238Y-12990D01*
X20975Y-12990D01*
X20925Y-12990D01*
X20825Y-12990D01*
X20825Y-12890D01*
X20925Y-12890D01*
X20975Y-12890D01*
X21238Y-12890D01*
X21300Y-12828D01*
X21300Y-12687D01*
X21300Y-12638D01*
X21290Y-12590D01*
X21271Y-12545D01*
X21243Y-12505D01*
X21208Y-12470D01*
X21167Y-12443D01*
X21122Y-12424D01*
X21074Y-12415D01*
X20987Y-12415D01*
X20975Y-12427D01*
X20975Y-12415D01*
X20890Y-12415D01*
X20900Y-12367D01*
X20900Y-12318D01*
X20900Y-12052D01*
X20900Y-11828D01*
X20900Y-11562D01*
X20900Y-11513D01*
X20890Y-11465D01*
X20871Y-11420D01*
X20843Y-11380D01*
X20824Y-11361D01*
X20824Y-09849D01*
X20804Y-09748D01*
X20765Y-09653D01*
X20708Y-09568D01*
X20636Y-09495D01*
X20551Y-09437D01*
X20456Y-09397D01*
X20355Y-09376D01*
X20253Y-09376D01*
X20152Y-09395D01*
X20056Y-09433D01*
X19970Y-09489D01*
X19897Y-09561D01*
X19839Y-09646D01*
X19799Y-09736D01*
X19765Y-09653D01*
X19708Y-09568D01*
X19636Y-09495D01*
X19551Y-09437D01*
X19456Y-09397D01*
X19355Y-09376D01*
X19253Y-09376D01*
X19152Y-09395D01*
X19056Y-09433D01*
X18970Y-09489D01*
X18897Y-09561D01*
X18839Y-09646D01*
X18799Y-09736D01*
X18765Y-09653D01*
X18708Y-09568D01*
X18636Y-09495D01*
X18551Y-09437D01*
X18456Y-09397D01*
X18355Y-09376D01*
X18253Y-09376D01*
X18152Y-09395D01*
X18056Y-09433D01*
X17970Y-09489D01*
X17897Y-09561D01*
X17839Y-09646D01*
X17799Y-09736D01*
X17765Y-09653D01*
X17708Y-09568D01*
X17636Y-09495D01*
X17551Y-09437D01*
X17456Y-09397D01*
X17355Y-09376D01*
X17253Y-09376D01*
X17152Y-09395D01*
X17056Y-09433D01*
X16970Y-09489D01*
X16897Y-09561D01*
X16839Y-09646D01*
X16798Y-09739D01*
X16774Y-09674D01*
X16752Y-09633D01*
X16661Y-09610D01*
X16590Y-09681D01*
X16590Y-09539D01*
X16567Y-09448D01*
X16474Y-09405D01*
X16374Y-09380D01*
X16272Y-09375D01*
X16170Y-09391D01*
X16074Y-09426D01*
X16033Y-09448D01*
X16010Y-09539D01*
X16300Y-09829D01*
X16590Y-09539D01*
X16590Y-09681D01*
X16371Y-09900D01*
X16661Y-10190D01*
X16752Y-10167D01*
X16795Y-10074D01*
X16799Y-10057D01*
X16832Y-10140D01*
X16887Y-10227D01*
X16958Y-10301D01*
X17043Y-10359D01*
X17137Y-10401D01*
X17237Y-10423D01*
X17340Y-10425D01*
X17441Y-10407D01*
X17537Y-10370D01*
X17624Y-10315D01*
X17698Y-10244D01*
X17758Y-10160D01*
X17799Y-10067D01*
X17800Y-10060D01*
X17832Y-10140D01*
X17887Y-10227D01*
X17958Y-10301D01*
X18043Y-10359D01*
X18137Y-10401D01*
X18237Y-10423D01*
X18340Y-10425D01*
X18441Y-10407D01*
X18537Y-10370D01*
X18624Y-10315D01*
X18698Y-10244D01*
X18758Y-10160D01*
X18799Y-10067D01*
X18800Y-10060D01*
X18832Y-10140D01*
X18887Y-10227D01*
X18958Y-10301D01*
X19043Y-10359D01*
X19137Y-10401D01*
X19237Y-10423D01*
X19340Y-10425D01*
X19441Y-10407D01*
X19537Y-10370D01*
X19624Y-10315D01*
X19698Y-10244D01*
X19758Y-10160D01*
X19799Y-10067D01*
X19800Y-10060D01*
X19832Y-10140D01*
X19887Y-10227D01*
X19958Y-10301D01*
X20043Y-10359D01*
X20137Y-10401D01*
X20237Y-10423D01*
X20340Y-10425D01*
X20441Y-10407D01*
X20537Y-10370D01*
X20624Y-10315D01*
X20698Y-10244D01*
X20758Y-10160D01*
X20799Y-10067D01*
X20822Y-09966D01*
X20824Y-09849D01*
X20824Y-11361D01*
X20808Y-11345D01*
X20767Y-11318D01*
X20722Y-11299D01*
X20674Y-11290D01*
X20462Y-11290D01*
X20400Y-11352D01*
X20400Y-11890D01*
X20838Y-11890D01*
X20900Y-11828D01*
X20900Y-12052D01*
X20838Y-11990D01*
X20450Y-11990D01*
X20400Y-11990D01*
X20300Y-11990D01*
X20300Y-11890D01*
X20300Y-11352D01*
X20238Y-11290D01*
X20026Y-11290D01*
X19978Y-11299D01*
X19933Y-11318D01*
X19892Y-11345D01*
X19857Y-11380D01*
X19829Y-11420D01*
X19810Y-11465D01*
X19800Y-11513D01*
X19800Y-11562D01*
X19800Y-11828D01*
X19862Y-11890D01*
X20300Y-11890D01*
X20300Y-11990D01*
X20250Y-11990D01*
X19862Y-11990D01*
X19800Y-12052D01*
X19800Y-12318D01*
X19800Y-12367D01*
X19810Y-12415D01*
X19824Y-12448D01*
X19822Y-12450D01*
X19681Y-12450D01*
X19670Y-12432D01*
X19635Y-12397D01*
X19599Y-12371D01*
X19600Y-12367D01*
X19600Y-12318D01*
X19600Y-11516D01*
X19591Y-11468D01*
X19572Y-11423D01*
X19545Y-11382D01*
X19510Y-11347D01*
X19470Y-11319D01*
X19425Y-11300D01*
X19377Y-11290D01*
X19328Y-11290D01*
X18726Y-11290D01*
X18678Y-11299D01*
X18633Y-11318D01*
X18592Y-11345D01*
X18557Y-11380D01*
X18529Y-11420D01*
X18510Y-11465D01*
X18500Y-11513D01*
X18500Y-11562D01*
X18500Y-12080D01*
X18437Y-12142D01*
X17332Y-11037D01*
X17330Y-11035D01*
X17322Y-11028D01*
X17289Y-11001D01*
X17239Y-10973D01*
X17236Y-10972D01*
X17231Y-10970D01*
X17185Y-10956D01*
X17129Y-10950D01*
X17126Y-10950D01*
X17125Y-10950D01*
X16804Y-10950D01*
X16800Y-10950D01*
X16590Y-10950D01*
X16590Y-10261D01*
X16300Y-09971D01*
X16229Y-10042D01*
X16229Y-09900D01*
X15939Y-09610D01*
X15848Y-09633D01*
X15805Y-09726D01*
X15801Y-09741D01*
X15765Y-09653D01*
X15708Y-09568D01*
X15636Y-09495D01*
X15551Y-09437D01*
X15456Y-09397D01*
X15355Y-09376D01*
X15253Y-09376D01*
X15152Y-09395D01*
X15056Y-09433D01*
X14970Y-09489D01*
X14897Y-09561D01*
X14839Y-09646D01*
X14825Y-09678D01*
X14825Y-09601D01*
X14816Y-09553D01*
X14797Y-09508D01*
X14770Y-09467D01*
X14735Y-09432D01*
X14695Y-09404D01*
X14650Y-09385D01*
X14602Y-09375D01*
X14553Y-09375D01*
X14001Y-09375D01*
X13953Y-09384D01*
X13908Y-09403D01*
X13867Y-09430D01*
X13832Y-09465D01*
X13804Y-09505D01*
X13785Y-09550D01*
X13775Y-09598D01*
X13775Y-09647D01*
X13775Y-10199D01*
X13784Y-10247D01*
X13803Y-10292D01*
X13830Y-10333D01*
X13865Y-10368D01*
X13905Y-10396D01*
X13950Y-10415D01*
X13998Y-10425D01*
X14047Y-10425D01*
X14599Y-10425D01*
X14647Y-10416D01*
X14692Y-10397D01*
X14733Y-10370D01*
X14768Y-10335D01*
X14796Y-10295D01*
X14815Y-10250D01*
X14825Y-10202D01*
X14825Y-10153D01*
X14825Y-10122D01*
X14832Y-10140D01*
X14887Y-10227D01*
X14958Y-10301D01*
X15043Y-10359D01*
X15137Y-10401D01*
X15237Y-10423D01*
X15340Y-10425D01*
X15441Y-10407D01*
X15537Y-10370D01*
X15624Y-10315D01*
X15698Y-10244D01*
X15758Y-10160D01*
X15799Y-10067D01*
X15801Y-10057D01*
X15826Y-10126D01*
X15848Y-10167D01*
X15939Y-10190D01*
X16229Y-09900D01*
X16229Y-10042D01*
X16010Y-10261D01*
X16033Y-10352D01*
X16126Y-10395D01*
X16226Y-10420D01*
X16328Y-10425D01*
X16430Y-10409D01*
X16526Y-10374D01*
X16567Y-10352D01*
X16590Y-10261D01*
X16590Y-10950D01*
X14320Y-10950D01*
X13507Y-10137D01*
X13505Y-10135D01*
X13497Y-10128D01*
X13464Y-10101D01*
X13414Y-10073D01*
X13411Y-10072D01*
X13406Y-10070D01*
X13360Y-10056D01*
X13304Y-10050D01*
X13301Y-10050D01*
X13300Y-10050D01*
X09311Y-10050D01*
X09272Y-10011D01*
X09203Y-09964D01*
X09126Y-09932D01*
X09044Y-09915D01*
X08961Y-09915D01*
X08879Y-09930D01*
X08802Y-09962D01*
X08732Y-10007D01*
X08673Y-10066D01*
X08626Y-10135D01*
X08593Y-10211D01*
X08576Y-10293D01*
X08574Y-10376D01*
X08590Y-10458D01*
X08620Y-10536D01*
X08666Y-10606D01*
X08723Y-10665D01*
X08792Y-10713D01*
X08868Y-10746D01*
X08950Y-10764D01*
X09033Y-10766D01*
X09115Y-10751D01*
X09193Y-10721D01*
X09263Y-10676D01*
X09312Y-10630D01*
X13179Y-10630D01*
X13993Y-11443D01*
X13994Y-11445D01*
X14021Y-11467D01*
X14036Y-11479D01*
X14038Y-11480D01*
X14086Y-11507D01*
X14088Y-11507D01*
X14140Y-11524D01*
X14141Y-11524D01*
X14196Y-11530D01*
X14200Y-11530D01*
X14409Y-11530D01*
X14373Y-11566D01*
X14326Y-11635D01*
X14293Y-11711D01*
X14276Y-11793D01*
X14275Y-11831D01*
X14202Y-11862D01*
X14132Y-11907D01*
X14073Y-11966D01*
X14026Y-12035D01*
X13993Y-12111D01*
X13976Y-12193D01*
X13974Y-12276D01*
X13990Y-12358D01*
X14020Y-12436D01*
X14066Y-12506D01*
X14110Y-12551D01*
X14110Y-15437D01*
X14110Y-15440D01*
X14111Y-15455D01*
X14115Y-15493D01*
X14116Y-15496D01*
X14131Y-15548D01*
X14132Y-15551D01*
X14157Y-15598D01*
X14158Y-15600D01*
X14179Y-15626D01*
X14192Y-15642D01*
X14194Y-15644D01*
X14195Y-15645D01*
X14493Y-15943D01*
X14495Y-15945D01*
X14502Y-15951D01*
X14536Y-15979D01*
X14539Y-15980D01*
X14586Y-16007D01*
X14588Y-16007D01*
X14589Y-16008D01*
X14593Y-16009D01*
X14640Y-16024D01*
X14642Y-16024D01*
X14696Y-16030D01*
X14698Y-16030D01*
X14700Y-16030D01*
X14900Y-16030D01*
X14900Y-16039D01*
X14909Y-16087D01*
X14928Y-16132D01*
X14955Y-16173D01*
X14990Y-16208D01*
X15030Y-16236D01*
X15075Y-16255D01*
X15123Y-16265D01*
X15172Y-16265D01*
X15524Y-16265D01*
X15572Y-16256D01*
X15617Y-16237D01*
X15658Y-16210D01*
X15693Y-16175D01*
X15699Y-16165D01*
X15705Y-16173D01*
X15740Y-16208D01*
X15780Y-16236D01*
X15825Y-16255D01*
X15873Y-16265D01*
X15922Y-16265D01*
X16274Y-16265D01*
X16322Y-16256D01*
X16367Y-16237D01*
X16408Y-16210D01*
X16443Y-16175D01*
X16471Y-16135D01*
X16490Y-16090D01*
X16500Y-16042D01*
X16500Y-15993D01*
X16500Y-15725D01*
X16674Y-15550D01*
X16674Y-15576D01*
X16690Y-15658D01*
X16720Y-15736D01*
X16766Y-15806D01*
X16823Y-15865D01*
X16892Y-15913D01*
X16968Y-15946D01*
X17050Y-15964D01*
X17115Y-15965D01*
X18193Y-17043D01*
X18195Y-17045D01*
X18209Y-17056D01*
X18236Y-17079D01*
X18238Y-17080D01*
X18286Y-17107D01*
X18288Y-17107D01*
X18289Y-17108D01*
X18293Y-17109D01*
X18340Y-17124D01*
X18342Y-17124D01*
X18396Y-17130D01*
X18398Y-17130D01*
X18400Y-17130D01*
X19980Y-17130D01*
X20010Y-17160D01*
X20010Y-17375D01*
X20001Y-17375D01*
X19953Y-17384D01*
X19908Y-17403D01*
X19867Y-17430D01*
X19832Y-17465D01*
X19804Y-17505D01*
X19785Y-17550D01*
X19775Y-17598D01*
X19775Y-17647D01*
X19775Y-17677D01*
X19765Y-17653D01*
X19708Y-17568D01*
X19636Y-17495D01*
X19551Y-17437D01*
X19456Y-17397D01*
X19355Y-17376D01*
X19253Y-17376D01*
X19152Y-17395D01*
X19056Y-17433D01*
X18970Y-17489D01*
X18897Y-17561D01*
X18839Y-17646D01*
X18799Y-17736D01*
X18765Y-17653D01*
X18708Y-17568D01*
X18636Y-17495D01*
X18551Y-17437D01*
X18456Y-17397D01*
X18355Y-17376D01*
X18253Y-17376D01*
X18152Y-17395D01*
X18056Y-17433D01*
X17970Y-17489D01*
X17897Y-17561D01*
X17839Y-17646D01*
X17799Y-17736D01*
X17765Y-17653D01*
X17708Y-17568D01*
X17636Y-17495D01*
X17551Y-17437D01*
X17456Y-17397D01*
X17355Y-17376D01*
X17253Y-17376D01*
X17152Y-17395D01*
X17056Y-17433D01*
X16970Y-17489D01*
X16897Y-17561D01*
X16839Y-17646D01*
X16799Y-17736D01*
X16765Y-17653D01*
X16708Y-17568D01*
X16636Y-17495D01*
X16551Y-17437D01*
X16456Y-17397D01*
X16355Y-17376D01*
X16253Y-17376D01*
X16196Y-17386D01*
X15147Y-16337D01*
X15145Y-16335D01*
X15137Y-16328D01*
X15104Y-16301D01*
X15054Y-16273D01*
X15051Y-16272D01*
X15046Y-16270D01*
X15000Y-16256D01*
X14944Y-16250D01*
X14941Y-16250D01*
X14940Y-16250D01*
X14904Y-16250D01*
X14900Y-16250D01*
X10411Y-16250D01*
X10372Y-16211D01*
X10303Y-16164D01*
X10226Y-16132D01*
X10144Y-16115D01*
X10061Y-16115D01*
X09979Y-16130D01*
X09902Y-16162D01*
X09832Y-16207D01*
X09773Y-16266D01*
X09726Y-16335D01*
X09693Y-16411D01*
X09676Y-16493D01*
X09674Y-16576D01*
X09690Y-16658D01*
X09720Y-16736D01*
X09766Y-16806D01*
X09823Y-16865D01*
X09892Y-16913D01*
X09968Y-16946D01*
X10050Y-16964D01*
X10133Y-16966D01*
X10215Y-16951D01*
X10293Y-16921D01*
X10363Y-16876D01*
X10412Y-16830D01*
X14820Y-16830D01*
X15368Y-17378D01*
X15355Y-17376D01*
X15253Y-17376D01*
X15152Y-17395D01*
X15056Y-17433D01*
X14970Y-17489D01*
X14897Y-17561D01*
X14839Y-17646D01*
X14798Y-17739D01*
X14774Y-17674D01*
X14752Y-17633D01*
X14661Y-17610D01*
X14590Y-17681D01*
X14590Y-17539D01*
X14567Y-17448D01*
X14474Y-17405D01*
X14374Y-17380D01*
X14272Y-17375D01*
X14170Y-17391D01*
X14074Y-17426D01*
X14033Y-17448D01*
X14010Y-17539D01*
X14300Y-17829D01*
X14590Y-17539D01*
X14590Y-17681D01*
X14371Y-17900D01*
X14661Y-18190D01*
X14752Y-18167D01*
X14795Y-18074D01*
X14799Y-18057D01*
X14832Y-18140D01*
X14887Y-18227D01*
X14958Y-18301D01*
X15043Y-18359D01*
X15137Y-18401D01*
X15237Y-18423D01*
X15340Y-18425D01*
X15441Y-18407D01*
X15537Y-18370D01*
X15624Y-18315D01*
X15698Y-18244D01*
X15758Y-18160D01*
X15799Y-18067D01*
X15800Y-18060D01*
X15832Y-18140D01*
X15887Y-18227D01*
X15958Y-18301D01*
X16043Y-18359D01*
X16137Y-18401D01*
X16237Y-18423D01*
X16340Y-18425D01*
X16441Y-18407D01*
X16537Y-18370D01*
X16624Y-18315D01*
X16698Y-18244D01*
X16758Y-18160D01*
X16799Y-18067D01*
X16800Y-18060D01*
X16832Y-18140D01*
X16887Y-18227D01*
X16958Y-18301D01*
X17043Y-18359D01*
X17137Y-18401D01*
X17237Y-18423D01*
X17340Y-18425D01*
X17441Y-18407D01*
X17537Y-18370D01*
X17624Y-18315D01*
X17698Y-18244D01*
X17758Y-18160D01*
X17799Y-18067D01*
X17800Y-18060D01*
X17832Y-18140D01*
X17887Y-18227D01*
X17958Y-18301D01*
X18043Y-18359D01*
X18137Y-18401D01*
X18237Y-18423D01*
X18340Y-18425D01*
X18441Y-18407D01*
X18537Y-18370D01*
X18624Y-18315D01*
X18698Y-18244D01*
X18758Y-18160D01*
X18799Y-18067D01*
X18800Y-18060D01*
X18832Y-18140D01*
X18887Y-18227D01*
X18958Y-18301D01*
X19043Y-18359D01*
X19137Y-18401D01*
X19237Y-18423D01*
X19340Y-18425D01*
X19441Y-18407D01*
X19537Y-18370D01*
X19624Y-18315D01*
X19698Y-18244D01*
X19758Y-18160D01*
X19775Y-18121D01*
X19775Y-18199D01*
X19784Y-18247D01*
X19803Y-18292D01*
X19830Y-18333D01*
X19865Y-18368D01*
X19905Y-18396D01*
X19950Y-18415D01*
X19998Y-18425D01*
X20047Y-18425D01*
X20599Y-18425D01*
X20647Y-18416D01*
X20692Y-18397D01*
X20733Y-18370D01*
X20768Y-18335D01*
X20796Y-18295D01*
X20815Y-18250D01*
X20825Y-18202D01*
X20825Y-18153D01*
X20825Y-17601D01*
X20816Y-17553D01*
X20797Y-17508D01*
X20770Y-17467D01*
X20735Y-17432D01*
X20695Y-17404D01*
X20650Y-17385D01*
X20602Y-17375D01*
X20590Y-17375D01*
X20590Y-17040D01*
X20584Y-16986D01*
X20584Y-16984D01*
X20575Y-16954D01*
X20569Y-16931D01*
X20568Y-16929D01*
X20566Y-16925D01*
X20543Y-16881D01*
X20542Y-16880D01*
X20507Y-16837D01*
X20506Y-16836D01*
X20504Y-16834D01*
X20307Y-16637D01*
X20305Y-16635D01*
X20297Y-16628D01*
X20264Y-16601D01*
X20214Y-16573D01*
X20211Y-16572D01*
X20206Y-16570D01*
X20160Y-16556D01*
X20142Y-16554D01*
X20150Y-16514D01*
X20150Y-16302D01*
X20150Y-16078D01*
X20150Y-15866D01*
X20141Y-15818D01*
X20122Y-15773D01*
X20095Y-15732D01*
X20060Y-15697D01*
X20020Y-15669D01*
X19975Y-15650D01*
X19927Y-15640D01*
X19878Y-15640D01*
X19612Y-15640D01*
X19550Y-15702D01*
X19550Y-16140D01*
X20088Y-16140D01*
X20150Y-16078D01*
X20150Y-16302D01*
X20088Y-16240D01*
X19600Y-16240D01*
X19550Y-16240D01*
X19450Y-16240D01*
X19450Y-16140D01*
X19450Y-15702D01*
X19388Y-15640D01*
X19122Y-15640D01*
X19073Y-15640D01*
X19025Y-15650D01*
X18980Y-15669D01*
X18940Y-15697D01*
X18905Y-15732D01*
X18878Y-15773D01*
X18859Y-15818D01*
X18850Y-15866D01*
X18850Y-16078D01*
X18912Y-16140D01*
X19450Y-16140D01*
X19450Y-16240D01*
X19400Y-16240D01*
X18912Y-16240D01*
X18850Y-16302D01*
X18850Y-16514D01*
X18856Y-16550D01*
X18520Y-16550D01*
X18450Y-16480D01*
X18450Y-15478D01*
X18450Y-15165D01*
X18037Y-15165D01*
X17975Y-15227D01*
X17975Y-15314D01*
X17984Y-15362D01*
X18003Y-15407D01*
X18030Y-15448D01*
X18065Y-15483D01*
X18105Y-15511D01*
X18150Y-15530D01*
X18198Y-15540D01*
X18247Y-15540D01*
X18388Y-15540D01*
X18450Y-15478D01*
X18450Y-16480D01*
X17524Y-15554D01*
X17525Y-15498D01*
X17509Y-15416D01*
X17477Y-15339D01*
X17431Y-15270D01*
X17372Y-15211D01*
X17303Y-15164D01*
X17226Y-15132D01*
X17144Y-15115D01*
X17110Y-15115D01*
X17547Y-14677D01*
X17566Y-14706D01*
X17623Y-14765D01*
X17692Y-14813D01*
X17768Y-14846D01*
X17850Y-14864D01*
X17933Y-14866D01*
X17989Y-14855D01*
X17984Y-14868D01*
X17975Y-14916D01*
X17975Y-15003D01*
X18037Y-15065D01*
X18400Y-15065D01*
X18450Y-15065D01*
X18550Y-15065D01*
X18550Y-15165D01*
X18550Y-15215D01*
X18550Y-15478D01*
X18612Y-15540D01*
X18753Y-15540D01*
X18802Y-15540D01*
X18850Y-15530D01*
X18895Y-15511D01*
X18935Y-15483D01*
X18970Y-15448D01*
X18991Y-15415D01*
X19025Y-15430D01*
X19073Y-15440D01*
X19122Y-15440D01*
X19924Y-15440D01*
X19972Y-15431D01*
X20017Y-15412D01*
X20058Y-15385D01*
X20093Y-15350D01*
X20121Y-15310D01*
X20140Y-15265D01*
X20150Y-15217D01*
X20150Y-15177D01*
X20178Y-15175D01*
X20181Y-15174D01*
X20233Y-15159D01*
X20233Y-15158D01*
X20236Y-15158D01*
X20283Y-15133D01*
X20285Y-15132D01*
X20311Y-15110D01*
X20327Y-15098D01*
X20329Y-15096D01*
X20330Y-15095D01*
X20485Y-14940D01*
X20799Y-14940D01*
X20847Y-14931D01*
X20892Y-14912D01*
X20933Y-14885D01*
X20968Y-14850D01*
X20996Y-14810D01*
X21015Y-14765D01*
X21025Y-14717D01*
X21025Y-14668D01*
X21025Y-14316D01*
X21016Y-14268D01*
X20997Y-14223D01*
X20970Y-14182D01*
X20935Y-14147D01*
X20925Y-14140D01*
X20933Y-14135D01*
X20968Y-14100D01*
X20996Y-14060D01*
X21015Y-14015D01*
X21025Y-13967D01*
X21025Y-13918D01*
X21025Y-13566D01*
X21016Y-13518D01*
X20997Y-13473D01*
X20991Y-13465D01*
X21074Y-13465D01*
X21122Y-13456D01*
X21167Y-13437D01*
X21208Y-13410D01*
X21243Y-13375D01*
X21271Y-13335D01*
X21290Y-13290D01*
X21300Y-13242D01*
X21300Y-18440D01*
X14590Y-18440D01*
X14590Y-18261D01*
X14300Y-17971D01*
X14229Y-18042D01*
X14229Y-17900D01*
X13939Y-17610D01*
X13848Y-17633D01*
X13805Y-17726D01*
X13780Y-17826D01*
X13775Y-17928D01*
X13791Y-18030D01*
X13826Y-18126D01*
X13848Y-18167D01*
X13939Y-18190D01*
X14229Y-17900D01*
X14229Y-18042D01*
X14010Y-18261D01*
X14033Y-18352D01*
X14126Y-18395D01*
X14226Y-18420D01*
X14328Y-18425D01*
X14430Y-18409D01*
X14526Y-18374D01*
X14567Y-18352D01*
X14590Y-18261D01*
X14590Y-18440D01*
X07054Y-18440D01*
X07054Y-12425D01*
X06800Y-12171D01*
X06546Y-12425D01*
X06563Y-12511D01*
X06648Y-12549D01*
X06738Y-12570D01*
X06831Y-12574D01*
X06922Y-12559D01*
X07009Y-12526D01*
X07037Y-12511D01*
X07054Y-12425D01*
X07054Y-18440D01*
X06253Y-18440D01*
X06211Y-18436D01*
X06173Y-18425D01*
X06139Y-18406D01*
X06109Y-18381D01*
X06084Y-18351D01*
X06065Y-18317D01*
X06054Y-18279D01*
X06050Y-18237D01*
X06050Y-12353D01*
X06054Y-12311D01*
X06065Y-12273D01*
X06084Y-12239D01*
X06109Y-12209D01*
X06139Y-12184D01*
X06173Y-12165D01*
X06211Y-12154D01*
X06253Y-12150D01*
X06329Y-12150D01*
X06341Y-12222D01*
X06374Y-12309D01*
X06389Y-12337D01*
X06475Y-12354D01*
X06679Y-12150D01*
X06921Y-12150D01*
X07125Y-12354D01*
X07211Y-12337D01*
X07249Y-12252D01*
X07270Y-12162D01*
X07270Y-12150D01*
X08153Y-12150D01*
X08209Y-12144D01*
X08265Y-12127D01*
X08317Y-12100D01*
X08363Y-12063D01*
X08400Y-12017D01*
X08427Y-11965D01*
X08444Y-11909D01*
X08450Y-11853D01*
X08450Y-09543D01*
X08454Y-09501D01*
X08465Y-09463D01*
X08484Y-09429D01*
X08509Y-09399D01*
X08539Y-09374D01*
X08573Y-09355D01*
X08611Y-09344D01*
X08653Y-09340D01*
X22347Y-09340D01*
X22389Y-09344D01*
X22427Y-09355D01*
X22461Y-09374D01*
X22491Y-09399D01*
X22516Y-09429D01*
X22535Y-09463D01*
X22546Y-09501D01*
X22550Y-09543D01*
X22550Y-18237D01*
X22550Y-18237D01*
G37*
G54D23*
X22550Y-18237D02*
X22546Y-18279D01*
X22535Y-18317D01*
X22516Y-18351D01*
X22491Y-18381D01*
X22461Y-18406D01*
X22449Y-18412D01*
X22449Y-10967D01*
X22421Y-10823D01*
X22365Y-10687D01*
X22283Y-10565D01*
X22180Y-10460D01*
X22058Y-10378D01*
X21923Y-10321D01*
X21779Y-10292D01*
X21632Y-10291D01*
X21488Y-10318D01*
X21352Y-10373D01*
X21229Y-10453D01*
X21124Y-10556D01*
X21041Y-10677D01*
X20983Y-10812D01*
X20952Y-10956D01*
X20950Y-11103D01*
X20976Y-11247D01*
X21030Y-11384D01*
X21110Y-11507D01*
X21212Y-11613D01*
X21332Y-11697D01*
X21467Y-11756D01*
X21610Y-11787D01*
X21757Y-11790D01*
X21902Y-11765D01*
X22039Y-11712D01*
X22163Y-11633D01*
X22269Y-11532D01*
X22354Y-11412D01*
X22414Y-11278D01*
X22447Y-11135D01*
X22449Y-10967D01*
X22449Y-18412D01*
X22427Y-18425D01*
X22389Y-18436D01*
X22347Y-18440D01*
X21300Y-18440D01*
X21300Y-13242D01*
X21300Y-13193D01*
X21300Y-13052D01*
X21238Y-12990D01*
X20975Y-12990D01*
X20925Y-12990D01*
X20825Y-12990D01*
X20825Y-12890D01*
X20925Y-12890D01*
X20975Y-12890D01*
X21238Y-12890D01*
X21300Y-12828D01*
X21300Y-12687D01*
X21300Y-12638D01*
X21290Y-12590D01*
X21271Y-12545D01*
X21243Y-12505D01*
X21208Y-12470D01*
X21167Y-12443D01*
X21122Y-12424D01*
X21074Y-12415D01*
X20987Y-12415D01*
X20975Y-12427D01*
X20975Y-12415D01*
X20890Y-12415D01*
X20900Y-12367D01*
X20900Y-12318D01*
X20900Y-12052D01*
X20900Y-11828D01*
X20900Y-11562D01*
X20900Y-11513D01*
X20890Y-11465D01*
X20871Y-11420D01*
X20843Y-11380D01*
X20824Y-11361D01*
X20824Y-09849D01*
X20804Y-09748D01*
X20765Y-09653D01*
X20708Y-09568D01*
X20636Y-09495D01*
X20551Y-09437D01*
X20456Y-09397D01*
X20355Y-09376D01*
X20253Y-09376D01*
X20152Y-09395D01*
X20056Y-09433D01*
X19970Y-09489D01*
X19897Y-09561D01*
X19839Y-09646D01*
X19799Y-09736D01*
X19765Y-09653D01*
X19708Y-09568D01*
X19636Y-09495D01*
X19551Y-09437D01*
X19456Y-09397D01*
X19355Y-09376D01*
X19253Y-09376D01*
X19152Y-09395D01*
X19056Y-09433D01*
X18970Y-09489D01*
X18897Y-09561D01*
X18839Y-09646D01*
X18799Y-09736D01*
X18765Y-09653D01*
X18708Y-09568D01*
X18636Y-09495D01*
X18551Y-09437D01*
X18456Y-09397D01*
X18355Y-09376D01*
X18253Y-09376D01*
X18152Y-09395D01*
X18056Y-09433D01*
X17970Y-09489D01*
X17897Y-09561D01*
X17839Y-09646D01*
X17799Y-09736D01*
X17765Y-09653D01*
X17708Y-09568D01*
X17636Y-09495D01*
X17551Y-09437D01*
X17456Y-09397D01*
X17355Y-09376D01*
X17253Y-09376D01*
X17152Y-09395D01*
X17056Y-09433D01*
X16970Y-09489D01*
X16897Y-09561D01*
X16839Y-09646D01*
X16798Y-09739D01*
X16774Y-09674D01*
X16752Y-09633D01*
X16661Y-09610D01*
X16590Y-09681D01*
X16590Y-09539D01*
X16567Y-09448D01*
X16474Y-09405D01*
X16374Y-09380D01*
X16272Y-09375D01*
X16170Y-09391D01*
X16074Y-09426D01*
X16033Y-09448D01*
X16010Y-09539D01*
X16300Y-09829D01*
X16590Y-09539D01*
X16590Y-09681D01*
X16371Y-09900D01*
X16661Y-10190D01*
X16752Y-10167D01*
X16795Y-10074D01*
X16799Y-10057D01*
X16832Y-10140D01*
X16887Y-10227D01*
X16958Y-10301D01*
X17043Y-10359D01*
X17137Y-10401D01*
X17237Y-10423D01*
X17340Y-10425D01*
X17441Y-10407D01*
X17537Y-10370D01*
X17624Y-10315D01*
X17698Y-10244D01*
X17758Y-10160D01*
X17799Y-10067D01*
X17800Y-10060D01*
X17832Y-10140D01*
X17887Y-10227D01*
X17958Y-10301D01*
X18043Y-10359D01*
X18137Y-10401D01*
X18237Y-10423D01*
X18340Y-10425D01*
X18441Y-10407D01*
X18537Y-10370D01*
X18624Y-10315D01*
X18698Y-10244D01*
X18758Y-10160D01*
X18799Y-10067D01*
X18800Y-10060D01*
X18832Y-10140D01*
X18887Y-10227D01*
X18958Y-10301D01*
X19043Y-10359D01*
X19137Y-10401D01*
X19237Y-10423D01*
X19340Y-10425D01*
X19441Y-10407D01*
X19537Y-10370D01*
X19624Y-10315D01*
X19698Y-10244D01*
X19758Y-10160D01*
X19799Y-10067D01*
X19800Y-10060D01*
X19832Y-10140D01*
X19887Y-10227D01*
X19958Y-10301D01*
X20043Y-10359D01*
X20137Y-10401D01*
X20237Y-10423D01*
X20340Y-10425D01*
X20441Y-10407D01*
X20537Y-10370D01*
X20624Y-10315D01*
X20698Y-10244D01*
X20758Y-10160D01*
X20799Y-10067D01*
X20822Y-09966D01*
X20824Y-09849D01*
X20824Y-11361D01*
X20808Y-11345D01*
X20767Y-11318D01*
X20722Y-11299D01*
X20674Y-11290D01*
X20462Y-11290D01*
X20400Y-11352D01*
X20400Y-11890D01*
X20838Y-11890D01*
X20900Y-11828D01*
X20900Y-12052D01*
X20838Y-11990D01*
X20450Y-11990D01*
X20400Y-11990D01*
X20300Y-11990D01*
X20300Y-11890D01*
X20300Y-11352D01*
X20238Y-11290D01*
X20026Y-11290D01*
X19978Y-11299D01*
X19933Y-11318D01*
X19892Y-11345D01*
X19857Y-11380D01*
X19829Y-11420D01*
X19810Y-11465D01*
X19800Y-11513D01*
X19800Y-11562D01*
X19800Y-11828D01*
X19862Y-11890D01*
X20300Y-11890D01*
X20300Y-11990D01*
X20250Y-11990D01*
X19862Y-11990D01*
X19800Y-12052D01*
X19800Y-12318D01*
X19800Y-12367D01*
X19810Y-12415D01*
X19824Y-12448D01*
X19822Y-12450D01*
X19681Y-12450D01*
X19670Y-12432D01*
X19635Y-12397D01*
X19599Y-12371D01*
X19600Y-12367D01*
X19600Y-12318D01*
X19600Y-11516D01*
X19591Y-11468D01*
X19572Y-11423D01*
X19545Y-11382D01*
X19510Y-11347D01*
X19470Y-11319D01*
X19425Y-11300D01*
X19377Y-11290D01*
X19328Y-11290D01*
X18726Y-11290D01*
X18678Y-11299D01*
X18633Y-11318D01*
X18592Y-11345D01*
X18557Y-11380D01*
X18529Y-11420D01*
X18510Y-11465D01*
X18500Y-11513D01*
X18500Y-11562D01*
X18500Y-12080D01*
X18437Y-12142D01*
X17332Y-11037D01*
X17330Y-11035D01*
X17322Y-11028D01*
X17289Y-11001D01*
X17239Y-10973D01*
X17236Y-10972D01*
X17231Y-10970D01*
X17185Y-10956D01*
X17129Y-10950D01*
X17126Y-10950D01*
X17125Y-10950D01*
X16804Y-10950D01*
X16800Y-10950D01*
X16590Y-10950D01*
X16590Y-10261D01*
X16300Y-09971D01*
X16229Y-10042D01*
X16229Y-09900D01*
X15939Y-09610D01*
X15848Y-09633D01*
X15805Y-09726D01*
X15801Y-09741D01*
X15765Y-09653D01*
X15708Y-09568D01*
X15636Y-09495D01*
X15551Y-09437D01*
X15456Y-09397D01*
X15355Y-09376D01*
X15253Y-09376D01*
X15152Y-09395D01*
X15056Y-09433D01*
X14970Y-09489D01*
X14897Y-09561D01*
X14839Y-09646D01*
X14825Y-09678D01*
X14825Y-09601D01*
X14816Y-09553D01*
X14797Y-09508D01*
X14770Y-09467D01*
X14735Y-09432D01*
X14695Y-09404D01*
X14650Y-09385D01*
X14602Y-09375D01*
X14553Y-09375D01*
X14001Y-09375D01*
X13953Y-09384D01*
X13908Y-09403D01*
X13867Y-09430D01*
X13832Y-09465D01*
X13804Y-09505D01*
X13785Y-09550D01*
X13775Y-09598D01*
X13775Y-09647D01*
X13775Y-10199D01*
X13784Y-10247D01*
X13803Y-10292D01*
X13830Y-10333D01*
X13865Y-10368D01*
X13905Y-10396D01*
X13950Y-10415D01*
X13998Y-10425D01*
X14047Y-10425D01*
X14599Y-10425D01*
X14647Y-10416D01*
X14692Y-10397D01*
X14733Y-10370D01*
X14768Y-10335D01*
X14796Y-10295D01*
X14815Y-10250D01*
X14825Y-10202D01*
X14825Y-10153D01*
X14825Y-10122D01*
X14832Y-10140D01*
X14887Y-10227D01*
X14958Y-10301D01*
X15043Y-10359D01*
X15137Y-10401D01*
X15237Y-10423D01*
X15340Y-10425D01*
X15441Y-10407D01*
X15537Y-10370D01*
X15624Y-10315D01*
X15698Y-10244D01*
X15758Y-10160D01*
X15799Y-10067D01*
X15801Y-10057D01*
X15826Y-10126D01*
X15848Y-10167D01*
X15939Y-10190D01*
X16229Y-09900D01*
X16229Y-10042D01*
X16010Y-10261D01*
X16033Y-10352D01*
X16126Y-10395D01*
X16226Y-10420D01*
X16328Y-10425D01*
X16430Y-10409D01*
X16526Y-10374D01*
X16567Y-10352D01*
X16590Y-10261D01*
X16590Y-10950D01*
X14320Y-10950D01*
X13507Y-10137D01*
X13505Y-10135D01*
X13497Y-10128D01*
X13464Y-10101D01*
X13414Y-10073D01*
X13411Y-10072D01*
X13406Y-10070D01*
X13360Y-10056D01*
X13304Y-10050D01*
X13301Y-10050D01*
X13300Y-10050D01*
X09311Y-10050D01*
X09272Y-10011D01*
X09203Y-09964D01*
X09126Y-09932D01*
X09044Y-09915D01*
X08961Y-09915D01*
X08879Y-09930D01*
X08802Y-09962D01*
X08732Y-10007D01*
X08673Y-10066D01*
X08626Y-10135D01*
X08593Y-10211D01*
X08576Y-10293D01*
X08574Y-10376D01*
X08590Y-10458D01*
X08620Y-10536D01*
X08666Y-10606D01*
X08723Y-10665D01*
X08792Y-10713D01*
X08868Y-10746D01*
X08950Y-10764D01*
X09033Y-10766D01*
X09115Y-10751D01*
X09193Y-10721D01*
X09263Y-10676D01*
X09312Y-10630D01*
X13179Y-10630D01*
X13993Y-11443D01*
X13994Y-11445D01*
X14021Y-11467D01*
X14036Y-11479D01*
X14038Y-11480D01*
X14086Y-11507D01*
X14088Y-11507D01*
X14140Y-11524D01*
X14141Y-11524D01*
X14196Y-11530D01*
X14200Y-11530D01*
X14409Y-11530D01*
X14373Y-11566D01*
X14326Y-11635D01*
X14293Y-11711D01*
X14276Y-11793D01*
X14275Y-11831D01*
X14202Y-11862D01*
X14132Y-11907D01*
X14073Y-11966D01*
X14026Y-12035D01*
X13993Y-12111D01*
X13976Y-12193D01*
X13974Y-12276D01*
X13990Y-12358D01*
X14020Y-12436D01*
X14066Y-12506D01*
X14110Y-12551D01*
X14110Y-15437D01*
X14110Y-15440D01*
X14111Y-15455D01*
X14115Y-15493D01*
X14116Y-15496D01*
X14131Y-15548D01*
X14132Y-15551D01*
X14157Y-15598D01*
X14158Y-15600D01*
X14179Y-15626D01*
X14192Y-15642D01*
X14194Y-15644D01*
X14195Y-15645D01*
X14493Y-15943D01*
X14495Y-15945D01*
X14502Y-15951D01*
X14536Y-15979D01*
X14539Y-15980D01*
X14586Y-16007D01*
X14588Y-16007D01*
X14589Y-16008D01*
X14593Y-16009D01*
X14640Y-16024D01*
X14642Y-16024D01*
X14696Y-16030D01*
X14698Y-16030D01*
X14700Y-16030D01*
X14900Y-16030D01*
X14900Y-16039D01*
X14909Y-16087D01*
X14928Y-16132D01*
X14955Y-16173D01*
X14990Y-16208D01*
X15030Y-16236D01*
X15075Y-16255D01*
X15123Y-16265D01*
X15172Y-16265D01*
X15524Y-16265D01*
X15572Y-16256D01*
X15617Y-16237D01*
X15658Y-16210D01*
X15693Y-16175D01*
X15699Y-16165D01*
X15705Y-16173D01*
X15740Y-16208D01*
X15780Y-16236D01*
X15825Y-16255D01*
X15873Y-16265D01*
X15922Y-16265D01*
X16274Y-16265D01*
X16322Y-16256D01*
X16367Y-16237D01*
X16408Y-16210D01*
X16443Y-16175D01*
X16471Y-16135D01*
X16490Y-16090D01*
X16500Y-16042D01*
X16500Y-15993D01*
X16500Y-15725D01*
X16674Y-15550D01*
X16674Y-15576D01*
X16690Y-15658D01*
X16720Y-15736D01*
X16766Y-15806D01*
X16823Y-15865D01*
X16892Y-15913D01*
X16968Y-15946D01*
X17050Y-15964D01*
X17115Y-15965D01*
X18193Y-17043D01*
X18195Y-17045D01*
X18209Y-17056D01*
X18236Y-17079D01*
X18238Y-17080D01*
X18286Y-17107D01*
X18288Y-17107D01*
X18289Y-17108D01*
X18293Y-17109D01*
X18340Y-17124D01*
X18342Y-17124D01*
X18396Y-17130D01*
X18398Y-17130D01*
X18400Y-17130D01*
X19980Y-17130D01*
X20010Y-17160D01*
X20010Y-17375D01*
X20001Y-17375D01*
X19953Y-17384D01*
X19908Y-17403D01*
X19867Y-17430D01*
X19832Y-17465D01*
X19804Y-17505D01*
X19785Y-17550D01*
X19775Y-17598D01*
X19775Y-17647D01*
X19775Y-17677D01*
X19765Y-17653D01*
X19708Y-17568D01*
X19636Y-17495D01*
X19551Y-17437D01*
X19456Y-17397D01*
X19355Y-17376D01*
X19253Y-17376D01*
X19152Y-17395D01*
X19056Y-17433D01*
X18970Y-17489D01*
X18897Y-17561D01*
X18839Y-17646D01*
X18799Y-17736D01*
X18765Y-17653D01*
X18708Y-17568D01*
X18636Y-17495D01*
X18551Y-17437D01*
X18456Y-17397D01*
X18355Y-17376D01*
X18253Y-17376D01*
X18152Y-17395D01*
X18056Y-17433D01*
X17970Y-17489D01*
X17897Y-17561D01*
X17839Y-17646D01*
X17799Y-17736D01*
X17765Y-17653D01*
X17708Y-17568D01*
X17636Y-17495D01*
X17551Y-17437D01*
X17456Y-17397D01*
X17355Y-17376D01*
X17253Y-17376D01*
X17152Y-17395D01*
X17056Y-17433D01*
X16970Y-17489D01*
X16897Y-17561D01*
X16839Y-17646D01*
X16799Y-17736D01*
X16765Y-17653D01*
X16708Y-17568D01*
X16636Y-17495D01*
X16551Y-17437D01*
X16456Y-17397D01*
X16355Y-17376D01*
X16253Y-17376D01*
X16196Y-17386D01*
X15147Y-16337D01*
X15145Y-16335D01*
X15137Y-16328D01*
X15104Y-16301D01*
X15054Y-16273D01*
X15051Y-16272D01*
X15046Y-16270D01*
X15000Y-16256D01*
X14944Y-16250D01*
X14941Y-16250D01*
X14940Y-16250D01*
X14904Y-16250D01*
X14900Y-16250D01*
X10411Y-16250D01*
X10372Y-16211D01*
X10303Y-16164D01*
X10226Y-16132D01*
X10144Y-16115D01*
X10061Y-16115D01*
X09979Y-16130D01*
X09902Y-16162D01*
X09832Y-16207D01*
X09773Y-16266D01*
X09726Y-16335D01*
X09693Y-16411D01*
X09676Y-16493D01*
X09674Y-16576D01*
X09690Y-16658D01*
X09720Y-16736D01*
X09766Y-16806D01*
X09823Y-16865D01*
X09892Y-16913D01*
X09968Y-16946D01*
X10050Y-16964D01*
X10133Y-16966D01*
X10215Y-16951D01*
X10293Y-16921D01*
X10363Y-16876D01*
X10412Y-16830D01*
X14820Y-16830D01*
X15368Y-17378D01*
X15355Y-17376D01*
X15253Y-17376D01*
X15152Y-17395D01*
X15056Y-17433D01*
X14970Y-17489D01*
X14897Y-17561D01*
X14839Y-17646D01*
X14798Y-17739D01*
X14774Y-17674D01*
X14752Y-17633D01*
X14661Y-17610D01*
X14590Y-17681D01*
X14590Y-17539D01*
X14567Y-17448D01*
X14474Y-17405D01*
X14374Y-17380D01*
X14272Y-17375D01*
X14170Y-17391D01*
X14074Y-17426D01*
X14033Y-17448D01*
X14010Y-17539D01*
X14300Y-17829D01*
X14590Y-17539D01*
X14590Y-17681D01*
X14371Y-17900D01*
X14661Y-18190D01*
X14752Y-18167D01*
X14795Y-18074D01*
X14799Y-18057D01*
X14832Y-18140D01*
X14887Y-18227D01*
X14958Y-18301D01*
X15043Y-18359D01*
X15137Y-18401D01*
X15237Y-18423D01*
X15340Y-18425D01*
X15441Y-18407D01*
X15537Y-18370D01*
X15624Y-18315D01*
X15698Y-18244D01*
X15758Y-18160D01*
X15799Y-18067D01*
X15800Y-18060D01*
X15832Y-18140D01*
X15887Y-18227D01*
X15958Y-18301D01*
X16043Y-18359D01*
X16137Y-18401D01*
X16237Y-18423D01*
X16340Y-18425D01*
X16441Y-18407D01*
X16537Y-18370D01*
X16624Y-18315D01*
X16698Y-18244D01*
X16758Y-18160D01*
X16799Y-18067D01*
X16800Y-18060D01*
X16832Y-18140D01*
X16887Y-18227D01*
X16958Y-18301D01*
X17043Y-18359D01*
X17137Y-18401D01*
X17237Y-18423D01*
X17340Y-18425D01*
X17441Y-18407D01*
X17537Y-18370D01*
X17624Y-18315D01*
X17698Y-18244D01*
X17758Y-18160D01*
X17799Y-18067D01*
X17800Y-18060D01*
X17832Y-18140D01*
X17887Y-18227D01*
X17958Y-18301D01*
X18043Y-18359D01*
X18137Y-18401D01*
X18237Y-18423D01*
X18340Y-18425D01*
X18441Y-18407D01*
X18537Y-18370D01*
X18624Y-18315D01*
X18698Y-18244D01*
X18758Y-18160D01*
X18799Y-18067D01*
X18800Y-18060D01*
X18832Y-18140D01*
X18887Y-18227D01*
X18958Y-18301D01*
X19043Y-18359D01*
X19137Y-18401D01*
X19237Y-18423D01*
X19340Y-18425D01*
X19441Y-18407D01*
X19537Y-18370D01*
X19624Y-18315D01*
X19698Y-18244D01*
X19758Y-18160D01*
X19775Y-18121D01*
X19775Y-18199D01*
X19784Y-18247D01*
X19803Y-18292D01*
X19830Y-18333D01*
X19865Y-18368D01*
X19905Y-18396D01*
X19950Y-18415D01*
X19998Y-18425D01*
X20047Y-18425D01*
X20599Y-18425D01*
X20647Y-18416D01*
X20692Y-18397D01*
X20733Y-18370D01*
X20768Y-18335D01*
X20796Y-18295D01*
X20815Y-18250D01*
X20825Y-18202D01*
X20825Y-18153D01*
X20825Y-17601D01*
X20816Y-17553D01*
X20797Y-17508D01*
X20770Y-17467D01*
X20735Y-17432D01*
X20695Y-17404D01*
X20650Y-17385D01*
X20602Y-17375D01*
X20590Y-17375D01*
X20590Y-17040D01*
X20584Y-16986D01*
X20584Y-16984D01*
X20575Y-16954D01*
X20569Y-16931D01*
X20568Y-16929D01*
X20566Y-16925D01*
X20543Y-16881D01*
X20542Y-16880D01*
X20507Y-16837D01*
X20506Y-16836D01*
X20504Y-16834D01*
X20307Y-16637D01*
X20305Y-16635D01*
X20297Y-16628D01*
X20264Y-16601D01*
X20214Y-16573D01*
X20211Y-16572D01*
X20206Y-16570D01*
X20160Y-16556D01*
X20142Y-16554D01*
X20150Y-16514D01*
X20150Y-16302D01*
X20150Y-16078D01*
X20150Y-15866D01*
X20141Y-15818D01*
X20122Y-15773D01*
X20095Y-15732D01*
X20060Y-15697D01*
X20020Y-15669D01*
X19975Y-15650D01*
X19927Y-15640D01*
X19878Y-15640D01*
X19612Y-15640D01*
X19550Y-15702D01*
X19550Y-16140D01*
X20088Y-16140D01*
X20150Y-16078D01*
X20150Y-16302D01*
X20088Y-16240D01*
X19600Y-16240D01*
X19550Y-16240D01*
X19450Y-16240D01*
X19450Y-16140D01*
X19450Y-15702D01*
X19388Y-15640D01*
X19122Y-15640D01*
X19073Y-15640D01*
X19025Y-15650D01*
X18980Y-15669D01*
X18940Y-15697D01*
X18905Y-15732D01*
X18878Y-15773D01*
X18859Y-15818D01*
X18850Y-15866D01*
X18850Y-16078D01*
X18912Y-16140D01*
X19450Y-16140D01*
X19450Y-16240D01*
X19400Y-16240D01*
X18912Y-16240D01*
X18850Y-16302D01*
X18850Y-16514D01*
X18856Y-16550D01*
X18520Y-16550D01*
X18450Y-16480D01*
X18450Y-15478D01*
X18450Y-15165D01*
X18037Y-15165D01*
X17975Y-15227D01*
X17975Y-15314D01*
X17984Y-15362D01*
X18003Y-15407D01*
X18030Y-15448D01*
X18065Y-15483D01*
X18105Y-15511D01*
X18150Y-15530D01*
X18198Y-15540D01*
X18247Y-15540D01*
X18388Y-15540D01*
X18450Y-15478D01*
X18450Y-16480D01*
X17524Y-15554D01*
X17525Y-15498D01*
X17509Y-15416D01*
X17477Y-15339D01*
X17431Y-15270D01*
X17372Y-15211D01*
X17303Y-15164D01*
X17226Y-15132D01*
X17144Y-15115D01*
X17110Y-15115D01*
X17547Y-14677D01*
X17566Y-14706D01*
X17623Y-14765D01*
X17692Y-14813D01*
X17768Y-14846D01*
X17850Y-14864D01*
X17933Y-14866D01*
X17989Y-14855D01*
X17984Y-14868D01*
X17975Y-14916D01*
X17975Y-15003D01*
X18037Y-15065D01*
X18400Y-15065D01*
X18450Y-15065D01*
X18550Y-15065D01*
X18550Y-15165D01*
X18550Y-15215D01*
X18550Y-15478D01*
X18612Y-15540D01*
X18753Y-15540D01*
X18802Y-15540D01*
X18850Y-15530D01*
X18895Y-15511D01*
X18935Y-15483D01*
X18970Y-15448D01*
X18991Y-15415D01*
X19025Y-15430D01*
X19073Y-15440D01*
X19122Y-15440D01*
X19924Y-15440D01*
X19972Y-15431D01*
X20017Y-15412D01*
X20058Y-15385D01*
X20093Y-15350D01*
X20121Y-15310D01*
X20140Y-15265D01*
X20150Y-15217D01*
X20150Y-15177D01*
X20178Y-15175D01*
X20181Y-15174D01*
X20233Y-15159D01*
X20233Y-15158D01*
X20236Y-15158D01*
X20283Y-15133D01*
X20285Y-15132D01*
X20311Y-15110D01*
X20327Y-15098D01*
X20329Y-15096D01*
X20330Y-15095D01*
X20485Y-14940D01*
X20799Y-14940D01*
X20847Y-14931D01*
X20892Y-14912D01*
X20933Y-14885D01*
X20968Y-14850D01*
X20996Y-14810D01*
X21015Y-14765D01*
X21025Y-14717D01*
X21025Y-14668D01*
X21025Y-14316D01*
X21016Y-14268D01*
X20997Y-14223D01*
X20970Y-14182D01*
X20935Y-14147D01*
X20925Y-14140D01*
X20933Y-14135D01*
X20968Y-14100D01*
X20996Y-14060D01*
X21015Y-14015D01*
X21025Y-13967D01*
X21025Y-13918D01*
X21025Y-13566D01*
X21016Y-13518D01*
X20997Y-13473D01*
X20991Y-13465D01*
X21074Y-13465D01*
X21122Y-13456D01*
X21167Y-13437D01*
X21208Y-13410D01*
X21243Y-13375D01*
X21271Y-13335D01*
X21290Y-13290D01*
X21300Y-13242D01*
X21300Y-18440D01*
X14590Y-18440D01*
X14590Y-18261D01*
X14300Y-17971D01*
X14229Y-18042D01*
X14229Y-17900D01*
X13939Y-17610D01*
X13848Y-17633D01*
X13805Y-17726D01*
X13780Y-17826D01*
X13775Y-17928D01*
X13791Y-18030D01*
X13826Y-18126D01*
X13848Y-18167D01*
X13939Y-18190D01*
X14229Y-17900D01*
X14229Y-18042D01*
X14010Y-18261D01*
X14033Y-18352D01*
X14126Y-18395D01*
X14226Y-18420D01*
X14328Y-18425D01*
X14430Y-18409D01*
X14526Y-18374D01*
X14567Y-18352D01*
X14590Y-18261D01*
X14590Y-18440D01*
X07054Y-18440D01*
X07054Y-12425D01*
X06800Y-12171D01*
X06546Y-12425D01*
X06563Y-12511D01*
X06648Y-12549D01*
X06738Y-12570D01*
X06831Y-12574D01*
X06922Y-12559D01*
X07009Y-12526D01*
X07037Y-12511D01*
X07054Y-12425D01*
X07054Y-18440D01*
X06253Y-18440D01*
X06211Y-18436D01*
X06173Y-18425D01*
X06139Y-18406D01*
X06109Y-18381D01*
X06084Y-18351D01*
X06065Y-18317D01*
X06054Y-18279D01*
X06050Y-18237D01*
X06050Y-12353D01*
X06054Y-12311D01*
X06065Y-12273D01*
X06084Y-12239D01*
X06109Y-12209D01*
X06139Y-12184D01*
X06173Y-12165D01*
X06211Y-12154D01*
X06253Y-12150D01*
X06329Y-12150D01*
X06341Y-12222D01*
X06374Y-12309D01*
X06389Y-12337D01*
X06475Y-12354D01*
X06679Y-12150D01*
X06921Y-12150D01*
X07125Y-12354D01*
X07211Y-12337D01*
X07249Y-12252D01*
X07270Y-12162D01*
X07270Y-12150D01*
X08153Y-12150D01*
X08209Y-12144D01*
X08265Y-12127D01*
X08317Y-12100D01*
X08363Y-12063D01*
X08400Y-12017D01*
X08427Y-11965D01*
X08444Y-11909D01*
X08450Y-11853D01*
X08450Y-09543D01*
X08454Y-09501D01*
X08465Y-09463D01*
X08484Y-09429D01*
X08509Y-09399D01*
X08539Y-09374D01*
X08573Y-09355D01*
X08611Y-09344D01*
X08653Y-09340D01*
X22347Y-09340D01*
X22389Y-09344D01*
X22427Y-09355D01*
X22461Y-09374D01*
X22491Y-09399D01*
X22516Y-09429D01*
X22535Y-09463D01*
X22546Y-09501D01*
X22550Y-09543D01*
X22550Y-18237D01*
M02*
