G04 (created by PCBNEW-RS274X (2011-05-25)-stable) date Sat 11 Aug 2012 11:46:33 PM MDT*
G01*
G70*
G90*
%MOIN*%
G04 Gerber Fmt 3.4, Leading zero omitted, Abs format*
%FSLAX34Y34*%
G04 APERTURE LIST*
%ADD10C,0.006000*%
%ADD11C,0.015000*%
%ADD12C,0.005000*%
%ADD13C,0.012000*%
%ADD14C,0.010700*%
G04 APERTURE END LIST*
G54D10*
G54D11*
X22900Y-18800D02*
X22900Y-18700D01*
X22700Y-18800D02*
X22900Y-18800D01*
X22900Y-09000D02*
X22900Y-09100D01*
X22800Y-09000D02*
X22900Y-09000D01*
X05700Y-09000D02*
X05700Y-09200D01*
X22900Y-09100D02*
X22900Y-18700D01*
X05700Y-09000D02*
X22800Y-09000D01*
X05700Y-18800D02*
X05700Y-09200D01*
X22700Y-18800D02*
X05700Y-18800D01*
G54D12*
X07116Y-12100D02*
X07109Y-12161D01*
X07092Y-12220D01*
X07063Y-12274D01*
X07024Y-12322D01*
X06976Y-12361D01*
X06922Y-12391D01*
X06863Y-12409D01*
X06802Y-12415D01*
X06741Y-12410D01*
X06682Y-12392D01*
X06627Y-12364D01*
X06579Y-12325D01*
X06540Y-12278D01*
X06510Y-12224D01*
X06491Y-12165D01*
X06485Y-12104D01*
X06490Y-12043D01*
X06507Y-11984D01*
X06535Y-11929D01*
X06573Y-11881D01*
X06620Y-11841D01*
X06674Y-11811D01*
X06733Y-11792D01*
X06794Y-11785D01*
X06854Y-11789D01*
X06914Y-11806D01*
X06969Y-11834D01*
X07017Y-11872D01*
X07058Y-11918D01*
X07088Y-11972D01*
X07108Y-12030D01*
X07115Y-12092D01*
X07116Y-12100D01*
X22016Y-11040D02*
X22009Y-11101D01*
X21992Y-11160D01*
X21963Y-11214D01*
X21924Y-11262D01*
X21876Y-11301D01*
X21822Y-11331D01*
X21763Y-11349D01*
X21702Y-11355D01*
X21641Y-11350D01*
X21582Y-11332D01*
X21527Y-11304D01*
X21479Y-11265D01*
X21440Y-11218D01*
X21410Y-11164D01*
X21391Y-11105D01*
X21385Y-11044D01*
X21390Y-10983D01*
X21407Y-10924D01*
X21435Y-10869D01*
X21473Y-10821D01*
X21520Y-10781D01*
X21574Y-10751D01*
X21633Y-10732D01*
X21694Y-10725D01*
X21754Y-10729D01*
X21814Y-10746D01*
X21869Y-10774D01*
X21917Y-10812D01*
X21958Y-10858D01*
X21988Y-10912D01*
X22008Y-10970D01*
X22015Y-11032D01*
X22016Y-11040D01*
X07116Y-11040D02*
X07109Y-11101D01*
X07092Y-11160D01*
X07063Y-11214D01*
X07024Y-11262D01*
X06976Y-11301D01*
X06922Y-11331D01*
X06863Y-11349D01*
X06802Y-11355D01*
X06741Y-11350D01*
X06682Y-11332D01*
X06627Y-11304D01*
X06579Y-11265D01*
X06540Y-11218D01*
X06510Y-11164D01*
X06491Y-11105D01*
X06485Y-11044D01*
X06490Y-10983D01*
X06507Y-10924D01*
X06535Y-10869D01*
X06573Y-10821D01*
X06620Y-10781D01*
X06674Y-10751D01*
X06733Y-10732D01*
X06794Y-10725D01*
X06854Y-10729D01*
X06914Y-10746D01*
X06969Y-10774D01*
X07017Y-10812D01*
X07058Y-10858D01*
X07088Y-10912D01*
X07108Y-10970D01*
X07115Y-11032D01*
X07116Y-11040D01*
X19600Y-12890D02*
X19600Y-13590D01*
X19600Y-13590D02*
X18400Y-13590D01*
X18400Y-13590D02*
X18400Y-12890D01*
X18400Y-12890D02*
X19600Y-12890D01*
X18700Y-11490D02*
X18700Y-12390D01*
X18700Y-12390D02*
X19350Y-12390D01*
X20050Y-11490D02*
X20700Y-11490D01*
X20700Y-11490D02*
X20700Y-12390D01*
X20700Y-12390D02*
X20050Y-12390D01*
X19350Y-11490D02*
X18700Y-11490D01*
X19950Y-14540D02*
X19050Y-14540D01*
X19050Y-14540D02*
X19050Y-15190D01*
X19950Y-15890D02*
X19950Y-16540D01*
X19950Y-16540D02*
X19050Y-16540D01*
X19050Y-16540D02*
X19050Y-15890D01*
X19950Y-15190D02*
X19950Y-14540D01*
X18250Y-14090D02*
X18249Y-14099D01*
X18246Y-14109D01*
X18241Y-14117D01*
X18235Y-14125D01*
X18227Y-14131D01*
X18219Y-14136D01*
X18210Y-14138D01*
X18200Y-14139D01*
X18191Y-14139D01*
X18182Y-14136D01*
X18173Y-14131D01*
X18166Y-14125D01*
X18159Y-14118D01*
X18155Y-14109D01*
X18152Y-14100D01*
X18151Y-14090D01*
X18151Y-14081D01*
X18154Y-14072D01*
X18158Y-14063D01*
X18165Y-14056D01*
X18172Y-14049D01*
X18180Y-14045D01*
X18190Y-14042D01*
X18199Y-14041D01*
X18208Y-14041D01*
X18218Y-14044D01*
X18226Y-14048D01*
X18234Y-14054D01*
X18240Y-14062D01*
X18245Y-14070D01*
X18248Y-14079D01*
X18249Y-14089D01*
X18250Y-14090D01*
X18200Y-14540D02*
X18200Y-14140D01*
X18200Y-14140D02*
X18800Y-14140D01*
X18800Y-14140D02*
X18800Y-14540D01*
X18800Y-14940D02*
X18800Y-15340D01*
X18800Y-15340D02*
X18200Y-15340D01*
X18200Y-15340D02*
X18200Y-14940D01*
X19900Y-13240D02*
X19899Y-13249D01*
X19896Y-13259D01*
X19891Y-13267D01*
X19885Y-13275D01*
X19877Y-13281D01*
X19869Y-13286D01*
X19860Y-13288D01*
X19850Y-13289D01*
X19841Y-13289D01*
X19832Y-13286D01*
X19823Y-13281D01*
X19816Y-13275D01*
X19809Y-13268D01*
X19805Y-13259D01*
X19802Y-13250D01*
X19801Y-13240D01*
X19801Y-13231D01*
X19804Y-13222D01*
X19808Y-13213D01*
X19815Y-13206D01*
X19822Y-13199D01*
X19830Y-13195D01*
X19840Y-13192D01*
X19849Y-13191D01*
X19858Y-13191D01*
X19868Y-13194D01*
X19876Y-13198D01*
X19884Y-13204D01*
X19890Y-13212D01*
X19895Y-13220D01*
X19898Y-13229D01*
X19899Y-13239D01*
X19900Y-13240D01*
X20300Y-13240D02*
X19900Y-13240D01*
X19900Y-13240D02*
X19900Y-12640D01*
X19900Y-12640D02*
X20300Y-12640D01*
X20700Y-12640D02*
X21100Y-12640D01*
X21100Y-12640D02*
X21100Y-13240D01*
X21100Y-13240D02*
X20700Y-13240D01*
X20850Y-14790D02*
X20849Y-14799D01*
X20846Y-14809D01*
X20841Y-14817D01*
X20835Y-14825D01*
X20827Y-14831D01*
X20819Y-14836D01*
X20810Y-14838D01*
X20800Y-14839D01*
X20791Y-14839D01*
X20782Y-14836D01*
X20773Y-14831D01*
X20766Y-14825D01*
X20759Y-14818D01*
X20755Y-14809D01*
X20752Y-14800D01*
X20751Y-14790D01*
X20751Y-14781D01*
X20754Y-14772D01*
X20758Y-14763D01*
X20765Y-14756D01*
X20772Y-14749D01*
X20780Y-14745D01*
X20790Y-14742D01*
X20799Y-14741D01*
X20808Y-14741D01*
X20818Y-14744D01*
X20826Y-14748D01*
X20834Y-14754D01*
X20840Y-14762D01*
X20845Y-14770D01*
X20848Y-14779D01*
X20849Y-14789D01*
X20850Y-14790D01*
X20800Y-14340D02*
X20800Y-14740D01*
X20800Y-14740D02*
X20200Y-14740D01*
X20200Y-14740D02*
X20200Y-14340D01*
X20200Y-13940D02*
X20200Y-13540D01*
X20200Y-13540D02*
X20800Y-13540D01*
X20800Y-13540D02*
X20800Y-13940D01*
X15100Y-16040D02*
X15099Y-16049D01*
X15096Y-16059D01*
X15091Y-16067D01*
X15085Y-16075D01*
X15077Y-16081D01*
X15069Y-16086D01*
X15060Y-16088D01*
X15050Y-16089D01*
X15041Y-16089D01*
X15032Y-16086D01*
X15023Y-16081D01*
X15016Y-16075D01*
X15009Y-16068D01*
X15005Y-16059D01*
X15002Y-16050D01*
X15001Y-16040D01*
X15001Y-16031D01*
X15004Y-16022D01*
X15008Y-16013D01*
X15015Y-16006D01*
X15022Y-15999D01*
X15030Y-15995D01*
X15040Y-15992D01*
X15049Y-15991D01*
X15058Y-15991D01*
X15068Y-15994D01*
X15076Y-15998D01*
X15084Y-16004D01*
X15090Y-16012D01*
X15095Y-16020D01*
X15098Y-16029D01*
X15099Y-16039D01*
X15100Y-16040D01*
X15500Y-16040D02*
X15100Y-16040D01*
X15100Y-16040D02*
X15100Y-15440D01*
X15100Y-15440D02*
X15500Y-15440D01*
X15900Y-15440D02*
X16300Y-15440D01*
X16300Y-15440D02*
X16300Y-16040D01*
X16300Y-16040D02*
X15900Y-16040D01*
G54D13*
X20800Y-18400D02*
X20800Y-18400D01*
X20800Y-18400D02*
X13800Y-18400D01*
X13800Y-18400D02*
X13800Y-17400D01*
X13800Y-17400D02*
X20800Y-17400D01*
X20800Y-17400D02*
X20800Y-18400D01*
X19800Y-17400D02*
X19800Y-17400D01*
X19800Y-17400D02*
X19800Y-18400D01*
X13800Y-09400D02*
X13800Y-09400D01*
X13800Y-09400D02*
X20800Y-09400D01*
X20800Y-09400D02*
X20800Y-10400D01*
X20800Y-10400D02*
X13800Y-10400D01*
X13800Y-10400D02*
X13800Y-09400D01*
X14800Y-10400D02*
X14800Y-10400D01*
X14800Y-10400D02*
X14800Y-09400D01*
G54D12*
X06349Y-11682D02*
X06349Y-11482D01*
X06425Y-11482D01*
X06444Y-11491D01*
X06453Y-11501D01*
X06463Y-11520D01*
X06463Y-11549D01*
X06453Y-11568D01*
X06444Y-11577D01*
X06425Y-11587D01*
X06349Y-11587D01*
X06549Y-11682D02*
X06549Y-11482D01*
X06644Y-11682D02*
X06644Y-11482D01*
X06758Y-11682D01*
X06758Y-11482D01*
X06825Y-11482D02*
X06939Y-11482D01*
X06882Y-11682D02*
X06882Y-11482D01*
X06996Y-11672D02*
X07025Y-11682D01*
X07072Y-11682D01*
X07091Y-11672D01*
X07101Y-11663D01*
X07110Y-11644D01*
X07110Y-11625D01*
X07101Y-11606D01*
X07091Y-11596D01*
X07072Y-11587D01*
X07034Y-11577D01*
X07015Y-11568D01*
X07006Y-11558D01*
X06996Y-11539D01*
X06996Y-11520D01*
X07006Y-11501D01*
X07015Y-11491D01*
X07034Y-11482D01*
X07082Y-11482D01*
X07110Y-11491D01*
X07167Y-11482D02*
X07281Y-11482D01*
X07224Y-11682D02*
X07224Y-11482D01*
X21282Y-11491D02*
X21082Y-11491D01*
X21082Y-11415D01*
X21091Y-11396D01*
X21101Y-11387D01*
X21120Y-11377D01*
X21149Y-11377D01*
X21168Y-11387D01*
X21177Y-11396D01*
X21187Y-11415D01*
X21187Y-11491D01*
X21282Y-11291D02*
X21082Y-11291D01*
X21282Y-11196D02*
X21082Y-11196D01*
X21282Y-11082D01*
X21082Y-11082D01*
X21082Y-11015D02*
X21082Y-10901D01*
X21282Y-10958D02*
X21082Y-10958D01*
X21272Y-10844D02*
X21282Y-10815D01*
X21282Y-10768D01*
X21272Y-10749D01*
X21263Y-10739D01*
X21244Y-10730D01*
X21225Y-10730D01*
X21206Y-10739D01*
X21196Y-10749D01*
X21187Y-10768D01*
X21177Y-10806D01*
X21168Y-10825D01*
X21158Y-10834D01*
X21139Y-10844D01*
X21120Y-10844D01*
X21101Y-10834D01*
X21091Y-10825D01*
X21082Y-10806D01*
X21082Y-10758D01*
X21091Y-10730D01*
X21082Y-10673D02*
X21082Y-10559D01*
X21282Y-10616D02*
X21082Y-10616D01*
X06382Y-11491D02*
X06182Y-11491D01*
X06182Y-11415D01*
X06191Y-11396D01*
X06201Y-11387D01*
X06220Y-11377D01*
X06249Y-11377D01*
X06268Y-11387D01*
X06277Y-11396D01*
X06287Y-11415D01*
X06287Y-11491D01*
X06382Y-11291D02*
X06182Y-11291D01*
X06382Y-11196D02*
X06182Y-11196D01*
X06382Y-11082D01*
X06182Y-11082D01*
X06182Y-11015D02*
X06182Y-10901D01*
X06382Y-10958D02*
X06182Y-10958D01*
X06372Y-10844D02*
X06382Y-10815D01*
X06382Y-10768D01*
X06372Y-10749D01*
X06363Y-10739D01*
X06344Y-10730D01*
X06325Y-10730D01*
X06306Y-10739D01*
X06296Y-10749D01*
X06287Y-10768D01*
X06277Y-10806D01*
X06268Y-10825D01*
X06258Y-10834D01*
X06239Y-10844D01*
X06220Y-10844D01*
X06201Y-10834D01*
X06191Y-10825D01*
X06182Y-10806D01*
X06182Y-10758D01*
X06191Y-10730D01*
X06182Y-10673D02*
X06182Y-10559D01*
X06382Y-10616D02*
X06182Y-10616D01*
X18010Y-13161D02*
X18010Y-13404D01*
X18021Y-13433D01*
X18033Y-13447D01*
X18057Y-13461D01*
X18105Y-13461D01*
X18129Y-13447D01*
X18140Y-13433D01*
X18152Y-13404D01*
X18152Y-13161D01*
X18248Y-13161D02*
X18402Y-13161D01*
X18319Y-13276D01*
X18355Y-13276D01*
X18379Y-13290D01*
X18391Y-13304D01*
X18402Y-13333D01*
X18402Y-13404D01*
X18391Y-13433D01*
X18379Y-13447D01*
X18355Y-13461D01*
X18283Y-13461D01*
X18260Y-13447D01*
X18248Y-13433D01*
X19650Y-12033D02*
X19636Y-12047D01*
X19593Y-12061D01*
X19564Y-12061D01*
X19521Y-12047D01*
X19493Y-12019D01*
X19478Y-11990D01*
X19464Y-11933D01*
X19464Y-11890D01*
X19478Y-11833D01*
X19493Y-11804D01*
X19521Y-11776D01*
X19564Y-11761D01*
X19593Y-11761D01*
X19636Y-11776D01*
X19650Y-11790D01*
X19750Y-11761D02*
X19936Y-11761D01*
X19836Y-11876D01*
X19878Y-11876D01*
X19907Y-11890D01*
X19921Y-11904D01*
X19936Y-11933D01*
X19936Y-12004D01*
X19921Y-12033D01*
X19907Y-12047D01*
X19878Y-12061D01*
X19793Y-12061D01*
X19764Y-12047D01*
X19750Y-12033D01*
X19593Y-15590D02*
X19607Y-15604D01*
X19621Y-15647D01*
X19621Y-15676D01*
X19607Y-15719D01*
X19579Y-15747D01*
X19550Y-15762D01*
X19493Y-15776D01*
X19450Y-15776D01*
X19393Y-15762D01*
X19364Y-15747D01*
X19336Y-15719D01*
X19321Y-15676D01*
X19321Y-15647D01*
X19336Y-15604D01*
X19350Y-15590D01*
X19350Y-15476D02*
X19336Y-15462D01*
X19321Y-15433D01*
X19321Y-15362D01*
X19336Y-15333D01*
X19350Y-15319D01*
X19379Y-15304D01*
X19407Y-15304D01*
X19450Y-15319D01*
X19621Y-15490D01*
X19621Y-15304D01*
X18577Y-14782D02*
X18589Y-14794D01*
X18601Y-14829D01*
X18601Y-14853D01*
X18589Y-14889D01*
X18565Y-14913D01*
X18542Y-14924D01*
X18494Y-14936D01*
X18458Y-14936D01*
X18411Y-14924D01*
X18387Y-14913D01*
X18363Y-14889D01*
X18351Y-14853D01*
X18351Y-14829D01*
X18363Y-14794D01*
X18375Y-14782D01*
X18601Y-14544D02*
X18601Y-14686D01*
X18601Y-14615D02*
X18351Y-14615D01*
X18387Y-14639D01*
X18411Y-14663D01*
X18423Y-14686D01*
X20458Y-13017D02*
X20446Y-13029D01*
X20411Y-13041D01*
X20387Y-13041D01*
X20351Y-13029D01*
X20327Y-13005D01*
X20316Y-12982D01*
X20304Y-12934D01*
X20304Y-12898D01*
X20316Y-12851D01*
X20327Y-12827D01*
X20351Y-12803D01*
X20387Y-12791D01*
X20411Y-12791D01*
X20446Y-12803D01*
X20458Y-12815D01*
X20673Y-12875D02*
X20673Y-13041D01*
X20613Y-12779D02*
X20554Y-12958D01*
X20708Y-12958D01*
X20601Y-14182D02*
X20482Y-14265D01*
X20601Y-14324D02*
X20351Y-14324D01*
X20351Y-14229D01*
X20363Y-14205D01*
X20375Y-14194D01*
X20399Y-14182D01*
X20435Y-14182D01*
X20458Y-14194D01*
X20470Y-14205D01*
X20482Y-14229D01*
X20482Y-14324D01*
X20375Y-14086D02*
X20363Y-14074D01*
X20351Y-14051D01*
X20351Y-13991D01*
X20363Y-13967D01*
X20375Y-13955D01*
X20399Y-13944D01*
X20423Y-13944D01*
X20458Y-13955D01*
X20601Y-14098D01*
X20601Y-13944D01*
X15658Y-16341D02*
X15575Y-16222D01*
X15516Y-16341D02*
X15516Y-16091D01*
X15611Y-16091D01*
X15635Y-16103D01*
X15646Y-16115D01*
X15658Y-16139D01*
X15658Y-16175D01*
X15646Y-16198D01*
X15635Y-16210D01*
X15611Y-16222D01*
X15516Y-16222D01*
X15896Y-16341D02*
X15754Y-16341D01*
X15825Y-16341D02*
X15825Y-16091D01*
X15801Y-16127D01*
X15777Y-16151D01*
X15754Y-16163D01*
G54D14*
X16984Y-19175D02*
X16984Y-18494D01*
X17147Y-18494D01*
X17188Y-18527D01*
X17208Y-18559D01*
X17228Y-18624D01*
X17228Y-18721D01*
X17208Y-18786D01*
X17188Y-18818D01*
X17147Y-18851D01*
X16984Y-18851D01*
X17636Y-19175D02*
X17392Y-19175D01*
X17514Y-19175D02*
X17514Y-18494D01*
X17473Y-18591D01*
X17432Y-18656D01*
X17392Y-18689D01*
X16984Y-09175D02*
X16984Y-08494D01*
X17147Y-08494D01*
X17188Y-08527D01*
X17208Y-08559D01*
X17228Y-08624D01*
X17228Y-08721D01*
X17208Y-08786D01*
X17188Y-08818D01*
X17147Y-08851D01*
X16984Y-08851D01*
X17392Y-08559D02*
X17412Y-08527D01*
X17453Y-08494D01*
X17555Y-08494D01*
X17595Y-08527D01*
X17616Y-08559D01*
X17636Y-08624D01*
X17636Y-08689D01*
X17616Y-08786D01*
X17371Y-09175D01*
X17636Y-09175D01*
M02*
