G04 (created by PCBNEW-RS274X (2011-05-25)-stable) date Sun 10 Jun 2012 11:37:39 PM MDT*
G01*
G70*
G90*
%MOIN*%
G04 Gerber Fmt 3.4, Leading zero omitted, Abs format*
%FSLAX34Y34*%
G04 APERTURE LIST*
%ADD10C,0.006000*%
%ADD11C,0.012000*%
%ADD12C,0.059100*%
%ADD13R,0.060000X0.060000*%
%ADD14C,0.060000*%
%ADD15C,0.066000*%
%ADD16R,0.075000X0.075000*%
%ADD17C,0.075000*%
%ADD18O,0.090000X0.062000*%
%ADD19R,0.090000X0.062000*%
%ADD20O,0.062000X0.090000*%
%ADD21R,0.062000X0.090000*%
%ADD22C,0.070000*%
%ADD23R,0.070000X0.070000*%
%ADD24R,0.055000X0.055000*%
%ADD25C,0.055000*%
%ADD26R,0.078700X0.055100*%
%ADD27O,0.156000X0.078000*%
%ADD28R,0.065000X0.065000*%
%ADD29C,0.065000*%
%ADD30R,0.030000X0.020000*%
%ADD31R,0.120000X0.120000*%
%ADD32C,0.120000*%
%ADD33O,0.078000X0.156000*%
%ADD34O,0.098400X0.070900*%
%ADD35C,0.300000*%
%ADD36C,0.035000*%
%ADD37C,0.015800*%
%ADD38C,0.010000*%
G04 APERTURE END LIST*
G54D10*
G54D11*
X85007Y-48324D02*
X85007Y-47524D01*
X85350Y-48324D01*
X85350Y-47524D01*
X85636Y-47905D02*
X85836Y-47905D01*
X85922Y-48324D02*
X85636Y-48324D01*
X85636Y-47524D01*
X85922Y-47524D01*
X86493Y-47562D02*
X86436Y-47524D01*
X86350Y-47524D01*
X86265Y-47562D01*
X86207Y-47638D01*
X86179Y-47714D01*
X86150Y-47867D01*
X86150Y-47981D01*
X86179Y-48133D01*
X86207Y-48210D01*
X86265Y-48286D01*
X86350Y-48324D01*
X86407Y-48324D01*
X86493Y-48286D01*
X86522Y-48248D01*
X86522Y-47981D01*
X86407Y-47981D01*
X84269Y-53806D02*
X84269Y-53349D01*
X84574Y-53578D02*
X83964Y-53578D01*
X84574Y-52749D02*
X84574Y-53092D01*
X84574Y-52920D02*
X83774Y-52920D01*
X83888Y-52977D01*
X83964Y-53035D01*
X84002Y-53092D01*
X83850Y-52521D02*
X83812Y-52492D01*
X83774Y-52435D01*
X83774Y-52292D01*
X83812Y-52235D01*
X83850Y-52206D01*
X83926Y-52178D01*
X84002Y-52178D01*
X84117Y-52206D01*
X84574Y-52549D01*
X84574Y-52178D01*
X83774Y-52007D02*
X84574Y-51807D01*
X83774Y-51607D01*
X33172Y-13774D02*
X33286Y-13774D01*
X33344Y-13812D01*
X33401Y-13888D01*
X33429Y-14040D01*
X33429Y-14307D01*
X33401Y-14460D01*
X33344Y-14536D01*
X33286Y-14574D01*
X33172Y-14574D01*
X33115Y-14536D01*
X33058Y-14460D01*
X33029Y-14307D01*
X33029Y-14040D01*
X33058Y-13888D01*
X33115Y-13812D01*
X33172Y-13774D01*
X33687Y-14040D02*
X33687Y-14840D01*
X33687Y-14079D02*
X33744Y-14040D01*
X33858Y-14040D01*
X33915Y-14079D01*
X33944Y-14117D01*
X33973Y-14193D01*
X33973Y-14421D01*
X33944Y-14498D01*
X33915Y-14536D01*
X33858Y-14574D01*
X33744Y-14574D01*
X33687Y-14536D01*
X34458Y-14536D02*
X34401Y-14574D01*
X34287Y-14574D01*
X34230Y-14536D01*
X34201Y-14460D01*
X34201Y-14155D01*
X34230Y-14079D01*
X34287Y-14040D01*
X34401Y-14040D01*
X34458Y-14079D01*
X34487Y-14155D01*
X34487Y-14231D01*
X34201Y-14307D01*
X34744Y-14040D02*
X34744Y-14574D01*
X34744Y-14117D02*
X34772Y-14079D01*
X34830Y-14040D01*
X34915Y-14040D01*
X34972Y-14079D01*
X35001Y-14155D01*
X35001Y-14574D01*
X35573Y-14574D02*
X35287Y-14574D01*
X35287Y-13774D01*
X36030Y-14574D02*
X36030Y-14155D01*
X36001Y-14079D01*
X35944Y-14040D01*
X35830Y-14040D01*
X35773Y-14079D01*
X36030Y-14536D02*
X35973Y-14574D01*
X35830Y-14574D01*
X35773Y-14536D01*
X35744Y-14460D01*
X35744Y-14383D01*
X35773Y-14307D01*
X35830Y-14269D01*
X35973Y-14269D01*
X36030Y-14231D01*
X36573Y-14040D02*
X36573Y-14574D01*
X36316Y-14040D02*
X36316Y-14460D01*
X36344Y-14536D01*
X36402Y-14574D01*
X36487Y-14574D01*
X36544Y-14536D01*
X36573Y-14498D01*
X36859Y-14040D02*
X36859Y-14574D01*
X36859Y-14117D02*
X36887Y-14079D01*
X36945Y-14040D01*
X37030Y-14040D01*
X37087Y-14079D01*
X37116Y-14155D01*
X37116Y-14574D01*
X37659Y-14536D02*
X37602Y-14574D01*
X37488Y-14574D01*
X37430Y-14536D01*
X37402Y-14498D01*
X37373Y-14421D01*
X37373Y-14193D01*
X37402Y-14117D01*
X37430Y-14079D01*
X37488Y-14040D01*
X37602Y-14040D01*
X37659Y-14079D01*
X37916Y-14574D02*
X37916Y-13774D01*
X38173Y-14574D02*
X38173Y-14155D01*
X38144Y-14079D01*
X38087Y-14040D01*
X38002Y-14040D01*
X37944Y-14079D01*
X37916Y-14117D01*
X38687Y-14536D02*
X38630Y-14574D01*
X38516Y-14574D01*
X38459Y-14536D01*
X38430Y-14460D01*
X38430Y-14155D01*
X38459Y-14079D01*
X38516Y-14040D01*
X38630Y-14040D01*
X38687Y-14079D01*
X38716Y-14155D01*
X38716Y-14231D01*
X38430Y-14307D01*
X38973Y-14574D02*
X38973Y-14040D01*
X38973Y-14193D02*
X39001Y-14117D01*
X39030Y-14079D01*
X39087Y-14040D01*
X39144Y-14040D01*
X39915Y-13774D02*
X39972Y-13774D01*
X40029Y-13812D01*
X40058Y-13850D01*
X40087Y-13926D01*
X40115Y-14079D01*
X40115Y-14269D01*
X40087Y-14421D01*
X40058Y-14498D01*
X40029Y-14536D01*
X39972Y-14574D01*
X39915Y-14574D01*
X39858Y-14536D01*
X39829Y-14498D01*
X39801Y-14421D01*
X39772Y-14269D01*
X39772Y-14079D01*
X39801Y-13926D01*
X39829Y-13850D01*
X39858Y-13812D01*
X39915Y-13774D01*
X40372Y-14498D02*
X40400Y-14536D01*
X40372Y-14574D01*
X40343Y-14536D01*
X40372Y-14498D01*
X40372Y-14574D01*
X40972Y-14574D02*
X40629Y-14574D01*
X40801Y-14574D02*
X40801Y-13774D01*
X40744Y-13888D01*
X40686Y-13964D01*
X40629Y-14002D01*
X32673Y-15395D02*
X32759Y-15433D01*
X32787Y-15471D01*
X32816Y-15547D01*
X32816Y-15661D01*
X32787Y-15738D01*
X32759Y-15776D01*
X32701Y-15814D01*
X32473Y-15814D01*
X32473Y-15014D01*
X32673Y-15014D01*
X32730Y-15052D01*
X32759Y-15090D01*
X32787Y-15166D01*
X32787Y-15242D01*
X32759Y-15319D01*
X32730Y-15357D01*
X32673Y-15395D01*
X32473Y-15395D01*
X33073Y-15814D02*
X33073Y-15014D01*
X33673Y-15052D02*
X33616Y-15014D01*
X33530Y-15014D01*
X33445Y-15052D01*
X33387Y-15128D01*
X33359Y-15204D01*
X33330Y-15357D01*
X33330Y-15471D01*
X33359Y-15623D01*
X33387Y-15700D01*
X33445Y-15776D01*
X33530Y-15814D01*
X33587Y-15814D01*
X33673Y-15776D01*
X33702Y-15738D01*
X33702Y-15471D01*
X33587Y-15471D01*
X34759Y-15738D02*
X34730Y-15776D01*
X34644Y-15814D01*
X34587Y-15814D01*
X34502Y-15776D01*
X34444Y-15700D01*
X34416Y-15623D01*
X34387Y-15471D01*
X34387Y-15357D01*
X34416Y-15204D01*
X34444Y-15128D01*
X34502Y-15052D01*
X34587Y-15014D01*
X34644Y-15014D01*
X34730Y-15052D01*
X34759Y-15090D01*
X35102Y-15814D02*
X35044Y-15776D01*
X35016Y-15738D01*
X34987Y-15661D01*
X34987Y-15433D01*
X35016Y-15357D01*
X35044Y-15319D01*
X35102Y-15280D01*
X35187Y-15280D01*
X35244Y-15319D01*
X35273Y-15357D01*
X35302Y-15433D01*
X35302Y-15661D01*
X35273Y-15738D01*
X35244Y-15776D01*
X35187Y-15814D01*
X35102Y-15814D01*
X35559Y-15814D02*
X35559Y-15280D01*
X35559Y-15433D02*
X35587Y-15357D01*
X35616Y-15319D01*
X35673Y-15280D01*
X35730Y-15280D01*
X36158Y-15776D02*
X36101Y-15814D01*
X35987Y-15814D01*
X35930Y-15776D01*
X35901Y-15700D01*
X35901Y-15395D01*
X35930Y-15319D01*
X35987Y-15280D01*
X36101Y-15280D01*
X36158Y-15319D01*
X36187Y-15395D01*
X36187Y-15471D01*
X35901Y-15547D01*
X36901Y-15814D02*
X36901Y-15014D01*
X36901Y-15319D02*
X36958Y-15280D01*
X37072Y-15280D01*
X37129Y-15319D01*
X37158Y-15357D01*
X37187Y-15433D01*
X37187Y-15661D01*
X37158Y-15738D01*
X37129Y-15776D01*
X37072Y-15814D01*
X36958Y-15814D01*
X36901Y-15776D01*
X37530Y-15814D02*
X37472Y-15776D01*
X37444Y-15738D01*
X37415Y-15661D01*
X37415Y-15433D01*
X37444Y-15357D01*
X37472Y-15319D01*
X37530Y-15280D01*
X37615Y-15280D01*
X37672Y-15319D01*
X37701Y-15357D01*
X37730Y-15433D01*
X37730Y-15661D01*
X37701Y-15738D01*
X37672Y-15776D01*
X37615Y-15814D01*
X37530Y-15814D01*
X38244Y-15814D02*
X38244Y-15395D01*
X38215Y-15319D01*
X38158Y-15280D01*
X38044Y-15280D01*
X37987Y-15319D01*
X38244Y-15776D02*
X38187Y-15814D01*
X38044Y-15814D01*
X37987Y-15776D01*
X37958Y-15700D01*
X37958Y-15623D01*
X37987Y-15547D01*
X38044Y-15509D01*
X38187Y-15509D01*
X38244Y-15471D01*
X38530Y-15814D02*
X38530Y-15280D01*
X38530Y-15433D02*
X38558Y-15357D01*
X38587Y-15319D01*
X38644Y-15280D01*
X38701Y-15280D01*
X39158Y-15814D02*
X39158Y-15014D01*
X39158Y-15776D02*
X39101Y-15814D01*
X38987Y-15814D01*
X38929Y-15776D01*
X38901Y-15738D01*
X38872Y-15661D01*
X38872Y-15433D01*
X38901Y-15357D01*
X38929Y-15319D01*
X38987Y-15280D01*
X39101Y-15280D01*
X39158Y-15319D01*
X39901Y-15814D02*
X39901Y-15280D01*
X39901Y-15433D02*
X39929Y-15357D01*
X39958Y-15319D01*
X40015Y-15280D01*
X40072Y-15280D01*
X40500Y-15776D02*
X40443Y-15814D01*
X40329Y-15814D01*
X40272Y-15776D01*
X40243Y-15700D01*
X40243Y-15395D01*
X40272Y-15319D01*
X40329Y-15280D01*
X40443Y-15280D01*
X40500Y-15319D01*
X40529Y-15395D01*
X40529Y-15471D01*
X40243Y-15547D01*
X40729Y-15280D02*
X40872Y-15814D01*
X41014Y-15280D01*
X41357Y-15014D02*
X41414Y-15014D01*
X41471Y-15052D01*
X41500Y-15090D01*
X41529Y-15166D01*
X41557Y-15319D01*
X41557Y-15509D01*
X41529Y-15661D01*
X41500Y-15738D01*
X41471Y-15776D01*
X41414Y-15814D01*
X41357Y-15814D01*
X41300Y-15776D01*
X41271Y-15738D01*
X41243Y-15661D01*
X41214Y-15509D01*
X41214Y-15319D01*
X41243Y-15166D01*
X41271Y-15090D01*
X41300Y-15052D01*
X41357Y-15014D01*
X30344Y-16978D02*
X30315Y-17016D01*
X30229Y-17054D01*
X30172Y-17054D01*
X30087Y-17016D01*
X30029Y-16940D01*
X30001Y-16863D01*
X29972Y-16711D01*
X29972Y-16597D01*
X30001Y-16444D01*
X30029Y-16368D01*
X30087Y-16292D01*
X30172Y-16254D01*
X30229Y-16254D01*
X30315Y-16292D01*
X30344Y-16330D01*
X30601Y-17054D02*
X30601Y-16520D01*
X30601Y-16673D02*
X30629Y-16597D01*
X30658Y-16559D01*
X30715Y-16520D01*
X30772Y-16520D01*
X31200Y-17016D02*
X31143Y-17054D01*
X31029Y-17054D01*
X30972Y-17016D01*
X30943Y-16940D01*
X30943Y-16635D01*
X30972Y-16559D01*
X31029Y-16520D01*
X31143Y-16520D01*
X31200Y-16559D01*
X31229Y-16635D01*
X31229Y-16711D01*
X30943Y-16787D01*
X31743Y-17054D02*
X31743Y-16635D01*
X31714Y-16559D01*
X31657Y-16520D01*
X31543Y-16520D01*
X31486Y-16559D01*
X31743Y-17016D02*
X31686Y-17054D01*
X31543Y-17054D01*
X31486Y-17016D01*
X31457Y-16940D01*
X31457Y-16863D01*
X31486Y-16787D01*
X31543Y-16749D01*
X31686Y-16749D01*
X31743Y-16711D01*
X31943Y-16520D02*
X32172Y-16520D01*
X32029Y-16254D02*
X32029Y-16940D01*
X32057Y-17016D01*
X32115Y-17054D01*
X32172Y-17054D01*
X32372Y-17054D02*
X32372Y-16520D01*
X32372Y-16254D02*
X32343Y-16292D01*
X32372Y-16330D01*
X32400Y-16292D01*
X32372Y-16254D01*
X32372Y-16330D01*
X32601Y-16520D02*
X32744Y-17054D01*
X32886Y-16520D01*
X33343Y-17016D02*
X33286Y-17054D01*
X33172Y-17054D01*
X33115Y-17016D01*
X33086Y-16940D01*
X33086Y-16635D01*
X33115Y-16559D01*
X33172Y-16520D01*
X33286Y-16520D01*
X33343Y-16559D01*
X33372Y-16635D01*
X33372Y-16711D01*
X33086Y-16787D01*
X34429Y-16978D02*
X34400Y-17016D01*
X34314Y-17054D01*
X34257Y-17054D01*
X34172Y-17016D01*
X34114Y-16940D01*
X34086Y-16863D01*
X34057Y-16711D01*
X34057Y-16597D01*
X34086Y-16444D01*
X34114Y-16368D01*
X34172Y-16292D01*
X34257Y-16254D01*
X34314Y-16254D01*
X34400Y-16292D01*
X34429Y-16330D01*
X34772Y-17054D02*
X34714Y-17016D01*
X34686Y-16978D01*
X34657Y-16901D01*
X34657Y-16673D01*
X34686Y-16597D01*
X34714Y-16559D01*
X34772Y-16520D01*
X34857Y-16520D01*
X34914Y-16559D01*
X34943Y-16597D01*
X34972Y-16673D01*
X34972Y-16901D01*
X34943Y-16978D01*
X34914Y-17016D01*
X34857Y-17054D01*
X34772Y-17054D01*
X35229Y-17054D02*
X35229Y-16520D01*
X35229Y-16597D02*
X35257Y-16559D01*
X35315Y-16520D01*
X35400Y-16520D01*
X35457Y-16559D01*
X35486Y-16635D01*
X35486Y-17054D01*
X35486Y-16635D02*
X35515Y-16559D01*
X35572Y-16520D01*
X35657Y-16520D01*
X35715Y-16559D01*
X35743Y-16635D01*
X35743Y-17054D01*
X36029Y-17054D02*
X36029Y-16520D01*
X36029Y-16597D02*
X36057Y-16559D01*
X36115Y-16520D01*
X36200Y-16520D01*
X36257Y-16559D01*
X36286Y-16635D01*
X36286Y-17054D01*
X36286Y-16635D02*
X36315Y-16559D01*
X36372Y-16520D01*
X36457Y-16520D01*
X36515Y-16559D01*
X36543Y-16635D01*
X36543Y-17054D01*
X36915Y-17054D02*
X36857Y-17016D01*
X36829Y-16978D01*
X36800Y-16901D01*
X36800Y-16673D01*
X36829Y-16597D01*
X36857Y-16559D01*
X36915Y-16520D01*
X37000Y-16520D01*
X37057Y-16559D01*
X37086Y-16597D01*
X37115Y-16673D01*
X37115Y-16901D01*
X37086Y-16978D01*
X37057Y-17016D01*
X37000Y-17054D01*
X36915Y-17054D01*
X37372Y-16520D02*
X37372Y-17054D01*
X37372Y-16597D02*
X37400Y-16559D01*
X37458Y-16520D01*
X37543Y-16520D01*
X37600Y-16559D01*
X37629Y-16635D01*
X37629Y-17054D01*
X37886Y-17016D02*
X37943Y-17054D01*
X38058Y-17054D01*
X38115Y-17016D01*
X38143Y-16940D01*
X38143Y-16901D01*
X38115Y-16825D01*
X38058Y-16787D01*
X37972Y-16787D01*
X37915Y-16749D01*
X37886Y-16673D01*
X37886Y-16635D01*
X37915Y-16559D01*
X37972Y-16520D01*
X38058Y-16520D01*
X38115Y-16559D01*
X38829Y-17016D02*
X38915Y-17054D01*
X39058Y-17054D01*
X39115Y-17016D01*
X39144Y-16978D01*
X39172Y-16901D01*
X39172Y-16825D01*
X39144Y-16749D01*
X39115Y-16711D01*
X39058Y-16673D01*
X38944Y-16635D01*
X38886Y-16597D01*
X38858Y-16559D01*
X38829Y-16482D01*
X38829Y-16406D01*
X38858Y-16330D01*
X38886Y-16292D01*
X38944Y-16254D01*
X39086Y-16254D01*
X39172Y-16292D01*
X39429Y-17054D02*
X39429Y-16254D01*
X39686Y-17054D02*
X39686Y-16635D01*
X39657Y-16559D01*
X39600Y-16520D01*
X39515Y-16520D01*
X39457Y-16559D01*
X39429Y-16597D01*
X40229Y-17054D02*
X40229Y-16635D01*
X40200Y-16559D01*
X40143Y-16520D01*
X40029Y-16520D01*
X39972Y-16559D01*
X40229Y-17016D02*
X40172Y-17054D01*
X40029Y-17054D01*
X39972Y-17016D01*
X39943Y-16940D01*
X39943Y-16863D01*
X39972Y-16787D01*
X40029Y-16749D01*
X40172Y-16749D01*
X40229Y-16711D01*
X40515Y-17054D02*
X40515Y-16520D01*
X40515Y-16673D02*
X40543Y-16597D01*
X40572Y-16559D01*
X40629Y-16520D01*
X40686Y-16520D01*
X41114Y-17016D02*
X41057Y-17054D01*
X40943Y-17054D01*
X40886Y-17016D01*
X40857Y-16940D01*
X40857Y-16635D01*
X40886Y-16559D01*
X40943Y-16520D01*
X41057Y-16520D01*
X41114Y-16559D01*
X41143Y-16635D01*
X41143Y-16711D01*
X40857Y-16787D01*
X41400Y-16749D02*
X41857Y-16749D01*
X42400Y-17054D02*
X42400Y-16635D01*
X42371Y-16559D01*
X42314Y-16520D01*
X42200Y-16520D01*
X42143Y-16559D01*
X42400Y-17016D02*
X42343Y-17054D01*
X42200Y-17054D01*
X42143Y-17016D01*
X42114Y-16940D01*
X42114Y-16863D01*
X42143Y-16787D01*
X42200Y-16749D01*
X42343Y-16749D01*
X42400Y-16711D01*
X42772Y-17054D02*
X42714Y-17016D01*
X42686Y-16940D01*
X42686Y-16254D01*
X43000Y-17054D02*
X43000Y-16520D01*
X43000Y-16254D02*
X42971Y-16292D01*
X43000Y-16330D01*
X43028Y-16292D01*
X43000Y-16254D01*
X43000Y-16330D01*
X43286Y-17054D02*
X43286Y-16254D01*
X43343Y-16749D02*
X43514Y-17054D01*
X43514Y-16520D02*
X43286Y-16825D01*
X44000Y-17016D02*
X43943Y-17054D01*
X43829Y-17054D01*
X43772Y-17016D01*
X43743Y-16940D01*
X43743Y-16635D01*
X43772Y-16559D01*
X43829Y-16520D01*
X43943Y-16520D01*
X44000Y-16559D01*
X44029Y-16635D01*
X44029Y-16711D01*
X43743Y-16787D01*
G54D12*
X86750Y-54250D03*
X76750Y-54250D03*
G54D13*
X65000Y-23000D03*
G54D14*
X66000Y-23000D03*
X67000Y-23000D03*
G54D13*
X65000Y-24500D03*
G54D14*
X66000Y-24500D03*
X67000Y-24500D03*
G54D13*
X65000Y-21500D03*
G54D14*
X66000Y-21500D03*
X67000Y-21500D03*
G54D13*
X34000Y-59750D03*
G54D14*
X35000Y-59750D03*
X36000Y-59750D03*
X37000Y-59750D03*
X38000Y-59750D03*
X39000Y-59750D03*
G54D13*
X46500Y-59750D03*
G54D14*
X47500Y-59750D03*
X48500Y-59750D03*
X49500Y-59750D03*
X50500Y-59750D03*
X51500Y-59750D03*
G54D15*
X85250Y-19250D03*
X86250Y-19250D03*
X86250Y-23500D03*
X85250Y-23500D03*
G54D16*
X71750Y-41750D03*
G54D17*
X71750Y-39750D03*
G54D16*
X80750Y-43750D03*
G54D17*
X80750Y-41750D03*
G54D18*
X49250Y-32750D03*
X49250Y-33750D03*
X49250Y-34750D03*
X49250Y-35750D03*
X49250Y-36750D03*
X49250Y-37750D03*
X49250Y-38750D03*
X49250Y-39750D03*
X49250Y-40750D03*
X49250Y-41750D03*
X49250Y-42750D03*
X49250Y-43750D03*
X49250Y-44750D03*
G54D19*
X49250Y-31750D03*
G54D18*
X52250Y-44750D03*
X52250Y-43750D03*
X52250Y-42750D03*
X52250Y-41750D03*
X52250Y-40750D03*
X52250Y-39750D03*
X52250Y-38750D03*
X52250Y-37750D03*
X52250Y-36750D03*
X52250Y-35750D03*
X52250Y-34750D03*
X52250Y-33750D03*
X52250Y-32750D03*
X52250Y-31750D03*
G54D20*
X34250Y-48250D03*
X35250Y-48250D03*
X36250Y-48250D03*
X37250Y-48250D03*
X38250Y-48250D03*
X39250Y-48250D03*
X40250Y-48250D03*
X41250Y-48250D03*
X42250Y-48250D03*
X43250Y-48250D03*
X44250Y-48250D03*
X45250Y-48250D03*
X46250Y-48250D03*
G54D21*
X33250Y-48250D03*
G54D20*
X46250Y-45250D03*
X45250Y-45250D03*
X44250Y-45250D03*
X43250Y-45250D03*
X42250Y-45250D03*
X41250Y-45250D03*
X40250Y-45250D03*
X39250Y-45250D03*
X38250Y-45250D03*
X37250Y-45250D03*
X36250Y-45250D03*
X35250Y-45250D03*
X34250Y-45250D03*
X33250Y-45250D03*
G54D21*
X49750Y-50750D03*
G54D20*
X50750Y-50750D03*
X51750Y-50750D03*
X52750Y-50750D03*
X53750Y-50750D03*
X54750Y-50750D03*
X55750Y-50750D03*
X56750Y-50750D03*
X57750Y-50750D03*
X57750Y-47750D03*
X56750Y-47750D03*
X55750Y-47750D03*
X54750Y-47750D03*
X53750Y-47750D03*
X52750Y-47750D03*
X51750Y-47750D03*
X50750Y-47750D03*
X49750Y-47750D03*
G54D22*
X82750Y-46250D03*
G54D23*
X86750Y-46250D03*
G54D24*
X85750Y-52750D03*
G54D25*
X82750Y-52750D03*
X69000Y-26750D03*
X67000Y-26750D03*
X74750Y-51250D03*
X72750Y-51250D03*
X55250Y-18000D03*
X55250Y-16000D03*
X77000Y-26750D03*
X77000Y-27750D03*
X69750Y-43750D03*
X71750Y-43750D03*
X77000Y-25750D03*
X77000Y-24750D03*
G54D13*
X59000Y-59750D03*
G54D14*
X60000Y-59750D03*
X61000Y-59750D03*
X62000Y-59750D03*
X63000Y-59750D03*
X64000Y-59750D03*
G54D23*
X66750Y-39750D03*
G54D22*
X66750Y-41750D03*
G54D25*
X83000Y-34750D03*
X83000Y-32750D03*
G54D22*
X66750Y-50750D03*
G54D23*
X66750Y-45750D03*
G54D22*
X75750Y-55250D03*
G54D23*
X71750Y-55250D03*
G54D24*
X77250Y-49750D03*
G54D25*
X77250Y-52750D03*
G54D24*
X78250Y-44750D03*
G54D25*
X75250Y-44750D03*
G54D13*
X72500Y-59750D03*
G54D14*
X73500Y-59750D03*
X74500Y-59750D03*
X75500Y-59750D03*
X76500Y-59750D03*
X77500Y-59750D03*
G54D26*
X62880Y-20093D03*
X62891Y-19305D03*
X62891Y-18518D03*
X62891Y-17750D03*
X62891Y-16982D03*
X62891Y-16195D03*
X62891Y-15407D03*
X56631Y-15407D03*
X56631Y-16195D03*
X56631Y-16982D03*
X56631Y-17750D03*
X56631Y-18518D03*
X56631Y-19305D03*
X56631Y-20093D03*
G54D18*
X73500Y-33750D03*
X73500Y-32750D03*
X73500Y-31750D03*
X73500Y-30750D03*
X73500Y-29750D03*
X73500Y-28750D03*
X73500Y-27750D03*
X73500Y-26750D03*
X73500Y-25750D03*
X73500Y-24750D03*
X73500Y-23750D03*
X73500Y-22750D03*
X73500Y-21750D03*
G54D19*
X73500Y-34750D03*
G54D18*
X70500Y-21750D03*
X70500Y-22750D03*
X70500Y-23750D03*
X70500Y-24750D03*
X70500Y-25750D03*
X70500Y-26750D03*
X70500Y-27750D03*
X70500Y-28750D03*
X70500Y-29750D03*
X70500Y-30750D03*
X70500Y-31750D03*
X70500Y-32750D03*
X70500Y-33750D03*
X70500Y-34750D03*
G54D13*
X68750Y-16500D03*
G54D14*
X68750Y-15500D03*
X69750Y-16500D03*
X69750Y-15500D03*
X70750Y-16500D03*
X70750Y-15500D03*
G54D25*
X87000Y-34750D03*
X87000Y-36750D03*
X84000Y-34750D03*
X84000Y-36750D03*
G54D27*
X85750Y-51240D03*
X85750Y-49270D03*
G54D28*
X68750Y-52250D03*
G54D29*
X69750Y-52250D03*
G54D23*
X62250Y-46750D03*
G54D22*
X64250Y-46750D03*
G54D25*
X64250Y-43750D03*
X62250Y-43750D03*
G54D23*
X76250Y-41750D03*
G54D22*
X76250Y-39750D03*
G54D28*
X71250Y-47750D03*
G54D29*
X71250Y-48750D03*
G54D25*
X74250Y-49250D03*
X74250Y-47250D03*
X67000Y-27750D03*
X69000Y-27750D03*
G54D29*
X67250Y-54250D03*
X64250Y-54250D03*
X64250Y-53250D03*
X67250Y-53250D03*
X86250Y-41750D03*
X86250Y-44750D03*
X84250Y-44750D03*
X84250Y-41750D03*
X45250Y-43750D03*
X45250Y-40750D03*
X70500Y-13750D03*
X73500Y-13750D03*
G54D24*
X64750Y-51250D03*
G54D25*
X63750Y-51250D03*
X63750Y-50250D03*
G54D30*
X73250Y-52375D03*
X73250Y-53125D03*
X74250Y-52375D03*
X73250Y-52750D03*
X74250Y-53125D03*
G54D22*
X75250Y-25250D03*
X75250Y-27250D03*
G54D21*
X43750Y-29250D03*
G54D20*
X44750Y-29250D03*
X45750Y-29250D03*
X46750Y-29250D03*
X47750Y-29250D03*
X48750Y-29250D03*
X49750Y-29250D03*
X50750Y-29250D03*
X51750Y-29250D03*
X51750Y-26250D03*
X50750Y-26250D03*
X49750Y-26250D03*
X48750Y-26250D03*
X47750Y-26250D03*
X46750Y-26250D03*
X45750Y-26250D03*
X44750Y-26250D03*
X43750Y-26250D03*
G54D21*
X33750Y-29250D03*
G54D20*
X34750Y-29250D03*
X35750Y-29250D03*
X36750Y-29250D03*
X37750Y-29250D03*
X38750Y-29250D03*
X39750Y-29250D03*
X40750Y-29250D03*
X41750Y-29250D03*
X41750Y-26250D03*
X40750Y-26250D03*
X39750Y-26250D03*
X38750Y-26250D03*
X37750Y-26250D03*
X36750Y-26250D03*
X35750Y-26250D03*
X34750Y-26250D03*
X33750Y-26250D03*
G54D21*
X33250Y-43750D03*
G54D20*
X34250Y-43750D03*
X35250Y-43750D03*
X36250Y-43750D03*
X37250Y-43750D03*
X38250Y-43750D03*
X39250Y-43750D03*
X40250Y-43750D03*
X41250Y-43750D03*
X41250Y-40750D03*
X40250Y-40750D03*
X39250Y-40750D03*
X38250Y-40750D03*
X37250Y-40750D03*
X36250Y-40750D03*
X35250Y-40750D03*
X34250Y-40750D03*
X33250Y-40750D03*
G54D21*
X41250Y-50750D03*
G54D20*
X40250Y-50750D03*
X39250Y-50750D03*
X38250Y-50750D03*
X37250Y-50750D03*
X36250Y-50750D03*
X35250Y-50750D03*
X34250Y-50750D03*
X33250Y-50750D03*
X33250Y-53750D03*
X34250Y-53750D03*
X35250Y-53750D03*
X36250Y-53750D03*
X37250Y-53750D03*
X38250Y-53750D03*
X39250Y-53750D03*
X40250Y-53750D03*
X41250Y-53750D03*
G54D29*
X83750Y-21000D03*
X80750Y-21000D03*
X83750Y-19250D03*
X80750Y-19250D03*
G54D31*
X56250Y-14750D03*
G54D32*
X42250Y-14750D03*
G54D29*
X53750Y-43750D03*
X56750Y-43750D03*
G54D33*
X41270Y-59750D03*
X43240Y-59750D03*
X79760Y-59750D03*
X81730Y-59750D03*
X53760Y-59750D03*
X55730Y-59750D03*
X66260Y-59750D03*
X68230Y-59750D03*
G54D21*
X41750Y-21750D03*
G54D20*
X40750Y-21750D03*
X39750Y-21750D03*
X38750Y-21750D03*
X37750Y-21750D03*
X36750Y-21750D03*
X35750Y-21750D03*
X34750Y-21750D03*
X34750Y-24750D03*
X35750Y-24750D03*
X36750Y-24750D03*
X37750Y-24750D03*
X38750Y-24750D03*
X39750Y-24750D03*
X40750Y-24750D03*
X41750Y-24750D03*
G54D21*
X42750Y-24750D03*
G54D20*
X43750Y-24750D03*
X44750Y-24750D03*
X45750Y-24750D03*
X46750Y-24750D03*
X47750Y-24750D03*
X48750Y-24750D03*
X49750Y-24750D03*
X49750Y-21750D03*
X48750Y-21750D03*
X47750Y-21750D03*
X46750Y-21750D03*
X45750Y-21750D03*
X44750Y-21750D03*
X43750Y-21750D03*
X42750Y-21750D03*
G54D13*
X86250Y-33250D03*
G54D14*
X86250Y-32250D03*
X86250Y-31250D03*
X86250Y-30250D03*
X86250Y-29250D03*
X86250Y-28250D03*
G54D34*
X78754Y-47750D03*
X78754Y-46372D03*
X78754Y-49128D03*
X79935Y-48459D03*
X79935Y-47041D03*
G54D35*
X30750Y-14750D03*
X85750Y-14750D03*
X30750Y-59750D03*
X85750Y-59750D03*
G54D24*
X49750Y-52250D03*
G54D25*
X50750Y-52250D03*
X51750Y-52250D03*
X52750Y-52250D03*
X53750Y-52250D03*
X54750Y-52250D03*
X55750Y-52250D03*
X56750Y-52250D03*
X57750Y-52250D03*
G54D29*
X81250Y-29000D03*
X81250Y-26000D03*
X81250Y-30750D03*
X81250Y-33750D03*
X53750Y-41750D03*
X56750Y-41750D03*
X43250Y-43750D03*
X43250Y-40750D03*
G54D13*
X51750Y-53750D03*
G54D14*
X50750Y-53750D03*
X49750Y-53750D03*
G54D13*
X54250Y-26750D03*
G54D14*
X54250Y-27750D03*
X54250Y-28750D03*
G54D13*
X31250Y-26750D03*
G54D14*
X31250Y-27750D03*
X31250Y-28750D03*
G54D13*
X30750Y-41250D03*
G54D14*
X30750Y-42250D03*
X30750Y-43250D03*
G54D13*
X30750Y-51250D03*
G54D14*
X30750Y-52250D03*
X30750Y-53250D03*
G54D15*
X82500Y-30250D03*
X82500Y-29250D03*
X82500Y-26000D03*
X82500Y-25000D03*
G54D21*
X33250Y-39250D03*
G54D20*
X34250Y-39250D03*
X35250Y-39250D03*
X36250Y-39250D03*
X37250Y-39250D03*
X38250Y-39250D03*
X39250Y-39250D03*
X40250Y-39250D03*
X40250Y-36250D03*
X39250Y-36250D03*
X38250Y-36250D03*
X37250Y-36250D03*
X36250Y-36250D03*
X35250Y-36250D03*
X34250Y-36250D03*
X33250Y-36250D03*
G54D13*
X41750Y-18750D03*
G54D14*
X40750Y-18750D03*
X39750Y-18750D03*
X38750Y-18750D03*
X37750Y-18750D03*
G54D13*
X51750Y-18750D03*
G54D14*
X50750Y-18750D03*
X49750Y-18750D03*
X48750Y-18750D03*
X47750Y-18750D03*
G54D13*
X56750Y-53750D03*
G54D14*
X55750Y-53750D03*
X54750Y-53750D03*
X53750Y-53750D03*
X52750Y-53750D03*
G54D13*
X40250Y-33250D03*
G54D14*
X39250Y-33250D03*
X38250Y-33250D03*
X37250Y-33250D03*
X36250Y-33250D03*
G54D24*
X79500Y-30500D03*
G54D25*
X79500Y-29500D03*
X78500Y-29500D03*
G54D24*
X80500Y-25000D03*
G54D25*
X80500Y-24000D03*
X79500Y-24000D03*
G54D13*
X75500Y-15500D03*
G54D14*
X75500Y-16500D03*
G54D13*
X73250Y-15500D03*
G54D14*
X73250Y-16500D03*
G54D13*
X36750Y-18750D03*
G54D14*
X35750Y-18750D03*
X34750Y-18750D03*
X33750Y-18750D03*
X32750Y-18750D03*
G54D13*
X46750Y-18750D03*
G54D14*
X45750Y-18750D03*
X44750Y-18750D03*
X43750Y-18750D03*
X42750Y-18750D03*
G54D13*
X35250Y-33250D03*
G54D14*
X34250Y-33250D03*
X33250Y-33250D03*
X32250Y-33250D03*
X31250Y-33250D03*
G54D29*
X77250Y-14000D03*
X80250Y-14000D03*
G54D13*
X66750Y-31750D03*
G54D14*
X67750Y-31750D03*
X68750Y-31750D03*
G54D13*
X78750Y-17500D03*
G54D14*
X78750Y-16500D03*
X78750Y-15500D03*
G54D36*
X58250Y-39000D03*
X55000Y-44000D03*
X57000Y-36250D03*
X53750Y-40500D03*
X62250Y-38000D03*
X62250Y-41000D03*
X57000Y-44750D03*
X59000Y-43750D03*
X58250Y-44250D03*
X58250Y-40750D03*
X59250Y-38750D03*
X53250Y-40250D03*
X59250Y-34750D03*
X71450Y-30150D03*
X82000Y-50500D03*
X78750Y-35500D03*
X74750Y-28750D03*
X59250Y-23750D03*
X57250Y-39250D03*
X59250Y-25500D03*
X53750Y-42750D03*
X50000Y-46250D03*
X71250Y-29250D03*
X58750Y-36250D03*
X52250Y-41750D03*
X47750Y-42250D03*
X72750Y-33000D03*
X72250Y-31750D03*
X70250Y-39250D03*
X69000Y-40500D03*
X68750Y-50250D03*
X67000Y-52000D03*
X63000Y-14000D03*
X72500Y-52750D03*
X68750Y-21750D03*
X76000Y-32250D03*
X75000Y-33250D03*
X66250Y-19250D03*
X69500Y-19250D03*
X72250Y-19250D03*
X68000Y-21500D03*
X56750Y-20750D03*
X77500Y-22750D03*
X79000Y-22750D03*
X81250Y-16000D03*
X80000Y-14750D03*
X45000Y-33000D03*
X41750Y-27750D03*
X41750Y-32750D03*
X43500Y-33000D03*
X50250Y-33750D03*
X66750Y-36750D03*
X66750Y-35250D03*
X67750Y-28500D03*
X31750Y-51250D03*
X31750Y-41000D03*
X77500Y-29000D03*
X72750Y-48750D03*
X34250Y-56500D03*
X36000Y-56750D03*
X37500Y-56000D03*
X38750Y-57250D03*
X40000Y-58500D03*
X47750Y-58000D03*
X44750Y-55000D03*
X48000Y-54750D03*
X53250Y-55000D03*
X47000Y-54750D03*
X52000Y-58250D03*
X44000Y-50000D03*
X58500Y-49000D03*
X61000Y-54500D03*
X71000Y-57250D03*
X72000Y-58250D03*
X44250Y-50750D03*
X58250Y-49750D03*
X59500Y-52250D03*
X76500Y-58000D03*
G54D37*
X71000Y-19250D02*
X70500Y-19250D01*
X31250Y-26750D02*
X31750Y-27250D01*
X53750Y-27250D02*
X54250Y-26750D01*
X31750Y-27250D02*
X53750Y-27250D01*
X67250Y-54250D02*
X76750Y-54250D01*
X58250Y-33000D02*
X58500Y-32750D01*
X50000Y-45500D02*
X53500Y-45500D01*
X53500Y-45500D02*
X55000Y-44000D01*
X49250Y-44750D02*
X50000Y-45500D01*
X65500Y-23500D02*
X65000Y-23000D01*
X58500Y-32750D02*
X65500Y-25500D01*
X65500Y-25500D02*
X65500Y-23500D01*
X58250Y-39000D02*
X58250Y-33000D01*
X49250Y-44750D02*
X49250Y-45250D01*
X49250Y-45250D02*
X46250Y-48250D01*
X65000Y-23000D02*
X65500Y-22500D01*
X65500Y-22500D02*
X65500Y-20750D01*
X65500Y-20750D02*
X65000Y-20250D01*
X65000Y-20250D02*
X63037Y-20250D01*
X63037Y-20250D02*
X62880Y-20093D01*
X50750Y-41250D02*
X53000Y-41250D01*
X53000Y-41250D02*
X53750Y-40500D01*
X49250Y-42750D02*
X50750Y-41250D01*
X57000Y-26250D02*
X58750Y-24500D01*
X57000Y-36250D02*
X57000Y-26250D01*
X44250Y-48250D02*
X45500Y-49500D01*
X54000Y-48500D02*
X54750Y-47750D01*
X48750Y-48500D02*
X54000Y-48500D01*
X48500Y-48750D02*
X48750Y-48500D01*
X47750Y-49500D02*
X48500Y-48750D01*
X47500Y-49500D02*
X47750Y-49500D01*
X45500Y-49500D02*
X47500Y-49500D01*
X49250Y-42750D02*
X48000Y-44000D01*
X45250Y-47250D02*
X44250Y-48250D01*
X45500Y-47250D02*
X45250Y-47250D01*
X48000Y-44750D02*
X45500Y-47250D01*
X48000Y-44000D02*
X48000Y-44750D01*
X56631Y-19305D02*
X56576Y-19250D01*
X56576Y-19250D02*
X56000Y-19250D01*
X56000Y-19250D02*
X55750Y-19500D01*
X55750Y-19500D02*
X55750Y-20500D01*
X55750Y-20500D02*
X55750Y-21500D01*
X55750Y-21500D02*
X58750Y-24500D01*
X58750Y-24500D02*
X65000Y-24500D01*
X62250Y-43750D02*
X62250Y-41000D01*
X71000Y-27750D02*
X70500Y-27750D01*
X71850Y-28500D02*
X71000Y-27750D01*
X71850Y-35250D02*
X71850Y-28500D01*
X70750Y-36250D02*
X71850Y-35250D01*
X64000Y-36250D02*
X70750Y-36250D01*
X62250Y-38000D02*
X64000Y-36250D01*
X52750Y-47750D02*
X54000Y-46500D01*
X59000Y-43750D02*
X62250Y-43750D01*
X57000Y-45250D02*
X57000Y-44750D01*
X55750Y-46500D02*
X57000Y-45250D01*
X54000Y-46500D02*
X55750Y-46500D01*
X62250Y-43750D02*
X62250Y-46750D01*
X62250Y-46750D02*
X62000Y-47000D01*
X62000Y-47000D02*
X62000Y-48500D01*
X63750Y-50250D02*
X62000Y-48500D01*
X69000Y-27750D02*
X70500Y-27750D01*
X60500Y-36250D02*
X61000Y-35750D01*
X58250Y-44250D02*
X58250Y-40750D01*
X59250Y-38750D02*
X59250Y-37500D01*
X59250Y-37500D02*
X60500Y-36250D01*
X70250Y-32750D02*
X70500Y-32750D01*
X67250Y-35750D02*
X70250Y-32750D01*
X61000Y-35750D02*
X67250Y-35750D01*
X49250Y-41750D02*
X49000Y-41750D01*
X43250Y-47500D02*
X43250Y-48250D01*
X43750Y-47000D02*
X43250Y-47500D01*
X43750Y-44000D02*
X43750Y-47000D01*
X44750Y-43000D02*
X43750Y-44000D01*
X47750Y-43000D02*
X44750Y-43000D01*
X49000Y-41750D02*
X47750Y-43000D01*
X50750Y-40250D02*
X53250Y-40250D01*
X50750Y-40250D02*
X49250Y-41750D01*
X60500Y-34750D02*
X63800Y-31450D01*
X59250Y-34750D02*
X60500Y-34750D01*
X65000Y-30250D02*
X63800Y-31450D01*
X71250Y-30250D02*
X65000Y-30250D01*
X71450Y-30150D02*
X71250Y-30250D01*
X73500Y-23750D02*
X73000Y-23750D01*
X82000Y-50500D02*
X85250Y-47500D01*
X85250Y-47500D02*
X87750Y-47500D01*
X87750Y-47500D02*
X87750Y-41250D01*
X87750Y-39750D02*
X87750Y-41250D01*
X87250Y-39250D02*
X87750Y-39750D01*
X82500Y-39250D02*
X87250Y-39250D01*
X78750Y-35500D02*
X82500Y-39250D01*
X74250Y-28250D02*
X74750Y-28750D01*
X73000Y-28250D02*
X74250Y-28250D01*
X72500Y-27750D02*
X73000Y-28250D01*
X72500Y-24250D02*
X72500Y-27750D01*
X73000Y-23750D02*
X72500Y-24250D01*
X59250Y-21500D02*
X59250Y-23750D01*
X57250Y-39250D02*
X57750Y-38750D01*
X57750Y-38750D02*
X57750Y-27250D01*
X57750Y-27250D02*
X59250Y-25500D01*
X49250Y-43750D02*
X49750Y-43250D01*
X53250Y-43250D02*
X53750Y-42750D01*
X49750Y-43250D02*
X53250Y-43250D01*
X45250Y-48250D02*
X46000Y-49000D01*
X49750Y-46500D02*
X50000Y-46250D01*
X47250Y-49000D02*
X49750Y-46500D01*
X47000Y-49000D02*
X47250Y-49000D01*
X46000Y-49000D02*
X47000Y-49000D01*
X49250Y-43750D02*
X48500Y-44500D01*
X46250Y-47250D02*
X45250Y-48250D01*
X46500Y-47250D02*
X46250Y-47250D01*
X48500Y-45250D02*
X46500Y-47250D01*
X48500Y-44500D02*
X48500Y-45250D01*
X65000Y-21500D02*
X59500Y-21500D01*
X59500Y-21500D02*
X59250Y-21500D01*
X59250Y-21500D02*
X58750Y-21500D01*
X58750Y-21500D02*
X58000Y-20750D01*
X58000Y-20750D02*
X58000Y-19250D01*
X58000Y-19250D02*
X57250Y-18500D01*
X57250Y-18500D02*
X56649Y-18500D01*
X56649Y-18500D02*
X56631Y-18518D01*
X63500Y-29250D02*
X71250Y-29250D01*
X58750Y-34000D02*
X63500Y-29250D01*
X58750Y-36250D02*
X58750Y-34000D01*
X53750Y-41750D02*
X52250Y-41750D01*
X47750Y-42250D02*
X44750Y-42250D01*
X44750Y-42250D02*
X43250Y-43750D01*
X43250Y-45250D02*
X43250Y-43750D01*
X73500Y-38500D02*
X73500Y-37000D01*
X72750Y-36250D02*
X72750Y-33000D01*
X73500Y-37000D02*
X72750Y-36250D01*
X73250Y-52375D02*
X73125Y-52250D01*
X73125Y-52250D02*
X73125Y-52125D01*
X73125Y-52125D02*
X73125Y-51875D01*
X73125Y-51875D02*
X73500Y-51500D01*
X73500Y-38500D02*
X73500Y-39750D01*
X73500Y-51500D02*
X73500Y-38500D01*
X64250Y-53250D02*
X65750Y-53250D01*
X72250Y-37250D02*
X72250Y-31750D01*
X70250Y-39250D02*
X72250Y-37250D01*
X69000Y-50000D02*
X69000Y-40500D01*
X68750Y-50250D02*
X69000Y-50000D01*
X65750Y-53250D02*
X67000Y-52000D01*
X64250Y-53250D02*
X64250Y-54250D01*
X55250Y-18000D02*
X55250Y-17500D01*
X55768Y-16982D02*
X56631Y-16982D01*
X55250Y-17500D02*
X55768Y-16982D01*
X62891Y-15407D02*
X63000Y-15298D01*
X63000Y-15298D02*
X63000Y-14000D01*
X73250Y-52750D02*
X72500Y-52750D01*
X68750Y-17500D02*
X69750Y-16500D01*
X68750Y-21750D02*
X68750Y-17500D01*
X77000Y-24750D02*
X76500Y-25250D01*
X76500Y-25250D02*
X75250Y-25250D01*
X75250Y-25250D02*
X74750Y-25750D01*
X74750Y-25750D02*
X73500Y-25750D01*
X73500Y-33750D02*
X74500Y-33750D01*
X79500Y-25000D02*
X80500Y-24000D01*
X79500Y-27750D02*
X79500Y-25000D01*
X77750Y-29500D02*
X79500Y-27750D01*
X77750Y-30500D02*
X77750Y-29500D01*
X76000Y-32250D02*
X77750Y-30500D01*
X74500Y-33750D02*
X75000Y-33250D01*
X86250Y-29250D02*
X83750Y-26750D01*
X83000Y-24000D02*
X80500Y-24000D01*
X83750Y-24750D02*
X83000Y-24000D01*
X83750Y-26750D02*
X83750Y-24750D01*
X69500Y-19250D02*
X69750Y-19250D01*
X62946Y-19250D02*
X66250Y-19250D01*
X72500Y-31250D02*
X73000Y-31750D01*
X73500Y-31750D02*
X73000Y-31750D01*
X62946Y-19250D02*
X62891Y-19305D01*
X72250Y-31000D02*
X72500Y-31250D01*
X72250Y-28500D02*
X72250Y-31000D01*
X71500Y-27750D02*
X72250Y-28500D01*
X71500Y-21000D02*
X71500Y-27750D01*
X69750Y-19250D02*
X71500Y-21000D01*
X78750Y-16500D02*
X74500Y-20750D01*
X74000Y-22750D02*
X73500Y-22750D01*
X74500Y-22250D02*
X74000Y-22750D01*
X74500Y-20750D02*
X74500Y-22250D01*
X78750Y-16500D02*
X77250Y-15000D01*
X77250Y-15000D02*
X77250Y-14000D01*
X67000Y-21500D02*
X67000Y-15500D01*
X68750Y-14500D02*
X69750Y-15500D01*
X68000Y-14500D02*
X68750Y-14500D01*
X67000Y-15500D02*
X68000Y-14500D01*
X66000Y-24500D02*
X66750Y-25250D01*
X69500Y-25750D02*
X70500Y-25750D01*
X69000Y-25250D02*
X69500Y-25750D01*
X66750Y-25250D02*
X69000Y-25250D01*
X73250Y-16500D02*
X73250Y-18250D01*
X73250Y-18250D02*
X72250Y-19250D01*
X66000Y-21500D02*
X66750Y-22250D01*
X69750Y-23750D02*
X70500Y-23750D01*
X68250Y-22250D02*
X69750Y-23750D01*
X66750Y-22250D02*
X68250Y-22250D01*
X81250Y-30750D02*
X82000Y-30750D01*
X82000Y-30750D02*
X82500Y-30250D01*
X73500Y-21750D02*
X73500Y-18500D01*
X73500Y-18500D02*
X75500Y-16500D01*
X82500Y-26000D02*
X81250Y-26000D01*
X79500Y-29500D02*
X81000Y-28000D01*
X84750Y-30250D02*
X86250Y-30250D01*
X82500Y-28000D02*
X84750Y-30250D01*
X81000Y-28000D02*
X82500Y-28000D01*
X79500Y-29500D02*
X76250Y-32750D01*
X76250Y-32750D02*
X73500Y-32750D01*
X86250Y-28250D02*
X87250Y-29250D01*
X85000Y-30750D02*
X83000Y-32750D01*
X87000Y-30750D02*
X85000Y-30750D01*
X87250Y-30500D02*
X87000Y-30750D01*
X87250Y-29250D02*
X87250Y-30500D01*
X75250Y-27250D02*
X75750Y-27750D01*
X75750Y-27750D02*
X77000Y-27750D01*
X73500Y-26750D02*
X74750Y-26750D01*
X75750Y-27750D02*
X77000Y-27750D01*
X74750Y-26750D02*
X75750Y-27750D01*
X70500Y-31750D02*
X68750Y-31750D01*
X66000Y-23000D02*
X66750Y-23750D01*
X69500Y-24750D02*
X70500Y-24750D01*
X68500Y-23750D02*
X69500Y-24750D01*
X66750Y-23750D02*
X68500Y-23750D01*
X56631Y-15407D02*
X56631Y-15131D01*
X56631Y-15131D02*
X56250Y-14750D01*
X68750Y-16500D02*
X68000Y-17250D01*
X68000Y-17250D02*
X68000Y-21500D01*
X56631Y-20619D02*
X56631Y-20093D01*
X56750Y-20750D02*
X56631Y-20619D01*
X86250Y-23500D02*
X86250Y-23750D01*
X74500Y-24750D02*
X73500Y-24750D01*
X77500Y-22750D02*
X74500Y-24750D01*
X83250Y-22750D02*
X79000Y-22750D01*
X85000Y-24500D02*
X83250Y-22750D01*
X85500Y-24500D02*
X85000Y-24500D01*
X86250Y-23750D02*
X85500Y-24500D01*
X86250Y-19250D02*
X86250Y-23500D01*
X83750Y-19250D02*
X85250Y-19250D01*
X83750Y-21000D02*
X85250Y-22500D01*
X85250Y-22500D02*
X85250Y-23500D01*
X83000Y-34750D02*
X84000Y-34750D01*
X83000Y-34750D02*
X87000Y-34750D01*
X73500Y-13750D02*
X74000Y-13250D01*
X87750Y-34000D02*
X87750Y-28750D01*
X87750Y-28750D02*
X87750Y-18750D01*
X87750Y-18750D02*
X86000Y-17000D01*
X86000Y-17000D02*
X82250Y-17000D01*
X82250Y-17000D02*
X81250Y-16000D01*
X80000Y-14750D02*
X78750Y-13500D01*
X87750Y-34000D02*
X87000Y-34750D01*
X78500Y-13250D02*
X78750Y-13500D01*
X74000Y-13250D02*
X78500Y-13250D01*
X70750Y-16500D02*
X73500Y-13750D01*
X87000Y-34750D02*
X81750Y-34750D01*
X73500Y-34750D02*
X77000Y-34750D01*
X77000Y-34750D02*
X79000Y-34750D01*
X79000Y-34750D02*
X81750Y-34750D01*
X81750Y-34750D02*
X82000Y-34750D01*
X80500Y-25000D02*
X82500Y-25000D01*
X52250Y-31750D02*
X50750Y-30250D01*
X50750Y-30250D02*
X50750Y-29250D01*
X35750Y-26250D02*
X35750Y-26000D01*
X36750Y-25000D02*
X36750Y-24750D01*
X35750Y-26000D02*
X36750Y-25000D01*
X34750Y-26250D02*
X34750Y-26000D01*
X35750Y-25000D02*
X35750Y-24750D01*
X34750Y-26000D02*
X35750Y-25000D01*
X34750Y-24750D02*
X33750Y-25750D01*
X33750Y-25750D02*
X33750Y-26250D01*
X36750Y-26250D02*
X36750Y-26000D01*
X37750Y-25000D02*
X37750Y-24750D01*
X36750Y-26000D02*
X37750Y-25000D01*
X49750Y-24750D02*
X49750Y-25000D01*
X50750Y-26000D02*
X50750Y-26250D01*
X49750Y-25000D02*
X50750Y-26000D01*
X48750Y-24750D02*
X48750Y-25000D01*
X49750Y-26000D02*
X49750Y-26250D01*
X48750Y-25000D02*
X49750Y-26000D01*
X47750Y-24750D02*
X47750Y-25000D01*
X48750Y-26000D02*
X48750Y-26250D01*
X47750Y-25000D02*
X48750Y-26000D01*
X46750Y-24750D02*
X46750Y-25000D01*
X47750Y-26000D02*
X47750Y-26250D01*
X46750Y-25000D02*
X47750Y-26000D01*
X45750Y-24750D02*
X45750Y-25000D01*
X46750Y-26000D02*
X46750Y-26250D01*
X45750Y-25000D02*
X46750Y-26000D01*
X44750Y-24750D02*
X44750Y-25000D01*
X45750Y-26000D02*
X45750Y-26250D01*
X44750Y-25000D02*
X45750Y-26000D01*
X43750Y-24750D02*
X43750Y-25000D01*
X44750Y-26000D02*
X44750Y-26250D01*
X43750Y-25000D02*
X44750Y-26000D01*
X42750Y-24750D02*
X42750Y-25250D01*
X42750Y-25250D02*
X43750Y-26250D01*
X49250Y-36750D02*
X46500Y-36750D01*
X35750Y-29750D02*
X35750Y-29250D01*
X38000Y-32000D02*
X35750Y-29750D01*
X41750Y-32000D02*
X38000Y-32000D01*
X46500Y-36750D02*
X41750Y-32000D01*
X49250Y-33750D02*
X45750Y-33750D01*
X45750Y-33750D02*
X45000Y-33000D01*
X49250Y-32750D02*
X45500Y-32750D01*
X39750Y-29250D02*
X39750Y-29250D01*
X39750Y-29750D02*
X39750Y-29250D01*
X41250Y-30500D02*
X39750Y-29750D01*
X42000Y-31250D02*
X41250Y-30500D01*
X43250Y-31250D02*
X42000Y-31250D01*
X44250Y-32250D02*
X43250Y-31250D01*
X43750Y-31750D02*
X44250Y-32250D01*
X44500Y-32250D02*
X44250Y-32250D01*
X44250Y-32250D02*
X44250Y-32250D01*
X45000Y-32250D02*
X44250Y-32250D01*
X45500Y-32750D02*
X45000Y-32250D01*
X31750Y-28250D02*
X31250Y-27750D01*
X41250Y-28250D02*
X31750Y-28250D01*
X41750Y-27750D02*
X41250Y-28250D01*
X40750Y-26250D02*
X40750Y-26000D01*
X41750Y-25000D02*
X41750Y-24750D01*
X40750Y-26000D02*
X41750Y-25000D01*
X39750Y-26250D02*
X39750Y-26000D01*
X40750Y-25000D02*
X40750Y-24750D01*
X39750Y-26000D02*
X40750Y-25000D01*
X38750Y-26250D02*
X38750Y-26000D01*
X39750Y-25000D02*
X39750Y-24750D01*
X38750Y-26000D02*
X39750Y-25000D01*
X37750Y-26250D02*
X37750Y-26000D01*
X38750Y-25000D02*
X38750Y-24750D01*
X37750Y-26000D02*
X38750Y-25000D01*
X30750Y-52250D02*
X32250Y-52250D01*
X33250Y-53000D02*
X33250Y-53750D01*
X32500Y-52250D02*
X33250Y-53000D01*
X32250Y-52250D02*
X32500Y-52250D01*
X41250Y-40750D02*
X39750Y-42250D01*
X39750Y-42250D02*
X30750Y-42250D01*
X34250Y-43750D02*
X34250Y-45250D01*
X39250Y-40750D02*
X39250Y-39250D01*
X37250Y-40750D02*
X37250Y-39250D01*
X35250Y-40750D02*
X35250Y-39250D01*
X33250Y-40750D02*
X33250Y-39250D01*
X34250Y-39250D02*
X34250Y-40750D01*
X36250Y-39250D02*
X36250Y-40750D01*
X38250Y-39250D02*
X38250Y-40750D01*
X40250Y-39250D02*
X40250Y-40750D01*
X39250Y-43750D02*
X39250Y-45250D01*
X40250Y-48250D02*
X40250Y-48750D01*
X41250Y-49750D02*
X41250Y-50750D01*
X40250Y-48750D02*
X41250Y-49750D01*
X33750Y-29250D02*
X37000Y-32500D01*
X47000Y-38750D02*
X49250Y-38750D01*
X40750Y-32500D02*
X47000Y-38750D01*
X37000Y-32500D02*
X40750Y-32500D01*
X49250Y-37750D02*
X46750Y-37750D01*
X46750Y-37750D02*
X41750Y-32750D01*
X49250Y-35750D02*
X46250Y-35750D01*
X46250Y-35750D02*
X43500Y-33000D01*
X49250Y-34750D02*
X46000Y-34750D01*
X37750Y-30500D02*
X37750Y-29250D01*
X38750Y-31500D02*
X37750Y-30500D01*
X41750Y-31500D02*
X38750Y-31500D01*
X42750Y-32500D02*
X41750Y-31500D01*
X43750Y-32500D02*
X42750Y-32500D01*
X46000Y-34750D02*
X43750Y-32500D01*
X35250Y-50750D02*
X35250Y-49750D01*
X34250Y-48750D02*
X34250Y-48250D01*
X35250Y-49750D02*
X34250Y-48750D01*
X48750Y-30000D02*
X48750Y-29250D01*
X50250Y-31500D02*
X48750Y-30000D01*
X50250Y-33750D02*
X50250Y-31500D01*
X38250Y-50750D02*
X38250Y-49750D01*
X37250Y-48750D02*
X37250Y-48250D01*
X38250Y-49750D02*
X37250Y-48750D01*
X35250Y-48250D02*
X35250Y-48750D01*
X36250Y-49750D02*
X36250Y-50750D01*
X35250Y-48750D02*
X36250Y-49750D01*
X33250Y-48250D02*
X33250Y-48750D01*
X34250Y-49750D02*
X34250Y-50750D01*
X33250Y-48750D02*
X34250Y-49750D01*
X40750Y-29250D02*
X41750Y-30250D01*
X45000Y-31750D02*
X49250Y-31750D01*
X42250Y-30250D02*
X45000Y-31750D01*
X41750Y-30250D02*
X42250Y-30250D01*
X41750Y-30250D02*
X41750Y-30250D01*
X33250Y-43750D02*
X33250Y-45250D01*
X45250Y-45250D02*
X45250Y-43750D01*
X44250Y-45250D02*
X44250Y-44750D01*
X44250Y-44750D02*
X45250Y-43750D01*
X45250Y-43750D02*
X46250Y-44750D01*
X46250Y-44750D02*
X46250Y-45250D01*
X36250Y-43750D02*
X36250Y-45250D01*
X37250Y-43750D02*
X37250Y-45250D01*
X38250Y-48250D02*
X38250Y-48750D01*
X39250Y-49750D02*
X39250Y-50750D01*
X38250Y-48750D02*
X39250Y-49750D01*
X36250Y-48250D02*
X36250Y-48750D01*
X37250Y-49750D02*
X37250Y-50750D01*
X36250Y-48750D02*
X37250Y-49750D01*
X38250Y-43750D02*
X38250Y-45250D01*
X40250Y-43750D02*
X40250Y-45250D01*
X40250Y-50750D02*
X40250Y-49750D01*
X39250Y-48750D02*
X39250Y-48250D01*
X40250Y-49750D02*
X39250Y-48750D01*
X49750Y-29250D02*
X49750Y-30000D01*
X49750Y-30250D02*
X52250Y-32750D01*
X49750Y-30000D02*
X49750Y-30250D01*
X35250Y-43750D02*
X35250Y-45250D01*
X86250Y-44750D02*
X82500Y-48500D01*
X79976Y-48500D02*
X79935Y-48459D01*
X82500Y-48500D02*
X79976Y-48500D01*
X84250Y-44750D02*
X86250Y-44750D01*
X66750Y-50750D02*
X66250Y-51250D01*
X66250Y-51250D02*
X64750Y-51250D01*
X68750Y-52250D02*
X68250Y-52250D01*
X68250Y-52250D02*
X66750Y-50750D01*
X78250Y-44750D02*
X79250Y-43750D01*
X79250Y-43750D02*
X80750Y-43750D01*
X79935Y-47041D02*
X80750Y-46226D01*
X80750Y-46226D02*
X80750Y-43750D01*
X75750Y-52750D02*
X74000Y-52750D01*
X73375Y-53250D02*
X73250Y-53125D01*
X73500Y-53250D02*
X73375Y-53250D01*
X74000Y-52750D02*
X73500Y-53250D01*
X76510Y-51240D02*
X85750Y-51240D01*
X75750Y-52000D02*
X76510Y-51240D01*
X75750Y-52750D02*
X75750Y-52000D01*
X85750Y-51240D02*
X85750Y-53250D01*
X85750Y-53250D02*
X86750Y-54250D01*
X77250Y-49750D02*
X77250Y-47876D01*
X77250Y-47876D02*
X78754Y-46372D01*
X78754Y-46372D02*
X75128Y-46372D01*
X75128Y-46372D02*
X74250Y-47250D01*
X84250Y-41750D02*
X80750Y-41750D01*
X80750Y-41750D02*
X76250Y-41750D01*
X64250Y-46750D02*
X64250Y-43750D01*
X64250Y-46750D02*
X69750Y-52250D01*
X80250Y-14000D02*
X80750Y-14500D01*
X66750Y-31750D02*
X66750Y-35250D01*
X66750Y-36750D02*
X66750Y-39750D01*
X67750Y-28000D02*
X69000Y-26750D01*
X67750Y-28500D02*
X67750Y-28000D01*
X30750Y-53250D02*
X30750Y-56000D01*
X35250Y-60250D02*
X36000Y-59750D01*
X33500Y-60250D02*
X35250Y-60250D01*
X33000Y-59750D02*
X33500Y-60250D01*
X33000Y-58250D02*
X33000Y-59750D01*
X30750Y-56000D02*
X33000Y-58250D01*
X31750Y-51250D02*
X31750Y-46750D01*
X41250Y-48250D02*
X41250Y-47500D01*
X48250Y-39750D02*
X49250Y-39750D01*
X46250Y-41750D02*
X48250Y-39750D01*
X44250Y-41750D02*
X46250Y-41750D01*
X41750Y-44250D02*
X44250Y-41750D01*
X41750Y-47000D02*
X41750Y-44250D01*
X41250Y-47500D02*
X41750Y-47000D01*
X56250Y-39750D02*
X55000Y-39750D01*
X54250Y-28750D02*
X56250Y-30750D01*
X56250Y-30750D02*
X56250Y-39750D01*
X49250Y-39750D02*
X50750Y-39250D01*
X50750Y-39250D02*
X55000Y-39250D01*
X55000Y-39750D02*
X55000Y-39250D01*
X31250Y-28750D02*
X31750Y-29250D01*
X31750Y-29250D02*
X31750Y-41000D01*
X54500Y-16750D02*
X54500Y-25000D01*
X55250Y-16000D02*
X54500Y-16750D01*
X55500Y-27500D02*
X54250Y-28750D01*
X55500Y-26000D02*
X55500Y-27500D01*
X54500Y-25000D02*
X55500Y-26000D01*
X30750Y-43250D02*
X30750Y-45750D01*
X39750Y-46750D02*
X41250Y-48250D01*
X31750Y-46750D02*
X39750Y-46750D01*
X30750Y-45750D02*
X31750Y-46750D01*
X51750Y-47750D02*
X51750Y-47000D01*
X55750Y-45750D02*
X56750Y-43750D01*
X54000Y-45750D02*
X55750Y-45750D01*
X51750Y-47000D02*
X54000Y-45750D01*
X57750Y-52250D02*
X58750Y-52250D01*
X59000Y-46000D02*
X56750Y-43750D01*
X59000Y-52000D02*
X59000Y-46000D01*
X58750Y-52250D02*
X59000Y-52000D01*
X56250Y-39750D02*
X66750Y-39750D01*
X56750Y-43750D02*
X55000Y-42000D01*
X55000Y-42000D02*
X55000Y-40250D01*
X55000Y-40250D02*
X55000Y-39750D01*
X55250Y-16000D02*
X55445Y-16195D01*
X55445Y-16195D02*
X56631Y-16195D01*
X70500Y-13750D02*
X70500Y-13500D01*
X70500Y-13500D02*
X71000Y-12750D01*
X71000Y-12750D02*
X79250Y-12750D01*
X79250Y-12750D02*
X80750Y-14500D01*
X80750Y-14500D02*
X80750Y-19250D01*
X77500Y-29000D02*
X78250Y-28250D01*
X78250Y-28250D02*
X78250Y-20750D01*
X78250Y-20750D02*
X79750Y-19250D01*
X79750Y-19250D02*
X80750Y-19250D01*
X73750Y-28750D02*
X74250Y-29250D01*
X77500Y-29000D02*
X77250Y-29250D01*
X77250Y-29250D02*
X76250Y-29250D01*
X73750Y-28750D02*
X73500Y-28750D01*
X74250Y-29250D02*
X76250Y-29250D01*
X81250Y-29000D02*
X81250Y-29500D01*
X80500Y-30250D02*
X80500Y-33250D01*
X80500Y-33250D02*
X81000Y-33750D01*
X81000Y-33750D02*
X81250Y-33750D01*
X81250Y-29500D02*
X80500Y-30250D01*
X86250Y-31250D02*
X83750Y-33750D01*
X83750Y-33750D02*
X81250Y-33750D01*
X72750Y-40750D02*
X71750Y-39750D01*
X72750Y-48750D02*
X72750Y-40750D01*
X74250Y-52375D02*
X74375Y-52375D01*
X74750Y-52000D02*
X74750Y-51250D01*
X74375Y-52375D02*
X74750Y-52000D01*
X66750Y-39750D02*
X71750Y-39750D01*
X69000Y-26750D02*
X70500Y-26750D01*
X49750Y-53750D02*
X49750Y-52250D01*
X49750Y-52250D02*
X49750Y-50750D01*
X34000Y-59750D02*
X34000Y-57750D01*
X48000Y-55500D02*
X49750Y-53750D01*
X36250Y-55500D02*
X48000Y-55500D01*
X34000Y-57750D02*
X36250Y-55500D01*
X49750Y-50750D02*
X49750Y-53750D01*
X50750Y-50750D02*
X50750Y-52250D01*
X50750Y-52250D02*
X50750Y-53750D01*
X39000Y-59750D02*
X39000Y-58000D01*
X47750Y-56750D02*
X50750Y-53750D01*
X40250Y-56750D02*
X47750Y-56750D01*
X39000Y-58000D02*
X40250Y-56750D01*
X50750Y-50750D02*
X50750Y-53750D01*
X51750Y-50750D02*
X51750Y-52250D01*
X46500Y-59750D02*
X46500Y-58000D01*
X48000Y-57500D02*
X51750Y-53750D01*
X47000Y-57500D02*
X48000Y-57500D01*
X46500Y-58000D02*
X47000Y-57500D01*
X51750Y-50750D02*
X51750Y-53750D01*
X52750Y-53750D02*
X52750Y-52250D01*
X52750Y-52250D02*
X52750Y-50750D01*
X51500Y-59750D02*
X51500Y-55000D01*
X51500Y-55000D02*
X52750Y-53750D01*
X52750Y-50750D02*
X52750Y-53750D01*
X53750Y-50750D02*
X53750Y-52250D01*
X53750Y-52250D02*
X53750Y-53750D01*
X53750Y-53750D02*
X53750Y-54500D01*
X53750Y-54500D02*
X59000Y-59750D01*
X53750Y-50750D02*
X53750Y-53750D01*
X54750Y-53750D02*
X54750Y-52250D01*
X54750Y-52250D02*
X54750Y-50750D01*
X64000Y-59750D02*
X64000Y-59250D01*
X56250Y-55250D02*
X54750Y-53750D01*
X58500Y-55250D02*
X56250Y-55250D01*
X62000Y-58750D02*
X58500Y-55250D01*
X63500Y-58750D02*
X62000Y-58750D01*
X64000Y-59250D02*
X63500Y-58750D01*
X54750Y-50750D02*
X54750Y-53750D01*
X55750Y-50750D02*
X55750Y-52250D01*
X55750Y-52250D02*
X55750Y-53750D01*
X72500Y-59750D02*
X71000Y-58250D01*
X56750Y-54750D02*
X55750Y-53750D01*
X59000Y-54750D02*
X56750Y-54750D01*
X62500Y-58250D02*
X59000Y-54750D01*
X71000Y-58250D02*
X62500Y-58250D01*
X55750Y-50750D02*
X55750Y-53750D01*
X56750Y-53750D02*
X56750Y-52250D01*
X56750Y-52250D02*
X56750Y-50750D01*
X77500Y-59750D02*
X76750Y-59000D01*
X59500Y-53750D02*
X56750Y-53750D01*
X63250Y-57750D02*
X59500Y-53750D01*
X75250Y-57750D02*
X63250Y-57750D01*
X76750Y-59000D02*
X75250Y-57750D01*
X56750Y-50750D02*
X56750Y-53750D01*
X34250Y-53750D02*
X34250Y-56500D01*
X39250Y-33250D02*
X39250Y-36250D01*
X38250Y-36250D02*
X38250Y-33250D01*
X37250Y-33250D02*
X37250Y-36250D01*
X36250Y-36250D02*
X36250Y-33250D01*
X35250Y-36250D02*
X35250Y-33250D01*
X34250Y-36250D02*
X34250Y-33250D01*
X33250Y-36250D02*
X33250Y-33250D01*
X38000Y-59750D02*
X38000Y-58750D01*
X38000Y-58750D02*
X36000Y-56750D01*
X47500Y-59750D02*
X47500Y-60000D01*
X38750Y-57250D02*
X37500Y-56000D01*
X44000Y-58500D02*
X40000Y-58500D01*
X46000Y-60500D02*
X44000Y-58500D01*
X47000Y-60500D02*
X46000Y-60500D01*
X47500Y-60000D02*
X47000Y-60500D01*
X37250Y-53750D02*
X37250Y-54750D01*
X50500Y-59500D02*
X50500Y-59750D01*
X49500Y-58500D02*
X50500Y-59500D01*
X48250Y-58500D02*
X49500Y-58500D01*
X47750Y-58000D02*
X48250Y-58500D01*
X37500Y-55000D02*
X44750Y-55000D01*
X37250Y-54750D02*
X37500Y-55000D01*
X60000Y-59750D02*
X60000Y-60250D01*
X38250Y-52750D02*
X38250Y-53750D01*
X39500Y-51500D02*
X38250Y-52750D01*
X44750Y-51500D02*
X39500Y-51500D01*
X48000Y-54750D02*
X44750Y-51500D01*
X58750Y-60500D02*
X53250Y-55000D01*
X59750Y-60500D02*
X58750Y-60500D01*
X60000Y-60250D02*
X59750Y-60500D01*
X63000Y-59750D02*
X62250Y-60500D01*
X39250Y-52750D02*
X39250Y-53750D01*
X40000Y-52000D02*
X39250Y-52750D01*
X44250Y-52000D02*
X40000Y-52000D01*
X47000Y-54750D02*
X44250Y-52000D01*
X55750Y-58250D02*
X52000Y-58250D01*
X58500Y-61000D02*
X55750Y-58250D01*
X59750Y-61000D02*
X58500Y-61000D01*
X60250Y-60500D02*
X59750Y-61000D01*
X62250Y-60500D02*
X60250Y-60500D01*
X44000Y-50000D02*
X48000Y-50000D01*
X48000Y-50000D02*
X49000Y-49000D01*
X49000Y-49000D02*
X58500Y-49000D01*
X61000Y-54500D02*
X63500Y-57250D01*
X63500Y-57250D02*
X71000Y-57250D01*
X72000Y-58250D02*
X73500Y-59750D01*
X47750Y-50750D02*
X44250Y-50750D01*
X49000Y-49750D02*
X47750Y-50750D01*
X49500Y-49750D02*
X49000Y-49750D01*
X49000Y-49750D02*
X49500Y-49750D01*
X58250Y-49750D02*
X49000Y-49750D01*
X64000Y-56750D02*
X59500Y-52250D01*
X72000Y-56750D02*
X64000Y-56750D01*
X72500Y-57250D02*
X72000Y-56750D01*
X72750Y-57250D02*
X72500Y-57250D01*
X75750Y-57250D02*
X72750Y-57250D01*
X76500Y-58000D02*
X75750Y-57250D01*
X40250Y-36250D02*
X40250Y-33250D01*
X41750Y-21750D02*
X41750Y-18750D01*
X48750Y-21750D02*
X48750Y-18750D01*
X47750Y-21750D02*
X47750Y-18750D01*
X46750Y-21750D02*
X46750Y-18750D01*
X45750Y-21750D02*
X45750Y-18750D01*
X44750Y-21750D02*
X44750Y-18750D01*
X43750Y-21750D02*
X43750Y-18750D01*
X42750Y-21750D02*
X42750Y-18750D01*
X40750Y-21750D02*
X40750Y-18750D01*
X39750Y-21750D02*
X39750Y-18750D01*
X38750Y-21750D02*
X38750Y-18750D01*
X37750Y-18750D02*
X37750Y-21750D01*
X36750Y-21750D02*
X36750Y-18750D01*
X35750Y-18750D02*
X35750Y-21750D01*
X34750Y-21750D02*
X34750Y-18750D01*
X49750Y-21750D02*
X49750Y-18750D01*
G54D10*
G36*
X82950Y-64425D02*
X82358Y-64425D01*
X82358Y-60286D01*
X82358Y-60036D01*
X82358Y-59216D01*
X82263Y-58985D01*
X82086Y-58808D01*
X81856Y-58712D01*
X81606Y-58712D01*
X81375Y-58807D01*
X81198Y-58984D01*
X81102Y-59214D01*
X81102Y-59464D01*
X81102Y-60284D01*
X81197Y-60515D01*
X81374Y-60692D01*
X81604Y-60788D01*
X81854Y-60788D01*
X82085Y-60693D01*
X82262Y-60516D01*
X82358Y-60286D01*
X82358Y-64425D01*
X28575Y-64425D01*
X28575Y-62500D01*
X28575Y-62250D01*
X28575Y-60750D01*
X28575Y-26050D01*
X31700Y-26050D01*
X31700Y-26950D01*
X29700Y-26950D01*
X29700Y-40800D01*
X31200Y-40800D01*
X31200Y-41700D01*
X29700Y-41700D01*
X29700Y-50800D01*
X31200Y-50800D01*
X31200Y-51700D01*
X29700Y-51700D01*
X29700Y-58325D01*
X29267Y-58758D01*
X29000Y-59401D01*
X29000Y-60097D01*
X29266Y-60740D01*
X29758Y-61233D01*
X30401Y-61500D01*
X31097Y-61500D01*
X31740Y-61234D01*
X32174Y-60800D01*
X33617Y-60800D01*
X33618Y-60800D01*
X33624Y-60804D01*
X33750Y-60829D01*
X35245Y-60829D01*
X35250Y-60830D01*
X35250Y-60829D01*
X35376Y-60804D01*
X35382Y-60800D01*
X40028Y-60800D01*
X40778Y-59550D01*
X41972Y-59550D01*
X42722Y-60800D01*
X45867Y-60800D01*
X45868Y-60800D01*
X45874Y-60804D01*
X46000Y-60829D01*
X46995Y-60829D01*
X47000Y-60830D01*
X47000Y-60829D01*
X47126Y-60804D01*
X47132Y-60800D01*
X52528Y-60800D01*
X53278Y-59550D01*
X54472Y-59550D01*
X55222Y-60800D01*
X57834Y-60800D01*
X58267Y-61233D01*
X58374Y-61304D01*
X58500Y-61329D01*
X59745Y-61329D01*
X59750Y-61330D01*
X59750Y-61329D01*
X59876Y-61304D01*
X59983Y-61233D01*
X60387Y-60829D01*
X62245Y-60829D01*
X62250Y-60830D01*
X62250Y-60829D01*
X62376Y-60804D01*
X62382Y-60800D01*
X65036Y-60800D01*
X65536Y-59300D01*
X66964Y-59300D01*
X67464Y-60800D01*
X78550Y-60800D01*
X78550Y-55950D01*
X74050Y-55950D01*
X74050Y-53166D01*
X74137Y-53079D01*
X74950Y-53079D01*
X74950Y-53800D01*
X76550Y-53800D01*
X76550Y-52300D01*
X77950Y-52300D01*
X77950Y-53800D01*
X82950Y-53800D01*
X82950Y-64425D01*
X82950Y-64425D01*
G37*
G54D38*
X82950Y-64425D02*
X82358Y-64425D01*
X82358Y-60286D01*
X82358Y-60036D01*
X82358Y-59216D01*
X82263Y-58985D01*
X82086Y-58808D01*
X81856Y-58712D01*
X81606Y-58712D01*
X81375Y-58807D01*
X81198Y-58984D01*
X81102Y-59214D01*
X81102Y-59464D01*
X81102Y-60284D01*
X81197Y-60515D01*
X81374Y-60692D01*
X81604Y-60788D01*
X81854Y-60788D01*
X82085Y-60693D01*
X82262Y-60516D01*
X82358Y-60286D01*
X82358Y-64425D01*
X28575Y-64425D01*
X28575Y-62500D01*
X28575Y-62250D01*
X28575Y-60750D01*
X28575Y-26050D01*
X31700Y-26050D01*
X31700Y-26950D01*
X29700Y-26950D01*
X29700Y-40800D01*
X31200Y-40800D01*
X31200Y-41700D01*
X29700Y-41700D01*
X29700Y-50800D01*
X31200Y-50800D01*
X31200Y-51700D01*
X29700Y-51700D01*
X29700Y-58325D01*
X29267Y-58758D01*
X29000Y-59401D01*
X29000Y-60097D01*
X29266Y-60740D01*
X29758Y-61233D01*
X30401Y-61500D01*
X31097Y-61500D01*
X31740Y-61234D01*
X32174Y-60800D01*
X33617Y-60800D01*
X33618Y-60800D01*
X33624Y-60804D01*
X33750Y-60829D01*
X35245Y-60829D01*
X35250Y-60830D01*
X35250Y-60829D01*
X35376Y-60804D01*
X35382Y-60800D01*
X40028Y-60800D01*
X40778Y-59550D01*
X41972Y-59550D01*
X42722Y-60800D01*
X45867Y-60800D01*
X45868Y-60800D01*
X45874Y-60804D01*
X46000Y-60829D01*
X46995Y-60829D01*
X47000Y-60830D01*
X47000Y-60829D01*
X47126Y-60804D01*
X47132Y-60800D01*
X52528Y-60800D01*
X53278Y-59550D01*
X54472Y-59550D01*
X55222Y-60800D01*
X57834Y-60800D01*
X58267Y-61233D01*
X58374Y-61304D01*
X58500Y-61329D01*
X59745Y-61329D01*
X59750Y-61330D01*
X59750Y-61329D01*
X59876Y-61304D01*
X59983Y-61233D01*
X60387Y-60829D01*
X62245Y-60829D01*
X62250Y-60830D01*
X62250Y-60829D01*
X62376Y-60804D01*
X62382Y-60800D01*
X65036Y-60800D01*
X65536Y-59300D01*
X66964Y-59300D01*
X67464Y-60800D01*
X78550Y-60800D01*
X78550Y-55950D01*
X74050Y-55950D01*
X74050Y-53166D01*
X74137Y-53079D01*
X74950Y-53079D01*
X74950Y-53800D01*
X76550Y-53800D01*
X76550Y-52300D01*
X77950Y-52300D01*
X77950Y-53800D01*
X82950Y-53800D01*
X82950Y-64425D01*
G54D10*
G36*
X87925Y-55200D02*
X84800Y-55200D01*
X84800Y-54379D01*
X85120Y-54379D01*
X85120Y-51240D01*
X84800Y-51240D01*
X84800Y-50550D01*
X87925Y-50550D01*
X87925Y-55200D01*
X87925Y-55200D01*
G37*
G54D38*
X87925Y-55200D02*
X84800Y-55200D01*
X84800Y-54379D01*
X85120Y-54379D01*
X85120Y-51240D01*
X84800Y-51240D01*
X84800Y-50550D01*
X87925Y-50550D01*
X87925Y-55200D01*
G54D10*
G36*
X56700Y-40729D02*
X56479Y-40950D01*
X54771Y-40950D01*
X54550Y-40729D01*
X54550Y-37771D01*
X54771Y-37550D01*
X56479Y-37550D01*
X56700Y-37771D01*
X56700Y-40729D01*
X56700Y-40729D01*
G37*
G54D38*
X56700Y-40729D02*
X56479Y-40950D01*
X54771Y-40950D01*
X54550Y-40729D01*
X54550Y-37771D01*
X54771Y-37550D01*
X56479Y-37550D01*
X56700Y-37771D01*
X56700Y-40729D01*
M02*
