G04 (created by PCBNEW-RS274X (2011-05-25)-stable) date Sun 10 Jun 2012 11:37:39 PM MDT*
G01*
G70*
G90*
%MOIN*%
G04 Gerber Fmt 3.4, Leading zero omitted, Abs format*
%FSLAX34Y34*%
G04 APERTURE LIST*
%ADD10C,0.006000*%
%ADD11C,0.079100*%
%ADD12R,0.080000X0.080000*%
%ADD13C,0.080000*%
%ADD14R,0.095000X0.095000*%
%ADD15C,0.095000*%
%ADD16O,0.110000X0.082000*%
%ADD17R,0.110000X0.082000*%
%ADD18O,0.082000X0.110000*%
%ADD19R,0.082000X0.110000*%
%ADD20C,0.090000*%
%ADD21R,0.090000X0.090000*%
%ADD22R,0.075000X0.075000*%
%ADD23C,0.075000*%
%ADD24R,0.085000X0.085000*%
%ADD25C,0.085000*%
%ADD26R,0.140000X0.140000*%
%ADD27C,0.140000*%
%ADD28O,0.118400X0.090900*%
%ADD29C,0.320000*%
%ADD30R,0.085000X0.140000*%
%ADD31R,0.260000X0.260000*%
G04 APERTURE END LIST*
G54D10*
G54D11*
X86750Y-54250D03*
X76750Y-54250D03*
G54D12*
X65000Y-23000D03*
G54D13*
X66000Y-23000D03*
X67000Y-23000D03*
G54D12*
X65000Y-24500D03*
G54D13*
X66000Y-24500D03*
X67000Y-24500D03*
G54D12*
X65000Y-21500D03*
G54D13*
X66000Y-21500D03*
X67000Y-21500D03*
G54D12*
X34000Y-59750D03*
G54D13*
X35000Y-59750D03*
X36000Y-59750D03*
X37000Y-59750D03*
X38000Y-59750D03*
X39000Y-59750D03*
G54D12*
X46500Y-59750D03*
G54D13*
X47500Y-59750D03*
X48500Y-59750D03*
X49500Y-59750D03*
X50500Y-59750D03*
X51500Y-59750D03*
G54D14*
X71750Y-41750D03*
G54D15*
X71750Y-39750D03*
G54D14*
X80750Y-43750D03*
G54D15*
X80750Y-41750D03*
G54D16*
X49250Y-32750D03*
X49250Y-33750D03*
X49250Y-34750D03*
X49250Y-35750D03*
X49250Y-36750D03*
X49250Y-37750D03*
X49250Y-38750D03*
X49250Y-39750D03*
X49250Y-40750D03*
X49250Y-41750D03*
X49250Y-42750D03*
X49250Y-43750D03*
X49250Y-44750D03*
G54D17*
X49250Y-31750D03*
G54D16*
X52250Y-44750D03*
X52250Y-43750D03*
X52250Y-42750D03*
X52250Y-41750D03*
X52250Y-40750D03*
X52250Y-39750D03*
X52250Y-38750D03*
X52250Y-37750D03*
X52250Y-36750D03*
X52250Y-35750D03*
X52250Y-34750D03*
X52250Y-33750D03*
X52250Y-32750D03*
X52250Y-31750D03*
G54D18*
X34250Y-48250D03*
X35250Y-48250D03*
X36250Y-48250D03*
X37250Y-48250D03*
X38250Y-48250D03*
X39250Y-48250D03*
X40250Y-48250D03*
X41250Y-48250D03*
X42250Y-48250D03*
X43250Y-48250D03*
X44250Y-48250D03*
X45250Y-48250D03*
X46250Y-48250D03*
G54D19*
X33250Y-48250D03*
G54D18*
X46250Y-45250D03*
X45250Y-45250D03*
X44250Y-45250D03*
X43250Y-45250D03*
X42250Y-45250D03*
X41250Y-45250D03*
X40250Y-45250D03*
X39250Y-45250D03*
X38250Y-45250D03*
X37250Y-45250D03*
X36250Y-45250D03*
X35250Y-45250D03*
X34250Y-45250D03*
X33250Y-45250D03*
G54D19*
X49750Y-50750D03*
G54D18*
X50750Y-50750D03*
X51750Y-50750D03*
X52750Y-50750D03*
X53750Y-50750D03*
X54750Y-50750D03*
X55750Y-50750D03*
X56750Y-50750D03*
X57750Y-50750D03*
X57750Y-47750D03*
X56750Y-47750D03*
X55750Y-47750D03*
X54750Y-47750D03*
X53750Y-47750D03*
X52750Y-47750D03*
X51750Y-47750D03*
X50750Y-47750D03*
X49750Y-47750D03*
G54D20*
X82750Y-46250D03*
G54D21*
X86750Y-46250D03*
G54D22*
X85750Y-52750D03*
G54D23*
X82750Y-52750D03*
X69000Y-26750D03*
X67000Y-26750D03*
X74750Y-51250D03*
X72750Y-51250D03*
X55250Y-18000D03*
X55250Y-16000D03*
X77000Y-26750D03*
X77000Y-27750D03*
X69750Y-43750D03*
X71750Y-43750D03*
X77000Y-25750D03*
X77000Y-24750D03*
G54D12*
X59000Y-59750D03*
G54D13*
X60000Y-59750D03*
X61000Y-59750D03*
X62000Y-59750D03*
X63000Y-59750D03*
X64000Y-59750D03*
G54D21*
X66750Y-39750D03*
G54D20*
X66750Y-41750D03*
G54D23*
X83000Y-34750D03*
X83000Y-32750D03*
G54D20*
X66750Y-50750D03*
G54D21*
X66750Y-45750D03*
G54D20*
X75750Y-55250D03*
G54D21*
X71750Y-55250D03*
G54D22*
X77250Y-49750D03*
G54D23*
X77250Y-52750D03*
G54D22*
X78250Y-44750D03*
G54D23*
X75250Y-44750D03*
G54D12*
X72500Y-59750D03*
G54D13*
X73500Y-59750D03*
X74500Y-59750D03*
X75500Y-59750D03*
X76500Y-59750D03*
X77500Y-59750D03*
G54D16*
X73500Y-33750D03*
X73500Y-32750D03*
X73500Y-31750D03*
X73500Y-30750D03*
X73500Y-29750D03*
X73500Y-28750D03*
X73500Y-27750D03*
X73500Y-26750D03*
X73500Y-25750D03*
X73500Y-24750D03*
X73500Y-23750D03*
X73500Y-22750D03*
X73500Y-21750D03*
G54D17*
X73500Y-34750D03*
G54D16*
X70500Y-21750D03*
X70500Y-22750D03*
X70500Y-23750D03*
X70500Y-24750D03*
X70500Y-25750D03*
X70500Y-26750D03*
X70500Y-27750D03*
X70500Y-28750D03*
X70500Y-29750D03*
X70500Y-30750D03*
X70500Y-31750D03*
X70500Y-32750D03*
X70500Y-33750D03*
X70500Y-34750D03*
G54D12*
X68750Y-16500D03*
G54D13*
X68750Y-15500D03*
X69750Y-16500D03*
X69750Y-15500D03*
X70750Y-16500D03*
X70750Y-15500D03*
G54D23*
X87000Y-34750D03*
X87000Y-36750D03*
X84000Y-34750D03*
X84000Y-36750D03*
G54D24*
X68750Y-52250D03*
G54D25*
X69750Y-52250D03*
G54D21*
X62250Y-46750D03*
G54D20*
X64250Y-46750D03*
G54D23*
X64250Y-43750D03*
X62250Y-43750D03*
G54D21*
X76250Y-41750D03*
G54D20*
X76250Y-39750D03*
G54D24*
X71250Y-47750D03*
G54D25*
X71250Y-48750D03*
G54D23*
X74250Y-49250D03*
X74250Y-47250D03*
X67000Y-27750D03*
X69000Y-27750D03*
G54D25*
X67250Y-54250D03*
X64250Y-54250D03*
X64250Y-53250D03*
X67250Y-53250D03*
X86250Y-41750D03*
X86250Y-44750D03*
X84250Y-44750D03*
X84250Y-41750D03*
X45250Y-43750D03*
X45250Y-40750D03*
X70500Y-13750D03*
X73500Y-13750D03*
G54D22*
X64750Y-51250D03*
G54D23*
X63750Y-51250D03*
X63750Y-50250D03*
G54D20*
X75250Y-25250D03*
X75250Y-27250D03*
G54D19*
X43750Y-29250D03*
G54D18*
X44750Y-29250D03*
X45750Y-29250D03*
X46750Y-29250D03*
X47750Y-29250D03*
X48750Y-29250D03*
X49750Y-29250D03*
X50750Y-29250D03*
X51750Y-29250D03*
X51750Y-26250D03*
X50750Y-26250D03*
X49750Y-26250D03*
X48750Y-26250D03*
X47750Y-26250D03*
X46750Y-26250D03*
X45750Y-26250D03*
X44750Y-26250D03*
X43750Y-26250D03*
G54D19*
X33750Y-29250D03*
G54D18*
X34750Y-29250D03*
X35750Y-29250D03*
X36750Y-29250D03*
X37750Y-29250D03*
X38750Y-29250D03*
X39750Y-29250D03*
X40750Y-29250D03*
X41750Y-29250D03*
X41750Y-26250D03*
X40750Y-26250D03*
X39750Y-26250D03*
X38750Y-26250D03*
X37750Y-26250D03*
X36750Y-26250D03*
X35750Y-26250D03*
X34750Y-26250D03*
X33750Y-26250D03*
G54D19*
X33250Y-43750D03*
G54D18*
X34250Y-43750D03*
X35250Y-43750D03*
X36250Y-43750D03*
X37250Y-43750D03*
X38250Y-43750D03*
X39250Y-43750D03*
X40250Y-43750D03*
X41250Y-43750D03*
X41250Y-40750D03*
X40250Y-40750D03*
X39250Y-40750D03*
X38250Y-40750D03*
X37250Y-40750D03*
X36250Y-40750D03*
X35250Y-40750D03*
X34250Y-40750D03*
X33250Y-40750D03*
G54D19*
X41250Y-50750D03*
G54D18*
X40250Y-50750D03*
X39250Y-50750D03*
X38250Y-50750D03*
X37250Y-50750D03*
X36250Y-50750D03*
X35250Y-50750D03*
X34250Y-50750D03*
X33250Y-50750D03*
X33250Y-53750D03*
X34250Y-53750D03*
X35250Y-53750D03*
X36250Y-53750D03*
X37250Y-53750D03*
X38250Y-53750D03*
X39250Y-53750D03*
X40250Y-53750D03*
X41250Y-53750D03*
G54D25*
X83750Y-21000D03*
X80750Y-21000D03*
X83750Y-19250D03*
X80750Y-19250D03*
G54D26*
X56250Y-14750D03*
G54D27*
X42250Y-14750D03*
G54D25*
X53750Y-43750D03*
X56750Y-43750D03*
G54D19*
X41750Y-21750D03*
G54D18*
X40750Y-21750D03*
X39750Y-21750D03*
X38750Y-21750D03*
X37750Y-21750D03*
X36750Y-21750D03*
X35750Y-21750D03*
X34750Y-21750D03*
X34750Y-24750D03*
X35750Y-24750D03*
X36750Y-24750D03*
X37750Y-24750D03*
X38750Y-24750D03*
X39750Y-24750D03*
X40750Y-24750D03*
X41750Y-24750D03*
G54D19*
X42750Y-24750D03*
G54D18*
X43750Y-24750D03*
X44750Y-24750D03*
X45750Y-24750D03*
X46750Y-24750D03*
X47750Y-24750D03*
X48750Y-24750D03*
X49750Y-24750D03*
X49750Y-21750D03*
X48750Y-21750D03*
X47750Y-21750D03*
X46750Y-21750D03*
X45750Y-21750D03*
X44750Y-21750D03*
X43750Y-21750D03*
X42750Y-21750D03*
G54D12*
X86250Y-33250D03*
G54D13*
X86250Y-32250D03*
X86250Y-31250D03*
X86250Y-30250D03*
X86250Y-29250D03*
X86250Y-28250D03*
G54D28*
X78754Y-47750D03*
X78754Y-46372D03*
X78754Y-49128D03*
X79935Y-48459D03*
X79935Y-47041D03*
G54D29*
X30750Y-14750D03*
X85750Y-14750D03*
X30750Y-59750D03*
X85750Y-59750D03*
G54D22*
X49750Y-52250D03*
G54D23*
X50750Y-52250D03*
X51750Y-52250D03*
X52750Y-52250D03*
X53750Y-52250D03*
X54750Y-52250D03*
X55750Y-52250D03*
X56750Y-52250D03*
X57750Y-52250D03*
G54D25*
X81250Y-29000D03*
X81250Y-26000D03*
X81250Y-30750D03*
X81250Y-33750D03*
X53750Y-41750D03*
X56750Y-41750D03*
X43250Y-43750D03*
X43250Y-40750D03*
G54D12*
X51750Y-53750D03*
G54D13*
X50750Y-53750D03*
X49750Y-53750D03*
G54D12*
X54250Y-26750D03*
G54D13*
X54250Y-27750D03*
X54250Y-28750D03*
G54D12*
X31250Y-26750D03*
G54D13*
X31250Y-27750D03*
X31250Y-28750D03*
G54D12*
X30750Y-41250D03*
G54D13*
X30750Y-42250D03*
X30750Y-43250D03*
G54D12*
X30750Y-51250D03*
G54D13*
X30750Y-52250D03*
X30750Y-53250D03*
G54D19*
X33250Y-39250D03*
G54D18*
X34250Y-39250D03*
X35250Y-39250D03*
X36250Y-39250D03*
X37250Y-39250D03*
X38250Y-39250D03*
X39250Y-39250D03*
X40250Y-39250D03*
X40250Y-36250D03*
X39250Y-36250D03*
X38250Y-36250D03*
X37250Y-36250D03*
X36250Y-36250D03*
X35250Y-36250D03*
X34250Y-36250D03*
X33250Y-36250D03*
G54D12*
X41750Y-18750D03*
G54D13*
X40750Y-18750D03*
X39750Y-18750D03*
X38750Y-18750D03*
X37750Y-18750D03*
G54D12*
X51750Y-18750D03*
G54D13*
X50750Y-18750D03*
X49750Y-18750D03*
X48750Y-18750D03*
X47750Y-18750D03*
G54D12*
X56750Y-53750D03*
G54D13*
X55750Y-53750D03*
X54750Y-53750D03*
X53750Y-53750D03*
X52750Y-53750D03*
G54D12*
X40250Y-33250D03*
G54D13*
X39250Y-33250D03*
X38250Y-33250D03*
X37250Y-33250D03*
X36250Y-33250D03*
G54D22*
X79500Y-30500D03*
G54D23*
X79500Y-29500D03*
X78500Y-29500D03*
G54D22*
X80500Y-25000D03*
G54D23*
X80500Y-24000D03*
X79500Y-24000D03*
G54D12*
X75500Y-15500D03*
G54D13*
X75500Y-16500D03*
G54D12*
X73250Y-15500D03*
G54D13*
X73250Y-16500D03*
G54D12*
X36750Y-18750D03*
G54D13*
X35750Y-18750D03*
X34750Y-18750D03*
X33750Y-18750D03*
X32750Y-18750D03*
G54D12*
X46750Y-18750D03*
G54D13*
X45750Y-18750D03*
X44750Y-18750D03*
X43750Y-18750D03*
X42750Y-18750D03*
G54D12*
X35250Y-33250D03*
G54D13*
X34250Y-33250D03*
X33250Y-33250D03*
X32250Y-33250D03*
X31250Y-33250D03*
G54D25*
X77250Y-14000D03*
X80250Y-14000D03*
G54D12*
X66750Y-31750D03*
G54D13*
X67750Y-31750D03*
X68750Y-31750D03*
G54D12*
X78750Y-17500D03*
G54D13*
X78750Y-16500D03*
X78750Y-15500D03*
G54D30*
X82100Y-54500D03*
G54D31*
X83000Y-57000D03*
G54D30*
X83900Y-54500D03*
M02*
