G04 (created by PCBNEW-RS274X (2011-05-25)-stable) date Mon 06 Aug 2012 09:01:28 PM MDT*
G01*
G70*
G90*
%MOIN*%
G04 Gerber Fmt 3.4, Leading zero omitted, Abs format*
%FSLAX34Y34*%
G04 APERTURE LIST*
%ADD10C,0.006000*%
%ADD11C,0.015000*%
%ADD12C,0.005000*%
%ADD13C,0.008000*%
%ADD14R,0.140000X0.140000*%
%ADD15C,0.140000*%
%ADD16R,0.080000X0.080000*%
%ADD17C,0.080000*%
%ADD18O,0.110000X0.082000*%
%ADD19R,0.110000X0.082000*%
%ADD20O,0.082000X0.110000*%
%ADD21R,0.082000X0.110000*%
%ADD22C,0.090000*%
%ADD23R,0.090000X0.090000*%
%ADD24R,0.075000X0.075000*%
%ADD25C,0.075000*%
%ADD26R,0.085000X0.085000*%
%ADD27C,0.085000*%
%ADD28O,0.118400X0.090900*%
%ADD29C,0.320000*%
%ADD30R,0.085000X0.140000*%
%ADD31R,0.260000X0.260000*%
%ADD32R,0.147600X0.147600*%
%ADD33C,0.147600*%
%ADD34C,0.065000*%
G04 APERTURE END LIST*
G54D10*
G54D11*
X28250Y-64750D02*
X28250Y-62500D01*
X88250Y-64750D02*
X88250Y-62500D01*
X88250Y-61250D02*
X88250Y-62500D01*
X28250Y-62500D02*
X28250Y-60750D01*
X28250Y-12250D02*
X28250Y-62250D01*
X88250Y-12250D02*
X28250Y-12250D01*
X88250Y-62250D02*
X88250Y-12250D01*
X28250Y-64750D02*
X88250Y-64750D01*
G54D12*
X83550Y-55100D02*
X83550Y-53850D01*
X83550Y-53850D02*
X84250Y-53850D01*
X84250Y-53850D02*
X84250Y-55100D01*
X81750Y-55100D02*
X81750Y-53850D01*
X81750Y-53850D02*
X82450Y-53850D01*
X82450Y-53850D02*
X82450Y-55100D01*
X84350Y-57500D02*
X84350Y-55100D01*
X84350Y-55100D02*
X81650Y-55100D01*
X81650Y-55100D02*
X81650Y-58200D01*
X81650Y-58250D02*
X84350Y-58250D01*
X84350Y-58200D02*
X84350Y-57500D01*
G54D13*
X83038Y-58800D02*
X83076Y-58781D01*
X83114Y-58743D01*
X83171Y-58686D01*
X83210Y-58667D01*
X83248Y-58667D01*
X83229Y-58762D02*
X83267Y-58743D01*
X83305Y-58705D01*
X83324Y-58629D01*
X83324Y-58495D01*
X83305Y-58419D01*
X83267Y-58381D01*
X83229Y-58362D01*
X83152Y-58362D01*
X83114Y-58381D01*
X83076Y-58419D01*
X83057Y-58495D01*
X83057Y-58629D01*
X83076Y-58705D01*
X83114Y-58743D01*
X83152Y-58762D01*
X83229Y-58762D01*
X82924Y-58362D02*
X82676Y-58362D01*
X82810Y-58514D01*
X82752Y-58514D01*
X82714Y-58533D01*
X82695Y-58552D01*
X82676Y-58590D01*
X82676Y-58686D01*
X82695Y-58724D01*
X82714Y-58743D01*
X82752Y-58762D01*
X82867Y-58762D01*
X82905Y-58743D01*
X82924Y-58724D01*
X84400Y-55612D02*
X84400Y-55212D01*
X84266Y-55498D01*
X84133Y-55212D01*
X84133Y-55612D01*
X83867Y-55212D02*
X83790Y-55212D01*
X83752Y-55231D01*
X83714Y-55269D01*
X83695Y-55345D01*
X83695Y-55479D01*
X83714Y-55555D01*
X83752Y-55593D01*
X83790Y-55612D01*
X83867Y-55612D01*
X83905Y-55593D01*
X83943Y-55555D01*
X83962Y-55479D01*
X83962Y-55345D01*
X83943Y-55269D01*
X83905Y-55231D01*
X83867Y-55212D01*
X83543Y-55593D02*
X83486Y-55612D01*
X83390Y-55612D01*
X83352Y-55593D01*
X83333Y-55574D01*
X83314Y-55536D01*
X83314Y-55498D01*
X83333Y-55460D01*
X83352Y-55440D01*
X83390Y-55421D01*
X83467Y-55402D01*
X83505Y-55383D01*
X83524Y-55364D01*
X83543Y-55326D01*
X83543Y-55288D01*
X83524Y-55250D01*
X83505Y-55231D01*
X83467Y-55212D01*
X83371Y-55212D01*
X83314Y-55231D01*
X83009Y-55402D02*
X83143Y-55402D01*
X83143Y-55612D02*
X83143Y-55212D01*
X82952Y-55212D01*
X82800Y-55402D02*
X82666Y-55402D01*
X82609Y-55612D02*
X82800Y-55612D01*
X82800Y-55212D01*
X82609Y-55212D01*
X82495Y-55212D02*
X82266Y-55212D01*
X82381Y-55612D02*
X82381Y-55212D01*
X82228Y-55650D02*
X81923Y-55650D01*
X81828Y-55612D02*
X81828Y-55212D01*
X81599Y-55612D01*
X81599Y-55212D01*
%LPC*%
G54D14*
X55750Y-14750D03*
G54D15*
X40750Y-14750D03*
G54D16*
X65000Y-23000D03*
G54D17*
X66000Y-23000D03*
X67000Y-23000D03*
G54D16*
X65000Y-24500D03*
G54D17*
X66000Y-24500D03*
X67000Y-24500D03*
G54D16*
X65000Y-21500D03*
G54D17*
X66000Y-21500D03*
X67000Y-21500D03*
G54D16*
X34000Y-59750D03*
G54D17*
X35000Y-59750D03*
X36000Y-59750D03*
X37000Y-59750D03*
X38000Y-59750D03*
X39000Y-59750D03*
G54D16*
X46500Y-59750D03*
G54D17*
X47500Y-59750D03*
X48500Y-59750D03*
X49500Y-59750D03*
X50500Y-59750D03*
X51500Y-59750D03*
G54D18*
X49250Y-32750D03*
X49250Y-33750D03*
X49250Y-34750D03*
X49250Y-35750D03*
X49250Y-36750D03*
X49250Y-37750D03*
X49250Y-38750D03*
X49250Y-39750D03*
X49250Y-40750D03*
X49250Y-41750D03*
X49250Y-42750D03*
X49250Y-43750D03*
X49250Y-44750D03*
G54D19*
X49250Y-31750D03*
G54D18*
X52250Y-44750D03*
X52250Y-43750D03*
X52250Y-42750D03*
X52250Y-41750D03*
X52250Y-40750D03*
X52250Y-39750D03*
X52250Y-38750D03*
X52250Y-37750D03*
X52250Y-36750D03*
X52250Y-35750D03*
X52250Y-34750D03*
X52250Y-33750D03*
X52250Y-32750D03*
X52250Y-31750D03*
G54D20*
X34250Y-48250D03*
X35250Y-48250D03*
X36250Y-48250D03*
X37250Y-48250D03*
X38250Y-48250D03*
X39250Y-48250D03*
X40250Y-48250D03*
X41250Y-48250D03*
X42250Y-48250D03*
X43250Y-48250D03*
X44250Y-48250D03*
X45250Y-48250D03*
X46250Y-48250D03*
G54D21*
X33250Y-48250D03*
G54D20*
X46250Y-45250D03*
X45250Y-45250D03*
X44250Y-45250D03*
X43250Y-45250D03*
X42250Y-45250D03*
X41250Y-45250D03*
X40250Y-45250D03*
X39250Y-45250D03*
X38250Y-45250D03*
X37250Y-45250D03*
X36250Y-45250D03*
X35250Y-45250D03*
X34250Y-45250D03*
X33250Y-45250D03*
G54D21*
X49750Y-50750D03*
G54D20*
X50750Y-50750D03*
X51750Y-50750D03*
X52750Y-50750D03*
X53750Y-50750D03*
X54750Y-50750D03*
X55750Y-50750D03*
X56750Y-50750D03*
X57750Y-50750D03*
X57750Y-47750D03*
X56750Y-47750D03*
X55750Y-47750D03*
X54750Y-47750D03*
X53750Y-47750D03*
X52750Y-47750D03*
X51750Y-47750D03*
X50750Y-47750D03*
X49750Y-47750D03*
G54D22*
X82750Y-46250D03*
G54D23*
X86750Y-46250D03*
G54D24*
X85750Y-52750D03*
G54D25*
X82750Y-52750D03*
X69000Y-26750D03*
X67000Y-26750D03*
X74750Y-51250D03*
X72750Y-51250D03*
X55250Y-18000D03*
X55250Y-16000D03*
X77000Y-26750D03*
X77000Y-27750D03*
X69850Y-45350D03*
X71850Y-45350D03*
X77000Y-25750D03*
X77000Y-24750D03*
G54D16*
X59000Y-59750D03*
G54D17*
X60000Y-59750D03*
X61000Y-59750D03*
X62000Y-59750D03*
X63000Y-59750D03*
X64000Y-59750D03*
G54D23*
X66750Y-39750D03*
G54D22*
X66750Y-41750D03*
G54D25*
X83000Y-34750D03*
X83000Y-32750D03*
G54D22*
X66750Y-50750D03*
G54D23*
X66750Y-45750D03*
G54D22*
X75750Y-55250D03*
G54D23*
X71750Y-55250D03*
G54D24*
X77250Y-49750D03*
G54D25*
X77250Y-52750D03*
G54D24*
X77750Y-44500D03*
G54D25*
X74750Y-44500D03*
G54D16*
X72500Y-59750D03*
G54D17*
X73500Y-59750D03*
X74500Y-59750D03*
X75500Y-59750D03*
X76500Y-59750D03*
X77500Y-59750D03*
G54D18*
X73500Y-33750D03*
X73500Y-32750D03*
X73500Y-31750D03*
X73500Y-30750D03*
X73500Y-29750D03*
X73500Y-28750D03*
X73500Y-27750D03*
X73500Y-26750D03*
X73500Y-25750D03*
X73500Y-24750D03*
X73500Y-23750D03*
X73500Y-22750D03*
X73500Y-21750D03*
G54D19*
X73500Y-34750D03*
G54D18*
X70500Y-21750D03*
X70500Y-22750D03*
X70500Y-23750D03*
X70500Y-24750D03*
X70500Y-25750D03*
X70500Y-26750D03*
X70500Y-27750D03*
X70500Y-28750D03*
X70500Y-29750D03*
X70500Y-30750D03*
X70500Y-31750D03*
X70500Y-32750D03*
X70500Y-33750D03*
X70500Y-34750D03*
G54D16*
X68750Y-16500D03*
G54D17*
X68750Y-15500D03*
X69750Y-16500D03*
X69750Y-15500D03*
X70750Y-16500D03*
X70750Y-15500D03*
G54D25*
X87000Y-34750D03*
X87000Y-36750D03*
X84000Y-34750D03*
X84000Y-36750D03*
G54D26*
X68750Y-52250D03*
G54D27*
X69750Y-52250D03*
G54D23*
X62250Y-46750D03*
G54D22*
X64250Y-46750D03*
G54D25*
X64250Y-43750D03*
X62250Y-43750D03*
G54D23*
X76000Y-41000D03*
G54D22*
X76000Y-43000D03*
G54D26*
X76000Y-46250D03*
G54D27*
X76000Y-47250D03*
G54D25*
X75250Y-48750D03*
X77250Y-48750D03*
X67000Y-27750D03*
X69000Y-27750D03*
G54D27*
X67250Y-54250D03*
X64250Y-54250D03*
X64250Y-53250D03*
X67250Y-53250D03*
X86250Y-41750D03*
X86250Y-44750D03*
X84250Y-44750D03*
X84250Y-41750D03*
X45250Y-43750D03*
X45250Y-40750D03*
X70500Y-13750D03*
X73500Y-13750D03*
G54D24*
X64750Y-51250D03*
G54D25*
X63750Y-51250D03*
X63750Y-50250D03*
G54D22*
X75250Y-25250D03*
X75250Y-27250D03*
G54D21*
X43750Y-29250D03*
G54D20*
X44750Y-29250D03*
X45750Y-29250D03*
X46750Y-29250D03*
X47750Y-29250D03*
X48750Y-29250D03*
X49750Y-29250D03*
X50750Y-29250D03*
X51750Y-29250D03*
X51750Y-26250D03*
X50750Y-26250D03*
X49750Y-26250D03*
X48750Y-26250D03*
X47750Y-26250D03*
X46750Y-26250D03*
X45750Y-26250D03*
X44750Y-26250D03*
X43750Y-26250D03*
G54D21*
X33750Y-29250D03*
G54D20*
X34750Y-29250D03*
X35750Y-29250D03*
X36750Y-29250D03*
X37750Y-29250D03*
X38750Y-29250D03*
X39750Y-29250D03*
X40750Y-29250D03*
X41750Y-29250D03*
X41750Y-26250D03*
X40750Y-26250D03*
X39750Y-26250D03*
X38750Y-26250D03*
X37750Y-26250D03*
X36750Y-26250D03*
X35750Y-26250D03*
X34750Y-26250D03*
X33750Y-26250D03*
G54D21*
X33250Y-43750D03*
G54D20*
X34250Y-43750D03*
X35250Y-43750D03*
X36250Y-43750D03*
X37250Y-43750D03*
X38250Y-43750D03*
X39250Y-43750D03*
X40250Y-43750D03*
X41250Y-43750D03*
X41250Y-40750D03*
X40250Y-40750D03*
X39250Y-40750D03*
X38250Y-40750D03*
X37250Y-40750D03*
X36250Y-40750D03*
X35250Y-40750D03*
X34250Y-40750D03*
X33250Y-40750D03*
G54D21*
X41250Y-50750D03*
G54D20*
X40250Y-50750D03*
X39250Y-50750D03*
X38250Y-50750D03*
X37250Y-50750D03*
X36250Y-50750D03*
X35250Y-50750D03*
X34250Y-50750D03*
X33250Y-50750D03*
X33250Y-53750D03*
X34250Y-53750D03*
X35250Y-53750D03*
X36250Y-53750D03*
X37250Y-53750D03*
X38250Y-53750D03*
X39250Y-53750D03*
X40250Y-53750D03*
X41250Y-53750D03*
G54D27*
X83750Y-21000D03*
X80750Y-21000D03*
X83750Y-19250D03*
X80750Y-19250D03*
X53750Y-43750D03*
X56750Y-43750D03*
G54D21*
X41750Y-21750D03*
G54D20*
X40750Y-21750D03*
X39750Y-21750D03*
X38750Y-21750D03*
X37750Y-21750D03*
X36750Y-21750D03*
X35750Y-21750D03*
X34750Y-21750D03*
X34750Y-24750D03*
X35750Y-24750D03*
X36750Y-24750D03*
X37750Y-24750D03*
X38750Y-24750D03*
X39750Y-24750D03*
X40750Y-24750D03*
X41750Y-24750D03*
G54D21*
X42750Y-24750D03*
G54D20*
X43750Y-24750D03*
X44750Y-24750D03*
X45750Y-24750D03*
X46750Y-24750D03*
X47750Y-24750D03*
X48750Y-24750D03*
X49750Y-24750D03*
X49750Y-21750D03*
X48750Y-21750D03*
X47750Y-21750D03*
X46750Y-21750D03*
X45750Y-21750D03*
X44750Y-21750D03*
X43750Y-21750D03*
X42750Y-21750D03*
G54D16*
X86250Y-33250D03*
G54D17*
X86250Y-32250D03*
X86250Y-31250D03*
X86250Y-30250D03*
X86250Y-29250D03*
X86250Y-28250D03*
G54D28*
X78754Y-47750D03*
X78754Y-46372D03*
X78754Y-49128D03*
X79935Y-48459D03*
X79935Y-47041D03*
G54D29*
X30750Y-14750D03*
X85750Y-14750D03*
X30750Y-59750D03*
X85750Y-59750D03*
G54D24*
X49750Y-52250D03*
G54D25*
X50750Y-52250D03*
X51750Y-52250D03*
X52750Y-52250D03*
X53750Y-52250D03*
X54750Y-52250D03*
X55750Y-52250D03*
X56750Y-52250D03*
X57750Y-52250D03*
G54D27*
X81250Y-29000D03*
X81250Y-26000D03*
X81250Y-30750D03*
X81250Y-33750D03*
X53750Y-41750D03*
X56750Y-41750D03*
X43250Y-43750D03*
X43250Y-40750D03*
G54D16*
X51750Y-53750D03*
G54D17*
X50750Y-53750D03*
X49750Y-53750D03*
G54D16*
X54250Y-26750D03*
G54D17*
X54250Y-27750D03*
X54250Y-28750D03*
G54D16*
X31250Y-26750D03*
G54D17*
X31250Y-27750D03*
X31250Y-28750D03*
G54D16*
X30750Y-41250D03*
G54D17*
X30750Y-42250D03*
X30750Y-43250D03*
G54D16*
X30750Y-51250D03*
G54D17*
X30750Y-52250D03*
X30750Y-53250D03*
G54D21*
X33250Y-39250D03*
G54D20*
X34250Y-39250D03*
X35250Y-39250D03*
X36250Y-39250D03*
X37250Y-39250D03*
X38250Y-39250D03*
X39250Y-39250D03*
X40250Y-39250D03*
X40250Y-36250D03*
X39250Y-36250D03*
X38250Y-36250D03*
X37250Y-36250D03*
X36250Y-36250D03*
X35250Y-36250D03*
X34250Y-36250D03*
X33250Y-36250D03*
G54D16*
X41750Y-18750D03*
G54D17*
X40750Y-18750D03*
X39750Y-18750D03*
X38750Y-18750D03*
X37750Y-18750D03*
G54D16*
X51750Y-18750D03*
G54D17*
X50750Y-18750D03*
X49750Y-18750D03*
X48750Y-18750D03*
X47750Y-18750D03*
G54D16*
X56750Y-53750D03*
G54D17*
X55750Y-53750D03*
X54750Y-53750D03*
X53750Y-53750D03*
X52750Y-53750D03*
G54D16*
X40250Y-33250D03*
G54D17*
X39250Y-33250D03*
X38250Y-33250D03*
X37250Y-33250D03*
X36250Y-33250D03*
G54D24*
X79500Y-30500D03*
G54D25*
X79500Y-29500D03*
X78500Y-29500D03*
G54D24*
X80500Y-25000D03*
G54D25*
X80500Y-24000D03*
X79500Y-24000D03*
G54D16*
X75500Y-15500D03*
G54D17*
X75500Y-16500D03*
G54D16*
X73250Y-15500D03*
G54D17*
X73250Y-16500D03*
G54D16*
X36750Y-18750D03*
G54D17*
X35750Y-18750D03*
X34750Y-18750D03*
X33750Y-18750D03*
X32750Y-18750D03*
G54D16*
X46750Y-18750D03*
G54D17*
X45750Y-18750D03*
X44750Y-18750D03*
X43750Y-18750D03*
X42750Y-18750D03*
G54D16*
X35250Y-33250D03*
G54D17*
X34250Y-33250D03*
X33250Y-33250D03*
X32250Y-33250D03*
X31250Y-33250D03*
G54D27*
X77250Y-14000D03*
X80250Y-14000D03*
G54D16*
X66750Y-31750D03*
G54D17*
X67750Y-31750D03*
X68750Y-31750D03*
G54D16*
X78750Y-17500D03*
G54D17*
X78750Y-16500D03*
X78750Y-15500D03*
G54D30*
X82100Y-54500D03*
G54D31*
X83000Y-57000D03*
G54D30*
X83900Y-54500D03*
G54D22*
X78550Y-54350D03*
X85550Y-54350D03*
G54D32*
X70250Y-42750D03*
G54D33*
X72250Y-40750D03*
G54D32*
X79750Y-43050D03*
G54D33*
X81750Y-41050D03*
G54D25*
X42000Y-49500D03*
X43000Y-49500D03*
X48000Y-39750D03*
X47000Y-39750D03*
X54500Y-45000D03*
X55500Y-45000D03*
X56500Y-45750D03*
X57500Y-45750D03*
G54D27*
X79000Y-52250D03*
X82000Y-52250D03*
G54D34*
X63750Y-39750D03*
X62250Y-42250D03*
G54D27*
X65500Y-45750D03*
X65500Y-42750D03*
X64500Y-34250D03*
X64500Y-37250D03*
X77250Y-53750D03*
X77250Y-56750D03*
M02*
