M48
;DRILL file {PCBnew (2011-05-25)-stable} date Tue 07 Aug 2012 06:20:39 PM MDT
;FORMAT={-:-/ absolute / inch / decimal}
FMAT,2
INCH,TZ
T1C0.025
T2C0.032
T3C0.040
T4C0.045
T5C0.047
T6C0.050
T7C0.052
T8C0.060
T9C0.200
%
G90
G05
M72
T1
X3.175Y-4.100
X3.175Y-5.125
X3.425Y-5.650
X3.600Y-5.675
X3.750Y-5.600
X3.875Y-5.725
X4.000Y-5.850
X4.175Y-2.775
X4.175Y-3.275
X4.350Y-3.300
X4.400Y-5.000
X4.410Y-5.095
X4.475Y-5.500
X4.500Y-3.300
X4.700Y-5.475
X4.775Y-4.225
X4.775Y-5.800
X4.800Y-5.475
X5.000Y-4.625
X5.025Y-3.375
X5.200Y-5.825
X5.225Y-4.175
X5.325Y-4.025
X5.325Y-5.500
X5.375Y-4.050
X5.375Y-4.275
X5.500Y-4.400
X5.675Y-2.075
X5.700Y-3.625
X5.700Y-4.475
X5.725Y-3.925
X5.825Y-3.900
X5.825Y-4.075
X5.825Y-4.425
X5.825Y-4.975
X5.850Y-4.900
X5.875Y-3.625
X5.900Y-4.375
X5.925Y-2.375
X5.925Y-2.550
X5.925Y-3.475
X5.925Y-3.875
X5.950Y-5.225
X6.100Y-5.450
X6.225Y-3.800
X6.225Y-4.100
X6.225Y-4.225
X6.300Y-1.400
X6.375Y-3.975
X6.625Y-1.925
X6.675Y-3.525
X6.700Y-5.200
X6.775Y-2.850
X6.800Y-2.150
X6.875Y-2.175
X6.875Y-5.025
X6.900Y-4.050
X6.950Y-1.925
X7.025Y-3.925
X7.100Y-5.725
X7.125Y-2.925
X7.145Y-3.015
X7.200Y-5.825
X7.225Y-1.925
X7.225Y-3.175
X7.250Y-5.275
X7.275Y-3.300
X7.275Y-4.945
X7.475Y-2.875
X7.500Y-3.325
X7.600Y-3.225
X7.650Y-5.800
X7.750Y-2.275
X7.750Y-2.880
X7.875Y-3.550
X7.900Y-2.275
X8.000Y-1.475
X8.125Y-1.600
X8.200Y-5.050
T2
X3.325Y-3.625
X3.325Y-3.925
X3.325Y-4.075
X3.325Y-4.375
X3.325Y-4.525
X3.325Y-4.825
X3.325Y-5.075
X3.325Y-5.375
X3.375Y-2.625
X3.375Y-2.925
X3.425Y-3.625
X3.425Y-3.925
X3.425Y-4.075
X3.425Y-4.375
X3.425Y-4.525
X3.425Y-4.825
X3.425Y-5.075
X3.425Y-5.375
X3.475Y-2.175
X3.475Y-2.475
X3.475Y-2.625
X3.475Y-2.925
X3.525Y-3.625
X3.525Y-3.925
X3.525Y-4.075
X3.525Y-4.375
X3.525Y-4.525
X3.525Y-4.825
X3.525Y-5.075
X3.525Y-5.375
X3.575Y-2.175
X3.575Y-2.475
X3.575Y-2.625
X3.575Y-2.925
X3.625Y-3.625
X3.625Y-3.925
X3.625Y-4.075
X3.625Y-4.375
X3.625Y-4.525
X3.625Y-4.825
X3.625Y-5.075
X3.625Y-5.375
X3.675Y-2.175
X3.675Y-2.475
X3.675Y-2.625
X3.675Y-2.925
X3.725Y-3.625
X3.725Y-3.925
X3.725Y-4.075
X3.725Y-4.375
X3.725Y-4.525
X3.725Y-4.825
X3.725Y-5.075
X3.725Y-5.375
X3.775Y-2.175
X3.775Y-2.475
X3.775Y-2.625
X3.775Y-2.925
X3.825Y-3.625
X3.825Y-3.925
X3.825Y-4.075
X3.825Y-4.375
X3.825Y-4.525
X3.825Y-4.825
X3.825Y-5.075
X3.825Y-5.375
X3.875Y-2.175
X3.875Y-2.475
X3.875Y-2.625
X3.875Y-2.925
X3.925Y-3.625
X3.925Y-3.925
X3.925Y-4.075
X3.925Y-4.375
X3.925Y-4.525
X3.925Y-4.825
X3.925Y-5.075
X3.925Y-5.375
X3.975Y-2.175
X3.975Y-2.475
X3.975Y-2.625
X3.975Y-2.925
X4.025Y-3.625
X4.025Y-3.925
X4.025Y-4.075
X4.025Y-4.375
X4.025Y-4.525
X4.025Y-4.825
X4.025Y-5.075
X4.025Y-5.375
X4.075Y-2.175
X4.075Y-2.475
X4.075Y-2.625
X4.075Y-2.925
X4.125Y-4.075
X4.125Y-4.375
X4.125Y-4.525
X4.125Y-4.825
X4.125Y-5.075
X4.125Y-5.375
X4.175Y-2.175
X4.175Y-2.475
X4.175Y-2.625
X4.175Y-2.925
X4.200Y-4.950
X4.225Y-4.525
X4.225Y-4.825
X4.275Y-2.175
X4.275Y-2.475
X4.300Y-4.950
X4.325Y-4.075
X4.325Y-4.375
X4.325Y-4.525
X4.325Y-4.825
X4.375Y-2.175
X4.375Y-2.475
X4.375Y-2.625
X4.375Y-2.925
X4.425Y-4.525
X4.425Y-4.825
X4.475Y-2.175
X4.475Y-2.475
X4.475Y-2.625
X4.475Y-2.925
X4.525Y-4.075
X4.525Y-4.375
X4.525Y-4.525
X4.525Y-4.825
X4.575Y-2.175
X4.575Y-2.475
X4.575Y-2.625
X4.575Y-2.925
X4.625Y-4.525
X4.625Y-4.825
X4.675Y-2.175
X4.675Y-2.475
X4.675Y-2.625
X4.675Y-2.925
X4.700Y-3.975
X4.775Y-2.175
X4.775Y-2.475
X4.775Y-2.625
X4.775Y-2.925
X4.800Y-3.975
X4.875Y-2.175
X4.875Y-2.475
X4.875Y-2.625
X4.875Y-2.925
X4.925Y-3.175
X4.925Y-3.275
X4.925Y-3.375
X4.925Y-3.475
X4.925Y-3.575
X4.925Y-3.675
X4.925Y-3.775
X4.925Y-3.875
X4.925Y-3.975
X4.925Y-4.075
X4.925Y-4.175
X4.925Y-4.275
X4.925Y-4.375
X4.925Y-4.475
X4.975Y-2.175
X4.975Y-2.475
X4.975Y-2.625
X4.975Y-2.925
X4.975Y-4.775
X4.975Y-5.075
X4.975Y-5.225
X5.075Y-2.625
X5.075Y-2.925
X5.075Y-4.775
X5.075Y-5.075
X5.075Y-5.225
X5.175Y-2.625
X5.175Y-2.925
X5.175Y-4.775
X5.175Y-5.075
X5.175Y-5.225
X5.225Y-3.175
X5.225Y-3.275
X5.225Y-3.375
X5.225Y-3.475
X5.225Y-3.575
X5.225Y-3.675
X5.225Y-3.775
X5.225Y-3.875
X5.225Y-3.975
X5.225Y-4.075
X5.225Y-4.175
X5.225Y-4.275
X5.225Y-4.375
X5.225Y-4.475
X5.275Y-4.775
X5.275Y-5.075
X5.275Y-5.225
X5.375Y-4.175
X5.375Y-4.375
X5.375Y-4.775
X5.375Y-5.075
X5.375Y-5.225
X5.450Y-4.500
X5.475Y-4.775
X5.475Y-5.075
X5.475Y-5.225
X5.525Y-1.600
X5.525Y-1.800
X5.550Y-4.500
X5.575Y-4.775
X5.575Y-5.075
X5.575Y-5.225
X5.650Y-4.575
X5.675Y-4.175
X5.675Y-4.375
X5.675Y-4.775
X5.675Y-5.075
X5.675Y-5.225
X5.750Y-4.575
X5.775Y-4.775
X5.775Y-5.075
X5.775Y-5.225
X5.925Y-3.875
X5.975Y-3.025
X6.225Y-4.375
X6.325Y-4.225
X6.375Y-5.025
X6.375Y-5.125
X6.425Y-4.225
X6.425Y-4.375
X6.425Y-5.325
X6.425Y-5.425
X6.450Y-3.425
X6.450Y-3.725
X6.475Y-5.125
X6.550Y-4.350
X6.550Y-4.650
X6.575Y-3.725
X6.675Y-3.725
X6.700Y-2.675
X6.700Y-2.775
X6.725Y-5.325
X6.725Y-5.425
X6.875Y-5.225
X6.900Y-2.675
X6.900Y-2.775
X6.975Y-5.225
X6.985Y-4.535
X7.025Y-4.275
X7.050Y-1.375
X7.050Y-2.175
X7.050Y-2.275
X7.050Y-2.375
X7.050Y-2.475
X7.050Y-2.575
X7.050Y-2.675
X7.050Y-2.775
X7.050Y-2.875
X7.050Y-2.975
X7.050Y-3.075
X7.050Y-3.175
X7.050Y-3.275
X7.050Y-3.375
X7.050Y-3.475
X7.185Y-4.535
X7.225Y-4.075
X7.275Y-5.125
X7.350Y-1.375
X7.350Y-2.175
X7.350Y-2.275
X7.350Y-2.375
X7.350Y-2.475
X7.350Y-2.575
X7.350Y-2.675
X7.350Y-2.775
X7.350Y-2.875
X7.350Y-2.975
X7.350Y-3.075
X7.350Y-3.175
X7.350Y-3.275
X7.350Y-3.375
X7.350Y-3.475
X7.475Y-4.450
X7.475Y-5.125
X7.525Y-2.525
X7.525Y-2.725
X7.525Y-4.875
X7.600Y-4.625
X7.600Y-4.725
X7.700Y-2.475
X7.700Y-2.575
X7.700Y-2.675
X7.700Y-2.775
X7.725Y-1.400
X7.725Y-4.875
X7.725Y-4.975
X7.725Y-5.275
X7.725Y-5.375
X7.725Y-5.675
X7.775Y-4.450
X7.825Y-5.675
X7.850Y-2.950
X7.900Y-5.225
X7.925Y-5.675
X7.950Y-2.400
X7.950Y-2.950
X7.950Y-3.050
X7.975Y-4.305
X8.025Y-1.400
X8.050Y-2.400
X8.050Y-2.500
X8.075Y-1.925
X8.075Y-2.100
X8.125Y-2.600
X8.125Y-2.900
X8.125Y-3.075
X8.125Y-3.375
X8.175Y-4.105
X8.200Y-5.225
X8.250Y-2.500
X8.250Y-2.600
X8.250Y-2.925
X8.250Y-3.025
X8.275Y-5.275
X8.300Y-3.275
X8.300Y-3.475
X8.375Y-1.925
X8.375Y-2.100
X8.400Y-3.475
X8.400Y-3.675
X8.425Y-4.175
X8.425Y-4.475
X8.525Y-1.925
X8.525Y-2.350
X8.575Y-5.275
X8.625Y-1.925
X8.625Y-2.350
X8.625Y-4.175
X8.625Y-4.475
X8.700Y-3.475
X8.700Y-3.675
T3
X3.075Y-4.125
X3.075Y-4.225
X3.075Y-4.325
X3.075Y-5.125
X3.075Y-5.225
X3.075Y-5.325
X3.125Y-2.675
X3.125Y-2.775
X3.125Y-2.875
X3.125Y-3.325
X3.225Y-3.325
X3.275Y-1.875
X3.325Y-3.325
X3.375Y-1.875
X3.400Y-5.975
X3.425Y-3.325
X3.475Y-1.875
X3.500Y-5.975
X3.525Y-3.325
X3.575Y-1.875
X3.600Y-5.975
X3.625Y-3.325
X3.675Y-1.875
X3.700Y-5.975
X3.725Y-3.325
X3.775Y-1.875
X3.800Y-5.975
X3.825Y-3.325
X3.875Y-1.875
X3.900Y-5.975
X3.925Y-3.325
X3.975Y-1.875
X4.025Y-3.325
X4.075Y-1.875
X4.175Y-1.875
X4.275Y-1.875
X4.375Y-1.875
X4.475Y-1.875
X4.575Y-1.875
X4.650Y-5.975
X4.675Y-1.875
X4.750Y-5.975
X4.775Y-1.875
X4.850Y-5.975
X4.875Y-1.875
X4.950Y-5.975
X4.975Y-1.875
X4.975Y-5.375
X5.050Y-5.975
X5.075Y-1.875
X5.075Y-5.375
X5.150Y-5.975
X5.175Y-1.875
X5.175Y-5.375
X5.275Y-5.375
X5.375Y-5.375
X5.425Y-2.675
X5.425Y-2.775
X5.425Y-2.875
X5.475Y-5.375
X5.575Y-5.375
X5.675Y-5.375
X5.900Y-5.975
X6.000Y-5.975
X6.100Y-5.975
X6.200Y-5.975
X6.225Y-4.675
X6.300Y-5.975
X6.400Y-5.975
X6.425Y-4.675
X6.500Y-2.150
X6.500Y-2.300
X6.500Y-2.450
X6.600Y-2.150
X6.600Y-2.300
X6.600Y-2.450
X6.675Y-3.175
X6.675Y-3.975
X6.675Y-4.175
X6.700Y-2.150
X6.700Y-2.300
X6.700Y-2.450
X6.775Y-3.175
X6.875Y-1.550
X6.875Y-1.650
X6.875Y-3.175
X6.975Y-1.550
X6.975Y-1.650
X7.075Y-1.550
X7.075Y-1.650
X7.175Y-5.525
X7.250Y-5.975
X7.325Y-1.550
X7.325Y-1.650
X7.350Y-5.975
X7.450Y-5.975
X7.550Y-1.550
X7.550Y-1.650
X7.550Y-5.975
X7.575Y-5.525
X7.600Y-4.100
X7.600Y-4.300
X7.650Y-5.975
X7.750Y-5.975
X7.875Y-1.550
X7.875Y-1.650
X7.875Y-1.750
X8.275Y-4.625
X8.625Y-2.825
X8.625Y-2.925
X8.625Y-3.025
X8.625Y-3.125
X8.625Y-3.225
X8.625Y-3.325
X8.675Y-4.625
T4
X6.675Y-4.575
X6.675Y-5.075
T5
X7.875Y-4.637
X7.875Y-4.775
X7.875Y-4.913
X7.994Y-4.704
X7.994Y-4.846
T6
X3.800Y-1.475
X7.855Y-5.435
X8.555Y-5.435
T7
X4.127Y-5.975
X4.324Y-5.975
X5.376Y-5.975
X5.573Y-5.975
X6.626Y-5.975
X6.823Y-5.975
X7.976Y-5.975
X8.173Y-5.975
X8.575Y-4.927
X8.575Y-5.124
T8
X5.300Y-1.475
T9
X3.075Y-1.475
X3.075Y-5.975
X8.575Y-1.475
X8.575Y-5.975
T0
M30
