G04 (created by PCBNEW (2011-05-25)-stable) date Sat 09 Jun 2012 10:58:31 AM MDT*
G01*
G70*
G90*
%MOIN*%
G04 Gerber Fmt 3.4, Leading zero omitted, Abs format*
%FSLAX34Y34*%
G04 APERTURE LIST*
%ADD10C,0.001000*%
%ADD11C,0.015000*%
%ADD12C,0.008000*%
G04 APERTURE END LIST*
G54D10*
G54D11*
X90000Y-70000D02*
X90000Y-71250D01*
X30000Y-71250D02*
X30000Y-69500D01*
X30000Y-20000D02*
X30000Y-70000D01*
X90000Y-20000D02*
X30000Y-20000D01*
X90000Y-70000D02*
X90000Y-20000D01*
X30000Y-71250D02*
X90000Y-71250D01*
G54D10*
X64382Y-40882D02*
X64618Y-41118D01*
X64618Y-40882D02*
X64382Y-41118D01*
X64382Y-43882D02*
X64618Y-44118D01*
X64618Y-43882D02*
X64382Y-44118D01*
X40625Y-66500D02*
X40622Y-66524D01*
X40615Y-66547D01*
X40604Y-66569D01*
X40588Y-66588D01*
X40569Y-66603D01*
X40548Y-66615D01*
X40525Y-66622D01*
X40500Y-66624D01*
X40477Y-66622D01*
X40454Y-66615D01*
X40432Y-66604D01*
X40413Y-66589D01*
X40397Y-66570D01*
X40386Y-66549D01*
X40378Y-66525D01*
X40376Y-66501D01*
X40378Y-66478D01*
X40384Y-66454D01*
X40395Y-66433D01*
X40411Y-66414D01*
X40429Y-66398D01*
X40450Y-66386D01*
X40474Y-66378D01*
X40498Y-66376D01*
X40521Y-66377D01*
X40545Y-66384D01*
X40566Y-66395D01*
X40586Y-66410D01*
X40602Y-66428D01*
X40614Y-66450D01*
X40621Y-66473D01*
X40624Y-66497D01*
X40625Y-66500D01*
X41625Y-65000D02*
X41622Y-65024D01*
X41615Y-65047D01*
X41604Y-65069D01*
X41588Y-65088D01*
X41569Y-65103D01*
X41548Y-65115D01*
X41525Y-65122D01*
X41500Y-65124D01*
X41477Y-65122D01*
X41454Y-65115D01*
X41432Y-65104D01*
X41413Y-65089D01*
X41397Y-65070D01*
X41386Y-65049D01*
X41378Y-65025D01*
X41376Y-65001D01*
X41378Y-64978D01*
X41384Y-64954D01*
X41395Y-64933D01*
X41411Y-64914D01*
X41429Y-64898D01*
X41450Y-64886D01*
X41474Y-64878D01*
X41498Y-64876D01*
X41521Y-64877D01*
X41545Y-64884D01*
X41566Y-64895D01*
X41586Y-64910D01*
X41602Y-64928D01*
X41614Y-64950D01*
X41621Y-64973D01*
X41624Y-64997D01*
X41625Y-65000D01*
X46375Y-50000D02*
X46372Y-50024D01*
X46365Y-50047D01*
X46354Y-50069D01*
X46338Y-50088D01*
X46319Y-50103D01*
X46298Y-50115D01*
X46275Y-50122D01*
X46250Y-50124D01*
X46227Y-50122D01*
X46204Y-50115D01*
X46182Y-50104D01*
X46163Y-50089D01*
X46147Y-50070D01*
X46136Y-50049D01*
X46128Y-50025D01*
X46126Y-50001D01*
X46128Y-49978D01*
X46134Y-49954D01*
X46145Y-49933D01*
X46161Y-49914D01*
X46179Y-49898D01*
X46200Y-49886D01*
X46224Y-49878D01*
X46248Y-49876D01*
X46271Y-49877D01*
X46295Y-49884D01*
X46316Y-49895D01*
X46336Y-49910D01*
X46352Y-49928D01*
X46364Y-49950D01*
X46371Y-49973D01*
X46374Y-49997D01*
X46375Y-50000D01*
X51875Y-50000D02*
X51872Y-50024D01*
X51865Y-50047D01*
X51854Y-50069D01*
X51838Y-50088D01*
X51819Y-50103D01*
X51798Y-50115D01*
X51775Y-50122D01*
X51750Y-50124D01*
X51727Y-50122D01*
X51704Y-50115D01*
X51682Y-50104D01*
X51663Y-50089D01*
X51647Y-50070D01*
X51636Y-50049D01*
X51628Y-50025D01*
X51626Y-50001D01*
X51628Y-49978D01*
X51634Y-49954D01*
X51645Y-49933D01*
X51661Y-49914D01*
X51679Y-49898D01*
X51700Y-49886D01*
X51724Y-49878D01*
X51748Y-49876D01*
X51771Y-49877D01*
X51795Y-49884D01*
X51816Y-49895D01*
X51836Y-49910D01*
X51852Y-49928D01*
X51864Y-49950D01*
X51871Y-49973D01*
X51874Y-49997D01*
X51875Y-50000D01*
X51875Y-57000D02*
X51872Y-57024D01*
X51865Y-57047D01*
X51854Y-57069D01*
X51838Y-57088D01*
X51819Y-57103D01*
X51798Y-57115D01*
X51775Y-57122D01*
X51750Y-57124D01*
X51727Y-57122D01*
X51704Y-57115D01*
X51682Y-57104D01*
X51663Y-57089D01*
X51647Y-57070D01*
X51636Y-57049D01*
X51628Y-57025D01*
X51626Y-57001D01*
X51628Y-56978D01*
X51634Y-56954D01*
X51645Y-56933D01*
X51661Y-56914D01*
X51679Y-56898D01*
X51700Y-56886D01*
X51724Y-56878D01*
X51748Y-56876D01*
X51771Y-56877D01*
X51795Y-56884D01*
X51816Y-56895D01*
X51836Y-56910D01*
X51852Y-56928D01*
X51864Y-56950D01*
X51871Y-56973D01*
X51874Y-56997D01*
X51875Y-57000D01*
X54125Y-55750D02*
X54122Y-55774D01*
X54115Y-55797D01*
X54104Y-55819D01*
X54088Y-55838D01*
X54069Y-55853D01*
X54048Y-55865D01*
X54025Y-55872D01*
X54000Y-55874D01*
X53977Y-55872D01*
X53954Y-55865D01*
X53932Y-55854D01*
X53913Y-55839D01*
X53897Y-55820D01*
X53886Y-55799D01*
X53878Y-55775D01*
X53876Y-55751D01*
X53878Y-55728D01*
X53884Y-55704D01*
X53895Y-55683D01*
X53911Y-55664D01*
X53929Y-55648D01*
X53950Y-55636D01*
X53974Y-55628D01*
X53998Y-55626D01*
X54021Y-55627D01*
X54045Y-55634D01*
X54066Y-55645D01*
X54086Y-55660D01*
X54102Y-55678D01*
X54114Y-55700D01*
X54121Y-55723D01*
X54124Y-55747D01*
X54125Y-55750D01*
X55125Y-56250D02*
X55122Y-56274D01*
X55115Y-56297D01*
X55104Y-56319D01*
X55088Y-56338D01*
X55069Y-56353D01*
X55048Y-56365D01*
X55025Y-56372D01*
X55000Y-56374D01*
X54977Y-56372D01*
X54954Y-56365D01*
X54932Y-56354D01*
X54913Y-56339D01*
X54897Y-56320D01*
X54886Y-56299D01*
X54878Y-56275D01*
X54876Y-56251D01*
X54878Y-56228D01*
X54884Y-56204D01*
X54895Y-56183D01*
X54911Y-56164D01*
X54929Y-56148D01*
X54950Y-56136D01*
X54974Y-56128D01*
X54998Y-56126D01*
X55021Y-56127D01*
X55045Y-56134D01*
X55066Y-56145D01*
X55086Y-56160D01*
X55102Y-56178D01*
X55114Y-56200D01*
X55121Y-56223D01*
X55124Y-56247D01*
X55125Y-56250D01*
X58125Y-43500D02*
X58122Y-43524D01*
X58115Y-43547D01*
X58104Y-43569D01*
X58088Y-43588D01*
X58069Y-43603D01*
X58048Y-43615D01*
X58025Y-43622D01*
X58000Y-43624D01*
X57977Y-43622D01*
X57954Y-43615D01*
X57932Y-43604D01*
X57913Y-43589D01*
X57897Y-43570D01*
X57886Y-43549D01*
X57878Y-43525D01*
X57876Y-43501D01*
X57878Y-43478D01*
X57884Y-43454D01*
X57895Y-43433D01*
X57911Y-43414D01*
X57929Y-43398D01*
X57950Y-43386D01*
X57974Y-43378D01*
X57998Y-43376D01*
X58021Y-43377D01*
X58045Y-43384D01*
X58066Y-43395D01*
X58086Y-43410D01*
X58102Y-43428D01*
X58114Y-43450D01*
X58121Y-43473D01*
X58124Y-43497D01*
X58125Y-43500D01*
X60125Y-54750D02*
X60122Y-54774D01*
X60115Y-54797D01*
X60104Y-54819D01*
X60088Y-54838D01*
X60069Y-54853D01*
X60048Y-54865D01*
X60025Y-54872D01*
X60000Y-54874D01*
X59977Y-54872D01*
X59954Y-54865D01*
X59932Y-54854D01*
X59913Y-54839D01*
X59897Y-54820D01*
X59886Y-54799D01*
X59878Y-54775D01*
X59876Y-54751D01*
X59878Y-54728D01*
X59884Y-54704D01*
X59895Y-54683D01*
X59911Y-54664D01*
X59929Y-54648D01*
X59950Y-54636D01*
X59974Y-54628D01*
X59998Y-54626D01*
X60021Y-54627D01*
X60045Y-54634D01*
X60066Y-54645D01*
X60086Y-54660D01*
X60102Y-54678D01*
X60114Y-54700D01*
X60121Y-54723D01*
X60124Y-54747D01*
X60125Y-54750D01*
X61625Y-55250D02*
X61622Y-55274D01*
X61615Y-55297D01*
X61604Y-55319D01*
X61588Y-55338D01*
X61569Y-55353D01*
X61548Y-55365D01*
X61525Y-55372D01*
X61500Y-55374D01*
X61477Y-55372D01*
X61454Y-55365D01*
X61432Y-55354D01*
X61413Y-55339D01*
X61397Y-55320D01*
X61386Y-55299D01*
X61378Y-55275D01*
X61376Y-55251D01*
X61378Y-55228D01*
X61384Y-55204D01*
X61395Y-55183D01*
X61411Y-55164D01*
X61429Y-55148D01*
X61450Y-55136D01*
X61474Y-55128D01*
X61498Y-55126D01*
X61521Y-55127D01*
X61545Y-55134D01*
X61566Y-55145D01*
X61586Y-55160D01*
X61602Y-55178D01*
X61614Y-55200D01*
X61621Y-55223D01*
X61624Y-55247D01*
X61625Y-55250D01*
X61625Y-57250D02*
X61622Y-57274D01*
X61615Y-57297D01*
X61604Y-57319D01*
X61588Y-57338D01*
X61569Y-57353D01*
X61548Y-57365D01*
X61525Y-57372D01*
X61500Y-57374D01*
X61477Y-57372D01*
X61454Y-57365D01*
X61432Y-57354D01*
X61413Y-57339D01*
X61397Y-57320D01*
X61386Y-57299D01*
X61378Y-57275D01*
X61376Y-57251D01*
X61378Y-57228D01*
X61384Y-57204D01*
X61395Y-57183D01*
X61411Y-57164D01*
X61429Y-57148D01*
X61450Y-57136D01*
X61474Y-57128D01*
X61498Y-57126D01*
X61521Y-57127D01*
X61545Y-57134D01*
X61566Y-57145D01*
X61586Y-57160D01*
X61602Y-57178D01*
X61614Y-57200D01*
X61621Y-57223D01*
X61624Y-57247D01*
X61625Y-57250D01*
X63125Y-33000D02*
X63122Y-33024D01*
X63115Y-33047D01*
X63104Y-33069D01*
X63088Y-33088D01*
X63069Y-33103D01*
X63048Y-33115D01*
X63025Y-33122D01*
X63000Y-33124D01*
X62977Y-33122D01*
X62954Y-33115D01*
X62932Y-33104D01*
X62913Y-33089D01*
X62897Y-33070D01*
X62886Y-33049D01*
X62878Y-33025D01*
X62876Y-33001D01*
X62878Y-32978D01*
X62884Y-32954D01*
X62895Y-32933D01*
X62911Y-32914D01*
X62929Y-32898D01*
X62950Y-32886D01*
X62974Y-32878D01*
X62998Y-32876D01*
X63021Y-32877D01*
X63045Y-32884D01*
X63066Y-32895D01*
X63086Y-32910D01*
X63102Y-32928D01*
X63114Y-32950D01*
X63121Y-32973D01*
X63124Y-32997D01*
X63125Y-33000D01*
X67875Y-38500D02*
X67872Y-38524D01*
X67865Y-38547D01*
X67854Y-38569D01*
X67838Y-38588D01*
X67819Y-38603D01*
X67798Y-38615D01*
X67775Y-38622D01*
X67750Y-38624D01*
X67727Y-38622D01*
X67704Y-38615D01*
X67682Y-38604D01*
X67663Y-38589D01*
X67647Y-38570D01*
X67636Y-38549D01*
X67628Y-38525D01*
X67626Y-38501D01*
X67628Y-38478D01*
X67634Y-38454D01*
X67645Y-38433D01*
X67661Y-38414D01*
X67679Y-38398D01*
X67700Y-38386D01*
X67724Y-38378D01*
X67748Y-38376D01*
X67771Y-38377D01*
X67795Y-38384D01*
X67816Y-38395D01*
X67836Y-38410D01*
X67852Y-38428D01*
X67864Y-38450D01*
X67871Y-38473D01*
X67874Y-38497D01*
X67875Y-38500D01*
X68375Y-23500D02*
X68372Y-23524D01*
X68365Y-23547D01*
X68354Y-23569D01*
X68338Y-23588D01*
X68319Y-23603D01*
X68298Y-23615D01*
X68275Y-23622D01*
X68250Y-23624D01*
X68227Y-23622D01*
X68204Y-23615D01*
X68182Y-23604D01*
X68163Y-23589D01*
X68147Y-23570D01*
X68136Y-23549D01*
X68128Y-23525D01*
X68126Y-23501D01*
X68128Y-23478D01*
X68134Y-23454D01*
X68145Y-23433D01*
X68161Y-23414D01*
X68179Y-23398D01*
X68200Y-23386D01*
X68224Y-23378D01*
X68248Y-23376D01*
X68271Y-23377D01*
X68295Y-23384D01*
X68316Y-23395D01*
X68336Y-23410D01*
X68352Y-23428D01*
X68364Y-23450D01*
X68371Y-23473D01*
X68374Y-23497D01*
X68375Y-23500D01*
X68375Y-44500D02*
X68372Y-44524D01*
X68365Y-44547D01*
X68354Y-44569D01*
X68338Y-44588D01*
X68319Y-44603D01*
X68298Y-44615D01*
X68275Y-44622D01*
X68250Y-44624D01*
X68227Y-44622D01*
X68204Y-44615D01*
X68182Y-44604D01*
X68163Y-44589D01*
X68147Y-44570D01*
X68136Y-44549D01*
X68128Y-44525D01*
X68126Y-44501D01*
X68128Y-44478D01*
X68134Y-44454D01*
X68145Y-44433D01*
X68161Y-44414D01*
X68179Y-44398D01*
X68200Y-44386D01*
X68224Y-44378D01*
X68248Y-44376D01*
X68271Y-44377D01*
X68295Y-44384D01*
X68316Y-44395D01*
X68336Y-44410D01*
X68352Y-44428D01*
X68364Y-44450D01*
X68371Y-44473D01*
X68374Y-44497D01*
X68375Y-44500D01*
X68875Y-42750D02*
X68872Y-42774D01*
X68865Y-42797D01*
X68854Y-42819D01*
X68838Y-42838D01*
X68819Y-42853D01*
X68798Y-42865D01*
X68775Y-42872D01*
X68750Y-42874D01*
X68727Y-42872D01*
X68704Y-42865D01*
X68682Y-42854D01*
X68663Y-42839D01*
X68647Y-42820D01*
X68636Y-42799D01*
X68628Y-42775D01*
X68626Y-42751D01*
X68628Y-42728D01*
X68634Y-42704D01*
X68645Y-42683D01*
X68661Y-42664D01*
X68679Y-42648D01*
X68700Y-42636D01*
X68724Y-42628D01*
X68748Y-42626D01*
X68771Y-42627D01*
X68795Y-42634D01*
X68816Y-42645D01*
X68836Y-42660D01*
X68852Y-42678D01*
X68864Y-42700D01*
X68871Y-42723D01*
X68874Y-42747D01*
X68875Y-42750D01*
X70125Y-31250D02*
X70122Y-31274D01*
X70115Y-31297D01*
X70104Y-31319D01*
X70088Y-31338D01*
X70069Y-31353D01*
X70048Y-31365D01*
X70025Y-31372D01*
X70000Y-31374D01*
X69977Y-31372D01*
X69954Y-31365D01*
X69932Y-31354D01*
X69913Y-31339D01*
X69897Y-31320D01*
X69886Y-31299D01*
X69878Y-31275D01*
X69876Y-31251D01*
X69878Y-31228D01*
X69884Y-31204D01*
X69895Y-31183D01*
X69911Y-31164D01*
X69929Y-31148D01*
X69950Y-31136D01*
X69974Y-31128D01*
X69998Y-31126D01*
X70021Y-31127D01*
X70045Y-31134D01*
X70066Y-31145D01*
X70086Y-31160D01*
X70102Y-31178D01*
X70114Y-31200D01*
X70121Y-31223D01*
X70124Y-31247D01*
X70125Y-31250D01*
X70125Y-38000D02*
X70122Y-38024D01*
X70115Y-38047D01*
X70104Y-38069D01*
X70088Y-38088D01*
X70069Y-38103D01*
X70048Y-38115D01*
X70025Y-38122D01*
X70000Y-38124D01*
X69977Y-38122D01*
X69954Y-38115D01*
X69932Y-38104D01*
X69913Y-38089D01*
X69897Y-38070D01*
X69886Y-38049D01*
X69878Y-38025D01*
X69876Y-38001D01*
X69878Y-37978D01*
X69884Y-37954D01*
X69895Y-37933D01*
X69911Y-37914D01*
X69929Y-37898D01*
X69950Y-37886D01*
X69974Y-37878D01*
X69998Y-37876D01*
X70021Y-37877D01*
X70045Y-37884D01*
X70066Y-37895D01*
X70086Y-37910D01*
X70102Y-37928D01*
X70114Y-37950D01*
X70121Y-37973D01*
X70124Y-37997D01*
X70125Y-38000D01*
X72375Y-28000D02*
X72372Y-28024D01*
X72365Y-28047D01*
X72354Y-28069D01*
X72338Y-28088D01*
X72319Y-28103D01*
X72298Y-28115D01*
X72275Y-28122D01*
X72250Y-28124D01*
X72227Y-28122D01*
X72204Y-28115D01*
X72182Y-28104D01*
X72163Y-28089D01*
X72147Y-28070D01*
X72136Y-28049D01*
X72128Y-28025D01*
X72126Y-28001D01*
X72128Y-27978D01*
X72134Y-27954D01*
X72145Y-27933D01*
X72161Y-27914D01*
X72179Y-27898D01*
X72200Y-27886D01*
X72224Y-27878D01*
X72248Y-27876D01*
X72271Y-27877D01*
X72295Y-27884D01*
X72316Y-27895D01*
X72336Y-27910D01*
X72352Y-27928D01*
X72364Y-27950D01*
X72371Y-27973D01*
X72374Y-27997D01*
X72375Y-28000D01*
X73625Y-41500D02*
X73622Y-41524D01*
X73615Y-41547D01*
X73604Y-41569D01*
X73588Y-41588D01*
X73569Y-41603D01*
X73548Y-41615D01*
X73525Y-41622D01*
X73500Y-41624D01*
X73477Y-41622D01*
X73454Y-41615D01*
X73432Y-41604D01*
X73413Y-41589D01*
X73397Y-41570D01*
X73386Y-41549D01*
X73378Y-41525D01*
X73376Y-41501D01*
X73378Y-41478D01*
X73384Y-41454D01*
X73395Y-41433D01*
X73411Y-41414D01*
X73429Y-41398D01*
X73450Y-41386D01*
X73474Y-41378D01*
X73498Y-41376D01*
X73521Y-41377D01*
X73545Y-41384D01*
X73566Y-41395D01*
X73586Y-41410D01*
X73602Y-41428D01*
X73614Y-41450D01*
X73621Y-41473D01*
X73624Y-41497D01*
X73625Y-41500D01*
X73625Y-61500D02*
X73622Y-61524D01*
X73615Y-61547D01*
X73604Y-61569D01*
X73588Y-61588D01*
X73569Y-61603D01*
X73548Y-61615D01*
X73525Y-61622D01*
X73500Y-61624D01*
X73477Y-61622D01*
X73454Y-61615D01*
X73432Y-61604D01*
X73413Y-61589D01*
X73397Y-61570D01*
X73386Y-61549D01*
X73378Y-61525D01*
X73376Y-61501D01*
X73378Y-61478D01*
X73384Y-61454D01*
X73395Y-61433D01*
X73411Y-61414D01*
X73429Y-61398D01*
X73450Y-61386D01*
X73474Y-61378D01*
X73498Y-61376D01*
X73521Y-61377D01*
X73545Y-61384D01*
X73566Y-61395D01*
X73586Y-61410D01*
X73602Y-61428D01*
X73614Y-61450D01*
X73621Y-61473D01*
X73624Y-61497D01*
X73625Y-61500D01*
X73875Y-28000D02*
X73872Y-28024D01*
X73865Y-28047D01*
X73854Y-28069D01*
X73838Y-28088D01*
X73819Y-28103D01*
X73798Y-28115D01*
X73775Y-28122D01*
X73750Y-28124D01*
X73727Y-28122D01*
X73704Y-28115D01*
X73682Y-28104D01*
X73663Y-28089D01*
X73647Y-28070D01*
X73636Y-28049D01*
X73628Y-28025D01*
X73626Y-28001D01*
X73628Y-27978D01*
X73634Y-27954D01*
X73645Y-27933D01*
X73661Y-27914D01*
X73679Y-27898D01*
X73700Y-27886D01*
X73724Y-27878D01*
X73748Y-27876D01*
X73771Y-27877D01*
X73795Y-27884D01*
X73816Y-27895D01*
X73836Y-27910D01*
X73852Y-27928D01*
X73864Y-27950D01*
X73871Y-27973D01*
X73874Y-27997D01*
X73875Y-28000D01*
X74625Y-37250D02*
X74622Y-37274D01*
X74615Y-37297D01*
X74604Y-37319D01*
X74588Y-37338D01*
X74569Y-37353D01*
X74548Y-37365D01*
X74525Y-37372D01*
X74500Y-37374D01*
X74477Y-37372D01*
X74454Y-37365D01*
X74432Y-37354D01*
X74413Y-37339D01*
X74397Y-37320D01*
X74386Y-37299D01*
X74378Y-37275D01*
X74376Y-37251D01*
X74378Y-37228D01*
X74384Y-37204D01*
X74395Y-37183D01*
X74411Y-37164D01*
X74429Y-37148D01*
X74450Y-37136D01*
X74474Y-37128D01*
X74498Y-37126D01*
X74521Y-37127D01*
X74545Y-37134D01*
X74566Y-37145D01*
X74586Y-37160D01*
X74602Y-37178D01*
X74614Y-37200D01*
X74621Y-37223D01*
X74624Y-37247D01*
X74625Y-37250D01*
X74625Y-56500D02*
X74622Y-56524D01*
X74615Y-56547D01*
X74604Y-56569D01*
X74588Y-56588D01*
X74569Y-56603D01*
X74548Y-56615D01*
X74525Y-56622D01*
X74500Y-56624D01*
X74477Y-56622D01*
X74454Y-56615D01*
X74432Y-56604D01*
X74413Y-56589D01*
X74397Y-56570D01*
X74386Y-56549D01*
X74378Y-56525D01*
X74376Y-56501D01*
X74378Y-56478D01*
X74384Y-56454D01*
X74395Y-56433D01*
X74411Y-56414D01*
X74429Y-56398D01*
X74450Y-56386D01*
X74474Y-56378D01*
X74498Y-56376D01*
X74521Y-56377D01*
X74545Y-56384D01*
X74566Y-56395D01*
X74586Y-56410D01*
X74602Y-56428D01*
X74614Y-56450D01*
X74621Y-56473D01*
X74624Y-56497D01*
X74625Y-56500D01*
X74625Y-60500D02*
X74622Y-60524D01*
X74615Y-60547D01*
X74604Y-60569D01*
X74588Y-60588D01*
X74569Y-60603D01*
X74548Y-60615D01*
X74525Y-60622D01*
X74500Y-60624D01*
X74477Y-60622D01*
X74454Y-60615D01*
X74432Y-60604D01*
X74413Y-60589D01*
X74397Y-60570D01*
X74386Y-60549D01*
X74378Y-60525D01*
X74376Y-60501D01*
X74378Y-60478D01*
X74384Y-60454D01*
X74395Y-60433D01*
X74411Y-60414D01*
X74429Y-60398D01*
X74450Y-60386D01*
X74474Y-60378D01*
X74498Y-60376D01*
X74521Y-60377D01*
X74545Y-60384D01*
X74566Y-60395D01*
X74586Y-60410D01*
X74602Y-60428D01*
X74614Y-60450D01*
X74621Y-60473D01*
X74624Y-60497D01*
X74625Y-60500D01*
X74625Y-62500D02*
X74622Y-62524D01*
X74615Y-62547D01*
X74604Y-62569D01*
X74588Y-62588D01*
X74569Y-62603D01*
X74548Y-62615D01*
X74525Y-62622D01*
X74500Y-62624D01*
X74477Y-62622D01*
X74454Y-62615D01*
X74432Y-62604D01*
X74413Y-62589D01*
X74397Y-62570D01*
X74386Y-62549D01*
X74378Y-62525D01*
X74376Y-62501D01*
X74378Y-62478D01*
X74384Y-62454D01*
X74395Y-62433D01*
X74411Y-62414D01*
X74429Y-62398D01*
X74450Y-62386D01*
X74474Y-62378D01*
X74498Y-62376D01*
X74521Y-62377D01*
X74545Y-62384D01*
X74566Y-62395D01*
X74586Y-62410D01*
X74602Y-62428D01*
X74614Y-62450D01*
X74621Y-62473D01*
X74624Y-62497D01*
X74625Y-62500D01*
X74875Y-65750D02*
X74872Y-65774D01*
X74865Y-65797D01*
X74854Y-65819D01*
X74838Y-65838D01*
X74819Y-65853D01*
X74798Y-65865D01*
X74775Y-65872D01*
X74750Y-65874D01*
X74727Y-65872D01*
X74704Y-65865D01*
X74682Y-65854D01*
X74663Y-65839D01*
X74647Y-65820D01*
X74636Y-65799D01*
X74628Y-65775D01*
X74626Y-65751D01*
X74628Y-65728D01*
X74634Y-65704D01*
X74645Y-65683D01*
X74661Y-65664D01*
X74679Y-65648D01*
X74700Y-65636D01*
X74724Y-65628D01*
X74748Y-65626D01*
X74771Y-65627D01*
X74795Y-65634D01*
X74816Y-65645D01*
X74836Y-65660D01*
X74852Y-65678D01*
X74864Y-65700D01*
X74871Y-65723D01*
X74874Y-65747D01*
X74875Y-65750D01*
X75125Y-61250D02*
X75122Y-61274D01*
X75115Y-61297D01*
X75104Y-61319D01*
X75088Y-61338D01*
X75069Y-61353D01*
X75048Y-61365D01*
X75025Y-61372D01*
X75000Y-61374D01*
X74977Y-61372D01*
X74954Y-61365D01*
X74932Y-61354D01*
X74913Y-61339D01*
X74897Y-61320D01*
X74886Y-61299D01*
X74878Y-61275D01*
X74876Y-61251D01*
X74878Y-61228D01*
X74884Y-61204D01*
X74895Y-61183D01*
X74911Y-61164D01*
X74929Y-61148D01*
X74950Y-61136D01*
X74974Y-61128D01*
X74998Y-61126D01*
X75021Y-61127D01*
X75045Y-61134D01*
X75066Y-61145D01*
X75086Y-61160D01*
X75102Y-61178D01*
X75114Y-61200D01*
X75121Y-61223D01*
X75124Y-61247D01*
X75125Y-61250D01*
X76125Y-43500D02*
X76122Y-43524D01*
X76115Y-43547D01*
X76104Y-43569D01*
X76088Y-43588D01*
X76069Y-43603D01*
X76048Y-43615D01*
X76025Y-43622D01*
X76000Y-43624D01*
X75977Y-43622D01*
X75954Y-43615D01*
X75932Y-43604D01*
X75913Y-43589D01*
X75897Y-43570D01*
X75886Y-43549D01*
X75878Y-43525D01*
X75876Y-43501D01*
X75878Y-43478D01*
X75884Y-43454D01*
X75895Y-43433D01*
X75911Y-43414D01*
X75929Y-43398D01*
X75950Y-43386D01*
X75974Y-43378D01*
X75998Y-43376D01*
X76021Y-43377D01*
X76045Y-43384D01*
X76066Y-43395D01*
X76086Y-43410D01*
X76102Y-43428D01*
X76114Y-43450D01*
X76121Y-43473D01*
X76124Y-43497D01*
X76125Y-43500D01*
X77625Y-61250D02*
X77622Y-61274D01*
X77615Y-61297D01*
X77604Y-61319D01*
X77588Y-61338D01*
X77569Y-61353D01*
X77548Y-61365D01*
X77525Y-61372D01*
X77500Y-61374D01*
X77477Y-61372D01*
X77454Y-61365D01*
X77432Y-61354D01*
X77413Y-61339D01*
X77397Y-61320D01*
X77386Y-61299D01*
X77378Y-61275D01*
X77376Y-61251D01*
X77378Y-61228D01*
X77384Y-61204D01*
X77395Y-61183D01*
X77411Y-61164D01*
X77429Y-61148D01*
X77450Y-61136D01*
X77474Y-61128D01*
X77498Y-61126D01*
X77521Y-61127D01*
X77545Y-61134D01*
X77566Y-61145D01*
X77586Y-61160D01*
X77602Y-61178D01*
X77614Y-61200D01*
X77621Y-61223D01*
X77624Y-61247D01*
X77625Y-61250D01*
X78625Y-32000D02*
X78622Y-32024D01*
X78615Y-32047D01*
X78604Y-32069D01*
X78588Y-32088D01*
X78569Y-32103D01*
X78548Y-32115D01*
X78525Y-32122D01*
X78500Y-32124D01*
X78477Y-32122D01*
X78454Y-32115D01*
X78432Y-32104D01*
X78413Y-32089D01*
X78397Y-32070D01*
X78386Y-32049D01*
X78378Y-32025D01*
X78376Y-32001D01*
X78378Y-31978D01*
X78384Y-31954D01*
X78395Y-31933D01*
X78411Y-31914D01*
X78429Y-31898D01*
X78450Y-31886D01*
X78474Y-31878D01*
X78498Y-31876D01*
X78521Y-31877D01*
X78545Y-31884D01*
X78566Y-31895D01*
X78586Y-31910D01*
X78602Y-31928D01*
X78614Y-31950D01*
X78621Y-31973D01*
X78624Y-31997D01*
X78625Y-32000D01*
X79625Y-38500D02*
X79622Y-38524D01*
X79615Y-38547D01*
X79604Y-38569D01*
X79588Y-38588D01*
X79569Y-38603D01*
X79548Y-38615D01*
X79525Y-38622D01*
X79500Y-38624D01*
X79477Y-38622D01*
X79454Y-38615D01*
X79432Y-38604D01*
X79413Y-38589D01*
X79397Y-38570D01*
X79386Y-38549D01*
X79378Y-38525D01*
X79376Y-38501D01*
X79378Y-38478D01*
X79384Y-38454D01*
X79395Y-38433D01*
X79411Y-38414D01*
X79429Y-38398D01*
X79450Y-38386D01*
X79474Y-38378D01*
X79498Y-38376D01*
X79521Y-38377D01*
X79545Y-38384D01*
X79566Y-38395D01*
X79586Y-38410D01*
X79602Y-38428D01*
X79614Y-38450D01*
X79621Y-38473D01*
X79624Y-38497D01*
X79625Y-38500D01*
X85625Y-39500D02*
X85622Y-39524D01*
X85615Y-39547D01*
X85604Y-39569D01*
X85588Y-39588D01*
X85569Y-39603D01*
X85548Y-39615D01*
X85525Y-39622D01*
X85500Y-39624D01*
X85477Y-39622D01*
X85454Y-39615D01*
X85432Y-39604D01*
X85413Y-39589D01*
X85397Y-39570D01*
X85386Y-39549D01*
X85378Y-39525D01*
X85376Y-39501D01*
X85378Y-39478D01*
X85384Y-39454D01*
X85395Y-39433D01*
X85411Y-39414D01*
X85429Y-39398D01*
X85450Y-39386D01*
X85474Y-39378D01*
X85498Y-39376D01*
X85521Y-39377D01*
X85545Y-39384D01*
X85566Y-39395D01*
X85586Y-39410D01*
X85602Y-39428D01*
X85614Y-39450D01*
X85621Y-39473D01*
X85624Y-39497D01*
X85625Y-39500D01*
X85625Y-41750D02*
X85622Y-41774D01*
X85615Y-41797D01*
X85604Y-41819D01*
X85588Y-41838D01*
X85569Y-41853D01*
X85548Y-41865D01*
X85525Y-41872D01*
X85500Y-41874D01*
X85477Y-41872D01*
X85454Y-41865D01*
X85432Y-41854D01*
X85413Y-41839D01*
X85397Y-41820D01*
X85386Y-41799D01*
X85378Y-41775D01*
X85376Y-41751D01*
X85378Y-41728D01*
X85384Y-41704D01*
X85395Y-41683D01*
X85411Y-41664D01*
X85429Y-41648D01*
X85450Y-41636D01*
X85474Y-41628D01*
X85498Y-41626D01*
X85521Y-41627D01*
X85545Y-41634D01*
X85566Y-41645D01*
X85586Y-41660D01*
X85602Y-41678D01*
X85614Y-41700D01*
X85621Y-41723D01*
X85624Y-41747D01*
X85625Y-41750D01*
X32500Y-60840D02*
X32500Y-61160D01*
X32660Y-61000D02*
X32340Y-61000D01*
X32500Y-63840D02*
X32500Y-64160D01*
X32660Y-64000D02*
X32340Y-64000D01*
X33500Y-41840D02*
X33500Y-42160D01*
X33660Y-42000D02*
X33340Y-42000D01*
X33500Y-44840D02*
X33500Y-45160D01*
X33660Y-45000D02*
X33340Y-45000D01*
X33500Y-47840D02*
X33500Y-48160D01*
X33660Y-48000D02*
X33340Y-48000D01*
X33500Y-50340D02*
X33500Y-50660D01*
X33660Y-50500D02*
X33340Y-50500D01*
X33500Y-53340D02*
X33500Y-53660D01*
X33660Y-53500D02*
X33340Y-53500D01*
X33500Y-55840D02*
X33500Y-56160D01*
X33660Y-56000D02*
X33340Y-56000D01*
X33500Y-58840D02*
X33500Y-59160D01*
X33660Y-59000D02*
X33340Y-59000D01*
X33500Y-60840D02*
X33500Y-61160D01*
X33660Y-61000D02*
X33340Y-61000D01*
X33500Y-63840D02*
X33500Y-64160D01*
X33660Y-64000D02*
X33340Y-64000D01*
X34500Y-41840D02*
X34500Y-42160D01*
X34660Y-42000D02*
X34340Y-42000D01*
X34500Y-44840D02*
X34500Y-45160D01*
X34660Y-45000D02*
X34340Y-45000D01*
X34500Y-47840D02*
X34500Y-48160D01*
X34660Y-48000D02*
X34340Y-48000D01*
X34500Y-50340D02*
X34500Y-50660D01*
X34660Y-50500D02*
X34340Y-50500D01*
X34500Y-53340D02*
X34500Y-53660D01*
X34660Y-53500D02*
X34340Y-53500D01*
X34500Y-55840D02*
X34500Y-56160D01*
X34660Y-56000D02*
X34340Y-56000D01*
X34500Y-58840D02*
X34500Y-59160D01*
X34660Y-59000D02*
X34340Y-59000D01*
X34500Y-60840D02*
X34500Y-61160D01*
X34660Y-61000D02*
X34340Y-61000D01*
X34500Y-63840D02*
X34500Y-64160D01*
X34660Y-64000D02*
X34340Y-64000D01*
X35500Y-41840D02*
X35500Y-42160D01*
X35660Y-42000D02*
X35340Y-42000D01*
X35500Y-44840D02*
X35500Y-45160D01*
X35660Y-45000D02*
X35340Y-45000D01*
X35500Y-47840D02*
X35500Y-48160D01*
X35660Y-48000D02*
X35340Y-48000D01*
X35500Y-50340D02*
X35500Y-50660D01*
X35660Y-50500D02*
X35340Y-50500D01*
X35500Y-53340D02*
X35500Y-53660D01*
X35660Y-53500D02*
X35340Y-53500D01*
X35500Y-55840D02*
X35500Y-56160D01*
X35660Y-56000D02*
X35340Y-56000D01*
X35500Y-58840D02*
X35500Y-59160D01*
X35660Y-59000D02*
X35340Y-59000D01*
X35500Y-60840D02*
X35500Y-61160D01*
X35660Y-61000D02*
X35340Y-61000D01*
X35500Y-63840D02*
X35500Y-64160D01*
X35660Y-64000D02*
X35340Y-64000D01*
X36500Y-41840D02*
X36500Y-42160D01*
X36660Y-42000D02*
X36340Y-42000D01*
X36500Y-44840D02*
X36500Y-45160D01*
X36660Y-45000D02*
X36340Y-45000D01*
X36500Y-47840D02*
X36500Y-48160D01*
X36660Y-48000D02*
X36340Y-48000D01*
X36500Y-50340D02*
X36500Y-50660D01*
X36660Y-50500D02*
X36340Y-50500D01*
X36500Y-53340D02*
X36500Y-53660D01*
X36660Y-53500D02*
X36340Y-53500D01*
X36500Y-55840D02*
X36500Y-56160D01*
X36660Y-56000D02*
X36340Y-56000D01*
X36500Y-58840D02*
X36500Y-59160D01*
X36660Y-59000D02*
X36340Y-59000D01*
X36500Y-60840D02*
X36500Y-61160D01*
X36660Y-61000D02*
X36340Y-61000D01*
X36500Y-63840D02*
X36500Y-64160D01*
X36660Y-64000D02*
X36340Y-64000D01*
X37500Y-41840D02*
X37500Y-42160D01*
X37660Y-42000D02*
X37340Y-42000D01*
X37500Y-44840D02*
X37500Y-45160D01*
X37660Y-45000D02*
X37340Y-45000D01*
X37500Y-47840D02*
X37500Y-48160D01*
X37660Y-48000D02*
X37340Y-48000D01*
X37500Y-50340D02*
X37500Y-50660D01*
X37660Y-50500D02*
X37340Y-50500D01*
X37500Y-53340D02*
X37500Y-53660D01*
X37660Y-53500D02*
X37340Y-53500D01*
X37500Y-55840D02*
X37500Y-56160D01*
X37660Y-56000D02*
X37340Y-56000D01*
X37500Y-58840D02*
X37500Y-59160D01*
X37660Y-59000D02*
X37340Y-59000D01*
X37500Y-60840D02*
X37500Y-61160D01*
X37660Y-61000D02*
X37340Y-61000D01*
X37500Y-63840D02*
X37500Y-64160D01*
X37660Y-64000D02*
X37340Y-64000D01*
X38500Y-41840D02*
X38500Y-42160D01*
X38660Y-42000D02*
X38340Y-42000D01*
X38500Y-44840D02*
X38500Y-45160D01*
X38660Y-45000D02*
X38340Y-45000D01*
X38500Y-47840D02*
X38500Y-48160D01*
X38660Y-48000D02*
X38340Y-48000D01*
X38500Y-50340D02*
X38500Y-50660D01*
X38660Y-50500D02*
X38340Y-50500D01*
X38500Y-53340D02*
X38500Y-53660D01*
X38660Y-53500D02*
X38340Y-53500D01*
X38500Y-55840D02*
X38500Y-56160D01*
X38660Y-56000D02*
X38340Y-56000D01*
X38500Y-58840D02*
X38500Y-59160D01*
X38660Y-59000D02*
X38340Y-59000D01*
X38500Y-60840D02*
X38500Y-61160D01*
X38660Y-61000D02*
X38340Y-61000D01*
X38500Y-63840D02*
X38500Y-64160D01*
X38660Y-64000D02*
X38340Y-64000D01*
X39500Y-41840D02*
X39500Y-42160D01*
X39660Y-42000D02*
X39340Y-42000D01*
X39500Y-44840D02*
X39500Y-45160D01*
X39660Y-45000D02*
X39340Y-45000D01*
X39500Y-47840D02*
X39500Y-48160D01*
X39660Y-48000D02*
X39340Y-48000D01*
X39500Y-50340D02*
X39500Y-50660D01*
X39660Y-50500D02*
X39340Y-50500D01*
X39500Y-53340D02*
X39500Y-53660D01*
X39660Y-53500D02*
X39340Y-53500D01*
X39500Y-55840D02*
X39500Y-56160D01*
X39660Y-56000D02*
X39340Y-56000D01*
X39500Y-58840D02*
X39500Y-59160D01*
X39660Y-59000D02*
X39340Y-59000D01*
X39500Y-60840D02*
X39500Y-61160D01*
X39660Y-61000D02*
X39340Y-61000D01*
X39500Y-63840D02*
X39500Y-64160D01*
X39660Y-64000D02*
X39340Y-64000D01*
X40500Y-41840D02*
X40500Y-42160D01*
X40660Y-42000D02*
X40340Y-42000D01*
X40500Y-44840D02*
X40500Y-45160D01*
X40660Y-45000D02*
X40340Y-45000D01*
X40500Y-47840D02*
X40500Y-48160D01*
X40660Y-48000D02*
X40340Y-48000D01*
X40500Y-50340D02*
X40500Y-50660D01*
X40660Y-50500D02*
X40340Y-50500D01*
X40500Y-53340D02*
X40500Y-53660D01*
X40660Y-53500D02*
X40340Y-53500D01*
X40500Y-55840D02*
X40500Y-56160D01*
X40660Y-56000D02*
X40340Y-56000D01*
X40500Y-58840D02*
X40500Y-59160D01*
X40660Y-59000D02*
X40340Y-59000D01*
X40500Y-60840D02*
X40500Y-61160D01*
X40660Y-61000D02*
X40340Y-61000D01*
X40500Y-63840D02*
X40500Y-64160D01*
X40660Y-64000D02*
X40340Y-64000D01*
X41500Y-50340D02*
X41500Y-50660D01*
X41660Y-50500D02*
X41340Y-50500D01*
X41500Y-53340D02*
X41500Y-53660D01*
X41660Y-53500D02*
X41340Y-53500D01*
X41500Y-55840D02*
X41500Y-56160D01*
X41660Y-56000D02*
X41340Y-56000D01*
X41500Y-58840D02*
X41500Y-59160D01*
X41660Y-59000D02*
X41340Y-59000D01*
X42500Y-55840D02*
X42500Y-56160D01*
X42660Y-56000D02*
X42340Y-56000D01*
X42500Y-58840D02*
X42500Y-59160D01*
X42660Y-59000D02*
X42340Y-59000D01*
X43500Y-22340D02*
X43500Y-22660D01*
X43660Y-22500D02*
X43340Y-22500D01*
X43500Y-25340D02*
X43500Y-25660D01*
X43660Y-25500D02*
X43340Y-25500D01*
X43500Y-28340D02*
X43500Y-28660D01*
X43660Y-28500D02*
X43340Y-28500D01*
X43500Y-30340D02*
X43500Y-30660D01*
X43660Y-30500D02*
X43340Y-30500D01*
X43500Y-33340D02*
X43500Y-33660D01*
X43660Y-33500D02*
X43340Y-33500D01*
X43500Y-55840D02*
X43500Y-56160D01*
X43660Y-56000D02*
X43340Y-56000D01*
X43500Y-58840D02*
X43500Y-59160D01*
X43660Y-59000D02*
X43340Y-59000D01*
X44500Y-22340D02*
X44500Y-22660D01*
X44660Y-22500D02*
X44340Y-22500D01*
X44500Y-25340D02*
X44500Y-25660D01*
X44660Y-25500D02*
X44340Y-25500D01*
X44500Y-28340D02*
X44500Y-28660D01*
X44660Y-28500D02*
X44340Y-28500D01*
X44500Y-30340D02*
X44500Y-30660D01*
X44660Y-30500D02*
X44340Y-30500D01*
X44500Y-33340D02*
X44500Y-33660D01*
X44660Y-33500D02*
X44340Y-33500D01*
X44500Y-54340D02*
X44500Y-54660D01*
X44660Y-54500D02*
X44340Y-54500D01*
X44500Y-55840D02*
X44500Y-56160D01*
X44660Y-56000D02*
X44340Y-56000D01*
X44500Y-58840D02*
X44500Y-59160D01*
X44660Y-59000D02*
X44340Y-59000D01*
X45500Y-22340D02*
X45500Y-22660D01*
X45660Y-22500D02*
X45340Y-22500D01*
X45500Y-25340D02*
X45500Y-25660D01*
X45660Y-25500D02*
X45340Y-25500D01*
X45500Y-28340D02*
X45500Y-28660D01*
X45660Y-28500D02*
X45340Y-28500D01*
X45500Y-30340D02*
X45500Y-30660D01*
X45660Y-30500D02*
X45340Y-30500D01*
X45500Y-33340D02*
X45500Y-33660D01*
X45660Y-33500D02*
X45340Y-33500D01*
X45500Y-55840D02*
X45500Y-56160D01*
X45660Y-56000D02*
X45340Y-56000D01*
X45500Y-58840D02*
X45500Y-59160D01*
X45660Y-59000D02*
X45340Y-59000D01*
X46500Y-22340D02*
X46500Y-22660D01*
X46660Y-22500D02*
X46340Y-22500D01*
X46500Y-25340D02*
X46500Y-25660D01*
X46660Y-25500D02*
X46340Y-25500D01*
X46500Y-28340D02*
X46500Y-28660D01*
X46660Y-28500D02*
X46340Y-28500D01*
X46500Y-30340D02*
X46500Y-30660D01*
X46660Y-30500D02*
X46340Y-30500D01*
X46500Y-33340D02*
X46500Y-33660D01*
X46660Y-33500D02*
X46340Y-33500D01*
X46500Y-55840D02*
X46500Y-56160D01*
X46660Y-56000D02*
X46340Y-56000D01*
X46500Y-58840D02*
X46500Y-59160D01*
X46660Y-59000D02*
X46340Y-59000D01*
X47500Y-22340D02*
X47500Y-22660D01*
X47660Y-22500D02*
X47340Y-22500D01*
X47500Y-25340D02*
X47500Y-25660D01*
X47660Y-25500D02*
X47340Y-25500D01*
X47500Y-28340D02*
X47500Y-28660D01*
X47660Y-28500D02*
X47340Y-28500D01*
X47500Y-30340D02*
X47500Y-30660D01*
X47660Y-30500D02*
X47340Y-30500D01*
X47500Y-33340D02*
X47500Y-33660D01*
X47660Y-33500D02*
X47340Y-33500D01*
X47500Y-54340D02*
X47500Y-54660D01*
X47660Y-54500D02*
X47340Y-54500D01*
X48500Y-22340D02*
X48500Y-22660D01*
X48660Y-22500D02*
X48340Y-22500D01*
X48500Y-25340D02*
X48500Y-25660D01*
X48660Y-25500D02*
X48340Y-25500D01*
X48500Y-28340D02*
X48500Y-28660D01*
X48660Y-28500D02*
X48340Y-28500D01*
X48500Y-30340D02*
X48500Y-30660D01*
X48660Y-30500D02*
X48340Y-30500D01*
X48500Y-33340D02*
X48500Y-33660D01*
X48660Y-33500D02*
X48340Y-33500D01*
X49500Y-22340D02*
X49500Y-22660D01*
X49660Y-22500D02*
X49340Y-22500D01*
X49500Y-25340D02*
X49500Y-25660D01*
X49660Y-25500D02*
X49340Y-25500D01*
X49500Y-28340D02*
X49500Y-28660D01*
X49660Y-28500D02*
X49340Y-28500D01*
X49500Y-30340D02*
X49500Y-30660D01*
X49660Y-30500D02*
X49340Y-30500D01*
X49500Y-33340D02*
X49500Y-33660D01*
X49660Y-33500D02*
X49340Y-33500D01*
X50500Y-22340D02*
X50500Y-22660D01*
X50660Y-22500D02*
X50340Y-22500D01*
X50500Y-25340D02*
X50500Y-25660D01*
X50660Y-25500D02*
X50340Y-25500D01*
X50500Y-28340D02*
X50500Y-28660D01*
X50660Y-28500D02*
X50340Y-28500D01*
X50500Y-30340D02*
X50500Y-30660D01*
X50660Y-30500D02*
X50340Y-30500D01*
X50500Y-33340D02*
X50500Y-33660D01*
X50660Y-33500D02*
X50340Y-33500D01*
X51000Y-35840D02*
X51000Y-36160D01*
X51160Y-36000D02*
X50840Y-36000D01*
X51000Y-36840D02*
X51000Y-37160D01*
X51160Y-37000D02*
X50840Y-37000D01*
X51000Y-37840D02*
X51000Y-38160D01*
X51160Y-38000D02*
X50840Y-38000D01*
X51000Y-38840D02*
X51000Y-39160D01*
X51160Y-39000D02*
X50840Y-39000D01*
X51000Y-39840D02*
X51000Y-40160D01*
X51160Y-40000D02*
X50840Y-40000D01*
X51000Y-40840D02*
X51000Y-41160D01*
X51160Y-41000D02*
X50840Y-41000D01*
X51000Y-41840D02*
X51000Y-42160D01*
X51160Y-42000D02*
X50840Y-42000D01*
X51000Y-42840D02*
X51000Y-43160D01*
X51160Y-43000D02*
X50840Y-43000D01*
X51000Y-43840D02*
X51000Y-44160D01*
X51160Y-44000D02*
X50840Y-44000D01*
X51000Y-44840D02*
X51000Y-45160D01*
X51160Y-45000D02*
X50840Y-45000D01*
X51000Y-45840D02*
X51000Y-46160D01*
X51160Y-46000D02*
X50840Y-46000D01*
X51000Y-46840D02*
X51000Y-47160D01*
X51160Y-47000D02*
X50840Y-47000D01*
X51000Y-47840D02*
X51000Y-48160D01*
X51160Y-48000D02*
X50840Y-48000D01*
X51000Y-48840D02*
X51000Y-49160D01*
X51160Y-49000D02*
X50840Y-49000D01*
X51500Y-22340D02*
X51500Y-22660D01*
X51660Y-22500D02*
X51340Y-22500D01*
X51500Y-25340D02*
X51500Y-25660D01*
X51660Y-25500D02*
X51340Y-25500D01*
X51500Y-28340D02*
X51500Y-28660D01*
X51660Y-28500D02*
X51340Y-28500D01*
X51500Y-30340D02*
X51500Y-30660D01*
X51660Y-30500D02*
X51340Y-30500D01*
X51500Y-33340D02*
X51500Y-33660D01*
X51660Y-33500D02*
X51340Y-33500D01*
X52000Y-59840D02*
X52000Y-60160D01*
X52160Y-60000D02*
X51840Y-60000D01*
X52000Y-62840D02*
X52000Y-63160D01*
X52160Y-63000D02*
X51840Y-63000D01*
X52500Y-22340D02*
X52500Y-22660D01*
X52660Y-22500D02*
X52340Y-22500D01*
X52500Y-25340D02*
X52500Y-25660D01*
X52660Y-25500D02*
X52340Y-25500D01*
X52500Y-28340D02*
X52500Y-28660D01*
X52660Y-28500D02*
X52340Y-28500D01*
X53000Y-59840D02*
X53000Y-60160D01*
X53160Y-60000D02*
X52840Y-60000D01*
X53000Y-62840D02*
X53000Y-63160D01*
X53160Y-63000D02*
X52840Y-63000D01*
X53500Y-22340D02*
X53500Y-22660D01*
X53660Y-22500D02*
X53340Y-22500D01*
X53500Y-25340D02*
X53500Y-25660D01*
X53660Y-25500D02*
X53340Y-25500D01*
X53500Y-28340D02*
X53500Y-28660D01*
X53660Y-28500D02*
X53340Y-28500D01*
X53500Y-30340D02*
X53500Y-30660D01*
X53660Y-30500D02*
X53340Y-30500D01*
X53500Y-33340D02*
X53500Y-33660D01*
X53660Y-33500D02*
X53340Y-33500D01*
X54000Y-35840D02*
X54000Y-36160D01*
X54160Y-36000D02*
X53840Y-36000D01*
X54000Y-36840D02*
X54000Y-37160D01*
X54160Y-37000D02*
X53840Y-37000D01*
X54000Y-37840D02*
X54000Y-38160D01*
X54160Y-38000D02*
X53840Y-38000D01*
X54000Y-38840D02*
X54000Y-39160D01*
X54160Y-39000D02*
X53840Y-39000D01*
X54000Y-39840D02*
X54000Y-40160D01*
X54160Y-40000D02*
X53840Y-40000D01*
X54000Y-40840D02*
X54000Y-41160D01*
X54160Y-41000D02*
X53840Y-41000D01*
X54000Y-41840D02*
X54000Y-42160D01*
X54160Y-42000D02*
X53840Y-42000D01*
X54000Y-42840D02*
X54000Y-43160D01*
X54160Y-43000D02*
X53840Y-43000D01*
X54000Y-43840D02*
X54000Y-44160D01*
X54160Y-44000D02*
X53840Y-44000D01*
X54000Y-44840D02*
X54000Y-45160D01*
X54160Y-45000D02*
X53840Y-45000D01*
X54000Y-45840D02*
X54000Y-46160D01*
X54160Y-46000D02*
X53840Y-46000D01*
X54000Y-46840D02*
X54000Y-47160D01*
X54160Y-47000D02*
X53840Y-47000D01*
X54000Y-47840D02*
X54000Y-48160D01*
X54160Y-48000D02*
X53840Y-48000D01*
X54000Y-48840D02*
X54000Y-49160D01*
X54160Y-49000D02*
X53840Y-49000D01*
X54000Y-59840D02*
X54000Y-60160D01*
X54160Y-60000D02*
X53840Y-60000D01*
X54000Y-62840D02*
X54000Y-63160D01*
X54160Y-63000D02*
X53840Y-63000D01*
X54500Y-22340D02*
X54500Y-22660D01*
X54660Y-22500D02*
X54340Y-22500D01*
X54500Y-25340D02*
X54500Y-25660D01*
X54660Y-25500D02*
X54340Y-25500D01*
X54500Y-28340D02*
X54500Y-28660D01*
X54660Y-28500D02*
X54340Y-28500D01*
X54500Y-30340D02*
X54500Y-30660D01*
X54660Y-30500D02*
X54340Y-30500D01*
X54500Y-33340D02*
X54500Y-33660D01*
X54660Y-33500D02*
X54340Y-33500D01*
X55000Y-59840D02*
X55000Y-60160D01*
X55160Y-60000D02*
X54840Y-60000D01*
X55000Y-62840D02*
X55000Y-63160D01*
X55160Y-63000D02*
X54840Y-63000D01*
X55500Y-22340D02*
X55500Y-22660D01*
X55660Y-22500D02*
X55340Y-22500D01*
X55500Y-25340D02*
X55500Y-25660D01*
X55660Y-25500D02*
X55340Y-25500D01*
X55500Y-28340D02*
X55500Y-28660D01*
X55660Y-28500D02*
X55340Y-28500D01*
X55500Y-30340D02*
X55500Y-30660D01*
X55660Y-30500D02*
X55340Y-30500D01*
X55500Y-33340D02*
X55500Y-33660D01*
X55660Y-33500D02*
X55340Y-33500D01*
X55500Y-46840D02*
X55500Y-47160D01*
X55660Y-47000D02*
X55340Y-47000D01*
X55500Y-49840D02*
X55500Y-50160D01*
X55660Y-50000D02*
X55340Y-50000D01*
X56000Y-59840D02*
X56000Y-60160D01*
X56160Y-60000D02*
X55840Y-60000D01*
X56000Y-62840D02*
X56000Y-63160D01*
X56160Y-63000D02*
X55840Y-63000D01*
X56500Y-22340D02*
X56500Y-22660D01*
X56660Y-22500D02*
X56340Y-22500D01*
X56500Y-25340D02*
X56500Y-25660D01*
X56660Y-25500D02*
X56340Y-25500D01*
X56500Y-28340D02*
X56500Y-28660D01*
X56660Y-28500D02*
X56340Y-28500D01*
X56500Y-30340D02*
X56500Y-30660D01*
X56660Y-30500D02*
X56340Y-30500D01*
X56500Y-33340D02*
X56500Y-33660D01*
X56660Y-33500D02*
X56340Y-33500D01*
X57000Y-59840D02*
X57000Y-60160D01*
X57160Y-60000D02*
X56840Y-60000D01*
X57000Y-62840D02*
X57000Y-63160D01*
X57160Y-63000D02*
X56840Y-63000D01*
X57500Y-22340D02*
X57500Y-22660D01*
X57660Y-22500D02*
X57340Y-22500D01*
X57500Y-25340D02*
X57500Y-25660D01*
X57660Y-25500D02*
X57340Y-25500D01*
X57500Y-28340D02*
X57500Y-28660D01*
X57660Y-28500D02*
X57340Y-28500D01*
X57500Y-30340D02*
X57500Y-30660D01*
X57660Y-30500D02*
X57340Y-30500D01*
X57500Y-33340D02*
X57500Y-33660D01*
X57660Y-33500D02*
X57340Y-33500D01*
X58000Y-59840D02*
X58000Y-60160D01*
X58160Y-60000D02*
X57840Y-60000D01*
X58000Y-62840D02*
X58000Y-63160D01*
X58160Y-63000D02*
X57840Y-63000D01*
X58500Y-22340D02*
X58500Y-22660D01*
X58660Y-22500D02*
X58340Y-22500D01*
X58500Y-25340D02*
X58500Y-25660D01*
X58660Y-25500D02*
X58340Y-25500D01*
X58500Y-28340D02*
X58500Y-28660D01*
X58660Y-28500D02*
X58340Y-28500D01*
X58500Y-30340D02*
X58500Y-30660D01*
X58660Y-30500D02*
X58340Y-30500D01*
X58500Y-33340D02*
X58500Y-33660D01*
X58660Y-33500D02*
X58340Y-33500D01*
X59000Y-59840D02*
X59000Y-60160D01*
X59160Y-60000D02*
X58840Y-60000D01*
X59000Y-62840D02*
X59000Y-63160D01*
X59160Y-63000D02*
X58840Y-63000D01*
X59500Y-30340D02*
X59500Y-30660D01*
X59660Y-30500D02*
X59340Y-30500D01*
X59500Y-33340D02*
X59500Y-33660D01*
X59660Y-33500D02*
X59340Y-33500D01*
X60000Y-59840D02*
X60000Y-60160D01*
X60160Y-60000D02*
X59840Y-60000D01*
X60000Y-62840D02*
X60000Y-63160D01*
X60160Y-63000D02*
X59840Y-63000D01*
X60500Y-30340D02*
X60500Y-30660D01*
X60660Y-30500D02*
X60340Y-30500D01*
X60500Y-33340D02*
X60500Y-33660D01*
X60660Y-33500D02*
X60340Y-33500D01*
X61500Y-30340D02*
X61500Y-30660D01*
X61660Y-30500D02*
X61340Y-30500D01*
X61500Y-33340D02*
X61500Y-33660D01*
X61660Y-33500D02*
X61340Y-33500D01*
X64000Y-51340D02*
X64000Y-51660D01*
X64160Y-51500D02*
X63840Y-51500D01*
X64500Y-60840D02*
X64500Y-61160D01*
X64660Y-61000D02*
X64340Y-61000D01*
X65500Y-57840D02*
X65500Y-58160D01*
X65660Y-58000D02*
X65340Y-58000D01*
X65500Y-58840D02*
X65500Y-59160D01*
X65660Y-59000D02*
X65340Y-59000D01*
X66000Y-51340D02*
X66000Y-51660D01*
X66160Y-51500D02*
X65840Y-51500D01*
X66000Y-61840D02*
X66000Y-62160D01*
X66160Y-62000D02*
X65840Y-62000D01*
X66500Y-58840D02*
X66500Y-59160D01*
X66660Y-59000D02*
X66340Y-59000D01*
X67000Y-22340D02*
X67000Y-22660D01*
X67160Y-22500D02*
X66840Y-22500D01*
X67500Y-60840D02*
X67500Y-61160D01*
X67660Y-61000D02*
X67340Y-61000D01*
X69000Y-22340D02*
X69000Y-22660D01*
X69160Y-22500D02*
X68840Y-22500D01*
X69000Y-61840D02*
X69000Y-62160D01*
X69160Y-62000D02*
X68840Y-62000D01*
X70500Y-59840D02*
X70500Y-60160D01*
X70660Y-60000D02*
X70340Y-60000D01*
X71500Y-51340D02*
X71500Y-51660D01*
X71660Y-51500D02*
X71340Y-51500D01*
X71500Y-59840D02*
X71500Y-60160D01*
X71660Y-60000D02*
X71340Y-60000D01*
X73000Y-55340D02*
X73000Y-55660D01*
X73160Y-55500D02*
X72840Y-55500D01*
X73000Y-56340D02*
X73000Y-56660D01*
X73160Y-56500D02*
X72840Y-56500D01*
X73500Y-47340D02*
X73500Y-47660D01*
X73660Y-47500D02*
X73340Y-47500D01*
X73500Y-49340D02*
X73500Y-49660D01*
X73660Y-49500D02*
X73340Y-49500D01*
X73500Y-51340D02*
X73500Y-51660D01*
X73660Y-51500D02*
X73340Y-51500D01*
X74000Y-34340D02*
X74000Y-34660D01*
X74160Y-34500D02*
X73840Y-34500D01*
X74000Y-35340D02*
X74000Y-35660D01*
X74160Y-35500D02*
X73840Y-35500D01*
X74500Y-58840D02*
X74500Y-59160D01*
X74660Y-59000D02*
X74340Y-59000D01*
X75000Y-27340D02*
X75000Y-27660D01*
X75160Y-27500D02*
X74840Y-27500D01*
X76000Y-34340D02*
X76000Y-34660D01*
X76160Y-34500D02*
X75840Y-34500D01*
X76000Y-35340D02*
X76000Y-35660D01*
X76160Y-35500D02*
X75840Y-35500D01*
X76000Y-54840D02*
X76000Y-55160D01*
X76160Y-55000D02*
X75840Y-55000D01*
X76000Y-56840D02*
X76000Y-57160D01*
X76160Y-57000D02*
X75840Y-57000D01*
X76500Y-58840D02*
X76500Y-59160D01*
X76660Y-59000D02*
X76340Y-59000D01*
X77000Y-52340D02*
X77000Y-52660D01*
X77160Y-52500D02*
X76840Y-52500D01*
X77500Y-29340D02*
X77500Y-29660D01*
X77660Y-29500D02*
X77340Y-29500D01*
X77500Y-30340D02*
X77500Y-30660D01*
X77660Y-30500D02*
X77340Y-30500D01*
X77500Y-31340D02*
X77500Y-31660D01*
X77660Y-31500D02*
X77340Y-31500D01*
X77500Y-32340D02*
X77500Y-32660D01*
X77660Y-32500D02*
X77340Y-32500D01*
X77500Y-33340D02*
X77500Y-33660D01*
X77660Y-33500D02*
X77340Y-33500D01*
X77500Y-34340D02*
X77500Y-34660D01*
X77660Y-34500D02*
X77340Y-34500D01*
X77500Y-35340D02*
X77500Y-35660D01*
X77660Y-35500D02*
X77340Y-35500D01*
X77500Y-36340D02*
X77500Y-36660D01*
X77660Y-36500D02*
X77340Y-36500D01*
X77500Y-37340D02*
X77500Y-37660D01*
X77660Y-37500D02*
X77340Y-37500D01*
X77500Y-38340D02*
X77500Y-38660D01*
X77660Y-38500D02*
X77340Y-38500D01*
X77500Y-39340D02*
X77500Y-39660D01*
X77660Y-39500D02*
X77340Y-39500D01*
X77500Y-40340D02*
X77500Y-40660D01*
X77660Y-40500D02*
X77340Y-40500D01*
X77500Y-41340D02*
X77500Y-41660D01*
X77660Y-41500D02*
X77340Y-41500D01*
X77500Y-42340D02*
X77500Y-42660D01*
X77660Y-42500D02*
X77340Y-42500D01*
X78000Y-27340D02*
X78000Y-27660D01*
X78160Y-27500D02*
X77840Y-27500D01*
X79000Y-57340D02*
X79000Y-57660D01*
X79160Y-57500D02*
X78840Y-57500D01*
X79000Y-60340D02*
X79000Y-60660D01*
X79160Y-60500D02*
X78840Y-60500D01*
X80000Y-52340D02*
X80000Y-52660D01*
X80160Y-52500D02*
X79840Y-52500D01*
X80500Y-29340D02*
X80500Y-29660D01*
X80660Y-29500D02*
X80340Y-29500D01*
X80500Y-30340D02*
X80500Y-30660D01*
X80660Y-30500D02*
X80340Y-30500D01*
X80500Y-31340D02*
X80500Y-31660D01*
X80660Y-31500D02*
X80340Y-31500D01*
X80500Y-32340D02*
X80500Y-32660D01*
X80660Y-32500D02*
X80340Y-32500D01*
X80500Y-33340D02*
X80500Y-33660D01*
X80660Y-33500D02*
X80340Y-33500D01*
X80500Y-34340D02*
X80500Y-34660D01*
X80660Y-34500D02*
X80340Y-34500D01*
X80500Y-35340D02*
X80500Y-35660D01*
X80660Y-35500D02*
X80340Y-35500D01*
X80500Y-36340D02*
X80500Y-36660D01*
X80660Y-36500D02*
X80340Y-36500D01*
X80500Y-37340D02*
X80500Y-37660D01*
X80660Y-37500D02*
X80340Y-37500D01*
X80500Y-38340D02*
X80500Y-38660D01*
X80660Y-38500D02*
X80340Y-38500D01*
X80500Y-39340D02*
X80500Y-39660D01*
X80660Y-39500D02*
X80340Y-39500D01*
X80500Y-40340D02*
X80500Y-40660D01*
X80660Y-40500D02*
X80340Y-40500D01*
X80500Y-41340D02*
X80500Y-41660D01*
X80660Y-41500D02*
X80340Y-41500D01*
X80500Y-42340D02*
X80500Y-42660D01*
X80660Y-42500D02*
X80340Y-42500D01*
X82500Y-32840D02*
X82500Y-33160D01*
X82660Y-33000D02*
X82340Y-33000D01*
X82500Y-34840D02*
X82500Y-35160D01*
X82660Y-35000D02*
X82340Y-35000D01*
X82500Y-49340D02*
X82500Y-49660D01*
X82660Y-49500D02*
X82340Y-49500D01*
X82500Y-51340D02*
X82500Y-51660D01*
X82660Y-51500D02*
X82340Y-51500D01*
X83000Y-27340D02*
X83000Y-27660D01*
X83160Y-27500D02*
X82840Y-27500D01*
X84000Y-40340D02*
X84000Y-40660D01*
X84160Y-40500D02*
X83840Y-40500D01*
X84000Y-42340D02*
X84000Y-42660D01*
X84160Y-42500D02*
X83840Y-42500D01*
X84500Y-32840D02*
X84500Y-33160D01*
X84660Y-33000D02*
X84340Y-33000D01*
X84500Y-34840D02*
X84500Y-35160D01*
X84660Y-35000D02*
X84340Y-35000D01*
X85500Y-28340D02*
X85500Y-28660D01*
X85660Y-28500D02*
X85340Y-28500D01*
X85500Y-31340D02*
X85500Y-31660D01*
X85660Y-31500D02*
X85340Y-31500D01*
X85500Y-32840D02*
X85500Y-33160D01*
X85660Y-33000D02*
X85340Y-33000D01*
X85500Y-34840D02*
X85500Y-35160D01*
X85660Y-35000D02*
X85340Y-35000D01*
X85500Y-64340D02*
X85500Y-64660D01*
X85660Y-64500D02*
X85340Y-64500D01*
X86000Y-27340D02*
X86000Y-27660D01*
X86160Y-27500D02*
X85840Y-27500D01*
X86000Y-42340D02*
X86000Y-42660D01*
X86160Y-42500D02*
X85840Y-42500D01*
X86000Y-44340D02*
X86000Y-44660D01*
X86160Y-44500D02*
X85840Y-44500D01*
X86000Y-49340D02*
X86000Y-49660D01*
X86160Y-49500D02*
X85840Y-49500D01*
X86000Y-52340D02*
X86000Y-52660D01*
X86160Y-52500D02*
X85840Y-52500D01*
X87500Y-27840D02*
X87500Y-28160D01*
X87660Y-28000D02*
X87340Y-28000D01*
X87500Y-31840D02*
X87500Y-32160D01*
X87660Y-32000D02*
X87340Y-32000D01*
X88000Y-49340D02*
X88000Y-49660D01*
X88160Y-49500D02*
X87840Y-49500D01*
X88000Y-52340D02*
X88000Y-52660D01*
X88160Y-52500D02*
X87840Y-52500D01*
X88500Y-27840D02*
X88500Y-28160D01*
X88660Y-28000D02*
X88340Y-28000D01*
X88500Y-31840D02*
X88500Y-32160D01*
X88660Y-32000D02*
X88340Y-32000D01*
X88500Y-64340D02*
X88500Y-64660D01*
X88660Y-64500D02*
X88340Y-64500D01*
X89000Y-42340D02*
X89000Y-42660D01*
X89160Y-42500D02*
X88840Y-42500D01*
X89000Y-44340D02*
X89000Y-44660D01*
X89160Y-44500D02*
X88840Y-44500D01*
X78697Y-62000D02*
X78693Y-62038D01*
X78682Y-62075D01*
X78664Y-62109D01*
X78639Y-62138D01*
X78610Y-62163D01*
X78576Y-62181D01*
X78539Y-62192D01*
X78501Y-62196D01*
X78464Y-62193D01*
X78427Y-62182D01*
X78393Y-62164D01*
X78363Y-62140D01*
X78338Y-62111D01*
X78319Y-62077D01*
X78308Y-62040D01*
X78304Y-62002D01*
X78307Y-61965D01*
X78317Y-61928D01*
X78335Y-61894D01*
X78359Y-61864D01*
X78388Y-61839D01*
X78422Y-61820D01*
X78458Y-61808D01*
X78496Y-61804D01*
X78534Y-61806D01*
X78571Y-61817D01*
X78605Y-61834D01*
X78635Y-61858D01*
X78660Y-61887D01*
X78679Y-61920D01*
X78692Y-61957D01*
X78696Y-61995D01*
X78697Y-62000D01*
X78303Y-61803D02*
X78697Y-62197D01*
X78697Y-61803D02*
X78303Y-62197D01*
X88697Y-62000D02*
X88693Y-62038D01*
X88682Y-62075D01*
X88664Y-62109D01*
X88639Y-62138D01*
X88610Y-62163D01*
X88576Y-62181D01*
X88539Y-62192D01*
X88501Y-62196D01*
X88464Y-62193D01*
X88427Y-62182D01*
X88393Y-62164D01*
X88363Y-62140D01*
X88338Y-62111D01*
X88319Y-62077D01*
X88308Y-62040D01*
X88304Y-62002D01*
X88307Y-61965D01*
X88317Y-61928D01*
X88335Y-61894D01*
X88359Y-61864D01*
X88388Y-61839D01*
X88422Y-61820D01*
X88458Y-61808D01*
X88496Y-61804D01*
X88534Y-61806D01*
X88571Y-61817D01*
X88605Y-61834D01*
X88635Y-61858D01*
X88660Y-61887D01*
X88679Y-61920D01*
X88692Y-61957D01*
X88696Y-61995D01*
X88697Y-62000D01*
X88303Y-61803D02*
X88697Y-62197D01*
X88697Y-61803D02*
X88303Y-62197D01*
X37700Y-67500D02*
X37696Y-67538D01*
X37684Y-67576D01*
X37666Y-67610D01*
X37641Y-67640D01*
X37611Y-67665D01*
X37577Y-67684D01*
X37540Y-67695D01*
X37501Y-67699D01*
X37463Y-67696D01*
X37426Y-67685D01*
X37391Y-67667D01*
X37361Y-67642D01*
X37335Y-67612D01*
X37317Y-67578D01*
X37305Y-67541D01*
X37301Y-67502D01*
X37304Y-67464D01*
X37315Y-67427D01*
X37332Y-67392D01*
X37357Y-67362D01*
X37386Y-67336D01*
X37420Y-67317D01*
X37458Y-67305D01*
X37496Y-67301D01*
X37534Y-67304D01*
X37572Y-67314D01*
X37607Y-67332D01*
X37637Y-67356D01*
X37663Y-67385D01*
X37682Y-67419D01*
X37695Y-67456D01*
X37699Y-67495D01*
X37700Y-67500D01*
X37300Y-67500D02*
X37700Y-67500D01*
X38700Y-67500D02*
X38696Y-67538D01*
X38684Y-67576D01*
X38666Y-67610D01*
X38641Y-67640D01*
X38611Y-67665D01*
X38577Y-67684D01*
X38540Y-67695D01*
X38501Y-67699D01*
X38463Y-67696D01*
X38426Y-67685D01*
X38391Y-67667D01*
X38361Y-67642D01*
X38335Y-67612D01*
X38317Y-67578D01*
X38305Y-67541D01*
X38301Y-67502D01*
X38304Y-67464D01*
X38315Y-67427D01*
X38332Y-67392D01*
X38357Y-67362D01*
X38386Y-67336D01*
X38420Y-67317D01*
X38458Y-67305D01*
X38496Y-67301D01*
X38534Y-67304D01*
X38572Y-67314D01*
X38607Y-67332D01*
X38637Y-67356D01*
X38663Y-67385D01*
X38682Y-67419D01*
X38695Y-67456D01*
X38699Y-67495D01*
X38700Y-67500D01*
X38300Y-67500D02*
X38700Y-67500D01*
X39700Y-67500D02*
X39696Y-67538D01*
X39684Y-67576D01*
X39666Y-67610D01*
X39641Y-67640D01*
X39611Y-67665D01*
X39577Y-67684D01*
X39540Y-67695D01*
X39501Y-67699D01*
X39463Y-67696D01*
X39426Y-67685D01*
X39391Y-67667D01*
X39361Y-67642D01*
X39335Y-67612D01*
X39317Y-67578D01*
X39305Y-67541D01*
X39301Y-67502D01*
X39304Y-67464D01*
X39315Y-67427D01*
X39332Y-67392D01*
X39357Y-67362D01*
X39386Y-67336D01*
X39420Y-67317D01*
X39458Y-67305D01*
X39496Y-67301D01*
X39534Y-67304D01*
X39572Y-67314D01*
X39607Y-67332D01*
X39637Y-67356D01*
X39663Y-67385D01*
X39682Y-67419D01*
X39695Y-67456D01*
X39699Y-67495D01*
X39700Y-67500D01*
X39300Y-67500D02*
X39700Y-67500D01*
X40700Y-67500D02*
X40696Y-67538D01*
X40684Y-67576D01*
X40666Y-67610D01*
X40641Y-67640D01*
X40611Y-67665D01*
X40577Y-67684D01*
X40540Y-67695D01*
X40501Y-67699D01*
X40463Y-67696D01*
X40426Y-67685D01*
X40391Y-67667D01*
X40361Y-67642D01*
X40335Y-67612D01*
X40317Y-67578D01*
X40305Y-67541D01*
X40301Y-67502D01*
X40304Y-67464D01*
X40315Y-67427D01*
X40332Y-67392D01*
X40357Y-67362D01*
X40386Y-67336D01*
X40420Y-67317D01*
X40458Y-67305D01*
X40496Y-67301D01*
X40534Y-67304D01*
X40572Y-67314D01*
X40607Y-67332D01*
X40637Y-67356D01*
X40663Y-67385D01*
X40682Y-67419D01*
X40695Y-67456D01*
X40699Y-67495D01*
X40700Y-67500D01*
X40300Y-67500D02*
X40700Y-67500D01*
X41700Y-67500D02*
X41696Y-67538D01*
X41684Y-67576D01*
X41666Y-67610D01*
X41641Y-67640D01*
X41611Y-67665D01*
X41577Y-67684D01*
X41540Y-67695D01*
X41501Y-67699D01*
X41463Y-67696D01*
X41426Y-67685D01*
X41391Y-67667D01*
X41361Y-67642D01*
X41335Y-67612D01*
X41317Y-67578D01*
X41305Y-67541D01*
X41301Y-67502D01*
X41304Y-67464D01*
X41315Y-67427D01*
X41332Y-67392D01*
X41357Y-67362D01*
X41386Y-67336D01*
X41420Y-67317D01*
X41458Y-67305D01*
X41496Y-67301D01*
X41534Y-67304D01*
X41572Y-67314D01*
X41607Y-67332D01*
X41637Y-67356D01*
X41663Y-67385D01*
X41682Y-67419D01*
X41695Y-67456D01*
X41699Y-67495D01*
X41700Y-67500D01*
X41300Y-67500D02*
X41700Y-67500D01*
X42700Y-67500D02*
X42696Y-67538D01*
X42684Y-67576D01*
X42666Y-67610D01*
X42641Y-67640D01*
X42611Y-67665D01*
X42577Y-67684D01*
X42540Y-67695D01*
X42501Y-67699D01*
X42463Y-67696D01*
X42426Y-67685D01*
X42391Y-67667D01*
X42361Y-67642D01*
X42335Y-67612D01*
X42317Y-67578D01*
X42305Y-67541D01*
X42301Y-67502D01*
X42304Y-67464D01*
X42315Y-67427D01*
X42332Y-67392D01*
X42357Y-67362D01*
X42386Y-67336D01*
X42420Y-67317D01*
X42458Y-67305D01*
X42496Y-67301D01*
X42534Y-67304D01*
X42572Y-67314D01*
X42607Y-67332D01*
X42637Y-67356D01*
X42663Y-67385D01*
X42682Y-67419D01*
X42695Y-67456D01*
X42699Y-67495D01*
X42700Y-67500D01*
X42300Y-67500D02*
X42700Y-67500D01*
X48200Y-67500D02*
X48196Y-67538D01*
X48184Y-67576D01*
X48166Y-67610D01*
X48141Y-67640D01*
X48111Y-67665D01*
X48077Y-67684D01*
X48040Y-67695D01*
X48001Y-67699D01*
X47963Y-67696D01*
X47926Y-67685D01*
X47891Y-67667D01*
X47861Y-67642D01*
X47835Y-67612D01*
X47817Y-67578D01*
X47805Y-67541D01*
X47801Y-67502D01*
X47804Y-67464D01*
X47815Y-67427D01*
X47832Y-67392D01*
X47857Y-67362D01*
X47886Y-67336D01*
X47920Y-67317D01*
X47958Y-67305D01*
X47996Y-67301D01*
X48034Y-67304D01*
X48072Y-67314D01*
X48107Y-67332D01*
X48137Y-67356D01*
X48163Y-67385D01*
X48182Y-67419D01*
X48195Y-67456D01*
X48199Y-67495D01*
X48200Y-67500D01*
X47800Y-67500D02*
X48200Y-67500D01*
X49200Y-67500D02*
X49196Y-67538D01*
X49184Y-67576D01*
X49166Y-67610D01*
X49141Y-67640D01*
X49111Y-67665D01*
X49077Y-67684D01*
X49040Y-67695D01*
X49001Y-67699D01*
X48963Y-67696D01*
X48926Y-67685D01*
X48891Y-67667D01*
X48861Y-67642D01*
X48835Y-67612D01*
X48817Y-67578D01*
X48805Y-67541D01*
X48801Y-67502D01*
X48804Y-67464D01*
X48815Y-67427D01*
X48832Y-67392D01*
X48857Y-67362D01*
X48886Y-67336D01*
X48920Y-67317D01*
X48958Y-67305D01*
X48996Y-67301D01*
X49034Y-67304D01*
X49072Y-67314D01*
X49107Y-67332D01*
X49137Y-67356D01*
X49163Y-67385D01*
X49182Y-67419D01*
X49195Y-67456D01*
X49199Y-67495D01*
X49200Y-67500D01*
X48800Y-67500D02*
X49200Y-67500D01*
X50200Y-67500D02*
X50196Y-67538D01*
X50184Y-67576D01*
X50166Y-67610D01*
X50141Y-67640D01*
X50111Y-67665D01*
X50077Y-67684D01*
X50040Y-67695D01*
X50001Y-67699D01*
X49963Y-67696D01*
X49926Y-67685D01*
X49891Y-67667D01*
X49861Y-67642D01*
X49835Y-67612D01*
X49817Y-67578D01*
X49805Y-67541D01*
X49801Y-67502D01*
X49804Y-67464D01*
X49815Y-67427D01*
X49832Y-67392D01*
X49857Y-67362D01*
X49886Y-67336D01*
X49920Y-67317D01*
X49958Y-67305D01*
X49996Y-67301D01*
X50034Y-67304D01*
X50072Y-67314D01*
X50107Y-67332D01*
X50137Y-67356D01*
X50163Y-67385D01*
X50182Y-67419D01*
X50195Y-67456D01*
X50199Y-67495D01*
X50200Y-67500D01*
X49800Y-67500D02*
X50200Y-67500D01*
X51200Y-67500D02*
X51196Y-67538D01*
X51184Y-67576D01*
X51166Y-67610D01*
X51141Y-67640D01*
X51111Y-67665D01*
X51077Y-67684D01*
X51040Y-67695D01*
X51001Y-67699D01*
X50963Y-67696D01*
X50926Y-67685D01*
X50891Y-67667D01*
X50861Y-67642D01*
X50835Y-67612D01*
X50817Y-67578D01*
X50805Y-67541D01*
X50801Y-67502D01*
X50804Y-67464D01*
X50815Y-67427D01*
X50832Y-67392D01*
X50857Y-67362D01*
X50886Y-67336D01*
X50920Y-67317D01*
X50958Y-67305D01*
X50996Y-67301D01*
X51034Y-67304D01*
X51072Y-67314D01*
X51107Y-67332D01*
X51137Y-67356D01*
X51163Y-67385D01*
X51182Y-67419D01*
X51195Y-67456D01*
X51199Y-67495D01*
X51200Y-67500D01*
X50800Y-67500D02*
X51200Y-67500D01*
X52200Y-67500D02*
X52196Y-67538D01*
X52184Y-67576D01*
X52166Y-67610D01*
X52141Y-67640D01*
X52111Y-67665D01*
X52077Y-67684D01*
X52040Y-67695D01*
X52001Y-67699D01*
X51963Y-67696D01*
X51926Y-67685D01*
X51891Y-67667D01*
X51861Y-67642D01*
X51835Y-67612D01*
X51817Y-67578D01*
X51805Y-67541D01*
X51801Y-67502D01*
X51804Y-67464D01*
X51815Y-67427D01*
X51832Y-67392D01*
X51857Y-67362D01*
X51886Y-67336D01*
X51920Y-67317D01*
X51958Y-67305D01*
X51996Y-67301D01*
X52034Y-67304D01*
X52072Y-67314D01*
X52107Y-67332D01*
X52137Y-67356D01*
X52163Y-67385D01*
X52182Y-67419D01*
X52195Y-67456D01*
X52199Y-67495D01*
X52200Y-67500D01*
X51800Y-67500D02*
X52200Y-67500D01*
X53200Y-67500D02*
X53196Y-67538D01*
X53184Y-67576D01*
X53166Y-67610D01*
X53141Y-67640D01*
X53111Y-67665D01*
X53077Y-67684D01*
X53040Y-67695D01*
X53001Y-67699D01*
X52963Y-67696D01*
X52926Y-67685D01*
X52891Y-67667D01*
X52861Y-67642D01*
X52835Y-67612D01*
X52817Y-67578D01*
X52805Y-67541D01*
X52801Y-67502D01*
X52804Y-67464D01*
X52815Y-67427D01*
X52832Y-67392D01*
X52857Y-67362D01*
X52886Y-67336D01*
X52920Y-67317D01*
X52958Y-67305D01*
X52996Y-67301D01*
X53034Y-67304D01*
X53072Y-67314D01*
X53107Y-67332D01*
X53137Y-67356D01*
X53163Y-67385D01*
X53182Y-67419D01*
X53195Y-67456D01*
X53199Y-67495D01*
X53200Y-67500D01*
X52800Y-67500D02*
X53200Y-67500D01*
X61200Y-67500D02*
X61196Y-67538D01*
X61184Y-67576D01*
X61166Y-67610D01*
X61141Y-67640D01*
X61111Y-67665D01*
X61077Y-67684D01*
X61040Y-67695D01*
X61001Y-67699D01*
X60963Y-67696D01*
X60926Y-67685D01*
X60891Y-67667D01*
X60861Y-67642D01*
X60835Y-67612D01*
X60817Y-67578D01*
X60805Y-67541D01*
X60801Y-67502D01*
X60804Y-67464D01*
X60815Y-67427D01*
X60832Y-67392D01*
X60857Y-67362D01*
X60886Y-67336D01*
X60920Y-67317D01*
X60958Y-67305D01*
X60996Y-67301D01*
X61034Y-67304D01*
X61072Y-67314D01*
X61107Y-67332D01*
X61137Y-67356D01*
X61163Y-67385D01*
X61182Y-67419D01*
X61195Y-67456D01*
X61199Y-67495D01*
X61200Y-67500D01*
X60800Y-67500D02*
X61200Y-67500D01*
X62200Y-67500D02*
X62196Y-67538D01*
X62184Y-67576D01*
X62166Y-67610D01*
X62141Y-67640D01*
X62111Y-67665D01*
X62077Y-67684D01*
X62040Y-67695D01*
X62001Y-67699D01*
X61963Y-67696D01*
X61926Y-67685D01*
X61891Y-67667D01*
X61861Y-67642D01*
X61835Y-67612D01*
X61817Y-67578D01*
X61805Y-67541D01*
X61801Y-67502D01*
X61804Y-67464D01*
X61815Y-67427D01*
X61832Y-67392D01*
X61857Y-67362D01*
X61886Y-67336D01*
X61920Y-67317D01*
X61958Y-67305D01*
X61996Y-67301D01*
X62034Y-67304D01*
X62072Y-67314D01*
X62107Y-67332D01*
X62137Y-67356D01*
X62163Y-67385D01*
X62182Y-67419D01*
X62195Y-67456D01*
X62199Y-67495D01*
X62200Y-67500D01*
X61800Y-67500D02*
X62200Y-67500D01*
X63200Y-67500D02*
X63196Y-67538D01*
X63184Y-67576D01*
X63166Y-67610D01*
X63141Y-67640D01*
X63111Y-67665D01*
X63077Y-67684D01*
X63040Y-67695D01*
X63001Y-67699D01*
X62963Y-67696D01*
X62926Y-67685D01*
X62891Y-67667D01*
X62861Y-67642D01*
X62835Y-67612D01*
X62817Y-67578D01*
X62805Y-67541D01*
X62801Y-67502D01*
X62804Y-67464D01*
X62815Y-67427D01*
X62832Y-67392D01*
X62857Y-67362D01*
X62886Y-67336D01*
X62920Y-67317D01*
X62958Y-67305D01*
X62996Y-67301D01*
X63034Y-67304D01*
X63072Y-67314D01*
X63107Y-67332D01*
X63137Y-67356D01*
X63163Y-67385D01*
X63182Y-67419D01*
X63195Y-67456D01*
X63199Y-67495D01*
X63200Y-67500D01*
X62800Y-67500D02*
X63200Y-67500D01*
X64200Y-54500D02*
X64196Y-54538D01*
X64184Y-54576D01*
X64166Y-54610D01*
X64141Y-54640D01*
X64111Y-54665D01*
X64077Y-54684D01*
X64040Y-54695D01*
X64001Y-54699D01*
X63963Y-54696D01*
X63926Y-54685D01*
X63891Y-54667D01*
X63861Y-54642D01*
X63835Y-54612D01*
X63817Y-54578D01*
X63805Y-54541D01*
X63801Y-54502D01*
X63804Y-54464D01*
X63815Y-54427D01*
X63832Y-54392D01*
X63857Y-54362D01*
X63886Y-54336D01*
X63920Y-54317D01*
X63958Y-54305D01*
X63996Y-54301D01*
X64034Y-54304D01*
X64072Y-54314D01*
X64107Y-54332D01*
X64137Y-54356D01*
X64163Y-54385D01*
X64182Y-54419D01*
X64195Y-54456D01*
X64199Y-54495D01*
X64200Y-54500D01*
X63800Y-54500D02*
X64200Y-54500D01*
X64200Y-67500D02*
X64196Y-67538D01*
X64184Y-67576D01*
X64166Y-67610D01*
X64141Y-67640D01*
X64111Y-67665D01*
X64077Y-67684D01*
X64040Y-67695D01*
X64001Y-67699D01*
X63963Y-67696D01*
X63926Y-67685D01*
X63891Y-67667D01*
X63861Y-67642D01*
X63835Y-67612D01*
X63817Y-67578D01*
X63805Y-67541D01*
X63801Y-67502D01*
X63804Y-67464D01*
X63815Y-67427D01*
X63832Y-67392D01*
X63857Y-67362D01*
X63886Y-67336D01*
X63920Y-67317D01*
X63958Y-67305D01*
X63996Y-67301D01*
X64034Y-67304D01*
X64072Y-67314D01*
X64107Y-67332D01*
X64137Y-67356D01*
X64163Y-67385D01*
X64182Y-67419D01*
X64195Y-67456D01*
X64199Y-67495D01*
X64200Y-67500D01*
X63800Y-67500D02*
X64200Y-67500D01*
X65200Y-67500D02*
X65196Y-67538D01*
X65184Y-67576D01*
X65166Y-67610D01*
X65141Y-67640D01*
X65111Y-67665D01*
X65077Y-67684D01*
X65040Y-67695D01*
X65001Y-67699D01*
X64963Y-67696D01*
X64926Y-67685D01*
X64891Y-67667D01*
X64861Y-67642D01*
X64835Y-67612D01*
X64817Y-67578D01*
X64805Y-67541D01*
X64801Y-67502D01*
X64804Y-67464D01*
X64815Y-67427D01*
X64832Y-67392D01*
X64857Y-67362D01*
X64886Y-67336D01*
X64920Y-67317D01*
X64958Y-67305D01*
X64996Y-67301D01*
X65034Y-67304D01*
X65072Y-67314D01*
X65107Y-67332D01*
X65137Y-67356D01*
X65163Y-67385D01*
X65182Y-67419D01*
X65195Y-67456D01*
X65199Y-67495D01*
X65200Y-67500D01*
X64800Y-67500D02*
X65200Y-67500D01*
X66200Y-54500D02*
X66196Y-54538D01*
X66184Y-54576D01*
X66166Y-54610D01*
X66141Y-54640D01*
X66111Y-54665D01*
X66077Y-54684D01*
X66040Y-54695D01*
X66001Y-54699D01*
X65963Y-54696D01*
X65926Y-54685D01*
X65891Y-54667D01*
X65861Y-54642D01*
X65835Y-54612D01*
X65817Y-54578D01*
X65805Y-54541D01*
X65801Y-54502D01*
X65804Y-54464D01*
X65815Y-54427D01*
X65832Y-54392D01*
X65857Y-54362D01*
X65886Y-54336D01*
X65920Y-54317D01*
X65958Y-54305D01*
X65996Y-54301D01*
X66034Y-54304D01*
X66072Y-54314D01*
X66107Y-54332D01*
X66137Y-54356D01*
X66163Y-54385D01*
X66182Y-54419D01*
X66195Y-54456D01*
X66199Y-54495D01*
X66200Y-54500D01*
X65800Y-54500D02*
X66200Y-54500D01*
X66200Y-67500D02*
X66196Y-67538D01*
X66184Y-67576D01*
X66166Y-67610D01*
X66141Y-67640D01*
X66111Y-67665D01*
X66077Y-67684D01*
X66040Y-67695D01*
X66001Y-67699D01*
X65963Y-67696D01*
X65926Y-67685D01*
X65891Y-67667D01*
X65861Y-67642D01*
X65835Y-67612D01*
X65817Y-67578D01*
X65805Y-67541D01*
X65801Y-67502D01*
X65804Y-67464D01*
X65815Y-67427D01*
X65832Y-67392D01*
X65857Y-67362D01*
X65886Y-67336D01*
X65920Y-67317D01*
X65958Y-67305D01*
X65996Y-67301D01*
X66034Y-67304D01*
X66072Y-67314D01*
X66107Y-67332D01*
X66137Y-67356D01*
X66163Y-67385D01*
X66182Y-67419D01*
X66195Y-67456D01*
X66199Y-67495D01*
X66200Y-67500D01*
X65800Y-67500D02*
X66200Y-67500D01*
X68700Y-47500D02*
X68696Y-47538D01*
X68684Y-47576D01*
X68666Y-47610D01*
X68641Y-47640D01*
X68611Y-47665D01*
X68577Y-47684D01*
X68540Y-47695D01*
X68501Y-47699D01*
X68463Y-47696D01*
X68426Y-47685D01*
X68391Y-47667D01*
X68361Y-47642D01*
X68335Y-47612D01*
X68317Y-47578D01*
X68305Y-47541D01*
X68301Y-47502D01*
X68304Y-47464D01*
X68315Y-47427D01*
X68332Y-47392D01*
X68357Y-47362D01*
X68386Y-47336D01*
X68420Y-47317D01*
X68458Y-47305D01*
X68496Y-47301D01*
X68534Y-47304D01*
X68572Y-47314D01*
X68607Y-47332D01*
X68637Y-47356D01*
X68663Y-47385D01*
X68682Y-47419D01*
X68695Y-47456D01*
X68699Y-47495D01*
X68700Y-47500D01*
X68300Y-47500D02*
X68700Y-47500D01*
X68700Y-49500D02*
X68696Y-49538D01*
X68684Y-49576D01*
X68666Y-49610D01*
X68641Y-49640D01*
X68611Y-49665D01*
X68577Y-49684D01*
X68540Y-49695D01*
X68501Y-49699D01*
X68463Y-49696D01*
X68426Y-49685D01*
X68391Y-49667D01*
X68361Y-49642D01*
X68335Y-49612D01*
X68317Y-49578D01*
X68305Y-49541D01*
X68301Y-49502D01*
X68304Y-49464D01*
X68315Y-49427D01*
X68332Y-49392D01*
X68357Y-49362D01*
X68386Y-49336D01*
X68420Y-49317D01*
X68458Y-49305D01*
X68496Y-49301D01*
X68534Y-49304D01*
X68572Y-49314D01*
X68607Y-49332D01*
X68637Y-49356D01*
X68663Y-49385D01*
X68682Y-49419D01*
X68695Y-49456D01*
X68699Y-49495D01*
X68700Y-49500D01*
X68300Y-49500D02*
X68700Y-49500D01*
X69800Y-33200D02*
X69796Y-33238D01*
X69784Y-33276D01*
X69766Y-33310D01*
X69741Y-33340D01*
X69711Y-33365D01*
X69677Y-33384D01*
X69640Y-33395D01*
X69601Y-33399D01*
X69563Y-33396D01*
X69526Y-33385D01*
X69491Y-33367D01*
X69461Y-33342D01*
X69435Y-33312D01*
X69417Y-33278D01*
X69405Y-33241D01*
X69401Y-33202D01*
X69404Y-33164D01*
X69415Y-33127D01*
X69432Y-33092D01*
X69457Y-33062D01*
X69486Y-33036D01*
X69520Y-33017D01*
X69558Y-33005D01*
X69596Y-33001D01*
X69634Y-33004D01*
X69672Y-33014D01*
X69707Y-33032D01*
X69737Y-33056D01*
X69763Y-33085D01*
X69782Y-33119D01*
X69795Y-33156D01*
X69799Y-33195D01*
X69800Y-33200D01*
X69400Y-33200D02*
X69800Y-33200D01*
X69800Y-34800D02*
X69796Y-34838D01*
X69784Y-34876D01*
X69766Y-34910D01*
X69741Y-34940D01*
X69711Y-34965D01*
X69677Y-34984D01*
X69640Y-34995D01*
X69601Y-34999D01*
X69563Y-34996D01*
X69526Y-34985D01*
X69491Y-34967D01*
X69461Y-34942D01*
X69435Y-34912D01*
X69417Y-34878D01*
X69405Y-34841D01*
X69401Y-34802D01*
X69404Y-34764D01*
X69415Y-34727D01*
X69432Y-34692D01*
X69457Y-34662D01*
X69486Y-34636D01*
X69520Y-34617D01*
X69558Y-34605D01*
X69596Y-34601D01*
X69634Y-34604D01*
X69672Y-34614D01*
X69707Y-34632D01*
X69737Y-34656D01*
X69763Y-34685D01*
X69782Y-34719D01*
X69795Y-34756D01*
X69799Y-34795D01*
X69800Y-34800D01*
X69400Y-34800D02*
X69800Y-34800D01*
X69800Y-36400D02*
X69796Y-36438D01*
X69784Y-36476D01*
X69766Y-36510D01*
X69741Y-36540D01*
X69711Y-36565D01*
X69677Y-36584D01*
X69640Y-36595D01*
X69601Y-36599D01*
X69563Y-36596D01*
X69526Y-36585D01*
X69491Y-36567D01*
X69461Y-36542D01*
X69435Y-36512D01*
X69417Y-36478D01*
X69405Y-36441D01*
X69401Y-36402D01*
X69404Y-36364D01*
X69415Y-36327D01*
X69432Y-36292D01*
X69457Y-36262D01*
X69486Y-36236D01*
X69520Y-36217D01*
X69558Y-36205D01*
X69596Y-36201D01*
X69634Y-36204D01*
X69672Y-36214D01*
X69707Y-36232D01*
X69737Y-36256D01*
X69763Y-36285D01*
X69782Y-36319D01*
X69795Y-36356D01*
X69799Y-36395D01*
X69800Y-36400D01*
X69400Y-36400D02*
X69800Y-36400D01*
X70800Y-33200D02*
X70796Y-33238D01*
X70784Y-33276D01*
X70766Y-33310D01*
X70741Y-33340D01*
X70711Y-33365D01*
X70677Y-33384D01*
X70640Y-33395D01*
X70601Y-33399D01*
X70563Y-33396D01*
X70526Y-33385D01*
X70491Y-33367D01*
X70461Y-33342D01*
X70435Y-33312D01*
X70417Y-33278D01*
X70405Y-33241D01*
X70401Y-33202D01*
X70404Y-33164D01*
X70415Y-33127D01*
X70432Y-33092D01*
X70457Y-33062D01*
X70486Y-33036D01*
X70520Y-33017D01*
X70558Y-33005D01*
X70596Y-33001D01*
X70634Y-33004D01*
X70672Y-33014D01*
X70707Y-33032D01*
X70737Y-33056D01*
X70763Y-33085D01*
X70782Y-33119D01*
X70795Y-33156D01*
X70799Y-33195D01*
X70800Y-33200D01*
X70400Y-33200D02*
X70800Y-33200D01*
X70800Y-34800D02*
X70796Y-34838D01*
X70784Y-34876D01*
X70766Y-34910D01*
X70741Y-34940D01*
X70711Y-34965D01*
X70677Y-34984D01*
X70640Y-34995D01*
X70601Y-34999D01*
X70563Y-34996D01*
X70526Y-34985D01*
X70491Y-34967D01*
X70461Y-34942D01*
X70435Y-34912D01*
X70417Y-34878D01*
X70405Y-34841D01*
X70401Y-34802D01*
X70404Y-34764D01*
X70415Y-34727D01*
X70432Y-34692D01*
X70457Y-34662D01*
X70486Y-34636D01*
X70520Y-34617D01*
X70558Y-34605D01*
X70596Y-34601D01*
X70634Y-34604D01*
X70672Y-34614D01*
X70707Y-34632D01*
X70737Y-34656D01*
X70763Y-34685D01*
X70782Y-34719D01*
X70795Y-34756D01*
X70799Y-34795D01*
X70800Y-34800D01*
X70400Y-34800D02*
X70800Y-34800D01*
X70800Y-36400D02*
X70796Y-36438D01*
X70784Y-36476D01*
X70766Y-36510D01*
X70741Y-36540D01*
X70711Y-36565D01*
X70677Y-36584D01*
X70640Y-36595D01*
X70601Y-36599D01*
X70563Y-36596D01*
X70526Y-36585D01*
X70491Y-36567D01*
X70461Y-36542D01*
X70435Y-36512D01*
X70417Y-36478D01*
X70405Y-36441D01*
X70401Y-36402D01*
X70404Y-36364D01*
X70415Y-36327D01*
X70432Y-36292D01*
X70457Y-36262D01*
X70486Y-36236D01*
X70520Y-36217D01*
X70558Y-36205D01*
X70596Y-36201D01*
X70634Y-36204D01*
X70672Y-36214D01*
X70707Y-36232D01*
X70737Y-36256D01*
X70763Y-36285D01*
X70782Y-36319D01*
X70795Y-36356D01*
X70799Y-36395D01*
X70800Y-36400D01*
X70400Y-36400D02*
X70800Y-36400D01*
X71800Y-33200D02*
X71796Y-33238D01*
X71784Y-33276D01*
X71766Y-33310D01*
X71741Y-33340D01*
X71711Y-33365D01*
X71677Y-33384D01*
X71640Y-33395D01*
X71601Y-33399D01*
X71563Y-33396D01*
X71526Y-33385D01*
X71491Y-33367D01*
X71461Y-33342D01*
X71435Y-33312D01*
X71417Y-33278D01*
X71405Y-33241D01*
X71401Y-33202D01*
X71404Y-33164D01*
X71415Y-33127D01*
X71432Y-33092D01*
X71457Y-33062D01*
X71486Y-33036D01*
X71520Y-33017D01*
X71558Y-33005D01*
X71596Y-33001D01*
X71634Y-33004D01*
X71672Y-33014D01*
X71707Y-33032D01*
X71737Y-33056D01*
X71763Y-33085D01*
X71782Y-33119D01*
X71795Y-33156D01*
X71799Y-33195D01*
X71800Y-33200D01*
X71400Y-33200D02*
X71800Y-33200D01*
X71800Y-34800D02*
X71796Y-34838D01*
X71784Y-34876D01*
X71766Y-34910D01*
X71741Y-34940D01*
X71711Y-34965D01*
X71677Y-34984D01*
X71640Y-34995D01*
X71601Y-34999D01*
X71563Y-34996D01*
X71526Y-34985D01*
X71491Y-34967D01*
X71461Y-34942D01*
X71435Y-34912D01*
X71417Y-34878D01*
X71405Y-34841D01*
X71401Y-34802D01*
X71404Y-34764D01*
X71415Y-34727D01*
X71432Y-34692D01*
X71457Y-34662D01*
X71486Y-34636D01*
X71520Y-34617D01*
X71558Y-34605D01*
X71596Y-34601D01*
X71634Y-34604D01*
X71672Y-34614D01*
X71707Y-34632D01*
X71737Y-34656D01*
X71763Y-34685D01*
X71782Y-34719D01*
X71795Y-34756D01*
X71799Y-34795D01*
X71800Y-34800D01*
X71400Y-34800D02*
X71800Y-34800D01*
X71800Y-36400D02*
X71796Y-36438D01*
X71784Y-36476D01*
X71766Y-36510D01*
X71741Y-36540D01*
X71711Y-36565D01*
X71677Y-36584D01*
X71640Y-36595D01*
X71601Y-36599D01*
X71563Y-36596D01*
X71526Y-36585D01*
X71491Y-36567D01*
X71461Y-36542D01*
X71435Y-36512D01*
X71417Y-36478D01*
X71405Y-36441D01*
X71401Y-36402D01*
X71404Y-36364D01*
X71415Y-36327D01*
X71432Y-36292D01*
X71457Y-36262D01*
X71486Y-36236D01*
X71520Y-36217D01*
X71558Y-36205D01*
X71596Y-36201D01*
X71634Y-36204D01*
X71672Y-36214D01*
X71707Y-36232D01*
X71737Y-36256D01*
X71763Y-36285D01*
X71782Y-36319D01*
X71795Y-36356D01*
X71799Y-36395D01*
X71800Y-36400D01*
X71400Y-36400D02*
X71800Y-36400D01*
X73200Y-29500D02*
X73196Y-29538D01*
X73184Y-29576D01*
X73166Y-29610D01*
X73141Y-29640D01*
X73111Y-29665D01*
X73077Y-29684D01*
X73040Y-29695D01*
X73001Y-29699D01*
X72963Y-29696D01*
X72926Y-29685D01*
X72891Y-29667D01*
X72861Y-29642D01*
X72835Y-29612D01*
X72817Y-29578D01*
X72805Y-29541D01*
X72801Y-29502D01*
X72804Y-29464D01*
X72815Y-29427D01*
X72832Y-29392D01*
X72857Y-29362D01*
X72886Y-29336D01*
X72920Y-29317D01*
X72958Y-29305D01*
X72996Y-29301D01*
X73034Y-29304D01*
X73072Y-29314D01*
X73107Y-29332D01*
X73137Y-29356D01*
X73163Y-29385D01*
X73182Y-29419D01*
X73195Y-29456D01*
X73199Y-29495D01*
X73200Y-29500D01*
X72800Y-29500D02*
X73200Y-29500D01*
X73200Y-30500D02*
X73196Y-30538D01*
X73184Y-30576D01*
X73166Y-30610D01*
X73141Y-30640D01*
X73111Y-30665D01*
X73077Y-30684D01*
X73040Y-30695D01*
X73001Y-30699D01*
X72963Y-30696D01*
X72926Y-30685D01*
X72891Y-30667D01*
X72861Y-30642D01*
X72835Y-30612D01*
X72817Y-30578D01*
X72805Y-30541D01*
X72801Y-30502D01*
X72804Y-30464D01*
X72815Y-30427D01*
X72832Y-30392D01*
X72857Y-30362D01*
X72886Y-30336D01*
X72920Y-30317D01*
X72958Y-30305D01*
X72996Y-30301D01*
X73034Y-30304D01*
X73072Y-30314D01*
X73107Y-30332D01*
X73137Y-30356D01*
X73163Y-30385D01*
X73182Y-30419D01*
X73195Y-30456D01*
X73199Y-30495D01*
X73200Y-30500D01*
X72800Y-30500D02*
X73200Y-30500D01*
X73700Y-63000D02*
X73696Y-63038D01*
X73684Y-63076D01*
X73666Y-63110D01*
X73641Y-63140D01*
X73611Y-63165D01*
X73577Y-63184D01*
X73540Y-63195D01*
X73501Y-63199D01*
X73463Y-63196D01*
X73426Y-63185D01*
X73391Y-63167D01*
X73361Y-63142D01*
X73335Y-63112D01*
X73317Y-63078D01*
X73305Y-63041D01*
X73301Y-63002D01*
X73304Y-62964D01*
X73315Y-62927D01*
X73332Y-62892D01*
X73357Y-62862D01*
X73386Y-62836D01*
X73420Y-62817D01*
X73458Y-62805D01*
X73496Y-62801D01*
X73534Y-62804D01*
X73572Y-62814D01*
X73607Y-62832D01*
X73637Y-62856D01*
X73663Y-62885D01*
X73682Y-62919D01*
X73695Y-62956D01*
X73699Y-62995D01*
X73700Y-63000D01*
X73300Y-63000D02*
X73700Y-63000D01*
X74200Y-29500D02*
X74196Y-29538D01*
X74184Y-29576D01*
X74166Y-29610D01*
X74141Y-29640D01*
X74111Y-29665D01*
X74077Y-29684D01*
X74040Y-29695D01*
X74001Y-29699D01*
X73963Y-29696D01*
X73926Y-29685D01*
X73891Y-29667D01*
X73861Y-29642D01*
X73835Y-29612D01*
X73817Y-29578D01*
X73805Y-29541D01*
X73801Y-29502D01*
X73804Y-29464D01*
X73815Y-29427D01*
X73832Y-29392D01*
X73857Y-29362D01*
X73886Y-29336D01*
X73920Y-29317D01*
X73958Y-29305D01*
X73996Y-29301D01*
X74034Y-29304D01*
X74072Y-29314D01*
X74107Y-29332D01*
X74137Y-29356D01*
X74163Y-29385D01*
X74182Y-29419D01*
X74195Y-29456D01*
X74199Y-29495D01*
X74200Y-29500D01*
X73800Y-29500D02*
X74200Y-29500D01*
X74200Y-30500D02*
X74196Y-30538D01*
X74184Y-30576D01*
X74166Y-30610D01*
X74141Y-30640D01*
X74111Y-30665D01*
X74077Y-30684D01*
X74040Y-30695D01*
X74001Y-30699D01*
X73963Y-30696D01*
X73926Y-30685D01*
X73891Y-30667D01*
X73861Y-30642D01*
X73835Y-30612D01*
X73817Y-30578D01*
X73805Y-30541D01*
X73801Y-30502D01*
X73804Y-30464D01*
X73815Y-30427D01*
X73832Y-30392D01*
X73857Y-30362D01*
X73886Y-30336D01*
X73920Y-30317D01*
X73958Y-30305D01*
X73996Y-30301D01*
X74034Y-30304D01*
X74072Y-30314D01*
X74107Y-30332D01*
X74137Y-30356D01*
X74163Y-30385D01*
X74182Y-30419D01*
X74195Y-30456D01*
X74199Y-30495D01*
X74200Y-30500D01*
X73800Y-30500D02*
X74200Y-30500D01*
X74200Y-67500D02*
X74196Y-67538D01*
X74184Y-67576D01*
X74166Y-67610D01*
X74141Y-67640D01*
X74111Y-67665D01*
X74077Y-67684D01*
X74040Y-67695D01*
X74001Y-67699D01*
X73963Y-67696D01*
X73926Y-67685D01*
X73891Y-67667D01*
X73861Y-67642D01*
X73835Y-67612D01*
X73817Y-67578D01*
X73805Y-67541D01*
X73801Y-67502D01*
X73804Y-67464D01*
X73815Y-67427D01*
X73832Y-67392D01*
X73857Y-67362D01*
X73886Y-67336D01*
X73920Y-67317D01*
X73958Y-67305D01*
X73996Y-67301D01*
X74034Y-67304D01*
X74072Y-67314D01*
X74107Y-67332D01*
X74137Y-67356D01*
X74163Y-67385D01*
X74182Y-67419D01*
X74195Y-67456D01*
X74199Y-67495D01*
X74200Y-67500D01*
X73800Y-67500D02*
X74200Y-67500D01*
X75200Y-29500D02*
X75196Y-29538D01*
X75184Y-29576D01*
X75166Y-29610D01*
X75141Y-29640D01*
X75111Y-29665D01*
X75077Y-29684D01*
X75040Y-29695D01*
X75001Y-29699D01*
X74963Y-29696D01*
X74926Y-29685D01*
X74891Y-29667D01*
X74861Y-29642D01*
X74835Y-29612D01*
X74817Y-29578D01*
X74805Y-29541D01*
X74801Y-29502D01*
X74804Y-29464D01*
X74815Y-29427D01*
X74832Y-29392D01*
X74857Y-29362D01*
X74886Y-29336D01*
X74920Y-29317D01*
X74958Y-29305D01*
X74996Y-29301D01*
X75034Y-29304D01*
X75072Y-29314D01*
X75107Y-29332D01*
X75137Y-29356D01*
X75163Y-29385D01*
X75182Y-29419D01*
X75195Y-29456D01*
X75199Y-29495D01*
X75200Y-29500D01*
X74800Y-29500D02*
X75200Y-29500D01*
X75200Y-30500D02*
X75196Y-30538D01*
X75184Y-30576D01*
X75166Y-30610D01*
X75141Y-30640D01*
X75111Y-30665D01*
X75077Y-30684D01*
X75040Y-30695D01*
X75001Y-30699D01*
X74963Y-30696D01*
X74926Y-30685D01*
X74891Y-30667D01*
X74861Y-30642D01*
X74835Y-30612D01*
X74817Y-30578D01*
X74805Y-30541D01*
X74801Y-30502D01*
X74804Y-30464D01*
X74815Y-30427D01*
X74832Y-30392D01*
X74857Y-30362D01*
X74886Y-30336D01*
X74920Y-30317D01*
X74958Y-30305D01*
X74996Y-30301D01*
X75034Y-30304D01*
X75072Y-30314D01*
X75107Y-30332D01*
X75137Y-30356D01*
X75163Y-30385D01*
X75182Y-30419D01*
X75195Y-30456D01*
X75199Y-30495D01*
X75200Y-30500D01*
X74800Y-30500D02*
X75200Y-30500D01*
X75200Y-67500D02*
X75196Y-67538D01*
X75184Y-67576D01*
X75166Y-67610D01*
X75141Y-67640D01*
X75111Y-67665D01*
X75077Y-67684D01*
X75040Y-67695D01*
X75001Y-67699D01*
X74963Y-67696D01*
X74926Y-67685D01*
X74891Y-67667D01*
X74861Y-67642D01*
X74835Y-67612D01*
X74817Y-67578D01*
X74805Y-67541D01*
X74801Y-67502D01*
X74804Y-67464D01*
X74815Y-67427D01*
X74832Y-67392D01*
X74857Y-67362D01*
X74886Y-67336D01*
X74920Y-67317D01*
X74958Y-67305D01*
X74996Y-67301D01*
X75034Y-67304D01*
X75072Y-67314D01*
X75107Y-67332D01*
X75137Y-67356D01*
X75163Y-67385D01*
X75182Y-67419D01*
X75195Y-67456D01*
X75199Y-67495D01*
X75200Y-67500D01*
X74800Y-67500D02*
X75200Y-67500D01*
X76200Y-67500D02*
X76196Y-67538D01*
X76184Y-67576D01*
X76166Y-67610D01*
X76141Y-67640D01*
X76111Y-67665D01*
X76077Y-67684D01*
X76040Y-67695D01*
X76001Y-67699D01*
X75963Y-67696D01*
X75926Y-67685D01*
X75891Y-67667D01*
X75861Y-67642D01*
X75835Y-67612D01*
X75817Y-67578D01*
X75805Y-67541D01*
X75801Y-67502D01*
X75804Y-67464D01*
X75815Y-67427D01*
X75832Y-67392D01*
X75857Y-67362D01*
X75886Y-67336D01*
X75920Y-67317D01*
X75958Y-67305D01*
X75996Y-67301D01*
X76034Y-67304D01*
X76072Y-67314D01*
X76107Y-67332D01*
X76137Y-67356D01*
X76163Y-67385D01*
X76182Y-67419D01*
X76195Y-67456D01*
X76199Y-67495D01*
X76200Y-67500D01*
X75800Y-67500D02*
X76200Y-67500D01*
X77200Y-67500D02*
X77196Y-67538D01*
X77184Y-67576D01*
X77166Y-67610D01*
X77141Y-67640D01*
X77111Y-67665D01*
X77077Y-67684D01*
X77040Y-67695D01*
X77001Y-67699D01*
X76963Y-67696D01*
X76926Y-67685D01*
X76891Y-67667D01*
X76861Y-67642D01*
X76835Y-67612D01*
X76817Y-67578D01*
X76805Y-67541D01*
X76801Y-67502D01*
X76804Y-67464D01*
X76815Y-67427D01*
X76832Y-67392D01*
X76857Y-67362D01*
X76886Y-67336D01*
X76920Y-67317D01*
X76958Y-67305D01*
X76996Y-67301D01*
X77034Y-67304D01*
X77072Y-67314D01*
X77107Y-67332D01*
X77137Y-67356D01*
X77163Y-67385D01*
X77182Y-67419D01*
X77195Y-67456D01*
X77199Y-67495D01*
X77200Y-67500D01*
X76800Y-67500D02*
X77200Y-67500D01*
X77700Y-63000D02*
X77696Y-63038D01*
X77684Y-63076D01*
X77666Y-63110D01*
X77641Y-63140D01*
X77611Y-63165D01*
X77577Y-63184D01*
X77540Y-63195D01*
X77501Y-63199D01*
X77463Y-63196D01*
X77426Y-63185D01*
X77391Y-63167D01*
X77361Y-63142D01*
X77335Y-63112D01*
X77317Y-63078D01*
X77305Y-63041D01*
X77301Y-63002D01*
X77304Y-62964D01*
X77315Y-62927D01*
X77332Y-62892D01*
X77357Y-62862D01*
X77386Y-62836D01*
X77420Y-62817D01*
X77458Y-62805D01*
X77496Y-62801D01*
X77534Y-62804D01*
X77572Y-62814D01*
X77607Y-62832D01*
X77637Y-62856D01*
X77663Y-62885D01*
X77682Y-62919D01*
X77695Y-62956D01*
X77699Y-62995D01*
X77700Y-63000D01*
X77300Y-63000D02*
X77700Y-63000D01*
X78200Y-47500D02*
X78196Y-47538D01*
X78184Y-47576D01*
X78166Y-47610D01*
X78141Y-47640D01*
X78111Y-47665D01*
X78077Y-47684D01*
X78040Y-47695D01*
X78001Y-47699D01*
X77963Y-47696D01*
X77926Y-47685D01*
X77891Y-47667D01*
X77861Y-47642D01*
X77835Y-47612D01*
X77817Y-47578D01*
X77805Y-47541D01*
X77801Y-47502D01*
X77804Y-47464D01*
X77815Y-47427D01*
X77832Y-47392D01*
X77857Y-47362D01*
X77886Y-47336D01*
X77920Y-47317D01*
X77958Y-47305D01*
X77996Y-47301D01*
X78034Y-47304D01*
X78072Y-47314D01*
X78107Y-47332D01*
X78137Y-47356D01*
X78163Y-47385D01*
X78182Y-47419D01*
X78195Y-47456D01*
X78199Y-47495D01*
X78200Y-47500D01*
X77800Y-47500D02*
X78200Y-47500D01*
X78200Y-49500D02*
X78196Y-49538D01*
X78184Y-49576D01*
X78166Y-49610D01*
X78141Y-49640D01*
X78111Y-49665D01*
X78077Y-49684D01*
X78040Y-49695D01*
X78001Y-49699D01*
X77963Y-49696D01*
X77926Y-49685D01*
X77891Y-49667D01*
X77861Y-49642D01*
X77835Y-49612D01*
X77817Y-49578D01*
X77805Y-49541D01*
X77801Y-49502D01*
X77804Y-49464D01*
X77815Y-49427D01*
X77832Y-49392D01*
X77857Y-49362D01*
X77886Y-49336D01*
X77920Y-49317D01*
X77958Y-49305D01*
X77996Y-49301D01*
X78034Y-49304D01*
X78072Y-49314D01*
X78107Y-49332D01*
X78137Y-49356D01*
X78163Y-49385D01*
X78182Y-49419D01*
X78195Y-49456D01*
X78199Y-49495D01*
X78200Y-49500D01*
X77800Y-49500D02*
X78200Y-49500D01*
X78200Y-67500D02*
X78196Y-67538D01*
X78184Y-67576D01*
X78166Y-67610D01*
X78141Y-67640D01*
X78111Y-67665D01*
X78077Y-67684D01*
X78040Y-67695D01*
X78001Y-67699D01*
X77963Y-67696D01*
X77926Y-67685D01*
X77891Y-67667D01*
X77861Y-67642D01*
X77835Y-67612D01*
X77817Y-67578D01*
X77805Y-67541D01*
X77801Y-67502D01*
X77804Y-67464D01*
X77815Y-67427D01*
X77832Y-67392D01*
X77857Y-67362D01*
X77886Y-67336D01*
X77920Y-67317D01*
X77958Y-67305D01*
X77996Y-67301D01*
X78034Y-67304D01*
X78072Y-67314D01*
X78107Y-67332D01*
X78137Y-67356D01*
X78163Y-67385D01*
X78182Y-67419D01*
X78195Y-67456D01*
X78199Y-67495D01*
X78200Y-67500D01*
X77800Y-67500D02*
X78200Y-67500D01*
X79200Y-67500D02*
X79196Y-67538D01*
X79184Y-67576D01*
X79166Y-67610D01*
X79141Y-67640D01*
X79111Y-67665D01*
X79077Y-67684D01*
X79040Y-67695D01*
X79001Y-67699D01*
X78963Y-67696D01*
X78926Y-67685D01*
X78891Y-67667D01*
X78861Y-67642D01*
X78835Y-67612D01*
X78817Y-67578D01*
X78805Y-67541D01*
X78801Y-67502D01*
X78804Y-67464D01*
X78815Y-67427D01*
X78832Y-67392D01*
X78857Y-67362D01*
X78886Y-67336D01*
X78920Y-67317D01*
X78958Y-67305D01*
X78996Y-67301D01*
X79034Y-67304D01*
X79072Y-67314D01*
X79107Y-67332D01*
X79137Y-67356D01*
X79163Y-67385D01*
X79182Y-67419D01*
X79195Y-67456D01*
X79199Y-67495D01*
X79200Y-67500D01*
X78800Y-67500D02*
X79200Y-67500D01*
X84700Y-54000D02*
X84696Y-54038D01*
X84684Y-54076D01*
X84666Y-54110D01*
X84641Y-54140D01*
X84611Y-54165D01*
X84577Y-54184D01*
X84540Y-54195D01*
X84501Y-54199D01*
X84463Y-54196D01*
X84426Y-54185D01*
X84391Y-54167D01*
X84361Y-54142D01*
X84335Y-54112D01*
X84317Y-54078D01*
X84305Y-54041D01*
X84301Y-54002D01*
X84304Y-53964D01*
X84315Y-53927D01*
X84332Y-53892D01*
X84357Y-53862D01*
X84386Y-53836D01*
X84420Y-53817D01*
X84458Y-53805D01*
X84496Y-53801D01*
X84534Y-53804D01*
X84572Y-53814D01*
X84607Y-53832D01*
X84637Y-53856D01*
X84663Y-53885D01*
X84682Y-53919D01*
X84695Y-53956D01*
X84699Y-53995D01*
X84700Y-54000D01*
X84300Y-54000D02*
X84700Y-54000D01*
X88200Y-36000D02*
X88196Y-36038D01*
X88184Y-36076D01*
X88166Y-36110D01*
X88141Y-36140D01*
X88111Y-36165D01*
X88077Y-36184D01*
X88040Y-36195D01*
X88001Y-36199D01*
X87963Y-36196D01*
X87926Y-36185D01*
X87891Y-36167D01*
X87861Y-36142D01*
X87835Y-36112D01*
X87817Y-36078D01*
X87805Y-36041D01*
X87801Y-36002D01*
X87804Y-35964D01*
X87815Y-35927D01*
X87832Y-35892D01*
X87857Y-35862D01*
X87886Y-35836D01*
X87920Y-35817D01*
X87958Y-35805D01*
X87996Y-35801D01*
X88034Y-35804D01*
X88072Y-35814D01*
X88107Y-35832D01*
X88137Y-35856D01*
X88163Y-35885D01*
X88182Y-35919D01*
X88195Y-35956D01*
X88199Y-35995D01*
X88200Y-36000D01*
X87800Y-36000D02*
X88200Y-36000D01*
X88200Y-37000D02*
X88196Y-37038D01*
X88184Y-37076D01*
X88166Y-37110D01*
X88141Y-37140D01*
X88111Y-37165D01*
X88077Y-37184D01*
X88040Y-37195D01*
X88001Y-37199D01*
X87963Y-37196D01*
X87926Y-37185D01*
X87891Y-37167D01*
X87861Y-37142D01*
X87835Y-37112D01*
X87817Y-37078D01*
X87805Y-37041D01*
X87801Y-37002D01*
X87804Y-36964D01*
X87815Y-36927D01*
X87832Y-36892D01*
X87857Y-36862D01*
X87886Y-36836D01*
X87920Y-36817D01*
X87958Y-36805D01*
X87996Y-36801D01*
X88034Y-36804D01*
X88072Y-36814D01*
X88107Y-36832D01*
X88137Y-36856D01*
X88163Y-36885D01*
X88182Y-36919D01*
X88195Y-36956D01*
X88199Y-36995D01*
X88200Y-37000D01*
X87800Y-37000D02*
X88200Y-37000D01*
X88200Y-38000D02*
X88196Y-38038D01*
X88184Y-38076D01*
X88166Y-38110D01*
X88141Y-38140D01*
X88111Y-38165D01*
X88077Y-38184D01*
X88040Y-38195D01*
X88001Y-38199D01*
X87963Y-38196D01*
X87926Y-38185D01*
X87891Y-38167D01*
X87861Y-38142D01*
X87835Y-38112D01*
X87817Y-38078D01*
X87805Y-38041D01*
X87801Y-38002D01*
X87804Y-37964D01*
X87815Y-37927D01*
X87832Y-37892D01*
X87857Y-37862D01*
X87886Y-37836D01*
X87920Y-37817D01*
X87958Y-37805D01*
X87996Y-37801D01*
X88034Y-37804D01*
X88072Y-37814D01*
X88107Y-37832D01*
X88137Y-37856D01*
X88163Y-37885D01*
X88182Y-37919D01*
X88195Y-37956D01*
X88199Y-37995D01*
X88200Y-38000D01*
X87800Y-38000D02*
X88200Y-38000D01*
X88200Y-39000D02*
X88196Y-39038D01*
X88184Y-39076D01*
X88166Y-39110D01*
X88141Y-39140D01*
X88111Y-39165D01*
X88077Y-39184D01*
X88040Y-39195D01*
X88001Y-39199D01*
X87963Y-39196D01*
X87926Y-39185D01*
X87891Y-39167D01*
X87861Y-39142D01*
X87835Y-39112D01*
X87817Y-39078D01*
X87805Y-39041D01*
X87801Y-39002D01*
X87804Y-38964D01*
X87815Y-38927D01*
X87832Y-38892D01*
X87857Y-38862D01*
X87886Y-38836D01*
X87920Y-38817D01*
X87958Y-38805D01*
X87996Y-38801D01*
X88034Y-38804D01*
X88072Y-38814D01*
X88107Y-38832D01*
X88137Y-38856D01*
X88163Y-38885D01*
X88182Y-38919D01*
X88195Y-38956D01*
X88199Y-38995D01*
X88200Y-39000D01*
X87800Y-39000D02*
X88200Y-39000D01*
X88200Y-40000D02*
X88196Y-40038D01*
X88184Y-40076D01*
X88166Y-40110D01*
X88141Y-40140D01*
X88111Y-40165D01*
X88077Y-40184D01*
X88040Y-40195D01*
X88001Y-40199D01*
X87963Y-40196D01*
X87926Y-40185D01*
X87891Y-40167D01*
X87861Y-40142D01*
X87835Y-40112D01*
X87817Y-40078D01*
X87805Y-40041D01*
X87801Y-40002D01*
X87804Y-39964D01*
X87815Y-39927D01*
X87832Y-39892D01*
X87857Y-39862D01*
X87886Y-39836D01*
X87920Y-39817D01*
X87958Y-39805D01*
X87996Y-39801D01*
X88034Y-39804D01*
X88072Y-39814D01*
X88107Y-39832D01*
X88137Y-39856D01*
X88163Y-39885D01*
X88182Y-39919D01*
X88195Y-39956D01*
X88199Y-39995D01*
X88200Y-40000D01*
X87800Y-40000D02*
X88200Y-40000D01*
X88200Y-41000D02*
X88196Y-41038D01*
X88184Y-41076D01*
X88166Y-41110D01*
X88141Y-41140D01*
X88111Y-41165D01*
X88077Y-41184D01*
X88040Y-41195D01*
X88001Y-41199D01*
X87963Y-41196D01*
X87926Y-41185D01*
X87891Y-41167D01*
X87861Y-41142D01*
X87835Y-41112D01*
X87817Y-41078D01*
X87805Y-41041D01*
X87801Y-41002D01*
X87804Y-40964D01*
X87815Y-40927D01*
X87832Y-40892D01*
X87857Y-40862D01*
X87886Y-40836D01*
X87920Y-40817D01*
X87958Y-40805D01*
X87996Y-40801D01*
X88034Y-40804D01*
X88072Y-40814D01*
X88107Y-40832D01*
X88137Y-40856D01*
X88163Y-40885D01*
X88182Y-40919D01*
X88195Y-40956D01*
X88199Y-40995D01*
X88200Y-41000D01*
X87800Y-41000D02*
X88200Y-41000D01*
X88700Y-54000D02*
X88696Y-54038D01*
X88684Y-54076D01*
X88666Y-54110D01*
X88641Y-54140D01*
X88611Y-54165D01*
X88577Y-54184D01*
X88540Y-54195D01*
X88501Y-54199D01*
X88463Y-54196D01*
X88426Y-54185D01*
X88391Y-54167D01*
X88361Y-54142D01*
X88335Y-54112D01*
X88317Y-54078D01*
X88305Y-54041D01*
X88301Y-54002D01*
X88304Y-53964D01*
X88315Y-53927D01*
X88332Y-53892D01*
X88357Y-53862D01*
X88386Y-53836D01*
X88420Y-53817D01*
X88458Y-53805D01*
X88496Y-53801D01*
X88534Y-53804D01*
X88572Y-53814D01*
X88607Y-53832D01*
X88637Y-53856D01*
X88663Y-53885D01*
X88682Y-53919D01*
X88695Y-53956D01*
X88699Y-53995D01*
X88700Y-54000D01*
X88300Y-54000D02*
X88700Y-54000D01*
X68725Y-53500D02*
X68720Y-53543D01*
X68708Y-53585D01*
X68687Y-53624D01*
X68659Y-53658D01*
X68625Y-53686D01*
X68587Y-53707D01*
X68545Y-53720D01*
X68501Y-53724D01*
X68458Y-53721D01*
X68416Y-53708D01*
X68377Y-53688D01*
X68343Y-53660D01*
X68315Y-53627D01*
X68294Y-53588D01*
X68280Y-53546D01*
X68276Y-53503D01*
X68279Y-53460D01*
X68291Y-53418D01*
X68311Y-53379D01*
X68339Y-53344D01*
X68372Y-53316D01*
X68410Y-53294D01*
X68452Y-53281D01*
X68496Y-53276D01*
X68539Y-53279D01*
X68581Y-53291D01*
X68620Y-53311D01*
X68655Y-53338D01*
X68683Y-53371D01*
X68705Y-53409D01*
X68719Y-53451D01*
X68724Y-53494D01*
X68725Y-53500D01*
X68500Y-53275D02*
X68500Y-53725D01*
X68725Y-58500D02*
X68720Y-58543D01*
X68708Y-58585D01*
X68687Y-58624D01*
X68659Y-58658D01*
X68625Y-58686D01*
X68587Y-58707D01*
X68545Y-58720D01*
X68501Y-58724D01*
X68458Y-58721D01*
X68416Y-58708D01*
X68377Y-58688D01*
X68343Y-58660D01*
X68315Y-58627D01*
X68294Y-58588D01*
X68280Y-58546D01*
X68276Y-58503D01*
X68279Y-58460D01*
X68291Y-58418D01*
X68311Y-58379D01*
X68339Y-58344D01*
X68372Y-58316D01*
X68410Y-58294D01*
X68452Y-58281D01*
X68496Y-58276D01*
X68539Y-58279D01*
X68581Y-58291D01*
X68620Y-58311D01*
X68655Y-58338D01*
X68683Y-58371D01*
X68705Y-58409D01*
X68719Y-58451D01*
X68724Y-58494D01*
X68725Y-58500D01*
X68500Y-58275D02*
X68500Y-58725D01*
X80671Y-54289D02*
X80671Y-53955D01*
X80337Y-53955D01*
X80337Y-54289D01*
X80671Y-54289D01*
X80671Y-55667D02*
X80671Y-55333D01*
X80337Y-55333D01*
X80337Y-55667D01*
X80671Y-55667D01*
X80671Y-57045D02*
X80671Y-56711D01*
X80337Y-56711D01*
X80337Y-57045D01*
X80671Y-57045D01*
X81852Y-54958D02*
X81852Y-54624D01*
X81518Y-54624D01*
X81518Y-54958D01*
X81852Y-54958D01*
X81852Y-56376D02*
X81852Y-56042D01*
X81518Y-56042D01*
X81518Y-56376D01*
X81852Y-56376D01*
X70500Y-23750D02*
X70750Y-23500D01*
X70500Y-23250D01*
X70250Y-23500D01*
X70500Y-23750D01*
X84500Y-23750D02*
X84750Y-23500D01*
X84500Y-23250D01*
X84250Y-23500D01*
X84500Y-23750D01*
X44194Y-67684D02*
X44194Y-67316D01*
X43826Y-67316D01*
X43826Y-67684D01*
X44194Y-67684D01*
X43750Y-67240D02*
X44270Y-67760D01*
X44270Y-67240D02*
X43750Y-67760D01*
X46164Y-67684D02*
X46164Y-67316D01*
X45796Y-67316D01*
X45796Y-67684D01*
X46164Y-67684D01*
X45720Y-67240D02*
X46240Y-67760D01*
X46240Y-67240D02*
X45720Y-67760D01*
X55194Y-67684D02*
X55194Y-67316D01*
X54826Y-67316D01*
X54826Y-67684D01*
X55194Y-67684D01*
X54750Y-67240D02*
X55270Y-67760D01*
X55270Y-67240D02*
X54750Y-67760D01*
X57164Y-67684D02*
X57164Y-67316D01*
X56796Y-67316D01*
X56796Y-67684D01*
X57164Y-67684D01*
X56720Y-67240D02*
X57240Y-67760D01*
X57240Y-67240D02*
X56720Y-67760D01*
X68194Y-67684D02*
X68194Y-67316D01*
X67826Y-67316D01*
X67826Y-67684D01*
X68194Y-67684D01*
X67750Y-67240D02*
X68270Y-67760D01*
X68270Y-67240D02*
X67750Y-67760D01*
X70164Y-67684D02*
X70164Y-67316D01*
X69796Y-67316D01*
X69796Y-67684D01*
X70164Y-67684D01*
X69720Y-67240D02*
X70240Y-67760D01*
X70240Y-67240D02*
X69720Y-67760D01*
X81194Y-67684D02*
X81194Y-67316D01*
X80826Y-67316D01*
X80826Y-67684D01*
X81194Y-67684D01*
X80750Y-67240D02*
X81270Y-67760D01*
X81270Y-67240D02*
X80750Y-67760D01*
X83164Y-67684D02*
X83164Y-67316D01*
X82796Y-67316D01*
X82796Y-67684D01*
X83164Y-67684D01*
X82720Y-67240D02*
X83240Y-67760D01*
X83240Y-67240D02*
X82720Y-67760D01*
X87684Y-57204D02*
X87684Y-56836D01*
X87316Y-56836D01*
X87316Y-57204D01*
X87684Y-57204D01*
X87240Y-56760D02*
X87760Y-57280D01*
X87760Y-56760D02*
X87240Y-57280D01*
X87684Y-59174D02*
X87684Y-58806D01*
X87316Y-58806D01*
X87316Y-59174D01*
X87684Y-59174D01*
X87240Y-58730D02*
X87760Y-59250D01*
X87760Y-58730D02*
X87240Y-59250D01*
X32500Y-23500D02*
X33500Y-22500D01*
X32500Y-21500D01*
X31500Y-22500D01*
X32500Y-23500D01*
X32500Y-21500D02*
X32500Y-23500D01*
X33500Y-22500D02*
X31500Y-22500D01*
X32500Y-68500D02*
X33500Y-67500D01*
X32500Y-66500D01*
X31500Y-67500D01*
X32500Y-68500D01*
X32500Y-66500D02*
X32500Y-68500D01*
X33500Y-67500D02*
X31500Y-67500D01*
X87500Y-23500D02*
X88500Y-22500D01*
X87500Y-21500D01*
X86500Y-22500D01*
X87500Y-23500D01*
X87500Y-21500D02*
X87500Y-23500D01*
X88500Y-22500D02*
X86500Y-22500D01*
X87500Y-68500D02*
X88500Y-67500D01*
X87500Y-66500D01*
X86500Y-67500D01*
X87500Y-68500D01*
X87500Y-66500D02*
X87500Y-68500D01*
X88500Y-67500D02*
X86500Y-67500D01*
G54D12*
X30314Y-73034D02*
X30314Y-72234D01*
X30505Y-72234D01*
X30619Y-72272D01*
X30695Y-72348D01*
X30734Y-72424D01*
X30772Y-72577D01*
X30772Y-72691D01*
X30734Y-72843D01*
X30695Y-72920D01*
X30619Y-72996D01*
X30505Y-73034D01*
X30314Y-73034D01*
X31114Y-73034D02*
X31114Y-72500D01*
X31114Y-72653D02*
X31153Y-72577D01*
X31191Y-72539D01*
X31267Y-72500D01*
X31343Y-72500D01*
X31609Y-73034D02*
X31609Y-72500D01*
X31609Y-72234D02*
X31571Y-72272D01*
X31609Y-72310D01*
X31648Y-72272D01*
X31609Y-72234D01*
X31609Y-72310D01*
X32105Y-73034D02*
X32029Y-72996D01*
X31990Y-72920D01*
X31990Y-72234D01*
X32524Y-73034D02*
X32448Y-72996D01*
X32409Y-72920D01*
X32409Y-72234D01*
X33438Y-73034D02*
X33438Y-72234D01*
X33705Y-72805D01*
X33972Y-72234D01*
X33972Y-73034D01*
X34695Y-73034D02*
X34695Y-72615D01*
X34657Y-72539D01*
X34581Y-72500D01*
X34429Y-72500D01*
X34352Y-72539D01*
X34695Y-72996D02*
X34619Y-73034D01*
X34429Y-73034D01*
X34352Y-72996D01*
X34314Y-72920D01*
X34314Y-72843D01*
X34352Y-72767D01*
X34429Y-72729D01*
X34619Y-72729D01*
X34695Y-72691D01*
X35076Y-72500D02*
X35076Y-73300D01*
X35076Y-72539D02*
X35153Y-72500D01*
X35305Y-72500D01*
X35381Y-72539D01*
X35419Y-72577D01*
X35457Y-72653D01*
X35457Y-72881D01*
X35419Y-72958D01*
X35381Y-72996D01*
X35305Y-73034D01*
X35153Y-73034D01*
X35076Y-72996D01*
X35800Y-72958D02*
X35839Y-72996D01*
X35800Y-73034D01*
X35762Y-72996D01*
X35800Y-72958D01*
X35800Y-73034D01*
X35800Y-72539D02*
X35839Y-72577D01*
X35800Y-72615D01*
X35762Y-72577D01*
X35800Y-72539D01*
X35800Y-72615D01*
X29688Y-74272D02*
X29924Y-74508D01*
X29924Y-74272D02*
X29688Y-74508D01*
X30467Y-73914D02*
X30543Y-73914D01*
X30619Y-73952D01*
X30657Y-73990D01*
X30695Y-74066D01*
X30734Y-74219D01*
X30734Y-74409D01*
X30695Y-74561D01*
X30657Y-74638D01*
X30619Y-74676D01*
X30543Y-74714D01*
X30467Y-74714D01*
X30391Y-74676D01*
X30353Y-74638D01*
X30314Y-74561D01*
X30276Y-74409D01*
X30276Y-74219D01*
X30314Y-74066D01*
X30353Y-73990D01*
X30391Y-73952D01*
X30467Y-73914D01*
X31076Y-74638D02*
X31115Y-74676D01*
X31076Y-74714D01*
X31038Y-74676D01*
X31076Y-74638D01*
X31076Y-74714D01*
X31610Y-73914D02*
X31686Y-73914D01*
X31762Y-73952D01*
X31800Y-73990D01*
X31838Y-74066D01*
X31877Y-74219D01*
X31877Y-74409D01*
X31838Y-74561D01*
X31800Y-74638D01*
X31762Y-74676D01*
X31686Y-74714D01*
X31610Y-74714D01*
X31534Y-74676D01*
X31496Y-74638D01*
X31457Y-74561D01*
X31419Y-74409D01*
X31419Y-74219D01*
X31457Y-74066D01*
X31496Y-73990D01*
X31534Y-73952D01*
X31610Y-73914D01*
X32181Y-73990D02*
X32219Y-73952D01*
X32296Y-73914D01*
X32486Y-73914D01*
X32562Y-73952D01*
X32600Y-73990D01*
X32639Y-74066D01*
X32639Y-74142D01*
X32600Y-74257D01*
X32143Y-74714D01*
X32639Y-74714D01*
X33324Y-74180D02*
X33324Y-74714D01*
X33134Y-73876D02*
X32943Y-74447D01*
X33439Y-74447D01*
X33705Y-73914D02*
X33705Y-74066D01*
X34010Y-73914D02*
X34010Y-74066D01*
X35535Y-73876D02*
X34849Y-74904D01*
X36564Y-73914D02*
X36640Y-73914D01*
X36716Y-73952D01*
X36754Y-73990D01*
X36792Y-74066D01*
X36831Y-74219D01*
X36831Y-74409D01*
X36792Y-74561D01*
X36754Y-74638D01*
X36716Y-74676D01*
X36640Y-74714D01*
X36564Y-74714D01*
X36488Y-74676D01*
X36450Y-74638D01*
X36411Y-74561D01*
X36373Y-74409D01*
X36373Y-74219D01*
X36411Y-74066D01*
X36450Y-73990D01*
X36488Y-73952D01*
X36564Y-73914D01*
X37173Y-74638D02*
X37212Y-74676D01*
X37173Y-74714D01*
X37135Y-74676D01*
X37173Y-74638D01*
X37173Y-74714D01*
X37897Y-73914D02*
X37745Y-73914D01*
X37669Y-73952D01*
X37631Y-73990D01*
X37554Y-74104D01*
X37516Y-74257D01*
X37516Y-74561D01*
X37554Y-74638D01*
X37593Y-74676D01*
X37669Y-74714D01*
X37821Y-74714D01*
X37897Y-74676D01*
X37935Y-74638D01*
X37974Y-74561D01*
X37974Y-74371D01*
X37935Y-74295D01*
X37897Y-74257D01*
X37821Y-74219D01*
X37669Y-74219D01*
X37593Y-74257D01*
X37554Y-74295D01*
X37516Y-74371D01*
X38469Y-73914D02*
X38545Y-73914D01*
X38621Y-73952D01*
X38659Y-73990D01*
X38697Y-74066D01*
X38736Y-74219D01*
X38736Y-74409D01*
X38697Y-74561D01*
X38659Y-74638D01*
X38621Y-74676D01*
X38545Y-74714D01*
X38469Y-74714D01*
X38393Y-74676D01*
X38355Y-74638D01*
X38316Y-74561D01*
X38278Y-74409D01*
X38278Y-74219D01*
X38316Y-74066D01*
X38355Y-73990D01*
X38393Y-73952D01*
X38469Y-73914D01*
X39078Y-74714D02*
X39078Y-74180D01*
X39078Y-74257D02*
X39117Y-74219D01*
X39193Y-74180D01*
X39307Y-74180D01*
X39383Y-74219D01*
X39421Y-74295D01*
X39421Y-74714D01*
X39421Y-74295D02*
X39459Y-74219D01*
X39536Y-74180D01*
X39650Y-74180D01*
X39726Y-74219D01*
X39764Y-74295D01*
X39764Y-74714D01*
X40145Y-74714D02*
X40145Y-74180D01*
X40145Y-74257D02*
X40184Y-74219D01*
X40260Y-74180D01*
X40374Y-74180D01*
X40450Y-74219D01*
X40488Y-74295D01*
X40488Y-74714D01*
X40488Y-74295D02*
X40526Y-74219D01*
X40603Y-74180D01*
X40717Y-74180D01*
X40793Y-74219D01*
X40831Y-74295D01*
X40831Y-74714D01*
X42051Y-75019D02*
X42013Y-74980D01*
X41937Y-74866D01*
X41899Y-74790D01*
X41861Y-74676D01*
X41822Y-74485D01*
X41822Y-74333D01*
X41861Y-74142D01*
X41899Y-74028D01*
X41937Y-73952D01*
X42013Y-73838D01*
X42051Y-73800D01*
X42317Y-73990D02*
X42355Y-73952D01*
X42432Y-73914D01*
X42622Y-73914D01*
X42698Y-73952D01*
X42736Y-73990D01*
X42775Y-74066D01*
X42775Y-74142D01*
X42736Y-74257D01*
X42279Y-74714D01*
X42775Y-74714D01*
X43727Y-74714D02*
X43727Y-73914D01*
X44070Y-74714D02*
X44070Y-74295D01*
X44032Y-74219D01*
X43956Y-74180D01*
X43842Y-74180D01*
X43766Y-74219D01*
X43727Y-74257D01*
X44566Y-74714D02*
X44490Y-74676D01*
X44451Y-74638D01*
X44413Y-74561D01*
X44413Y-74333D01*
X44451Y-74257D01*
X44490Y-74219D01*
X44566Y-74180D01*
X44680Y-74180D01*
X44756Y-74219D01*
X44794Y-74257D01*
X44832Y-74333D01*
X44832Y-74561D01*
X44794Y-74638D01*
X44756Y-74676D01*
X44680Y-74714D01*
X44566Y-74714D01*
X45290Y-74714D02*
X45214Y-74676D01*
X45175Y-74600D01*
X45175Y-73914D01*
X45899Y-74676D02*
X45823Y-74714D01*
X45671Y-74714D01*
X45594Y-74676D01*
X45556Y-74600D01*
X45556Y-74295D01*
X45594Y-74219D01*
X45671Y-74180D01*
X45823Y-74180D01*
X45899Y-74219D01*
X45937Y-74295D01*
X45937Y-74371D01*
X45556Y-74447D01*
X46242Y-74676D02*
X46319Y-74714D01*
X46471Y-74714D01*
X46547Y-74676D01*
X46585Y-74600D01*
X46585Y-74561D01*
X46547Y-74485D01*
X46471Y-74447D01*
X46357Y-74447D01*
X46280Y-74409D01*
X46242Y-74333D01*
X46242Y-74295D01*
X46280Y-74219D01*
X46357Y-74180D01*
X46471Y-74180D01*
X46547Y-74219D01*
X46852Y-75019D02*
X46890Y-74980D01*
X46967Y-74866D01*
X47005Y-74790D01*
X47043Y-74676D01*
X47081Y-74485D01*
X47081Y-74333D01*
X47043Y-74142D01*
X47005Y-74028D01*
X46967Y-73952D01*
X46890Y-73838D01*
X46852Y-73800D01*
G54D10*
X29924Y-75446D02*
X29921Y-75470D01*
X29914Y-75493D01*
X29903Y-75515D01*
X29887Y-75534D01*
X29868Y-75549D01*
X29847Y-75561D01*
X29824Y-75568D01*
X29799Y-75570D01*
X29776Y-75568D01*
X29753Y-75561D01*
X29731Y-75550D01*
X29712Y-75535D01*
X29696Y-75516D01*
X29685Y-75495D01*
X29677Y-75471D01*
X29675Y-75447D01*
X29677Y-75424D01*
X29683Y-75400D01*
X29694Y-75379D01*
X29710Y-75360D01*
X29728Y-75344D01*
X29749Y-75332D01*
X29773Y-75324D01*
X29797Y-75322D01*
X29820Y-75323D01*
X29844Y-75330D01*
X29865Y-75341D01*
X29885Y-75356D01*
X29901Y-75374D01*
X29913Y-75396D01*
X29920Y-75419D01*
X29923Y-75443D01*
X29924Y-75446D01*
G54D12*
X30467Y-74970D02*
X30543Y-74970D01*
X30619Y-75008D01*
X30657Y-75046D01*
X30695Y-75122D01*
X30734Y-75275D01*
X30734Y-75465D01*
X30695Y-75617D01*
X30657Y-75694D01*
X30619Y-75732D01*
X30543Y-75770D01*
X30467Y-75770D01*
X30391Y-75732D01*
X30353Y-75694D01*
X30314Y-75617D01*
X30276Y-75465D01*
X30276Y-75275D01*
X30314Y-75122D01*
X30353Y-75046D01*
X30391Y-75008D01*
X30467Y-74970D01*
X31076Y-75694D02*
X31115Y-75732D01*
X31076Y-75770D01*
X31038Y-75732D01*
X31076Y-75694D01*
X31076Y-75770D01*
X31610Y-74970D02*
X31686Y-74970D01*
X31762Y-75008D01*
X31800Y-75046D01*
X31838Y-75122D01*
X31877Y-75275D01*
X31877Y-75465D01*
X31838Y-75617D01*
X31800Y-75694D01*
X31762Y-75732D01*
X31686Y-75770D01*
X31610Y-75770D01*
X31534Y-75732D01*
X31496Y-75694D01*
X31457Y-75617D01*
X31419Y-75465D01*
X31419Y-75275D01*
X31457Y-75122D01*
X31496Y-75046D01*
X31534Y-75008D01*
X31610Y-74970D01*
X32181Y-75046D02*
X32219Y-75008D01*
X32296Y-74970D01*
X32486Y-74970D01*
X32562Y-75008D01*
X32600Y-75046D01*
X32639Y-75122D01*
X32639Y-75198D01*
X32600Y-75313D01*
X32143Y-75770D01*
X32639Y-75770D01*
X33362Y-74970D02*
X32981Y-74970D01*
X32943Y-75351D01*
X32981Y-75313D01*
X33058Y-75275D01*
X33248Y-75275D01*
X33324Y-75313D01*
X33362Y-75351D01*
X33401Y-75427D01*
X33401Y-75617D01*
X33362Y-75694D01*
X33324Y-75732D01*
X33248Y-75770D01*
X33058Y-75770D01*
X32981Y-75732D01*
X32943Y-75694D01*
X33705Y-74970D02*
X33705Y-75122D01*
X34010Y-74970D02*
X34010Y-75122D01*
X35535Y-74932D02*
X34849Y-75960D01*
X36564Y-74970D02*
X36640Y-74970D01*
X36716Y-75008D01*
X36754Y-75046D01*
X36792Y-75122D01*
X36831Y-75275D01*
X36831Y-75465D01*
X36792Y-75617D01*
X36754Y-75694D01*
X36716Y-75732D01*
X36640Y-75770D01*
X36564Y-75770D01*
X36488Y-75732D01*
X36450Y-75694D01*
X36411Y-75617D01*
X36373Y-75465D01*
X36373Y-75275D01*
X36411Y-75122D01*
X36450Y-75046D01*
X36488Y-75008D01*
X36564Y-74970D01*
X37173Y-75694D02*
X37212Y-75732D01*
X37173Y-75770D01*
X37135Y-75732D01*
X37173Y-75694D01*
X37173Y-75770D01*
X37897Y-74970D02*
X37745Y-74970D01*
X37669Y-75008D01*
X37631Y-75046D01*
X37554Y-75160D01*
X37516Y-75313D01*
X37516Y-75617D01*
X37554Y-75694D01*
X37593Y-75732D01*
X37669Y-75770D01*
X37821Y-75770D01*
X37897Y-75732D01*
X37935Y-75694D01*
X37974Y-75617D01*
X37974Y-75427D01*
X37935Y-75351D01*
X37897Y-75313D01*
X37821Y-75275D01*
X37669Y-75275D01*
X37593Y-75313D01*
X37554Y-75351D01*
X37516Y-75427D01*
X38659Y-75236D02*
X38659Y-75770D01*
X38469Y-74932D02*
X38278Y-75503D01*
X38774Y-75503D01*
X39078Y-75770D02*
X39078Y-75236D01*
X39078Y-75313D02*
X39117Y-75275D01*
X39193Y-75236D01*
X39307Y-75236D01*
X39383Y-75275D01*
X39421Y-75351D01*
X39421Y-75770D01*
X39421Y-75351D02*
X39459Y-75275D01*
X39536Y-75236D01*
X39650Y-75236D01*
X39726Y-75275D01*
X39764Y-75351D01*
X39764Y-75770D01*
X40145Y-75770D02*
X40145Y-75236D01*
X40145Y-75313D02*
X40184Y-75275D01*
X40260Y-75236D01*
X40374Y-75236D01*
X40450Y-75275D01*
X40488Y-75351D01*
X40488Y-75770D01*
X40488Y-75351D02*
X40526Y-75275D01*
X40603Y-75236D01*
X40717Y-75236D01*
X40793Y-75275D01*
X40831Y-75351D01*
X40831Y-75770D01*
X42051Y-76075D02*
X42013Y-76036D01*
X41937Y-75922D01*
X41899Y-75846D01*
X41861Y-75732D01*
X41822Y-75541D01*
X41822Y-75389D01*
X41861Y-75198D01*
X41899Y-75084D01*
X41937Y-75008D01*
X42013Y-74894D01*
X42051Y-74856D01*
X42279Y-74970D02*
X42775Y-74970D01*
X42508Y-75275D01*
X42622Y-75275D01*
X42698Y-75313D01*
X42736Y-75351D01*
X42775Y-75427D01*
X42775Y-75617D01*
X42736Y-75694D01*
X42698Y-75732D01*
X42622Y-75770D01*
X42394Y-75770D01*
X42317Y-75732D01*
X42279Y-75694D01*
X43460Y-75236D02*
X43460Y-75770D01*
X43270Y-74932D02*
X43079Y-75503D01*
X43575Y-75503D01*
X44489Y-75770D02*
X44489Y-74970D01*
X44832Y-75770D02*
X44832Y-75351D01*
X44794Y-75275D01*
X44718Y-75236D01*
X44604Y-75236D01*
X44528Y-75275D01*
X44489Y-75313D01*
X45328Y-75770D02*
X45252Y-75732D01*
X45213Y-75694D01*
X45175Y-75617D01*
X45175Y-75389D01*
X45213Y-75313D01*
X45252Y-75275D01*
X45328Y-75236D01*
X45442Y-75236D01*
X45518Y-75275D01*
X45556Y-75313D01*
X45594Y-75389D01*
X45594Y-75617D01*
X45556Y-75694D01*
X45518Y-75732D01*
X45442Y-75770D01*
X45328Y-75770D01*
X46052Y-75770D02*
X45976Y-75732D01*
X45937Y-75656D01*
X45937Y-74970D01*
X46661Y-75732D02*
X46585Y-75770D01*
X46433Y-75770D01*
X46356Y-75732D01*
X46318Y-75656D01*
X46318Y-75351D01*
X46356Y-75275D01*
X46433Y-75236D01*
X46585Y-75236D01*
X46661Y-75275D01*
X46699Y-75351D01*
X46699Y-75427D01*
X46318Y-75503D01*
X47004Y-75732D02*
X47081Y-75770D01*
X47233Y-75770D01*
X47309Y-75732D01*
X47347Y-75656D01*
X47347Y-75617D01*
X47309Y-75541D01*
X47233Y-75503D01*
X47119Y-75503D01*
X47042Y-75465D01*
X47004Y-75389D01*
X47004Y-75351D01*
X47042Y-75275D01*
X47119Y-75236D01*
X47233Y-75236D01*
X47309Y-75275D01*
X47614Y-76075D02*
X47652Y-76036D01*
X47729Y-75922D01*
X47767Y-75846D01*
X47805Y-75732D01*
X47843Y-75541D01*
X47843Y-75389D01*
X47805Y-75198D01*
X47767Y-75084D01*
X47729Y-75008D01*
X47652Y-74894D01*
X47614Y-74856D01*
X29764Y-76342D02*
X29764Y-76662D01*
X29924Y-76502D02*
X29604Y-76502D01*
X30467Y-76026D02*
X30543Y-76026D01*
X30619Y-76064D01*
X30657Y-76102D01*
X30695Y-76178D01*
X30734Y-76331D01*
X30734Y-76521D01*
X30695Y-76673D01*
X30657Y-76750D01*
X30619Y-76788D01*
X30543Y-76826D01*
X30467Y-76826D01*
X30391Y-76788D01*
X30353Y-76750D01*
X30314Y-76673D01*
X30276Y-76521D01*
X30276Y-76331D01*
X30314Y-76178D01*
X30353Y-76102D01*
X30391Y-76064D01*
X30467Y-76026D01*
X31076Y-76750D02*
X31115Y-76788D01*
X31076Y-76826D01*
X31038Y-76788D01*
X31076Y-76750D01*
X31076Y-76826D01*
X31610Y-76026D02*
X31686Y-76026D01*
X31762Y-76064D01*
X31800Y-76102D01*
X31838Y-76178D01*
X31877Y-76331D01*
X31877Y-76521D01*
X31838Y-76673D01*
X31800Y-76750D01*
X31762Y-76788D01*
X31686Y-76826D01*
X31610Y-76826D01*
X31534Y-76788D01*
X31496Y-76750D01*
X31457Y-76673D01*
X31419Y-76521D01*
X31419Y-76331D01*
X31457Y-76178D01*
X31496Y-76102D01*
X31534Y-76064D01*
X31610Y-76026D01*
X32143Y-76026D02*
X32639Y-76026D01*
X32372Y-76331D01*
X32486Y-76331D01*
X32562Y-76369D01*
X32600Y-76407D01*
X32639Y-76483D01*
X32639Y-76673D01*
X32600Y-76750D01*
X32562Y-76788D01*
X32486Y-76826D01*
X32258Y-76826D01*
X32181Y-76788D01*
X32143Y-76750D01*
X32943Y-76102D02*
X32981Y-76064D01*
X33058Y-76026D01*
X33248Y-76026D01*
X33324Y-76064D01*
X33362Y-76102D01*
X33401Y-76178D01*
X33401Y-76254D01*
X33362Y-76369D01*
X32905Y-76826D01*
X33401Y-76826D01*
X33705Y-76026D02*
X33705Y-76178D01*
X34010Y-76026D02*
X34010Y-76178D01*
X35535Y-75988D02*
X34849Y-77016D01*
X36564Y-76026D02*
X36640Y-76026D01*
X36716Y-76064D01*
X36754Y-76102D01*
X36792Y-76178D01*
X36831Y-76331D01*
X36831Y-76521D01*
X36792Y-76673D01*
X36754Y-76750D01*
X36716Y-76788D01*
X36640Y-76826D01*
X36564Y-76826D01*
X36488Y-76788D01*
X36450Y-76750D01*
X36411Y-76673D01*
X36373Y-76521D01*
X36373Y-76331D01*
X36411Y-76178D01*
X36450Y-76102D01*
X36488Y-76064D01*
X36564Y-76026D01*
X37173Y-76750D02*
X37212Y-76788D01*
X37173Y-76826D01*
X37135Y-76788D01*
X37173Y-76750D01*
X37173Y-76826D01*
X37669Y-76369D02*
X37593Y-76331D01*
X37554Y-76292D01*
X37516Y-76216D01*
X37516Y-76178D01*
X37554Y-76102D01*
X37593Y-76064D01*
X37669Y-76026D01*
X37821Y-76026D01*
X37897Y-76064D01*
X37935Y-76102D01*
X37974Y-76178D01*
X37974Y-76216D01*
X37935Y-76292D01*
X37897Y-76331D01*
X37821Y-76369D01*
X37669Y-76369D01*
X37593Y-76407D01*
X37554Y-76445D01*
X37516Y-76521D01*
X37516Y-76673D01*
X37554Y-76750D01*
X37593Y-76788D01*
X37669Y-76826D01*
X37821Y-76826D01*
X37897Y-76788D01*
X37935Y-76750D01*
X37974Y-76673D01*
X37974Y-76521D01*
X37935Y-76445D01*
X37897Y-76407D01*
X37821Y-76369D01*
X38736Y-76826D02*
X38278Y-76826D01*
X38507Y-76826D02*
X38507Y-76026D01*
X38431Y-76140D01*
X38355Y-76216D01*
X38278Y-76254D01*
X39078Y-76826D02*
X39078Y-76292D01*
X39078Y-76369D02*
X39117Y-76331D01*
X39193Y-76292D01*
X39307Y-76292D01*
X39383Y-76331D01*
X39421Y-76407D01*
X39421Y-76826D01*
X39421Y-76407D02*
X39459Y-76331D01*
X39536Y-76292D01*
X39650Y-76292D01*
X39726Y-76331D01*
X39764Y-76407D01*
X39764Y-76826D01*
X40145Y-76826D02*
X40145Y-76292D01*
X40145Y-76369D02*
X40184Y-76331D01*
X40260Y-76292D01*
X40374Y-76292D01*
X40450Y-76331D01*
X40488Y-76407D01*
X40488Y-76826D01*
X40488Y-76407D02*
X40526Y-76331D01*
X40603Y-76292D01*
X40717Y-76292D01*
X40793Y-76331D01*
X40831Y-76407D01*
X40831Y-76826D01*
X42051Y-77131D02*
X42013Y-77092D01*
X41937Y-76978D01*
X41899Y-76902D01*
X41861Y-76788D01*
X41822Y-76597D01*
X41822Y-76445D01*
X41861Y-76254D01*
X41899Y-76140D01*
X41937Y-76064D01*
X42013Y-75950D01*
X42051Y-75912D01*
X42279Y-76026D02*
X42775Y-76026D01*
X42508Y-76331D01*
X42622Y-76331D01*
X42698Y-76369D01*
X42736Y-76407D01*
X42775Y-76483D01*
X42775Y-76673D01*
X42736Y-76750D01*
X42698Y-76788D01*
X42622Y-76826D01*
X42394Y-76826D01*
X42317Y-76788D01*
X42279Y-76750D01*
X43537Y-76826D02*
X43079Y-76826D01*
X43308Y-76826D02*
X43308Y-76026D01*
X43232Y-76140D01*
X43156Y-76216D01*
X43079Y-76254D01*
X44299Y-76826D02*
X43841Y-76826D01*
X44070Y-76826D02*
X44070Y-76026D01*
X43994Y-76140D01*
X43918Y-76216D01*
X43841Y-76254D01*
X45251Y-76826D02*
X45251Y-76026D01*
X45594Y-76826D02*
X45594Y-76407D01*
X45556Y-76331D01*
X45480Y-76292D01*
X45366Y-76292D01*
X45290Y-76331D01*
X45251Y-76369D01*
X46090Y-76826D02*
X46014Y-76788D01*
X45975Y-76750D01*
X45937Y-76673D01*
X45937Y-76445D01*
X45975Y-76369D01*
X46014Y-76331D01*
X46090Y-76292D01*
X46204Y-76292D01*
X46280Y-76331D01*
X46318Y-76369D01*
X46356Y-76445D01*
X46356Y-76673D01*
X46318Y-76750D01*
X46280Y-76788D01*
X46204Y-76826D01*
X46090Y-76826D01*
X46814Y-76826D02*
X46738Y-76788D01*
X46699Y-76712D01*
X46699Y-76026D01*
X47423Y-76788D02*
X47347Y-76826D01*
X47195Y-76826D01*
X47118Y-76788D01*
X47080Y-76712D01*
X47080Y-76407D01*
X47118Y-76331D01*
X47195Y-76292D01*
X47347Y-76292D01*
X47423Y-76331D01*
X47461Y-76407D01*
X47461Y-76483D01*
X47080Y-76559D01*
X47766Y-76788D02*
X47843Y-76826D01*
X47995Y-76826D01*
X48071Y-76788D01*
X48109Y-76712D01*
X48109Y-76673D01*
X48071Y-76597D01*
X47995Y-76559D01*
X47881Y-76559D01*
X47804Y-76521D01*
X47766Y-76445D01*
X47766Y-76407D01*
X47804Y-76331D01*
X47881Y-76292D01*
X47995Y-76292D01*
X48071Y-76331D01*
X48376Y-77131D02*
X48414Y-77092D01*
X48491Y-76978D01*
X48529Y-76902D01*
X48567Y-76788D01*
X48605Y-76597D01*
X48605Y-76445D01*
X48567Y-76254D01*
X48529Y-76140D01*
X48491Y-76064D01*
X48414Y-75950D01*
X48376Y-75912D01*
G54D10*
X29924Y-77558D02*
X29920Y-77596D01*
X29909Y-77633D01*
X29891Y-77667D01*
X29866Y-77696D01*
X29837Y-77721D01*
X29803Y-77739D01*
X29766Y-77750D01*
X29728Y-77754D01*
X29691Y-77751D01*
X29654Y-77740D01*
X29620Y-77722D01*
X29590Y-77698D01*
X29565Y-77669D01*
X29546Y-77635D01*
X29535Y-77598D01*
X29531Y-77560D01*
X29534Y-77523D01*
X29544Y-77486D01*
X29562Y-77452D01*
X29586Y-77422D01*
X29615Y-77397D01*
X29649Y-77378D01*
X29685Y-77366D01*
X29723Y-77362D01*
X29761Y-77364D01*
X29798Y-77375D01*
X29832Y-77392D01*
X29862Y-77416D01*
X29887Y-77445D01*
X29906Y-77478D01*
X29919Y-77515D01*
X29923Y-77553D01*
X29924Y-77558D01*
X29530Y-77361D02*
X29924Y-77755D01*
X29924Y-77361D02*
X29530Y-77755D01*
G54D12*
X30467Y-77082D02*
X30543Y-77082D01*
X30619Y-77120D01*
X30657Y-77158D01*
X30695Y-77234D01*
X30734Y-77387D01*
X30734Y-77577D01*
X30695Y-77729D01*
X30657Y-77806D01*
X30619Y-77844D01*
X30543Y-77882D01*
X30467Y-77882D01*
X30391Y-77844D01*
X30353Y-77806D01*
X30314Y-77729D01*
X30276Y-77577D01*
X30276Y-77387D01*
X30314Y-77234D01*
X30353Y-77158D01*
X30391Y-77120D01*
X30467Y-77082D01*
X31076Y-77806D02*
X31115Y-77844D01*
X31076Y-77882D01*
X31038Y-77844D01*
X31076Y-77806D01*
X31076Y-77882D01*
X31610Y-77082D02*
X31686Y-77082D01*
X31762Y-77120D01*
X31800Y-77158D01*
X31838Y-77234D01*
X31877Y-77387D01*
X31877Y-77577D01*
X31838Y-77729D01*
X31800Y-77806D01*
X31762Y-77844D01*
X31686Y-77882D01*
X31610Y-77882D01*
X31534Y-77844D01*
X31496Y-77806D01*
X31457Y-77729D01*
X31419Y-77577D01*
X31419Y-77387D01*
X31457Y-77234D01*
X31496Y-77158D01*
X31534Y-77120D01*
X31610Y-77082D01*
X32143Y-77082D02*
X32639Y-77082D01*
X32372Y-77387D01*
X32486Y-77387D01*
X32562Y-77425D01*
X32600Y-77463D01*
X32639Y-77539D01*
X32639Y-77729D01*
X32600Y-77806D01*
X32562Y-77844D01*
X32486Y-77882D01*
X32258Y-77882D01*
X32181Y-77844D01*
X32143Y-77806D01*
X33020Y-77882D02*
X33172Y-77882D01*
X33248Y-77844D01*
X33286Y-77806D01*
X33362Y-77691D01*
X33401Y-77539D01*
X33401Y-77234D01*
X33362Y-77158D01*
X33324Y-77120D01*
X33248Y-77082D01*
X33096Y-77082D01*
X33020Y-77120D01*
X32981Y-77158D01*
X32943Y-77234D01*
X32943Y-77425D01*
X32981Y-77501D01*
X33020Y-77539D01*
X33096Y-77577D01*
X33248Y-77577D01*
X33324Y-77539D01*
X33362Y-77501D01*
X33401Y-77425D01*
X33705Y-77082D02*
X33705Y-77234D01*
X34010Y-77082D02*
X34010Y-77234D01*
X35535Y-77044D02*
X34849Y-78072D01*
X36831Y-77882D02*
X36373Y-77882D01*
X36602Y-77882D02*
X36602Y-77082D01*
X36526Y-77196D01*
X36450Y-77272D01*
X36373Y-77310D01*
X37173Y-77806D02*
X37212Y-77844D01*
X37173Y-77882D01*
X37135Y-77844D01*
X37173Y-77806D01*
X37173Y-77882D01*
X37707Y-77082D02*
X37783Y-77082D01*
X37859Y-77120D01*
X37897Y-77158D01*
X37935Y-77234D01*
X37974Y-77387D01*
X37974Y-77577D01*
X37935Y-77729D01*
X37897Y-77806D01*
X37859Y-77844D01*
X37783Y-77882D01*
X37707Y-77882D01*
X37631Y-77844D01*
X37593Y-77806D01*
X37554Y-77729D01*
X37516Y-77577D01*
X37516Y-77387D01*
X37554Y-77234D01*
X37593Y-77158D01*
X37631Y-77120D01*
X37707Y-77082D01*
X38469Y-77082D02*
X38545Y-77082D01*
X38621Y-77120D01*
X38659Y-77158D01*
X38697Y-77234D01*
X38736Y-77387D01*
X38736Y-77577D01*
X38697Y-77729D01*
X38659Y-77806D01*
X38621Y-77844D01*
X38545Y-77882D01*
X38469Y-77882D01*
X38393Y-77844D01*
X38355Y-77806D01*
X38316Y-77729D01*
X38278Y-77577D01*
X38278Y-77387D01*
X38316Y-77234D01*
X38355Y-77158D01*
X38393Y-77120D01*
X38469Y-77082D01*
X39078Y-77882D02*
X39078Y-77348D01*
X39078Y-77425D02*
X39117Y-77387D01*
X39193Y-77348D01*
X39307Y-77348D01*
X39383Y-77387D01*
X39421Y-77463D01*
X39421Y-77882D01*
X39421Y-77463D02*
X39459Y-77387D01*
X39536Y-77348D01*
X39650Y-77348D01*
X39726Y-77387D01*
X39764Y-77463D01*
X39764Y-77882D01*
X40145Y-77882D02*
X40145Y-77348D01*
X40145Y-77425D02*
X40184Y-77387D01*
X40260Y-77348D01*
X40374Y-77348D01*
X40450Y-77387D01*
X40488Y-77463D01*
X40488Y-77882D01*
X40488Y-77463D02*
X40526Y-77387D01*
X40603Y-77348D01*
X40717Y-77348D01*
X40793Y-77387D01*
X40831Y-77463D01*
X40831Y-77882D01*
X42051Y-78187D02*
X42013Y-78148D01*
X41937Y-78034D01*
X41899Y-77958D01*
X41861Y-77844D01*
X41822Y-77653D01*
X41822Y-77501D01*
X41861Y-77310D01*
X41899Y-77196D01*
X41937Y-77120D01*
X42013Y-77006D01*
X42051Y-76968D01*
X42317Y-77158D02*
X42355Y-77120D01*
X42432Y-77082D01*
X42622Y-77082D01*
X42698Y-77120D01*
X42736Y-77158D01*
X42775Y-77234D01*
X42775Y-77310D01*
X42736Y-77425D01*
X42279Y-77882D01*
X42775Y-77882D01*
X43727Y-77882D02*
X43727Y-77082D01*
X44070Y-77882D02*
X44070Y-77463D01*
X44032Y-77387D01*
X43956Y-77348D01*
X43842Y-77348D01*
X43766Y-77387D01*
X43727Y-77425D01*
X44566Y-77882D02*
X44490Y-77844D01*
X44451Y-77806D01*
X44413Y-77729D01*
X44413Y-77501D01*
X44451Y-77425D01*
X44490Y-77387D01*
X44566Y-77348D01*
X44680Y-77348D01*
X44756Y-77387D01*
X44794Y-77425D01*
X44832Y-77501D01*
X44832Y-77729D01*
X44794Y-77806D01*
X44756Y-77844D01*
X44680Y-77882D01*
X44566Y-77882D01*
X45290Y-77882D02*
X45214Y-77844D01*
X45175Y-77768D01*
X45175Y-77082D01*
X45899Y-77844D02*
X45823Y-77882D01*
X45671Y-77882D01*
X45594Y-77844D01*
X45556Y-77768D01*
X45556Y-77463D01*
X45594Y-77387D01*
X45671Y-77348D01*
X45823Y-77348D01*
X45899Y-77387D01*
X45937Y-77463D01*
X45937Y-77539D01*
X45556Y-77615D01*
X46242Y-77844D02*
X46319Y-77882D01*
X46471Y-77882D01*
X46547Y-77844D01*
X46585Y-77768D01*
X46585Y-77729D01*
X46547Y-77653D01*
X46471Y-77615D01*
X46357Y-77615D01*
X46280Y-77577D01*
X46242Y-77501D01*
X46242Y-77463D01*
X46280Y-77387D01*
X46357Y-77348D01*
X46471Y-77348D01*
X46547Y-77387D01*
X46852Y-78187D02*
X46890Y-78148D01*
X46967Y-78034D01*
X47005Y-77958D01*
X47043Y-77844D01*
X47081Y-77653D01*
X47081Y-77501D01*
X47043Y-77310D01*
X47005Y-77196D01*
X46967Y-77120D01*
X46890Y-77006D01*
X46852Y-76968D01*
G54D10*
X29924Y-78614D02*
X29920Y-78652D01*
X29908Y-78690D01*
X29890Y-78724D01*
X29865Y-78754D01*
X29835Y-78779D01*
X29801Y-78798D01*
X29764Y-78809D01*
X29725Y-78813D01*
X29687Y-78810D01*
X29650Y-78799D01*
X29615Y-78781D01*
X29585Y-78756D01*
X29559Y-78726D01*
X29541Y-78692D01*
X29529Y-78655D01*
X29525Y-78616D01*
X29528Y-78578D01*
X29539Y-78541D01*
X29556Y-78506D01*
X29581Y-78476D01*
X29610Y-78450D01*
X29644Y-78431D01*
X29682Y-78419D01*
X29720Y-78415D01*
X29758Y-78418D01*
X29796Y-78428D01*
X29831Y-78446D01*
X29861Y-78470D01*
X29887Y-78499D01*
X29906Y-78533D01*
X29919Y-78570D01*
X29923Y-78609D01*
X29924Y-78614D01*
X29524Y-78614D02*
X29924Y-78614D01*
G54D12*
X30467Y-78138D02*
X30543Y-78138D01*
X30619Y-78176D01*
X30657Y-78214D01*
X30695Y-78290D01*
X30734Y-78443D01*
X30734Y-78633D01*
X30695Y-78785D01*
X30657Y-78862D01*
X30619Y-78900D01*
X30543Y-78938D01*
X30467Y-78938D01*
X30391Y-78900D01*
X30353Y-78862D01*
X30314Y-78785D01*
X30276Y-78633D01*
X30276Y-78443D01*
X30314Y-78290D01*
X30353Y-78214D01*
X30391Y-78176D01*
X30467Y-78138D01*
X31076Y-78862D02*
X31115Y-78900D01*
X31076Y-78938D01*
X31038Y-78900D01*
X31076Y-78862D01*
X31076Y-78938D01*
X31610Y-78138D02*
X31686Y-78138D01*
X31762Y-78176D01*
X31800Y-78214D01*
X31838Y-78290D01*
X31877Y-78443D01*
X31877Y-78633D01*
X31838Y-78785D01*
X31800Y-78862D01*
X31762Y-78900D01*
X31686Y-78938D01*
X31610Y-78938D01*
X31534Y-78900D01*
X31496Y-78862D01*
X31457Y-78785D01*
X31419Y-78633D01*
X31419Y-78443D01*
X31457Y-78290D01*
X31496Y-78214D01*
X31534Y-78176D01*
X31610Y-78138D01*
X32562Y-78404D02*
X32562Y-78938D01*
X32372Y-78100D02*
X32181Y-78671D01*
X32677Y-78671D01*
X33134Y-78138D02*
X33210Y-78138D01*
X33286Y-78176D01*
X33324Y-78214D01*
X33362Y-78290D01*
X33401Y-78443D01*
X33401Y-78633D01*
X33362Y-78785D01*
X33324Y-78862D01*
X33286Y-78900D01*
X33210Y-78938D01*
X33134Y-78938D01*
X33058Y-78900D01*
X33020Y-78862D01*
X32981Y-78785D01*
X32943Y-78633D01*
X32943Y-78443D01*
X32981Y-78290D01*
X33020Y-78214D01*
X33058Y-78176D01*
X33134Y-78138D01*
X33705Y-78138D02*
X33705Y-78290D01*
X34010Y-78138D02*
X34010Y-78290D01*
X35535Y-78100D02*
X34849Y-79128D01*
X36831Y-78938D02*
X36373Y-78938D01*
X36602Y-78938D02*
X36602Y-78138D01*
X36526Y-78252D01*
X36450Y-78328D01*
X36373Y-78366D01*
X37173Y-78862D02*
X37212Y-78900D01*
X37173Y-78938D01*
X37135Y-78900D01*
X37173Y-78862D01*
X37173Y-78938D01*
X37707Y-78138D02*
X37783Y-78138D01*
X37859Y-78176D01*
X37897Y-78214D01*
X37935Y-78290D01*
X37974Y-78443D01*
X37974Y-78633D01*
X37935Y-78785D01*
X37897Y-78862D01*
X37859Y-78900D01*
X37783Y-78938D01*
X37707Y-78938D01*
X37631Y-78900D01*
X37593Y-78862D01*
X37554Y-78785D01*
X37516Y-78633D01*
X37516Y-78443D01*
X37554Y-78290D01*
X37593Y-78214D01*
X37631Y-78176D01*
X37707Y-78138D01*
X38278Y-78214D02*
X38316Y-78176D01*
X38393Y-78138D01*
X38583Y-78138D01*
X38659Y-78176D01*
X38697Y-78214D01*
X38736Y-78290D01*
X38736Y-78366D01*
X38697Y-78481D01*
X38240Y-78938D01*
X38736Y-78938D01*
X39078Y-78938D02*
X39078Y-78404D01*
X39078Y-78481D02*
X39117Y-78443D01*
X39193Y-78404D01*
X39307Y-78404D01*
X39383Y-78443D01*
X39421Y-78519D01*
X39421Y-78938D01*
X39421Y-78519D02*
X39459Y-78443D01*
X39536Y-78404D01*
X39650Y-78404D01*
X39726Y-78443D01*
X39764Y-78519D01*
X39764Y-78938D01*
X40145Y-78938D02*
X40145Y-78404D01*
X40145Y-78481D02*
X40184Y-78443D01*
X40260Y-78404D01*
X40374Y-78404D01*
X40450Y-78443D01*
X40488Y-78519D01*
X40488Y-78938D01*
X40488Y-78519D02*
X40526Y-78443D01*
X40603Y-78404D01*
X40717Y-78404D01*
X40793Y-78443D01*
X40831Y-78519D01*
X40831Y-78938D01*
X42051Y-79243D02*
X42013Y-79204D01*
X41937Y-79090D01*
X41899Y-79014D01*
X41861Y-78900D01*
X41822Y-78709D01*
X41822Y-78557D01*
X41861Y-78366D01*
X41899Y-78252D01*
X41937Y-78176D01*
X42013Y-78062D01*
X42051Y-78024D01*
X42736Y-78138D02*
X42355Y-78138D01*
X42317Y-78519D01*
X42355Y-78481D01*
X42432Y-78443D01*
X42622Y-78443D01*
X42698Y-78481D01*
X42736Y-78519D01*
X42775Y-78595D01*
X42775Y-78785D01*
X42736Y-78862D01*
X42698Y-78900D01*
X42622Y-78938D01*
X42432Y-78938D01*
X42355Y-78900D01*
X42317Y-78862D01*
X43498Y-78138D02*
X43117Y-78138D01*
X43079Y-78519D01*
X43117Y-78481D01*
X43194Y-78443D01*
X43384Y-78443D01*
X43460Y-78481D01*
X43498Y-78519D01*
X43537Y-78595D01*
X43537Y-78785D01*
X43498Y-78862D01*
X43460Y-78900D01*
X43384Y-78938D01*
X43194Y-78938D01*
X43117Y-78900D01*
X43079Y-78862D01*
X44489Y-78938D02*
X44489Y-78138D01*
X44832Y-78938D02*
X44832Y-78519D01*
X44794Y-78443D01*
X44718Y-78404D01*
X44604Y-78404D01*
X44528Y-78443D01*
X44489Y-78481D01*
X45328Y-78938D02*
X45252Y-78900D01*
X45213Y-78862D01*
X45175Y-78785D01*
X45175Y-78557D01*
X45213Y-78481D01*
X45252Y-78443D01*
X45328Y-78404D01*
X45442Y-78404D01*
X45518Y-78443D01*
X45556Y-78481D01*
X45594Y-78557D01*
X45594Y-78785D01*
X45556Y-78862D01*
X45518Y-78900D01*
X45442Y-78938D01*
X45328Y-78938D01*
X46052Y-78938D02*
X45976Y-78900D01*
X45937Y-78824D01*
X45937Y-78138D01*
X46661Y-78900D02*
X46585Y-78938D01*
X46433Y-78938D01*
X46356Y-78900D01*
X46318Y-78824D01*
X46318Y-78519D01*
X46356Y-78443D01*
X46433Y-78404D01*
X46585Y-78404D01*
X46661Y-78443D01*
X46699Y-78519D01*
X46699Y-78595D01*
X46318Y-78671D01*
X47004Y-78900D02*
X47081Y-78938D01*
X47233Y-78938D01*
X47309Y-78900D01*
X47347Y-78824D01*
X47347Y-78785D01*
X47309Y-78709D01*
X47233Y-78671D01*
X47119Y-78671D01*
X47042Y-78633D01*
X47004Y-78557D01*
X47004Y-78519D01*
X47042Y-78443D01*
X47119Y-78404D01*
X47233Y-78404D01*
X47309Y-78443D01*
X47614Y-79243D02*
X47652Y-79204D01*
X47729Y-79090D01*
X47767Y-79014D01*
X47805Y-78900D01*
X47843Y-78709D01*
X47843Y-78557D01*
X47805Y-78366D01*
X47767Y-78252D01*
X47729Y-78176D01*
X47652Y-78062D01*
X47614Y-78024D01*
G54D10*
X29924Y-79670D02*
X29919Y-79713D01*
X29907Y-79755D01*
X29886Y-79794D01*
X29858Y-79828D01*
X29824Y-79856D01*
X29786Y-79877D01*
X29744Y-79890D01*
X29700Y-79894D01*
X29657Y-79891D01*
X29615Y-79878D01*
X29576Y-79858D01*
X29542Y-79830D01*
X29514Y-79797D01*
X29493Y-79758D01*
X29479Y-79716D01*
X29475Y-79673D01*
X29478Y-79630D01*
X29490Y-79588D01*
X29510Y-79549D01*
X29538Y-79514D01*
X29571Y-79486D01*
X29609Y-79464D01*
X29651Y-79451D01*
X29695Y-79446D01*
X29738Y-79449D01*
X29780Y-79461D01*
X29819Y-79481D01*
X29854Y-79508D01*
X29882Y-79541D01*
X29904Y-79579D01*
X29918Y-79621D01*
X29923Y-79664D01*
X29924Y-79670D01*
X29699Y-79445D02*
X29699Y-79895D01*
G54D12*
X30467Y-79194D02*
X30543Y-79194D01*
X30619Y-79232D01*
X30657Y-79270D01*
X30695Y-79346D01*
X30734Y-79499D01*
X30734Y-79689D01*
X30695Y-79841D01*
X30657Y-79918D01*
X30619Y-79956D01*
X30543Y-79994D01*
X30467Y-79994D01*
X30391Y-79956D01*
X30353Y-79918D01*
X30314Y-79841D01*
X30276Y-79689D01*
X30276Y-79499D01*
X30314Y-79346D01*
X30353Y-79270D01*
X30391Y-79232D01*
X30467Y-79194D01*
X31076Y-79918D02*
X31115Y-79956D01*
X31076Y-79994D01*
X31038Y-79956D01*
X31076Y-79918D01*
X31076Y-79994D01*
X31610Y-79194D02*
X31686Y-79194D01*
X31762Y-79232D01*
X31800Y-79270D01*
X31838Y-79346D01*
X31877Y-79499D01*
X31877Y-79689D01*
X31838Y-79841D01*
X31800Y-79918D01*
X31762Y-79956D01*
X31686Y-79994D01*
X31610Y-79994D01*
X31534Y-79956D01*
X31496Y-79918D01*
X31457Y-79841D01*
X31419Y-79689D01*
X31419Y-79499D01*
X31457Y-79346D01*
X31496Y-79270D01*
X31534Y-79232D01*
X31610Y-79194D01*
X32562Y-79460D02*
X32562Y-79994D01*
X32372Y-79156D02*
X32181Y-79727D01*
X32677Y-79727D01*
X33362Y-79194D02*
X32981Y-79194D01*
X32943Y-79575D01*
X32981Y-79537D01*
X33058Y-79499D01*
X33248Y-79499D01*
X33324Y-79537D01*
X33362Y-79575D01*
X33401Y-79651D01*
X33401Y-79841D01*
X33362Y-79918D01*
X33324Y-79956D01*
X33248Y-79994D01*
X33058Y-79994D01*
X32981Y-79956D01*
X32943Y-79918D01*
X33705Y-79194D02*
X33705Y-79346D01*
X34010Y-79194D02*
X34010Y-79346D01*
X35535Y-79156D02*
X34849Y-80184D01*
X36831Y-79994D02*
X36373Y-79994D01*
X36602Y-79994D02*
X36602Y-79194D01*
X36526Y-79308D01*
X36450Y-79384D01*
X36373Y-79422D01*
X37173Y-79918D02*
X37212Y-79956D01*
X37173Y-79994D01*
X37135Y-79956D01*
X37173Y-79918D01*
X37173Y-79994D01*
X37974Y-79994D02*
X37516Y-79994D01*
X37745Y-79994D02*
X37745Y-79194D01*
X37669Y-79308D01*
X37593Y-79384D01*
X37516Y-79422D01*
X38659Y-79460D02*
X38659Y-79994D01*
X38469Y-79156D02*
X38278Y-79727D01*
X38774Y-79727D01*
X39078Y-79994D02*
X39078Y-79460D01*
X39078Y-79537D02*
X39117Y-79499D01*
X39193Y-79460D01*
X39307Y-79460D01*
X39383Y-79499D01*
X39421Y-79575D01*
X39421Y-79994D01*
X39421Y-79575D02*
X39459Y-79499D01*
X39536Y-79460D01*
X39650Y-79460D01*
X39726Y-79499D01*
X39764Y-79575D01*
X39764Y-79994D01*
X40145Y-79994D02*
X40145Y-79460D01*
X40145Y-79537D02*
X40184Y-79499D01*
X40260Y-79460D01*
X40374Y-79460D01*
X40450Y-79499D01*
X40488Y-79575D01*
X40488Y-79994D01*
X40488Y-79575D02*
X40526Y-79499D01*
X40603Y-79460D01*
X40717Y-79460D01*
X40793Y-79499D01*
X40831Y-79575D01*
X40831Y-79994D01*
X42051Y-80299D02*
X42013Y-80260D01*
X41937Y-80146D01*
X41899Y-80070D01*
X41861Y-79956D01*
X41822Y-79765D01*
X41822Y-79613D01*
X41861Y-79422D01*
X41899Y-79308D01*
X41937Y-79232D01*
X42013Y-79118D01*
X42051Y-79080D01*
X42317Y-79270D02*
X42355Y-79232D01*
X42432Y-79194D01*
X42622Y-79194D01*
X42698Y-79232D01*
X42736Y-79270D01*
X42775Y-79346D01*
X42775Y-79422D01*
X42736Y-79537D01*
X42279Y-79994D01*
X42775Y-79994D01*
X43727Y-79994D02*
X43727Y-79194D01*
X44070Y-79994D02*
X44070Y-79575D01*
X44032Y-79499D01*
X43956Y-79460D01*
X43842Y-79460D01*
X43766Y-79499D01*
X43727Y-79537D01*
X44566Y-79994D02*
X44490Y-79956D01*
X44451Y-79918D01*
X44413Y-79841D01*
X44413Y-79613D01*
X44451Y-79537D01*
X44490Y-79499D01*
X44566Y-79460D01*
X44680Y-79460D01*
X44756Y-79499D01*
X44794Y-79537D01*
X44832Y-79613D01*
X44832Y-79841D01*
X44794Y-79918D01*
X44756Y-79956D01*
X44680Y-79994D01*
X44566Y-79994D01*
X45290Y-79994D02*
X45214Y-79956D01*
X45175Y-79880D01*
X45175Y-79194D01*
X45899Y-79956D02*
X45823Y-79994D01*
X45671Y-79994D01*
X45594Y-79956D01*
X45556Y-79880D01*
X45556Y-79575D01*
X45594Y-79499D01*
X45671Y-79460D01*
X45823Y-79460D01*
X45899Y-79499D01*
X45937Y-79575D01*
X45937Y-79651D01*
X45556Y-79727D01*
X46242Y-79956D02*
X46319Y-79994D01*
X46471Y-79994D01*
X46547Y-79956D01*
X46585Y-79880D01*
X46585Y-79841D01*
X46547Y-79765D01*
X46471Y-79727D01*
X46357Y-79727D01*
X46280Y-79689D01*
X46242Y-79613D01*
X46242Y-79575D01*
X46280Y-79499D01*
X46357Y-79460D01*
X46471Y-79460D01*
X46547Y-79499D01*
X46852Y-80299D02*
X46890Y-80260D01*
X46967Y-80146D01*
X47005Y-80070D01*
X47043Y-79956D01*
X47081Y-79765D01*
X47081Y-79613D01*
X47043Y-79422D01*
X47005Y-79308D01*
X46967Y-79232D01*
X46890Y-79118D01*
X46852Y-79080D01*
G54D10*
X29855Y-80893D02*
X29855Y-80559D01*
X29521Y-80559D01*
X29521Y-80893D01*
X29855Y-80893D01*
G54D12*
X30467Y-80250D02*
X30543Y-80250D01*
X30619Y-80288D01*
X30657Y-80326D01*
X30695Y-80402D01*
X30734Y-80555D01*
X30734Y-80745D01*
X30695Y-80897D01*
X30657Y-80974D01*
X30619Y-81012D01*
X30543Y-81050D01*
X30467Y-81050D01*
X30391Y-81012D01*
X30353Y-80974D01*
X30314Y-80897D01*
X30276Y-80745D01*
X30276Y-80555D01*
X30314Y-80402D01*
X30353Y-80326D01*
X30391Y-80288D01*
X30467Y-80250D01*
X31076Y-80974D02*
X31115Y-81012D01*
X31076Y-81050D01*
X31038Y-81012D01*
X31076Y-80974D01*
X31076Y-81050D01*
X31610Y-80250D02*
X31686Y-80250D01*
X31762Y-80288D01*
X31800Y-80326D01*
X31838Y-80402D01*
X31877Y-80555D01*
X31877Y-80745D01*
X31838Y-80897D01*
X31800Y-80974D01*
X31762Y-81012D01*
X31686Y-81050D01*
X31610Y-81050D01*
X31534Y-81012D01*
X31496Y-80974D01*
X31457Y-80897D01*
X31419Y-80745D01*
X31419Y-80555D01*
X31457Y-80402D01*
X31496Y-80326D01*
X31534Y-80288D01*
X31610Y-80250D01*
X32562Y-80516D02*
X32562Y-81050D01*
X32372Y-80212D02*
X32181Y-80783D01*
X32677Y-80783D01*
X32905Y-80250D02*
X33439Y-80250D01*
X33096Y-81050D01*
X33705Y-80250D02*
X33705Y-80402D01*
X34010Y-80250D02*
X34010Y-80402D01*
X35535Y-80212D02*
X34849Y-81240D01*
X36831Y-81050D02*
X36373Y-81050D01*
X36602Y-81050D02*
X36602Y-80250D01*
X36526Y-80364D01*
X36450Y-80440D01*
X36373Y-80478D01*
X37173Y-80974D02*
X37212Y-81012D01*
X37173Y-81050D01*
X37135Y-81012D01*
X37173Y-80974D01*
X37173Y-81050D01*
X37516Y-80326D02*
X37554Y-80288D01*
X37631Y-80250D01*
X37821Y-80250D01*
X37897Y-80288D01*
X37935Y-80326D01*
X37974Y-80402D01*
X37974Y-80478D01*
X37935Y-80593D01*
X37478Y-81050D01*
X37974Y-81050D01*
X38469Y-80250D02*
X38545Y-80250D01*
X38621Y-80288D01*
X38659Y-80326D01*
X38697Y-80402D01*
X38736Y-80555D01*
X38736Y-80745D01*
X38697Y-80897D01*
X38659Y-80974D01*
X38621Y-81012D01*
X38545Y-81050D01*
X38469Y-81050D01*
X38393Y-81012D01*
X38355Y-80974D01*
X38316Y-80897D01*
X38278Y-80745D01*
X38278Y-80555D01*
X38316Y-80402D01*
X38355Y-80326D01*
X38393Y-80288D01*
X38469Y-80250D01*
X39078Y-81050D02*
X39078Y-80516D01*
X39078Y-80593D02*
X39117Y-80555D01*
X39193Y-80516D01*
X39307Y-80516D01*
X39383Y-80555D01*
X39421Y-80631D01*
X39421Y-81050D01*
X39421Y-80631D02*
X39459Y-80555D01*
X39536Y-80516D01*
X39650Y-80516D01*
X39726Y-80555D01*
X39764Y-80631D01*
X39764Y-81050D01*
X40145Y-81050D02*
X40145Y-80516D01*
X40145Y-80593D02*
X40184Y-80555D01*
X40260Y-80516D01*
X40374Y-80516D01*
X40450Y-80555D01*
X40488Y-80631D01*
X40488Y-81050D01*
X40488Y-80631D02*
X40526Y-80555D01*
X40603Y-80516D01*
X40717Y-80516D01*
X40793Y-80555D01*
X40831Y-80631D01*
X40831Y-81050D01*
X42051Y-81355D02*
X42013Y-81316D01*
X41937Y-81202D01*
X41899Y-81126D01*
X41861Y-81012D01*
X41822Y-80821D01*
X41822Y-80669D01*
X41861Y-80478D01*
X41899Y-80364D01*
X41937Y-80288D01*
X42013Y-80174D01*
X42051Y-80136D01*
X42736Y-80250D02*
X42355Y-80250D01*
X42317Y-80631D01*
X42355Y-80593D01*
X42432Y-80555D01*
X42622Y-80555D01*
X42698Y-80593D01*
X42736Y-80631D01*
X42775Y-80707D01*
X42775Y-80897D01*
X42736Y-80974D01*
X42698Y-81012D01*
X42622Y-81050D01*
X42432Y-81050D01*
X42355Y-81012D01*
X42317Y-80974D01*
X43727Y-81050D02*
X43727Y-80250D01*
X44070Y-81050D02*
X44070Y-80631D01*
X44032Y-80555D01*
X43956Y-80516D01*
X43842Y-80516D01*
X43766Y-80555D01*
X43727Y-80593D01*
X44566Y-81050D02*
X44490Y-81012D01*
X44451Y-80974D01*
X44413Y-80897D01*
X44413Y-80669D01*
X44451Y-80593D01*
X44490Y-80555D01*
X44566Y-80516D01*
X44680Y-80516D01*
X44756Y-80555D01*
X44794Y-80593D01*
X44832Y-80669D01*
X44832Y-80897D01*
X44794Y-80974D01*
X44756Y-81012D01*
X44680Y-81050D01*
X44566Y-81050D01*
X45290Y-81050D02*
X45214Y-81012D01*
X45175Y-80936D01*
X45175Y-80250D01*
X45899Y-81012D02*
X45823Y-81050D01*
X45671Y-81050D01*
X45594Y-81012D01*
X45556Y-80936D01*
X45556Y-80631D01*
X45594Y-80555D01*
X45671Y-80516D01*
X45823Y-80516D01*
X45899Y-80555D01*
X45937Y-80631D01*
X45937Y-80707D01*
X45556Y-80783D01*
X46242Y-81012D02*
X46319Y-81050D01*
X46471Y-81050D01*
X46547Y-81012D01*
X46585Y-80936D01*
X46585Y-80897D01*
X46547Y-80821D01*
X46471Y-80783D01*
X46357Y-80783D01*
X46280Y-80745D01*
X46242Y-80669D01*
X46242Y-80631D01*
X46280Y-80555D01*
X46357Y-80516D01*
X46471Y-80516D01*
X46547Y-80555D01*
X46852Y-81355D02*
X46890Y-81316D01*
X46967Y-81202D01*
X47005Y-81126D01*
X47043Y-81012D01*
X47081Y-80821D01*
X47081Y-80669D01*
X47043Y-80478D01*
X47005Y-80364D01*
X46967Y-80288D01*
X46890Y-80174D01*
X46852Y-80136D01*
G54D10*
X29674Y-82032D02*
X29924Y-81782D01*
X29674Y-81532D01*
X29424Y-81782D01*
X29674Y-82032D01*
G54D12*
X30467Y-81306D02*
X30543Y-81306D01*
X30619Y-81344D01*
X30657Y-81382D01*
X30695Y-81458D01*
X30734Y-81611D01*
X30734Y-81801D01*
X30695Y-81953D01*
X30657Y-82030D01*
X30619Y-82068D01*
X30543Y-82106D01*
X30467Y-82106D01*
X30391Y-82068D01*
X30353Y-82030D01*
X30314Y-81953D01*
X30276Y-81801D01*
X30276Y-81611D01*
X30314Y-81458D01*
X30353Y-81382D01*
X30391Y-81344D01*
X30467Y-81306D01*
X31076Y-82030D02*
X31115Y-82068D01*
X31076Y-82106D01*
X31038Y-82068D01*
X31076Y-82030D01*
X31076Y-82106D01*
X31610Y-81306D02*
X31686Y-81306D01*
X31762Y-81344D01*
X31800Y-81382D01*
X31838Y-81458D01*
X31877Y-81611D01*
X31877Y-81801D01*
X31838Y-81953D01*
X31800Y-82030D01*
X31762Y-82068D01*
X31686Y-82106D01*
X31610Y-82106D01*
X31534Y-82068D01*
X31496Y-82030D01*
X31457Y-81953D01*
X31419Y-81801D01*
X31419Y-81611D01*
X31457Y-81458D01*
X31496Y-81382D01*
X31534Y-81344D01*
X31610Y-81306D01*
X32600Y-81306D02*
X32219Y-81306D01*
X32181Y-81687D01*
X32219Y-81649D01*
X32296Y-81611D01*
X32486Y-81611D01*
X32562Y-81649D01*
X32600Y-81687D01*
X32639Y-81763D01*
X32639Y-81953D01*
X32600Y-82030D01*
X32562Y-82068D01*
X32486Y-82106D01*
X32296Y-82106D01*
X32219Y-82068D01*
X32181Y-82030D01*
X33134Y-81306D02*
X33210Y-81306D01*
X33286Y-81344D01*
X33324Y-81382D01*
X33362Y-81458D01*
X33401Y-81611D01*
X33401Y-81801D01*
X33362Y-81953D01*
X33324Y-82030D01*
X33286Y-82068D01*
X33210Y-82106D01*
X33134Y-82106D01*
X33058Y-82068D01*
X33020Y-82030D01*
X32981Y-81953D01*
X32943Y-81801D01*
X32943Y-81611D01*
X32981Y-81458D01*
X33020Y-81382D01*
X33058Y-81344D01*
X33134Y-81306D01*
X33705Y-81306D02*
X33705Y-81458D01*
X34010Y-81306D02*
X34010Y-81458D01*
X35535Y-81268D02*
X34849Y-82296D01*
X36831Y-82106D02*
X36373Y-82106D01*
X36602Y-82106D02*
X36602Y-81306D01*
X36526Y-81420D01*
X36450Y-81496D01*
X36373Y-81534D01*
X37173Y-82030D02*
X37212Y-82068D01*
X37173Y-82106D01*
X37135Y-82068D01*
X37173Y-82030D01*
X37173Y-82106D01*
X37516Y-81382D02*
X37554Y-81344D01*
X37631Y-81306D01*
X37821Y-81306D01*
X37897Y-81344D01*
X37935Y-81382D01*
X37974Y-81458D01*
X37974Y-81534D01*
X37935Y-81649D01*
X37478Y-82106D01*
X37974Y-82106D01*
X38240Y-81306D02*
X38774Y-81306D01*
X38431Y-82106D01*
X39078Y-82106D02*
X39078Y-81572D01*
X39078Y-81649D02*
X39117Y-81611D01*
X39193Y-81572D01*
X39307Y-81572D01*
X39383Y-81611D01*
X39421Y-81687D01*
X39421Y-82106D01*
X39421Y-81687D02*
X39459Y-81611D01*
X39536Y-81572D01*
X39650Y-81572D01*
X39726Y-81611D01*
X39764Y-81687D01*
X39764Y-82106D01*
X40145Y-82106D02*
X40145Y-81572D01*
X40145Y-81649D02*
X40184Y-81611D01*
X40260Y-81572D01*
X40374Y-81572D01*
X40450Y-81611D01*
X40488Y-81687D01*
X40488Y-82106D01*
X40488Y-81687D02*
X40526Y-81611D01*
X40603Y-81572D01*
X40717Y-81572D01*
X40793Y-81611D01*
X40831Y-81687D01*
X40831Y-82106D01*
X42051Y-82411D02*
X42013Y-82372D01*
X41937Y-82258D01*
X41899Y-82182D01*
X41861Y-82068D01*
X41822Y-81877D01*
X41822Y-81725D01*
X41861Y-81534D01*
X41899Y-81420D01*
X41937Y-81344D01*
X42013Y-81230D01*
X42051Y-81192D01*
X42317Y-81382D02*
X42355Y-81344D01*
X42432Y-81306D01*
X42622Y-81306D01*
X42698Y-81344D01*
X42736Y-81382D01*
X42775Y-81458D01*
X42775Y-81534D01*
X42736Y-81649D01*
X42279Y-82106D01*
X42775Y-82106D01*
X43727Y-82106D02*
X43727Y-81306D01*
X44070Y-82106D02*
X44070Y-81687D01*
X44032Y-81611D01*
X43956Y-81572D01*
X43842Y-81572D01*
X43766Y-81611D01*
X43727Y-81649D01*
X44566Y-82106D02*
X44490Y-82068D01*
X44451Y-82030D01*
X44413Y-81953D01*
X44413Y-81725D01*
X44451Y-81649D01*
X44490Y-81611D01*
X44566Y-81572D01*
X44680Y-81572D01*
X44756Y-81611D01*
X44794Y-81649D01*
X44832Y-81725D01*
X44832Y-81953D01*
X44794Y-82030D01*
X44756Y-82068D01*
X44680Y-82106D01*
X44566Y-82106D01*
X45290Y-82106D02*
X45214Y-82068D01*
X45175Y-81992D01*
X45175Y-81306D01*
X45899Y-82068D02*
X45823Y-82106D01*
X45671Y-82106D01*
X45594Y-82068D01*
X45556Y-81992D01*
X45556Y-81687D01*
X45594Y-81611D01*
X45671Y-81572D01*
X45823Y-81572D01*
X45899Y-81611D01*
X45937Y-81687D01*
X45937Y-81763D01*
X45556Y-81839D01*
X46242Y-82068D02*
X46319Y-82106D01*
X46471Y-82106D01*
X46547Y-82068D01*
X46585Y-81992D01*
X46585Y-81953D01*
X46547Y-81877D01*
X46471Y-81839D01*
X46357Y-81839D01*
X46280Y-81801D01*
X46242Y-81725D01*
X46242Y-81687D01*
X46280Y-81611D01*
X46357Y-81572D01*
X46471Y-81572D01*
X46547Y-81611D01*
X46852Y-82411D02*
X46890Y-82372D01*
X46967Y-82258D01*
X47005Y-82182D01*
X47043Y-82068D01*
X47081Y-81877D01*
X47081Y-81725D01*
X47043Y-81534D01*
X47005Y-81420D01*
X46967Y-81344D01*
X46890Y-81230D01*
X46852Y-81192D01*
G54D10*
X29848Y-83022D02*
X29848Y-82654D01*
X29480Y-82654D01*
X29480Y-83022D01*
X29848Y-83022D01*
X29404Y-82578D02*
X29924Y-83098D01*
X29924Y-82578D02*
X29404Y-83098D01*
G54D12*
X30467Y-82362D02*
X30543Y-82362D01*
X30619Y-82400D01*
X30657Y-82438D01*
X30695Y-82514D01*
X30734Y-82667D01*
X30734Y-82857D01*
X30695Y-83009D01*
X30657Y-83086D01*
X30619Y-83124D01*
X30543Y-83162D01*
X30467Y-83162D01*
X30391Y-83124D01*
X30353Y-83086D01*
X30314Y-83009D01*
X30276Y-82857D01*
X30276Y-82667D01*
X30314Y-82514D01*
X30353Y-82438D01*
X30391Y-82400D01*
X30467Y-82362D01*
X31076Y-83086D02*
X31115Y-83124D01*
X31076Y-83162D01*
X31038Y-83124D01*
X31076Y-83086D01*
X31076Y-83162D01*
X31610Y-82362D02*
X31686Y-82362D01*
X31762Y-82400D01*
X31800Y-82438D01*
X31838Y-82514D01*
X31877Y-82667D01*
X31877Y-82857D01*
X31838Y-83009D01*
X31800Y-83086D01*
X31762Y-83124D01*
X31686Y-83162D01*
X31610Y-83162D01*
X31534Y-83124D01*
X31496Y-83086D01*
X31457Y-83009D01*
X31419Y-82857D01*
X31419Y-82667D01*
X31457Y-82514D01*
X31496Y-82438D01*
X31534Y-82400D01*
X31610Y-82362D01*
X32600Y-82362D02*
X32219Y-82362D01*
X32181Y-82743D01*
X32219Y-82705D01*
X32296Y-82667D01*
X32486Y-82667D01*
X32562Y-82705D01*
X32600Y-82743D01*
X32639Y-82819D01*
X32639Y-83009D01*
X32600Y-83086D01*
X32562Y-83124D01*
X32486Y-83162D01*
X32296Y-83162D01*
X32219Y-83124D01*
X32181Y-83086D01*
X32943Y-82438D02*
X32981Y-82400D01*
X33058Y-82362D01*
X33248Y-82362D01*
X33324Y-82400D01*
X33362Y-82438D01*
X33401Y-82514D01*
X33401Y-82590D01*
X33362Y-82705D01*
X32905Y-83162D01*
X33401Y-83162D01*
X33705Y-82362D02*
X33705Y-82514D01*
X34010Y-82362D02*
X34010Y-82514D01*
X35535Y-82324D02*
X34849Y-83352D01*
X36831Y-83162D02*
X36373Y-83162D01*
X36602Y-83162D02*
X36602Y-82362D01*
X36526Y-82476D01*
X36450Y-82552D01*
X36373Y-82590D01*
X37173Y-83086D02*
X37212Y-83124D01*
X37173Y-83162D01*
X37135Y-83124D01*
X37173Y-83086D01*
X37173Y-83162D01*
X37478Y-82362D02*
X37974Y-82362D01*
X37707Y-82667D01*
X37821Y-82667D01*
X37897Y-82705D01*
X37935Y-82743D01*
X37974Y-82819D01*
X37974Y-83009D01*
X37935Y-83086D01*
X37897Y-83124D01*
X37821Y-83162D01*
X37593Y-83162D01*
X37516Y-83124D01*
X37478Y-83086D01*
X38278Y-82438D02*
X38316Y-82400D01*
X38393Y-82362D01*
X38583Y-82362D01*
X38659Y-82400D01*
X38697Y-82438D01*
X38736Y-82514D01*
X38736Y-82590D01*
X38697Y-82705D01*
X38240Y-83162D01*
X38736Y-83162D01*
X39078Y-83162D02*
X39078Y-82628D01*
X39078Y-82705D02*
X39117Y-82667D01*
X39193Y-82628D01*
X39307Y-82628D01*
X39383Y-82667D01*
X39421Y-82743D01*
X39421Y-83162D01*
X39421Y-82743D02*
X39459Y-82667D01*
X39536Y-82628D01*
X39650Y-82628D01*
X39726Y-82667D01*
X39764Y-82743D01*
X39764Y-83162D01*
X40145Y-83162D02*
X40145Y-82628D01*
X40145Y-82705D02*
X40184Y-82667D01*
X40260Y-82628D01*
X40374Y-82628D01*
X40450Y-82667D01*
X40488Y-82743D01*
X40488Y-83162D01*
X40488Y-82743D02*
X40526Y-82667D01*
X40603Y-82628D01*
X40717Y-82628D01*
X40793Y-82667D01*
X40831Y-82743D01*
X40831Y-83162D01*
X42051Y-83467D02*
X42013Y-83428D01*
X41937Y-83314D01*
X41899Y-83238D01*
X41861Y-83124D01*
X41822Y-82933D01*
X41822Y-82781D01*
X41861Y-82590D01*
X41899Y-82476D01*
X41937Y-82400D01*
X42013Y-82286D01*
X42051Y-82248D01*
X42775Y-83162D02*
X42317Y-83162D01*
X42546Y-83162D02*
X42546Y-82362D01*
X42470Y-82476D01*
X42394Y-82552D01*
X42317Y-82590D01*
X43270Y-82362D02*
X43346Y-82362D01*
X43422Y-82400D01*
X43460Y-82438D01*
X43498Y-82514D01*
X43537Y-82667D01*
X43537Y-82857D01*
X43498Y-83009D01*
X43460Y-83086D01*
X43422Y-83124D01*
X43346Y-83162D01*
X43270Y-83162D01*
X43194Y-83124D01*
X43156Y-83086D01*
X43117Y-83009D01*
X43079Y-82857D01*
X43079Y-82667D01*
X43117Y-82514D01*
X43156Y-82438D01*
X43194Y-82400D01*
X43270Y-82362D01*
X44489Y-83162D02*
X44489Y-82362D01*
X44832Y-83162D02*
X44832Y-82743D01*
X44794Y-82667D01*
X44718Y-82628D01*
X44604Y-82628D01*
X44528Y-82667D01*
X44489Y-82705D01*
X45328Y-83162D02*
X45252Y-83124D01*
X45213Y-83086D01*
X45175Y-83009D01*
X45175Y-82781D01*
X45213Y-82705D01*
X45252Y-82667D01*
X45328Y-82628D01*
X45442Y-82628D01*
X45518Y-82667D01*
X45556Y-82705D01*
X45594Y-82781D01*
X45594Y-83009D01*
X45556Y-83086D01*
X45518Y-83124D01*
X45442Y-83162D01*
X45328Y-83162D01*
X46052Y-83162D02*
X45976Y-83124D01*
X45937Y-83048D01*
X45937Y-82362D01*
X46661Y-83124D02*
X46585Y-83162D01*
X46433Y-83162D01*
X46356Y-83124D01*
X46318Y-83048D01*
X46318Y-82743D01*
X46356Y-82667D01*
X46433Y-82628D01*
X46585Y-82628D01*
X46661Y-82667D01*
X46699Y-82743D01*
X46699Y-82819D01*
X46318Y-82895D01*
X47004Y-83124D02*
X47081Y-83162D01*
X47233Y-83162D01*
X47309Y-83124D01*
X47347Y-83048D01*
X47347Y-83009D01*
X47309Y-82933D01*
X47233Y-82895D01*
X47119Y-82895D01*
X47042Y-82857D01*
X47004Y-82781D01*
X47004Y-82743D01*
X47042Y-82667D01*
X47119Y-82628D01*
X47233Y-82628D01*
X47309Y-82667D01*
X47614Y-83467D02*
X47652Y-83428D01*
X47729Y-83314D01*
X47767Y-83238D01*
X47805Y-83124D01*
X47843Y-82933D01*
X47843Y-82781D01*
X47805Y-82590D01*
X47767Y-82476D01*
X47729Y-82400D01*
X47652Y-82286D01*
X47614Y-82248D01*
G54D10*
X28924Y-84894D02*
X29924Y-83894D01*
X28924Y-82894D01*
X27924Y-83894D01*
X28924Y-84894D01*
X28924Y-82894D02*
X28924Y-84894D01*
X29924Y-83894D02*
X27924Y-83894D01*
G54D12*
X30467Y-83418D02*
X30543Y-83418D01*
X30619Y-83456D01*
X30657Y-83494D01*
X30695Y-83570D01*
X30734Y-83723D01*
X30734Y-83913D01*
X30695Y-84065D01*
X30657Y-84142D01*
X30619Y-84180D01*
X30543Y-84218D01*
X30467Y-84218D01*
X30391Y-84180D01*
X30353Y-84142D01*
X30314Y-84065D01*
X30276Y-83913D01*
X30276Y-83723D01*
X30314Y-83570D01*
X30353Y-83494D01*
X30391Y-83456D01*
X30467Y-83418D01*
X31076Y-84142D02*
X31115Y-84180D01*
X31076Y-84218D01*
X31038Y-84180D01*
X31076Y-84142D01*
X31076Y-84218D01*
X31419Y-83494D02*
X31457Y-83456D01*
X31534Y-83418D01*
X31724Y-83418D01*
X31800Y-83456D01*
X31838Y-83494D01*
X31877Y-83570D01*
X31877Y-83646D01*
X31838Y-83761D01*
X31381Y-84218D01*
X31877Y-84218D01*
X32372Y-83418D02*
X32448Y-83418D01*
X32524Y-83456D01*
X32562Y-83494D01*
X32600Y-83570D01*
X32639Y-83723D01*
X32639Y-83913D01*
X32600Y-84065D01*
X32562Y-84142D01*
X32524Y-84180D01*
X32448Y-84218D01*
X32372Y-84218D01*
X32296Y-84180D01*
X32258Y-84142D01*
X32219Y-84065D01*
X32181Y-83913D01*
X32181Y-83723D01*
X32219Y-83570D01*
X32258Y-83494D01*
X32296Y-83456D01*
X32372Y-83418D01*
X33134Y-83418D02*
X33210Y-83418D01*
X33286Y-83456D01*
X33324Y-83494D01*
X33362Y-83570D01*
X33401Y-83723D01*
X33401Y-83913D01*
X33362Y-84065D01*
X33324Y-84142D01*
X33286Y-84180D01*
X33210Y-84218D01*
X33134Y-84218D01*
X33058Y-84180D01*
X33020Y-84142D01*
X32981Y-84065D01*
X32943Y-83913D01*
X32943Y-83723D01*
X32981Y-83570D01*
X33020Y-83494D01*
X33058Y-83456D01*
X33134Y-83418D01*
X33705Y-83418D02*
X33705Y-83570D01*
X34010Y-83418D02*
X34010Y-83570D01*
X35535Y-83380D02*
X34849Y-84408D01*
X36792Y-83418D02*
X36411Y-83418D01*
X36373Y-83799D01*
X36411Y-83761D01*
X36488Y-83723D01*
X36678Y-83723D01*
X36754Y-83761D01*
X36792Y-83799D01*
X36831Y-83875D01*
X36831Y-84065D01*
X36792Y-84142D01*
X36754Y-84180D01*
X36678Y-84218D01*
X36488Y-84218D01*
X36411Y-84180D01*
X36373Y-84142D01*
X37173Y-84142D02*
X37212Y-84180D01*
X37173Y-84218D01*
X37135Y-84180D01*
X37173Y-84142D01*
X37173Y-84218D01*
X37707Y-83418D02*
X37783Y-83418D01*
X37859Y-83456D01*
X37897Y-83494D01*
X37935Y-83570D01*
X37974Y-83723D01*
X37974Y-83913D01*
X37935Y-84065D01*
X37897Y-84142D01*
X37859Y-84180D01*
X37783Y-84218D01*
X37707Y-84218D01*
X37631Y-84180D01*
X37593Y-84142D01*
X37554Y-84065D01*
X37516Y-83913D01*
X37516Y-83723D01*
X37554Y-83570D01*
X37593Y-83494D01*
X37631Y-83456D01*
X37707Y-83418D01*
X38431Y-83761D02*
X38355Y-83723D01*
X38316Y-83684D01*
X38278Y-83608D01*
X38278Y-83570D01*
X38316Y-83494D01*
X38355Y-83456D01*
X38431Y-83418D01*
X38583Y-83418D01*
X38659Y-83456D01*
X38697Y-83494D01*
X38736Y-83570D01*
X38736Y-83608D01*
X38697Y-83684D01*
X38659Y-83723D01*
X38583Y-83761D01*
X38431Y-83761D01*
X38355Y-83799D01*
X38316Y-83837D01*
X38278Y-83913D01*
X38278Y-84065D01*
X38316Y-84142D01*
X38355Y-84180D01*
X38431Y-84218D01*
X38583Y-84218D01*
X38659Y-84180D01*
X38697Y-84142D01*
X38736Y-84065D01*
X38736Y-83913D01*
X38697Y-83837D01*
X38659Y-83799D01*
X38583Y-83761D01*
X39078Y-84218D02*
X39078Y-83684D01*
X39078Y-83761D02*
X39117Y-83723D01*
X39193Y-83684D01*
X39307Y-83684D01*
X39383Y-83723D01*
X39421Y-83799D01*
X39421Y-84218D01*
X39421Y-83799D02*
X39459Y-83723D01*
X39536Y-83684D01*
X39650Y-83684D01*
X39726Y-83723D01*
X39764Y-83799D01*
X39764Y-84218D01*
X40145Y-84218D02*
X40145Y-83684D01*
X40145Y-83761D02*
X40184Y-83723D01*
X40260Y-83684D01*
X40374Y-83684D01*
X40450Y-83723D01*
X40488Y-83799D01*
X40488Y-84218D01*
X40488Y-83799D02*
X40526Y-83723D01*
X40603Y-83684D01*
X40717Y-83684D01*
X40793Y-83723D01*
X40831Y-83799D01*
X40831Y-84218D01*
X42051Y-84523D02*
X42013Y-84484D01*
X41937Y-84370D01*
X41899Y-84294D01*
X41861Y-84180D01*
X41822Y-83989D01*
X41822Y-83837D01*
X41861Y-83646D01*
X41899Y-83532D01*
X41937Y-83456D01*
X42013Y-83342D01*
X42051Y-83304D01*
X42698Y-83684D02*
X42698Y-84218D01*
X42508Y-83380D02*
X42317Y-83951D01*
X42813Y-83951D01*
X43727Y-84218D02*
X43727Y-83418D01*
X44070Y-84218D02*
X44070Y-83799D01*
X44032Y-83723D01*
X43956Y-83684D01*
X43842Y-83684D01*
X43766Y-83723D01*
X43727Y-83761D01*
X44566Y-84218D02*
X44490Y-84180D01*
X44451Y-84142D01*
X44413Y-84065D01*
X44413Y-83837D01*
X44451Y-83761D01*
X44490Y-83723D01*
X44566Y-83684D01*
X44680Y-83684D01*
X44756Y-83723D01*
X44794Y-83761D01*
X44832Y-83837D01*
X44832Y-84065D01*
X44794Y-84142D01*
X44756Y-84180D01*
X44680Y-84218D01*
X44566Y-84218D01*
X45290Y-84218D02*
X45214Y-84180D01*
X45175Y-84104D01*
X45175Y-83418D01*
X45899Y-84180D02*
X45823Y-84218D01*
X45671Y-84218D01*
X45594Y-84180D01*
X45556Y-84104D01*
X45556Y-83799D01*
X45594Y-83723D01*
X45671Y-83684D01*
X45823Y-83684D01*
X45899Y-83723D01*
X45937Y-83799D01*
X45937Y-83875D01*
X45556Y-83951D01*
X46242Y-84180D02*
X46319Y-84218D01*
X46471Y-84218D01*
X46547Y-84180D01*
X46585Y-84104D01*
X46585Y-84065D01*
X46547Y-83989D01*
X46471Y-83951D01*
X46357Y-83951D01*
X46280Y-83913D01*
X46242Y-83837D01*
X46242Y-83799D01*
X46280Y-83723D01*
X46357Y-83684D01*
X46471Y-83684D01*
X46547Y-83723D01*
X46852Y-84523D02*
X46890Y-84484D01*
X46967Y-84370D01*
X47005Y-84294D01*
X47043Y-84180D01*
X47081Y-83989D01*
X47081Y-83837D01*
X47043Y-83646D01*
X47005Y-83532D01*
X46967Y-83456D01*
X46890Y-83342D01*
X46852Y-83304D01*
M02*
