G04 (created by PCBNEW-RS274X (2011-05-25)-stable) date Sat 09 Jun 2012 10:58:35 AM MDT*
G01*
G70*
G90*
%MOIN*%
G04 Gerber Fmt 3.4, Leading zero omitted, Abs format*
%FSLAX34Y34*%
G04 APERTURE LIST*
%ADD10C,0.006000*%
%ADD11C,0.015000*%
%ADD12R,0.075000X0.075000*%
%ADD13C,0.075000*%
%ADD14C,0.079100*%
%ADD15R,0.080000X0.080000*%
%ADD16C,0.080000*%
%ADD17R,0.095000X0.095000*%
%ADD18C,0.095000*%
%ADD19O,0.110000X0.082000*%
%ADD20R,0.110000X0.082000*%
%ADD21O,0.082000X0.110000*%
%ADD22R,0.082000X0.110000*%
%ADD23C,0.090000*%
%ADD24R,0.090000X0.090000*%
%ADD25R,0.085000X0.085000*%
%ADD26C,0.085000*%
%ADD27C,0.067200*%
%ADD28R,0.140000X0.140000*%
%ADD29C,0.140000*%
%ADD30O,0.118400X0.090900*%
%ADD31C,0.320000*%
G04 APERTURE END LIST*
G54D10*
G54D11*
X90000Y-70000D02*
X90000Y-71250D01*
X30000Y-71250D02*
X30000Y-69500D01*
X30000Y-20000D02*
X30000Y-70000D01*
X90000Y-20000D02*
X30000Y-20000D01*
X90000Y-70000D02*
X90000Y-20000D01*
X30000Y-71250D02*
X90000Y-71250D01*
%LPC*%
G54D12*
X58500Y-22500D03*
G54D13*
X57500Y-22500D03*
X56500Y-22500D03*
X55500Y-22500D03*
X54500Y-22500D03*
X53500Y-22500D03*
X52500Y-22500D03*
X51500Y-22500D03*
G54D12*
X50500Y-22500D03*
G54D13*
X49500Y-22500D03*
X48500Y-22500D03*
X47500Y-22500D03*
X46500Y-22500D03*
X45500Y-22500D03*
X44500Y-22500D03*
X43500Y-22500D03*
G54D14*
X88500Y-62000D03*
X78500Y-62000D03*
G54D15*
X69600Y-34800D03*
G54D16*
X70600Y-34800D03*
X71600Y-34800D03*
G54D15*
X69600Y-36400D03*
G54D16*
X70600Y-36400D03*
X71600Y-36400D03*
G54D15*
X69600Y-33200D03*
G54D16*
X70600Y-33200D03*
X71600Y-33200D03*
G54D15*
X37500Y-67500D03*
G54D16*
X38500Y-67500D03*
X39500Y-67500D03*
X40500Y-67500D03*
X41500Y-67500D03*
X42500Y-67500D03*
G54D15*
X48000Y-67500D03*
G54D16*
X49000Y-67500D03*
X50000Y-67500D03*
X51000Y-67500D03*
X52000Y-67500D03*
X53000Y-67500D03*
G54D17*
X73500Y-49500D03*
G54D18*
X73500Y-47500D03*
G54D17*
X82500Y-51500D03*
G54D18*
X82500Y-49500D03*
G54D19*
X51000Y-37000D03*
X51000Y-38000D03*
X51000Y-39000D03*
X51000Y-40000D03*
X51000Y-41000D03*
X51000Y-42000D03*
X51000Y-43000D03*
X51000Y-44000D03*
X51000Y-45000D03*
X51000Y-46000D03*
X51000Y-47000D03*
X51000Y-48000D03*
X51000Y-49000D03*
G54D20*
X51000Y-36000D03*
G54D19*
X54000Y-49000D03*
X54000Y-48000D03*
X54000Y-47000D03*
X54000Y-46000D03*
X54000Y-45000D03*
X54000Y-44000D03*
X54000Y-43000D03*
X54000Y-42000D03*
X54000Y-41000D03*
X54000Y-40000D03*
X54000Y-39000D03*
X54000Y-38000D03*
X54000Y-37000D03*
X54000Y-36000D03*
G54D21*
X34500Y-59000D03*
X35500Y-59000D03*
X36500Y-59000D03*
X37500Y-59000D03*
X38500Y-59000D03*
X39500Y-59000D03*
X40500Y-59000D03*
X41500Y-59000D03*
X42500Y-59000D03*
X43500Y-59000D03*
X44500Y-59000D03*
X45500Y-59000D03*
X46500Y-59000D03*
G54D22*
X33500Y-59000D03*
G54D21*
X46500Y-56000D03*
X45500Y-56000D03*
X44500Y-56000D03*
X43500Y-56000D03*
X42500Y-56000D03*
X41500Y-56000D03*
X40500Y-56000D03*
X39500Y-56000D03*
X38500Y-56000D03*
X37500Y-56000D03*
X36500Y-56000D03*
X35500Y-56000D03*
X34500Y-56000D03*
X33500Y-56000D03*
G54D22*
X52000Y-63000D03*
G54D21*
X53000Y-63000D03*
X54000Y-63000D03*
X55000Y-63000D03*
X56000Y-63000D03*
X57000Y-63000D03*
X58000Y-63000D03*
X59000Y-63000D03*
X60000Y-63000D03*
X60000Y-60000D03*
X59000Y-60000D03*
X58000Y-60000D03*
X57000Y-60000D03*
X56000Y-60000D03*
X55000Y-60000D03*
X54000Y-60000D03*
X53000Y-60000D03*
X52000Y-60000D03*
G54D23*
X84500Y-54000D03*
G54D24*
X88500Y-54000D03*
G54D12*
X88500Y-64500D03*
G54D13*
X85500Y-64500D03*
X76000Y-34500D03*
X74000Y-34500D03*
X76500Y-59000D03*
X74500Y-59000D03*
X67000Y-22500D03*
X69000Y-22500D03*
X85500Y-35000D03*
X84500Y-35000D03*
X71500Y-51500D03*
X73500Y-51500D03*
X85500Y-33000D03*
X84500Y-33000D03*
G54D15*
X61000Y-67500D03*
G54D16*
X62000Y-67500D03*
X63000Y-67500D03*
X64000Y-67500D03*
X65000Y-67500D03*
X66000Y-67500D03*
G54D24*
X68500Y-47500D03*
G54D23*
X68500Y-49500D03*
G54D13*
X84000Y-42500D03*
X84000Y-40500D03*
G54D23*
X68500Y-58500D03*
G54D24*
X68500Y-53500D03*
G54D23*
X77500Y-63000D03*
G54D24*
X73500Y-63000D03*
G54D12*
X79000Y-57500D03*
G54D13*
X79000Y-60500D03*
G54D12*
X80000Y-52500D03*
G54D13*
X77000Y-52500D03*
G54D15*
X74000Y-67500D03*
G54D16*
X75000Y-67500D03*
X76000Y-67500D03*
X77000Y-67500D03*
X78000Y-67500D03*
X79000Y-67500D03*
G54D12*
X40500Y-42000D03*
G54D13*
X39500Y-42000D03*
X38500Y-42000D03*
X37500Y-42000D03*
X36500Y-42000D03*
X35500Y-42000D03*
X34500Y-42000D03*
X33500Y-42000D03*
G54D19*
X80500Y-41500D03*
X80500Y-40500D03*
X80500Y-39500D03*
X80500Y-38500D03*
X80500Y-37500D03*
X80500Y-36500D03*
X80500Y-35500D03*
X80500Y-34500D03*
X80500Y-33500D03*
X80500Y-32500D03*
X80500Y-31500D03*
X80500Y-30500D03*
X80500Y-29500D03*
G54D20*
X80500Y-42500D03*
G54D19*
X77500Y-29500D03*
X77500Y-30500D03*
X77500Y-31500D03*
X77500Y-32500D03*
X77500Y-33500D03*
X77500Y-34500D03*
X77500Y-35500D03*
X77500Y-36500D03*
X77500Y-37500D03*
X77500Y-38500D03*
X77500Y-39500D03*
X77500Y-40500D03*
X77500Y-41500D03*
X77500Y-42500D03*
G54D15*
X73000Y-30500D03*
G54D16*
X73000Y-29500D03*
X74000Y-30500D03*
X74000Y-29500D03*
X75000Y-30500D03*
X75000Y-29500D03*
G54D13*
X89000Y-42500D03*
X89000Y-44500D03*
X86000Y-42500D03*
X86000Y-44500D03*
G54D25*
X70500Y-60000D03*
G54D26*
X71500Y-60000D03*
G54D24*
X64000Y-54500D03*
G54D23*
X66000Y-54500D03*
G54D13*
X66000Y-51500D03*
X64000Y-51500D03*
G54D24*
X78000Y-49500D03*
G54D23*
X78000Y-47500D03*
G54D25*
X73000Y-55500D03*
G54D26*
X73000Y-56500D03*
G54D13*
X76000Y-57000D03*
X76000Y-55000D03*
X74000Y-35500D03*
X76000Y-35500D03*
G54D26*
X69000Y-62000D03*
X66000Y-62000D03*
X64500Y-61000D03*
X67500Y-61000D03*
X88000Y-49500D03*
X88000Y-52500D03*
X86000Y-52500D03*
X86000Y-49500D03*
X44500Y-54500D03*
X47500Y-54500D03*
X78000Y-27500D03*
X75000Y-27500D03*
G54D27*
X64500Y-44000D03*
X64500Y-41000D03*
G54D12*
X66500Y-59000D03*
G54D13*
X65500Y-59000D03*
X65500Y-58000D03*
G54D23*
X82500Y-33000D03*
X82500Y-35000D03*
G54D22*
X53500Y-33500D03*
G54D21*
X54500Y-33500D03*
X55500Y-33500D03*
X56500Y-33500D03*
X57500Y-33500D03*
X58500Y-33500D03*
X59500Y-33500D03*
X60500Y-33500D03*
X61500Y-33500D03*
X61500Y-30500D03*
X60500Y-30500D03*
X59500Y-30500D03*
X58500Y-30500D03*
X57500Y-30500D03*
X56500Y-30500D03*
X55500Y-30500D03*
X54500Y-30500D03*
X53500Y-30500D03*
G54D22*
X43500Y-33500D03*
G54D21*
X44500Y-33500D03*
X45500Y-33500D03*
X46500Y-33500D03*
X47500Y-33500D03*
X48500Y-33500D03*
X49500Y-33500D03*
X50500Y-33500D03*
X51500Y-33500D03*
X51500Y-30500D03*
X50500Y-30500D03*
X49500Y-30500D03*
X48500Y-30500D03*
X47500Y-30500D03*
X46500Y-30500D03*
X45500Y-30500D03*
X44500Y-30500D03*
X43500Y-30500D03*
G54D22*
X33500Y-53500D03*
G54D21*
X34500Y-53500D03*
X35500Y-53500D03*
X36500Y-53500D03*
X37500Y-53500D03*
X38500Y-53500D03*
X39500Y-53500D03*
X40500Y-53500D03*
X41500Y-53500D03*
X41500Y-50500D03*
X40500Y-50500D03*
X39500Y-50500D03*
X38500Y-50500D03*
X37500Y-50500D03*
X36500Y-50500D03*
X35500Y-50500D03*
X34500Y-50500D03*
X33500Y-50500D03*
G54D22*
X40500Y-61000D03*
G54D21*
X39500Y-61000D03*
X38500Y-61000D03*
X37500Y-61000D03*
X36500Y-61000D03*
X35500Y-61000D03*
X34500Y-61000D03*
X33500Y-61000D03*
X32500Y-61000D03*
X32500Y-64000D03*
X33500Y-64000D03*
X34500Y-64000D03*
X35500Y-64000D03*
X36500Y-64000D03*
X37500Y-64000D03*
X38500Y-64000D03*
X39500Y-64000D03*
X40500Y-64000D03*
G54D26*
X85500Y-31500D03*
X85500Y-28500D03*
X86000Y-27500D03*
X83000Y-27500D03*
G54D12*
X33500Y-48000D03*
G54D13*
X34500Y-48000D03*
X35500Y-48000D03*
X36500Y-48000D03*
X37500Y-48000D03*
X38500Y-48000D03*
X39500Y-48000D03*
X40500Y-48000D03*
X40500Y-45000D03*
X39500Y-45000D03*
X38500Y-45000D03*
X37500Y-45000D03*
X36500Y-45000D03*
X35500Y-45000D03*
X34500Y-45000D03*
X33500Y-45000D03*
G54D28*
X70500Y-23500D03*
G54D29*
X84500Y-23500D03*
G54D26*
X55500Y-47000D03*
X55500Y-50000D03*
G54D22*
X50500Y-25500D03*
G54D21*
X49500Y-25500D03*
X48500Y-25500D03*
X47500Y-25500D03*
X46500Y-25500D03*
X45500Y-25500D03*
X44500Y-25500D03*
X43500Y-25500D03*
X43500Y-28500D03*
X44500Y-28500D03*
X45500Y-28500D03*
X46500Y-28500D03*
X47500Y-28500D03*
X48500Y-28500D03*
X49500Y-28500D03*
X50500Y-28500D03*
G54D22*
X51500Y-28500D03*
G54D21*
X52500Y-28500D03*
X53500Y-28500D03*
X54500Y-28500D03*
X55500Y-28500D03*
X56500Y-28500D03*
X57500Y-28500D03*
X58500Y-28500D03*
X58500Y-25500D03*
X57500Y-25500D03*
X56500Y-25500D03*
X55500Y-25500D03*
X54500Y-25500D03*
X53500Y-25500D03*
X52500Y-25500D03*
X51500Y-25500D03*
G54D15*
X88000Y-41000D03*
G54D16*
X88000Y-40000D03*
X88000Y-39000D03*
X88000Y-38000D03*
X88000Y-37000D03*
X88000Y-36000D03*
G54D30*
X80504Y-55500D03*
X80504Y-54122D03*
X80504Y-56878D03*
X81685Y-56209D03*
X81685Y-54791D03*
G54D31*
X32500Y-22500D03*
X87500Y-22500D03*
X32500Y-67500D03*
X87500Y-67500D03*
M02*
