M48
;DRILL file {PCBnew (2011-05-25)-stable} date Sat 09 Jun 2012 10:58:28 AM MDT
;FORMAT={-:-/ absolute / inch / decimal}
FMAT,2
INCH,TZ
T1C0.024
T2C0.025
T3C0.032
T4C0.039
T5C0.040
T6C0.045
T7C0.047
T8C0.050
T9C0.052
T10C0.200
%
G90
G05
M72
T1
X6.450Y-4.100
X6.450Y-4.400
T2
X4.050Y-6.650
X4.150Y-6.500
X4.625Y-5.000
X5.175Y-5.000
X5.175Y-5.700
X5.400Y-5.575
X5.500Y-5.625
X5.800Y-4.350
X6.000Y-5.475
X6.150Y-5.525
X6.150Y-5.725
X6.300Y-3.300
X6.775Y-3.850
X6.825Y-2.350
X6.825Y-4.450
X6.875Y-4.275
X7.000Y-3.125
X7.000Y-3.800
X7.225Y-2.800
X7.350Y-4.150
X7.350Y-6.150
X7.375Y-2.800
X7.450Y-3.725
X7.450Y-5.650
X7.450Y-6.050
X7.450Y-6.250
X7.475Y-6.575
X7.500Y-6.125
X7.600Y-4.350
X7.750Y-6.125
X7.850Y-3.200
X7.950Y-3.850
X8.550Y-3.950
X8.550Y-4.175
T3
X3.250Y-6.100
X3.250Y-6.400
X3.350Y-4.200
X3.350Y-4.500
X3.350Y-4.800
X3.350Y-5.050
X3.350Y-5.350
X3.350Y-5.600
X3.350Y-5.900
X3.350Y-6.100
X3.350Y-6.400
X3.450Y-4.200
X3.450Y-4.500
X3.450Y-4.800
X3.450Y-5.050
X3.450Y-5.350
X3.450Y-5.600
X3.450Y-5.900
X3.450Y-6.100
X3.450Y-6.400
X3.550Y-4.200
X3.550Y-4.500
X3.550Y-4.800
X3.550Y-5.050
X3.550Y-5.350
X3.550Y-5.600
X3.550Y-5.900
X3.550Y-6.100
X3.550Y-6.400
X3.650Y-4.200
X3.650Y-4.500
X3.650Y-4.800
X3.650Y-5.050
X3.650Y-5.350
X3.650Y-5.600
X3.650Y-5.900
X3.650Y-6.100
X3.650Y-6.400
X3.750Y-4.200
X3.750Y-4.500
X3.750Y-4.800
X3.750Y-5.050
X3.750Y-5.350
X3.750Y-5.600
X3.750Y-5.900
X3.750Y-6.100
X3.750Y-6.400
X3.850Y-4.200
X3.850Y-4.500
X3.850Y-4.800
X3.850Y-5.050
X3.850Y-5.350
X3.850Y-5.600
X3.850Y-5.900
X3.850Y-6.100
X3.850Y-6.400
X3.950Y-4.200
X3.950Y-4.500
X3.950Y-4.800
X3.950Y-5.050
X3.950Y-5.350
X3.950Y-5.600
X3.950Y-5.900
X3.950Y-6.100
X3.950Y-6.400
X4.050Y-4.200
X4.050Y-4.500
X4.050Y-4.800
X4.050Y-5.050
X4.050Y-5.350
X4.050Y-5.600
X4.050Y-5.900
X4.050Y-6.100
X4.050Y-6.400
X4.150Y-5.050
X4.150Y-5.350
X4.150Y-5.600
X4.150Y-5.900
X4.250Y-5.600
X4.250Y-5.900
X4.350Y-2.250
X4.350Y-2.550
X4.350Y-2.850
X4.350Y-3.050
X4.350Y-3.350
X4.350Y-5.600
X4.350Y-5.900
X4.450Y-2.250
X4.450Y-2.550
X4.450Y-2.850
X4.450Y-3.050
X4.450Y-3.350
X4.450Y-5.450
X4.450Y-5.600
X4.450Y-5.900
X4.550Y-2.250
X4.550Y-2.550
X4.550Y-2.850
X4.550Y-3.050
X4.550Y-3.350
X4.550Y-5.600
X4.550Y-5.900
X4.650Y-2.250
X4.650Y-2.550
X4.650Y-2.850
X4.650Y-3.050
X4.650Y-3.350
X4.650Y-5.600
X4.650Y-5.900
X4.750Y-2.250
X4.750Y-2.550
X4.750Y-2.850
X4.750Y-3.050
X4.750Y-3.350
X4.750Y-5.450
X4.850Y-2.250
X4.850Y-2.550
X4.850Y-2.850
X4.850Y-3.050
X4.850Y-3.350
X4.950Y-2.250
X4.950Y-2.550
X4.950Y-2.850
X4.950Y-3.050
X4.950Y-3.350
X5.050Y-2.250
X5.050Y-2.550
X5.050Y-2.850
X5.050Y-3.050
X5.050Y-3.350
X5.100Y-3.600
X5.100Y-3.700
X5.100Y-3.800
X5.100Y-3.900
X5.100Y-4.000
X5.100Y-4.100
X5.100Y-4.200
X5.100Y-4.300
X5.100Y-4.400
X5.100Y-4.500
X5.100Y-4.600
X5.100Y-4.700
X5.100Y-4.800
X5.100Y-4.900
X5.150Y-2.250
X5.150Y-2.550
X5.150Y-2.850
X5.150Y-3.050
X5.150Y-3.350
X5.200Y-6.000
X5.200Y-6.300
X5.250Y-2.250
X5.250Y-2.550
X5.250Y-2.850
X5.300Y-6.000
X5.300Y-6.300
X5.350Y-2.250
X5.350Y-2.550
X5.350Y-2.850
X5.350Y-3.050
X5.350Y-3.350
X5.400Y-3.600
X5.400Y-3.700
X5.400Y-3.800
X5.400Y-3.900
X5.400Y-4.000
X5.400Y-4.100
X5.400Y-4.200
X5.400Y-4.300
X5.400Y-4.400
X5.400Y-4.500
X5.400Y-4.600
X5.400Y-4.700
X5.400Y-4.800
X5.400Y-4.900
X5.400Y-6.000
X5.400Y-6.300
X5.450Y-2.250
X5.450Y-2.550
X5.450Y-2.850
X5.450Y-3.050
X5.450Y-3.350
X5.500Y-6.000
X5.500Y-6.300
X5.550Y-2.250
X5.550Y-2.550
X5.550Y-2.850
X5.550Y-3.050
X5.550Y-3.350
X5.550Y-4.700
X5.550Y-5.000
X5.600Y-6.000
X5.600Y-6.300
X5.650Y-2.250
X5.650Y-2.550
X5.650Y-2.850
X5.650Y-3.050
X5.650Y-3.350
X5.700Y-6.000
X5.700Y-6.300
X5.750Y-2.250
X5.750Y-2.550
X5.750Y-2.850
X5.750Y-3.050
X5.750Y-3.350
X5.800Y-6.000
X5.800Y-6.300
X5.850Y-2.250
X5.850Y-2.550
X5.850Y-2.850
X5.850Y-3.050
X5.850Y-3.350
X5.900Y-6.000
X5.900Y-6.300
X5.950Y-3.050
X5.950Y-3.350
X6.000Y-6.000
X6.000Y-6.300
X6.050Y-3.050
X6.050Y-3.350
X6.150Y-3.050
X6.150Y-3.350
X6.400Y-5.150
X6.450Y-6.100
X6.550Y-5.800
X6.550Y-5.900
X6.600Y-5.150
X6.600Y-6.200
X6.650Y-5.900
X6.700Y-2.250
X6.750Y-6.100
X6.900Y-2.250
X6.900Y-6.200
X7.050Y-6.000
X7.150Y-5.150
X7.150Y-6.000
X7.300Y-5.550
X7.300Y-5.650
X7.350Y-4.750
X7.350Y-4.950
X7.350Y-5.150
X7.400Y-3.450
X7.400Y-3.550
X7.450Y-5.900
X7.500Y-2.750
X7.600Y-3.450
X7.600Y-3.550
X7.600Y-5.500
X7.600Y-5.700
X7.650Y-5.900
X7.700Y-5.250
X7.750Y-2.950
X7.750Y-3.050
X7.750Y-3.150
X7.750Y-3.250
X7.750Y-3.350
X7.750Y-3.450
X7.750Y-3.550
X7.750Y-3.650
X7.750Y-3.750
X7.750Y-3.850
X7.750Y-3.950
X7.750Y-4.050
X7.750Y-4.150
X7.750Y-4.250
X7.800Y-2.750
X7.900Y-5.750
X7.900Y-6.050
X8.000Y-5.250
X8.050Y-2.950
X8.050Y-3.050
X8.050Y-3.150
X8.050Y-3.250
X8.050Y-3.350
X8.050Y-3.450
X8.050Y-3.550
X8.050Y-3.650
X8.050Y-3.750
X8.050Y-3.850
X8.050Y-3.950
X8.050Y-4.050
X8.050Y-4.150
X8.050Y-4.250
X8.250Y-3.300
X8.250Y-3.500
X8.250Y-4.950
X8.250Y-5.150
X8.300Y-2.750
X8.400Y-4.050
X8.400Y-4.250
X8.450Y-3.300
X8.450Y-3.500
X8.550Y-2.850
X8.550Y-3.150
X8.550Y-3.300
X8.550Y-3.500
X8.550Y-6.450
X8.600Y-2.750
X8.600Y-4.250
X8.600Y-4.450
X8.600Y-4.950
X8.600Y-5.250
X8.750Y-2.800
X8.750Y-3.200
X8.800Y-4.950
X8.800Y-5.250
X8.850Y-2.800
X8.850Y-3.200
X8.850Y-6.450
X8.900Y-4.250
X8.900Y-4.450
T4
X7.850Y-6.200
X8.850Y-6.200
T5
X3.750Y-6.750
X3.850Y-6.750
X3.950Y-6.750
X4.050Y-6.750
X4.150Y-6.750
X4.250Y-6.750
X4.800Y-6.750
X4.900Y-6.750
X5.000Y-6.750
X5.100Y-6.750
X5.200Y-6.750
X5.300Y-6.750
X6.100Y-6.750
X6.200Y-6.750
X6.300Y-6.750
X6.400Y-5.450
X6.400Y-6.750
X6.500Y-6.750
X6.600Y-5.450
X6.600Y-6.750
X6.850Y-4.750
X6.850Y-4.950
X6.960Y-3.320
X6.960Y-3.480
X6.960Y-3.640
X7.060Y-3.320
X7.060Y-3.480
X7.060Y-3.640
X7.160Y-3.320
X7.160Y-3.480
X7.160Y-3.640
X7.300Y-2.950
X7.300Y-3.050
X7.350Y-6.300
X7.400Y-2.950
X7.400Y-3.050
X7.400Y-6.750
X7.500Y-2.950
X7.500Y-3.050
X7.500Y-6.750
X7.600Y-6.750
X7.700Y-6.750
X7.750Y-6.300
X7.800Y-4.750
X7.800Y-4.950
X7.800Y-6.750
X7.900Y-6.750
X8.450Y-5.400
X8.800Y-3.600
X8.800Y-3.700
X8.800Y-3.800
X8.800Y-3.900
X8.800Y-4.000
X8.800Y-4.100
X8.850Y-5.400
T6
X6.850Y-5.350
X6.850Y-5.850
T7
X8.050Y-5.412
X8.050Y-5.550
X8.050Y-5.688
X8.168Y-5.479
X8.168Y-5.621
T8
X7.050Y-2.350
X8.450Y-2.350
T9
X4.401Y-6.750
X4.598Y-6.750
X5.501Y-6.750
X5.698Y-6.750
X6.801Y-6.750
X6.998Y-6.750
X8.101Y-6.750
X8.298Y-6.750
X8.750Y-5.702
X8.750Y-5.899
T10
X3.250Y-2.250
X3.250Y-6.750
X8.750Y-2.250
X8.750Y-6.750
T0
M30
