G04 (created by PCBNEW-RS274X (2011-05-25)-stable) date Mon 18 Jun 2012 11:26:01 PM MDT*
G01*
G70*
G90*
%MOIN*%
G04 Gerber Fmt 3.4, Leading zero omitted, Abs format*
%FSLAX34Y34*%
G04 APERTURE LIST*
%ADD10C,0.006000*%
%ADD11C,0.015000*%
%ADD12C,0.012000*%
%ADD13R,0.020000X0.030000*%
%ADD14C,0.065000*%
%ADD15R,0.060000X0.060000*%
%ADD16C,0.060000*%
%ADD17R,0.055000X0.055000*%
%ADD18C,0.055000*%
%ADD19O,0.078000X0.156000*%
%ADD20O,0.156000X0.078000*%
%ADD21C,0.300000*%
%ADD22C,0.066000*%
%ADD23O,0.090000X0.062000*%
%ADD24R,0.090000X0.062000*%
%ADD25O,0.062000X0.090000*%
%ADD26R,0.062000X0.090000*%
%ADD27C,0.070000*%
%ADD28R,0.070000X0.070000*%
%ADD29R,0.078700X0.055100*%
%ADD30R,0.065000X0.065000*%
%ADD31R,0.030000X0.020000*%
%ADD32R,0.120000X0.120000*%
%ADD33C,0.120000*%
%ADD34O,0.098400X0.070900*%
%ADD35R,0.127600X0.127600*%
%ADD36C,0.127600*%
%ADD37C,0.035000*%
%ADD38C,0.015800*%
%ADD39C,0.020000*%
%ADD40C,0.030000*%
%ADD41C,0.010000*%
G04 APERTURE END LIST*
G54D10*
G54D11*
X68250Y-04750D02*
X68250Y-77000D01*
X08250Y-04750D02*
X68250Y-04750D01*
X08250Y-77000D02*
X08250Y-04750D01*
X68250Y-77000D02*
X08250Y-77000D01*
G54D12*
X65007Y-60574D02*
X65007Y-59774D01*
X65350Y-60574D01*
X65350Y-59774D01*
X65636Y-60155D02*
X65836Y-60155D01*
X65922Y-60574D02*
X65636Y-60574D01*
X65636Y-59774D01*
X65922Y-59774D01*
X66493Y-59812D02*
X66436Y-59774D01*
X66350Y-59774D01*
X66265Y-59812D01*
X66207Y-59888D01*
X66179Y-59964D01*
X66150Y-60117D01*
X66150Y-60231D01*
X66179Y-60383D01*
X66207Y-60460D01*
X66265Y-60536D01*
X66350Y-60574D01*
X66407Y-60574D01*
X66493Y-60536D01*
X66522Y-60498D01*
X66522Y-60231D01*
X66407Y-60231D01*
X64269Y-66056D02*
X64269Y-65599D01*
X64574Y-65828D02*
X63964Y-65828D01*
X64574Y-64999D02*
X64574Y-65342D01*
X64574Y-65170D02*
X63774Y-65170D01*
X63888Y-65227D01*
X63964Y-65285D01*
X64002Y-65342D01*
X63850Y-64771D02*
X63812Y-64742D01*
X63774Y-64685D01*
X63774Y-64542D01*
X63812Y-64485D01*
X63850Y-64456D01*
X63926Y-64428D01*
X64002Y-64428D01*
X64117Y-64456D01*
X64574Y-64799D01*
X64574Y-64428D01*
X63774Y-64257D02*
X64574Y-64057D01*
X63774Y-63857D01*
X13172Y-26024D02*
X13286Y-26024D01*
X13344Y-26062D01*
X13401Y-26138D01*
X13429Y-26290D01*
X13429Y-26557D01*
X13401Y-26710D01*
X13344Y-26786D01*
X13286Y-26824D01*
X13172Y-26824D01*
X13115Y-26786D01*
X13058Y-26710D01*
X13029Y-26557D01*
X13029Y-26290D01*
X13058Y-26138D01*
X13115Y-26062D01*
X13172Y-26024D01*
X13687Y-26290D02*
X13687Y-27090D01*
X13687Y-26329D02*
X13744Y-26290D01*
X13858Y-26290D01*
X13915Y-26329D01*
X13944Y-26367D01*
X13973Y-26443D01*
X13973Y-26671D01*
X13944Y-26748D01*
X13915Y-26786D01*
X13858Y-26824D01*
X13744Y-26824D01*
X13687Y-26786D01*
X14458Y-26786D02*
X14401Y-26824D01*
X14287Y-26824D01*
X14230Y-26786D01*
X14201Y-26710D01*
X14201Y-26405D01*
X14230Y-26329D01*
X14287Y-26290D01*
X14401Y-26290D01*
X14458Y-26329D01*
X14487Y-26405D01*
X14487Y-26481D01*
X14201Y-26557D01*
X14744Y-26290D02*
X14744Y-26824D01*
X14744Y-26367D02*
X14772Y-26329D01*
X14830Y-26290D01*
X14915Y-26290D01*
X14972Y-26329D01*
X15001Y-26405D01*
X15001Y-26824D01*
X15573Y-26824D02*
X15287Y-26824D01*
X15287Y-26024D01*
X16030Y-26824D02*
X16030Y-26405D01*
X16001Y-26329D01*
X15944Y-26290D01*
X15830Y-26290D01*
X15773Y-26329D01*
X16030Y-26786D02*
X15973Y-26824D01*
X15830Y-26824D01*
X15773Y-26786D01*
X15744Y-26710D01*
X15744Y-26633D01*
X15773Y-26557D01*
X15830Y-26519D01*
X15973Y-26519D01*
X16030Y-26481D01*
X16573Y-26290D02*
X16573Y-26824D01*
X16316Y-26290D02*
X16316Y-26710D01*
X16344Y-26786D01*
X16402Y-26824D01*
X16487Y-26824D01*
X16544Y-26786D01*
X16573Y-26748D01*
X16859Y-26290D02*
X16859Y-26824D01*
X16859Y-26367D02*
X16887Y-26329D01*
X16945Y-26290D01*
X17030Y-26290D01*
X17087Y-26329D01*
X17116Y-26405D01*
X17116Y-26824D01*
X17659Y-26786D02*
X17602Y-26824D01*
X17488Y-26824D01*
X17430Y-26786D01*
X17402Y-26748D01*
X17373Y-26671D01*
X17373Y-26443D01*
X17402Y-26367D01*
X17430Y-26329D01*
X17488Y-26290D01*
X17602Y-26290D01*
X17659Y-26329D01*
X17916Y-26824D02*
X17916Y-26024D01*
X18173Y-26824D02*
X18173Y-26405D01*
X18144Y-26329D01*
X18087Y-26290D01*
X18002Y-26290D01*
X17944Y-26329D01*
X17916Y-26367D01*
X18687Y-26786D02*
X18630Y-26824D01*
X18516Y-26824D01*
X18459Y-26786D01*
X18430Y-26710D01*
X18430Y-26405D01*
X18459Y-26329D01*
X18516Y-26290D01*
X18630Y-26290D01*
X18687Y-26329D01*
X18716Y-26405D01*
X18716Y-26481D01*
X18430Y-26557D01*
X18973Y-26824D02*
X18973Y-26290D01*
X18973Y-26443D02*
X19001Y-26367D01*
X19030Y-26329D01*
X19087Y-26290D01*
X19144Y-26290D01*
X19915Y-26024D02*
X19972Y-26024D01*
X20029Y-26062D01*
X20058Y-26100D01*
X20087Y-26176D01*
X20115Y-26329D01*
X20115Y-26519D01*
X20087Y-26671D01*
X20058Y-26748D01*
X20029Y-26786D01*
X19972Y-26824D01*
X19915Y-26824D01*
X19858Y-26786D01*
X19829Y-26748D01*
X19801Y-26671D01*
X19772Y-26519D01*
X19772Y-26329D01*
X19801Y-26176D01*
X19829Y-26100D01*
X19858Y-26062D01*
X19915Y-26024D01*
X20372Y-26748D02*
X20400Y-26786D01*
X20372Y-26824D01*
X20343Y-26786D01*
X20372Y-26748D01*
X20372Y-26824D01*
X20972Y-26824D02*
X20629Y-26824D01*
X20801Y-26824D02*
X20801Y-26024D01*
X20744Y-26138D01*
X20686Y-26214D01*
X20629Y-26252D01*
X12673Y-27645D02*
X12759Y-27683D01*
X12787Y-27721D01*
X12816Y-27797D01*
X12816Y-27911D01*
X12787Y-27988D01*
X12759Y-28026D01*
X12701Y-28064D01*
X12473Y-28064D01*
X12473Y-27264D01*
X12673Y-27264D01*
X12730Y-27302D01*
X12759Y-27340D01*
X12787Y-27416D01*
X12787Y-27492D01*
X12759Y-27569D01*
X12730Y-27607D01*
X12673Y-27645D01*
X12473Y-27645D01*
X13073Y-28064D02*
X13073Y-27264D01*
X13673Y-27302D02*
X13616Y-27264D01*
X13530Y-27264D01*
X13445Y-27302D01*
X13387Y-27378D01*
X13359Y-27454D01*
X13330Y-27607D01*
X13330Y-27721D01*
X13359Y-27873D01*
X13387Y-27950D01*
X13445Y-28026D01*
X13530Y-28064D01*
X13587Y-28064D01*
X13673Y-28026D01*
X13702Y-27988D01*
X13702Y-27721D01*
X13587Y-27721D01*
X14759Y-27988D02*
X14730Y-28026D01*
X14644Y-28064D01*
X14587Y-28064D01*
X14502Y-28026D01*
X14444Y-27950D01*
X14416Y-27873D01*
X14387Y-27721D01*
X14387Y-27607D01*
X14416Y-27454D01*
X14444Y-27378D01*
X14502Y-27302D01*
X14587Y-27264D01*
X14644Y-27264D01*
X14730Y-27302D01*
X14759Y-27340D01*
X15102Y-28064D02*
X15044Y-28026D01*
X15016Y-27988D01*
X14987Y-27911D01*
X14987Y-27683D01*
X15016Y-27607D01*
X15044Y-27569D01*
X15102Y-27530D01*
X15187Y-27530D01*
X15244Y-27569D01*
X15273Y-27607D01*
X15302Y-27683D01*
X15302Y-27911D01*
X15273Y-27988D01*
X15244Y-28026D01*
X15187Y-28064D01*
X15102Y-28064D01*
X15559Y-28064D02*
X15559Y-27530D01*
X15559Y-27683D02*
X15587Y-27607D01*
X15616Y-27569D01*
X15673Y-27530D01*
X15730Y-27530D01*
X16158Y-28026D02*
X16101Y-28064D01*
X15987Y-28064D01*
X15930Y-28026D01*
X15901Y-27950D01*
X15901Y-27645D01*
X15930Y-27569D01*
X15987Y-27530D01*
X16101Y-27530D01*
X16158Y-27569D01*
X16187Y-27645D01*
X16187Y-27721D01*
X15901Y-27797D01*
X16901Y-28064D02*
X16901Y-27264D01*
X16901Y-27569D02*
X16958Y-27530D01*
X17072Y-27530D01*
X17129Y-27569D01*
X17158Y-27607D01*
X17187Y-27683D01*
X17187Y-27911D01*
X17158Y-27988D01*
X17129Y-28026D01*
X17072Y-28064D01*
X16958Y-28064D01*
X16901Y-28026D01*
X17530Y-28064D02*
X17472Y-28026D01*
X17444Y-27988D01*
X17415Y-27911D01*
X17415Y-27683D01*
X17444Y-27607D01*
X17472Y-27569D01*
X17530Y-27530D01*
X17615Y-27530D01*
X17672Y-27569D01*
X17701Y-27607D01*
X17730Y-27683D01*
X17730Y-27911D01*
X17701Y-27988D01*
X17672Y-28026D01*
X17615Y-28064D01*
X17530Y-28064D01*
X18244Y-28064D02*
X18244Y-27645D01*
X18215Y-27569D01*
X18158Y-27530D01*
X18044Y-27530D01*
X17987Y-27569D01*
X18244Y-28026D02*
X18187Y-28064D01*
X18044Y-28064D01*
X17987Y-28026D01*
X17958Y-27950D01*
X17958Y-27873D01*
X17987Y-27797D01*
X18044Y-27759D01*
X18187Y-27759D01*
X18244Y-27721D01*
X18530Y-28064D02*
X18530Y-27530D01*
X18530Y-27683D02*
X18558Y-27607D01*
X18587Y-27569D01*
X18644Y-27530D01*
X18701Y-27530D01*
X19158Y-28064D02*
X19158Y-27264D01*
X19158Y-28026D02*
X19101Y-28064D01*
X18987Y-28064D01*
X18929Y-28026D01*
X18901Y-27988D01*
X18872Y-27911D01*
X18872Y-27683D01*
X18901Y-27607D01*
X18929Y-27569D01*
X18987Y-27530D01*
X19101Y-27530D01*
X19158Y-27569D01*
X19901Y-28064D02*
X19901Y-27530D01*
X19901Y-27683D02*
X19929Y-27607D01*
X19958Y-27569D01*
X20015Y-27530D01*
X20072Y-27530D01*
X20500Y-28026D02*
X20443Y-28064D01*
X20329Y-28064D01*
X20272Y-28026D01*
X20243Y-27950D01*
X20243Y-27645D01*
X20272Y-27569D01*
X20329Y-27530D01*
X20443Y-27530D01*
X20500Y-27569D01*
X20529Y-27645D01*
X20529Y-27721D01*
X20243Y-27797D01*
X20729Y-27530D02*
X20872Y-28064D01*
X21014Y-27530D01*
X21357Y-27264D02*
X21414Y-27264D01*
X21471Y-27302D01*
X21500Y-27340D01*
X21529Y-27416D01*
X21557Y-27569D01*
X21557Y-27759D01*
X21529Y-27911D01*
X21500Y-27988D01*
X21471Y-28026D01*
X21414Y-28064D01*
X21357Y-28064D01*
X21300Y-28026D01*
X21271Y-27988D01*
X21243Y-27911D01*
X21214Y-27759D01*
X21214Y-27569D01*
X21243Y-27416D01*
X21271Y-27340D01*
X21300Y-27302D01*
X21357Y-27264D01*
X10344Y-29228D02*
X10315Y-29266D01*
X10229Y-29304D01*
X10172Y-29304D01*
X10087Y-29266D01*
X10029Y-29190D01*
X10001Y-29113D01*
X09972Y-28961D01*
X09972Y-28847D01*
X10001Y-28694D01*
X10029Y-28618D01*
X10087Y-28542D01*
X10172Y-28504D01*
X10229Y-28504D01*
X10315Y-28542D01*
X10344Y-28580D01*
X10601Y-29304D02*
X10601Y-28770D01*
X10601Y-28923D02*
X10629Y-28847D01*
X10658Y-28809D01*
X10715Y-28770D01*
X10772Y-28770D01*
X11200Y-29266D02*
X11143Y-29304D01*
X11029Y-29304D01*
X10972Y-29266D01*
X10943Y-29190D01*
X10943Y-28885D01*
X10972Y-28809D01*
X11029Y-28770D01*
X11143Y-28770D01*
X11200Y-28809D01*
X11229Y-28885D01*
X11229Y-28961D01*
X10943Y-29037D01*
X11743Y-29304D02*
X11743Y-28885D01*
X11714Y-28809D01*
X11657Y-28770D01*
X11543Y-28770D01*
X11486Y-28809D01*
X11743Y-29266D02*
X11686Y-29304D01*
X11543Y-29304D01*
X11486Y-29266D01*
X11457Y-29190D01*
X11457Y-29113D01*
X11486Y-29037D01*
X11543Y-28999D01*
X11686Y-28999D01*
X11743Y-28961D01*
X11943Y-28770D02*
X12172Y-28770D01*
X12029Y-28504D02*
X12029Y-29190D01*
X12057Y-29266D01*
X12115Y-29304D01*
X12172Y-29304D01*
X12372Y-29304D02*
X12372Y-28770D01*
X12372Y-28504D02*
X12343Y-28542D01*
X12372Y-28580D01*
X12400Y-28542D01*
X12372Y-28504D01*
X12372Y-28580D01*
X12601Y-28770D02*
X12744Y-29304D01*
X12886Y-28770D01*
X13343Y-29266D02*
X13286Y-29304D01*
X13172Y-29304D01*
X13115Y-29266D01*
X13086Y-29190D01*
X13086Y-28885D01*
X13115Y-28809D01*
X13172Y-28770D01*
X13286Y-28770D01*
X13343Y-28809D01*
X13372Y-28885D01*
X13372Y-28961D01*
X13086Y-29037D01*
X14429Y-29228D02*
X14400Y-29266D01*
X14314Y-29304D01*
X14257Y-29304D01*
X14172Y-29266D01*
X14114Y-29190D01*
X14086Y-29113D01*
X14057Y-28961D01*
X14057Y-28847D01*
X14086Y-28694D01*
X14114Y-28618D01*
X14172Y-28542D01*
X14257Y-28504D01*
X14314Y-28504D01*
X14400Y-28542D01*
X14429Y-28580D01*
X14772Y-29304D02*
X14714Y-29266D01*
X14686Y-29228D01*
X14657Y-29151D01*
X14657Y-28923D01*
X14686Y-28847D01*
X14714Y-28809D01*
X14772Y-28770D01*
X14857Y-28770D01*
X14914Y-28809D01*
X14943Y-28847D01*
X14972Y-28923D01*
X14972Y-29151D01*
X14943Y-29228D01*
X14914Y-29266D01*
X14857Y-29304D01*
X14772Y-29304D01*
X15229Y-29304D02*
X15229Y-28770D01*
X15229Y-28847D02*
X15257Y-28809D01*
X15315Y-28770D01*
X15400Y-28770D01*
X15457Y-28809D01*
X15486Y-28885D01*
X15486Y-29304D01*
X15486Y-28885D02*
X15515Y-28809D01*
X15572Y-28770D01*
X15657Y-28770D01*
X15715Y-28809D01*
X15743Y-28885D01*
X15743Y-29304D01*
X16029Y-29304D02*
X16029Y-28770D01*
X16029Y-28847D02*
X16057Y-28809D01*
X16115Y-28770D01*
X16200Y-28770D01*
X16257Y-28809D01*
X16286Y-28885D01*
X16286Y-29304D01*
X16286Y-28885D02*
X16315Y-28809D01*
X16372Y-28770D01*
X16457Y-28770D01*
X16515Y-28809D01*
X16543Y-28885D01*
X16543Y-29304D01*
X16915Y-29304D02*
X16857Y-29266D01*
X16829Y-29228D01*
X16800Y-29151D01*
X16800Y-28923D01*
X16829Y-28847D01*
X16857Y-28809D01*
X16915Y-28770D01*
X17000Y-28770D01*
X17057Y-28809D01*
X17086Y-28847D01*
X17115Y-28923D01*
X17115Y-29151D01*
X17086Y-29228D01*
X17057Y-29266D01*
X17000Y-29304D01*
X16915Y-29304D01*
X17372Y-28770D02*
X17372Y-29304D01*
X17372Y-28847D02*
X17400Y-28809D01*
X17458Y-28770D01*
X17543Y-28770D01*
X17600Y-28809D01*
X17629Y-28885D01*
X17629Y-29304D01*
X17886Y-29266D02*
X17943Y-29304D01*
X18058Y-29304D01*
X18115Y-29266D01*
X18143Y-29190D01*
X18143Y-29151D01*
X18115Y-29075D01*
X18058Y-29037D01*
X17972Y-29037D01*
X17915Y-28999D01*
X17886Y-28923D01*
X17886Y-28885D01*
X17915Y-28809D01*
X17972Y-28770D01*
X18058Y-28770D01*
X18115Y-28809D01*
X18829Y-29266D02*
X18915Y-29304D01*
X19058Y-29304D01*
X19115Y-29266D01*
X19144Y-29228D01*
X19172Y-29151D01*
X19172Y-29075D01*
X19144Y-28999D01*
X19115Y-28961D01*
X19058Y-28923D01*
X18944Y-28885D01*
X18886Y-28847D01*
X18858Y-28809D01*
X18829Y-28732D01*
X18829Y-28656D01*
X18858Y-28580D01*
X18886Y-28542D01*
X18944Y-28504D01*
X19086Y-28504D01*
X19172Y-28542D01*
X19429Y-29304D02*
X19429Y-28504D01*
X19686Y-29304D02*
X19686Y-28885D01*
X19657Y-28809D01*
X19600Y-28770D01*
X19515Y-28770D01*
X19457Y-28809D01*
X19429Y-28847D01*
X20229Y-29304D02*
X20229Y-28885D01*
X20200Y-28809D01*
X20143Y-28770D01*
X20029Y-28770D01*
X19972Y-28809D01*
X20229Y-29266D02*
X20172Y-29304D01*
X20029Y-29304D01*
X19972Y-29266D01*
X19943Y-29190D01*
X19943Y-29113D01*
X19972Y-29037D01*
X20029Y-28999D01*
X20172Y-28999D01*
X20229Y-28961D01*
X20515Y-29304D02*
X20515Y-28770D01*
X20515Y-28923D02*
X20543Y-28847D01*
X20572Y-28809D01*
X20629Y-28770D01*
X20686Y-28770D01*
X21114Y-29266D02*
X21057Y-29304D01*
X20943Y-29304D01*
X20886Y-29266D01*
X20857Y-29190D01*
X20857Y-28885D01*
X20886Y-28809D01*
X20943Y-28770D01*
X21057Y-28770D01*
X21114Y-28809D01*
X21143Y-28885D01*
X21143Y-28961D01*
X20857Y-29037D01*
X21400Y-28999D02*
X21857Y-28999D01*
X22400Y-29304D02*
X22400Y-28885D01*
X22371Y-28809D01*
X22314Y-28770D01*
X22200Y-28770D01*
X22143Y-28809D01*
X22400Y-29266D02*
X22343Y-29304D01*
X22200Y-29304D01*
X22143Y-29266D01*
X22114Y-29190D01*
X22114Y-29113D01*
X22143Y-29037D01*
X22200Y-28999D01*
X22343Y-28999D01*
X22400Y-28961D01*
X22772Y-29304D02*
X22714Y-29266D01*
X22686Y-29190D01*
X22686Y-28504D01*
X23000Y-29304D02*
X23000Y-28770D01*
X23000Y-28504D02*
X22971Y-28542D01*
X23000Y-28580D01*
X23028Y-28542D01*
X23000Y-28504D01*
X23000Y-28580D01*
X23286Y-29304D02*
X23286Y-28504D01*
X23343Y-28999D02*
X23514Y-29304D01*
X23514Y-28770D02*
X23286Y-29075D01*
X24000Y-29266D02*
X23943Y-29304D01*
X23829Y-29304D01*
X23772Y-29266D01*
X23743Y-29190D01*
X23743Y-28885D01*
X23772Y-28809D01*
X23829Y-28770D01*
X23943Y-28770D01*
X24000Y-28809D01*
X24029Y-28885D01*
X24029Y-28961D01*
X23743Y-29037D01*
G54D13*
X62375Y-11250D03*
X61625Y-11250D03*
X62375Y-12250D03*
X62000Y-11250D03*
X61625Y-12250D03*
X55625Y-11250D03*
X54875Y-11250D03*
X55625Y-12250D03*
X55250Y-11250D03*
X54875Y-12250D03*
G54D14*
X52750Y-13500D03*
X52750Y-16500D03*
X63000Y-10500D03*
X66000Y-10500D03*
X57500Y-12250D03*
X57500Y-09250D03*
X62000Y-16500D03*
X62000Y-13500D03*
X54250Y-16500D03*
X54250Y-13500D03*
X60500Y-13500D03*
X60500Y-16500D03*
X59250Y-12500D03*
X59250Y-15500D03*
X51500Y-12500D03*
X51500Y-15500D03*
X58500Y-08000D03*
X58500Y-11000D03*
G54D15*
X55500Y-06250D03*
G54D16*
X56500Y-06250D03*
X57500Y-06250D03*
X58500Y-06250D03*
X59500Y-06250D03*
X60500Y-06250D03*
G54D17*
X52750Y-12500D03*
G54D18*
X52750Y-09500D03*
G54D19*
X55260Y-19500D03*
X57230Y-19500D03*
X60010Y-19500D03*
X61980Y-19500D03*
G54D20*
X65250Y-08740D03*
X65250Y-06770D03*
G54D21*
X66500Y-20250D03*
X52500Y-06750D03*
X52500Y-20250D03*
G54D18*
X56250Y-08250D03*
X57250Y-08250D03*
X56250Y-11500D03*
X56250Y-12500D03*
X63250Y-12000D03*
X63250Y-13000D03*
G54D17*
X60500Y-12500D03*
G54D18*
X60500Y-09500D03*
G54D17*
X39000Y-12500D03*
G54D18*
X39000Y-09500D03*
X41750Y-12000D03*
X41750Y-13000D03*
X34750Y-11500D03*
X34750Y-12500D03*
X34750Y-08250D03*
X35750Y-08250D03*
G54D21*
X31000Y-20250D03*
X31000Y-06750D03*
X45000Y-20250D03*
G54D20*
X43750Y-08740D03*
X43750Y-06770D03*
G54D19*
X38510Y-19500D03*
X40480Y-19500D03*
X33760Y-19500D03*
X35730Y-19500D03*
G54D17*
X31250Y-12500D03*
G54D18*
X31250Y-09500D03*
G54D15*
X34000Y-06250D03*
G54D16*
X35000Y-06250D03*
X36000Y-06250D03*
X37000Y-06250D03*
X38000Y-06250D03*
X39000Y-06250D03*
G54D14*
X37000Y-08000D03*
X37000Y-11000D03*
X30000Y-12500D03*
X30000Y-15500D03*
X37750Y-12500D03*
X37750Y-15500D03*
X39000Y-13500D03*
X39000Y-16500D03*
X32750Y-16500D03*
X32750Y-13500D03*
X40500Y-16500D03*
X40500Y-13500D03*
X36000Y-12250D03*
X36000Y-09250D03*
X41500Y-10500D03*
X44500Y-10500D03*
X31250Y-13500D03*
X31250Y-16500D03*
G54D13*
X34125Y-11250D03*
X33375Y-11250D03*
X34125Y-12250D03*
X33750Y-11250D03*
X33375Y-12250D03*
X40875Y-11250D03*
X40125Y-11250D03*
X40875Y-12250D03*
X40500Y-11250D03*
X40125Y-12250D03*
G54D15*
X45000Y-35250D03*
G54D16*
X46000Y-35250D03*
X47000Y-35250D03*
G54D15*
X45000Y-36750D03*
G54D16*
X46000Y-36750D03*
X47000Y-36750D03*
G54D15*
X45000Y-33750D03*
G54D16*
X46000Y-33750D03*
X47000Y-33750D03*
G54D15*
X14000Y-72000D03*
G54D16*
X15000Y-72000D03*
X16000Y-72000D03*
X17000Y-72000D03*
X18000Y-72000D03*
X19000Y-72000D03*
G54D15*
X26500Y-72000D03*
G54D16*
X27500Y-72000D03*
X28500Y-72000D03*
X29500Y-72000D03*
X30500Y-72000D03*
X31500Y-72000D03*
G54D22*
X65250Y-31500D03*
X66250Y-31500D03*
X66250Y-35750D03*
X65250Y-35750D03*
G54D23*
X29250Y-45000D03*
X29250Y-46000D03*
X29250Y-47000D03*
X29250Y-48000D03*
X29250Y-49000D03*
X29250Y-50000D03*
X29250Y-51000D03*
X29250Y-52000D03*
X29250Y-53000D03*
X29250Y-54000D03*
X29250Y-55000D03*
X29250Y-56000D03*
X29250Y-57000D03*
G54D24*
X29250Y-44000D03*
G54D23*
X32250Y-57000D03*
X32250Y-56000D03*
X32250Y-55000D03*
X32250Y-54000D03*
X32250Y-53000D03*
X32250Y-52000D03*
X32250Y-51000D03*
X32250Y-50000D03*
X32250Y-49000D03*
X32250Y-48000D03*
X32250Y-47000D03*
X32250Y-46000D03*
X32250Y-45000D03*
X32250Y-44000D03*
G54D25*
X14250Y-60500D03*
X15250Y-60500D03*
X16250Y-60500D03*
X17250Y-60500D03*
X18250Y-60500D03*
X19250Y-60500D03*
X20250Y-60500D03*
X21250Y-60500D03*
X22250Y-60500D03*
X23250Y-60500D03*
X24250Y-60500D03*
X25250Y-60500D03*
X26250Y-60500D03*
G54D26*
X13250Y-60500D03*
G54D25*
X26250Y-57500D03*
X25250Y-57500D03*
X24250Y-57500D03*
X23250Y-57500D03*
X22250Y-57500D03*
X21250Y-57500D03*
X20250Y-57500D03*
X19250Y-57500D03*
X18250Y-57500D03*
X17250Y-57500D03*
X16250Y-57500D03*
X15250Y-57500D03*
X14250Y-57500D03*
X13250Y-57500D03*
G54D26*
X29750Y-63000D03*
G54D25*
X30750Y-63000D03*
X31750Y-63000D03*
X32750Y-63000D03*
X33750Y-63000D03*
X34750Y-63000D03*
X35750Y-63000D03*
X36750Y-63000D03*
X37750Y-63000D03*
X37750Y-60000D03*
X36750Y-60000D03*
X35750Y-60000D03*
X34750Y-60000D03*
X33750Y-60000D03*
X32750Y-60000D03*
X31750Y-60000D03*
X30750Y-60000D03*
X29750Y-60000D03*
G54D27*
X62750Y-58500D03*
G54D28*
X66750Y-58500D03*
G54D17*
X65750Y-65000D03*
G54D18*
X62750Y-65000D03*
X49000Y-39000D03*
X47000Y-39000D03*
X54750Y-63500D03*
X52750Y-63500D03*
X35250Y-30250D03*
X35250Y-28250D03*
X57000Y-39000D03*
X57000Y-40000D03*
X49850Y-57600D03*
X51850Y-57600D03*
X57000Y-38000D03*
X57000Y-37000D03*
G54D15*
X39000Y-72000D03*
G54D16*
X40000Y-72000D03*
X41000Y-72000D03*
X42000Y-72000D03*
X43000Y-72000D03*
X44000Y-72000D03*
G54D28*
X46750Y-52000D03*
G54D27*
X46750Y-54000D03*
G54D18*
X63000Y-47000D03*
X63000Y-45000D03*
G54D27*
X46750Y-63000D03*
G54D28*
X46750Y-58000D03*
G54D27*
X55750Y-67500D03*
G54D28*
X51750Y-67500D03*
G54D17*
X57250Y-62000D03*
G54D18*
X57250Y-65000D03*
G54D17*
X57850Y-57000D03*
G54D18*
X54850Y-57000D03*
G54D15*
X52500Y-72000D03*
G54D16*
X53500Y-72000D03*
X54500Y-72000D03*
X55500Y-72000D03*
X56500Y-72000D03*
X57500Y-72000D03*
G54D29*
X42880Y-32343D03*
X42891Y-31555D03*
X42891Y-30768D03*
X42891Y-30000D03*
X42891Y-29232D03*
X42891Y-28445D03*
X42891Y-27657D03*
X36631Y-27657D03*
X36631Y-28445D03*
X36631Y-29232D03*
X36631Y-30000D03*
X36631Y-30768D03*
X36631Y-31555D03*
X36631Y-32343D03*
G54D23*
X53500Y-46000D03*
X53500Y-45000D03*
X53500Y-44000D03*
X53500Y-43000D03*
X53500Y-42000D03*
X53500Y-41000D03*
X53500Y-40000D03*
X53500Y-39000D03*
X53500Y-38000D03*
X53500Y-37000D03*
X53500Y-36000D03*
X53500Y-35000D03*
X53500Y-34000D03*
G54D24*
X53500Y-47000D03*
G54D23*
X50500Y-34000D03*
X50500Y-35000D03*
X50500Y-36000D03*
X50500Y-37000D03*
X50500Y-38000D03*
X50500Y-39000D03*
X50500Y-40000D03*
X50500Y-41000D03*
X50500Y-42000D03*
X50500Y-43000D03*
X50500Y-44000D03*
X50500Y-45000D03*
X50500Y-46000D03*
X50500Y-47000D03*
G54D15*
X48750Y-28750D03*
G54D16*
X48750Y-27750D03*
X49750Y-28750D03*
X49750Y-27750D03*
X50750Y-28750D03*
X50750Y-27750D03*
G54D18*
X67000Y-47000D03*
X67000Y-49000D03*
X64000Y-47000D03*
X64000Y-49000D03*
G54D20*
X65750Y-63490D03*
X65750Y-61520D03*
G54D30*
X48750Y-64500D03*
G54D14*
X49750Y-64500D03*
G54D28*
X42250Y-59000D03*
G54D27*
X44250Y-59000D03*
G54D18*
X44250Y-56000D03*
X42250Y-56000D03*
G54D28*
X56250Y-54000D03*
G54D27*
X56250Y-52000D03*
G54D30*
X51250Y-60000D03*
G54D14*
X51250Y-61000D03*
G54D18*
X54250Y-61500D03*
X54250Y-59500D03*
X47000Y-40000D03*
X49000Y-40000D03*
G54D14*
X47250Y-66500D03*
X44250Y-66500D03*
X44250Y-65500D03*
X47250Y-65500D03*
X66250Y-54000D03*
X66250Y-57000D03*
X64250Y-57000D03*
X64250Y-54000D03*
X25250Y-56000D03*
X25250Y-53000D03*
X50500Y-26000D03*
X53500Y-26000D03*
G54D17*
X44750Y-63500D03*
G54D18*
X43750Y-63500D03*
X43750Y-62500D03*
G54D31*
X53250Y-64625D03*
X53250Y-65375D03*
X54250Y-64625D03*
X53250Y-65000D03*
X54250Y-65375D03*
G54D27*
X55250Y-37500D03*
X55250Y-39500D03*
G54D26*
X23750Y-41500D03*
G54D25*
X24750Y-41500D03*
X25750Y-41500D03*
X26750Y-41500D03*
X27750Y-41500D03*
X28750Y-41500D03*
X29750Y-41500D03*
X30750Y-41500D03*
X31750Y-41500D03*
X31750Y-38500D03*
X30750Y-38500D03*
X29750Y-38500D03*
X28750Y-38500D03*
X27750Y-38500D03*
X26750Y-38500D03*
X25750Y-38500D03*
X24750Y-38500D03*
X23750Y-38500D03*
G54D26*
X13750Y-41500D03*
G54D25*
X14750Y-41500D03*
X15750Y-41500D03*
X16750Y-41500D03*
X17750Y-41500D03*
X18750Y-41500D03*
X19750Y-41500D03*
X20750Y-41500D03*
X21750Y-41500D03*
X21750Y-38500D03*
X20750Y-38500D03*
X19750Y-38500D03*
X18750Y-38500D03*
X17750Y-38500D03*
X16750Y-38500D03*
X15750Y-38500D03*
X14750Y-38500D03*
X13750Y-38500D03*
G54D26*
X13250Y-56000D03*
G54D25*
X14250Y-56000D03*
X15250Y-56000D03*
X16250Y-56000D03*
X17250Y-56000D03*
X18250Y-56000D03*
X19250Y-56000D03*
X20250Y-56000D03*
X21250Y-56000D03*
X21250Y-53000D03*
X20250Y-53000D03*
X19250Y-53000D03*
X18250Y-53000D03*
X17250Y-53000D03*
X16250Y-53000D03*
X15250Y-53000D03*
X14250Y-53000D03*
X13250Y-53000D03*
G54D26*
X21250Y-63000D03*
G54D25*
X20250Y-63000D03*
X19250Y-63000D03*
X18250Y-63000D03*
X17250Y-63000D03*
X16250Y-63000D03*
X15250Y-63000D03*
X14250Y-63000D03*
X13250Y-63000D03*
X13250Y-66000D03*
X14250Y-66000D03*
X15250Y-66000D03*
X16250Y-66000D03*
X17250Y-66000D03*
X18250Y-66000D03*
X19250Y-66000D03*
X20250Y-66000D03*
X21250Y-66000D03*
G54D14*
X63750Y-33250D03*
X60750Y-33250D03*
X63750Y-31500D03*
X60750Y-31500D03*
G54D32*
X36250Y-27000D03*
G54D33*
X22250Y-27000D03*
G54D14*
X33750Y-56000D03*
X36750Y-56000D03*
G54D19*
X21270Y-72000D03*
X23240Y-72000D03*
X59760Y-72000D03*
X61730Y-72000D03*
X33760Y-72000D03*
X35730Y-72000D03*
X46260Y-72000D03*
X48230Y-72000D03*
G54D26*
X21750Y-34000D03*
G54D25*
X20750Y-34000D03*
X19750Y-34000D03*
X18750Y-34000D03*
X17750Y-34000D03*
X16750Y-34000D03*
X15750Y-34000D03*
X14750Y-34000D03*
X14750Y-37000D03*
X15750Y-37000D03*
X16750Y-37000D03*
X17750Y-37000D03*
X18750Y-37000D03*
X19750Y-37000D03*
X20750Y-37000D03*
X21750Y-37000D03*
G54D26*
X22750Y-37000D03*
G54D25*
X23750Y-37000D03*
X24750Y-37000D03*
X25750Y-37000D03*
X26750Y-37000D03*
X27750Y-37000D03*
X28750Y-37000D03*
X29750Y-37000D03*
X29750Y-34000D03*
X28750Y-34000D03*
X27750Y-34000D03*
X26750Y-34000D03*
X25750Y-34000D03*
X24750Y-34000D03*
X23750Y-34000D03*
X22750Y-34000D03*
G54D15*
X66250Y-45500D03*
G54D16*
X66250Y-44500D03*
X66250Y-43500D03*
X66250Y-42500D03*
X66250Y-41500D03*
X66250Y-40500D03*
G54D34*
X58754Y-60000D03*
X58754Y-58622D03*
X58754Y-61378D03*
X59935Y-60709D03*
X59935Y-59291D03*
G54D21*
X10750Y-27000D03*
X65750Y-27000D03*
X10750Y-72000D03*
X65750Y-72000D03*
G54D17*
X29750Y-64500D03*
G54D18*
X30750Y-64500D03*
X31750Y-64500D03*
X32750Y-64500D03*
X33750Y-64500D03*
X34750Y-64500D03*
X35750Y-64500D03*
X36750Y-64500D03*
X37750Y-64500D03*
G54D14*
X61250Y-41250D03*
X61250Y-38250D03*
X61250Y-43000D03*
X61250Y-46000D03*
X33750Y-54000D03*
X36750Y-54000D03*
X23250Y-56000D03*
X23250Y-53000D03*
G54D15*
X31750Y-66000D03*
G54D16*
X30750Y-66000D03*
X29750Y-66000D03*
G54D15*
X34250Y-39000D03*
G54D16*
X34250Y-40000D03*
X34250Y-41000D03*
G54D15*
X11250Y-39000D03*
G54D16*
X11250Y-40000D03*
X11250Y-41000D03*
G54D15*
X10750Y-53500D03*
G54D16*
X10750Y-54500D03*
X10750Y-55500D03*
G54D15*
X10750Y-63500D03*
G54D16*
X10750Y-64500D03*
X10750Y-65500D03*
G54D22*
X62500Y-42500D03*
X62500Y-41500D03*
X62500Y-38250D03*
X62500Y-37250D03*
G54D26*
X13250Y-51500D03*
G54D25*
X14250Y-51500D03*
X15250Y-51500D03*
X16250Y-51500D03*
X17250Y-51500D03*
X18250Y-51500D03*
X19250Y-51500D03*
X20250Y-51500D03*
X20250Y-48500D03*
X19250Y-48500D03*
X18250Y-48500D03*
X17250Y-48500D03*
X16250Y-48500D03*
X15250Y-48500D03*
X14250Y-48500D03*
X13250Y-48500D03*
G54D15*
X21750Y-31000D03*
G54D16*
X20750Y-31000D03*
X19750Y-31000D03*
X18750Y-31000D03*
X17750Y-31000D03*
G54D15*
X31750Y-31000D03*
G54D16*
X30750Y-31000D03*
X29750Y-31000D03*
X28750Y-31000D03*
X27750Y-31000D03*
G54D15*
X36750Y-66000D03*
G54D16*
X35750Y-66000D03*
X34750Y-66000D03*
X33750Y-66000D03*
X32750Y-66000D03*
G54D15*
X20250Y-45500D03*
G54D16*
X19250Y-45500D03*
X18250Y-45500D03*
X17250Y-45500D03*
X16250Y-45500D03*
G54D17*
X59500Y-42750D03*
G54D18*
X59500Y-41750D03*
X58500Y-41750D03*
G54D17*
X60500Y-37250D03*
G54D18*
X60500Y-36250D03*
X59500Y-36250D03*
G54D15*
X55500Y-27750D03*
G54D16*
X55500Y-28750D03*
G54D15*
X53250Y-27750D03*
G54D16*
X53250Y-28750D03*
G54D15*
X16750Y-31000D03*
G54D16*
X15750Y-31000D03*
X14750Y-31000D03*
X13750Y-31000D03*
X12750Y-31000D03*
G54D15*
X26750Y-31000D03*
G54D16*
X25750Y-31000D03*
X24750Y-31000D03*
X23750Y-31000D03*
X22750Y-31000D03*
G54D15*
X15250Y-45500D03*
G54D16*
X14250Y-45500D03*
X13250Y-45500D03*
X12250Y-45500D03*
X11250Y-45500D03*
G54D14*
X57250Y-26250D03*
X60250Y-26250D03*
G54D15*
X46750Y-44000D03*
G54D16*
X47750Y-44000D03*
X48750Y-44000D03*
G54D15*
X58750Y-29750D03*
G54D16*
X58750Y-28750D03*
X58750Y-27750D03*
G54D27*
X58550Y-66600D03*
X65550Y-66600D03*
G54D35*
X50250Y-55000D03*
G54D36*
X52250Y-53000D03*
G54D35*
X59750Y-55300D03*
G54D36*
X61750Y-53300D03*
G54D13*
X19875Y-11250D03*
X19125Y-11250D03*
X19875Y-12250D03*
X19500Y-11250D03*
X19125Y-12250D03*
X13125Y-11250D03*
X12375Y-11250D03*
X13125Y-12250D03*
X12750Y-11250D03*
X12375Y-12250D03*
G54D14*
X10250Y-13500D03*
X10250Y-16500D03*
X20500Y-10500D03*
X23500Y-10500D03*
X15000Y-12250D03*
X15000Y-09250D03*
X19500Y-16500D03*
X19500Y-13500D03*
X11750Y-16500D03*
X11750Y-13500D03*
X18000Y-13500D03*
X18000Y-16500D03*
X16750Y-12500D03*
X16750Y-15500D03*
X09000Y-12500D03*
X09000Y-15500D03*
X16000Y-08000D03*
X16000Y-11000D03*
G54D15*
X13000Y-06250D03*
G54D16*
X14000Y-06250D03*
X15000Y-06250D03*
X16000Y-06250D03*
X17000Y-06250D03*
X18000Y-06250D03*
G54D17*
X10250Y-12500D03*
G54D18*
X10250Y-09500D03*
G54D19*
X12760Y-19500D03*
X14730Y-19500D03*
X17510Y-19500D03*
X19480Y-19500D03*
G54D20*
X22750Y-08740D03*
X22750Y-06770D03*
G54D21*
X24000Y-20250D03*
X10000Y-06750D03*
X10000Y-20250D03*
G54D18*
X13750Y-08250D03*
X14750Y-08250D03*
X13750Y-11500D03*
X13750Y-12500D03*
X20750Y-12000D03*
X20750Y-13000D03*
G54D17*
X18000Y-12500D03*
G54D18*
X18000Y-09500D03*
G54D37*
X38250Y-51250D03*
X35000Y-56250D03*
X38250Y-56500D03*
X38250Y-53000D03*
X39250Y-51000D03*
X51250Y-41500D03*
X38750Y-48500D03*
X32250Y-54000D03*
X27750Y-54500D03*
X37000Y-48500D03*
X33750Y-52750D03*
X33250Y-52500D03*
X39250Y-47000D03*
X51450Y-42400D03*
X39250Y-36000D03*
X37250Y-51500D03*
X39250Y-37750D03*
X33750Y-55000D03*
X30000Y-58500D03*
X52750Y-45250D03*
X62000Y-62750D03*
X58750Y-47750D03*
X54750Y-41000D03*
X42250Y-50250D03*
X42250Y-53250D03*
X37000Y-57000D03*
X39000Y-56000D03*
X52250Y-44000D03*
X50250Y-51500D03*
X49000Y-52750D03*
X48750Y-62500D03*
X47000Y-64250D03*
X59750Y-10500D03*
X38250Y-10500D03*
X43000Y-26250D03*
X52500Y-65000D03*
X17250Y-10500D03*
X48750Y-34000D03*
X56000Y-44500D03*
X55000Y-45500D03*
X46250Y-31500D03*
X49500Y-31500D03*
X52250Y-31500D03*
X48000Y-33750D03*
X36750Y-33000D03*
X57500Y-35000D03*
X59000Y-35000D03*
X61250Y-28250D03*
X60000Y-27000D03*
X21750Y-45000D03*
X21750Y-40000D03*
X23500Y-45250D03*
X30250Y-46000D03*
X25000Y-45250D03*
X63750Y-08000D03*
X63750Y-11500D03*
X42250Y-11500D03*
X42250Y-08000D03*
X57500Y-41050D03*
X11750Y-53250D03*
X52750Y-61700D03*
X46750Y-49000D03*
X46750Y-47500D03*
X47750Y-40750D03*
X11750Y-63500D03*
X21250Y-08000D03*
X21250Y-11500D03*
X14250Y-68750D03*
X16000Y-69000D03*
X20000Y-70750D03*
X18750Y-69500D03*
X17500Y-68250D03*
X24750Y-67250D03*
X27750Y-70250D03*
X33250Y-67250D03*
X28000Y-67000D03*
X32000Y-70500D03*
X27000Y-67000D03*
X52000Y-70500D03*
X51000Y-69500D03*
X41000Y-66750D03*
X38500Y-61250D03*
X24000Y-62250D03*
X62750Y-08750D03*
X60750Y-08250D03*
X39250Y-08250D03*
X41250Y-08750D03*
X24350Y-63200D03*
X38250Y-62000D03*
X39500Y-64500D03*
X56500Y-70250D03*
X20250Y-08750D03*
X18250Y-08250D03*
X56750Y-07750D03*
X35250Y-07750D03*
X14250Y-07750D03*
G54D38*
X51000Y-31500D02*
X50500Y-31500D01*
G54D39*
X51500Y-15500D02*
X51500Y-17250D01*
X53760Y-18000D02*
X55260Y-19500D01*
X52250Y-18000D02*
X53760Y-18000D01*
X51500Y-17250D02*
X52250Y-18000D01*
X59250Y-15500D02*
X59250Y-18750D01*
X59260Y-18750D02*
X60010Y-19500D01*
X59250Y-18750D02*
X59260Y-18750D01*
X37750Y-18750D02*
X37760Y-18750D01*
X37760Y-18750D02*
X38510Y-19500D01*
X37750Y-15500D02*
X37750Y-18750D01*
X30000Y-17250D02*
X30750Y-18000D01*
X30750Y-18000D02*
X32260Y-18000D01*
X32260Y-18000D02*
X33760Y-19500D01*
X30000Y-15500D02*
X30000Y-17250D01*
G54D40*
X54250Y-65375D02*
X54250Y-66500D01*
G54D38*
X56750Y-66500D02*
X57250Y-66000D01*
X47250Y-66500D02*
X54250Y-66500D01*
X54250Y-66500D02*
X54450Y-66500D01*
X54450Y-66500D02*
X56750Y-66500D01*
X57250Y-66000D02*
X57250Y-65000D01*
G54D40*
X11250Y-39000D02*
X11750Y-39500D01*
X33750Y-39500D02*
X34250Y-39000D01*
X11750Y-39500D02*
X33750Y-39500D01*
G54D39*
X09000Y-15500D02*
X09000Y-17250D01*
X11260Y-18000D02*
X12760Y-19500D01*
X09750Y-18000D02*
X11260Y-18000D01*
X09000Y-17250D02*
X09750Y-18000D01*
X16750Y-15500D02*
X16750Y-18750D01*
X16760Y-18750D02*
X17510Y-19500D01*
X16750Y-18750D02*
X16760Y-18750D01*
G54D38*
X38250Y-45250D02*
X38500Y-45000D01*
X30000Y-57750D02*
X33500Y-57750D01*
X33500Y-57750D02*
X35000Y-56250D01*
X29250Y-57000D02*
X30000Y-57750D01*
X45500Y-35750D02*
X45000Y-35250D01*
X38500Y-45000D02*
X45500Y-37750D01*
X45500Y-37750D02*
X45500Y-35750D01*
X38250Y-51250D02*
X38250Y-45250D01*
X29250Y-57000D02*
X29250Y-57500D01*
X29250Y-57500D02*
X26250Y-60500D01*
X45000Y-35250D02*
X45500Y-34750D01*
X45500Y-34750D02*
X45500Y-33000D01*
X45500Y-33000D02*
X45000Y-32500D01*
X45000Y-32500D02*
X43037Y-32500D01*
X43037Y-32500D02*
X42880Y-32343D01*
X40500Y-48500D02*
X41000Y-48000D01*
X38250Y-56500D02*
X38250Y-53000D01*
X39250Y-51000D02*
X39250Y-49750D01*
X39250Y-49750D02*
X40500Y-48500D01*
X50250Y-45000D02*
X50500Y-45000D01*
X47250Y-48000D02*
X50250Y-45000D01*
X41000Y-48000D02*
X47250Y-48000D01*
X43500Y-41500D02*
X51250Y-41500D01*
X38750Y-46250D02*
X43500Y-41500D01*
X38750Y-48500D02*
X38750Y-46250D01*
X33750Y-54000D02*
X32250Y-54000D01*
X27750Y-54500D02*
X24750Y-54500D01*
X24750Y-54500D02*
X23250Y-56000D01*
X23250Y-57500D02*
X23250Y-56000D01*
X30750Y-53500D02*
X33000Y-53500D01*
X33000Y-53500D02*
X33750Y-52750D01*
X29250Y-55000D02*
X30750Y-53500D01*
X37000Y-38500D02*
X38750Y-36750D01*
X37000Y-48500D02*
X37000Y-38500D01*
X24250Y-60500D02*
X25500Y-61750D01*
X34000Y-60750D02*
X34750Y-60000D01*
X28750Y-60750D02*
X34000Y-60750D01*
X28500Y-61000D02*
X28750Y-60750D01*
X27750Y-61750D02*
X28500Y-61000D01*
X27500Y-61750D02*
X27750Y-61750D01*
X25500Y-61750D02*
X27500Y-61750D01*
X29250Y-55000D02*
X28000Y-56250D01*
X25250Y-59500D02*
X24250Y-60500D01*
X25500Y-59500D02*
X25250Y-59500D01*
X28000Y-57000D02*
X25500Y-59500D01*
X28000Y-56250D02*
X28000Y-57000D01*
X36631Y-31555D02*
X36576Y-31500D01*
X36576Y-31500D02*
X36000Y-31500D01*
X36000Y-31500D02*
X35750Y-31750D01*
X35750Y-31750D02*
X35750Y-32750D01*
X35750Y-32750D02*
X35750Y-33750D01*
X35750Y-33750D02*
X38750Y-36750D01*
X38750Y-36750D02*
X45000Y-36750D01*
X29250Y-54000D02*
X29000Y-54000D01*
X23250Y-59750D02*
X23250Y-60500D01*
X23750Y-59250D02*
X23250Y-59750D01*
X23750Y-56250D02*
X23750Y-59250D01*
X24750Y-55250D02*
X23750Y-56250D01*
X27750Y-55250D02*
X24750Y-55250D01*
X29000Y-54000D02*
X27750Y-55250D01*
X30750Y-52500D02*
X33250Y-52500D01*
X30750Y-52500D02*
X29250Y-54000D01*
X40500Y-47000D02*
X43800Y-43700D01*
X39250Y-47000D02*
X40500Y-47000D01*
X45000Y-42500D02*
X43800Y-43700D01*
X51250Y-42500D02*
X45000Y-42500D01*
X51450Y-42400D02*
X51250Y-42500D01*
X39250Y-33750D02*
X39250Y-36000D01*
X37250Y-51500D02*
X37750Y-51000D01*
X37750Y-51000D02*
X37750Y-39500D01*
X37750Y-39500D02*
X39250Y-37750D01*
X29250Y-56000D02*
X29750Y-55500D01*
X33250Y-55500D02*
X33750Y-55000D01*
X29750Y-55500D02*
X33250Y-55500D01*
X25250Y-60500D02*
X26000Y-61250D01*
X29750Y-58750D02*
X30000Y-58500D01*
X27250Y-61250D02*
X29750Y-58750D01*
X27000Y-61250D02*
X27250Y-61250D01*
X26000Y-61250D02*
X27000Y-61250D01*
X29250Y-56000D02*
X28500Y-56750D01*
X26250Y-59500D02*
X25250Y-60500D01*
X26500Y-59500D02*
X26250Y-59500D01*
X28500Y-57500D02*
X26500Y-59500D01*
X28500Y-56750D02*
X28500Y-57500D01*
X45000Y-33750D02*
X39500Y-33750D01*
X39500Y-33750D02*
X39250Y-33750D01*
X39250Y-33750D02*
X38750Y-33750D01*
X38750Y-33750D02*
X38000Y-33000D01*
X38000Y-33000D02*
X38000Y-31500D01*
X38000Y-31500D02*
X37250Y-30750D01*
X37250Y-30750D02*
X36649Y-30750D01*
X36649Y-30750D02*
X36631Y-30768D01*
X53500Y-50750D02*
X53500Y-49250D01*
X52750Y-48500D02*
X52750Y-45250D01*
X53500Y-49250D02*
X52750Y-48500D01*
X53250Y-64625D02*
X53125Y-64500D01*
X53500Y-63750D02*
X53500Y-50750D01*
X53125Y-64125D02*
X53500Y-63750D01*
X53125Y-64375D02*
X53125Y-64125D01*
X53125Y-64500D02*
X53125Y-64375D01*
X53500Y-50750D02*
X53500Y-52000D01*
X53500Y-36000D02*
X53000Y-36000D01*
X62000Y-62750D02*
X65250Y-59750D01*
X65250Y-59750D02*
X67750Y-59750D01*
X67750Y-59750D02*
X67750Y-53500D01*
X67750Y-52000D02*
X67750Y-53500D01*
X67250Y-51500D02*
X67750Y-52000D01*
X62500Y-51500D02*
X67250Y-51500D01*
X58750Y-47750D02*
X62500Y-51500D01*
X54250Y-40500D02*
X54750Y-41000D01*
X53000Y-40500D02*
X54250Y-40500D01*
X52500Y-40000D02*
X53000Y-40500D01*
X52500Y-36500D02*
X52500Y-40000D01*
X53000Y-36000D02*
X52500Y-36500D01*
X42250Y-56000D02*
X42250Y-53250D01*
X51000Y-40000D02*
X50500Y-40000D01*
X51850Y-40750D02*
X51000Y-40000D01*
X51850Y-47500D02*
X51850Y-40750D01*
X50750Y-48500D02*
X51850Y-47500D01*
X44000Y-48500D02*
X50750Y-48500D01*
X42250Y-50250D02*
X44000Y-48500D01*
X32750Y-60000D02*
X34000Y-58750D01*
X39000Y-56000D02*
X42250Y-56000D01*
X37000Y-57500D02*
X37000Y-57000D01*
X35750Y-58750D02*
X37000Y-57500D01*
X34000Y-58750D02*
X35750Y-58750D01*
X42250Y-56000D02*
X42250Y-59000D01*
X42250Y-59000D02*
X42200Y-59250D01*
X42200Y-59250D02*
X42200Y-60750D01*
X43750Y-62500D02*
X42200Y-60750D01*
X49000Y-40000D02*
X50500Y-40000D01*
X44250Y-65500D02*
X45750Y-65500D01*
X52250Y-49500D02*
X52250Y-44000D01*
X50250Y-51500D02*
X52250Y-49500D01*
X49000Y-62250D02*
X49000Y-52750D01*
X48750Y-62500D02*
X49000Y-62250D01*
X45750Y-65500D02*
X47000Y-64250D01*
X44250Y-65500D02*
X44250Y-66500D01*
G54D39*
X57250Y-08250D02*
X58250Y-08250D01*
X58250Y-08250D02*
X58500Y-08000D01*
X57500Y-09250D02*
X58500Y-09250D01*
X58500Y-06250D02*
X58500Y-08000D01*
X58500Y-08000D02*
X58500Y-09250D01*
X58500Y-09250D02*
X59750Y-10500D01*
X37000Y-09250D02*
X38250Y-10500D01*
X37000Y-08000D02*
X37000Y-09250D01*
X37000Y-06250D02*
X37000Y-08000D01*
X36000Y-09250D02*
X37000Y-09250D01*
X36750Y-08250D02*
X37000Y-08000D01*
X35750Y-08250D02*
X36750Y-08250D01*
G54D38*
X35250Y-30250D02*
X35250Y-29750D01*
X35768Y-29232D02*
X36631Y-29232D01*
X35250Y-29750D02*
X35768Y-29232D01*
X42891Y-27657D02*
X43000Y-27548D01*
X43000Y-27548D02*
X43000Y-26250D01*
X53250Y-65000D02*
X52500Y-65000D01*
G54D39*
X14750Y-08250D02*
X15750Y-08250D01*
X15750Y-08250D02*
X16000Y-08000D01*
X15000Y-09250D02*
X16000Y-09250D01*
X16000Y-06250D02*
X16000Y-08000D01*
X16000Y-08000D02*
X16000Y-09250D01*
X16000Y-09250D02*
X17250Y-10500D01*
X55250Y-11250D02*
X55250Y-12750D01*
X54500Y-13500D02*
X54250Y-13500D01*
X55250Y-12750D02*
X54500Y-13500D01*
X62000Y-11250D02*
X62000Y-13500D01*
X40500Y-11250D02*
X40500Y-13500D01*
X33750Y-12750D02*
X33000Y-13500D01*
X33000Y-13500D02*
X32750Y-13500D01*
X33750Y-11250D02*
X33750Y-12750D01*
X12750Y-11250D02*
X12750Y-12750D01*
X12000Y-13500D02*
X11750Y-13500D01*
X12750Y-12750D02*
X12000Y-13500D01*
X19500Y-11250D02*
X19500Y-13500D01*
X59250Y-12500D02*
X60500Y-11250D01*
X60500Y-11250D02*
X61625Y-11250D01*
X61625Y-11250D02*
X60500Y-10125D01*
X60500Y-10125D02*
X60500Y-09500D01*
X39000Y-10125D02*
X39000Y-09500D01*
X40125Y-11250D02*
X39000Y-10125D01*
X39000Y-11250D02*
X40125Y-11250D01*
X37750Y-12500D02*
X39000Y-11250D01*
X16750Y-12500D02*
X18000Y-11250D01*
X18000Y-11250D02*
X19125Y-11250D01*
X19125Y-11250D02*
X18000Y-10125D01*
X18000Y-10125D02*
X18000Y-09500D01*
X60500Y-12500D02*
X60500Y-13500D01*
X61625Y-12250D02*
X60750Y-12250D01*
X60750Y-12250D02*
X60500Y-12500D01*
X39250Y-12250D02*
X39000Y-12500D01*
X40125Y-12250D02*
X39250Y-12250D01*
X39000Y-12500D02*
X39000Y-13500D01*
X18000Y-12500D02*
X18000Y-13500D01*
X19125Y-12250D02*
X18250Y-12250D01*
X18250Y-12250D02*
X18000Y-12500D01*
X54875Y-12250D02*
X53000Y-12250D01*
X53000Y-12250D02*
X52750Y-12500D01*
X52750Y-12500D02*
X52750Y-13500D01*
X31250Y-12500D02*
X31250Y-13500D01*
X31500Y-12250D02*
X31250Y-12500D01*
X33375Y-12250D02*
X31500Y-12250D01*
X12375Y-12250D02*
X10500Y-12250D01*
X10500Y-12250D02*
X10250Y-12500D01*
X10250Y-12500D02*
X10250Y-13500D01*
X51500Y-12500D02*
X51500Y-10750D01*
X51500Y-10750D02*
X52750Y-09500D01*
X54875Y-11250D02*
X54500Y-11250D01*
X54500Y-11250D02*
X52750Y-09500D01*
X33000Y-11250D02*
X31250Y-09500D01*
X33375Y-11250D02*
X33000Y-11250D01*
X30000Y-10750D02*
X31250Y-09500D01*
X30000Y-12500D02*
X30000Y-10750D01*
X09000Y-12500D02*
X09000Y-10750D01*
X09000Y-10750D02*
X10250Y-09500D01*
X12375Y-11250D02*
X12000Y-11250D01*
X12000Y-11250D02*
X10250Y-09500D01*
G54D38*
X48750Y-29750D02*
X49750Y-28750D01*
X48750Y-34000D02*
X48750Y-29750D01*
X57000Y-37000D02*
X56500Y-37500D01*
X56500Y-37500D02*
X55250Y-37500D01*
X55250Y-37500D02*
X54750Y-38000D01*
X54750Y-38000D02*
X53500Y-38000D01*
X53500Y-46000D02*
X54500Y-46000D01*
X59500Y-37250D02*
X60500Y-36250D01*
X59500Y-40000D02*
X59500Y-37250D01*
X57750Y-41750D02*
X59500Y-40000D01*
X57750Y-42750D02*
X57750Y-41750D01*
X56000Y-44500D02*
X57750Y-42750D01*
X54500Y-46000D02*
X55000Y-45500D01*
X66250Y-41500D02*
X63750Y-39000D01*
X63000Y-36250D02*
X60500Y-36250D01*
X63750Y-37000D02*
X63000Y-36250D01*
X63750Y-39000D02*
X63750Y-37000D01*
X49500Y-31500D02*
X49750Y-31500D01*
X42946Y-31500D02*
X46250Y-31500D01*
X52500Y-43500D02*
X53000Y-44000D01*
X53500Y-44000D02*
X53000Y-44000D01*
X42946Y-31500D02*
X42891Y-31555D01*
X52250Y-43250D02*
X52500Y-43500D01*
X52250Y-40750D02*
X52250Y-43250D01*
X51500Y-40000D02*
X52250Y-40750D01*
X51500Y-33250D02*
X51500Y-40000D01*
X49750Y-31500D02*
X51500Y-33250D01*
X58750Y-28750D02*
X54500Y-33000D01*
X54000Y-35000D02*
X53500Y-35000D01*
X54500Y-34500D02*
X54000Y-35000D01*
X54500Y-33000D02*
X54500Y-34500D01*
X58750Y-28750D02*
X57250Y-27250D01*
X57250Y-27250D02*
X57250Y-26250D01*
X47000Y-33750D02*
X47000Y-27750D01*
X48750Y-26750D02*
X49750Y-27750D01*
X48000Y-26750D02*
X48750Y-26750D01*
X47000Y-27750D02*
X48000Y-26750D01*
X46000Y-36750D02*
X46750Y-37500D01*
X49500Y-38000D02*
X50500Y-38000D01*
X49000Y-37500D02*
X49500Y-38000D01*
X46750Y-37500D02*
X49000Y-37500D01*
X53250Y-28750D02*
X53250Y-30500D01*
X53250Y-30500D02*
X52250Y-31500D01*
X46000Y-33750D02*
X46750Y-34500D01*
X49750Y-36000D02*
X50500Y-36000D01*
X48250Y-34500D02*
X49750Y-36000D01*
X46750Y-34500D02*
X48250Y-34500D01*
X61250Y-43000D02*
X62000Y-43000D01*
X62000Y-43000D02*
X62500Y-42500D01*
X53500Y-34000D02*
X53500Y-30750D01*
X53500Y-30750D02*
X55500Y-28750D01*
X62500Y-38250D02*
X61250Y-38250D01*
X59500Y-41750D02*
X61000Y-40250D01*
X64750Y-42500D02*
X66250Y-42500D01*
X62500Y-40250D02*
X64750Y-42500D01*
X61000Y-40250D02*
X62500Y-40250D01*
X59500Y-41750D02*
X56250Y-45000D01*
X56250Y-45000D02*
X53500Y-45000D01*
X66250Y-40500D02*
X67250Y-41500D01*
X67250Y-41500D02*
X67250Y-42750D01*
X67250Y-42750D02*
X67000Y-43000D01*
X67000Y-43000D02*
X65000Y-43000D01*
X65000Y-43000D02*
X63000Y-45000D01*
X55250Y-39500D02*
X55750Y-40000D01*
X55750Y-40000D02*
X57000Y-40000D01*
X53500Y-39000D02*
X54750Y-39000D01*
X55750Y-40000D02*
X57000Y-40000D01*
X54750Y-39000D02*
X55750Y-40000D01*
X50500Y-44000D02*
X48750Y-44000D01*
X46000Y-35250D02*
X46750Y-36000D01*
X49500Y-37000D02*
X50500Y-37000D01*
X48500Y-36000D02*
X49500Y-37000D01*
X46750Y-36000D02*
X48500Y-36000D01*
X36631Y-27657D02*
X36631Y-27381D01*
X36631Y-27381D02*
X36250Y-27000D01*
X48750Y-28750D02*
X48000Y-29500D01*
X48000Y-29500D02*
X48000Y-33750D01*
X36631Y-32869D02*
X36631Y-32343D01*
X36750Y-33000D02*
X36631Y-32869D01*
X66250Y-35750D02*
X66250Y-36000D01*
X54500Y-37000D02*
X53500Y-37000D01*
X57500Y-35000D02*
X54500Y-37000D01*
X63250Y-35000D02*
X59000Y-35000D01*
X65000Y-36750D02*
X63250Y-35000D01*
X65500Y-36750D02*
X65000Y-36750D01*
X66250Y-36000D02*
X65500Y-36750D01*
X66250Y-31500D02*
X66250Y-35750D01*
X63750Y-31500D02*
X65250Y-31500D01*
X63750Y-33250D02*
X65250Y-34750D01*
X65250Y-34750D02*
X65250Y-35750D01*
X63000Y-47000D02*
X64000Y-47000D01*
X63000Y-47000D02*
X67000Y-47000D01*
X53500Y-26000D02*
X54000Y-25500D01*
X67750Y-46250D02*
X67750Y-41000D01*
X67750Y-41000D02*
X67750Y-31000D01*
X67750Y-31000D02*
X66000Y-29250D01*
X66000Y-29250D02*
X62250Y-29250D01*
X62250Y-29250D02*
X61250Y-28250D01*
X60000Y-27000D02*
X58750Y-25750D01*
X67750Y-46250D02*
X67000Y-47000D01*
X58500Y-25500D02*
X58750Y-25750D01*
X54000Y-25500D02*
X58500Y-25500D01*
X50750Y-28750D02*
X53500Y-26000D01*
X67000Y-47000D02*
X61750Y-47000D01*
X53500Y-47000D02*
X57000Y-47000D01*
X57000Y-47000D02*
X59000Y-47000D01*
X59000Y-47000D02*
X61750Y-47000D01*
X61750Y-47000D02*
X62000Y-47000D01*
X60500Y-37250D02*
X62500Y-37250D01*
X25750Y-37000D02*
X25750Y-37250D01*
X26750Y-38250D02*
X26750Y-38500D01*
G54D40*
X25750Y-37250D02*
X26750Y-38250D01*
G54D38*
X32250Y-44000D02*
X30750Y-42500D01*
X30750Y-42500D02*
X30750Y-41500D01*
X29750Y-37000D02*
X29750Y-37250D01*
X30750Y-38250D02*
X30750Y-38500D01*
G54D40*
X29750Y-37250D02*
X30750Y-38250D01*
G54D38*
X28750Y-37000D02*
X28750Y-37250D01*
X29750Y-38250D02*
X29750Y-38500D01*
G54D40*
X28750Y-37250D02*
X29750Y-38250D01*
G54D38*
X27750Y-37000D02*
X27750Y-37250D01*
X28750Y-38250D02*
X28750Y-38500D01*
G54D40*
X27750Y-37250D02*
X28750Y-38250D01*
G54D38*
X26750Y-37000D02*
X26750Y-37250D01*
X27750Y-38250D02*
X27750Y-38500D01*
G54D40*
X26750Y-37250D02*
X27750Y-38250D01*
G54D38*
X24750Y-37000D02*
X24750Y-37250D01*
G54D40*
X24750Y-37250D02*
X25750Y-38250D01*
G54D38*
X25750Y-38250D02*
X25750Y-38500D01*
G54D40*
X23750Y-37000D02*
X23750Y-37250D01*
X24750Y-38250D02*
X24750Y-38500D01*
X23750Y-37250D02*
X24750Y-38250D01*
X22750Y-37000D02*
X22750Y-37500D01*
X22750Y-37500D02*
X23750Y-38500D01*
G54D38*
X20250Y-60500D02*
X20250Y-61000D01*
X21250Y-62000D02*
X21250Y-63000D01*
X20250Y-61000D02*
X21250Y-62000D01*
X18250Y-63000D02*
X18250Y-62000D01*
X17250Y-61000D02*
X17250Y-60500D01*
X18250Y-62000D02*
X17250Y-61000D01*
X15250Y-60500D02*
X15250Y-61000D01*
X16250Y-62000D02*
X16250Y-63000D01*
X15250Y-61000D02*
X16250Y-62000D01*
X20750Y-38500D02*
X20750Y-38250D01*
X21750Y-37250D02*
X21750Y-37000D01*
X20750Y-38250D02*
X21750Y-37250D01*
X29250Y-50000D02*
X26750Y-50000D01*
X26750Y-50000D02*
X21750Y-45000D01*
X29250Y-45000D02*
X25500Y-45000D01*
X19750Y-41500D02*
X19750Y-41500D01*
X19750Y-42000D02*
X19750Y-41500D01*
X21250Y-42750D02*
X19750Y-42000D01*
X22250Y-43250D02*
X21250Y-42750D01*
X23250Y-43750D02*
X22250Y-43250D01*
X23750Y-44000D02*
X23250Y-43750D01*
X23750Y-44000D02*
X23750Y-44000D01*
X24250Y-44250D02*
X23750Y-44000D01*
X25500Y-45000D02*
X24250Y-44250D01*
G54D40*
X11750Y-40000D02*
X11250Y-40000D01*
X21250Y-40000D02*
X11750Y-40000D01*
X21750Y-40000D02*
X21250Y-40000D01*
G54D38*
X19750Y-38500D02*
X19750Y-38250D01*
X20750Y-37250D02*
X20750Y-37000D01*
G54D40*
X19750Y-38250D02*
X20750Y-37250D01*
G54D38*
X18750Y-38500D02*
X18750Y-38250D01*
X19750Y-37250D02*
X19750Y-37000D01*
G54D40*
X18750Y-38250D02*
X19750Y-37250D01*
G54D38*
X17750Y-38500D02*
X17750Y-38250D01*
X18750Y-37250D02*
X18750Y-37000D01*
G54D40*
X17750Y-38250D02*
X18750Y-37250D01*
G54D38*
X16750Y-38500D02*
X16750Y-38250D01*
X17750Y-37250D02*
X17750Y-37000D01*
G54D40*
X16750Y-38250D02*
X17750Y-37250D01*
G54D38*
X15750Y-38500D02*
X15750Y-38250D01*
X16750Y-37250D02*
X16750Y-37000D01*
G54D40*
X15750Y-38250D02*
X16750Y-37250D01*
G54D38*
X14750Y-38500D02*
X14750Y-38250D01*
X15750Y-37250D02*
X15750Y-37000D01*
G54D40*
X14750Y-38250D02*
X15750Y-37250D01*
X14750Y-37000D02*
X13750Y-38000D01*
G54D38*
X13750Y-38000D02*
X13750Y-38500D01*
G54D40*
X10750Y-64500D02*
X12250Y-64500D01*
X12250Y-64500D02*
X12500Y-64500D01*
X12500Y-64500D02*
X13250Y-65250D01*
X13250Y-65250D02*
X13250Y-66000D01*
G54D38*
X14250Y-56000D02*
X14250Y-57500D01*
X15250Y-56000D02*
X15250Y-57500D01*
X19250Y-56000D02*
X19250Y-57500D01*
G54D40*
X21250Y-53000D02*
X19750Y-54500D01*
X19750Y-54500D02*
X10750Y-54500D01*
X13250Y-53000D02*
X13250Y-51500D01*
X19250Y-53000D02*
X19250Y-51500D01*
X17250Y-53000D02*
X17250Y-51500D01*
X15250Y-53000D02*
X15250Y-51500D01*
X20250Y-51500D02*
X20250Y-53000D01*
X14250Y-51500D02*
X14250Y-53000D01*
X16250Y-51500D02*
X16250Y-53000D01*
X18250Y-51500D02*
X18250Y-53000D01*
G54D38*
X13250Y-60500D02*
X13250Y-61000D01*
X14250Y-62000D02*
X14250Y-63000D01*
X13250Y-61000D02*
X14250Y-62000D01*
X13750Y-41500D02*
X17000Y-44750D01*
X27000Y-51000D02*
X29250Y-51000D01*
X20750Y-44750D02*
X27000Y-51000D01*
X17000Y-44750D02*
X20750Y-44750D01*
X29250Y-48000D02*
X26250Y-48000D01*
X26250Y-48000D02*
X23500Y-45250D01*
X28750Y-42250D02*
X28750Y-41500D01*
X30250Y-43750D02*
X28750Y-42250D01*
X30250Y-46000D02*
X30250Y-43750D01*
X15250Y-63000D02*
X15250Y-62000D01*
X14250Y-61000D02*
X14250Y-60500D01*
X15250Y-62000D02*
X14250Y-61000D01*
X16250Y-60500D02*
X16250Y-61000D01*
X17250Y-62000D02*
X17250Y-63000D01*
X16250Y-61000D02*
X17250Y-62000D01*
X29250Y-46000D02*
X25750Y-46000D01*
X25750Y-46000D02*
X25000Y-45250D01*
X29250Y-47000D02*
X26000Y-47000D01*
X17750Y-42750D02*
X17750Y-41500D01*
X18750Y-43750D02*
X17750Y-42750D01*
X21750Y-43750D02*
X18750Y-43750D01*
X22750Y-44750D02*
X21750Y-43750D01*
X23750Y-44750D02*
X22750Y-44750D01*
X26000Y-47000D02*
X23750Y-44750D01*
X20750Y-41500D02*
X21750Y-42500D01*
X25000Y-44000D02*
X29250Y-44000D01*
X21750Y-42500D02*
X25000Y-44000D01*
X21750Y-42500D02*
X21750Y-42500D01*
X21750Y-42500D02*
X21750Y-42500D01*
X13250Y-56000D02*
X13250Y-57500D01*
X29250Y-49000D02*
X26500Y-49000D01*
X15750Y-42000D02*
X15750Y-41500D01*
X18000Y-44250D02*
X15750Y-42000D01*
X21750Y-44250D02*
X18000Y-44250D01*
X26500Y-49000D02*
X21750Y-44250D01*
X18250Y-60500D02*
X18250Y-61000D01*
X19250Y-62000D02*
X19250Y-63000D01*
X18250Y-61000D02*
X19250Y-62000D01*
X20250Y-56000D02*
X20250Y-57500D01*
X25250Y-57500D02*
X25250Y-56000D01*
X24250Y-57500D02*
X24250Y-57000D01*
X24250Y-57000D02*
X25250Y-56000D01*
X25250Y-56000D02*
X26250Y-57000D01*
X26250Y-57000D02*
X26250Y-57500D01*
X16250Y-56000D02*
X16250Y-57500D01*
X17250Y-56000D02*
X17250Y-57500D01*
X20250Y-63000D02*
X20250Y-62000D01*
X19250Y-61000D02*
X19250Y-60500D01*
X20250Y-62000D02*
X19250Y-61000D01*
X29750Y-41500D02*
X29750Y-42250D01*
X29750Y-42500D02*
X32250Y-45000D01*
X29750Y-42250D02*
X29750Y-42500D01*
X18250Y-56000D02*
X18250Y-57500D01*
G54D40*
X66250Y-57000D02*
X62500Y-60750D01*
G54D38*
X59976Y-60750D02*
X59935Y-60709D01*
G54D40*
X62500Y-60750D02*
X59976Y-60750D01*
X64250Y-57000D02*
X66250Y-57000D01*
X46750Y-63000D02*
X46250Y-63500D01*
X46250Y-63500D02*
X44750Y-63500D01*
X48750Y-64500D02*
X48250Y-64500D01*
X48250Y-64500D02*
X46750Y-63000D01*
X57850Y-57000D02*
X58250Y-57000D01*
X59250Y-56000D02*
X59750Y-55300D01*
X58250Y-57000D02*
X59250Y-56000D01*
X59935Y-59291D02*
X59950Y-56000D01*
X59950Y-56000D02*
X59750Y-55300D01*
G54D38*
X55050Y-65000D02*
X54000Y-65000D01*
X55050Y-65000D02*
X55750Y-64250D01*
X55750Y-64250D02*
X56510Y-63490D01*
X56510Y-63490D02*
X65750Y-63490D01*
X54000Y-65000D02*
X53500Y-65500D01*
X53500Y-65500D02*
X53375Y-65500D01*
X53375Y-65500D02*
X53250Y-65375D01*
X65750Y-63490D02*
X65750Y-65500D01*
X65750Y-65500D02*
X66750Y-66500D01*
G54D40*
X57250Y-62000D02*
X57250Y-60126D01*
X57250Y-60126D02*
X58754Y-58622D01*
X58754Y-58622D02*
X55128Y-58622D01*
X55128Y-58622D02*
X54250Y-59500D01*
X50250Y-55000D02*
X51850Y-56600D01*
X51850Y-56600D02*
X51850Y-57600D01*
X64250Y-54000D02*
X61750Y-53300D01*
X61750Y-53300D02*
X56250Y-54000D01*
G54D38*
X44250Y-59000D02*
X44250Y-56000D01*
X44250Y-59000D02*
X49750Y-64500D01*
G54D39*
X62375Y-12250D02*
X63000Y-12250D01*
X63000Y-12250D02*
X63250Y-12000D01*
X63250Y-12000D02*
X63750Y-11500D01*
X58250Y-05500D02*
X57500Y-06250D01*
X61250Y-05500D02*
X58250Y-05500D01*
X63750Y-08000D02*
X61250Y-05500D01*
X55625Y-12250D02*
X55750Y-12250D01*
X56250Y-07500D02*
X57500Y-06250D01*
X56250Y-11750D02*
X56250Y-11500D01*
X56250Y-11500D02*
X56250Y-08250D01*
X56250Y-08250D02*
X56250Y-07500D01*
X55750Y-12250D02*
X56250Y-11750D01*
X34250Y-12250D02*
X34750Y-11750D01*
X34750Y-08250D02*
X34750Y-07500D01*
X34750Y-11500D02*
X34750Y-08250D01*
X34750Y-11750D02*
X34750Y-11500D01*
X34750Y-07500D02*
X36000Y-06250D01*
X34125Y-12250D02*
X34250Y-12250D01*
X42250Y-08000D02*
X39750Y-05500D01*
X39750Y-05500D02*
X36750Y-05500D01*
X36750Y-05500D02*
X36000Y-06250D01*
X41750Y-12000D02*
X42250Y-11500D01*
X41500Y-12250D02*
X41750Y-12000D01*
X40875Y-12250D02*
X41500Y-12250D01*
G54D40*
X53500Y-41000D02*
X53850Y-41000D01*
X56750Y-41800D02*
X57500Y-41050D01*
X54650Y-41800D02*
X56750Y-41800D01*
X53850Y-41000D02*
X54650Y-41800D01*
X11250Y-41000D02*
X11250Y-44000D01*
X11750Y-49300D02*
X11750Y-53250D01*
X10450Y-48000D02*
X11750Y-49300D01*
X10450Y-46700D02*
X10450Y-48000D01*
X10450Y-44800D02*
X10450Y-46700D01*
X11250Y-44000D02*
X10450Y-44800D01*
X52750Y-61700D02*
X52750Y-53900D01*
X52750Y-53900D02*
X52750Y-53500D01*
X52750Y-53500D02*
X52250Y-53000D01*
X52250Y-53000D02*
X51250Y-52000D01*
X51250Y-52000D02*
X46750Y-52000D01*
G54D38*
X60250Y-26250D02*
X60750Y-26750D01*
G54D40*
X46750Y-44000D02*
X46750Y-47500D01*
X46750Y-49000D02*
X46750Y-52000D01*
X47750Y-40750D02*
X47750Y-40250D01*
X47750Y-40250D02*
X49000Y-39000D01*
X10750Y-65500D02*
X10750Y-68250D01*
X10750Y-68250D02*
X13000Y-70500D01*
X13000Y-70500D02*
X13000Y-72000D01*
X13000Y-72000D02*
X13500Y-72600D01*
X13500Y-72600D02*
X15250Y-72600D01*
X15250Y-72600D02*
X16000Y-72000D01*
X11750Y-63500D02*
X11750Y-59000D01*
X21250Y-60500D02*
X21250Y-59750D01*
X21250Y-59750D02*
X21750Y-59250D01*
G54D38*
X21750Y-59250D02*
X21750Y-56500D01*
G54D40*
X21750Y-56500D02*
X24250Y-54000D01*
X24250Y-54000D02*
X26250Y-54000D01*
X26250Y-54000D02*
X28250Y-52000D01*
X28250Y-52000D02*
X29250Y-52000D01*
G54D38*
X36250Y-52000D02*
X35000Y-52000D01*
G54D40*
X34250Y-41000D02*
X36250Y-43000D01*
X36250Y-43000D02*
X36250Y-52000D01*
X29250Y-52000D02*
X30750Y-51500D01*
X35000Y-52000D02*
X35000Y-51500D01*
G54D38*
X30750Y-51500D02*
X35000Y-51500D01*
G54D40*
X34500Y-29000D02*
X34500Y-37250D01*
X34500Y-37250D02*
X35500Y-38250D01*
X35500Y-38250D02*
X35500Y-39750D01*
X35500Y-39750D02*
X34250Y-41000D01*
X35250Y-28250D02*
X34500Y-29000D01*
X10750Y-55500D02*
X10750Y-58000D01*
X10750Y-58000D02*
X11750Y-59000D01*
X19750Y-59000D02*
X21250Y-60500D01*
X11750Y-59000D02*
X19750Y-59000D01*
X31750Y-60000D02*
X31750Y-59250D01*
X31750Y-59250D02*
X34000Y-58000D01*
X34000Y-58000D02*
X36750Y-56000D01*
X36750Y-56000D02*
X36750Y-56000D01*
X37750Y-64500D02*
X38750Y-64500D01*
X38750Y-64500D02*
X39000Y-64250D01*
X39000Y-64250D02*
X39000Y-58250D01*
X39000Y-58250D02*
X36750Y-56000D01*
X36250Y-52000D02*
X46750Y-52000D01*
X36750Y-56000D02*
X35000Y-54250D01*
X35000Y-52500D02*
X35000Y-52000D01*
X35000Y-54250D02*
X35000Y-52500D01*
X35250Y-28250D02*
X35445Y-28445D01*
X35445Y-28445D02*
X36631Y-28445D01*
X50500Y-26000D02*
X50500Y-25750D01*
X50500Y-25750D02*
X51000Y-25000D01*
X51000Y-25000D02*
X59250Y-25000D01*
X59250Y-25000D02*
X60750Y-26750D01*
X60750Y-26750D02*
X60750Y-31500D01*
X57500Y-41050D02*
X58250Y-40500D01*
X59750Y-31500D02*
X60750Y-31500D01*
X58250Y-33000D02*
X59750Y-31500D01*
X58250Y-40500D02*
X58250Y-33000D01*
G54D38*
X53717Y-41034D02*
X53500Y-41000D01*
X61250Y-41250D02*
X61250Y-41750D01*
G54D40*
X61250Y-41750D02*
X60500Y-42500D01*
G54D38*
X61000Y-46000D02*
X61250Y-46000D01*
G54D40*
X60500Y-45500D02*
X61000Y-46000D01*
X60500Y-42500D02*
X60500Y-45500D01*
X66250Y-43500D02*
X63750Y-46000D01*
X63750Y-46000D02*
X61250Y-46000D01*
G54D38*
X54250Y-64625D02*
X54375Y-64625D01*
G54D40*
X54750Y-64250D02*
X54750Y-63500D01*
G54D38*
X54375Y-64625D02*
X54750Y-64250D01*
G54D40*
X49000Y-39000D02*
X50500Y-39000D01*
G54D39*
X19875Y-12250D02*
X20500Y-12250D01*
X20500Y-12250D02*
X20750Y-12000D01*
X20750Y-12000D02*
X21250Y-11500D01*
X15750Y-05500D02*
X15000Y-06250D01*
X18750Y-05500D02*
X15750Y-05500D01*
X21250Y-08000D02*
X18750Y-05500D01*
X13125Y-12250D02*
X13250Y-12250D01*
X13750Y-07500D02*
X15000Y-06250D01*
X13750Y-11750D02*
X13750Y-11500D01*
X13750Y-11500D02*
X13750Y-08250D01*
X13750Y-08250D02*
X13750Y-07500D01*
X13250Y-12250D02*
X13750Y-11750D01*
G54D38*
X29750Y-66000D02*
X29750Y-64500D01*
X29750Y-64500D02*
X29750Y-63000D01*
X14000Y-72000D02*
X14000Y-70000D01*
X28000Y-67750D02*
X29750Y-66000D01*
X16250Y-67750D02*
X28000Y-67750D01*
X14000Y-70000D02*
X16250Y-67750D01*
X29750Y-63000D02*
X29750Y-66000D01*
X30750Y-63000D02*
X30750Y-64500D01*
X30750Y-64500D02*
X30750Y-66000D01*
X19000Y-72000D02*
X19000Y-70250D01*
X27750Y-69000D02*
X30750Y-66000D01*
X20250Y-69000D02*
X27750Y-69000D01*
X19000Y-70250D02*
X20250Y-69000D01*
X30750Y-63000D02*
X30750Y-66000D01*
X31750Y-63000D02*
X31750Y-64500D01*
X26500Y-72000D02*
X26500Y-70250D01*
X28000Y-69750D02*
X31750Y-66000D01*
X27000Y-69750D02*
X28000Y-69750D01*
X26500Y-70250D02*
X27000Y-69750D01*
X31750Y-63000D02*
X31750Y-66000D01*
X32750Y-66000D02*
X32750Y-64500D01*
X32750Y-64500D02*
X32750Y-63000D01*
X31500Y-72000D02*
X31500Y-67250D01*
X31500Y-67250D02*
X32750Y-66000D01*
X32750Y-63000D02*
X32750Y-66000D01*
X33750Y-63000D02*
X33750Y-64500D01*
X33750Y-64500D02*
X33750Y-66000D01*
X33750Y-66000D02*
X33750Y-66750D01*
X33750Y-66750D02*
X39000Y-72000D01*
X33750Y-63000D02*
X33750Y-66000D01*
X34750Y-66000D02*
X34750Y-64500D01*
X34750Y-64500D02*
X34750Y-63000D01*
X44000Y-72000D02*
X44000Y-71500D01*
X36250Y-67500D02*
X34750Y-66000D01*
X38500Y-67500D02*
X36250Y-67500D01*
X42000Y-71000D02*
X38500Y-67500D01*
X43500Y-71000D02*
X42000Y-71000D01*
X44000Y-71500D02*
X43500Y-71000D01*
X34750Y-63000D02*
X34750Y-66000D01*
G54D39*
X55625Y-11250D02*
X55625Y-06375D01*
X55625Y-06375D02*
X55500Y-06250D01*
X34125Y-06375D02*
X34000Y-06250D01*
X34125Y-11250D02*
X34125Y-06375D01*
G54D38*
X35750Y-63000D02*
X35750Y-64500D01*
X35750Y-64500D02*
X35750Y-66000D01*
X52500Y-72000D02*
X51000Y-70500D01*
X36750Y-67000D02*
X35750Y-66000D01*
X39000Y-67000D02*
X36750Y-67000D01*
X42500Y-70500D02*
X39000Y-67000D01*
X51000Y-70500D02*
X42500Y-70500D01*
X35750Y-63000D02*
X35750Y-66000D01*
G54D39*
X13125Y-11250D02*
X13125Y-06375D01*
X13125Y-06375D02*
X13000Y-06250D01*
X62375Y-11250D02*
X62375Y-10875D01*
X61750Y-07500D02*
X60500Y-06250D01*
X61750Y-10250D02*
X61750Y-07500D01*
X62375Y-10875D02*
X61750Y-10250D01*
X40875Y-10875D02*
X40250Y-10250D01*
X40250Y-10250D02*
X40250Y-07500D01*
X40250Y-07500D02*
X39000Y-06250D01*
X40875Y-11250D02*
X40875Y-10875D01*
G54D38*
X36750Y-66000D02*
X36750Y-64500D01*
X36750Y-64500D02*
X36750Y-63000D01*
X57500Y-72000D02*
X56750Y-71250D01*
X39500Y-66000D02*
X36750Y-66000D01*
X43250Y-70000D02*
X39500Y-66000D01*
X55250Y-70000D02*
X43250Y-70000D01*
X56750Y-71250D02*
X55250Y-70000D01*
X36750Y-63000D02*
X36750Y-66000D01*
G54D39*
X19875Y-11250D02*
X19875Y-10875D01*
X19250Y-07500D02*
X18000Y-06250D01*
X19250Y-10250D02*
X19250Y-07500D01*
X19875Y-10875D02*
X19250Y-10250D01*
G54D40*
X14250Y-66000D02*
X14250Y-68750D01*
X19250Y-45500D02*
X19250Y-48500D01*
X18250Y-48500D02*
X18250Y-45500D01*
X17250Y-45500D02*
X17250Y-48500D01*
X16250Y-48500D02*
X16250Y-45500D01*
X15250Y-48500D02*
X15250Y-45500D01*
X14250Y-48500D02*
X14250Y-45500D01*
X13250Y-48500D02*
X13250Y-45500D01*
G54D38*
X18000Y-72000D02*
X18000Y-71000D01*
G54D40*
X18000Y-71000D02*
X16000Y-69000D01*
X27500Y-72000D02*
X27500Y-72250D01*
X27500Y-72250D02*
X27000Y-72750D01*
X27000Y-72750D02*
X26000Y-72750D01*
X26000Y-72750D02*
X24000Y-70750D01*
X24000Y-70750D02*
X20000Y-70750D01*
X18750Y-69500D02*
X17500Y-68250D01*
X17250Y-66000D02*
X17250Y-67000D01*
X17250Y-67000D02*
X17500Y-67250D01*
X17500Y-67250D02*
X24750Y-67250D01*
X27750Y-70250D02*
X28250Y-70750D01*
X28250Y-70750D02*
X29500Y-70750D01*
X29500Y-70750D02*
X30500Y-71750D01*
X30500Y-71750D02*
X30500Y-72000D01*
X40000Y-72000D02*
X40000Y-72500D01*
X40000Y-72500D02*
X39750Y-72750D01*
X39750Y-72750D02*
X38750Y-72750D01*
X38750Y-72750D02*
X33250Y-67250D01*
X28000Y-67000D02*
X24750Y-63750D01*
X24750Y-63750D02*
X19500Y-63750D01*
X19500Y-63750D02*
X18250Y-65000D01*
X18250Y-65000D02*
X18250Y-66000D01*
X43000Y-72000D02*
X42250Y-72900D01*
X42250Y-72900D02*
X40380Y-72946D01*
X40380Y-72946D02*
X39875Y-73275D01*
X39875Y-73275D02*
X38500Y-73250D01*
X38500Y-73250D02*
X35750Y-70500D01*
X35750Y-70500D02*
X32000Y-70500D01*
X27000Y-67000D02*
X24250Y-64250D01*
X24250Y-64250D02*
X20000Y-64250D01*
X20000Y-64250D02*
X19250Y-65000D01*
X19250Y-65000D02*
X19250Y-66000D01*
X52000Y-70500D02*
X53500Y-72000D01*
X43500Y-69500D02*
X51000Y-69500D01*
X41000Y-66750D02*
X43500Y-69500D01*
X29000Y-61250D02*
X38500Y-61250D01*
X28000Y-62250D02*
X29000Y-61250D01*
X24000Y-62250D02*
X28000Y-62250D01*
G54D39*
X66000Y-10500D02*
X64500Y-10500D01*
X64500Y-10500D02*
X62750Y-08750D01*
X59500Y-07000D02*
X59500Y-06250D01*
X60750Y-08250D02*
X59500Y-07000D01*
X39250Y-08250D02*
X38000Y-07000D01*
X38000Y-07000D02*
X38000Y-06250D01*
X43000Y-10500D02*
X41250Y-08750D01*
X44500Y-10500D02*
X43000Y-10500D01*
G54D40*
X27632Y-63179D02*
X27821Y-63179D01*
X27632Y-63179D02*
X24350Y-63200D01*
X38250Y-62000D02*
X29000Y-62000D01*
X44000Y-69000D02*
X39500Y-64500D01*
X52000Y-69000D02*
X44000Y-69000D01*
X52500Y-69500D02*
X52000Y-69000D01*
X52750Y-69500D02*
X52500Y-69500D01*
X55750Y-69500D02*
X52750Y-69500D01*
X56500Y-70250D02*
X55750Y-69500D01*
X27821Y-63179D02*
X29000Y-62000D01*
G54D39*
X23500Y-10500D02*
X22000Y-10500D01*
X22000Y-10500D02*
X20250Y-08750D01*
X17000Y-07000D02*
X17000Y-06250D01*
X18250Y-08250D02*
X17000Y-07000D01*
G54D40*
X20250Y-48500D02*
X20250Y-45500D01*
G54D39*
X57500Y-12250D02*
X57500Y-11000D01*
X56750Y-10250D02*
X56750Y-07750D01*
X57500Y-11000D02*
X56750Y-10250D01*
X36000Y-11000D02*
X35250Y-10250D01*
X35250Y-10250D02*
X35250Y-07750D01*
X36000Y-12250D02*
X36000Y-11000D01*
X15000Y-12250D02*
X15000Y-11000D01*
X14250Y-10250D02*
X14250Y-07750D01*
X15000Y-11000D02*
X14250Y-10250D01*
G54D40*
X21750Y-34000D02*
X21750Y-31000D01*
X28750Y-34000D02*
X28750Y-31000D01*
X27750Y-34000D02*
X27750Y-31000D01*
X26750Y-34000D02*
X26750Y-31000D01*
X25750Y-34000D02*
X25750Y-31000D01*
X24750Y-34000D02*
X24750Y-31000D01*
X23750Y-34000D02*
X23750Y-31000D01*
X22750Y-34000D02*
X22750Y-31000D01*
X20750Y-34000D02*
X20750Y-31000D01*
X19750Y-34000D02*
X19750Y-31000D01*
X18750Y-34000D02*
X18750Y-31000D01*
X17750Y-31000D02*
X17750Y-34000D01*
X16750Y-34000D02*
X16750Y-31000D01*
X15750Y-31000D02*
X15750Y-34000D01*
X14750Y-34000D02*
X14750Y-31000D01*
X29750Y-34000D02*
X29750Y-31000D01*
G54D10*
G36*
X67925Y-67450D02*
X64800Y-67450D01*
X64800Y-66629D01*
X65120Y-66629D01*
X65120Y-63490D01*
X64800Y-63490D01*
X64800Y-62800D01*
X67925Y-62800D01*
X67925Y-67450D01*
X67925Y-67450D01*
G37*
G54D41*
X67925Y-67450D02*
X64800Y-67450D01*
X64800Y-66629D01*
X65120Y-66629D01*
X65120Y-63490D01*
X64800Y-63490D01*
X64800Y-62800D01*
X67925Y-62800D01*
X67925Y-67450D01*
G54D10*
G36*
X36700Y-52979D02*
X36479Y-53200D01*
X34771Y-53200D01*
X34550Y-52979D01*
X34550Y-50021D01*
X34771Y-49800D01*
X36479Y-49800D01*
X36700Y-50021D01*
X36700Y-52979D01*
X36700Y-52979D01*
G37*
G54D41*
X36700Y-52979D02*
X36479Y-53200D01*
X34771Y-53200D01*
X34550Y-52979D01*
X34550Y-50021D01*
X34771Y-49800D01*
X36479Y-49800D01*
X36700Y-50021D01*
X36700Y-52979D01*
G54D10*
G36*
X25700Y-22200D02*
X11800Y-22200D01*
X11800Y-18550D01*
X13700Y-18550D01*
X13700Y-20800D01*
X16300Y-20800D01*
X16300Y-18550D01*
X18450Y-18550D01*
X18450Y-20800D01*
X20520Y-20800D01*
X24050Y-17522D01*
X24050Y-10674D01*
X24075Y-10615D01*
X24075Y-10386D01*
X24050Y-10325D01*
X24050Y-09450D01*
X21800Y-09450D01*
X21800Y-07800D01*
X25700Y-07800D01*
X25700Y-22200D01*
X25700Y-22200D01*
G37*
G54D41*
X25700Y-22200D02*
X11800Y-22200D01*
X11800Y-18550D01*
X13700Y-18550D01*
X13700Y-20800D01*
X16300Y-20800D01*
X16300Y-18550D01*
X18450Y-18550D01*
X18450Y-20800D01*
X20520Y-20800D01*
X24050Y-17522D01*
X24050Y-10674D01*
X24075Y-10615D01*
X24075Y-10386D01*
X24050Y-10325D01*
X24050Y-09450D01*
X21800Y-09450D01*
X21800Y-07800D01*
X25700Y-07800D01*
X25700Y-22200D01*
G54D10*
G36*
X62950Y-76675D02*
X62358Y-76675D01*
X62358Y-72536D01*
X62358Y-72286D01*
X62358Y-71466D01*
X62263Y-71235D01*
X62086Y-71058D01*
X61856Y-70962D01*
X61606Y-70962D01*
X61375Y-71057D01*
X61198Y-71234D01*
X61102Y-71464D01*
X61102Y-71714D01*
X61102Y-72534D01*
X61197Y-72765D01*
X61374Y-72942D01*
X61604Y-73038D01*
X61854Y-73038D01*
X62085Y-72943D01*
X62262Y-72766D01*
X62358Y-72536D01*
X62358Y-76675D01*
X08575Y-76675D01*
X08575Y-38300D01*
X11700Y-38300D01*
X11700Y-39200D01*
X09700Y-39200D01*
X09700Y-53050D01*
X11200Y-53050D01*
X11200Y-53950D01*
X09700Y-53950D01*
X09700Y-63050D01*
X11200Y-63050D01*
X11200Y-63950D01*
X09700Y-63950D01*
X09700Y-70575D01*
X09267Y-71008D01*
X09000Y-71651D01*
X09000Y-72347D01*
X09266Y-72990D01*
X09758Y-73483D01*
X10401Y-73750D01*
X11097Y-73750D01*
X11740Y-73484D01*
X12174Y-73050D01*
X20028Y-73050D01*
X20642Y-72026D01*
X20642Y-72534D01*
X20737Y-72765D01*
X20914Y-72942D01*
X21144Y-73038D01*
X21394Y-73038D01*
X21625Y-72943D01*
X21802Y-72766D01*
X21898Y-72536D01*
X21898Y-72286D01*
X21898Y-71800D01*
X21972Y-71800D01*
X22722Y-73050D01*
X25742Y-73050D01*
X25846Y-73120D01*
X25847Y-73120D01*
X26000Y-73150D01*
X27000Y-73150D01*
X27153Y-73120D01*
X27257Y-73050D01*
X32528Y-73050D01*
X33278Y-71800D01*
X34472Y-71800D01*
X35222Y-73050D01*
X37734Y-73050D01*
X38212Y-73528D01*
X38217Y-73533D01*
X38317Y-73600D01*
X38341Y-73617D01*
X38346Y-73620D01*
X38431Y-73636D01*
X38493Y-73650D01*
X38500Y-73650D01*
X39868Y-73674D01*
X39899Y-73668D01*
X39949Y-73669D01*
X39988Y-73652D01*
X40021Y-73647D01*
X40053Y-73626D01*
X40093Y-73610D01*
X40502Y-73343D01*
X42259Y-73300D01*
X42270Y-73297D01*
X42286Y-73299D01*
X42352Y-73279D01*
X42411Y-73266D01*
X42422Y-73258D01*
X42436Y-73254D01*
X42488Y-73211D01*
X42539Y-73176D01*
X42546Y-73164D01*
X42557Y-73156D01*
X42645Y-73050D01*
X45036Y-73050D01*
X45536Y-71550D01*
X46964Y-71550D01*
X47464Y-73050D01*
X58550Y-73050D01*
X58550Y-68200D01*
X54050Y-68200D01*
X54050Y-66000D01*
X54950Y-66000D01*
X54950Y-66050D01*
X56550Y-66050D01*
X56550Y-64550D01*
X57950Y-64550D01*
X57950Y-66050D01*
X62950Y-66050D01*
X62950Y-76675D01*
X62950Y-76675D01*
G37*
G54D41*
X62950Y-76675D02*
X62358Y-76675D01*
X62358Y-72536D01*
X62358Y-72286D01*
X62358Y-71466D01*
X62263Y-71235D01*
X62086Y-71058D01*
X61856Y-70962D01*
X61606Y-70962D01*
X61375Y-71057D01*
X61198Y-71234D01*
X61102Y-71464D01*
X61102Y-71714D01*
X61102Y-72534D01*
X61197Y-72765D01*
X61374Y-72942D01*
X61604Y-73038D01*
X61854Y-73038D01*
X62085Y-72943D01*
X62262Y-72766D01*
X62358Y-72536D01*
X62358Y-76675D01*
X08575Y-76675D01*
X08575Y-38300D01*
X11700Y-38300D01*
X11700Y-39200D01*
X09700Y-39200D01*
X09700Y-53050D01*
X11200Y-53050D01*
X11200Y-53950D01*
X09700Y-53950D01*
X09700Y-63050D01*
X11200Y-63050D01*
X11200Y-63950D01*
X09700Y-63950D01*
X09700Y-70575D01*
X09267Y-71008D01*
X09000Y-71651D01*
X09000Y-72347D01*
X09266Y-72990D01*
X09758Y-73483D01*
X10401Y-73750D01*
X11097Y-73750D01*
X11740Y-73484D01*
X12174Y-73050D01*
X20028Y-73050D01*
X20642Y-72026D01*
X20642Y-72534D01*
X20737Y-72765D01*
X20914Y-72942D01*
X21144Y-73038D01*
X21394Y-73038D01*
X21625Y-72943D01*
X21802Y-72766D01*
X21898Y-72536D01*
X21898Y-72286D01*
X21898Y-71800D01*
X21972Y-71800D01*
X22722Y-73050D01*
X25742Y-73050D01*
X25846Y-73120D01*
X25847Y-73120D01*
X26000Y-73150D01*
X27000Y-73150D01*
X27153Y-73120D01*
X27257Y-73050D01*
X32528Y-73050D01*
X33278Y-71800D01*
X34472Y-71800D01*
X35222Y-73050D01*
X37734Y-73050D01*
X38212Y-73528D01*
X38217Y-73533D01*
X38317Y-73600D01*
X38341Y-73617D01*
X38346Y-73620D01*
X38431Y-73636D01*
X38493Y-73650D01*
X38500Y-73650D01*
X39868Y-73674D01*
X39899Y-73668D01*
X39949Y-73669D01*
X39988Y-73652D01*
X40021Y-73647D01*
X40053Y-73626D01*
X40093Y-73610D01*
X40502Y-73343D01*
X42259Y-73300D01*
X42270Y-73297D01*
X42286Y-73299D01*
X42352Y-73279D01*
X42411Y-73266D01*
X42422Y-73258D01*
X42436Y-73254D01*
X42488Y-73211D01*
X42539Y-73176D01*
X42546Y-73164D01*
X42557Y-73156D01*
X42645Y-73050D01*
X45036Y-73050D01*
X45536Y-71550D01*
X46964Y-71550D01*
X47464Y-73050D01*
X58550Y-73050D01*
X58550Y-68200D01*
X54050Y-68200D01*
X54050Y-66000D01*
X54950Y-66000D01*
X54950Y-66050D01*
X56550Y-66050D01*
X56550Y-64550D01*
X57950Y-64550D01*
X57950Y-66050D01*
X62950Y-66050D01*
X62950Y-76675D01*
G54D10*
G36*
X46700Y-22200D02*
X32800Y-22200D01*
X32800Y-18550D01*
X34700Y-18550D01*
X34700Y-20800D01*
X37300Y-20800D01*
X37300Y-18550D01*
X39450Y-18550D01*
X39450Y-20800D01*
X41520Y-20800D01*
X45050Y-17522D01*
X45050Y-10674D01*
X45075Y-10615D01*
X45075Y-10386D01*
X45050Y-10325D01*
X45050Y-09450D01*
X42800Y-09450D01*
X42800Y-07800D01*
X46700Y-07800D01*
X46700Y-22200D01*
X46700Y-22200D01*
G37*
G54D41*
X46700Y-22200D02*
X32800Y-22200D01*
X32800Y-18550D01*
X34700Y-18550D01*
X34700Y-20800D01*
X37300Y-20800D01*
X37300Y-18550D01*
X39450Y-18550D01*
X39450Y-20800D01*
X41520Y-20800D01*
X45050Y-17522D01*
X45050Y-10674D01*
X45075Y-10615D01*
X45075Y-10386D01*
X45050Y-10325D01*
X45050Y-09450D01*
X42800Y-09450D01*
X42800Y-07800D01*
X46700Y-07800D01*
X46700Y-22200D01*
G54D10*
G36*
X68200Y-22200D02*
X54300Y-22200D01*
X54300Y-18550D01*
X56200Y-18550D01*
X56200Y-20800D01*
X58800Y-20800D01*
X58800Y-18550D01*
X60950Y-18550D01*
X60950Y-20800D01*
X63020Y-20800D01*
X66550Y-17522D01*
X66550Y-10674D01*
X66575Y-10615D01*
X66575Y-10386D01*
X66550Y-10325D01*
X66550Y-09450D01*
X64300Y-09450D01*
X64300Y-07800D01*
X68200Y-07800D01*
X68200Y-22200D01*
X68200Y-22200D01*
G37*
G54D41*
X68200Y-22200D02*
X54300Y-22200D01*
X54300Y-18550D01*
X56200Y-18550D01*
X56200Y-20800D01*
X58800Y-20800D01*
X58800Y-18550D01*
X60950Y-18550D01*
X60950Y-20800D01*
X63020Y-20800D01*
X66550Y-17522D01*
X66550Y-10674D01*
X66575Y-10615D01*
X66575Y-10386D01*
X66550Y-10325D01*
X66550Y-09450D01*
X64300Y-09450D01*
X64300Y-07800D01*
X68200Y-07800D01*
X68200Y-22200D01*
M02*
