M48
;DRILL file {PCBnew (2011-05-25)-stable} date Mon 18 Jun 2012 11:26:14 PM MDT
;FORMAT={-:-/ absolute / inch / decimal}
FMAT,2
INCH,TZ
T1C0.025
T2C0.032
T3C0.040
T4C0.045
T5C0.047
T6C0.050
T7C0.052
T8C0.200
%
G90
G05
M72
T1
X1.175Y-5.325
X1.175Y-6.350
X1.425Y-0.775
X1.425Y-6.875
X1.600Y-6.900
X1.725Y-1.050
X1.750Y-6.825
X1.825Y-0.825
X1.875Y-6.950
X2.000Y-7.075
X2.025Y-0.875
X2.125Y-0.800
X2.125Y-1.150
X2.175Y-4.000
X2.175Y-4.500
X2.350Y-4.525
X2.400Y-6.225
X2.435Y-6.320
X2.475Y-6.725
X2.500Y-4.525
X2.700Y-6.700
X2.775Y-5.450
X2.775Y-7.025
X2.800Y-6.700
X3.000Y-5.850
X3.025Y-4.600
X3.200Y-7.050
X3.225Y-5.400
X3.325Y-5.250
X3.325Y-6.725
X3.375Y-5.275
X3.375Y-5.500
X3.500Y-5.625
X3.525Y-0.775
X3.675Y-3.300
X3.700Y-4.850
X3.700Y-5.700
X3.725Y-5.150
X3.825Y-1.050
X3.825Y-5.125
X3.825Y-5.300
X3.825Y-5.650
X3.825Y-6.200
X3.850Y-6.125
X3.875Y-4.850
X3.900Y-5.600
X3.925Y-0.825
X3.925Y-3.600
X3.925Y-3.775
X3.925Y-4.700
X3.925Y-5.100
X3.950Y-6.450
X4.100Y-6.675
X4.125Y-0.875
X4.225Y-0.800
X4.225Y-1.150
X4.225Y-5.025
X4.225Y-5.325
X4.300Y-2.625
X4.625Y-3.150
X4.675Y-4.750
X4.675Y-4.900
X4.700Y-6.425
X4.775Y-4.075
X4.800Y-3.375
X4.875Y-3.400
X4.875Y-6.250
X4.900Y-5.275
X4.950Y-3.150
X5.025Y-5.150
X5.100Y-6.950
X5.125Y-4.150
X5.145Y-4.240
X5.200Y-7.050
X5.225Y-3.150
X5.225Y-4.400
X5.250Y-6.500
X5.275Y-4.525
X5.275Y-6.170
X5.475Y-4.100
X5.500Y-4.550
X5.600Y-4.450
X5.650Y-7.025
X5.675Y-0.775
X5.750Y-3.500
X5.750Y-4.105
X5.875Y-4.775
X5.900Y-3.500
X5.975Y-1.050
X6.000Y-2.700
X6.075Y-0.825
X6.125Y-2.825
X6.200Y-6.275
X6.275Y-0.875
X6.375Y-0.800
X6.375Y-1.150
T2
X0.900Y-1.250
X0.900Y-1.550
X1.025Y-0.950
X1.025Y-1.250
X1.025Y-1.350
X1.025Y-1.650
X1.175Y-1.350
X1.175Y-1.650
X1.325Y-4.850
X1.325Y-5.150
X1.325Y-5.300
X1.325Y-5.600
X1.325Y-5.750
X1.325Y-6.050
X1.325Y-6.300
X1.325Y-6.600
X1.375Y-0.825
X1.375Y-1.150
X1.375Y-1.250
X1.375Y-3.850
X1.375Y-4.150
X1.425Y-4.850
X1.425Y-5.150
X1.425Y-5.300
X1.425Y-5.600
X1.425Y-5.750
X1.425Y-6.050
X1.425Y-6.300
X1.425Y-6.600
X1.475Y-0.825
X1.475Y-3.400
X1.475Y-3.700
X1.475Y-3.850
X1.475Y-4.150
X1.500Y-0.925
X1.500Y-1.225
X1.525Y-4.850
X1.525Y-5.150
X1.525Y-5.300
X1.525Y-5.600
X1.525Y-5.750
X1.525Y-6.050
X1.525Y-6.300
X1.525Y-6.600
X1.575Y-3.400
X1.575Y-3.700
X1.575Y-3.850
X1.575Y-4.150
X1.600Y-0.800
X1.600Y-1.100
X1.625Y-4.850
X1.625Y-5.150
X1.625Y-5.300
X1.625Y-5.600
X1.625Y-5.750
X1.625Y-6.050
X1.625Y-6.300
X1.625Y-6.600
X1.675Y-1.250
X1.675Y-1.550
X1.675Y-3.400
X1.675Y-3.700
X1.675Y-3.850
X1.675Y-4.150
X1.725Y-4.850
X1.725Y-5.150
X1.725Y-5.300
X1.725Y-5.600
X1.725Y-5.750
X1.725Y-6.050
X1.725Y-6.300
X1.725Y-6.600
X1.775Y-3.400
X1.775Y-3.700
X1.775Y-3.850
X1.775Y-4.150
X1.800Y-0.950
X1.800Y-1.250
X1.800Y-1.350
X1.800Y-1.650
X1.825Y-4.850
X1.825Y-5.150
X1.825Y-5.300
X1.825Y-5.600
X1.825Y-5.750
X1.825Y-6.050
X1.825Y-6.300
X1.825Y-6.600
X1.875Y-3.400
X1.875Y-3.700
X1.875Y-3.850
X1.875Y-4.150
X1.925Y-4.850
X1.925Y-5.150
X1.925Y-5.300
X1.925Y-5.600
X1.925Y-5.750
X1.925Y-6.050
X1.925Y-6.300
X1.925Y-6.600
X1.950Y-1.350
X1.950Y-1.650
X1.975Y-3.400
X1.975Y-3.700
X1.975Y-3.850
X1.975Y-4.150
X2.025Y-4.850
X2.025Y-5.150
X2.025Y-5.300
X2.025Y-5.600
X2.025Y-5.750
X2.025Y-6.050
X2.025Y-6.300
X2.025Y-6.600
X2.050Y-1.050
X2.075Y-1.200
X2.075Y-1.300
X2.075Y-3.400
X2.075Y-3.700
X2.075Y-3.850
X2.075Y-4.150
X2.125Y-5.300
X2.125Y-5.600
X2.125Y-5.750
X2.125Y-6.050
X2.125Y-6.300
X2.125Y-6.600
X2.175Y-3.400
X2.175Y-3.700
X2.175Y-3.850
X2.175Y-4.150
X2.225Y-5.750
X2.225Y-6.050
X2.275Y-3.400
X2.275Y-3.700
X2.325Y-5.300
X2.325Y-5.600
X2.325Y-5.750
X2.325Y-6.050
X2.350Y-1.050
X2.375Y-3.400
X2.375Y-3.700
X2.375Y-3.850
X2.375Y-4.150
X2.425Y-5.750
X2.425Y-6.050
X2.475Y-3.400
X2.475Y-3.700
X2.475Y-3.850
X2.475Y-4.150
X2.525Y-5.300
X2.525Y-5.600
X2.525Y-5.750
X2.525Y-6.050
X2.575Y-3.400
X2.575Y-3.700
X2.575Y-3.850
X2.575Y-4.150
X2.625Y-5.750
X2.625Y-6.050
X2.675Y-3.400
X2.675Y-3.700
X2.675Y-3.850
X2.675Y-4.150
X2.775Y-3.400
X2.775Y-3.700
X2.775Y-3.850
X2.775Y-4.150
X2.875Y-3.400
X2.875Y-3.700
X2.875Y-3.850
X2.875Y-4.150
X2.925Y-4.400
X2.925Y-4.500
X2.925Y-4.600
X2.925Y-4.700
X2.925Y-4.800
X2.925Y-4.900
X2.925Y-5.000
X2.925Y-5.100
X2.925Y-5.200
X2.925Y-5.300
X2.925Y-5.400
X2.925Y-5.500
X2.925Y-5.600
X2.925Y-5.700
X2.975Y-3.400
X2.975Y-3.700
X2.975Y-3.850
X2.975Y-4.150
X2.975Y-6.000
X2.975Y-6.300
X2.975Y-6.450
X3.000Y-1.250
X3.000Y-1.550
X3.075Y-3.850
X3.075Y-4.150
X3.075Y-6.000
X3.075Y-6.300
X3.075Y-6.450
X3.125Y-0.950
X3.125Y-1.250
X3.125Y-1.350
X3.125Y-1.650
X3.175Y-3.850
X3.175Y-4.150
X3.175Y-6.000
X3.175Y-6.300
X3.175Y-6.450
X3.225Y-4.400
X3.225Y-4.500
X3.225Y-4.600
X3.225Y-4.700
X3.225Y-4.800
X3.225Y-4.900
X3.225Y-5.000
X3.225Y-5.100
X3.225Y-5.200
X3.225Y-5.300
X3.225Y-5.400
X3.225Y-5.500
X3.225Y-5.600
X3.225Y-5.700
X3.275Y-1.350
X3.275Y-1.650
X3.275Y-6.000
X3.275Y-6.300
X3.275Y-6.450
X3.375Y-5.400
X3.375Y-5.600
X3.375Y-6.000
X3.375Y-6.300
X3.375Y-6.450
X3.475Y-0.825
X3.475Y-1.150
X3.475Y-1.250
X3.475Y-6.000
X3.475Y-6.300
X3.475Y-6.450
X3.525Y-2.825
X3.525Y-3.025
X3.575Y-0.825
X3.575Y-6.000
X3.575Y-6.300
X3.575Y-6.450
X3.600Y-0.925
X3.600Y-1.225
X3.675Y-5.400
X3.675Y-5.600
X3.675Y-6.000
X3.675Y-6.300
X3.675Y-6.450
X3.700Y-0.800
X3.700Y-1.100
X3.775Y-1.250
X3.775Y-1.550
X3.775Y-6.000
X3.775Y-6.300
X3.775Y-6.450
X3.900Y-0.950
X3.900Y-1.250
X3.900Y-1.350
X3.900Y-1.650
X4.050Y-1.350
X4.050Y-1.650
X4.150Y-1.050
X4.175Y-1.200
X4.175Y-1.300
X4.225Y-5.600
X4.375Y-6.250
X4.375Y-6.350
X4.425Y-5.600
X4.425Y-6.550
X4.425Y-6.650
X4.450Y-1.050
X4.475Y-6.350
X4.700Y-3.900
X4.700Y-4.000
X4.725Y-6.550
X4.725Y-6.650
X4.875Y-6.450
X4.900Y-3.900
X4.900Y-4.000
X4.975Y-6.450
X4.985Y-5.760
X5.025Y-5.500
X5.050Y-2.600
X5.050Y-3.400
X5.050Y-3.500
X5.050Y-3.600
X5.050Y-3.700
X5.050Y-3.800
X5.050Y-3.900
X5.050Y-4.000
X5.050Y-4.100
X5.050Y-4.200
X5.050Y-4.300
X5.050Y-4.400
X5.050Y-4.500
X5.050Y-4.600
X5.050Y-4.700
X5.125Y-6.000
X5.125Y-6.100
X5.150Y-1.250
X5.150Y-1.550
X5.185Y-5.760
X5.225Y-5.300
X5.275Y-0.950
X5.275Y-1.250
X5.275Y-1.350
X5.275Y-1.650
X5.275Y-6.350
X5.350Y-2.600
X5.350Y-3.400
X5.350Y-3.500
X5.350Y-3.600
X5.350Y-3.700
X5.350Y-3.800
X5.350Y-3.900
X5.350Y-4.000
X5.350Y-4.100
X5.350Y-4.200
X5.350Y-4.300
X5.350Y-4.400
X5.350Y-4.500
X5.350Y-4.600
X5.350Y-4.700
X5.425Y-1.350
X5.425Y-1.650
X5.425Y-5.950
X5.425Y-6.150
X5.475Y-6.350
X5.485Y-5.700
X5.525Y-3.750
X5.525Y-3.950
X5.625Y-0.825
X5.625Y-1.150
X5.625Y-1.250
X5.700Y-3.700
X5.700Y-3.800
X5.700Y-3.900
X5.700Y-4.000
X5.725Y-0.825
X5.725Y-2.625
X5.725Y-6.200
X5.725Y-6.500
X5.750Y-0.925
X5.750Y-1.225
X5.785Y-5.700
X5.850Y-0.800
X5.850Y-1.100
X5.850Y-4.175
X5.925Y-1.250
X5.925Y-1.550
X5.950Y-3.625
X5.950Y-4.175
X5.950Y-4.275
X5.975Y-5.530
X6.025Y-2.625
X6.050Y-0.950
X6.050Y-1.250
X6.050Y-1.350
X6.050Y-1.650
X6.050Y-3.625
X6.050Y-3.725
X6.075Y-3.150
X6.075Y-3.325
X6.125Y-3.825
X6.125Y-4.125
X6.125Y-4.300
X6.125Y-4.600
X6.175Y-5.330
X6.200Y-1.350
X6.200Y-1.650
X6.250Y-3.725
X6.250Y-3.825
X6.250Y-4.150
X6.250Y-4.250
X6.275Y-6.500
X6.300Y-1.050
X6.300Y-4.500
X6.300Y-4.700
X6.325Y-1.200
X6.325Y-1.300
X6.375Y-3.150
X6.375Y-3.325
X6.400Y-4.700
X6.400Y-4.900
X6.425Y-5.400
X6.425Y-5.700
X6.525Y-3.150
X6.525Y-3.575
X6.575Y-6.500
X6.600Y-1.050
X6.625Y-3.150
X6.625Y-3.575
X6.625Y-5.400
X6.625Y-5.700
X6.700Y-4.700
X6.700Y-4.900
T3
X1.075Y-5.350
X1.075Y-5.450
X1.075Y-5.550
X1.075Y-6.350
X1.075Y-6.450
X1.075Y-6.550
X1.125Y-3.900
X1.125Y-4.000
X1.125Y-4.100
X1.125Y-4.550
X1.225Y-4.550
X1.275Y-3.100
X1.300Y-0.625
X1.325Y-4.550
X1.375Y-3.100
X1.400Y-0.625
X1.400Y-7.200
X1.425Y-4.550
X1.475Y-3.100
X1.500Y-0.625
X1.500Y-7.200
X1.525Y-4.550
X1.575Y-3.100
X1.600Y-0.625
X1.600Y-7.200
X1.625Y-4.550
X1.675Y-3.100
X1.700Y-0.625
X1.700Y-7.200
X1.725Y-4.550
X1.775Y-3.100
X1.800Y-0.625
X1.800Y-7.200
X1.825Y-4.550
X1.875Y-3.100
X1.900Y-7.200
X1.925Y-4.550
X1.975Y-3.100
X2.025Y-4.550
X2.075Y-3.100
X2.175Y-3.100
X2.275Y-3.100
X2.375Y-3.100
X2.475Y-3.100
X2.575Y-3.100
X2.650Y-7.200
X2.675Y-3.100
X2.750Y-7.200
X2.775Y-3.100
X2.850Y-7.200
X2.875Y-3.100
X2.950Y-7.200
X2.975Y-3.100
X2.975Y-6.600
X3.050Y-7.200
X3.075Y-3.100
X3.075Y-6.600
X3.150Y-7.200
X3.175Y-3.100
X3.175Y-6.600
X3.275Y-6.600
X3.375Y-6.600
X3.400Y-0.625
X3.425Y-3.900
X3.425Y-4.000
X3.425Y-4.100
X3.475Y-6.600
X3.500Y-0.625
X3.575Y-6.600
X3.600Y-0.625
X3.675Y-6.600
X3.700Y-0.625
X3.800Y-0.625
X3.900Y-0.625
X3.900Y-7.200
X4.000Y-7.200
X4.100Y-7.200
X4.200Y-7.200
X4.225Y-5.900
X4.300Y-7.200
X4.400Y-7.200
X4.425Y-5.900
X4.500Y-3.375
X4.500Y-3.525
X4.500Y-3.675
X4.600Y-3.375
X4.600Y-3.525
X4.600Y-3.675
X4.675Y-4.400
X4.675Y-5.200
X4.675Y-5.400
X4.700Y-3.375
X4.700Y-3.525
X4.700Y-3.675
X4.775Y-4.400
X4.875Y-2.775
X4.875Y-2.875
X4.875Y-4.400
X4.975Y-2.775
X4.975Y-2.875
X5.075Y-2.775
X5.075Y-2.875
X5.175Y-6.750
X5.250Y-7.200
X5.325Y-2.775
X5.325Y-2.875
X5.350Y-7.200
X5.450Y-7.200
X5.550Y-0.625
X5.550Y-2.775
X5.550Y-2.875
X5.550Y-7.200
X5.575Y-6.750
X5.625Y-5.200
X5.625Y-5.400
X5.650Y-0.625
X5.650Y-7.200
X5.750Y-0.625
X5.750Y-7.200
X5.850Y-0.625
X5.875Y-2.775
X5.875Y-2.875
X5.875Y-2.975
X5.950Y-0.625
X6.050Y-0.625
X6.275Y-5.850
X6.625Y-4.050
X6.625Y-4.150
X6.625Y-4.250
X6.625Y-4.350
X6.625Y-4.450
X6.625Y-4.550
X6.675Y-5.850
T4
X4.675Y-5.800
X4.675Y-6.300
T5
X5.875Y-5.862
X5.875Y-6.000
X5.875Y-6.138
X5.994Y-5.929
X5.994Y-6.071
T6
X2.225Y-2.700
X3.625Y-2.700
X5.855Y-6.660
X6.555Y-6.660
T7
X1.276Y-1.950
X1.473Y-1.950
X1.751Y-1.950
X1.948Y-1.950
X2.127Y-7.200
X2.275Y-0.677
X2.275Y-0.874
X2.324Y-7.200
X3.376Y-1.950
X3.376Y-7.200
X3.573Y-1.950
X3.573Y-7.200
X3.851Y-1.950
X4.048Y-1.950
X4.375Y-0.677
X4.375Y-0.874
X4.626Y-7.200
X4.823Y-7.200
X5.526Y-1.950
X5.723Y-1.950
X5.976Y-7.200
X6.001Y-1.950
X6.173Y-7.200
X6.198Y-1.950
X6.525Y-0.677
X6.525Y-0.874
X6.575Y-6.152
X6.575Y-6.349
T8
X1.000Y-0.675
X1.000Y-2.025
X1.075Y-2.700
X1.075Y-7.200
X2.400Y-2.025
X3.100Y-0.675
X3.100Y-2.025
X4.500Y-2.025
X5.250Y-0.675
X5.250Y-2.025
X6.575Y-2.700
X6.575Y-7.200
X6.650Y-2.025
T0
M30
