M48
;DRILL file {PCBnew (2011-05-25)-stable} date Sun 12 Aug 2012 12:56:55 AM MDT
;FORMAT={-:-/ absolute / inch / decimal}
FMAT,2
INCH,TZ
T1C0.025
T2C0.032
T3C0.040
T4C0.045
T5C0.047
T6C0.050
T7C0.052
T8C0.060
T9C0.200
%
G90
G05
M72
T1
X1.010Y-3.230
X1.060Y-3.310
X1.120Y-1.555
X1.160Y-3.410
X1.170Y-3.640
X1.170Y-3.930
X1.180Y-3.320
X1.220Y-3.260
X1.245Y-1.430
X1.270Y-4.100
X1.360Y-3.390
X1.460Y-2.910
X1.570Y-3.870
X1.570Y-6.470
X1.680Y-4.100
X1.795Y-2.755
X1.820Y-2.680
X1.900Y-3.130
X1.920Y-1.655
X1.920Y-1.805
X1.940Y-3.430
X2.195Y-3.630
X2.236Y-2.870
X2.420Y-5.380
X2.495Y-2.780
X2.520Y-2.080
X2.525Y-1.805
X2.570Y-2.430
X2.660Y-2.410
X2.820Y-2.330
X2.870Y-1.955
X2.920Y-5.380
X2.945Y-2.280
X2.945Y-5.055
X2.945Y-5.205
X2.970Y-2.055
X3.020Y-4.530
X3.120Y-3.630
X3.170Y-2.880
X3.195Y-1.680
X3.270Y-3.680
X3.270Y-3.855
X3.445Y-3.330
X3.520Y-3.630
X3.545Y-3.730
X3.570Y-2.530
X3.570Y-3.830
X3.620Y-3.180
X3.670Y-4.230
X3.695Y-2.655
X3.695Y-4.180
X3.720Y-3.730
X3.745Y-3.330
X3.745Y-6.380
X3.820Y-4.330
X3.870Y-3.330
X3.870Y-4.780
X3.920Y-4.180
X4.020Y-3.655
X4.045Y-4.055
X4.070Y-3.730
X4.120Y-3.855
X4.270Y-4.555
X4.545Y-3.705
X4.590Y-2.280
X4.620Y-3.730
X4.645Y-5.155
X4.670Y-2.680
X4.695Y-1.355
X4.740Y-5.145
X4.770Y-6.380
X4.845Y-2.855
X4.870Y-3.605
X4.920Y-2.305
X5.095Y-3.455
X5.120Y-4.755
X5.120Y-4.855
X5.145Y-4.230
X5.145Y-5.080
X5.245Y-5.805
X5.295Y-6.130
X5.320Y-5.955
X5.370Y-2.455
X5.370Y-5.680
X5.445Y-1.905
X5.445Y-4.780
X5.470Y-2.355
X5.470Y-4.355
X5.495Y-5.555
X6.465Y-3.985
X6.465Y-6.090
X6.470Y-1.970
X6.490Y-3.285
X6.490Y-5.390
X6.495Y-1.270
X6.515Y-3.585
X6.515Y-5.690
X6.520Y-1.570
X6.565Y-3.385
X6.565Y-5.490
X6.570Y-1.370
X6.740Y-3.685
X6.740Y-5.790
X6.745Y-1.670
X6.840Y-3.285
X6.840Y-5.390
X6.845Y-1.270
X8.180Y-1.231
X8.185Y-2.251
X8.280Y-1.021
X8.285Y-2.041
X8.310Y-1.271
X8.315Y-2.291
X8.330Y-1.451
X8.335Y-2.471
X8.345Y-3.985
X8.345Y-6.090
X8.370Y-3.285
X8.370Y-5.390
X8.390Y-1.531
X8.395Y-2.551
X8.395Y-3.585
X8.395Y-5.690
X8.400Y-1.321
X8.405Y-2.341
X8.430Y-1.021
X8.435Y-2.041
X8.445Y-3.385
X8.445Y-5.490
X8.450Y-1.081
X8.455Y-2.101
X8.470Y-1.491
X8.475Y-2.511
X8.510Y-1.201
X8.515Y-2.221
X8.570Y-1.011
X8.575Y-2.031
X8.590Y-1.091
X8.595Y-2.111
X8.610Y-1.211
X8.615Y-2.231
X8.620Y-3.685
X8.620Y-5.790
X8.630Y-1.431
X8.635Y-2.451
X8.710Y-1.131
X8.715Y-2.151
X8.720Y-1.181
X8.720Y-3.285
X8.720Y-5.390
X8.725Y-2.201
X8.750Y-1.491
X8.755Y-2.511
X8.820Y-1.181
X8.825Y-2.201
X8.830Y-1.461
X8.835Y-2.481
X8.860Y-1.021
X8.860Y-1.421
X8.865Y-2.041
X8.865Y-2.441
X8.940Y-1.021
X8.945Y-2.041
X8.950Y-1.131
X8.955Y-2.151
X9.020Y-1.061
X9.025Y-2.081
X9.040Y-1.171
X9.045Y-2.191
X9.140Y-1.201
X9.145Y-2.221
X9.170Y-1.031
X9.175Y-2.051
X9.290Y-0.991
X9.290Y-1.051
X9.295Y-2.011
X9.295Y-2.071
X9.340Y-1.451
X9.345Y-2.471
X9.400Y-1.611
X9.405Y-2.631
X9.500Y-1.011
X9.500Y-1.341
X9.505Y-2.031
X9.505Y-2.361
X9.620Y-1.335
X9.620Y-1.435
X9.625Y-2.355
X9.625Y-2.455
X9.994Y-4.515
X9.994Y-6.310
X10.074Y-3.505
X10.074Y-5.300
X10.114Y-3.585
X10.114Y-3.865
X10.114Y-5.380
X10.114Y-5.660
X10.144Y-3.945
X10.144Y-5.740
X10.154Y-3.445
X10.154Y-4.455
X10.154Y-5.240
X10.154Y-6.250
X10.170Y-4.735
X10.170Y-6.530
X10.174Y-3.745
X10.174Y-5.540
X10.184Y-3.975
X10.184Y-5.770
X10.264Y-4.615
X10.264Y-6.410
X10.270Y-4.735
X10.270Y-6.530
X10.284Y-3.515
X10.284Y-5.310
X10.334Y-3.425
X10.334Y-5.220
X10.374Y-3.295
X10.374Y-5.090
X10.394Y-3.725
X10.394Y-5.520
X10.404Y-3.625
X10.404Y-4.255
X10.404Y-5.420
X10.404Y-6.050
X10.424Y-3.835
X10.424Y-3.935
X10.424Y-5.630
X10.424Y-5.730
X10.434Y-4.155
X10.434Y-5.950
X10.474Y-3.825
X10.474Y-4.065
X10.474Y-5.620
X10.474Y-5.860
X10.514Y-3.705
X10.514Y-5.500
X10.524Y-3.565
X10.524Y-5.360
X10.544Y-4.135
X10.544Y-5.930
X10.554Y-4.405
X10.554Y-6.200
X10.574Y-4.285
X10.574Y-6.080
X10.584Y-3.395
X10.584Y-3.545
X10.584Y-3.975
X10.584Y-4.055
X10.584Y-5.190
X10.584Y-5.340
X10.584Y-5.770
X10.584Y-5.850
X10.594Y-3.685
X10.594Y-4.615
X10.594Y-5.480
X10.594Y-6.410
X10.614Y-4.405
X10.614Y-6.200
T2
X0.970Y-3.330
X0.970Y-3.430
X0.970Y-3.530
X0.970Y-3.630
X0.970Y-3.730
X0.970Y-3.830
X0.970Y-3.930
X1.020Y-2.205
X1.020Y-2.505
X1.045Y-1.530
X1.045Y-1.830
X1.270Y-4.020
X1.470Y-4.020
X1.570Y-0.930
X1.570Y-1.030
X1.570Y-1.180
X1.570Y-1.480
X1.745Y-1.180
X1.745Y-1.480
X1.770Y-3.330
X1.770Y-3.430
X1.770Y-3.530
X1.770Y-3.630
X1.770Y-3.730
X1.770Y-3.830
X1.770Y-3.930
X1.820Y-2.205
X1.820Y-2.505
X1.820Y-4.580
X1.820Y-4.680
X1.820Y-4.780
X1.820Y-4.880
X1.820Y-4.980
X1.820Y-5.080
X1.820Y-5.180
X1.820Y-5.280
X1.820Y-5.380
X1.820Y-5.480
X1.820Y-5.580
X1.820Y-5.680
X1.820Y-5.780
X1.820Y-5.880
X1.820Y-5.980
X1.820Y-6.080
X1.920Y-2.205
X1.920Y-2.505
X1.995Y-0.930
X1.995Y-1.030
X2.020Y-2.205
X2.020Y-2.505
X2.045Y-1.505
X2.045Y-1.605
X2.120Y-1.855
X2.120Y-2.205
X2.120Y-2.505
X2.120Y-4.580
X2.120Y-4.680
X2.120Y-4.780
X2.120Y-4.880
X2.120Y-4.980
X2.120Y-5.080
X2.120Y-5.180
X2.120Y-5.280
X2.120Y-5.380
X2.120Y-5.480
X2.120Y-5.580
X2.120Y-5.680
X2.120Y-5.780
X2.120Y-5.880
X2.120Y-5.980
X2.120Y-6.080
X2.145Y-1.305
X2.145Y-1.505
X2.170Y-2.030
X2.220Y-1.855
X2.220Y-2.205
X2.220Y-2.505
X2.245Y-1.305
X2.245Y-1.430
X2.270Y-4.380
X2.270Y-4.480
X2.270Y-4.580
X2.270Y-4.680
X2.270Y-4.780
X2.270Y-4.880
X2.270Y-4.980
X2.270Y-5.080
X2.270Y-5.180
X2.270Y-5.380
X2.270Y-5.480
X2.270Y-5.580
X2.270Y-5.680
X2.270Y-5.780
X2.270Y-5.880
X2.270Y-5.980
X2.270Y-6.080
X2.270Y-6.180
X2.320Y-1.855
X2.320Y-2.205
X2.320Y-2.505
X2.320Y-2.655
X2.320Y-2.855
X2.370Y-2.030
X2.420Y-1.855
X2.420Y-2.205
X2.420Y-2.505
X2.420Y-2.655
X2.420Y-2.855
X2.520Y-2.205
X2.520Y-2.505
X2.545Y-1.430
X2.570Y-1.305
X2.570Y-4.380
X2.570Y-4.480
X2.570Y-4.580
X2.570Y-4.680
X2.570Y-4.780
X2.570Y-4.880
X2.570Y-4.980
X2.570Y-5.080
X2.570Y-5.180
X2.570Y-5.380
X2.570Y-5.480
X2.570Y-5.580
X2.570Y-5.680
X2.570Y-5.780
X2.570Y-5.880
X2.570Y-5.980
X2.570Y-6.080
X2.570Y-6.180
X2.595Y-1.605
X2.595Y-1.705
X2.620Y-2.205
X2.620Y-2.505
X2.670Y-1.305
X2.670Y-3.580
X2.695Y-1.605
X2.720Y-1.430
X2.720Y-2.205
X2.720Y-2.505
X2.820Y-2.205
X2.820Y-2.505
X2.820Y-4.330
X2.820Y-4.630
X2.920Y-1.255
X2.920Y-2.205
X2.920Y-2.505
X2.920Y-4.330
X2.920Y-4.630
X3.020Y-1.430
X3.020Y-2.205
X3.020Y-2.505
X3.020Y-4.330
X3.020Y-4.630
X3.070Y-3.105
X3.120Y-0.855
X3.120Y-1.155
X3.120Y-1.255
X3.120Y-2.205
X3.120Y-2.505
X3.120Y-4.330
X3.120Y-4.630
X3.220Y-4.330
X3.220Y-4.630
X3.270Y-5.530
X3.270Y-5.630
X3.270Y-5.730
X3.270Y-5.830
X3.270Y-5.930
X3.270Y-6.030
X3.270Y-6.130
X3.270Y-6.230
X3.320Y-0.855
X3.320Y-1.155
X3.320Y-4.330
X3.320Y-4.630
X3.370Y-2.880
X3.370Y-2.980
X3.370Y-3.105
X3.420Y-4.330
X3.420Y-4.630
X3.520Y-3.520
X3.520Y-4.330
X3.520Y-4.630
X3.570Y-5.530
X3.570Y-5.630
X3.570Y-5.730
X3.570Y-5.830
X3.570Y-5.930
X3.570Y-6.030
X3.570Y-6.130
X3.570Y-6.230
X3.620Y-4.330
X3.620Y-4.630
X3.620Y-4.755
X3.620Y-4.855
X3.720Y-2.330
X3.720Y-4.330
X3.720Y-4.630
X3.720Y-5.030
X3.720Y-5.230
X3.720Y-5.430
X3.720Y-5.530
X3.720Y-5.630
X3.720Y-5.730
X3.720Y-5.830
X3.720Y-5.930
X3.720Y-6.030
X3.720Y-6.130
X3.720Y-6.230
X3.750Y-1.380
X3.820Y-0.930
X3.820Y-1.130
X3.820Y-3.880
X3.820Y-4.180
X3.820Y-4.330
X3.820Y-4.630
X3.870Y-3.130
X3.870Y-3.230
X3.920Y-2.530
X3.920Y-4.330
X3.920Y-4.630
X3.950Y-1.580
X3.995Y-3.005
X4.020Y-3.130
X4.020Y-3.330
X4.020Y-3.880
X4.020Y-4.180
X4.020Y-4.330
X4.020Y-4.630
X4.020Y-5.030
X4.020Y-5.230
X4.020Y-5.430
X4.020Y-5.530
X4.020Y-5.630
X4.020Y-5.730
X4.020Y-5.830
X4.020Y-5.930
X4.020Y-6.030
X4.020Y-6.130
X4.020Y-6.230
X4.095Y-1.780
X4.095Y-2.080
X4.120Y-0.930
X4.120Y-1.130
X4.120Y-4.330
X4.120Y-4.630
X4.145Y-4.005
X4.145Y-4.105
X4.170Y-4.930
X4.170Y-5.030
X4.170Y-5.130
X4.170Y-5.230
X4.170Y-5.330
X4.170Y-5.430
X4.170Y-5.530
X4.170Y-5.630
X4.170Y-5.730
X4.170Y-5.830
X4.170Y-5.930
X4.170Y-6.030
X4.170Y-6.130
X4.170Y-6.230
X4.180Y-2.370
X4.180Y-2.570
X4.220Y-3.805
X4.220Y-3.905
X4.270Y-1.950
X4.270Y-2.050
X4.295Y-3.005
X4.420Y-3.780
X4.420Y-3.880
X4.420Y-3.980
X4.420Y-4.080
X4.420Y-4.180
X4.420Y-4.280
X4.420Y-4.380
X4.420Y-4.480
X4.420Y-4.580
X4.470Y-4.930
X4.470Y-5.030
X4.470Y-5.130
X4.470Y-5.230
X4.470Y-5.330
X4.470Y-5.430
X4.470Y-5.530
X4.470Y-5.630
X4.470Y-5.730
X4.470Y-5.830
X4.470Y-5.930
X4.470Y-6.030
X4.470Y-6.130
X4.470Y-6.230
X4.500Y-1.830
X4.500Y-2.030
X4.595Y-5.255
X4.595Y-5.355
X4.620Y-1.830
X4.670Y-3.180
X4.720Y-3.780
X4.720Y-3.880
X4.720Y-3.980
X4.720Y-4.080
X4.720Y-4.180
X4.720Y-4.280
X4.720Y-4.380
X4.720Y-4.480
X4.720Y-4.580
X4.720Y-5.430
X4.720Y-5.530
X4.720Y-5.630
X4.720Y-5.730
X4.720Y-5.830
X4.720Y-5.930
X4.720Y-6.030
X4.720Y-6.130
X4.720Y-6.230
X4.770Y-2.080
X4.770Y-2.280
X4.770Y-3.080
X4.770Y-3.180
X4.870Y-1.355
X4.870Y-1.655
X4.870Y-2.580
X4.870Y-2.680
X4.870Y-3.780
X4.870Y-3.880
X4.870Y-3.980
X4.870Y-4.080
X4.870Y-4.180
X4.870Y-4.280
X4.870Y-4.380
X4.870Y-4.480
X4.870Y-4.580
X4.920Y-0.980
X4.920Y-1.280
X4.920Y-1.830
X4.970Y-2.830
X4.970Y-3.130
X5.020Y-1.830
X5.020Y-5.430
X5.020Y-5.530
X5.020Y-5.630
X5.020Y-5.730
X5.020Y-5.830
X5.020Y-5.930
X5.020Y-6.030
X5.020Y-6.130
X5.020Y-6.230
X5.070Y-2.830
X5.070Y-3.130
X5.320Y-1.630
X5.320Y-1.730
X5.320Y-1.830
X6.490Y-3.810
X6.490Y-5.915
X6.495Y-1.795
X6.515Y-3.935
X6.515Y-4.035
X6.515Y-6.040
X6.515Y-6.140
X6.520Y-1.920
X6.520Y-2.020
X6.615Y-3.910
X6.615Y-6.015
X6.620Y-1.895
X6.640Y-3.610
X6.640Y-4.385
X6.640Y-5.715
X6.640Y-6.490
X6.645Y-1.595
X6.645Y-2.370
X6.740Y-3.060
X6.740Y-3.360
X6.740Y-5.165
X6.740Y-5.465
X6.745Y-1.045
X6.745Y-1.345
X6.790Y-3.810
X6.790Y-5.915
X6.795Y-1.795
X6.840Y-4.035
X6.840Y-6.140
X6.845Y-2.020
X6.890Y-3.335
X6.890Y-5.440
X6.895Y-1.320
X6.915Y-3.910
X6.915Y-6.015
X6.920Y-1.895
X6.940Y-3.610
X6.940Y-3.735
X6.940Y-4.035
X6.940Y-4.385
X6.940Y-4.510
X6.940Y-5.715
X6.940Y-5.840
X6.940Y-6.140
X6.940Y-6.490
X6.940Y-6.615
X6.945Y-1.595
X6.945Y-1.720
X6.945Y-2.020
X6.945Y-2.370
X6.945Y-2.495
X6.990Y-3.335
X6.990Y-5.440
X6.995Y-1.320
X7.040Y-3.460
X7.040Y-3.610
X7.040Y-4.235
X7.040Y-4.385
X7.040Y-5.565
X7.040Y-5.715
X7.040Y-6.340
X7.040Y-6.490
X7.045Y-1.445
X7.045Y-1.595
X7.045Y-2.220
X7.045Y-2.370
X7.240Y-3.735
X7.240Y-4.510
X7.240Y-5.840
X7.240Y-6.615
X7.245Y-1.720
X7.245Y-2.495
X7.340Y-3.460
X7.340Y-3.610
X7.340Y-4.235
X7.340Y-4.385
X7.340Y-5.565
X7.340Y-5.715
X7.340Y-6.340
X7.340Y-6.490
X7.345Y-1.445
X7.345Y-1.595
X7.345Y-2.220
X7.345Y-2.370
X7.505Y-3.460
X7.505Y-5.565
X7.510Y-1.445
X7.730Y-3.175
X7.730Y-5.280
X7.735Y-1.160
X8.270Y-0.855
X8.270Y-1.655
X8.275Y-1.875
X8.275Y-2.675
X8.370Y-0.855
X8.370Y-1.655
X8.370Y-3.810
X8.370Y-5.915
X8.375Y-1.875
X8.375Y-2.675
X8.395Y-3.935
X8.395Y-4.035
X8.395Y-6.040
X8.395Y-6.140
X8.470Y-0.855
X8.470Y-1.655
X8.475Y-1.875
X8.475Y-2.675
X8.495Y-3.910
X8.495Y-6.015
X8.520Y-3.610
X8.520Y-4.385
X8.520Y-5.715
X8.520Y-6.490
X8.570Y-0.855
X8.570Y-1.655
X8.575Y-1.875
X8.575Y-2.675
X8.620Y-3.060
X8.620Y-3.360
X8.620Y-5.165
X8.620Y-5.465
X8.670Y-0.855
X8.670Y-1.655
X8.670Y-3.810
X8.670Y-5.915
X8.675Y-1.875
X8.675Y-2.675
X8.720Y-4.035
X8.720Y-6.140
X8.770Y-0.855
X8.770Y-1.655
X8.770Y-3.335
X8.770Y-5.440
X8.775Y-1.875
X8.775Y-2.675
X8.795Y-3.910
X8.795Y-6.015
X8.820Y-3.610
X8.820Y-3.735
X8.820Y-4.035
X8.820Y-4.385
X8.820Y-4.510
X8.820Y-5.715
X8.820Y-5.840
X8.820Y-6.140
X8.820Y-6.490
X8.820Y-6.615
X8.870Y-0.855
X8.870Y-1.655
X8.870Y-3.335
X8.870Y-5.440
X8.875Y-1.875
X8.875Y-2.675
X8.920Y-3.460
X8.920Y-3.610
X8.920Y-4.235
X8.920Y-4.385
X8.920Y-5.565
X8.920Y-5.715
X8.920Y-6.340
X8.920Y-6.490
X9.120Y-3.735
X9.120Y-4.510
X9.120Y-5.840
X9.120Y-6.615
X9.220Y-3.460
X9.220Y-3.610
X9.220Y-4.235
X9.220Y-4.385
X9.220Y-5.565
X9.220Y-5.715
X9.220Y-6.340
X9.220Y-6.490
X9.385Y-3.460
X9.385Y-5.565
X9.610Y-3.175
X9.610Y-5.280
X9.940Y-0.840
X9.940Y-0.940
X9.940Y-1.040
X9.940Y-1.140
X9.940Y-1.240
X9.940Y-1.340
X9.940Y-1.440
X9.940Y-1.630
X9.940Y-1.730
X9.940Y-1.830
X9.940Y-1.930
X9.940Y-2.030
X9.940Y-2.130
X9.940Y-2.230
X9.940Y-2.430
X9.940Y-2.530
X9.940Y-2.630
X9.940Y-2.730
X9.940Y-2.830
X9.940Y-2.930
X9.940Y-3.030
X9.950Y-3.385
X9.950Y-3.485
X9.950Y-3.585
X9.950Y-3.685
X9.950Y-3.785
X9.950Y-3.885
X9.950Y-3.985
X9.950Y-5.180
X9.950Y-5.280
X9.950Y-5.380
X9.950Y-5.480
X9.950Y-5.580
X9.950Y-5.680
X9.950Y-5.780
X10.740Y-0.840
X10.740Y-0.940
X10.740Y-1.040
X10.740Y-1.140
X10.740Y-1.240
X10.740Y-1.340
X10.740Y-1.440
X10.740Y-1.630
X10.740Y-1.730
X10.740Y-1.830
X10.740Y-1.930
X10.740Y-2.030
X10.740Y-2.130
X10.740Y-2.230
X10.740Y-2.430
X10.740Y-2.530
X10.740Y-2.630
X10.740Y-2.730
X10.740Y-2.830
X10.740Y-2.930
X10.740Y-3.030
X10.750Y-3.385
X10.750Y-3.485
X10.750Y-3.585
X10.750Y-3.685
X10.750Y-3.785
X10.750Y-3.885
X10.750Y-3.985
X10.750Y-5.180
X10.750Y-5.280
X10.750Y-5.380
X10.750Y-5.480
X10.750Y-5.580
X10.750Y-5.680
X10.750Y-5.780
T3
X1.195Y-1.680
X1.195Y-2.005
X1.195Y-2.230
X1.195Y-2.480
X1.195Y-2.580
X1.195Y-2.680
X1.295Y-1.680
X1.295Y-2.005
X1.295Y-2.230
X1.295Y-2.480
X1.295Y-2.580
X1.295Y-2.680
X1.395Y-1.680
X1.520Y-4.380
X1.520Y-4.480
X1.520Y-4.580
X1.520Y-4.680
X1.520Y-4.780
X1.520Y-4.880
X1.520Y-4.980
X1.520Y-5.080
X1.520Y-5.180
X1.520Y-5.280
X1.520Y-5.380
X1.520Y-5.480
X1.520Y-5.580
X1.520Y-5.680
X1.520Y-5.780
X1.520Y-5.880
X1.520Y-5.980
X1.520Y-6.080
X1.520Y-6.180
X1.520Y-6.280
X1.795Y-2.855
X1.795Y-2.955
X1.795Y-3.055
X1.945Y-2.855
X1.945Y-2.955
X1.945Y-3.055
X2.095Y-2.855
X2.095Y-2.955
X2.095Y-3.055
X2.320Y-4.130
X2.320Y-6.430
X2.420Y-4.130
X2.420Y-6.430
X2.470Y-0.930
X2.520Y-4.130
X2.520Y-6.430
X2.570Y-0.930
X2.670Y-0.930
X2.770Y-0.930
X2.820Y-2.680
X2.820Y-2.780
X2.820Y-2.880
X2.870Y-0.930
X2.970Y-0.930
X2.970Y-5.530
X2.970Y-5.630
X2.970Y-5.730
X2.970Y-5.830
X2.970Y-5.930
X2.970Y-6.030
X2.970Y-6.130
X2.970Y-6.230
X2.970Y-6.330
X2.970Y-6.430
X3.620Y-2.880
X3.745Y-1.955
X3.770Y-6.480
X3.820Y-2.880
X3.870Y-6.480
X3.945Y-1.955
X3.970Y-6.480
X4.270Y-0.880
X4.270Y-1.280
X4.320Y-3.130
X4.320Y-3.330
X4.770Y-6.480
X4.870Y-6.480
X4.970Y-6.480
X5.020Y-3.880
X5.020Y-3.980
X5.020Y-4.080
X5.020Y-4.180
X5.020Y-4.280
X5.020Y-4.380
X5.020Y-4.480
X5.020Y-4.580
X5.170Y-1.980
X5.170Y-2.380
X5.620Y-1.805
X5.620Y-1.905
X5.620Y-2.005
X5.620Y-2.105
X5.620Y-2.205
X5.620Y-2.305
X5.620Y-3.155
X5.620Y-3.255
X5.620Y-3.355
X5.620Y-3.455
X5.620Y-3.555
X5.620Y-3.655
X5.620Y-4.405
X5.620Y-4.505
X5.620Y-4.605
X5.620Y-4.705
X5.620Y-4.805
X5.620Y-4.905
X5.620Y-5.655
X5.620Y-5.755
X5.620Y-5.855
X5.620Y-5.955
X5.620Y-6.055
X5.620Y-6.155
X6.315Y-3.610
X6.315Y-3.710
X6.315Y-3.810
X6.315Y-3.910
X6.315Y-4.010
X6.315Y-4.110
X6.315Y-5.715
X6.315Y-5.815
X6.315Y-5.915
X6.315Y-6.015
X6.315Y-6.115
X6.315Y-6.215
X6.320Y-1.595
X6.320Y-1.695
X6.320Y-1.795
X6.320Y-1.895
X6.320Y-1.995
X6.320Y-2.095
X8.195Y-3.610
X8.195Y-3.710
X8.195Y-3.810
X8.195Y-3.910
X8.195Y-4.010
X8.195Y-4.110
X8.195Y-5.715
X8.195Y-5.815
X8.195Y-5.915
X8.195Y-6.015
X8.195Y-6.115
X8.195Y-6.215
T4
X4.220Y-2.880
X4.720Y-2.880
T5
X4.282Y-1.680
X4.349Y-1.562
X4.420Y-1.680
X4.491Y-1.562
X4.558Y-1.680
T6
X5.080Y-1.000
X5.080Y-1.700
T7
X4.572Y-0.980
X4.769Y-0.980
X5.620Y-1.382
X5.620Y-1.579
X5.620Y-2.732
X5.620Y-2.929
X5.620Y-3.982
X5.620Y-4.179
X5.620Y-5.231
X5.620Y-5.428
X6.367Y-3.135
X6.367Y-5.240
X6.372Y-1.120
X6.564Y-3.135
X6.564Y-5.240
X6.569Y-1.120
X7.640Y-3.462
X7.640Y-3.659
X7.640Y-3.937
X7.640Y-4.134
X7.640Y-5.567
X7.640Y-5.764
X7.640Y-6.042
X7.640Y-6.239
X7.645Y-1.447
X7.645Y-1.644
X7.645Y-1.922
X7.645Y-2.119
X8.247Y-3.135
X8.247Y-5.240
X8.444Y-3.135
X8.444Y-5.240
X9.520Y-3.462
X9.520Y-3.659
X9.520Y-3.937
X9.520Y-4.134
X9.520Y-5.567
X9.520Y-5.764
X9.520Y-6.042
X9.520Y-6.239
T8
X1.070Y-4.050
X1.070Y-5.550
X1.085Y-6.180
X2.780Y-4.050
X8.130Y-1.541
X8.135Y-2.561
X9.620Y-1.541
X9.625Y-2.561
X10.064Y-3.245
X10.064Y-4.735
X10.064Y-5.040
X10.064Y-6.530
T9
X1.110Y-6.460
X1.120Y-0.980
X5.620Y-0.980
X5.620Y-6.480
X6.365Y-4.410
X6.365Y-6.515
X6.370Y-2.395
X7.715Y-3.010
X7.715Y-4.410
X7.715Y-5.115
X7.715Y-6.515
X7.720Y-0.995
X7.720Y-2.395
X8.245Y-4.410
X8.245Y-6.515
X9.595Y-3.010
X9.595Y-4.410
X9.595Y-5.115
X9.595Y-6.515
T0
M30
