G04 (created by PCBNEW-RS274X (2011-05-25)-stable) date Sun 12 Aug 2012 12:56:27 AM MDT*
G01*
G70*
G90*
%MOIN*%
G04 Gerber Fmt 3.4, Leading zero omitted, Abs format*
%FSLAX34Y34*%
G04 APERTURE LIST*
%ADD10C,0.006000*%
%ADD11C,0.015000*%
%ADD12R,0.098700X0.075100*%
%ADD13C,0.075000*%
%ADD14R,0.075000X0.075000*%
%ADD15R,0.075000X0.055000*%
%ADD16R,0.055000X0.075000*%
%ADD17R,0.080000X0.100000*%
%ADD18R,0.100000X0.080000*%
%ADD19R,0.050000X0.040000*%
%ADD20C,0.120000*%
%ADD21C,0.065000*%
%ADD22R,0.040000X0.050000*%
%ADD23C,0.080000*%
%ADD24C,0.320000*%
%ADD25O,0.098000X0.176000*%
%ADD26O,0.176000X0.098000*%
%ADD27R,0.080000X0.080000*%
%ADD28C,0.085000*%
%ADD29C,0.180000*%
%ADD30C,0.086000*%
%ADD31O,0.082000X0.110000*%
%ADD32R,0.082000X0.110000*%
%ADD33O,0.110000X0.082000*%
%ADD34R,0.110000X0.082000*%
%ADD35C,0.090000*%
%ADD36R,0.090000X0.090000*%
%ADD37R,0.085000X0.085000*%
%ADD38O,0.090900X0.118400*%
%ADD39R,0.147600X0.147600*%
%ADD40C,0.147600*%
%ADD41C,0.010000*%
G04 APERTURE END LIST*
G54D10*
G54D11*
X108400Y-07300D02*
X108400Y-67300D01*
X48400Y-07300D02*
X108400Y-07300D01*
X08700Y-07300D02*
X08700Y-67300D01*
X48400Y-07300D02*
X08700Y-07300D01*
X08700Y-67300D02*
X108400Y-67300D01*
G54D12*
X100270Y-09057D03*
X100259Y-09845D03*
X100259Y-10632D03*
X100259Y-11400D03*
X100259Y-12168D03*
X100259Y-12955D03*
X100259Y-13743D03*
X106519Y-13743D03*
X106519Y-12955D03*
X106519Y-12168D03*
X106519Y-11400D03*
X106519Y-10632D03*
X106519Y-09845D03*
X106519Y-09057D03*
G54D13*
X107400Y-14400D03*
X107400Y-13400D03*
X107400Y-12400D03*
X107400Y-11400D03*
X107400Y-10400D03*
X107400Y-09400D03*
X107400Y-08400D03*
G54D14*
X99400Y-08400D03*
G54D13*
X99400Y-09400D03*
X99400Y-10400D03*
X99400Y-11400D03*
X99400Y-12400D03*
X99400Y-13400D03*
X99400Y-14400D03*
G54D12*
X100270Y-24957D03*
X100259Y-25745D03*
X100259Y-26532D03*
X100259Y-27300D03*
X100259Y-28068D03*
X100259Y-28855D03*
X100259Y-29643D03*
X106519Y-29643D03*
X106519Y-28855D03*
X106519Y-28068D03*
X106519Y-27300D03*
X106519Y-26532D03*
X106519Y-25745D03*
X106519Y-24957D03*
G54D13*
X107400Y-30300D03*
X107400Y-29300D03*
X107400Y-28300D03*
X107400Y-27300D03*
X107400Y-26300D03*
X107400Y-25300D03*
X107400Y-24300D03*
G54D14*
X99400Y-24300D03*
G54D13*
X99400Y-25300D03*
X99400Y-26300D03*
X99400Y-27300D03*
X99400Y-28300D03*
X99400Y-29300D03*
X99400Y-30300D03*
G54D14*
X99400Y-16300D03*
G54D13*
X99400Y-17300D03*
X99400Y-18300D03*
X99400Y-19300D03*
X99400Y-20300D03*
X99400Y-21300D03*
X99400Y-22300D03*
X107400Y-22300D03*
X107400Y-21300D03*
X107400Y-20300D03*
X107400Y-19300D03*
X107400Y-18300D03*
X107400Y-17300D03*
X107400Y-16300D03*
G54D12*
X100270Y-16957D03*
X100259Y-17745D03*
X100259Y-18532D03*
X100259Y-19300D03*
X100259Y-20068D03*
X100259Y-20855D03*
X100259Y-21643D03*
X106519Y-21643D03*
X106519Y-20855D03*
X106519Y-20068D03*
X106519Y-19300D03*
X106519Y-18532D03*
X106519Y-17745D03*
X106519Y-16957D03*
G54D13*
X99500Y-57800D03*
X99500Y-56800D03*
X99500Y-55800D03*
X99500Y-54800D03*
X99500Y-53800D03*
X99500Y-52800D03*
X99500Y-51800D03*
G54D14*
X107500Y-51800D03*
G54D13*
X107500Y-52800D03*
X107500Y-53800D03*
X107500Y-54800D03*
X107500Y-55800D03*
X107500Y-56800D03*
X107500Y-57800D03*
G54D15*
X105340Y-56775D03*
X105340Y-56025D03*
G54D16*
X104115Y-51600D03*
X103365Y-51600D03*
G54D15*
X102540Y-51975D03*
X102540Y-51225D03*
G54D16*
X103965Y-53600D03*
X104715Y-53600D03*
G54D17*
X104490Y-52600D03*
X105790Y-52600D03*
G54D18*
X101540Y-53050D03*
X101540Y-51750D03*
G54D19*
X103340Y-53475D03*
X103340Y-52725D03*
X102340Y-53475D03*
X103340Y-53100D03*
X102340Y-52725D03*
G54D20*
X100640Y-65300D03*
X100640Y-50400D03*
G54D21*
X101700Y-65300D03*
X101700Y-47350D03*
G54D20*
X100640Y-32450D03*
X100640Y-47350D03*
G54D19*
X103340Y-35525D03*
X103340Y-34775D03*
X102340Y-35525D03*
X103340Y-35150D03*
X102340Y-34775D03*
G54D18*
X101540Y-35100D03*
X101540Y-33800D03*
G54D17*
X104490Y-34650D03*
X105790Y-34650D03*
G54D16*
X103965Y-35650D03*
X104715Y-35650D03*
G54D15*
X102540Y-34025D03*
X102540Y-33275D03*
G54D16*
X104115Y-33650D03*
X103365Y-33650D03*
G54D15*
X105340Y-38825D03*
X105340Y-38075D03*
G54D14*
X107500Y-33850D03*
G54D13*
X107500Y-34850D03*
X107500Y-35850D03*
X107500Y-36850D03*
X107500Y-37850D03*
X107500Y-38850D03*
X107500Y-39850D03*
X99500Y-39850D03*
X99500Y-38850D03*
X99500Y-37850D03*
X99500Y-36850D03*
X99500Y-35850D03*
X99500Y-34850D03*
X99500Y-33850D03*
X88750Y-26750D03*
X87750Y-26750D03*
X86750Y-26750D03*
X85750Y-26750D03*
X84750Y-26750D03*
X83750Y-26750D03*
X82750Y-26750D03*
G54D14*
X82750Y-18750D03*
G54D13*
X83750Y-18750D03*
X84750Y-18750D03*
X85750Y-18750D03*
X86750Y-18750D03*
X87750Y-18750D03*
X88750Y-18750D03*
G54D16*
X87725Y-20910D03*
X86975Y-20910D03*
G54D15*
X82550Y-22135D03*
X82550Y-22885D03*
G54D16*
X82925Y-23710D03*
X82175Y-23710D03*
G54D15*
X84550Y-22285D03*
X84550Y-21535D03*
G54D18*
X83550Y-21760D03*
X83550Y-20460D03*
G54D17*
X84000Y-24710D03*
X82700Y-24710D03*
G54D22*
X84425Y-22910D03*
X83675Y-22910D03*
X84425Y-23910D03*
X84050Y-22910D03*
X83675Y-23910D03*
G54D20*
X96250Y-25610D03*
X81350Y-25610D03*
G54D21*
X96250Y-24550D03*
G54D23*
X75100Y-14450D03*
X77350Y-11600D03*
G54D14*
X69450Y-15950D03*
G54D13*
X66450Y-15950D03*
X68950Y-13200D03*
X69950Y-13200D03*
X68450Y-20200D03*
X69450Y-20200D03*
X65200Y-20200D03*
X65200Y-19200D03*
G54D24*
X77200Y-23950D03*
X63700Y-23950D03*
X77200Y-09950D03*
G54D25*
X65690Y-11200D03*
X63720Y-11200D03*
G54D26*
X76450Y-16440D03*
X76450Y-14470D03*
X76450Y-21190D03*
X76450Y-19220D03*
G54D14*
X69450Y-23700D03*
G54D13*
X66450Y-23700D03*
G54D27*
X63200Y-20950D03*
G54D23*
X63200Y-19950D03*
X63200Y-18950D03*
X63200Y-17950D03*
X63200Y-16950D03*
X63200Y-15950D03*
G54D28*
X64950Y-17950D03*
X67950Y-17950D03*
X69450Y-24950D03*
X72450Y-24950D03*
X69450Y-17200D03*
X72450Y-17200D03*
X70450Y-15950D03*
X73450Y-15950D03*
X73450Y-22200D03*
X70450Y-22200D03*
X73450Y-14450D03*
X70450Y-14450D03*
X69200Y-18950D03*
X66200Y-18950D03*
X67450Y-13450D03*
X67450Y-10450D03*
X70450Y-23700D03*
X73450Y-23700D03*
G54D19*
X68200Y-20825D03*
X68200Y-21575D03*
X69200Y-20825D03*
X68200Y-21200D03*
X69200Y-21575D03*
X68200Y-14075D03*
X68200Y-14825D03*
X69200Y-14075D03*
X68200Y-14450D03*
X69200Y-14825D03*
X86950Y-55275D03*
X86950Y-56025D03*
X87950Y-55275D03*
X86950Y-55650D03*
X87950Y-56025D03*
X86950Y-62025D03*
X86950Y-62775D03*
X87950Y-62025D03*
X86950Y-62400D03*
X87950Y-62775D03*
G54D28*
X89200Y-64900D03*
X92200Y-64900D03*
X86200Y-54650D03*
X86200Y-51650D03*
X87950Y-60150D03*
X84950Y-60150D03*
X92200Y-55650D03*
X89200Y-55650D03*
X92200Y-63400D03*
X89200Y-63400D03*
X89200Y-57150D03*
X92200Y-57150D03*
X88200Y-58400D03*
X91200Y-58400D03*
X88200Y-66150D03*
X91200Y-66150D03*
X83700Y-59150D03*
X86700Y-59150D03*
G54D27*
X81950Y-62150D03*
G54D23*
X81950Y-61150D03*
X81950Y-60150D03*
X81950Y-59150D03*
X81950Y-58150D03*
X81950Y-57150D03*
G54D14*
X88200Y-64900D03*
G54D13*
X85200Y-64900D03*
G54D26*
X95200Y-62390D03*
X95200Y-60420D03*
X95200Y-57640D03*
X95200Y-55670D03*
G54D25*
X84440Y-52400D03*
X82470Y-52400D03*
G54D24*
X95950Y-51150D03*
X82450Y-65150D03*
X95950Y-65150D03*
G54D13*
X83950Y-61400D03*
X83950Y-60400D03*
X87200Y-61400D03*
X88200Y-61400D03*
X87700Y-54400D03*
X88700Y-54400D03*
G54D14*
X88200Y-57150D03*
G54D13*
X85200Y-57150D03*
G54D23*
X96100Y-52800D03*
X93850Y-55650D03*
G54D19*
X86950Y-34225D03*
X86950Y-34975D03*
X87950Y-34225D03*
X86950Y-34600D03*
X87950Y-34975D03*
X86950Y-40975D03*
X86950Y-41725D03*
X87950Y-40975D03*
X86950Y-41350D03*
X87950Y-41725D03*
G54D28*
X89200Y-43850D03*
X92200Y-43850D03*
X86200Y-33600D03*
X86200Y-30600D03*
X87950Y-39100D03*
X84950Y-39100D03*
X92200Y-34600D03*
X89200Y-34600D03*
X92200Y-42350D03*
X89200Y-42350D03*
X89200Y-36100D03*
X92200Y-36100D03*
X88200Y-37350D03*
X91200Y-37350D03*
X88200Y-45100D03*
X91200Y-45100D03*
X83700Y-38100D03*
X86700Y-38100D03*
G54D27*
X81950Y-41100D03*
G54D23*
X81950Y-40100D03*
X81950Y-39100D03*
X81950Y-38100D03*
X81950Y-37100D03*
X81950Y-36100D03*
G54D14*
X88200Y-43850D03*
G54D13*
X85200Y-43850D03*
G54D26*
X95200Y-41340D03*
X95200Y-39370D03*
X95200Y-36590D03*
X95200Y-34620D03*
G54D25*
X84440Y-31350D03*
X82470Y-31350D03*
G54D24*
X95950Y-30100D03*
X82450Y-44100D03*
X95950Y-44100D03*
G54D13*
X83950Y-40350D03*
X83950Y-39350D03*
X87200Y-40350D03*
X88200Y-40350D03*
X87700Y-33350D03*
X88700Y-33350D03*
G54D14*
X88200Y-36100D03*
G54D13*
X85200Y-36100D03*
G54D23*
X96100Y-31750D03*
X93850Y-34600D03*
X75050Y-34600D03*
X77300Y-31750D03*
G54D14*
X69400Y-36100D03*
G54D13*
X66400Y-36100D03*
X68900Y-33350D03*
X69900Y-33350D03*
X68400Y-40350D03*
X69400Y-40350D03*
X65150Y-40350D03*
X65150Y-39350D03*
G54D24*
X77150Y-44100D03*
X63650Y-44100D03*
X77150Y-30100D03*
G54D25*
X65640Y-31350D03*
X63670Y-31350D03*
G54D26*
X76400Y-36590D03*
X76400Y-34620D03*
X76400Y-41340D03*
X76400Y-39370D03*
G54D14*
X69400Y-43850D03*
G54D13*
X66400Y-43850D03*
G54D27*
X63150Y-41100D03*
G54D23*
X63150Y-40100D03*
X63150Y-39100D03*
X63150Y-38100D03*
X63150Y-37100D03*
X63150Y-36100D03*
G54D28*
X64900Y-38100D03*
X67900Y-38100D03*
X69400Y-45100D03*
X72400Y-45100D03*
X69400Y-37350D03*
X72400Y-37350D03*
X70400Y-36100D03*
X73400Y-36100D03*
X73400Y-42350D03*
X70400Y-42350D03*
X73400Y-34600D03*
X70400Y-34600D03*
X69150Y-39100D03*
X66150Y-39100D03*
X67400Y-33600D03*
X67400Y-30600D03*
X70400Y-43850D03*
X73400Y-43850D03*
G54D19*
X68150Y-40975D03*
X68150Y-41725D03*
X69150Y-40975D03*
X68150Y-41350D03*
X69150Y-41725D03*
X68150Y-34225D03*
X68150Y-34975D03*
X69150Y-34225D03*
X68150Y-34600D03*
X69150Y-34975D03*
G54D23*
X75050Y-55650D03*
X77300Y-52800D03*
G54D14*
X69400Y-57150D03*
G54D13*
X66400Y-57150D03*
X68900Y-54400D03*
X69900Y-54400D03*
X68400Y-61400D03*
X69400Y-61400D03*
X65150Y-61400D03*
X65150Y-60400D03*
G54D24*
X77150Y-65150D03*
X63650Y-65150D03*
X77150Y-51150D03*
G54D25*
X65640Y-52400D03*
X63670Y-52400D03*
G54D26*
X76400Y-57640D03*
X76400Y-55670D03*
X76400Y-62390D03*
X76400Y-60420D03*
G54D14*
X69400Y-64900D03*
G54D13*
X66400Y-64900D03*
G54D27*
X63150Y-62150D03*
G54D23*
X63150Y-61150D03*
X63150Y-60150D03*
X63150Y-59150D03*
X63150Y-58150D03*
X63150Y-57150D03*
G54D28*
X64900Y-59150D03*
X67900Y-59150D03*
X69400Y-66150D03*
X72400Y-66150D03*
X69400Y-58400D03*
X72400Y-58400D03*
X70400Y-57150D03*
X73400Y-57150D03*
X73400Y-63400D03*
X70400Y-63400D03*
X73400Y-55650D03*
X70400Y-55650D03*
X69150Y-60150D03*
X66150Y-60150D03*
X67400Y-54650D03*
X67400Y-51650D03*
X70400Y-64900D03*
X73400Y-64900D03*
G54D19*
X68150Y-62025D03*
X68150Y-62775D03*
X69150Y-62025D03*
X68150Y-62400D03*
X69150Y-62775D03*
X68150Y-55275D03*
X68150Y-56025D03*
X69150Y-55275D03*
X68150Y-55650D03*
X69150Y-56025D03*
G54D21*
X96200Y-14350D03*
G54D20*
X81300Y-15410D03*
X96200Y-15410D03*
G54D22*
X84375Y-12710D03*
X83625Y-12710D03*
X84375Y-13710D03*
X84000Y-12710D03*
X83625Y-13710D03*
G54D17*
X83950Y-14510D03*
X82650Y-14510D03*
G54D18*
X83500Y-11560D03*
X83500Y-10260D03*
G54D15*
X84500Y-12085D03*
X84500Y-11335D03*
G54D16*
X82875Y-13510D03*
X82125Y-13510D03*
G54D15*
X82500Y-11935D03*
X82500Y-12685D03*
G54D16*
X87675Y-10710D03*
X86925Y-10710D03*
G54D14*
X82700Y-08550D03*
G54D13*
X83700Y-08550D03*
X84700Y-08550D03*
X85700Y-08550D03*
X86700Y-08550D03*
X87700Y-08550D03*
X88700Y-08550D03*
X88700Y-16550D03*
X87700Y-16550D03*
X86700Y-16550D03*
X85700Y-16550D03*
X84700Y-16550D03*
X83700Y-16550D03*
X82700Y-16550D03*
G54D29*
X27800Y-40500D03*
X10850Y-61800D03*
X10700Y-55500D03*
X10700Y-40500D03*
G54D13*
X14700Y-40200D03*
X12700Y-40200D03*
G54D23*
X35200Y-35200D03*
G54D27*
X19450Y-30550D03*
G54D23*
X19450Y-29550D03*
X19450Y-28550D03*
G54D27*
X20950Y-30550D03*
G54D23*
X20950Y-29550D03*
X20950Y-28550D03*
G54D27*
X17950Y-30550D03*
G54D23*
X17950Y-29550D03*
X17950Y-28550D03*
G54D27*
X56200Y-61550D03*
G54D23*
X56200Y-60550D03*
X56200Y-59550D03*
X56200Y-58550D03*
X56200Y-57550D03*
X56200Y-56550D03*
G54D27*
X56200Y-49050D03*
G54D23*
X56200Y-48050D03*
X56200Y-47050D03*
X56200Y-46050D03*
X56200Y-45050D03*
X56200Y-44050D03*
G54D30*
X15700Y-10300D03*
X15700Y-09300D03*
X19950Y-09300D03*
X19950Y-10300D03*
G54D31*
X29200Y-46300D03*
X30200Y-46300D03*
X31200Y-46300D03*
X32200Y-46300D03*
X33200Y-46300D03*
X34200Y-46300D03*
X35200Y-46300D03*
X36200Y-46300D03*
X37200Y-46300D03*
X38200Y-46300D03*
X39200Y-46300D03*
X40200Y-46300D03*
X41200Y-46300D03*
G54D32*
X28200Y-46300D03*
G54D31*
X41200Y-43300D03*
X40200Y-43300D03*
X39200Y-43300D03*
X38200Y-43300D03*
X37200Y-43300D03*
X36200Y-43300D03*
X35200Y-43300D03*
X34200Y-43300D03*
X33200Y-43300D03*
X32200Y-43300D03*
X31200Y-43300D03*
X30200Y-43300D03*
X29200Y-43300D03*
X28200Y-43300D03*
G54D33*
X44700Y-61300D03*
X44700Y-60300D03*
X44700Y-59300D03*
X44700Y-58300D03*
X44700Y-57300D03*
X44700Y-56300D03*
X44700Y-55300D03*
X44700Y-54300D03*
X44700Y-53300D03*
X44700Y-52300D03*
X44700Y-51300D03*
X44700Y-50300D03*
X44700Y-49300D03*
G54D34*
X44700Y-62300D03*
G54D33*
X41700Y-49300D03*
X41700Y-50300D03*
X41700Y-51300D03*
X41700Y-52300D03*
X41700Y-53300D03*
X41700Y-54300D03*
X41700Y-55300D03*
X41700Y-56300D03*
X41700Y-57300D03*
X41700Y-58300D03*
X41700Y-59300D03*
X41700Y-60300D03*
X41700Y-61300D03*
X41700Y-62300D03*
G54D34*
X47200Y-45800D03*
G54D33*
X47200Y-44800D03*
X47200Y-43800D03*
X47200Y-42800D03*
X47200Y-41800D03*
X47200Y-40800D03*
X47200Y-39800D03*
X47200Y-38800D03*
X47200Y-37800D03*
X44200Y-37800D03*
X44200Y-38800D03*
X44200Y-39800D03*
X44200Y-40800D03*
X44200Y-41800D03*
X44200Y-42800D03*
X44200Y-43800D03*
X44200Y-44800D03*
X44200Y-45800D03*
G54D35*
X42700Y-12800D03*
G54D36*
X42700Y-08800D03*
G54D14*
X49200Y-09800D03*
G54D13*
X49200Y-12800D03*
X23200Y-26550D03*
X23200Y-28550D03*
X47700Y-20800D03*
X47700Y-22800D03*
X23200Y-18550D03*
X24200Y-18550D03*
X41800Y-25700D03*
X41800Y-23700D03*
X22200Y-18550D03*
X21200Y-18550D03*
G54D27*
X56200Y-36550D03*
G54D23*
X56200Y-35550D03*
X56200Y-34550D03*
X56200Y-33550D03*
X56200Y-32550D03*
X56200Y-31550D03*
G54D36*
X36200Y-28800D03*
G54D35*
X38200Y-28800D03*
G54D13*
X31200Y-12550D03*
X29200Y-12550D03*
G54D35*
X47200Y-28800D03*
G54D36*
X42200Y-28800D03*
G54D35*
X51700Y-19800D03*
G54D36*
X51700Y-23800D03*
G54D14*
X46200Y-18300D03*
G54D13*
X49200Y-18300D03*
G54D14*
X40950Y-17800D03*
G54D13*
X40950Y-20800D03*
G54D27*
X56200Y-23050D03*
G54D23*
X56200Y-22050D03*
X56200Y-21050D03*
X56200Y-20050D03*
X56200Y-19050D03*
X56200Y-18050D03*
G54D31*
X30200Y-22050D03*
X29200Y-22050D03*
X28200Y-22050D03*
X27200Y-22050D03*
X26200Y-22050D03*
X25200Y-22050D03*
X24200Y-22050D03*
X23200Y-22050D03*
X22200Y-22050D03*
X21200Y-22050D03*
X20200Y-22050D03*
X19200Y-22050D03*
X18200Y-22050D03*
G54D32*
X31200Y-22050D03*
G54D31*
X18200Y-25050D03*
X19200Y-25050D03*
X20200Y-25050D03*
X21200Y-25050D03*
X22200Y-25050D03*
X23200Y-25050D03*
X24200Y-25050D03*
X25200Y-25050D03*
X26200Y-25050D03*
X27200Y-25050D03*
X28200Y-25050D03*
X29200Y-25050D03*
X30200Y-25050D03*
X31200Y-25050D03*
G54D27*
X12950Y-26800D03*
G54D23*
X11950Y-26800D03*
X12950Y-25800D03*
X11950Y-25800D03*
X12950Y-24800D03*
X11950Y-24800D03*
G54D13*
X31200Y-08550D03*
X33200Y-08550D03*
X31200Y-11550D03*
X33200Y-11550D03*
G54D25*
X47690Y-09800D03*
X45720Y-09800D03*
G54D37*
X48700Y-26800D03*
G54D28*
X48700Y-25800D03*
G54D36*
X43200Y-33300D03*
G54D35*
X43200Y-31300D03*
G54D13*
X40200Y-31300D03*
X40200Y-33300D03*
G54D36*
X37450Y-19550D03*
G54D35*
X39450Y-19550D03*
G54D37*
X42700Y-19500D03*
G54D28*
X42700Y-20500D03*
G54D13*
X45000Y-20300D03*
X45000Y-18300D03*
X24200Y-28550D03*
X24200Y-26550D03*
G54D28*
X50700Y-28300D03*
X50700Y-31300D03*
X49700Y-31300D03*
X49700Y-28300D03*
X38200Y-09300D03*
X41200Y-09300D03*
X41200Y-11300D03*
X38200Y-11300D03*
X40200Y-50300D03*
X37200Y-50300D03*
X10200Y-25050D03*
X10200Y-22050D03*
G54D14*
X47700Y-30800D03*
G54D13*
X47700Y-31800D03*
X46700Y-31800D03*
G54D22*
X48825Y-22300D03*
X49575Y-22300D03*
X48825Y-21300D03*
X49200Y-22300D03*
X49575Y-21300D03*
G54D35*
X21700Y-20300D03*
X23700Y-20300D03*
G54D34*
X25700Y-51800D03*
G54D33*
X25700Y-50800D03*
X25700Y-49800D03*
X25700Y-48800D03*
X25700Y-47800D03*
X25700Y-46800D03*
X25700Y-45800D03*
X25700Y-44800D03*
X25700Y-43800D03*
X22700Y-43800D03*
X22700Y-44800D03*
X22700Y-45800D03*
X22700Y-46800D03*
X22700Y-47800D03*
X22700Y-48800D03*
X22700Y-49800D03*
X22700Y-50800D03*
X22700Y-51800D03*
G54D34*
X25700Y-61800D03*
G54D33*
X25700Y-60800D03*
X25700Y-59800D03*
X25700Y-58800D03*
X25700Y-57800D03*
X25700Y-56800D03*
X25700Y-55800D03*
X25700Y-54800D03*
X25700Y-53800D03*
X22700Y-53800D03*
X22700Y-54800D03*
X22700Y-55800D03*
X22700Y-56800D03*
X22700Y-57800D03*
X22700Y-58800D03*
X22700Y-59800D03*
X22700Y-60800D03*
X22700Y-61800D03*
G54D34*
X40200Y-62300D03*
G54D33*
X40200Y-61300D03*
X40200Y-60300D03*
X40200Y-59300D03*
X40200Y-58300D03*
X40200Y-57300D03*
X40200Y-56300D03*
X40200Y-55300D03*
X40200Y-54300D03*
X37200Y-54300D03*
X37200Y-55300D03*
X37200Y-56300D03*
X37200Y-57300D03*
X37200Y-58300D03*
X37200Y-59300D03*
X37200Y-60300D03*
X37200Y-61300D03*
X37200Y-62300D03*
G54D34*
X47200Y-54300D03*
G54D33*
X47200Y-55300D03*
X47200Y-56300D03*
X47200Y-57300D03*
X47200Y-58300D03*
X47200Y-59300D03*
X47200Y-60300D03*
X47200Y-61300D03*
X47200Y-62300D03*
X50200Y-62300D03*
X50200Y-61300D03*
X50200Y-60300D03*
X50200Y-59300D03*
X50200Y-58300D03*
X50200Y-57300D03*
X50200Y-56300D03*
X50200Y-55300D03*
X50200Y-54300D03*
G54D28*
X17450Y-11800D03*
X17450Y-14800D03*
X15700Y-11800D03*
X15700Y-14800D03*
X40200Y-41800D03*
X40200Y-38800D03*
G54D26*
X56200Y-54280D03*
X56200Y-52310D03*
X56200Y-15790D03*
X56200Y-13820D03*
X56200Y-41790D03*
X56200Y-39820D03*
X56200Y-29290D03*
X56200Y-27320D03*
G54D34*
X18200Y-53800D03*
G54D33*
X18200Y-54800D03*
X18200Y-55800D03*
X18200Y-56800D03*
X18200Y-57800D03*
X18200Y-58800D03*
X18200Y-59800D03*
X18200Y-60800D03*
X21200Y-60800D03*
X21200Y-59800D03*
X21200Y-58800D03*
X21200Y-57800D03*
X21200Y-56800D03*
X21200Y-55800D03*
X21200Y-54800D03*
X21200Y-53800D03*
G54D34*
X21200Y-52800D03*
G54D33*
X21200Y-51800D03*
X21200Y-50800D03*
X21200Y-49800D03*
X21200Y-48800D03*
X21200Y-47800D03*
X21200Y-46800D03*
X21200Y-45800D03*
X18200Y-45800D03*
X18200Y-46800D03*
X18200Y-47800D03*
X18200Y-48800D03*
X18200Y-49800D03*
X18200Y-50800D03*
X18200Y-51800D03*
X18200Y-52800D03*
G54D27*
X29700Y-09300D03*
G54D23*
X28700Y-09300D03*
X27700Y-09300D03*
X26700Y-09300D03*
X25700Y-09300D03*
X24700Y-09300D03*
G54D38*
X44200Y-16796D03*
X42822Y-16796D03*
X45578Y-16796D03*
X44909Y-15615D03*
X43491Y-15615D03*
G54D24*
X11100Y-64600D03*
X11200Y-09800D03*
X56200Y-64800D03*
X56200Y-09800D03*
G54D14*
X48700Y-45800D03*
G54D13*
X48700Y-44800D03*
X48700Y-43800D03*
X48700Y-42800D03*
X48700Y-41800D03*
X48700Y-40800D03*
X48700Y-39800D03*
X48700Y-38800D03*
X48700Y-37800D03*
G54D28*
X25450Y-14300D03*
X22450Y-14300D03*
X27200Y-14300D03*
X30200Y-14300D03*
X38200Y-41800D03*
X38200Y-38800D03*
X40200Y-52300D03*
X37200Y-52300D03*
G54D27*
X50200Y-43800D03*
G54D23*
X50200Y-44800D03*
X50200Y-45800D03*
G54D27*
X23200Y-41300D03*
G54D23*
X24200Y-41300D03*
X25200Y-41300D03*
G54D27*
X23200Y-64300D03*
G54D23*
X24200Y-64300D03*
X25200Y-64300D03*
G54D27*
X37700Y-64800D03*
G54D23*
X38700Y-64800D03*
X39700Y-64800D03*
G54D27*
X47700Y-64800D03*
G54D23*
X48700Y-64800D03*
X49700Y-64800D03*
G54D30*
X26700Y-13050D03*
X25700Y-13050D03*
X22450Y-13050D03*
X21450Y-13050D03*
G54D34*
X35700Y-62300D03*
G54D33*
X35700Y-61300D03*
X35700Y-60300D03*
X35700Y-59300D03*
X35700Y-58300D03*
X35700Y-57300D03*
X35700Y-56300D03*
X35700Y-55300D03*
X32700Y-55300D03*
X32700Y-56300D03*
X32700Y-57300D03*
X32700Y-58300D03*
X32700Y-59300D03*
X32700Y-60300D03*
X32700Y-61300D03*
X32700Y-62300D03*
G54D27*
X15200Y-53800D03*
G54D23*
X15200Y-54800D03*
X15200Y-55800D03*
X15200Y-56800D03*
X15200Y-57800D03*
G54D27*
X15200Y-43800D03*
G54D23*
X15200Y-44800D03*
X15200Y-45800D03*
X15200Y-46800D03*
X15200Y-47800D03*
G54D27*
X50200Y-38800D03*
G54D23*
X50200Y-39800D03*
X50200Y-40800D03*
X50200Y-41800D03*
X50200Y-42800D03*
G54D27*
X29700Y-55300D03*
G54D23*
X29700Y-56300D03*
X29700Y-57300D03*
X29700Y-58300D03*
X29700Y-59300D03*
G54D14*
X26950Y-16050D03*
G54D13*
X25950Y-16050D03*
X25950Y-17050D03*
G54D14*
X21450Y-15050D03*
G54D13*
X20450Y-15050D03*
X20450Y-16050D03*
G54D27*
X11950Y-20050D03*
G54D23*
X12950Y-20050D03*
G54D27*
X11950Y-22300D03*
G54D23*
X12950Y-22300D03*
G54D27*
X15200Y-58800D03*
G54D23*
X15200Y-59800D03*
X15200Y-60800D03*
X15200Y-61800D03*
X15200Y-62800D03*
G54D27*
X15200Y-48800D03*
G54D23*
X15200Y-49800D03*
X15200Y-50800D03*
X15200Y-51800D03*
X15200Y-52800D03*
G54D27*
X29700Y-60300D03*
G54D23*
X29700Y-61300D03*
X29700Y-62300D03*
X29700Y-63300D03*
X29700Y-64300D03*
G54D28*
X10450Y-18300D03*
X10450Y-15300D03*
G54D27*
X28200Y-28800D03*
G54D23*
X28200Y-27800D03*
X28200Y-26800D03*
G54D27*
X13950Y-16800D03*
G54D23*
X12950Y-16800D03*
X11950Y-16800D03*
G54D35*
X50800Y-17000D03*
X50800Y-10000D03*
G54D39*
X39200Y-25300D03*
G54D40*
X37200Y-23300D03*
G54D39*
X39500Y-15800D03*
G54D40*
X37500Y-13800D03*
G54D13*
X45950Y-53550D03*
X45950Y-52550D03*
X36200Y-47550D03*
X36200Y-48550D03*
X41450Y-41050D03*
X41450Y-40050D03*
X42200Y-39050D03*
X42200Y-38050D03*
G54D28*
X48700Y-16550D03*
X48700Y-13550D03*
G54D21*
X36200Y-31800D03*
X38700Y-33300D03*
G54D30*
X33700Y-28800D03*
X33700Y-29800D03*
X53200Y-17300D03*
X53200Y-16300D03*
X38700Y-32300D03*
X38700Y-31300D03*
G54D28*
X42950Y-30050D03*
X39950Y-30050D03*
X30700Y-31050D03*
X33700Y-31050D03*
X50200Y-18300D03*
X53200Y-18300D03*
G54D23*
X26700Y-35800D03*
G54D14*
X09700Y-39300D03*
G54D13*
X09700Y-38300D03*
X09700Y-37300D03*
X09700Y-36300D03*
X09700Y-35300D03*
X09700Y-34300D03*
X09700Y-33300D03*
G54D14*
X17700Y-33300D03*
G54D13*
X17700Y-34300D03*
X17700Y-35300D03*
X17700Y-36300D03*
X17700Y-37300D03*
X17700Y-38300D03*
X17700Y-39300D03*
G54D10*
G36*
X59300Y-66800D02*
X59495Y-66781D01*
X59683Y-66724D01*
X59856Y-66631D01*
X60007Y-66507D01*
X60131Y-66356D01*
X60224Y-66183D01*
X60281Y-65995D01*
X60300Y-65800D01*
X60300Y-08700D01*
X60281Y-08505D01*
X60224Y-08317D01*
X60131Y-08144D01*
X60007Y-07993D01*
X59856Y-07869D01*
X59683Y-07776D01*
X59495Y-07719D01*
X59300Y-07700D01*
X52700Y-07700D01*
X52505Y-07719D01*
X52317Y-07776D01*
X52144Y-07869D01*
X51993Y-07993D01*
X51869Y-08144D01*
X51776Y-08317D01*
X51719Y-08505D01*
X51700Y-08700D01*
X51700Y-16400D01*
X51719Y-16595D01*
X51776Y-16783D01*
X51869Y-16956D01*
X51993Y-17107D01*
X52144Y-17231D01*
X52317Y-17324D01*
X52505Y-17381D01*
X52700Y-17400D01*
X56081Y-17400D01*
X56257Y-17416D01*
X56427Y-17462D01*
X56587Y-17537D01*
X56730Y-17639D01*
X56854Y-17765D01*
X56953Y-17911D01*
X57026Y-18072D01*
X57069Y-18243D01*
X57081Y-18419D01*
X56913Y-27420D01*
X56895Y-27587D01*
X56847Y-27748D01*
X56771Y-27898D01*
X56670Y-28032D01*
X56547Y-28146D01*
X56405Y-28236D01*
X56250Y-28300D01*
X56249Y-28300D01*
X56095Y-28364D01*
X55954Y-28454D01*
X55833Y-28568D01*
X55733Y-28702D01*
X55660Y-28852D01*
X55615Y-29013D01*
X55600Y-29179D01*
X55600Y-29500D01*
X55616Y-29679D01*
X55664Y-29853D01*
X55743Y-30014D01*
X55849Y-30160D01*
X55979Y-30284D01*
X56129Y-30382D01*
X57088Y-30894D01*
X57300Y-31000D01*
X57357Y-31035D01*
X57406Y-31080D01*
X57445Y-31133D01*
X57474Y-31193D01*
X57492Y-31257D01*
X57498Y-31323D01*
X57407Y-39631D01*
X57391Y-39798D01*
X57347Y-39961D01*
X57277Y-40114D01*
X57182Y-40253D01*
X57065Y-40373D01*
X56929Y-40473D01*
X56779Y-40549D01*
X56529Y-40649D01*
X56377Y-40725D01*
X56240Y-40826D01*
X56123Y-40948D01*
X56027Y-41089D01*
X55957Y-41243D01*
X55914Y-41408D01*
X55900Y-41577D01*
X55900Y-41893D01*
X55918Y-42080D01*
X55970Y-42260D01*
X56054Y-42427D01*
X56169Y-42575D01*
X56309Y-42700D01*
X56991Y-43200D01*
X57131Y-43325D01*
X57246Y-43473D01*
X57330Y-43640D01*
X57382Y-43820D01*
X57400Y-44007D01*
X57400Y-51934D01*
X57385Y-52105D01*
X57342Y-52271D01*
X57270Y-52427D01*
X57173Y-52568D01*
X57053Y-52691D01*
X56914Y-52791D01*
X56386Y-53109D01*
X56247Y-53209D01*
X56127Y-53332D01*
X56030Y-53473D01*
X55958Y-53629D01*
X55915Y-53795D01*
X55900Y-53966D01*
X55900Y-54434D01*
X55915Y-54605D01*
X55958Y-54771D01*
X56030Y-54927D01*
X56127Y-55068D01*
X56247Y-55191D01*
X56386Y-55291D01*
X56914Y-55609D01*
X57053Y-55709D01*
X57173Y-55832D01*
X57270Y-55973D01*
X57342Y-56129D01*
X57385Y-56295D01*
X57400Y-56466D01*
X57400Y-65800D01*
X57419Y-65995D01*
X57476Y-66183D01*
X57569Y-66356D01*
X57693Y-66507D01*
X57844Y-66631D01*
X58017Y-66724D01*
X58205Y-66781D01*
X58400Y-66800D01*
X59300Y-66800D01*
X59300Y-66800D01*
G37*
G54D41*
X59300Y-66800D02*
X59495Y-66781D01*
X59683Y-66724D01*
X59856Y-66631D01*
X60007Y-66507D01*
X60131Y-66356D01*
X60224Y-66183D01*
X60281Y-65995D01*
X60300Y-65800D01*
X60300Y-08700D01*
X60281Y-08505D01*
X60224Y-08317D01*
X60131Y-08144D01*
X60007Y-07993D01*
X59856Y-07869D01*
X59683Y-07776D01*
X59495Y-07719D01*
X59300Y-07700D01*
X52700Y-07700D01*
X52505Y-07719D01*
X52317Y-07776D01*
X52144Y-07869D01*
X51993Y-07993D01*
X51869Y-08144D01*
X51776Y-08317D01*
X51719Y-08505D01*
X51700Y-08700D01*
X51700Y-16400D01*
X51719Y-16595D01*
X51776Y-16783D01*
X51869Y-16956D01*
X51993Y-17107D01*
X52144Y-17231D01*
X52317Y-17324D01*
X52505Y-17381D01*
X52700Y-17400D01*
X56081Y-17400D01*
X56257Y-17416D01*
X56427Y-17462D01*
X56587Y-17537D01*
X56730Y-17639D01*
X56854Y-17765D01*
X56953Y-17911D01*
X57026Y-18072D01*
X57069Y-18243D01*
X57081Y-18419D01*
X56913Y-27420D01*
X56895Y-27587D01*
X56847Y-27748D01*
X56771Y-27898D01*
X56670Y-28032D01*
X56547Y-28146D01*
X56405Y-28236D01*
X56250Y-28300D01*
X56249Y-28300D01*
X56095Y-28364D01*
X55954Y-28454D01*
X55833Y-28568D01*
X55733Y-28702D01*
X55660Y-28852D01*
X55615Y-29013D01*
X55600Y-29179D01*
X55600Y-29500D01*
X55616Y-29679D01*
X55664Y-29853D01*
X55743Y-30014D01*
X55849Y-30160D01*
X55979Y-30284D01*
X56129Y-30382D01*
X57088Y-30894D01*
X57300Y-31000D01*
X57357Y-31035D01*
X57406Y-31080D01*
X57445Y-31133D01*
X57474Y-31193D01*
X57492Y-31257D01*
X57498Y-31323D01*
X57407Y-39631D01*
X57391Y-39798D01*
X57347Y-39961D01*
X57277Y-40114D01*
X57182Y-40253D01*
X57065Y-40373D01*
X56929Y-40473D01*
X56779Y-40549D01*
X56529Y-40649D01*
X56377Y-40725D01*
X56240Y-40826D01*
X56123Y-40948D01*
X56027Y-41089D01*
X55957Y-41243D01*
X55914Y-41408D01*
X55900Y-41577D01*
X55900Y-41893D01*
X55918Y-42080D01*
X55970Y-42260D01*
X56054Y-42427D01*
X56169Y-42575D01*
X56309Y-42700D01*
X56991Y-43200D01*
X57131Y-43325D01*
X57246Y-43473D01*
X57330Y-43640D01*
X57382Y-43820D01*
X57400Y-44007D01*
X57400Y-51934D01*
X57385Y-52105D01*
X57342Y-52271D01*
X57270Y-52427D01*
X57173Y-52568D01*
X57053Y-52691D01*
X56914Y-52791D01*
X56386Y-53109D01*
X56247Y-53209D01*
X56127Y-53332D01*
X56030Y-53473D01*
X55958Y-53629D01*
X55915Y-53795D01*
X55900Y-53966D01*
X55900Y-54434D01*
X55915Y-54605D01*
X55958Y-54771D01*
X56030Y-54927D01*
X56127Y-55068D01*
X56247Y-55191D01*
X56386Y-55291D01*
X56914Y-55609D01*
X57053Y-55709D01*
X57173Y-55832D01*
X57270Y-55973D01*
X57342Y-56129D01*
X57385Y-56295D01*
X57400Y-56466D01*
X57400Y-65800D01*
X57419Y-65995D01*
X57476Y-66183D01*
X57569Y-66356D01*
X57693Y-66507D01*
X57844Y-66631D01*
X58017Y-66724D01*
X58205Y-66781D01*
X58400Y-66800D01*
X59300Y-66800D01*
M02*
