M48
;DRILL file {PCBnew (2011-05-25)-stable} date Sat 11 Aug 2012 11:46:46 PM MDT
;FORMAT={-:-/ absolute / inch / decimal}
FMAT,2
INCH,TZ
T1C0.025
T2C0.032
T3C0.060
%
G90
G05
M72
T1
X0.680Y-1.210
X0.680Y-1.310
X0.800Y-1.304
X0.800Y-1.634
X0.900Y-1.034
X0.960Y-1.194
X1.010Y-1.594
X1.010Y-1.654
X1.130Y-1.614
X1.160Y-1.444
X1.260Y-1.474
X1.280Y-1.584
X1.350Y-1.514
X1.360Y-1.624
X1.440Y-1.224
X1.440Y-1.624
X1.470Y-1.184
X1.480Y-1.464
X1.550Y-1.154
X1.580Y-1.464
X1.590Y-1.514
X1.670Y-1.214
X1.690Y-1.434
X1.710Y-1.554
X1.730Y-1.634
X1.790Y-1.444
X1.830Y-1.154
X1.850Y-1.564
X1.870Y-1.624
X1.900Y-1.324
X1.910Y-1.114
X1.970Y-1.194
X1.990Y-1.374
X2.020Y-1.624
X2.120Y-1.414
T2
X1.430Y-0.990
X1.430Y-1.790
X1.530Y-0.990
X1.530Y-1.790
X1.630Y-0.990
X1.630Y-1.790
X1.730Y-0.990
X1.730Y-1.790
X1.830Y-0.990
X1.830Y-1.790
X1.930Y-0.990
X1.930Y-1.790
X2.030Y-0.990
X2.030Y-1.790
T3
X0.680Y-1.104
X2.170Y-1.104
T0
M30
