G04 (created by PCBNEW-RS274X (2011-05-25)-stable) date Sat 11 Aug 2012 11:46:33 PM MDT*
G01*
G70*
G90*
%MOIN*%
G04 Gerber Fmt 3.4, Leading zero omitted, Abs format*
%FSLAX34Y34*%
G04 APERTURE LIST*
%ADD10C,0.006000*%
%ADD11C,0.015000*%
%ADD12C,0.006500*%
%ADD13C,0.005000*%
%ADD14C,0.012000*%
G04 APERTURE END LIST*
G54D10*
G54D11*
X22900Y-18800D02*
X22900Y-18700D01*
X22700Y-18800D02*
X22900Y-18800D01*
X22900Y-09000D02*
X22900Y-09100D01*
X22800Y-09000D02*
X22900Y-09000D01*
X05700Y-09000D02*
X05700Y-09200D01*
X22900Y-09100D02*
X22900Y-18700D01*
X05700Y-09000D02*
X22800Y-09000D01*
X05700Y-18800D02*
X05700Y-09200D01*
X22700Y-18800D02*
X05700Y-18800D01*
G54D12*
X16000Y-12240D02*
X16000Y-15240D01*
X14600Y-15240D02*
X14600Y-12240D01*
X16000Y-12240D02*
X14600Y-12240D01*
G54D10*
X14600Y-15240D02*
X16000Y-15240D01*
G54D13*
X14941Y-15040D02*
X14938Y-15067D01*
X14930Y-15093D01*
X14917Y-15118D01*
X14900Y-15139D01*
X14878Y-15156D01*
X14854Y-15169D01*
X14828Y-15178D01*
X14800Y-15180D01*
X14774Y-15178D01*
X14748Y-15170D01*
X14723Y-15157D01*
X14702Y-15140D01*
X14684Y-15119D01*
X14671Y-15095D01*
X14663Y-15069D01*
X14660Y-15041D01*
X14662Y-15015D01*
X14669Y-14989D01*
X14682Y-14964D01*
X14699Y-14943D01*
X14720Y-14925D01*
X14744Y-14911D01*
X14770Y-14903D01*
X14798Y-14900D01*
X14824Y-14902D01*
X14850Y-14909D01*
X14875Y-14921D01*
X14897Y-14938D01*
X14915Y-14959D01*
X14928Y-14983D01*
X14937Y-15009D01*
X14940Y-15037D01*
X14941Y-15040D01*
X15550Y-15240D02*
X15550Y-14940D01*
X15550Y-14940D02*
X15050Y-14940D01*
X15050Y-14940D02*
X15050Y-15240D01*
G54D11*
X08392Y-16620D02*
X12408Y-16620D01*
X12408Y-16620D02*
X12408Y-14809D01*
X12408Y-14809D02*
X08392Y-14809D01*
X08392Y-14809D02*
X08392Y-16620D01*
X13569Y-17270D02*
X13569Y-11010D01*
X13569Y-11010D02*
X07231Y-10990D01*
X07231Y-10990D02*
X07231Y-17270D01*
X07231Y-17270D02*
X13569Y-17270D01*
G54D13*
X15371Y-13511D02*
X15614Y-13511D01*
X15643Y-13526D01*
X15657Y-13540D01*
X15671Y-13569D01*
X15671Y-13626D01*
X15657Y-13654D01*
X15643Y-13669D01*
X15614Y-13683D01*
X15371Y-13683D01*
X15671Y-13983D02*
X15671Y-13811D01*
X15671Y-13897D02*
X15371Y-13897D01*
X15414Y-13868D01*
X15443Y-13840D01*
X15457Y-13811D01*
X14871Y-12790D02*
X14871Y-12961D01*
X15171Y-12875D02*
X14871Y-12875D01*
X14871Y-13033D02*
X15171Y-13233D01*
X14871Y-13233D02*
X15171Y-13033D01*
X15014Y-13447D02*
X15029Y-13490D01*
X15043Y-13505D01*
X15071Y-13519D01*
X15114Y-13519D01*
X15143Y-13505D01*
X15157Y-13490D01*
X15171Y-13462D01*
X15171Y-13347D01*
X14871Y-13347D01*
X14871Y-13447D01*
X14886Y-13476D01*
X14900Y-13490D01*
X14929Y-13505D01*
X14957Y-13505D01*
X14986Y-13490D01*
X15000Y-13476D01*
X15014Y-13447D01*
X15014Y-13347D01*
X14871Y-13705D02*
X14871Y-13733D01*
X14886Y-13762D01*
X14900Y-13776D01*
X14929Y-13790D01*
X14986Y-13805D01*
X15057Y-13805D01*
X15114Y-13790D01*
X15143Y-13776D01*
X15157Y-13762D01*
X15171Y-13733D01*
X15171Y-13705D01*
X15157Y-13676D01*
X15143Y-13662D01*
X15114Y-13647D01*
X15057Y-13633D01*
X14986Y-13633D01*
X14929Y-13647D01*
X14900Y-13662D01*
X14886Y-13676D01*
X14871Y-13705D01*
X15171Y-14091D02*
X15171Y-13919D01*
X15171Y-14005D02*
X14871Y-14005D01*
X14914Y-13976D01*
X14943Y-13948D01*
X14957Y-13919D01*
X14871Y-14277D02*
X14871Y-14305D01*
X14886Y-14334D01*
X14900Y-14348D01*
X14929Y-14362D01*
X14986Y-14377D01*
X15057Y-14377D01*
X15114Y-14362D01*
X15143Y-14348D01*
X15157Y-14334D01*
X15171Y-14305D01*
X15171Y-14277D01*
X15157Y-14248D01*
X15143Y-14234D01*
X15114Y-14219D01*
X15057Y-14205D01*
X14986Y-14205D01*
X14929Y-14219D01*
X14900Y-14234D01*
X14886Y-14248D01*
X14871Y-14277D01*
X15000Y-14548D02*
X14986Y-14520D01*
X14971Y-14505D01*
X14943Y-14491D01*
X14929Y-14491D01*
X14900Y-14505D01*
X14886Y-14520D01*
X14871Y-14548D01*
X14871Y-14605D01*
X14886Y-14634D01*
X14900Y-14648D01*
X14929Y-14663D01*
X14943Y-14663D01*
X14971Y-14648D01*
X14986Y-14634D01*
X15000Y-14605D01*
X15000Y-14548D01*
X15014Y-14520D01*
X15029Y-14505D01*
X15057Y-14491D01*
X15114Y-14491D01*
X15143Y-14505D01*
X15157Y-14520D01*
X15171Y-14548D01*
X15171Y-14605D01*
X15157Y-14634D01*
X15143Y-14648D01*
X15114Y-14663D01*
X15057Y-14663D01*
X15029Y-14648D01*
X15014Y-14634D01*
X15000Y-14605D01*
G54D14*
X10437Y-13683D02*
X10923Y-13683D01*
X10980Y-13711D01*
X11008Y-13740D01*
X11037Y-13797D01*
X11037Y-13911D01*
X11008Y-13969D01*
X10980Y-13997D01*
X10923Y-14026D01*
X10437Y-14026D01*
X10494Y-14283D02*
X10465Y-14312D01*
X10437Y-14369D01*
X10437Y-14512D01*
X10465Y-14569D01*
X10494Y-14598D01*
X10551Y-14626D01*
X10608Y-14626D01*
X10694Y-14598D01*
X11037Y-14255D01*
X11037Y-14626D01*
M02*
