G04 (created by PCBNEW-RS274X (2011-05-25)-stable) date Mon 06 Aug 2012 09:01:28 PM MDT*
G01*
G70*
G90*
%MOIN*%
G04 Gerber Fmt 3.4, Leading zero omitted, Abs format*
%FSLAX34Y34*%
G04 APERTURE LIST*
%ADD10C,0.006000*%
%ADD11C,0.015000*%
%ADD12C,0.012000*%
%ADD13R,0.120000X0.120000*%
%ADD14C,0.120000*%
%ADD15R,0.060000X0.060000*%
%ADD16C,0.060000*%
%ADD17C,0.066000*%
%ADD18O,0.090000X0.062000*%
%ADD19R,0.090000X0.062000*%
%ADD20O,0.062000X0.090000*%
%ADD21R,0.062000X0.090000*%
%ADD22C,0.070000*%
%ADD23R,0.070000X0.070000*%
%ADD24R,0.055000X0.055000*%
%ADD25C,0.055000*%
%ADD26R,0.078700X0.055100*%
%ADD27O,0.156000X0.078000*%
%ADD28R,0.065000X0.065000*%
%ADD29C,0.065000*%
%ADD30R,0.030000X0.020000*%
%ADD31O,0.078000X0.156000*%
%ADD32O,0.098400X0.070900*%
%ADD33C,0.300000*%
%ADD34R,0.127600X0.127600*%
%ADD35C,0.127600*%
%ADD36C,0.045000*%
%ADD37C,0.035000*%
%ADD38C,0.030000*%
%ADD39C,0.015800*%
%ADD40C,0.010000*%
G04 APERTURE END LIST*
G54D10*
G54D11*
X28250Y-64750D02*
X28250Y-62500D01*
X88250Y-64750D02*
X88250Y-62500D01*
G54D12*
X85007Y-48324D02*
X85007Y-47524D01*
X85350Y-48324D01*
X85350Y-47524D01*
X85636Y-47905D02*
X85836Y-47905D01*
X85922Y-48324D02*
X85636Y-48324D01*
X85636Y-47524D01*
X85922Y-47524D01*
X86493Y-47562D02*
X86436Y-47524D01*
X86350Y-47524D01*
X86265Y-47562D01*
X86207Y-47638D01*
X86179Y-47714D01*
X86150Y-47867D01*
X86150Y-47981D01*
X86179Y-48133D01*
X86207Y-48210D01*
X86265Y-48286D01*
X86350Y-48324D01*
X86407Y-48324D01*
X86493Y-48286D01*
X86522Y-48248D01*
X86522Y-47981D01*
X86407Y-47981D01*
X84269Y-53806D02*
X84269Y-53349D01*
X84574Y-53578D02*
X83964Y-53578D01*
X84574Y-52749D02*
X84574Y-53092D01*
X84574Y-52920D02*
X83774Y-52920D01*
X83888Y-52977D01*
X83964Y-53035D01*
X84002Y-53092D01*
X83850Y-52521D02*
X83812Y-52492D01*
X83774Y-52435D01*
X83774Y-52292D01*
X83812Y-52235D01*
X83850Y-52206D01*
X83926Y-52178D01*
X84002Y-52178D01*
X84117Y-52206D01*
X84574Y-52549D01*
X84574Y-52178D01*
X83774Y-52007D02*
X84574Y-51807D01*
X83774Y-51607D01*
G54D11*
X88250Y-61250D02*
X88250Y-62500D01*
X28250Y-62500D02*
X28250Y-60750D01*
G54D12*
X33172Y-13774D02*
X33286Y-13774D01*
X33344Y-13812D01*
X33401Y-13888D01*
X33429Y-14040D01*
X33429Y-14307D01*
X33401Y-14460D01*
X33344Y-14536D01*
X33286Y-14574D01*
X33172Y-14574D01*
X33115Y-14536D01*
X33058Y-14460D01*
X33029Y-14307D01*
X33029Y-14040D01*
X33058Y-13888D01*
X33115Y-13812D01*
X33172Y-13774D01*
X33687Y-14040D02*
X33687Y-14840D01*
X33687Y-14079D02*
X33744Y-14040D01*
X33858Y-14040D01*
X33915Y-14079D01*
X33944Y-14117D01*
X33973Y-14193D01*
X33973Y-14421D01*
X33944Y-14498D01*
X33915Y-14536D01*
X33858Y-14574D01*
X33744Y-14574D01*
X33687Y-14536D01*
X34458Y-14536D02*
X34401Y-14574D01*
X34287Y-14574D01*
X34230Y-14536D01*
X34201Y-14460D01*
X34201Y-14155D01*
X34230Y-14079D01*
X34287Y-14040D01*
X34401Y-14040D01*
X34458Y-14079D01*
X34487Y-14155D01*
X34487Y-14231D01*
X34201Y-14307D01*
X34744Y-14040D02*
X34744Y-14574D01*
X34744Y-14117D02*
X34772Y-14079D01*
X34830Y-14040D01*
X34915Y-14040D01*
X34972Y-14079D01*
X35001Y-14155D01*
X35001Y-14574D01*
X35573Y-14574D02*
X35287Y-14574D01*
X35287Y-13774D01*
X36030Y-14574D02*
X36030Y-14155D01*
X36001Y-14079D01*
X35944Y-14040D01*
X35830Y-14040D01*
X35773Y-14079D01*
X36030Y-14536D02*
X35973Y-14574D01*
X35830Y-14574D01*
X35773Y-14536D01*
X35744Y-14460D01*
X35744Y-14383D01*
X35773Y-14307D01*
X35830Y-14269D01*
X35973Y-14269D01*
X36030Y-14231D01*
X36573Y-14040D02*
X36573Y-14574D01*
X36316Y-14040D02*
X36316Y-14460D01*
X36344Y-14536D01*
X36402Y-14574D01*
X36487Y-14574D01*
X36544Y-14536D01*
X36573Y-14498D01*
X36859Y-14040D02*
X36859Y-14574D01*
X36859Y-14117D02*
X36887Y-14079D01*
X36945Y-14040D01*
X37030Y-14040D01*
X37087Y-14079D01*
X37116Y-14155D01*
X37116Y-14574D01*
X37659Y-14536D02*
X37602Y-14574D01*
X37488Y-14574D01*
X37430Y-14536D01*
X37402Y-14498D01*
X37373Y-14421D01*
X37373Y-14193D01*
X37402Y-14117D01*
X37430Y-14079D01*
X37488Y-14040D01*
X37602Y-14040D01*
X37659Y-14079D01*
X37916Y-14574D02*
X37916Y-13774D01*
X38173Y-14574D02*
X38173Y-14155D01*
X38144Y-14079D01*
X38087Y-14040D01*
X38002Y-14040D01*
X37944Y-14079D01*
X37916Y-14117D01*
X38687Y-14536D02*
X38630Y-14574D01*
X38516Y-14574D01*
X38459Y-14536D01*
X38430Y-14460D01*
X38430Y-14155D01*
X38459Y-14079D01*
X38516Y-14040D01*
X38630Y-14040D01*
X38687Y-14079D01*
X38716Y-14155D01*
X38716Y-14231D01*
X38430Y-14307D01*
X38973Y-14574D02*
X38973Y-14040D01*
X38973Y-14193D02*
X39001Y-14117D01*
X39030Y-14079D01*
X39087Y-14040D01*
X39144Y-14040D01*
X39915Y-13774D02*
X39972Y-13774D01*
X40029Y-13812D01*
X40058Y-13850D01*
X40087Y-13926D01*
X40115Y-14079D01*
X40115Y-14269D01*
X40087Y-14421D01*
X40058Y-14498D01*
X40029Y-14536D01*
X39972Y-14574D01*
X39915Y-14574D01*
X39858Y-14536D01*
X39829Y-14498D01*
X39801Y-14421D01*
X39772Y-14269D01*
X39772Y-14079D01*
X39801Y-13926D01*
X39829Y-13850D01*
X39858Y-13812D01*
X39915Y-13774D01*
X40372Y-14498D02*
X40400Y-14536D01*
X40372Y-14574D01*
X40343Y-14536D01*
X40372Y-14498D01*
X40372Y-14574D01*
X40972Y-14574D02*
X40629Y-14574D01*
X40801Y-14574D02*
X40801Y-13774D01*
X40744Y-13888D01*
X40686Y-13964D01*
X40629Y-14002D01*
X32673Y-15395D02*
X32759Y-15433D01*
X32787Y-15471D01*
X32816Y-15547D01*
X32816Y-15661D01*
X32787Y-15738D01*
X32759Y-15776D01*
X32701Y-15814D01*
X32473Y-15814D01*
X32473Y-15014D01*
X32673Y-15014D01*
X32730Y-15052D01*
X32759Y-15090D01*
X32787Y-15166D01*
X32787Y-15242D01*
X32759Y-15319D01*
X32730Y-15357D01*
X32673Y-15395D01*
X32473Y-15395D01*
X33073Y-15814D02*
X33073Y-15014D01*
X33673Y-15052D02*
X33616Y-15014D01*
X33530Y-15014D01*
X33445Y-15052D01*
X33387Y-15128D01*
X33359Y-15204D01*
X33330Y-15357D01*
X33330Y-15471D01*
X33359Y-15623D01*
X33387Y-15700D01*
X33445Y-15776D01*
X33530Y-15814D01*
X33587Y-15814D01*
X33673Y-15776D01*
X33702Y-15738D01*
X33702Y-15471D01*
X33587Y-15471D01*
X34759Y-15738D02*
X34730Y-15776D01*
X34644Y-15814D01*
X34587Y-15814D01*
X34502Y-15776D01*
X34444Y-15700D01*
X34416Y-15623D01*
X34387Y-15471D01*
X34387Y-15357D01*
X34416Y-15204D01*
X34444Y-15128D01*
X34502Y-15052D01*
X34587Y-15014D01*
X34644Y-15014D01*
X34730Y-15052D01*
X34759Y-15090D01*
X35102Y-15814D02*
X35044Y-15776D01*
X35016Y-15738D01*
X34987Y-15661D01*
X34987Y-15433D01*
X35016Y-15357D01*
X35044Y-15319D01*
X35102Y-15280D01*
X35187Y-15280D01*
X35244Y-15319D01*
X35273Y-15357D01*
X35302Y-15433D01*
X35302Y-15661D01*
X35273Y-15738D01*
X35244Y-15776D01*
X35187Y-15814D01*
X35102Y-15814D01*
X35559Y-15814D02*
X35559Y-15280D01*
X35559Y-15433D02*
X35587Y-15357D01*
X35616Y-15319D01*
X35673Y-15280D01*
X35730Y-15280D01*
X36158Y-15776D02*
X36101Y-15814D01*
X35987Y-15814D01*
X35930Y-15776D01*
X35901Y-15700D01*
X35901Y-15395D01*
X35930Y-15319D01*
X35987Y-15280D01*
X36101Y-15280D01*
X36158Y-15319D01*
X36187Y-15395D01*
X36187Y-15471D01*
X35901Y-15547D01*
X36901Y-15814D02*
X36901Y-15014D01*
X36901Y-15319D02*
X36958Y-15280D01*
X37072Y-15280D01*
X37129Y-15319D01*
X37158Y-15357D01*
X37187Y-15433D01*
X37187Y-15661D01*
X37158Y-15738D01*
X37129Y-15776D01*
X37072Y-15814D01*
X36958Y-15814D01*
X36901Y-15776D01*
X37530Y-15814D02*
X37472Y-15776D01*
X37444Y-15738D01*
X37415Y-15661D01*
X37415Y-15433D01*
X37444Y-15357D01*
X37472Y-15319D01*
X37530Y-15280D01*
X37615Y-15280D01*
X37672Y-15319D01*
X37701Y-15357D01*
X37730Y-15433D01*
X37730Y-15661D01*
X37701Y-15738D01*
X37672Y-15776D01*
X37615Y-15814D01*
X37530Y-15814D01*
X38244Y-15814D02*
X38244Y-15395D01*
X38215Y-15319D01*
X38158Y-15280D01*
X38044Y-15280D01*
X37987Y-15319D01*
X38244Y-15776D02*
X38187Y-15814D01*
X38044Y-15814D01*
X37987Y-15776D01*
X37958Y-15700D01*
X37958Y-15623D01*
X37987Y-15547D01*
X38044Y-15509D01*
X38187Y-15509D01*
X38244Y-15471D01*
X38530Y-15814D02*
X38530Y-15280D01*
X38530Y-15433D02*
X38558Y-15357D01*
X38587Y-15319D01*
X38644Y-15280D01*
X38701Y-15280D01*
X39158Y-15814D02*
X39158Y-15014D01*
X39158Y-15776D02*
X39101Y-15814D01*
X38987Y-15814D01*
X38929Y-15776D01*
X38901Y-15738D01*
X38872Y-15661D01*
X38872Y-15433D01*
X38901Y-15357D01*
X38929Y-15319D01*
X38987Y-15280D01*
X39101Y-15280D01*
X39158Y-15319D01*
X39901Y-15814D02*
X39901Y-15280D01*
X39901Y-15433D02*
X39929Y-15357D01*
X39958Y-15319D01*
X40015Y-15280D01*
X40072Y-15280D01*
X40500Y-15776D02*
X40443Y-15814D01*
X40329Y-15814D01*
X40272Y-15776D01*
X40243Y-15700D01*
X40243Y-15395D01*
X40272Y-15319D01*
X40329Y-15280D01*
X40443Y-15280D01*
X40500Y-15319D01*
X40529Y-15395D01*
X40529Y-15471D01*
X40243Y-15547D01*
X40729Y-15280D02*
X40872Y-15814D01*
X41014Y-15280D01*
X41357Y-15014D02*
X41414Y-15014D01*
X41471Y-15052D01*
X41500Y-15090D01*
X41529Y-15166D01*
X41557Y-15319D01*
X41557Y-15509D01*
X41529Y-15661D01*
X41500Y-15738D01*
X41471Y-15776D01*
X41414Y-15814D01*
X41357Y-15814D01*
X41300Y-15776D01*
X41271Y-15738D01*
X41243Y-15661D01*
X41214Y-15509D01*
X41214Y-15319D01*
X41243Y-15166D01*
X41271Y-15090D01*
X41300Y-15052D01*
X41357Y-15014D01*
X30344Y-16978D02*
X30315Y-17016D01*
X30229Y-17054D01*
X30172Y-17054D01*
X30087Y-17016D01*
X30029Y-16940D01*
X30001Y-16863D01*
X29972Y-16711D01*
X29972Y-16597D01*
X30001Y-16444D01*
X30029Y-16368D01*
X30087Y-16292D01*
X30172Y-16254D01*
X30229Y-16254D01*
X30315Y-16292D01*
X30344Y-16330D01*
X30601Y-17054D02*
X30601Y-16520D01*
X30601Y-16673D02*
X30629Y-16597D01*
X30658Y-16559D01*
X30715Y-16520D01*
X30772Y-16520D01*
X31200Y-17016D02*
X31143Y-17054D01*
X31029Y-17054D01*
X30972Y-17016D01*
X30943Y-16940D01*
X30943Y-16635D01*
X30972Y-16559D01*
X31029Y-16520D01*
X31143Y-16520D01*
X31200Y-16559D01*
X31229Y-16635D01*
X31229Y-16711D01*
X30943Y-16787D01*
X31743Y-17054D02*
X31743Y-16635D01*
X31714Y-16559D01*
X31657Y-16520D01*
X31543Y-16520D01*
X31486Y-16559D01*
X31743Y-17016D02*
X31686Y-17054D01*
X31543Y-17054D01*
X31486Y-17016D01*
X31457Y-16940D01*
X31457Y-16863D01*
X31486Y-16787D01*
X31543Y-16749D01*
X31686Y-16749D01*
X31743Y-16711D01*
X31943Y-16520D02*
X32172Y-16520D01*
X32029Y-16254D02*
X32029Y-16940D01*
X32057Y-17016D01*
X32115Y-17054D01*
X32172Y-17054D01*
X32372Y-17054D02*
X32372Y-16520D01*
X32372Y-16254D02*
X32343Y-16292D01*
X32372Y-16330D01*
X32400Y-16292D01*
X32372Y-16254D01*
X32372Y-16330D01*
X32601Y-16520D02*
X32744Y-17054D01*
X32886Y-16520D01*
X33343Y-17016D02*
X33286Y-17054D01*
X33172Y-17054D01*
X33115Y-17016D01*
X33086Y-16940D01*
X33086Y-16635D01*
X33115Y-16559D01*
X33172Y-16520D01*
X33286Y-16520D01*
X33343Y-16559D01*
X33372Y-16635D01*
X33372Y-16711D01*
X33086Y-16787D01*
X34429Y-16978D02*
X34400Y-17016D01*
X34314Y-17054D01*
X34257Y-17054D01*
X34172Y-17016D01*
X34114Y-16940D01*
X34086Y-16863D01*
X34057Y-16711D01*
X34057Y-16597D01*
X34086Y-16444D01*
X34114Y-16368D01*
X34172Y-16292D01*
X34257Y-16254D01*
X34314Y-16254D01*
X34400Y-16292D01*
X34429Y-16330D01*
X34772Y-17054D02*
X34714Y-17016D01*
X34686Y-16978D01*
X34657Y-16901D01*
X34657Y-16673D01*
X34686Y-16597D01*
X34714Y-16559D01*
X34772Y-16520D01*
X34857Y-16520D01*
X34914Y-16559D01*
X34943Y-16597D01*
X34972Y-16673D01*
X34972Y-16901D01*
X34943Y-16978D01*
X34914Y-17016D01*
X34857Y-17054D01*
X34772Y-17054D01*
X35229Y-17054D02*
X35229Y-16520D01*
X35229Y-16597D02*
X35257Y-16559D01*
X35315Y-16520D01*
X35400Y-16520D01*
X35457Y-16559D01*
X35486Y-16635D01*
X35486Y-17054D01*
X35486Y-16635D02*
X35515Y-16559D01*
X35572Y-16520D01*
X35657Y-16520D01*
X35715Y-16559D01*
X35743Y-16635D01*
X35743Y-17054D01*
X36029Y-17054D02*
X36029Y-16520D01*
X36029Y-16597D02*
X36057Y-16559D01*
X36115Y-16520D01*
X36200Y-16520D01*
X36257Y-16559D01*
X36286Y-16635D01*
X36286Y-17054D01*
X36286Y-16635D02*
X36315Y-16559D01*
X36372Y-16520D01*
X36457Y-16520D01*
X36515Y-16559D01*
X36543Y-16635D01*
X36543Y-17054D01*
X36915Y-17054D02*
X36857Y-17016D01*
X36829Y-16978D01*
X36800Y-16901D01*
X36800Y-16673D01*
X36829Y-16597D01*
X36857Y-16559D01*
X36915Y-16520D01*
X37000Y-16520D01*
X37057Y-16559D01*
X37086Y-16597D01*
X37115Y-16673D01*
X37115Y-16901D01*
X37086Y-16978D01*
X37057Y-17016D01*
X37000Y-17054D01*
X36915Y-17054D01*
X37372Y-16520D02*
X37372Y-17054D01*
X37372Y-16597D02*
X37400Y-16559D01*
X37458Y-16520D01*
X37543Y-16520D01*
X37600Y-16559D01*
X37629Y-16635D01*
X37629Y-17054D01*
X37886Y-17016D02*
X37943Y-17054D01*
X38058Y-17054D01*
X38115Y-17016D01*
X38143Y-16940D01*
X38143Y-16901D01*
X38115Y-16825D01*
X38058Y-16787D01*
X37972Y-16787D01*
X37915Y-16749D01*
X37886Y-16673D01*
X37886Y-16635D01*
X37915Y-16559D01*
X37972Y-16520D01*
X38058Y-16520D01*
X38115Y-16559D01*
X38829Y-17016D02*
X38915Y-17054D01*
X39058Y-17054D01*
X39115Y-17016D01*
X39144Y-16978D01*
X39172Y-16901D01*
X39172Y-16825D01*
X39144Y-16749D01*
X39115Y-16711D01*
X39058Y-16673D01*
X38944Y-16635D01*
X38886Y-16597D01*
X38858Y-16559D01*
X38829Y-16482D01*
X38829Y-16406D01*
X38858Y-16330D01*
X38886Y-16292D01*
X38944Y-16254D01*
X39086Y-16254D01*
X39172Y-16292D01*
X39429Y-17054D02*
X39429Y-16254D01*
X39686Y-17054D02*
X39686Y-16635D01*
X39657Y-16559D01*
X39600Y-16520D01*
X39515Y-16520D01*
X39457Y-16559D01*
X39429Y-16597D01*
X40229Y-17054D02*
X40229Y-16635D01*
X40200Y-16559D01*
X40143Y-16520D01*
X40029Y-16520D01*
X39972Y-16559D01*
X40229Y-17016D02*
X40172Y-17054D01*
X40029Y-17054D01*
X39972Y-17016D01*
X39943Y-16940D01*
X39943Y-16863D01*
X39972Y-16787D01*
X40029Y-16749D01*
X40172Y-16749D01*
X40229Y-16711D01*
X40515Y-17054D02*
X40515Y-16520D01*
X40515Y-16673D02*
X40543Y-16597D01*
X40572Y-16559D01*
X40629Y-16520D01*
X40686Y-16520D01*
X41114Y-17016D02*
X41057Y-17054D01*
X40943Y-17054D01*
X40886Y-17016D01*
X40857Y-16940D01*
X40857Y-16635D01*
X40886Y-16559D01*
X40943Y-16520D01*
X41057Y-16520D01*
X41114Y-16559D01*
X41143Y-16635D01*
X41143Y-16711D01*
X40857Y-16787D01*
X41400Y-16749D02*
X41857Y-16749D01*
X42400Y-17054D02*
X42400Y-16635D01*
X42371Y-16559D01*
X42314Y-16520D01*
X42200Y-16520D01*
X42143Y-16559D01*
X42400Y-17016D02*
X42343Y-17054D01*
X42200Y-17054D01*
X42143Y-17016D01*
X42114Y-16940D01*
X42114Y-16863D01*
X42143Y-16787D01*
X42200Y-16749D01*
X42343Y-16749D01*
X42400Y-16711D01*
X42772Y-17054D02*
X42714Y-17016D01*
X42686Y-16940D01*
X42686Y-16254D01*
X43000Y-17054D02*
X43000Y-16520D01*
X43000Y-16254D02*
X42971Y-16292D01*
X43000Y-16330D01*
X43028Y-16292D01*
X43000Y-16254D01*
X43000Y-16330D01*
X43286Y-17054D02*
X43286Y-16254D01*
X43343Y-16749D02*
X43514Y-17054D01*
X43514Y-16520D02*
X43286Y-16825D01*
X44000Y-17016D02*
X43943Y-17054D01*
X43829Y-17054D01*
X43772Y-17016D01*
X43743Y-16940D01*
X43743Y-16635D01*
X43772Y-16559D01*
X43829Y-16520D01*
X43943Y-16520D01*
X44000Y-16559D01*
X44029Y-16635D01*
X44029Y-16711D01*
X43743Y-16787D01*
G54D11*
X28250Y-12250D02*
X28250Y-62250D01*
X88250Y-12250D02*
X28250Y-12250D01*
X88250Y-62250D02*
X88250Y-12250D01*
X28250Y-64750D02*
X88250Y-64750D01*
G54D13*
X55750Y-14750D03*
G54D14*
X40750Y-14750D03*
G54D15*
X65000Y-23000D03*
G54D16*
X66000Y-23000D03*
X67000Y-23000D03*
G54D15*
X65000Y-24500D03*
G54D16*
X66000Y-24500D03*
X67000Y-24500D03*
G54D15*
X65000Y-21500D03*
G54D16*
X66000Y-21500D03*
X67000Y-21500D03*
G54D15*
X34000Y-59750D03*
G54D16*
X35000Y-59750D03*
X36000Y-59750D03*
X37000Y-59750D03*
X38000Y-59750D03*
X39000Y-59750D03*
G54D15*
X46500Y-59750D03*
G54D16*
X47500Y-59750D03*
X48500Y-59750D03*
X49500Y-59750D03*
X50500Y-59750D03*
X51500Y-59750D03*
G54D17*
X85250Y-19250D03*
X86250Y-19250D03*
X86250Y-23500D03*
X85250Y-23500D03*
G54D18*
X49250Y-32750D03*
X49250Y-33750D03*
X49250Y-34750D03*
X49250Y-35750D03*
X49250Y-36750D03*
X49250Y-37750D03*
X49250Y-38750D03*
X49250Y-39750D03*
X49250Y-40750D03*
X49250Y-41750D03*
X49250Y-42750D03*
X49250Y-43750D03*
X49250Y-44750D03*
G54D19*
X49250Y-31750D03*
G54D18*
X52250Y-44750D03*
X52250Y-43750D03*
X52250Y-42750D03*
X52250Y-41750D03*
X52250Y-40750D03*
X52250Y-39750D03*
X52250Y-38750D03*
X52250Y-37750D03*
X52250Y-36750D03*
X52250Y-35750D03*
X52250Y-34750D03*
X52250Y-33750D03*
X52250Y-32750D03*
X52250Y-31750D03*
G54D20*
X34250Y-48250D03*
X35250Y-48250D03*
X36250Y-48250D03*
X37250Y-48250D03*
X38250Y-48250D03*
X39250Y-48250D03*
X40250Y-48250D03*
X41250Y-48250D03*
X42250Y-48250D03*
X43250Y-48250D03*
X44250Y-48250D03*
X45250Y-48250D03*
X46250Y-48250D03*
G54D21*
X33250Y-48250D03*
G54D20*
X46250Y-45250D03*
X45250Y-45250D03*
X44250Y-45250D03*
X43250Y-45250D03*
X42250Y-45250D03*
X41250Y-45250D03*
X40250Y-45250D03*
X39250Y-45250D03*
X38250Y-45250D03*
X37250Y-45250D03*
X36250Y-45250D03*
X35250Y-45250D03*
X34250Y-45250D03*
X33250Y-45250D03*
G54D21*
X49750Y-50750D03*
G54D20*
X50750Y-50750D03*
X51750Y-50750D03*
X52750Y-50750D03*
X53750Y-50750D03*
X54750Y-50750D03*
X55750Y-50750D03*
X56750Y-50750D03*
X57750Y-50750D03*
X57750Y-47750D03*
X56750Y-47750D03*
X55750Y-47750D03*
X54750Y-47750D03*
X53750Y-47750D03*
X52750Y-47750D03*
X51750Y-47750D03*
X50750Y-47750D03*
X49750Y-47750D03*
G54D22*
X82750Y-46250D03*
G54D23*
X86750Y-46250D03*
G54D24*
X85750Y-52750D03*
G54D25*
X82750Y-52750D03*
X69000Y-26750D03*
X67000Y-26750D03*
X74750Y-51250D03*
X72750Y-51250D03*
X55250Y-18000D03*
X55250Y-16000D03*
X77000Y-26750D03*
X77000Y-27750D03*
X69850Y-45350D03*
X71850Y-45350D03*
X77000Y-25750D03*
X77000Y-24750D03*
G54D15*
X59000Y-59750D03*
G54D16*
X60000Y-59750D03*
X61000Y-59750D03*
X62000Y-59750D03*
X63000Y-59750D03*
X64000Y-59750D03*
G54D23*
X66750Y-39750D03*
G54D22*
X66750Y-41750D03*
G54D25*
X83000Y-34750D03*
X83000Y-32750D03*
G54D22*
X66750Y-50750D03*
G54D23*
X66750Y-45750D03*
G54D22*
X75750Y-55250D03*
G54D23*
X71750Y-55250D03*
G54D24*
X77250Y-49750D03*
G54D25*
X77250Y-52750D03*
G54D24*
X77750Y-44500D03*
G54D25*
X74750Y-44500D03*
G54D15*
X72500Y-59750D03*
G54D16*
X73500Y-59750D03*
X74500Y-59750D03*
X75500Y-59750D03*
X76500Y-59750D03*
X77500Y-59750D03*
G54D26*
X62880Y-20093D03*
X62891Y-19305D03*
X62891Y-18518D03*
X62891Y-17750D03*
X62891Y-16982D03*
X62891Y-16195D03*
X62891Y-15407D03*
X56631Y-15407D03*
X56631Y-16195D03*
X56631Y-16982D03*
X56631Y-17750D03*
X56631Y-18518D03*
X56631Y-19305D03*
X56631Y-20093D03*
G54D18*
X73500Y-33750D03*
X73500Y-32750D03*
X73500Y-31750D03*
X73500Y-30750D03*
X73500Y-29750D03*
X73500Y-28750D03*
X73500Y-27750D03*
X73500Y-26750D03*
X73500Y-25750D03*
X73500Y-24750D03*
X73500Y-23750D03*
X73500Y-22750D03*
X73500Y-21750D03*
G54D19*
X73500Y-34750D03*
G54D18*
X70500Y-21750D03*
X70500Y-22750D03*
X70500Y-23750D03*
X70500Y-24750D03*
X70500Y-25750D03*
X70500Y-26750D03*
X70500Y-27750D03*
X70500Y-28750D03*
X70500Y-29750D03*
X70500Y-30750D03*
X70500Y-31750D03*
X70500Y-32750D03*
X70500Y-33750D03*
X70500Y-34750D03*
G54D15*
X68750Y-16500D03*
G54D16*
X68750Y-15500D03*
X69750Y-16500D03*
X69750Y-15500D03*
X70750Y-16500D03*
X70750Y-15500D03*
G54D25*
X87000Y-34750D03*
X87000Y-36750D03*
X84000Y-34750D03*
X84000Y-36750D03*
G54D27*
X85750Y-51240D03*
X85750Y-49270D03*
G54D28*
X68750Y-52250D03*
G54D29*
X69750Y-52250D03*
G54D23*
X62250Y-46750D03*
G54D22*
X64250Y-46750D03*
G54D25*
X64250Y-43750D03*
X62250Y-43750D03*
G54D23*
X76000Y-41000D03*
G54D22*
X76000Y-43000D03*
G54D28*
X76000Y-46250D03*
G54D29*
X76000Y-47250D03*
G54D25*
X75250Y-48750D03*
X77250Y-48750D03*
X67000Y-27750D03*
X69000Y-27750D03*
G54D29*
X67250Y-54250D03*
X64250Y-54250D03*
X64250Y-53250D03*
X67250Y-53250D03*
X86250Y-41750D03*
X86250Y-44750D03*
X84250Y-44750D03*
X84250Y-41750D03*
X45250Y-43750D03*
X45250Y-40750D03*
X70500Y-13750D03*
X73500Y-13750D03*
G54D24*
X64750Y-51250D03*
G54D25*
X63750Y-51250D03*
X63750Y-50250D03*
G54D30*
X73250Y-52375D03*
X73250Y-53125D03*
X74250Y-52375D03*
X73250Y-52750D03*
X74250Y-53125D03*
G54D22*
X75250Y-25250D03*
X75250Y-27250D03*
G54D21*
X43750Y-29250D03*
G54D20*
X44750Y-29250D03*
X45750Y-29250D03*
X46750Y-29250D03*
X47750Y-29250D03*
X48750Y-29250D03*
X49750Y-29250D03*
X50750Y-29250D03*
X51750Y-29250D03*
X51750Y-26250D03*
X50750Y-26250D03*
X49750Y-26250D03*
X48750Y-26250D03*
X47750Y-26250D03*
X46750Y-26250D03*
X45750Y-26250D03*
X44750Y-26250D03*
X43750Y-26250D03*
G54D21*
X33750Y-29250D03*
G54D20*
X34750Y-29250D03*
X35750Y-29250D03*
X36750Y-29250D03*
X37750Y-29250D03*
X38750Y-29250D03*
X39750Y-29250D03*
X40750Y-29250D03*
X41750Y-29250D03*
X41750Y-26250D03*
X40750Y-26250D03*
X39750Y-26250D03*
X38750Y-26250D03*
X37750Y-26250D03*
X36750Y-26250D03*
X35750Y-26250D03*
X34750Y-26250D03*
X33750Y-26250D03*
G54D21*
X33250Y-43750D03*
G54D20*
X34250Y-43750D03*
X35250Y-43750D03*
X36250Y-43750D03*
X37250Y-43750D03*
X38250Y-43750D03*
X39250Y-43750D03*
X40250Y-43750D03*
X41250Y-43750D03*
X41250Y-40750D03*
X40250Y-40750D03*
X39250Y-40750D03*
X38250Y-40750D03*
X37250Y-40750D03*
X36250Y-40750D03*
X35250Y-40750D03*
X34250Y-40750D03*
X33250Y-40750D03*
G54D21*
X41250Y-50750D03*
G54D20*
X40250Y-50750D03*
X39250Y-50750D03*
X38250Y-50750D03*
X37250Y-50750D03*
X36250Y-50750D03*
X35250Y-50750D03*
X34250Y-50750D03*
X33250Y-50750D03*
X33250Y-53750D03*
X34250Y-53750D03*
X35250Y-53750D03*
X36250Y-53750D03*
X37250Y-53750D03*
X38250Y-53750D03*
X39250Y-53750D03*
X40250Y-53750D03*
X41250Y-53750D03*
G54D29*
X83750Y-21000D03*
X80750Y-21000D03*
X83750Y-19250D03*
X80750Y-19250D03*
X53750Y-43750D03*
X56750Y-43750D03*
G54D31*
X41270Y-59750D03*
X43240Y-59750D03*
X79760Y-59750D03*
X81730Y-59750D03*
X53760Y-59750D03*
X55730Y-59750D03*
X66260Y-59750D03*
X68230Y-59750D03*
G54D21*
X41750Y-21750D03*
G54D20*
X40750Y-21750D03*
X39750Y-21750D03*
X38750Y-21750D03*
X37750Y-21750D03*
X36750Y-21750D03*
X35750Y-21750D03*
X34750Y-21750D03*
X34750Y-24750D03*
X35750Y-24750D03*
X36750Y-24750D03*
X37750Y-24750D03*
X38750Y-24750D03*
X39750Y-24750D03*
X40750Y-24750D03*
X41750Y-24750D03*
G54D21*
X42750Y-24750D03*
G54D20*
X43750Y-24750D03*
X44750Y-24750D03*
X45750Y-24750D03*
X46750Y-24750D03*
X47750Y-24750D03*
X48750Y-24750D03*
X49750Y-24750D03*
X49750Y-21750D03*
X48750Y-21750D03*
X47750Y-21750D03*
X46750Y-21750D03*
X45750Y-21750D03*
X44750Y-21750D03*
X43750Y-21750D03*
X42750Y-21750D03*
G54D15*
X86250Y-33250D03*
G54D16*
X86250Y-32250D03*
X86250Y-31250D03*
X86250Y-30250D03*
X86250Y-29250D03*
X86250Y-28250D03*
G54D32*
X78754Y-47750D03*
X78754Y-46372D03*
X78754Y-49128D03*
X79935Y-48459D03*
X79935Y-47041D03*
G54D33*
X30750Y-14750D03*
X85750Y-14750D03*
X30750Y-59750D03*
X85750Y-59750D03*
G54D24*
X49750Y-52250D03*
G54D25*
X50750Y-52250D03*
X51750Y-52250D03*
X52750Y-52250D03*
X53750Y-52250D03*
X54750Y-52250D03*
X55750Y-52250D03*
X56750Y-52250D03*
X57750Y-52250D03*
G54D29*
X81250Y-29000D03*
X81250Y-26000D03*
X81250Y-30750D03*
X81250Y-33750D03*
X53750Y-41750D03*
X56750Y-41750D03*
X43250Y-43750D03*
X43250Y-40750D03*
G54D15*
X51750Y-53750D03*
G54D16*
X50750Y-53750D03*
X49750Y-53750D03*
G54D15*
X54250Y-26750D03*
G54D16*
X54250Y-27750D03*
X54250Y-28750D03*
G54D15*
X31250Y-26750D03*
G54D16*
X31250Y-27750D03*
X31250Y-28750D03*
G54D15*
X30750Y-41250D03*
G54D16*
X30750Y-42250D03*
X30750Y-43250D03*
G54D15*
X30750Y-51250D03*
G54D16*
X30750Y-52250D03*
X30750Y-53250D03*
G54D17*
X82500Y-30250D03*
X82500Y-29250D03*
X82500Y-26000D03*
X82500Y-25000D03*
G54D21*
X33250Y-39250D03*
G54D20*
X34250Y-39250D03*
X35250Y-39250D03*
X36250Y-39250D03*
X37250Y-39250D03*
X38250Y-39250D03*
X39250Y-39250D03*
X40250Y-39250D03*
X40250Y-36250D03*
X39250Y-36250D03*
X38250Y-36250D03*
X37250Y-36250D03*
X36250Y-36250D03*
X35250Y-36250D03*
X34250Y-36250D03*
X33250Y-36250D03*
G54D15*
X41750Y-18750D03*
G54D16*
X40750Y-18750D03*
X39750Y-18750D03*
X38750Y-18750D03*
X37750Y-18750D03*
G54D15*
X51750Y-18750D03*
G54D16*
X50750Y-18750D03*
X49750Y-18750D03*
X48750Y-18750D03*
X47750Y-18750D03*
G54D15*
X56750Y-53750D03*
G54D16*
X55750Y-53750D03*
X54750Y-53750D03*
X53750Y-53750D03*
X52750Y-53750D03*
G54D15*
X40250Y-33250D03*
G54D16*
X39250Y-33250D03*
X38250Y-33250D03*
X37250Y-33250D03*
X36250Y-33250D03*
G54D24*
X79500Y-30500D03*
G54D25*
X79500Y-29500D03*
X78500Y-29500D03*
G54D24*
X80500Y-25000D03*
G54D25*
X80500Y-24000D03*
X79500Y-24000D03*
G54D15*
X75500Y-15500D03*
G54D16*
X75500Y-16500D03*
G54D15*
X73250Y-15500D03*
G54D16*
X73250Y-16500D03*
G54D15*
X36750Y-18750D03*
G54D16*
X35750Y-18750D03*
X34750Y-18750D03*
X33750Y-18750D03*
X32750Y-18750D03*
G54D15*
X46750Y-18750D03*
G54D16*
X45750Y-18750D03*
X44750Y-18750D03*
X43750Y-18750D03*
X42750Y-18750D03*
G54D15*
X35250Y-33250D03*
G54D16*
X34250Y-33250D03*
X33250Y-33250D03*
X32250Y-33250D03*
X31250Y-33250D03*
G54D29*
X77250Y-14000D03*
X80250Y-14000D03*
G54D15*
X66750Y-31750D03*
G54D16*
X67750Y-31750D03*
X68750Y-31750D03*
G54D15*
X78750Y-17500D03*
G54D16*
X78750Y-16500D03*
X78750Y-15500D03*
G54D22*
X78550Y-54350D03*
X85550Y-54350D03*
G54D34*
X70250Y-42750D03*
G54D35*
X72250Y-40750D03*
G54D34*
X79750Y-43050D03*
G54D35*
X81750Y-41050D03*
G54D25*
X42000Y-49500D03*
X43000Y-49500D03*
X48000Y-39750D03*
X47000Y-39750D03*
X54500Y-45000D03*
X55500Y-45000D03*
X56500Y-45750D03*
X57500Y-45750D03*
G54D29*
X79000Y-52250D03*
X82000Y-52250D03*
G54D36*
X63750Y-39750D03*
X62250Y-42250D03*
G54D17*
X66750Y-37250D03*
X65750Y-37250D03*
X78250Y-56750D03*
X79250Y-56750D03*
X63250Y-42250D03*
X64250Y-42250D03*
G54D29*
X65500Y-45750D03*
X65500Y-42750D03*
X64500Y-34250D03*
X64500Y-37250D03*
X77250Y-53750D03*
X77250Y-56750D03*
G54D37*
X62250Y-38000D03*
X62250Y-41000D03*
X59000Y-43750D03*
X57000Y-44750D03*
X58250Y-44250D03*
X58250Y-40750D03*
X59250Y-38750D03*
X53250Y-40250D03*
X59250Y-34750D03*
X71450Y-30150D03*
X71250Y-29250D03*
X58750Y-36250D03*
X52250Y-41750D03*
X47750Y-42250D03*
X74750Y-28750D03*
X78750Y-35500D03*
X82000Y-50500D03*
X55000Y-44000D03*
X58250Y-39000D03*
X59250Y-23750D03*
X57250Y-39250D03*
X59250Y-25500D03*
X53750Y-42750D03*
X50000Y-46250D03*
X57000Y-36250D03*
X53750Y-40500D03*
X72750Y-33000D03*
X72250Y-31750D03*
X70250Y-39250D03*
X69000Y-40500D03*
X68750Y-50250D03*
X67000Y-52000D03*
X63000Y-14000D03*
X72500Y-52750D03*
X68750Y-21750D03*
X76000Y-32250D03*
X75000Y-33250D03*
X66250Y-19250D03*
X69500Y-19250D03*
X72250Y-19250D03*
X68000Y-21500D03*
X56750Y-20750D03*
X77500Y-22750D03*
X79000Y-22750D03*
X81250Y-16000D03*
X80000Y-14750D03*
X43500Y-33000D03*
X41750Y-32750D03*
X50250Y-33750D03*
X45000Y-33000D03*
X41750Y-27750D03*
X77500Y-28800D03*
X31750Y-41000D03*
X72750Y-49450D03*
X66750Y-35250D03*
X67750Y-28500D03*
X31750Y-51250D03*
X34250Y-56500D03*
X36000Y-56750D03*
X40000Y-58500D03*
X38750Y-57250D03*
X37500Y-56000D03*
X44750Y-55000D03*
X47750Y-58000D03*
X53250Y-55000D03*
X48000Y-54750D03*
X52000Y-58250D03*
X47000Y-54750D03*
X72000Y-58250D03*
X71000Y-57250D03*
X61000Y-54500D03*
X58500Y-49000D03*
X44000Y-50000D03*
X44100Y-50950D03*
X58250Y-49750D03*
X59500Y-52250D03*
X76500Y-58000D03*
G54D38*
X74250Y-53125D02*
X74250Y-54250D01*
G54D39*
X76750Y-54250D02*
X77250Y-53750D01*
X67250Y-54250D02*
X74250Y-54250D01*
X74250Y-54250D02*
X74450Y-54250D01*
X74450Y-54250D02*
X76750Y-54250D01*
X77250Y-53750D02*
X77250Y-52750D01*
G54D38*
X31250Y-26750D02*
X31750Y-27250D01*
X53750Y-27250D02*
X54250Y-26750D01*
X31750Y-27250D02*
X53750Y-27250D01*
G54D39*
X62250Y-42500D02*
X62250Y-41000D01*
X71000Y-27750D02*
X70500Y-27750D01*
X71850Y-28500D02*
X71000Y-27750D01*
X71850Y-35250D02*
X71850Y-28500D01*
X70750Y-36250D02*
X71850Y-35250D01*
X64000Y-36250D02*
X70750Y-36250D01*
X62250Y-38000D02*
X64000Y-36250D01*
X62250Y-42500D02*
X62250Y-43750D01*
X56500Y-45750D02*
X57000Y-45250D01*
X57000Y-45250D02*
X57000Y-44750D01*
X59000Y-43750D02*
X62250Y-43750D01*
X56500Y-45750D02*
X55750Y-46500D01*
X55750Y-46500D02*
X54000Y-46500D01*
X54000Y-46500D02*
X52750Y-47750D01*
X52750Y-47750D02*
X54000Y-46500D01*
X54000Y-46500D02*
X55750Y-46500D01*
X62250Y-43750D02*
X62250Y-46750D01*
X62250Y-46750D02*
X62200Y-47000D01*
X62200Y-47000D02*
X62200Y-48500D01*
X63750Y-50250D02*
X62200Y-48500D01*
X69000Y-27750D02*
X70500Y-27750D01*
X60500Y-36250D02*
X61000Y-35750D01*
X58250Y-44250D02*
X58250Y-40750D01*
X59250Y-38750D02*
X59250Y-37500D01*
X59250Y-37500D02*
X60500Y-36250D01*
X70250Y-32750D02*
X70500Y-32750D01*
X67250Y-35750D02*
X70250Y-32750D01*
X61000Y-35750D02*
X67250Y-35750D01*
X49250Y-41750D02*
X49000Y-41750D01*
X43250Y-47500D02*
X43250Y-48250D01*
X43750Y-47000D02*
X43250Y-47500D01*
X43750Y-44000D02*
X43750Y-47000D01*
X44750Y-43000D02*
X43750Y-44000D01*
X47750Y-43000D02*
X44750Y-43000D01*
X49000Y-41750D02*
X47750Y-43000D01*
X50750Y-40250D02*
X53250Y-40250D01*
X50750Y-40250D02*
X49250Y-41750D01*
X60500Y-34750D02*
X63800Y-31450D01*
X59250Y-34750D02*
X60500Y-34750D01*
X65000Y-30250D02*
X63800Y-31450D01*
X71250Y-30250D02*
X65000Y-30250D01*
X71450Y-30150D02*
X71250Y-30250D01*
X63500Y-29250D02*
X71250Y-29250D01*
X58750Y-34000D02*
X63500Y-29250D01*
X58750Y-36250D02*
X58750Y-34000D01*
X53750Y-41750D02*
X52250Y-41750D01*
X47750Y-42250D02*
X44750Y-42250D01*
X44750Y-42250D02*
X43250Y-43750D01*
X43250Y-45250D02*
X43250Y-43750D01*
X73000Y-23750D02*
X72500Y-24250D01*
X72500Y-24250D02*
X72500Y-27750D01*
X72500Y-27750D02*
X73000Y-28250D01*
X73000Y-28250D02*
X74250Y-28250D01*
X74250Y-28250D02*
X74750Y-28750D01*
X78750Y-35500D02*
X82500Y-39250D01*
X82500Y-39250D02*
X87250Y-39250D01*
X87250Y-39250D02*
X87750Y-39750D01*
X87750Y-39750D02*
X87750Y-41250D01*
X87750Y-47500D02*
X87750Y-41250D01*
X85250Y-47500D02*
X87750Y-47500D01*
X82000Y-50500D02*
X85250Y-47500D01*
X73000Y-23750D02*
X73500Y-23750D01*
X50000Y-45500D02*
X53000Y-45500D01*
X49250Y-44750D02*
X50000Y-45500D01*
X58250Y-39000D02*
X58250Y-33000D01*
X65500Y-25500D02*
X65500Y-23500D01*
X58500Y-32750D02*
X65500Y-25500D01*
X65500Y-23500D02*
X65000Y-23000D01*
X58250Y-33000D02*
X58500Y-32750D01*
X54500Y-44000D02*
X55000Y-44000D01*
X53000Y-45500D02*
X54500Y-44000D01*
X49250Y-44750D02*
X49250Y-45250D01*
X49250Y-45250D02*
X46250Y-48250D01*
X65000Y-23000D02*
X65500Y-22500D01*
X63037Y-20250D02*
X62880Y-20093D01*
X65000Y-20250D02*
X63037Y-20250D01*
X65500Y-20750D02*
X65000Y-20250D01*
X65500Y-22500D02*
X65500Y-20750D01*
X59250Y-21500D02*
X59250Y-23750D01*
X57250Y-39250D02*
X57750Y-38750D01*
X57750Y-38750D02*
X57750Y-27250D01*
X57750Y-27250D02*
X59250Y-25500D01*
X49250Y-43750D02*
X49750Y-43250D01*
X53250Y-43250D02*
X53750Y-42750D01*
X49750Y-43250D02*
X53250Y-43250D01*
X45250Y-48250D02*
X46000Y-49000D01*
X49750Y-46500D02*
X50000Y-46250D01*
X47250Y-49000D02*
X49750Y-46500D01*
X47000Y-49000D02*
X47250Y-49000D01*
X46000Y-49000D02*
X47000Y-49000D01*
X49250Y-43750D02*
X48500Y-44500D01*
X46250Y-47250D02*
X45250Y-48250D01*
X46500Y-47250D02*
X46250Y-47250D01*
X48500Y-45250D02*
X46500Y-47250D01*
X48500Y-44500D02*
X48500Y-45250D01*
X65000Y-21500D02*
X59500Y-21500D01*
X59500Y-21500D02*
X59250Y-21500D01*
X59250Y-21500D02*
X58750Y-21500D01*
X58750Y-21500D02*
X58000Y-20750D01*
X58000Y-20750D02*
X58000Y-19250D01*
X58000Y-19250D02*
X57250Y-18500D01*
X57250Y-18500D02*
X56649Y-18500D01*
X56649Y-18500D02*
X56631Y-18518D01*
X50750Y-41250D02*
X53000Y-41250D01*
X53000Y-41250D02*
X53750Y-40500D01*
X49250Y-42750D02*
X50750Y-41250D01*
X57000Y-26250D02*
X58750Y-24500D01*
X57000Y-36250D02*
X57000Y-26250D01*
X44250Y-48250D02*
X45500Y-49500D01*
X54000Y-48500D02*
X54750Y-47750D01*
X48750Y-48500D02*
X54000Y-48500D01*
X48500Y-48750D02*
X48750Y-48500D01*
X47750Y-49500D02*
X48500Y-48750D01*
X47500Y-49500D02*
X47750Y-49500D01*
X45500Y-49500D02*
X47500Y-49500D01*
X49250Y-42750D02*
X48000Y-44000D01*
X45250Y-47250D02*
X44250Y-48250D01*
X45500Y-47250D02*
X45250Y-47250D01*
X48000Y-44750D02*
X45500Y-47250D01*
X48000Y-44000D02*
X48000Y-44750D01*
X56631Y-19305D02*
X56576Y-19250D01*
X56576Y-19250D02*
X56000Y-19250D01*
X56000Y-19250D02*
X55750Y-19500D01*
X55750Y-19500D02*
X55750Y-20500D01*
X55750Y-20500D02*
X55750Y-21500D01*
X55750Y-21500D02*
X58750Y-24500D01*
X58750Y-24500D02*
X65000Y-24500D01*
X73500Y-38500D02*
X73500Y-37000D01*
X72750Y-36250D02*
X72750Y-33000D01*
X73500Y-37000D02*
X72750Y-36250D01*
X73250Y-52375D02*
X73125Y-52250D01*
X73500Y-51500D02*
X73500Y-38500D01*
X73125Y-51875D02*
X73500Y-51500D01*
X73125Y-52125D02*
X73125Y-51875D01*
X73125Y-52250D02*
X73125Y-52125D01*
X73500Y-38500D02*
X73500Y-39750D01*
X64250Y-53250D02*
X65750Y-53250D01*
X72250Y-37250D02*
X72250Y-31750D01*
X70250Y-39250D02*
X72250Y-37250D01*
X69000Y-50000D02*
X69000Y-40500D01*
X68750Y-50250D02*
X69000Y-50000D01*
X65750Y-53250D02*
X67000Y-52000D01*
X64250Y-53250D02*
X64250Y-54250D01*
X55250Y-18000D02*
X55250Y-17500D01*
X55768Y-16982D02*
X56631Y-16982D01*
X55250Y-17500D02*
X55768Y-16982D01*
X62891Y-15407D02*
X63000Y-15298D01*
X63000Y-15298D02*
X63000Y-14000D01*
X73250Y-52750D02*
X72500Y-52750D01*
X68750Y-17500D02*
X69750Y-16500D01*
X68750Y-21750D02*
X68750Y-17500D01*
X77000Y-24750D02*
X76500Y-25250D01*
X76500Y-25250D02*
X75250Y-25250D01*
X75250Y-25250D02*
X74750Y-25750D01*
X74750Y-25750D02*
X73500Y-25750D01*
X73500Y-33750D02*
X74500Y-33750D01*
X79500Y-25000D02*
X80500Y-24000D01*
X79500Y-27750D02*
X79500Y-25000D01*
X77750Y-29500D02*
X79500Y-27750D01*
X77750Y-30500D02*
X77750Y-29500D01*
X76000Y-32250D02*
X77750Y-30500D01*
X74500Y-33750D02*
X75000Y-33250D01*
X86250Y-29250D02*
X83750Y-26750D01*
X83000Y-24000D02*
X80500Y-24000D01*
X83750Y-24750D02*
X83000Y-24000D01*
X83750Y-26750D02*
X83750Y-24750D01*
X69500Y-19250D02*
X69750Y-19250D01*
X62946Y-19250D02*
X66250Y-19250D01*
X72500Y-31250D02*
X73000Y-31750D01*
X73500Y-31750D02*
X73000Y-31750D01*
X62946Y-19250D02*
X62891Y-19305D01*
X72250Y-31000D02*
X72500Y-31250D01*
X72250Y-28500D02*
X72250Y-31000D01*
X71500Y-27750D02*
X72250Y-28500D01*
X71500Y-21000D02*
X71500Y-27750D01*
X69750Y-19250D02*
X71500Y-21000D01*
X78750Y-16500D02*
X74500Y-20750D01*
X74000Y-22750D02*
X73500Y-22750D01*
X74500Y-22250D02*
X74000Y-22750D01*
X74500Y-20750D02*
X74500Y-22250D01*
X78750Y-16500D02*
X77250Y-15000D01*
X77250Y-15000D02*
X77250Y-14000D01*
X67000Y-21500D02*
X67000Y-15500D01*
X68750Y-14500D02*
X69750Y-15500D01*
X68000Y-14500D02*
X68750Y-14500D01*
X67000Y-15500D02*
X68000Y-14500D01*
X66000Y-24500D02*
X66750Y-25250D01*
X69500Y-25750D02*
X70500Y-25750D01*
X69000Y-25250D02*
X69500Y-25750D01*
X66750Y-25250D02*
X69000Y-25250D01*
X73250Y-16500D02*
X73250Y-18250D01*
X73250Y-18250D02*
X72250Y-19250D01*
X66000Y-21500D02*
X66750Y-22250D01*
X69750Y-23750D02*
X70500Y-23750D01*
X68250Y-22250D02*
X69750Y-23750D01*
X66750Y-22250D02*
X68250Y-22250D01*
X81250Y-30750D02*
X82000Y-30750D01*
X82000Y-30750D02*
X82500Y-30250D01*
X73500Y-21750D02*
X73500Y-18500D01*
X73500Y-18500D02*
X75500Y-16500D01*
X82500Y-26000D02*
X81250Y-26000D01*
X79500Y-29500D02*
X81000Y-28000D01*
X84750Y-30250D02*
X86250Y-30250D01*
X82500Y-28000D02*
X84750Y-30250D01*
X81000Y-28000D02*
X82500Y-28000D01*
X79500Y-29500D02*
X76250Y-32750D01*
X76250Y-32750D02*
X73500Y-32750D01*
X86250Y-28250D02*
X87250Y-29250D01*
X87250Y-29250D02*
X87250Y-30500D01*
X87250Y-30500D02*
X87000Y-30750D01*
X87000Y-30750D02*
X85000Y-30750D01*
X85000Y-30750D02*
X83000Y-32750D01*
X75250Y-27250D02*
X75750Y-27750D01*
X75750Y-27750D02*
X77000Y-27750D01*
X73500Y-26750D02*
X74750Y-26750D01*
X75750Y-27750D02*
X77000Y-27750D01*
X74750Y-26750D02*
X75750Y-27750D01*
X70500Y-31750D02*
X68750Y-31750D01*
X66000Y-23000D02*
X66750Y-23750D01*
X69500Y-24750D02*
X70500Y-24750D01*
X68500Y-23750D02*
X69500Y-24750D01*
X66750Y-23750D02*
X68500Y-23750D01*
X55750Y-14750D02*
X55974Y-14750D01*
X55974Y-14750D02*
X56631Y-15407D01*
X68750Y-16500D02*
X68000Y-17250D01*
X68000Y-17250D02*
X68000Y-21500D01*
X56631Y-20619D02*
X56631Y-20093D01*
X56750Y-20750D02*
X56631Y-20619D01*
X86250Y-23500D02*
X86250Y-23750D01*
X74500Y-24750D02*
X73500Y-24750D01*
X77500Y-22750D02*
X74500Y-24750D01*
X83250Y-22750D02*
X79000Y-22750D01*
X85000Y-24500D02*
X83250Y-22750D01*
X85500Y-24500D02*
X85000Y-24500D01*
X86250Y-23750D02*
X85500Y-24500D01*
X86250Y-19250D02*
X86250Y-23500D01*
X83750Y-19250D02*
X85250Y-19250D01*
X83750Y-21000D02*
X85250Y-22500D01*
X85250Y-22500D02*
X85250Y-23500D01*
X83000Y-34750D02*
X84000Y-34750D01*
X83000Y-34750D02*
X87000Y-34750D01*
X73500Y-13750D02*
X74000Y-13250D01*
X87750Y-34000D02*
X87750Y-28750D01*
X87750Y-28750D02*
X87750Y-18750D01*
X87750Y-18750D02*
X86000Y-17000D01*
X86000Y-17000D02*
X82250Y-17000D01*
X82250Y-17000D02*
X81250Y-16000D01*
X80000Y-14750D02*
X78750Y-13500D01*
X87750Y-34000D02*
X87000Y-34750D01*
X78500Y-13250D02*
X78750Y-13500D01*
X74000Y-13250D02*
X78500Y-13250D01*
X70750Y-16500D02*
X73500Y-13750D01*
X87000Y-34750D02*
X81750Y-34750D01*
X73500Y-34750D02*
X77000Y-34750D01*
X77000Y-34750D02*
X79000Y-34750D01*
X79000Y-34750D02*
X81750Y-34750D01*
X81750Y-34750D02*
X82000Y-34750D01*
X80500Y-25000D02*
X82500Y-25000D01*
G54D38*
X36250Y-39250D02*
X36250Y-40750D01*
X33250Y-40750D02*
X33250Y-39250D01*
X34250Y-39250D02*
X34250Y-40750D01*
X35250Y-40750D02*
X35250Y-39250D01*
X37250Y-40750D02*
X37250Y-39250D01*
X38250Y-39250D02*
X38250Y-40750D01*
X39250Y-40750D02*
X39250Y-39250D01*
X40250Y-39250D02*
X40250Y-40750D01*
G54D39*
X39750Y-26250D02*
X39750Y-26000D01*
X40750Y-25000D02*
X40750Y-24750D01*
G54D38*
X39750Y-26000D02*
X40750Y-25000D01*
X43750Y-24750D02*
X43750Y-25000D01*
X44750Y-26000D02*
X44750Y-26250D01*
X43750Y-25000D02*
X44750Y-26000D01*
G54D39*
X45750Y-24750D02*
X45750Y-25000D01*
X46750Y-26000D02*
X46750Y-26250D01*
G54D38*
X45750Y-25000D02*
X46750Y-26000D01*
G54D39*
X47750Y-24750D02*
X47750Y-25000D01*
X48750Y-26000D02*
X48750Y-26250D01*
G54D38*
X47750Y-25000D02*
X48750Y-26000D01*
G54D39*
X49750Y-24750D02*
X49750Y-25000D01*
X50750Y-26000D02*
X50750Y-26250D01*
G54D38*
X49750Y-25000D02*
X50750Y-26000D01*
X41250Y-40750D02*
X39750Y-42250D01*
X39750Y-42250D02*
X30750Y-42250D01*
X34750Y-24750D02*
X33750Y-25750D01*
G54D39*
X33750Y-25750D02*
X33750Y-26250D01*
X35750Y-26250D02*
X35750Y-26000D01*
X36750Y-25000D02*
X36750Y-24750D01*
G54D38*
X35750Y-26000D02*
X36750Y-25000D01*
G54D39*
X37750Y-26250D02*
X37750Y-26000D01*
X38750Y-25000D02*
X38750Y-24750D01*
G54D38*
X37750Y-26000D02*
X38750Y-25000D01*
G54D39*
X33750Y-29250D02*
X37000Y-32500D01*
X47000Y-38750D02*
X49250Y-38750D01*
X40750Y-32500D02*
X47000Y-38750D01*
X37000Y-32500D02*
X40750Y-32500D01*
X49250Y-36750D02*
X46500Y-36750D01*
X35750Y-29750D02*
X35750Y-29250D01*
X38000Y-32000D02*
X35750Y-29750D01*
X41750Y-32000D02*
X38000Y-32000D01*
X46500Y-36750D02*
X41750Y-32000D01*
X49250Y-34750D02*
X46000Y-34750D01*
X37750Y-30500D02*
X37750Y-29250D01*
X38750Y-31500D02*
X37750Y-30500D01*
X41750Y-31500D02*
X38750Y-31500D01*
X42750Y-32500D02*
X41750Y-31500D01*
X43750Y-32500D02*
X42750Y-32500D01*
X46000Y-34750D02*
X43750Y-32500D01*
X49250Y-35750D02*
X46250Y-35750D01*
X46250Y-35750D02*
X43500Y-33000D01*
X49250Y-37750D02*
X46750Y-37750D01*
X46750Y-37750D02*
X41750Y-32750D01*
X45500Y-32750D02*
X45000Y-32250D01*
X49250Y-32750D02*
X45500Y-32750D01*
X39750Y-30250D02*
X39750Y-29250D01*
X40500Y-31000D02*
X39750Y-30250D01*
X43000Y-31000D02*
X40500Y-31000D01*
X44250Y-32250D02*
X43000Y-31000D01*
X45000Y-32250D02*
X44250Y-32250D01*
X39750Y-29250D02*
X39750Y-29250D01*
X49750Y-29250D02*
X49750Y-30000D01*
X49750Y-30250D02*
X52250Y-32750D01*
X49750Y-30000D02*
X49750Y-30250D01*
X48750Y-30000D02*
X48750Y-29250D01*
X50250Y-31500D02*
X48750Y-30000D01*
X50250Y-33750D02*
X50250Y-31500D01*
X52250Y-31750D02*
X50750Y-30250D01*
X50750Y-30250D02*
X50750Y-29250D01*
X45000Y-31750D02*
X44000Y-30750D01*
X49250Y-31750D02*
X45000Y-31750D01*
X40750Y-30000D02*
X40750Y-29250D01*
X41250Y-30500D02*
X40750Y-30000D01*
X43750Y-30500D02*
X41250Y-30500D01*
X44000Y-30750D02*
X43750Y-30500D01*
X49250Y-33750D02*
X45750Y-33750D01*
X45750Y-33750D02*
X45000Y-33000D01*
G54D38*
X30750Y-52250D02*
X32250Y-52250D01*
X32250Y-52250D02*
X32500Y-52250D01*
X32500Y-52250D02*
X33250Y-53000D01*
X33250Y-53000D02*
X33250Y-53750D01*
G54D39*
X33250Y-43750D02*
X33250Y-45250D01*
X36250Y-43750D02*
X36250Y-45250D01*
X38250Y-43750D02*
X38250Y-45250D01*
X40250Y-43750D02*
X40250Y-45250D01*
G54D38*
X42750Y-24750D02*
X42750Y-25250D01*
X42750Y-25250D02*
X43750Y-26250D01*
G54D39*
X48750Y-24750D02*
X48750Y-25000D01*
X49750Y-26000D02*
X49750Y-26250D01*
G54D38*
X48750Y-25000D02*
X49750Y-26000D01*
G54D39*
X46750Y-24750D02*
X46750Y-25000D01*
X47750Y-26000D02*
X47750Y-26250D01*
G54D38*
X46750Y-25000D02*
X47750Y-26000D01*
G54D39*
X44750Y-24750D02*
X44750Y-25000D01*
G54D38*
X44750Y-25000D02*
X45750Y-26000D01*
G54D39*
X45750Y-26000D02*
X45750Y-26250D01*
X40250Y-50750D02*
X40250Y-49750D01*
X39250Y-48750D02*
X39250Y-48250D01*
X40250Y-49750D02*
X39250Y-48750D01*
X38250Y-48250D02*
X38250Y-48750D01*
X39250Y-49750D02*
X39250Y-50750D01*
X38250Y-48750D02*
X39250Y-49750D01*
X35250Y-50750D02*
X35250Y-49750D01*
X34250Y-48750D02*
X34250Y-48250D01*
X35250Y-49750D02*
X34250Y-48750D01*
X38750Y-26250D02*
X38750Y-26000D01*
X39750Y-25000D02*
X39750Y-24750D01*
G54D38*
X38750Y-26000D02*
X39750Y-25000D01*
X31750Y-27750D02*
X31250Y-27750D01*
X41250Y-27750D02*
X31750Y-27750D01*
X41750Y-27750D02*
X41250Y-27750D01*
G54D39*
X40750Y-26250D02*
X40750Y-26000D01*
X41750Y-25000D02*
X41750Y-24750D01*
X40750Y-26000D02*
X41750Y-25000D01*
X36750Y-26250D02*
X36750Y-26000D01*
X37750Y-25000D02*
X37750Y-24750D01*
G54D38*
X36750Y-26000D02*
X37750Y-25000D01*
G54D39*
X34750Y-26250D02*
X34750Y-26000D01*
X35750Y-25000D02*
X35750Y-24750D01*
G54D38*
X34750Y-26000D02*
X35750Y-25000D01*
G54D39*
X40250Y-48250D02*
X40250Y-48750D01*
X41250Y-49750D02*
X41250Y-50750D01*
X40250Y-48750D02*
X41250Y-49750D01*
X39250Y-43750D02*
X39250Y-45250D01*
X35250Y-43750D02*
X35250Y-45250D01*
X45250Y-45250D02*
X45250Y-43750D01*
X44250Y-45250D02*
X44250Y-44750D01*
X44250Y-44750D02*
X45250Y-43750D01*
X45250Y-43750D02*
X46250Y-44750D01*
X46250Y-44750D02*
X46250Y-45250D01*
X37250Y-43750D02*
X37250Y-45250D01*
X33250Y-48250D02*
X33250Y-48750D01*
X34250Y-49750D02*
X34250Y-50750D01*
X33250Y-48750D02*
X34250Y-49750D01*
X35250Y-48250D02*
X35250Y-48750D01*
X36250Y-49750D02*
X36250Y-50750D01*
X35250Y-48750D02*
X36250Y-49750D01*
X38250Y-50750D02*
X38250Y-49750D01*
X37250Y-48750D02*
X37250Y-48250D01*
X38250Y-49750D02*
X37250Y-48750D01*
X36250Y-48250D02*
X36250Y-48750D01*
X37250Y-49750D02*
X37250Y-50750D01*
X36250Y-48750D02*
X37250Y-49750D01*
X34250Y-43750D02*
X34250Y-45250D01*
G54D38*
X77750Y-44500D02*
X79947Y-44500D01*
X79947Y-44500D02*
X79947Y-44408D01*
X79935Y-47041D02*
X79947Y-44408D01*
X79947Y-44408D02*
X79950Y-43750D01*
X79950Y-43750D02*
X79750Y-43050D01*
X86250Y-44750D02*
X82500Y-48500D01*
G54D39*
X79976Y-48500D02*
X79935Y-48459D01*
G54D38*
X82500Y-48500D02*
X79976Y-48500D01*
X84250Y-44750D02*
X86250Y-44750D01*
X85750Y-51240D02*
X85750Y-52750D01*
X85750Y-52750D02*
X85750Y-54000D01*
X85550Y-54200D02*
X85550Y-54350D01*
X85750Y-54000D02*
X85550Y-54200D01*
G54D39*
X75050Y-52750D02*
X74000Y-52750D01*
X75050Y-52750D02*
X75750Y-52000D01*
X75750Y-52000D02*
X76510Y-51240D01*
X76510Y-51240D02*
X85750Y-51240D01*
X74000Y-52750D02*
X73500Y-53250D01*
X73500Y-53250D02*
X73375Y-53250D01*
X73375Y-53250D02*
X73250Y-53125D01*
G54D38*
X64500Y-37250D02*
X65750Y-37250D01*
X76000Y-46250D02*
X78632Y-46250D01*
X78632Y-46250D02*
X78754Y-46372D01*
X77250Y-48750D02*
X77250Y-47876D01*
X77250Y-47876D02*
X78754Y-46372D01*
X77250Y-48750D02*
X77250Y-49750D01*
X66750Y-50750D02*
X66250Y-51250D01*
X66250Y-51250D02*
X64750Y-51250D01*
X68750Y-52250D02*
X68250Y-52250D01*
X68250Y-52250D02*
X66750Y-50750D01*
X77250Y-56750D02*
X78250Y-56750D01*
G54D39*
X64250Y-42250D02*
X65000Y-42250D01*
X65000Y-42250D02*
X65500Y-42750D01*
X64250Y-46750D02*
X64250Y-43750D01*
X64250Y-46750D02*
X69750Y-52250D01*
G54D38*
X76000Y-41000D02*
X81700Y-41000D01*
X81700Y-41000D02*
X81750Y-41050D01*
X70250Y-42750D02*
X71850Y-44350D01*
X71850Y-44350D02*
X71850Y-45350D01*
X84250Y-41750D02*
X81750Y-41050D01*
X30750Y-53250D02*
X30750Y-56000D01*
X30750Y-56000D02*
X33250Y-58500D01*
X33250Y-58500D02*
X33250Y-60000D01*
X33250Y-60000D02*
X33500Y-60350D01*
X33500Y-60350D02*
X35250Y-60350D01*
X49250Y-39750D02*
X48000Y-39750D01*
X48000Y-39750D02*
X46000Y-41750D01*
X44000Y-41750D02*
X46000Y-41750D01*
X41750Y-44250D02*
X44000Y-41750D01*
G54D39*
X41750Y-47000D02*
X41750Y-44250D01*
G54D38*
X41250Y-47500D02*
X41750Y-47000D01*
X41250Y-48250D02*
X41250Y-47500D01*
X41250Y-48250D02*
X41250Y-48750D01*
X41250Y-48750D02*
X42000Y-49500D01*
X56750Y-43750D02*
X55500Y-45000D01*
X55500Y-45000D02*
X54500Y-46000D01*
X51750Y-46750D02*
X52500Y-46000D01*
X52500Y-46000D02*
X54500Y-46000D01*
X51750Y-47750D02*
X51750Y-47000D01*
X51750Y-47000D02*
X51750Y-46750D01*
X73500Y-28750D02*
X73850Y-28750D01*
X76750Y-29550D02*
X77500Y-28800D01*
X74650Y-29550D02*
X76750Y-29550D01*
X73850Y-28750D02*
X74650Y-29550D01*
X31250Y-28750D02*
X31250Y-31750D01*
X31750Y-37050D02*
X31750Y-41000D01*
X30450Y-35750D02*
X31750Y-37050D01*
X30450Y-34450D02*
X30450Y-35750D01*
X30450Y-32550D02*
X30450Y-34450D01*
X31250Y-31750D02*
X30450Y-32550D01*
X72750Y-49450D02*
X72750Y-41650D01*
X72750Y-41650D02*
X72750Y-41250D01*
X72750Y-41250D02*
X72250Y-40750D01*
X72250Y-40750D02*
X71250Y-39750D01*
X71250Y-39750D02*
X66750Y-39750D01*
G54D39*
X80250Y-14000D02*
X80750Y-14500D01*
G54D38*
X66750Y-31750D02*
X66750Y-35250D01*
X66750Y-37250D02*
X66750Y-39750D01*
X67750Y-28500D02*
X67750Y-28000D01*
X67750Y-28000D02*
X69000Y-26750D01*
X35250Y-60350D02*
X36000Y-59750D01*
X31750Y-51250D02*
X31750Y-46750D01*
X56250Y-39750D02*
X55000Y-39750D01*
X54250Y-28750D02*
X56250Y-30750D01*
X56250Y-30750D02*
X56250Y-39750D01*
X49250Y-39750D02*
X50750Y-39250D01*
X55000Y-39750D02*
X55000Y-39250D01*
G54D39*
X50750Y-39250D02*
X55000Y-39250D01*
G54D38*
X54500Y-16750D02*
X54500Y-25000D01*
X54500Y-25000D02*
X55500Y-26000D01*
X55500Y-26000D02*
X55500Y-27500D01*
X55500Y-27500D02*
X54250Y-28750D01*
X55250Y-16000D02*
X54500Y-16750D01*
X30750Y-43250D02*
X30750Y-45750D01*
X30750Y-45750D02*
X31750Y-46750D01*
X39750Y-46750D02*
X41250Y-48250D01*
X31750Y-46750D02*
X39750Y-46750D01*
X56750Y-43750D02*
X56750Y-43750D01*
X57750Y-52250D02*
X58750Y-52250D01*
X58750Y-52250D02*
X59000Y-52000D01*
X59000Y-52000D02*
X59000Y-46000D01*
X59000Y-46000D02*
X56750Y-43750D01*
X56250Y-39750D02*
X63750Y-39750D01*
X63750Y-39750D02*
X66750Y-39750D01*
X56750Y-43750D02*
X55000Y-42000D01*
X55000Y-40250D02*
X55000Y-39750D01*
X55000Y-42000D02*
X55000Y-40250D01*
X55250Y-16000D02*
X55445Y-16195D01*
X55445Y-16195D02*
X56631Y-16195D01*
X70500Y-13750D02*
X70500Y-13500D01*
X70500Y-13500D02*
X71000Y-12750D01*
X71000Y-12750D02*
X79250Y-12750D01*
X79250Y-12750D02*
X80750Y-14500D01*
X80750Y-14500D02*
X80750Y-19250D01*
X77500Y-28800D02*
X78250Y-28250D01*
X79750Y-19250D02*
X80750Y-19250D01*
X78250Y-20750D02*
X79750Y-19250D01*
X78250Y-28250D02*
X78250Y-20750D01*
G54D39*
X73717Y-28784D02*
X73500Y-28750D01*
X81250Y-29000D02*
X81250Y-29500D01*
G54D38*
X81250Y-29500D02*
X80500Y-30250D01*
G54D39*
X81000Y-33750D02*
X81250Y-33750D01*
G54D38*
X80500Y-33250D02*
X81000Y-33750D01*
X80500Y-30250D02*
X80500Y-33250D01*
X86250Y-31250D02*
X83750Y-33750D01*
X83750Y-33750D02*
X81250Y-33750D01*
G54D39*
X74250Y-52375D02*
X74375Y-52375D01*
G54D38*
X74750Y-52000D02*
X74750Y-51250D01*
G54D39*
X74375Y-52375D02*
X74750Y-52000D01*
G54D38*
X69000Y-26750D02*
X70500Y-26750D01*
G54D39*
X49750Y-53750D02*
X49750Y-52250D01*
X49750Y-52250D02*
X49750Y-50750D01*
X34000Y-59750D02*
X34000Y-57750D01*
X48000Y-55500D02*
X49750Y-53750D01*
X36250Y-55500D02*
X48000Y-55500D01*
X34000Y-57750D02*
X36250Y-55500D01*
X49750Y-50750D02*
X49750Y-53750D01*
X50750Y-50750D02*
X50750Y-52250D01*
X50750Y-52250D02*
X50750Y-53750D01*
X39000Y-59750D02*
X39000Y-58000D01*
X47750Y-56750D02*
X50750Y-53750D01*
X40250Y-56750D02*
X47750Y-56750D01*
X39000Y-58000D02*
X40250Y-56750D01*
X50750Y-50750D02*
X50750Y-53750D01*
X51750Y-50750D02*
X51750Y-52250D01*
X46500Y-59750D02*
X46500Y-58000D01*
X48000Y-57500D02*
X51750Y-53750D01*
X47000Y-57500D02*
X48000Y-57500D01*
X46500Y-58000D02*
X47000Y-57500D01*
X51750Y-50750D02*
X51750Y-53750D01*
X52750Y-53750D02*
X52750Y-52250D01*
X52750Y-52250D02*
X52750Y-50750D01*
X51500Y-59750D02*
X51500Y-55000D01*
X51500Y-55000D02*
X52750Y-53750D01*
X52750Y-50750D02*
X52750Y-53750D01*
X53750Y-50750D02*
X53750Y-52250D01*
X53750Y-52250D02*
X53750Y-53750D01*
X53750Y-53750D02*
X53750Y-54500D01*
X53750Y-54500D02*
X59000Y-59750D01*
X53750Y-50750D02*
X53750Y-53750D01*
X54750Y-53750D02*
X54750Y-52250D01*
X54750Y-52250D02*
X54750Y-50750D01*
X64000Y-59750D02*
X64000Y-59250D01*
X56250Y-55250D02*
X54750Y-53750D01*
X58500Y-55250D02*
X56250Y-55250D01*
X62000Y-58750D02*
X58500Y-55250D01*
X63500Y-58750D02*
X62000Y-58750D01*
X64000Y-59250D02*
X63500Y-58750D01*
X54750Y-50750D02*
X54750Y-53750D01*
X55750Y-50750D02*
X55750Y-52250D01*
X55750Y-52250D02*
X55750Y-53750D01*
X72500Y-59750D02*
X71000Y-58250D01*
X56750Y-54750D02*
X55750Y-53750D01*
X59000Y-54750D02*
X56750Y-54750D01*
X62500Y-58250D02*
X59000Y-54750D01*
X71000Y-58250D02*
X62500Y-58250D01*
X55750Y-50750D02*
X55750Y-53750D01*
X56750Y-53750D02*
X56750Y-52250D01*
X56750Y-52250D02*
X56750Y-50750D01*
X77500Y-59750D02*
X76750Y-59000D01*
X59250Y-53750D02*
X56750Y-53750D01*
X63000Y-57750D02*
X59250Y-53750D01*
X75250Y-57750D02*
X63000Y-57750D01*
X76750Y-59000D02*
X75250Y-57750D01*
X56750Y-50750D02*
X56750Y-53750D01*
G54D38*
X34250Y-53750D02*
X34250Y-56500D01*
X39250Y-33250D02*
X39250Y-36250D01*
X38250Y-36250D02*
X38250Y-33250D01*
X37250Y-33250D02*
X37250Y-36250D01*
X36250Y-36250D02*
X36250Y-33250D01*
X35250Y-36250D02*
X35250Y-33250D01*
X34250Y-36250D02*
X34250Y-33250D01*
X33250Y-36250D02*
X33250Y-33250D01*
X38000Y-59750D02*
X38000Y-58750D01*
X38000Y-58750D02*
X36000Y-56750D01*
X47500Y-59750D02*
X47500Y-60000D01*
X47500Y-60000D02*
X47000Y-60500D01*
X47000Y-60500D02*
X46000Y-60500D01*
X46000Y-60500D02*
X44000Y-58500D01*
X44000Y-58500D02*
X40000Y-58500D01*
X38750Y-57250D02*
X37500Y-56000D01*
X37250Y-53750D02*
X37250Y-54750D01*
X37250Y-54750D02*
X37500Y-55000D01*
X37500Y-55000D02*
X44750Y-55000D01*
X47750Y-58000D02*
X48250Y-58500D01*
X48250Y-58500D02*
X49500Y-58500D01*
X49500Y-58500D02*
X50500Y-59500D01*
X50500Y-59500D02*
X50500Y-59750D01*
X60000Y-59750D02*
X60000Y-60250D01*
X60000Y-60250D02*
X59750Y-60500D01*
X59750Y-60500D02*
X58750Y-60500D01*
X58750Y-60500D02*
X53250Y-55000D01*
X48000Y-54750D02*
X44750Y-51500D01*
X44750Y-51500D02*
X39500Y-51500D01*
X39500Y-51500D02*
X38250Y-52750D01*
X38250Y-52750D02*
X38250Y-53750D01*
X63000Y-59750D02*
X62250Y-60650D01*
X62250Y-60650D02*
X60380Y-60696D01*
X60380Y-60696D02*
X59875Y-61025D01*
X59875Y-61025D02*
X58500Y-61000D01*
X58500Y-61000D02*
X55750Y-58250D01*
X55750Y-58250D02*
X52000Y-58250D01*
X47000Y-54750D02*
X44250Y-52000D01*
X44250Y-52000D02*
X40000Y-52000D01*
X40000Y-52000D02*
X39250Y-52750D01*
X39250Y-52750D02*
X39250Y-53750D01*
X72000Y-58250D02*
X73500Y-59750D01*
X63500Y-57250D02*
X71000Y-57250D01*
X61000Y-54500D02*
X63500Y-57250D01*
X49000Y-49000D02*
X58500Y-49000D01*
X48000Y-50000D02*
X49000Y-49000D01*
X44000Y-50000D02*
X48000Y-50000D01*
X47382Y-50929D02*
X47821Y-50929D01*
X47382Y-50929D02*
X44100Y-50950D01*
X58250Y-49750D02*
X49000Y-49750D01*
X64000Y-56750D02*
X59500Y-52250D01*
X72000Y-56750D02*
X64000Y-56750D01*
X72500Y-57250D02*
X72000Y-56750D01*
X72750Y-57250D02*
X72500Y-57250D01*
X75750Y-57250D02*
X72750Y-57250D01*
X76500Y-58000D02*
X75750Y-57250D01*
X47821Y-50929D02*
X49000Y-49750D01*
X40250Y-36250D02*
X40250Y-33250D01*
X41750Y-21750D02*
X41750Y-18750D01*
X48750Y-21750D02*
X48750Y-18750D01*
X47750Y-21750D02*
X47750Y-18750D01*
X46750Y-21750D02*
X46750Y-18750D01*
X45750Y-21750D02*
X45750Y-18750D01*
X44750Y-21750D02*
X44750Y-18750D01*
X43750Y-21750D02*
X43750Y-18750D01*
X42750Y-21750D02*
X42750Y-18750D01*
X40750Y-21750D02*
X40750Y-18750D01*
X39750Y-21750D02*
X39750Y-18750D01*
X38750Y-21750D02*
X38750Y-18750D01*
X37750Y-18750D02*
X37750Y-21750D01*
X36750Y-21750D02*
X36750Y-18750D01*
X35750Y-18750D02*
X35750Y-21750D01*
X34750Y-21750D02*
X34750Y-18750D01*
X49750Y-21750D02*
X49750Y-18750D01*
G54D10*
G36*
X82950Y-63498D02*
X82932Y-63685D01*
X82878Y-63864D01*
X82789Y-64028D01*
X82671Y-64171D01*
X82528Y-64289D01*
X82368Y-64375D01*
X82368Y-60091D01*
X82367Y-59294D01*
X82343Y-59171D01*
X82295Y-59056D01*
X82226Y-58952D01*
X82138Y-58863D01*
X82035Y-58793D01*
X81920Y-58745D01*
X81797Y-58720D01*
X81672Y-58719D01*
X81550Y-58742D01*
X81434Y-58789D01*
X81329Y-58857D01*
X81240Y-58944D01*
X81169Y-59047D01*
X81120Y-59162D01*
X81094Y-59284D01*
X81092Y-59409D01*
X81093Y-60206D01*
X81117Y-60329D01*
X81165Y-60444D01*
X81234Y-60548D01*
X81322Y-60637D01*
X81425Y-60707D01*
X81540Y-60755D01*
X81663Y-60780D01*
X81788Y-60781D01*
X81910Y-60758D01*
X82026Y-60711D01*
X82131Y-60643D01*
X82220Y-60556D01*
X82291Y-60453D01*
X82340Y-60338D01*
X82366Y-60216D01*
X82368Y-60091D01*
X82368Y-64375D01*
X82364Y-64378D01*
X82208Y-64425D01*
X29291Y-64425D01*
X29136Y-64378D01*
X28972Y-64289D01*
X28829Y-64171D01*
X28711Y-64028D01*
X28622Y-63864D01*
X28575Y-63708D01*
X28575Y-62505D01*
X28575Y-62500D01*
X28575Y-62255D01*
X28575Y-62250D01*
X28575Y-60750D01*
X28575Y-26791D01*
X28622Y-26636D01*
X28711Y-26472D01*
X28829Y-26329D01*
X28972Y-26211D01*
X29136Y-26122D01*
X29315Y-26068D01*
X29502Y-26050D01*
X31247Y-26050D01*
X31338Y-26059D01*
X31422Y-26084D01*
X31500Y-26126D01*
X31568Y-26182D01*
X31624Y-26250D01*
X31666Y-26328D01*
X31691Y-26412D01*
X31700Y-26500D01*
X31691Y-26588D01*
X31666Y-26672D01*
X31624Y-26750D01*
X31568Y-26818D01*
X31500Y-26874D01*
X31422Y-26916D01*
X31338Y-26941D01*
X31247Y-26950D01*
X30748Y-26950D01*
X30545Y-26970D01*
X30348Y-27030D01*
X30166Y-27127D01*
X30007Y-27257D01*
X29877Y-27416D01*
X29780Y-27598D01*
X29720Y-27795D01*
X29700Y-27998D01*
X29700Y-40002D01*
X29715Y-40156D01*
X29761Y-40306D01*
X29834Y-40445D01*
X29934Y-40566D01*
X30055Y-40666D01*
X30194Y-40739D01*
X30344Y-40785D01*
X30498Y-40800D01*
X30747Y-40800D01*
X30838Y-40809D01*
X30922Y-40834D01*
X31000Y-40876D01*
X31068Y-40932D01*
X31124Y-41000D01*
X31166Y-41078D01*
X31191Y-41162D01*
X31200Y-41250D01*
X31191Y-41338D01*
X31166Y-41422D01*
X31124Y-41500D01*
X31068Y-41568D01*
X31000Y-41624D01*
X30922Y-41666D01*
X30838Y-41691D01*
X30747Y-41700D01*
X30498Y-41700D01*
X30344Y-41715D01*
X30194Y-41761D01*
X30055Y-41834D01*
X29934Y-41934D01*
X29834Y-42055D01*
X29761Y-42194D01*
X29715Y-42344D01*
X29700Y-42498D01*
X29700Y-50002D01*
X29715Y-50156D01*
X29761Y-50306D01*
X29834Y-50445D01*
X29934Y-50566D01*
X30055Y-50666D01*
X30194Y-50739D01*
X30344Y-50785D01*
X30498Y-50800D01*
X30747Y-50800D01*
X30838Y-50809D01*
X30922Y-50834D01*
X31000Y-50876D01*
X31068Y-50932D01*
X31124Y-51000D01*
X31166Y-51078D01*
X31191Y-51162D01*
X31200Y-51250D01*
X31191Y-51338D01*
X31166Y-51422D01*
X31124Y-51500D01*
X31068Y-51568D01*
X31000Y-51624D01*
X30922Y-51666D01*
X30838Y-51691D01*
X30747Y-51700D01*
X30498Y-51700D01*
X30344Y-51715D01*
X30194Y-51761D01*
X30055Y-51834D01*
X29934Y-51934D01*
X29834Y-52055D01*
X29761Y-52194D01*
X29715Y-52344D01*
X29700Y-52498D01*
X29700Y-58345D01*
X29648Y-58380D01*
X29403Y-58620D01*
X29209Y-58903D01*
X29074Y-59219D01*
X29002Y-59554D01*
X28998Y-59898D01*
X29060Y-60235D01*
X29186Y-60554D01*
X29372Y-60843D01*
X29611Y-61089D01*
X29892Y-61285D01*
X30207Y-61422D01*
X30542Y-61496D01*
X30885Y-61503D01*
X31223Y-61444D01*
X31543Y-61319D01*
X31833Y-61135D01*
X32081Y-60899D01*
X32150Y-60800D01*
X39436Y-60800D01*
X39614Y-60784D01*
X39788Y-60739D01*
X39952Y-60664D01*
X40100Y-60562D01*
X40229Y-60436D01*
X40333Y-60292D01*
X40501Y-60014D01*
X40597Y-59880D01*
X40632Y-59845D01*
X40633Y-60206D01*
X40657Y-60329D01*
X40705Y-60444D01*
X40774Y-60548D01*
X40862Y-60637D01*
X40965Y-60707D01*
X41080Y-60755D01*
X41203Y-60780D01*
X41328Y-60781D01*
X41450Y-60758D01*
X41566Y-60711D01*
X41671Y-60643D01*
X41760Y-60556D01*
X41831Y-60453D01*
X41880Y-60338D01*
X41906Y-60216D01*
X41908Y-60091D01*
X41907Y-59677D01*
X42036Y-59766D01*
X42153Y-59880D01*
X42249Y-60014D01*
X42417Y-60292D01*
X42521Y-60436D01*
X42650Y-60562D01*
X42798Y-60664D01*
X42962Y-60739D01*
X43136Y-60784D01*
X43314Y-60800D01*
X45738Y-60800D01*
X45774Y-60830D01*
X45778Y-60832D01*
X45842Y-60868D01*
X45846Y-60869D01*
X45917Y-60891D01*
X45921Y-60891D01*
X45994Y-60900D01*
X45998Y-60900D01*
X46000Y-60900D01*
X46996Y-60900D01*
X47000Y-60900D01*
X47028Y-60897D01*
X47074Y-60893D01*
X47077Y-60892D01*
X47078Y-60892D01*
X47088Y-60889D01*
X47148Y-60872D01*
X47151Y-60870D01*
X47152Y-60870D01*
X47166Y-60862D01*
X47218Y-60835D01*
X47219Y-60833D01*
X47221Y-60833D01*
X47243Y-60815D01*
X47262Y-60800D01*
X51936Y-60800D01*
X52114Y-60784D01*
X52288Y-60739D01*
X52452Y-60664D01*
X52600Y-60562D01*
X52729Y-60436D01*
X52833Y-60292D01*
X53001Y-60014D01*
X53097Y-59880D01*
X53214Y-59766D01*
X53348Y-59674D01*
X53496Y-59605D01*
X53654Y-59564D01*
X53818Y-59550D01*
X53932Y-59550D01*
X54096Y-59564D01*
X54254Y-59605D01*
X54402Y-59674D01*
X54536Y-59766D01*
X54653Y-59880D01*
X54749Y-60014D01*
X54917Y-60292D01*
X55021Y-60436D01*
X55150Y-60562D01*
X55298Y-60664D01*
X55462Y-60739D01*
X55636Y-60784D01*
X55814Y-60800D01*
X57734Y-60800D01*
X58209Y-61275D01*
X58217Y-61283D01*
X58234Y-61297D01*
X58268Y-61326D01*
X58276Y-61331D01*
X58278Y-61332D01*
X58287Y-61336D01*
X58336Y-61365D01*
X58342Y-61367D01*
X58346Y-61369D01*
X58388Y-61382D01*
X58410Y-61389D01*
X58412Y-61389D01*
X58421Y-61392D01*
X58456Y-61395D01*
X58487Y-61400D01*
X58493Y-61400D01*
X58499Y-61400D01*
X59855Y-61423D01*
X59866Y-61425D01*
X59868Y-61424D01*
X59944Y-61420D01*
X60019Y-61398D01*
X60020Y-61397D01*
X60088Y-61363D01*
X60090Y-61361D01*
X60093Y-61360D01*
X60502Y-61093D01*
X62259Y-61050D01*
X62268Y-61048D01*
X62282Y-61049D01*
X62318Y-61042D01*
X62337Y-61040D01*
X62343Y-61037D01*
X62359Y-61035D01*
X62399Y-61019D01*
X62410Y-61016D01*
X62413Y-61014D01*
X62432Y-61007D01*
X62460Y-60988D01*
X62479Y-60978D01*
X62489Y-60969D01*
X62497Y-60964D01*
X62516Y-60946D01*
X62538Y-60927D01*
X62544Y-60919D01*
X62553Y-60911D01*
X62557Y-60906D01*
X62645Y-60800D01*
X64281Y-60800D01*
X64466Y-60783D01*
X64647Y-60734D01*
X64815Y-60653D01*
X64967Y-60544D01*
X65097Y-60410D01*
X65201Y-60254D01*
X65275Y-60084D01*
X65319Y-59952D01*
X65387Y-59794D01*
X65481Y-59654D01*
X65599Y-59532D01*
X65737Y-59433D01*
X65889Y-59360D01*
X66052Y-59315D01*
X66223Y-59300D01*
X66277Y-59300D01*
X66448Y-59315D01*
X66611Y-59360D01*
X66763Y-59433D01*
X66901Y-59532D01*
X67019Y-59654D01*
X67113Y-59794D01*
X67181Y-59952D01*
X67225Y-60084D01*
X67299Y-60254D01*
X67403Y-60410D01*
X67533Y-60544D01*
X67685Y-60653D01*
X67853Y-60734D01*
X68034Y-60783D01*
X68219Y-60800D01*
X77502Y-60800D01*
X77705Y-60780D01*
X77902Y-60720D01*
X78084Y-60623D01*
X78243Y-60493D01*
X78373Y-60334D01*
X78470Y-60152D01*
X78530Y-59955D01*
X78550Y-59752D01*
X78550Y-57245D01*
X78608Y-57208D01*
X78691Y-57130D01*
X78750Y-57044D01*
X78794Y-57112D01*
X78873Y-57193D01*
X78966Y-57258D01*
X79070Y-57303D01*
X79181Y-57328D01*
X79295Y-57330D01*
X79407Y-57310D01*
X79513Y-57269D01*
X79608Y-57208D01*
X79691Y-57130D01*
X79756Y-57037D01*
X79802Y-56933D01*
X79827Y-56823D01*
X79829Y-56693D01*
X79807Y-56582D01*
X79764Y-56477D01*
X79701Y-56382D01*
X79621Y-56302D01*
X79527Y-56238D01*
X79422Y-56194D01*
X79311Y-56171D01*
X79197Y-56171D01*
X79086Y-56192D01*
X78980Y-56235D01*
X78885Y-56297D01*
X78804Y-56376D01*
X78749Y-56455D01*
X78701Y-56382D01*
X78621Y-56302D01*
X78527Y-56238D01*
X78422Y-56194D01*
X78311Y-56171D01*
X78197Y-56171D01*
X78148Y-56180D01*
X78084Y-56127D01*
X77902Y-56030D01*
X77705Y-55970D01*
X77502Y-55950D01*
X75002Y-55950D01*
X74815Y-55932D01*
X74636Y-55878D01*
X74472Y-55789D01*
X74329Y-55671D01*
X74211Y-55528D01*
X74122Y-55364D01*
X74068Y-55185D01*
X74050Y-54998D01*
X74050Y-54203D01*
X74059Y-54112D01*
X74084Y-54028D01*
X74126Y-53950D01*
X74182Y-53882D01*
X74250Y-53826D01*
X74328Y-53784D01*
X74412Y-53759D01*
X74503Y-53750D01*
X74953Y-53750D01*
X74956Y-53756D01*
X74961Y-53765D01*
X74971Y-53779D01*
X74985Y-53789D01*
X74994Y-53794D01*
X75010Y-53800D01*
X75752Y-53800D01*
X75906Y-53785D01*
X76056Y-53739D01*
X76195Y-53666D01*
X76316Y-53566D01*
X76416Y-53445D01*
X76489Y-53306D01*
X76535Y-53156D01*
X76563Y-52864D01*
X76603Y-52732D01*
X76668Y-52611D01*
X76756Y-52506D01*
X76861Y-52418D01*
X76982Y-52353D01*
X77114Y-52313D01*
X77250Y-52300D01*
X77386Y-52313D01*
X77518Y-52353D01*
X77639Y-52418D01*
X77744Y-52506D01*
X77832Y-52611D01*
X77897Y-52732D01*
X77937Y-52864D01*
X77965Y-53156D01*
X78011Y-53306D01*
X78084Y-53445D01*
X78184Y-53566D01*
X78305Y-53666D01*
X78444Y-53739D01*
X78594Y-53785D01*
X78748Y-53800D01*
X81998Y-53800D01*
X82185Y-53818D01*
X82364Y-53872D01*
X82528Y-53961D01*
X82671Y-54079D01*
X82789Y-54222D01*
X82878Y-54386D01*
X82932Y-54565D01*
X82950Y-54752D01*
X82950Y-63498D01*
X82950Y-63498D01*
G37*
G54D40*
X82950Y-63498D02*
X82932Y-63685D01*
X82878Y-63864D01*
X82789Y-64028D01*
X82671Y-64171D01*
X82528Y-64289D01*
X82368Y-64375D01*
X82368Y-60091D01*
X82367Y-59294D01*
X82343Y-59171D01*
X82295Y-59056D01*
X82226Y-58952D01*
X82138Y-58863D01*
X82035Y-58793D01*
X81920Y-58745D01*
X81797Y-58720D01*
X81672Y-58719D01*
X81550Y-58742D01*
X81434Y-58789D01*
X81329Y-58857D01*
X81240Y-58944D01*
X81169Y-59047D01*
X81120Y-59162D01*
X81094Y-59284D01*
X81092Y-59409D01*
X81093Y-60206D01*
X81117Y-60329D01*
X81165Y-60444D01*
X81234Y-60548D01*
X81322Y-60637D01*
X81425Y-60707D01*
X81540Y-60755D01*
X81663Y-60780D01*
X81788Y-60781D01*
X81910Y-60758D01*
X82026Y-60711D01*
X82131Y-60643D01*
X82220Y-60556D01*
X82291Y-60453D01*
X82340Y-60338D01*
X82366Y-60216D01*
X82368Y-60091D01*
X82368Y-64375D01*
X82364Y-64378D01*
X82208Y-64425D01*
X29291Y-64425D01*
X29136Y-64378D01*
X28972Y-64289D01*
X28829Y-64171D01*
X28711Y-64028D01*
X28622Y-63864D01*
X28575Y-63708D01*
X28575Y-62505D01*
X28575Y-62500D01*
X28575Y-62255D01*
X28575Y-62250D01*
X28575Y-60750D01*
X28575Y-26791D01*
X28622Y-26636D01*
X28711Y-26472D01*
X28829Y-26329D01*
X28972Y-26211D01*
X29136Y-26122D01*
X29315Y-26068D01*
X29502Y-26050D01*
X31247Y-26050D01*
X31338Y-26059D01*
X31422Y-26084D01*
X31500Y-26126D01*
X31568Y-26182D01*
X31624Y-26250D01*
X31666Y-26328D01*
X31691Y-26412D01*
X31700Y-26500D01*
X31691Y-26588D01*
X31666Y-26672D01*
X31624Y-26750D01*
X31568Y-26818D01*
X31500Y-26874D01*
X31422Y-26916D01*
X31338Y-26941D01*
X31247Y-26950D01*
X30748Y-26950D01*
X30545Y-26970D01*
X30348Y-27030D01*
X30166Y-27127D01*
X30007Y-27257D01*
X29877Y-27416D01*
X29780Y-27598D01*
X29720Y-27795D01*
X29700Y-27998D01*
X29700Y-40002D01*
X29715Y-40156D01*
X29761Y-40306D01*
X29834Y-40445D01*
X29934Y-40566D01*
X30055Y-40666D01*
X30194Y-40739D01*
X30344Y-40785D01*
X30498Y-40800D01*
X30747Y-40800D01*
X30838Y-40809D01*
X30922Y-40834D01*
X31000Y-40876D01*
X31068Y-40932D01*
X31124Y-41000D01*
X31166Y-41078D01*
X31191Y-41162D01*
X31200Y-41250D01*
X31191Y-41338D01*
X31166Y-41422D01*
X31124Y-41500D01*
X31068Y-41568D01*
X31000Y-41624D01*
X30922Y-41666D01*
X30838Y-41691D01*
X30747Y-41700D01*
X30498Y-41700D01*
X30344Y-41715D01*
X30194Y-41761D01*
X30055Y-41834D01*
X29934Y-41934D01*
X29834Y-42055D01*
X29761Y-42194D01*
X29715Y-42344D01*
X29700Y-42498D01*
X29700Y-50002D01*
X29715Y-50156D01*
X29761Y-50306D01*
X29834Y-50445D01*
X29934Y-50566D01*
X30055Y-50666D01*
X30194Y-50739D01*
X30344Y-50785D01*
X30498Y-50800D01*
X30747Y-50800D01*
X30838Y-50809D01*
X30922Y-50834D01*
X31000Y-50876D01*
X31068Y-50932D01*
X31124Y-51000D01*
X31166Y-51078D01*
X31191Y-51162D01*
X31200Y-51250D01*
X31191Y-51338D01*
X31166Y-51422D01*
X31124Y-51500D01*
X31068Y-51568D01*
X31000Y-51624D01*
X30922Y-51666D01*
X30838Y-51691D01*
X30747Y-51700D01*
X30498Y-51700D01*
X30344Y-51715D01*
X30194Y-51761D01*
X30055Y-51834D01*
X29934Y-51934D01*
X29834Y-52055D01*
X29761Y-52194D01*
X29715Y-52344D01*
X29700Y-52498D01*
X29700Y-58345D01*
X29648Y-58380D01*
X29403Y-58620D01*
X29209Y-58903D01*
X29074Y-59219D01*
X29002Y-59554D01*
X28998Y-59898D01*
X29060Y-60235D01*
X29186Y-60554D01*
X29372Y-60843D01*
X29611Y-61089D01*
X29892Y-61285D01*
X30207Y-61422D01*
X30542Y-61496D01*
X30885Y-61503D01*
X31223Y-61444D01*
X31543Y-61319D01*
X31833Y-61135D01*
X32081Y-60899D01*
X32150Y-60800D01*
X39436Y-60800D01*
X39614Y-60784D01*
X39788Y-60739D01*
X39952Y-60664D01*
X40100Y-60562D01*
X40229Y-60436D01*
X40333Y-60292D01*
X40501Y-60014D01*
X40597Y-59880D01*
X40632Y-59845D01*
X40633Y-60206D01*
X40657Y-60329D01*
X40705Y-60444D01*
X40774Y-60548D01*
X40862Y-60637D01*
X40965Y-60707D01*
X41080Y-60755D01*
X41203Y-60780D01*
X41328Y-60781D01*
X41450Y-60758D01*
X41566Y-60711D01*
X41671Y-60643D01*
X41760Y-60556D01*
X41831Y-60453D01*
X41880Y-60338D01*
X41906Y-60216D01*
X41908Y-60091D01*
X41907Y-59677D01*
X42036Y-59766D01*
X42153Y-59880D01*
X42249Y-60014D01*
X42417Y-60292D01*
X42521Y-60436D01*
X42650Y-60562D01*
X42798Y-60664D01*
X42962Y-60739D01*
X43136Y-60784D01*
X43314Y-60800D01*
X45738Y-60800D01*
X45774Y-60830D01*
X45778Y-60832D01*
X45842Y-60868D01*
X45846Y-60869D01*
X45917Y-60891D01*
X45921Y-60891D01*
X45994Y-60900D01*
X45998Y-60900D01*
X46000Y-60900D01*
X46996Y-60900D01*
X47000Y-60900D01*
X47028Y-60897D01*
X47074Y-60893D01*
X47077Y-60892D01*
X47078Y-60892D01*
X47088Y-60889D01*
X47148Y-60872D01*
X47151Y-60870D01*
X47152Y-60870D01*
X47166Y-60862D01*
X47218Y-60835D01*
X47219Y-60833D01*
X47221Y-60833D01*
X47243Y-60815D01*
X47262Y-60800D01*
X51936Y-60800D01*
X52114Y-60784D01*
X52288Y-60739D01*
X52452Y-60664D01*
X52600Y-60562D01*
X52729Y-60436D01*
X52833Y-60292D01*
X53001Y-60014D01*
X53097Y-59880D01*
X53214Y-59766D01*
X53348Y-59674D01*
X53496Y-59605D01*
X53654Y-59564D01*
X53818Y-59550D01*
X53932Y-59550D01*
X54096Y-59564D01*
X54254Y-59605D01*
X54402Y-59674D01*
X54536Y-59766D01*
X54653Y-59880D01*
X54749Y-60014D01*
X54917Y-60292D01*
X55021Y-60436D01*
X55150Y-60562D01*
X55298Y-60664D01*
X55462Y-60739D01*
X55636Y-60784D01*
X55814Y-60800D01*
X57734Y-60800D01*
X58209Y-61275D01*
X58217Y-61283D01*
X58234Y-61297D01*
X58268Y-61326D01*
X58276Y-61331D01*
X58278Y-61332D01*
X58287Y-61336D01*
X58336Y-61365D01*
X58342Y-61367D01*
X58346Y-61369D01*
X58388Y-61382D01*
X58410Y-61389D01*
X58412Y-61389D01*
X58421Y-61392D01*
X58456Y-61395D01*
X58487Y-61400D01*
X58493Y-61400D01*
X58499Y-61400D01*
X59855Y-61423D01*
X59866Y-61425D01*
X59868Y-61424D01*
X59944Y-61420D01*
X60019Y-61398D01*
X60020Y-61397D01*
X60088Y-61363D01*
X60090Y-61361D01*
X60093Y-61360D01*
X60502Y-61093D01*
X62259Y-61050D01*
X62268Y-61048D01*
X62282Y-61049D01*
X62318Y-61042D01*
X62337Y-61040D01*
X62343Y-61037D01*
X62359Y-61035D01*
X62399Y-61019D01*
X62410Y-61016D01*
X62413Y-61014D01*
X62432Y-61007D01*
X62460Y-60988D01*
X62479Y-60978D01*
X62489Y-60969D01*
X62497Y-60964D01*
X62516Y-60946D01*
X62538Y-60927D01*
X62544Y-60919D01*
X62553Y-60911D01*
X62557Y-60906D01*
X62645Y-60800D01*
X64281Y-60800D01*
X64466Y-60783D01*
X64647Y-60734D01*
X64815Y-60653D01*
X64967Y-60544D01*
X65097Y-60410D01*
X65201Y-60254D01*
X65275Y-60084D01*
X65319Y-59952D01*
X65387Y-59794D01*
X65481Y-59654D01*
X65599Y-59532D01*
X65737Y-59433D01*
X65889Y-59360D01*
X66052Y-59315D01*
X66223Y-59300D01*
X66277Y-59300D01*
X66448Y-59315D01*
X66611Y-59360D01*
X66763Y-59433D01*
X66901Y-59532D01*
X67019Y-59654D01*
X67113Y-59794D01*
X67181Y-59952D01*
X67225Y-60084D01*
X67299Y-60254D01*
X67403Y-60410D01*
X67533Y-60544D01*
X67685Y-60653D01*
X67853Y-60734D01*
X68034Y-60783D01*
X68219Y-60800D01*
X77502Y-60800D01*
X77705Y-60780D01*
X77902Y-60720D01*
X78084Y-60623D01*
X78243Y-60493D01*
X78373Y-60334D01*
X78470Y-60152D01*
X78530Y-59955D01*
X78550Y-59752D01*
X78550Y-57245D01*
X78608Y-57208D01*
X78691Y-57130D01*
X78750Y-57044D01*
X78794Y-57112D01*
X78873Y-57193D01*
X78966Y-57258D01*
X79070Y-57303D01*
X79181Y-57328D01*
X79295Y-57330D01*
X79407Y-57310D01*
X79513Y-57269D01*
X79608Y-57208D01*
X79691Y-57130D01*
X79756Y-57037D01*
X79802Y-56933D01*
X79827Y-56823D01*
X79829Y-56693D01*
X79807Y-56582D01*
X79764Y-56477D01*
X79701Y-56382D01*
X79621Y-56302D01*
X79527Y-56238D01*
X79422Y-56194D01*
X79311Y-56171D01*
X79197Y-56171D01*
X79086Y-56192D01*
X78980Y-56235D01*
X78885Y-56297D01*
X78804Y-56376D01*
X78749Y-56455D01*
X78701Y-56382D01*
X78621Y-56302D01*
X78527Y-56238D01*
X78422Y-56194D01*
X78311Y-56171D01*
X78197Y-56171D01*
X78148Y-56180D01*
X78084Y-56127D01*
X77902Y-56030D01*
X77705Y-55970D01*
X77502Y-55950D01*
X75002Y-55950D01*
X74815Y-55932D01*
X74636Y-55878D01*
X74472Y-55789D01*
X74329Y-55671D01*
X74211Y-55528D01*
X74122Y-55364D01*
X74068Y-55185D01*
X74050Y-54998D01*
X74050Y-54203D01*
X74059Y-54112D01*
X74084Y-54028D01*
X74126Y-53950D01*
X74182Y-53882D01*
X74250Y-53826D01*
X74328Y-53784D01*
X74412Y-53759D01*
X74503Y-53750D01*
X74953Y-53750D01*
X74956Y-53756D01*
X74961Y-53765D01*
X74971Y-53779D01*
X74985Y-53789D01*
X74994Y-53794D01*
X75010Y-53800D01*
X75752Y-53800D01*
X75906Y-53785D01*
X76056Y-53739D01*
X76195Y-53666D01*
X76316Y-53566D01*
X76416Y-53445D01*
X76489Y-53306D01*
X76535Y-53156D01*
X76563Y-52864D01*
X76603Y-52732D01*
X76668Y-52611D01*
X76756Y-52506D01*
X76861Y-52418D01*
X76982Y-52353D01*
X77114Y-52313D01*
X77250Y-52300D01*
X77386Y-52313D01*
X77518Y-52353D01*
X77639Y-52418D01*
X77744Y-52506D01*
X77832Y-52611D01*
X77897Y-52732D01*
X77937Y-52864D01*
X77965Y-53156D01*
X78011Y-53306D01*
X78084Y-53445D01*
X78184Y-53566D01*
X78305Y-53666D01*
X78444Y-53739D01*
X78594Y-53785D01*
X78748Y-53800D01*
X81998Y-53800D01*
X82185Y-53818D01*
X82364Y-53872D01*
X82528Y-53961D01*
X82671Y-54079D01*
X82789Y-54222D01*
X82878Y-54386D01*
X82932Y-54565D01*
X82950Y-54752D01*
X82950Y-63498D01*
M02*
